<?xml version="1.0" encoding="iso-8859-1"?>
<!-- Generator: Adobe Illustrator 19.0.0, SVG Export Plug-In . SVG Version: 6.00 Build 0)  -->
<svg version="1.1" id="Layer_1" xmlns="http://www.w3.org/2000/svg" xmlns:xlink="http://www.w3.org/1999/xlink" x="0px" y="0px"
	 viewBox="0 0 512 512" style="enable-background:new 0 0 512 512;" xml:space="preserve">
<path style="fill:#F75534;" d="M369.71,374.038c-19.348,34.972-135.297,26.94-137.125,63.251
	c-1.935,38.42,75.442,12.591,75.442,12.591s-36.555,41.222,16.249,41.222c50.914,0,60.805-87.839,83.17-110.403L369.71,374.038z"/>
<path style="fill:#BD391E;" d="M255.999,433.981c0.433-8.591,19.505-21.935,49.998-31.313c-35.589,7.86-72.388,14.29-73.412,34.621
	c-1.318,26.157,34.123,22.533,56.884,17.555C275.458,454.034,255.247,448.914,255.999,433.981z"/>
<path style="fill:#F75534;" d="M142.288,137.962c19.348-34.972,135.297-26.94,137.125-63.251
	c1.935-38.42-75.442-12.591-75.442-12.591s36.555-41.222-16.249-41.222c-50.914,0-60.805,87.839-83.17,110.403L142.288,137.962z"/>
<path style="fill:#BD391E;" d="M131.828,131.301c20.532-20.715,30.556-96.435,71.455-108.707c-4.011-1.078-9.116-1.696-15.561-1.696
	c-50.914,0-60.805,87.839-83.17,110.403l37.734,6.661c0.833-1.506,1.857-2.927,3.031-4.28L131.828,131.301z"/>
<g>
	<path style="fill:#F75534;" d="M446.726,88.676c0,0,39.143,16.786,53.737,13.247s-15.021-46.256-70.57-33.953
		C429.892,67.971,423.326,82.452,446.726,88.676z"/>
	<path style="fill:#F75534;" d="M353.882,144.258c0,0,4.15,42.388-3.639,55.227s-39.538-28.318-11-77.539
		C339.243,121.946,355.032,120.07,353.882,144.258z"/>
	<path style="fill:#F75534;" d="M65.273,423.324c0,0-39.143-16.786-53.737-13.247s15.021,46.256,70.57,33.953
		C82.106,444.029,88.673,429.548,65.273,423.324z"/>
	<path style="fill:#F75534;" d="M158.116,367.742c0,0-4.15-42.388,3.639-55.227c7.79-12.839,39.538,28.318,11,77.539
		C172.755,390.054,156.967,391.93,158.116,367.742z"/>
	<path style="fill:#F75534;" d="M203.975,483.849c-10.522,7.469-24.784,8.023-37.138,6.674
		c-47.998-5.245-88.005-42.565-110.896-81.667c-79.006-134.959,16.56-288.824,148.034-346.733
		c-93.918,79.315-117.792,205.678-45.636,308.594C174.463,393.713,228.292,451.133,203.975,483.849z"/>
	<path style="fill:#F75534;" d="M141.371,342.798c-1.076,3.365-2.581,6.029-5.402,6.708c-9.895,2.372-20.522-18.484-30.344-16.363
		c-9.916,2.142-4.42,25.444-13.531,28.151c-10.397,3.093-21.065-22.132-31.535-19.55c-10.156,2.508-4.493,28.683-12.33,31.338
		c-3.25,1.097-7.022-1.599-10.992-5.496c-11.985-36.437-12.696-73.396-4.723-108.735c6.447-6.875,11.63-24.18,20.47-22.863
		c10.313,1.546,10.971,26.625,20.396,26.928c8.829,0.293,15.308-23.543,25.621-22.299c8.798,1.055,10.23,19.771,18.348,23.135
		C120.149,290.446,128.038,317.123,141.371,342.798z"/>
</g>
<path style="fill:#BD391E;" d="M57.896,246.334c0.877-0.935,1.729-2.067,2.573-3.314c-1.916-3.683-4.214-6.543-7.485-7.033
	c-8.84-1.317-14.023,15.987-20.47,22.862c-7.973,35.339-7.262,72.299,4.723,108.735c3.971,3.897,7.743,6.593,10.992,5.496
	c7.374-2.497,2.799-25.812,10.692-30.648C50.593,310.12,50.844,277.593,57.896,246.334z"/>
<g>
	<path style="fill:#F75534;" d="M98.762,250.398c2.456,0.081,4.73-1.707,6.955-4.3c-1.784-2.934-3.862-5.142-6.717-5.484
		c-2.66-0.321-5.065,1.034-7.322,3.207C93.532,247.537,95.676,250.299,98.762,250.398z"/>
	<path style="fill:#F75534;" d="M85.941,329.228c-7.144,1.764-6.465,15.229-8.158,23.991c4.797,5.028,9.582,9.481,14.31,8.075
		c6.847-2.033,5.446-15.696,8.534-23.272C95.721,332.84,90.81,328.027,85.941,329.228z"/>
	<path style="fill:#F75534;" d="M131.008,320.628c-7.205,1.556-6.277,14.276-8.724,22.158c4.616,4.138,9.224,7.789,13.685,6.72
		c2.821-0.679,4.326-3.344,5.402-6.708c-3.806-7.329-7.153-14.741-10.08-22.21C131.197,320.603,131.103,320.607,131.008,320.628z"/>
</g>
<path style="fill:#F7EDE3;" d="M32.513,258.848C51.625,174.21,120.567,98.86,203.971,62.12
	c-62.934,53.155-94.417,127.439-86.622,201.629c-8.119-3.365-9.55-22.08-18.348-23.135c-10.313-1.243-16.792,22.592-25.621,22.299
	c-9.425-0.303-10.083-25.382-20.396-26.928C44.143,234.668,38.96,251.973,32.513,258.848z"/>
<path id="SVGCleanerId_0" style="fill:#F7EDE3;" d="M203.971,483.852c-10.522,7.471-24.785,8.025-37.136,6.666
	c-47.992-5.245-88.001-42.56-110.895-81.661c-7.962-13.605-14.158-27.398-18.704-41.275c3.971,3.897,7.743,6.593,10.992,5.496
	c7.837-2.654,2.173-28.83,12.33-31.338c10.47-2.581,21.138,22.644,31.535,19.55c9.112-2.706,3.615-26.009,13.531-28.151
	c9.822-2.121,20.449,18.735,30.344,16.363c2.821-0.679,4.326-3.344,5.402-6.708c4.911,9.456,10.564,18.777,16.969,27.921
	C174.463,393.717,228.296,451.135,203.971,483.852z"/>
<g>
	<path id="SVGCleanerId_0_1_" style="fill:#F7EDE3;" d="M203.971,483.852c-10.522,7.471-24.785,8.025-37.136,6.666
		c-47.992-5.245-88.001-42.56-110.895-81.661c-7.962-13.605-14.158-27.398-18.704-41.275c3.971,3.897,7.743,6.593,10.992,5.496
		c7.837-2.654,2.173-28.83,12.33-31.338c10.47-2.581,21.138,22.644,31.535,19.55c9.112-2.706,3.615-26.009,13.531-28.151
		c9.822-2.121,20.449,18.735,30.344,16.363c2.821-0.679,4.326-3.344,5.402-6.708c4.911,9.456,10.564,18.777,16.969,27.921
		C174.463,393.717,228.296,451.135,203.971,483.852z"/>
</g>
<path style="fill:#DBD2CA;" d="M195.022,483.563c-51.891-6.708-95.149-54.423-119.902-104.425
	c-6.071-12.269-11.173-24.659-15.388-37.12c-9.013,3.71-3.889,28.482-11.502,31.061c-3.25,1.097-7.022-1.599-10.992-5.496
	c4.545,13.876,10.742,27.67,18.704,41.275c22.894,39.101,62.903,76.415,110.895,81.661c12.113,1.332,26.058,0.808,36.517-6.261
	C200.526,484.159,197.731,483.915,195.022,483.563z"/>
<g>
	<path style="fill:#F75534;" d="M308.024,28.151c10.522-7.469,24.784-8.023,37.138-6.674c47.998,5.245,88.005,42.565,110.896,81.667
		c79.006,134.959-16.56,288.824-148.034,346.733c93.917-79.315,117.792-205.678,45.636-308.594
		C337.536,118.287,283.707,60.867,308.024,28.151z"/>
	<path style="fill:#F75534;" d="M370.628,169.202c1.076-3.365,2.581-6.029,5.402-6.708c9.895-2.372,20.522,18.484,30.344,16.363
		c9.916-2.142,4.42-25.444,13.531-28.151c10.397-3.093,21.065,22.132,31.535,19.55c10.156-2.508,4.493-28.683,12.33-31.338
		c3.25-1.097,7.022,1.599,10.992,5.496c11.985,36.437,12.696,73.396,4.723,108.735c-6.447,6.875-11.63,24.18-20.47,22.863
		c-10.313-1.546-10.971-26.625-20.396-26.928c-8.829-0.293-15.308,23.543-25.621,22.299c-8.798-1.055-10.23-19.771-18.348-23.135
		C391.85,221.554,383.961,194.877,370.628,169.202z"/>
</g>
<path style="fill:#BD391E;" d="M409.662,176.869c-0.859,0.987-1.924,1.694-3.288,1.988c-9.822,2.121-20.449-18.735-30.344-16.363
	c-2.821,0.679-4.326,3.344-5.402,6.708c13.333,25.674,21.222,52.35,24.022,79.049c8.119,3.365,9.55,22.08,18.348,23.135
	c5.097,0.614,9.257-4.893,13.227-10.589C424.881,252.572,417.578,200.637,409.662,176.869z"/>
<g>
	<path style="fill:#F7EDE3;" d="M479.485,253.152C460.374,337.79,391.432,413.14,308.028,449.88
		c62.934-53.155,94.417-127.439,86.622-201.629c8.119,3.365,9.55,22.08,18.348,23.135c10.313,1.243,16.792-22.592,25.621-22.299
		c9.425,0.303,10.083,25.382,20.396,26.928C467.856,277.332,473.038,260.027,479.485,253.152z"/>
	<path style="fill:#F7EDE3;" d="M308.028,28.149c10.522-7.471,24.785-8.025,37.136-6.666c47.992,5.245,88.001,42.56,110.895,81.661
		c7.962,13.605,14.158,27.398,18.704,41.275c-3.971-3.897-7.743-6.593-10.992-5.496c-7.837,2.654-2.173,28.83-12.33,31.338
		c-10.47,2.581-21.138-22.644-31.535-19.55c-9.112,2.706-3.615,26.009-13.531,28.151c-9.822,2.121-20.449-18.735-30.344-16.363
		c-2.821,0.679-4.326,3.344-5.402,6.708c-4.911-9.456-10.564-18.777-16.969-27.921C337.536,118.284,283.703,60.865,308.028,28.149z"
		/>
</g>
<path style="fill:#DBD2CA;" d="M388.756,146.613c-18.25-24.788-75.7-84.26-60.663-125.368c-7.197,0.736-14.211,2.747-20.065,6.905
	c-24.325,32.717,29.508,90.135,45.631,113.134c6.405,9.143,12.058,18.463,16.969,27.921c1.076-3.365,2.581-6.029,5.402-6.708
	c9.895-2.372,20.522,18.484,30.344,16.363c0.971-0.21,1.789-0.627,2.492-1.203C402.873,167.058,396.173,156.694,388.756,146.613z"/>
<circle cx="157.016" cy="454.081" r="7.837"/>
<circle cx="362.819" cy="62.119" r="7.837"/>
<path d="M20.463,326.446c0.048,0.478,0.097,0.955,0.149,1.432c0.059,0.537,0.122,1.074,0.185,1.611
	c0.096,0.83,0.195,1.659,0.303,2.487c0.003,0.024,0.006,0.047,0.009,0.071c3.39,26.219,11.837,51.598,25.267,75.849
	c-12.694-4.089-27.64-7.625-36.693-5.427c-7.248,1.753-11.046,8.437-9.236,16.253c3.329,14.376,26.635,35.349,62.164,35.348
	c5.327,0,10.934-0.482,16.784-1.517c5.642,5.779,11.567,11.142,17.72,15.993c21.736,17.138,44.907,27.157,68.867,29.775
	c3.757,0.411,7.356,0.615,10.794,0.615c12.947,0,23.591-2.909,31.732-8.689c0.671-0.476,1.263-1.055,1.753-1.716
	c21.443-28.85-6.015-70.348-28.086-99.446c20.437-39.991,5.619-75.962-8.851-84.52c-6.897-4.077-14.409-2.477-18.268,3.885
	c-4.311,7.097-5.696,20.039-5.908,32.214c-33.76-64.16-32.86-136.535,0.003-198.979c0.055-0.093,0.121-0.18,0.172-0.276
	c7.913-13.466,38.799-20.182,66.062-26.11c36.307-7.894,70.602-15.351,71.857-40.205c0.6-11.926-4.865-18.675-9.556-22.238
	c-13.449-10.212-38.631-7.364-56.469-3.505c2.823-6.797,4.243-14.551,1.115-21.506c-4.417-9.819-16.061-14.798-34.611-14.798
	c-39.021,0-56.207,42.181-70.015,76.074c-6.181,15.171-12.018,29.5-18.279,36.189l-0.567,0.588c-0.112,0.118-0.21,0.242-0.313,0.366
	c-7.723,7.932-15.006,16.217-21.761,24.807c-2.676,3.402-2.088,8.329,1.314,11.005c3.401,2.675,8.329,2.087,11.005-1.314
	c7.811-9.931,16.361-19.434,25.507-28.424c-20.994,27.588-33.072,55.652-35.331,82.587c-0.362,4.313,2.841,8.103,7.154,8.465
	c0.223,0.019,0.444,0.028,0.664,0.028c4.032,0,7.457-3.093,7.801-7.183c2.826-33.702,22.463-64.612,44.606-89.335
	c-1.118,1.952-2.204,3.917-3.264,5.892c-0.204,0.326-0.417,0.648-0.607,0.981c-0.217,0.38-0.392,0.782-0.544,1.192
	c-11.861,22.608-20.008,46.664-23.954,71.361c-1.632,10.211-2.541,20.403-2.771,30.546c-2.213-2.096-4.934-3.624-8.43-4.043
	c-10.113-1.227-16.365,7.789-21.385,15.028c-1.269,1.831-3.164,4.563-4.622,6.18c-1.045-1.854-2.26-4.857-3.074-6.868
	c-3.155-7.794-7.081-17.494-16.722-18.939c-1.467-0.218-2.849-0.213-4.159-0.028c5.503-13.963,12.507-27.854,21.011-41.579
	c2.28-3.679,1.145-8.51-2.534-10.79c-3.68-2.28-8.51-1.144-10.79,2.534c-15.468,24.964-26.494,51.481-32.616,78.14
	c-0.064,0.204-0.135,0.404-0.182,0.613c-5.024,22.265-6.585,44.342-4.71,66.029c0.014,0.156,0.027,0.311,0.041,0.467
	C20.276,324.563,20.365,325.505,20.463,326.446z M268.212,65.346c1.717,1.304,3.652,3.501,3.377,8.962
	c-0.65,12.874-31.933,19.676-59.533,25.677c-15.166,3.298-30.572,6.65-43.789,11.343c11.152-15.041,24.378-29.228,39.635-42.255
	C226.243,63.195,257.59,57.272,268.212,65.346z M187.724,28.726c16.524,0,19.726,4.246,20.314,5.547
	c2.08,4.605-3.579,14.935-8.897,21.424c-23.813,10.661-46.671,24.569-67.568,40.943c0.217-0.533,0.433-1.062,0.652-1.6
	C144.887,63.957,159.241,28.726,187.724,28.726z M25.074,426.619c-4.588-3.551-7.208-6.93-8.467-9.224
	c9.889,0.055,29.918,6.625,43.573,12.292c2.122,2.936,4.315,5.804,6.572,8.606C44.698,439.529,30.648,430.933,25.074,426.619z
	 M198.398,478.164c-7.071,4.491-17.392,6.032-30.714,4.577c-28.104-3.071-55.95-18.528-79.043-43.006
	c-0.482-0.73-1.084-1.371-1.775-1.904c-5.228-5.706-10.196-11.885-14.858-18.487c-0.213-0.362-0.453-0.706-0.724-1.031
	c-2.995-4.3-5.867-8.766-8.586-13.411c-4.672-7.98-8.746-16.092-12.24-24.314c0.093-0.029,0.184-0.05,0.277-0.082
	c8.369-2.834,9.449-12.385,10.403-20.813c0.317-2.794,0.863-7.628,1.721-9.906c2.069,1.235,5.491,4.865,7.662,7.169
	c6.209,6.588,13.936,14.788,23.799,11.852c9.195-2.73,10.76-12.782,11.903-20.123c0.353-2.272,0.906-5.815,1.59-7.592
	c1.969,0.936,5.403,4.056,7.573,6.028c5.966,5.421,13.394,12.166,22.413,10.006c0.754-0.182,1.444-0.429,2.101-0.707
	c3.571,6.149,7.439,12.217,11.604,18.192c0.037,0.056,0.075,0.111,0.114,0.166c0.102,0.146,0.2,0.295,0.302,0.441
	c2.642,3.768,6.128,8.26,10.166,13.461c1.437,1.852,2.946,3.796,4.499,5.815c0.036,0.047,0.072,0.094,0.108,0.14
	C186.067,419.829,212.505,456.888,198.398,478.164z M167.185,319.576c1.8,1.887,4.22,5.391,6.212,10.809
	c2.485,6.762,6.571,23.344-2.024,44.692c-2.047-2.651-3.88-5.058-5.424-7.186l0.016-0.345l-0.055-0.563
	C164.47,352.232,164.096,329.49,167.185,319.576z M51.918,244.062c1.433,1.649,3.331,6.338,4.404,8.99
	c3.135,7.743,7.035,17.379,16.79,17.693c8.452,0.259,13.69-7.282,18.315-13.954c1.709-2.465,4.745-6.843,6.564-8.128
	c1.159,1.346,2.768,4.77,3.781,6.925c2.072,4.407,4.354,9.248,8.103,12.573c2.965,24.628,10.098,48.746,21.297,71.864
	c-1.816-1.388-3.874-3.256-5.249-4.504c-6.161-5.598-13.141-11.942-21.961-10.037c-10.339,2.234-12.079,13.401-13.23,20.789
	c-0.318,2.035-0.799,5.132-1.38,6.947c-2.067-1.326-5.333-4.793-7.427-7.014c-6.066-6.436-13.614-14.45-23.254-12.07
	c-10.716,2.646-12.1,14.869-13.109,23.793c-0.191,1.685-0.457,4.035-0.793,5.951c-0.217-0.184-0.451-0.389-0.702-0.614
	c-10.326-32.484-11.782-66.385-4.331-100.822c2.125-2.683,3.989-5.895,5.802-9.022C47.17,250.613,50.064,245.628,51.918,244.062z"/>
<path d="M304.096,442.926c-18.339,5.878-49.686,11.8-60.309,3.728c-1.717-1.304-3.652-3.501-3.377-8.963
	c0.356-7.079,10.436-13.262,30.815-18.901c4.171-1.155,6.617-5.472,5.463-9.643s-5.47-6.616-9.643-5.463
	c-19.177,5.307-41.315,13.879-42.289,33.22c-0.6,11.926,4.865,18.675,9.556,22.238c13.448,10.212,38.63,7.363,56.469,3.505
	c-2.823,6.797-4.243,14.551-1.115,21.506c4.417,9.819,16.061,14.798,34.611,14.798c39.022,0,56.205-42.176,70.012-76.065
	c6.194-15.203,12.045-29.562,18.345-36.261l0.52-0.541c0.275-0.292,0.513-0.602,0.735-0.921
	c30.994-32.089,54.693-69.815,67.525-109.444c2.234-6.899,4.115-13.799,5.68-20.691c0.013-0.05,0.032-0.098,0.044-0.148
	c0.057-0.253,0.109-0.506,0.165-0.759c0.183-0.821,0.362-1.643,0.535-2.464c0.154-0.726,0.298-1.452,0.444-2.178
	c0.303-1.507,0.591-3.013,0.862-4.519c0.094-0.521,0.187-1.043,0.277-1.563c0.549-3.169,1.025-6.336,1.433-9.498
	c0.07-0.542,0.136-1.085,0.202-1.626c0.183-1.511,0.349-3.021,0.499-4.53c0.069-0.686,0.139-1.374,0.201-2.061
	c0.078-0.867,0.15-1.735,0.218-2.601c0.069-0.885,0.13-1.769,0.187-2.653c0.071-1.084,0.134-2.166,0.188-3.248
	c0.048-0.958,0.091-1.916,0.126-2.875c0.025-0.682,0.05-1.364,0.068-2.045c0.039-1.423,0.064-2.845,0.073-4.266
	c0.003-0.555,0-1.109-0.001-1.663c-0.002-1.171-0.014-2.341-0.034-3.51c-0.009-0.48-0.014-0.96-0.026-1.44
	c-0.038-1.509-0.096-3.017-0.167-4.522c-0.024-0.505-0.051-1.008-0.079-1.513c-0.075-1.382-0.163-2.764-0.266-4.143
	c-0.027-0.366-0.054-0.732-0.084-1.098c-0.114-1.413-0.245-2.824-0.388-4.234c-0.053-0.526-0.107-1.05-0.164-1.575
	c-0.161-1.474-0.333-2.948-0.526-4.418c-0.066-0.507-0.141-1.012-0.211-1.519c-0.15-1.088-0.31-2.173-0.479-3.259
	c-0.095-0.611-0.187-1.224-0.287-1.834c-0.222-1.347-0.457-2.692-0.705-4.034c-0.135-0.731-0.278-1.461-0.421-2.191
	c-0.159-0.808-0.323-1.614-0.491-2.42c-0.262-1.259-0.538-2.517-0.824-3.772c-0.159-0.697-0.317-1.393-0.484-2.089
	c-0.217-0.912-0.442-1.822-0.673-2.732c-0.123-0.488-0.253-0.975-0.38-1.462c-0.433-1.66-0.887-3.315-1.363-4.968
	c-0.117-0.406-0.233-0.814-0.353-1.22c-4.446-15.119-10.638-29.923-18.592-44.291c10.033,3.227,21.473,6.116,30.281,6.115
	c2.352,0,4.518-0.207,6.418-0.668c7.248-1.753,11.047-8.439,9.236-16.257c-3.831-16.534-34.083-41.793-78.958-33.838
	c-6.007-6.15-12.333-11.829-18.919-16.927c-3.423-2.65-8.346-2.023-10.994,1.4c-2.65,3.423-2.023,8.345,1.4,10.994
	c6.962,5.39,13.618,11.493,19.874,18.168c0.053,0.062,0.111,0.118,0.165,0.178c9.443,10.102,17.963,21.519,25.182,33.851
	c4.662,7.964,8.735,16.081,12.221,24.325c-0.087,0.027-0.171,0.041-0.259,0.07c-8.369,2.834-9.449,12.385-10.403,20.813
	c-0.317,2.794-0.863,7.628-1.721,9.906c-2.069-1.235-5.491-4.865-7.662-7.169c-6.209-6.587-13.934-14.785-23.799-11.852
	c-9.195,2.73-10.76,12.782-11.903,20.123c-0.353,2.272-0.906,5.815-1.59,7.592c-1.969-0.936-5.403-4.056-7.573-6.028
	c-5.967-5.422-13.398-12.168-22.413-10.006c-0.754,0.182-1.444,0.429-2.101,0.707c-3.571-6.149-7.439-12.217-11.604-18.192
	c-0.037-0.056-0.075-0.111-0.114-0.166c-0.102-0.146-0.2-0.295-0.302-0.441c-2.642-3.768-6.128-8.26-10.166-13.461
	c-1.437-1.852-2.946-3.796-4.499-5.815c-0.036-0.047-0.072-0.094-0.108-0.14c-19.376-25.191-45.814-62.251-31.706-83.528
	c7.071-4.492,17.394-6.03,30.714-4.577c8.906,0.973,17.874,3.195,26.653,6.604c4.033,1.566,8.575-0.435,10.142-4.47
	c1.566-4.034-0.435-8.575-4.47-10.142c-10.054-3.904-20.358-6.452-30.624-7.573c-17.915-1.959-32.224,0.759-42.527,8.074
	c-0.671,0.476-1.263,1.055-1.753,1.716c-21.443,28.85,6.015,70.348,28.086,99.446c-20.437,39.991-5.619,75.963,8.851,84.521
	c2.553,1.509,5.19,2.241,7.696,2.241c4.262,0,8.143-2.118,10.573-6.126c4.311-7.097,5.696-20.039,5.908-32.214
	c33.74,64.122,32.861,136.45,0.055,198.869c-0.047,0.076-0.099,0.147-0.144,0.226c-7.673,13.424-39.175,20.354-60.021,24.94
	c-4.228,0.93-6.901,5.111-5.971,9.337c0.806,3.66,4.047,6.154,7.647,6.154c0.558,0,1.124-0.06,1.692-0.185
	c13.702-3.015,26.548-6.074,37.594-9.964C332.554,415.739,319.338,429.912,304.096,442.926z M324.275,483.274
	c-16.524,0-19.726-4.246-20.314-5.547c-2.082-4.608,3.589-14.952,8.912-21.44c24.13-10.801,46.879-24.683,67.551-40.917
	c-0.217,0.533-0.433,1.062-0.652,1.599C367.11,448.047,352.758,483.274,324.275,483.274z M486.923,85.377
	c4.588,3.551,7.208,6.93,8.468,9.224c-9.868-0.069-29.899-6.631-43.565-12.287c-2.124-2.939-4.322-5.809-6.58-8.612
	C467.299,72.464,481.348,81.063,486.923,85.377z M386.073,176.478c6.161,5.598,13.144,11.943,21.961,10.037
	c10.339-2.234,12.079-13.401,13.23-20.789c0.318-2.035,0.799-5.131,1.38-6.946c2.067,1.326,5.333,4.793,7.427,7.014
	c6.066,6.436,13.614,14.448,23.254,12.07c10.716-2.646,12.1-14.869,13.109-23.793c0.191-1.685,0.457-4.035,0.793-5.951
	c0.205,0.173,0.428,0.369,0.662,0.58c0.168,0.531,0.343,1.061,0.507,1.591c0.208,0.674,0.406,1.348,0.607,2.023
	c0.363,1.223,0.723,2.445,1.061,3.672c0.053,0.192,0.1,0.385,0.153,0.577c1.782,6.56,3.214,13.18,4.285,19.852
	c0,0.003,0.001,0.006,0.001,0.008c1.368,8.525,2.155,17.134,2.358,25.803c0.001,0.033,0.002,0.067,0.003,0.1
	c0.038,1.634,0.051,3.272,0.047,4.91c-0.001,0.228-0.003,0.457-0.004,0.684c-0.009,1.572-0.034,3.144-0.081,4.72
	c-0.006,0.191-0.016,0.382-0.022,0.574c-0.144,4.359-0.446,8.732-0.883,13.113c-0.097,0.971-0.191,1.941-0.303,2.913
	c-0.101,0.887-0.217,1.774-0.33,2.662c-0.149,1.165-0.306,2.33-0.476,3.496c-0.112,0.767-0.227,1.534-0.347,2.301
	c-0.217,1.38-0.451,2.762-0.698,4.145c-0.103,0.581-0.201,1.162-0.309,1.743c-0.371,1.987-0.765,3.977-1.196,5.968
	c-2.125,2.683-3.989,5.895-5.802,9.022c-1.631,2.811-4.523,7.795-6.378,9.36c-1.433-1.649-3.331-6.338-4.405-8.99
	c-3.135-7.743-7.035-17.379-16.79-17.693c-0.153-0.004-0.304-0.007-0.455-0.007c-8.182,0-13.319,7.409-17.861,13.961
	c-1.709,2.465-4.745,6.843-6.564,8.128c-1.159-1.346-2.768-4.77-3.781-6.925c-2.072-4.407-4.354-9.248-8.103-12.573
	c-2.965-24.628-10.098-48.746-21.297-71.864C382.641,173.362,384.699,175.23,386.073,176.478z M344.814,192.424
	c-1.8-1.887-4.22-5.391-6.212-10.809c-2.485-6.762-6.571-23.344,2.024-44.692c2.046,2.651,3.879,5.058,5.424,7.186l-0.016,0.345
	l0.055,0.563C347.528,159.768,347.902,182.51,344.814,192.424z M400.864,305.669c1.632-10.211,2.541-20.403,2.771-30.546
	c2.213,2.096,4.934,3.624,8.43,4.043c10.107,1.224,16.365-7.789,21.385-15.028c1.268-1.831,3.164-4.563,4.622-6.18
	c1.045,1.854,2.26,4.857,3.074,6.868c3.155,7.794,7.081,17.494,16.721,18.939c0.764,0.114,1.504,0.168,2.224,0.168
	c0.605,0,1.194-0.04,1.77-0.114c-13.623,34.836-36.023,67.753-64.432,95.778c20.967-27.57,33.029-55.614,35.286-82.529
	c0.362-4.313-2.841-8.103-7.154-8.465c-4.318-0.36-8.103,2.842-8.465,7.154c-2.826,33.704-22.465,64.614-44.608,89.338
	c1.118-1.953,2.205-3.918,3.267-5.894c0.206-0.331,0.418-0.659,0.611-0.998c0.217-0.38,0.39-0.772,0.537-1.17
	C388.767,354.426,396.916,330.368,400.864,305.669z"/>
<g>
</g>
<g>
</g>
<g>
</g>
<g>
</g>
<g>
</g>
<g>
</g>
<g>
</g>
<g>
</g>
<g>
</g>
<g>
</g>
<g>
</g>
<g>
</g>
<g>
</g>
<g>
</g>
<g>
</g>
</svg>
