<?xml version="1.0" encoding="iso-8859-1"?>
<!-- Generator: Adobe Illustrator 19.0.0, SVG Export Plug-In . SVG Version: 6.00 Build 0)  -->
<svg version="1.1" id="Layer_1" xmlns="http://www.w3.org/2000/svg" xmlns:xlink="http://www.w3.org/1999/xlink" x="0px" y="0px"
	 viewBox="0 0 512.002 512.002" style="enable-background:new 0 0 512.002 512.002;" xml:space="preserve">
<path style="fill:#F75534;" d="M373.303,377.766c-19.96,36.076-139.569,27.791-141.455,65.249
	c-1.996,39.633,77.824,12.989,77.824,12.989s-37.71,42.524,16.761,42.524c52.522,0,62.725-90.614,85.796-113.89L373.303,377.766z"/>
<path style="fill:#BD391E;" d="M256.001,439.602c0.446-8.863,20.121-22.627,51.577-32.302
	c-36.712,8.108-74.675,14.741-75.731,35.715c-1.358,26.983,35.202,23.245,58.68,18.11
	C276.074,460.289,255.225,455.008,256.001,439.602z"/>
<path style="fill:#F75534;" d="M138.698,134.236c19.96-36.076,139.569-27.791,141.455-65.249
	c1.996-39.633-77.824-12.989-77.824-12.989s37.71-42.524-16.761-42.524c-52.522,0-62.725,90.614-85.797,113.89L138.698,134.236z"/>
<path style="fill:#BD391E;" d="M127.908,127.363c21.181-21.369,31.52-99.481,73.711-112.141c-4.138-1.112-9.404-1.749-16.052-1.749
	c-52.522,0-62.725,90.614-85.797,113.89l38.927,6.872c0.859-1.554,1.916-3.019,3.127-4.415L127.908,127.363z"/>
<g>
	<path style="fill:#F75534;" d="M452.751,83.393c0,0,40.379,17.316,55.434,13.665c15.055-3.651-15.496-47.716-72.799-35.025
		C435.386,62.033,428.612,76.972,452.751,83.393z"/>
	<path style="fill:#F75534;" d="M356.975,140.73c0,0,4.282,43.727-3.754,56.971s-40.787-29.211-11.348-79.987
		C341.874,117.714,358.16,115.779,356.975,140.73z"/>
	<path style="fill:#F75534;" d="M59.251,428.609c0,0-40.379-17.316-55.434-13.665c-15.055,3.651,15.496,47.716,72.799,35.025
		C76.616,449.968,83.39,435.029,59.251,428.609z"/>
	<path style="fill:#F75534;" d="M155.027,371.272c0,0-4.282-43.727,3.754-56.971c8.036-13.244,40.787,29.211,11.348,79.987
		C170.128,394.288,153.841,396.223,155.027,371.272z"/>
	<path style="fill:#F75534;" d="M202.334,491.045c-10.853,7.705-25.567,8.277-38.31,6.884c-49.514-5.41-90.785-43.91-114.399-84.247
		C-31.876,274.461,66.707,115.738,202.334,56.001c-96.884,81.82-121.512,212.173-47.077,318.339
		C171.89,398.063,227.419,457.296,202.334,491.045z"/>
	<path style="fill:#F75534;" d="M137.753,345.539c-1.111,3.471-2.662,6.219-5.572,6.92c-10.208,2.447-21.17-19.068-31.302-16.88
		c-10.23,2.21-4.56,26.248-13.959,29.039c-10.725,3.19-21.731-22.83-32.531-20.168c-10.477,2.587-4.635,29.589-12.72,32.327
		c-3.352,1.132-7.243-1.649-11.339-5.67c-12.363-37.587-13.097-75.713-4.872-112.169c6.651-7.093,11.996-24.943,21.116-23.585
		c10.639,1.596,11.318,27.465,21.04,27.778c9.108,0.302,15.792-24.286,26.43-23.002c9.076,1.089,10.552,20.394,18.928,23.865
		C115.861,291.535,123.999,319.054,137.753,345.539z"/>
</g>
<path style="fill:#BD391E;" d="M51.642,246.029c0.905-0.964,1.785-2.133,2.653-3.42c-1.977-3.799-4.348-6.75-7.722-7.256
	c-9.119-1.358-14.466,16.493-21.116,23.584c-8.224,36.455-7.491,74.582,4.872,112.169c4.096,4.021,7.987,6.801,11.339,5.67
	c7.607-2.576,2.888-26.627,11.031-31.617C44.108,311.83,44.367,278.276,51.642,246.029z"/>
<g>
	<path style="fill:#F75534;" d="M93.798,250.223c2.534,0.084,4.88-1.761,7.175-4.436c-1.84-3.027-3.983-5.304-6.929-5.657
		c-2.745-0.331-5.224,1.067-7.553,3.308C88.403,247.271,90.615,250.12,93.798,250.223z"/>
	<path style="fill:#F75534;" d="M80.573,331.541c-7.369,1.819-6.669,15.71-8.416,24.748c4.949,5.187,9.884,9.781,14.762,8.33
		c7.064-2.098,5.618-16.192,8.803-24.007C90.661,335.267,85.595,330.302,80.573,331.541z"/>
	<path style="fill:#F75534;" d="M127.062,322.669c-7.432,1.605-6.475,14.728-8.999,22.858c4.763,4.268,9.516,8.035,14.117,6.932
		c2.91-0.701,4.463-3.449,5.572-6.92c-3.926-7.56-7.379-15.206-10.398-22.911C127.258,322.643,127.16,322.649,127.062,322.669z"/>
</g>
<path style="fill:#F7EDE3;" d="M25.458,258.939c19.715-87.312,90.834-165.041,176.872-202.94
	c-64.922,54.834-97.398,131.463-89.358,207.995c-8.375-3.471-9.852-22.777-18.928-23.865c-10.639-1.283-17.321,23.304-26.43,23.002
	c-9.723-0.312-10.402-26.183-21.04-27.778C37.455,233.995,32.108,251.846,25.458,258.939z"/>
<path id="SVGCleanerId_0" style="fill:#F7EDE3;" d="M202.33,491.047c-10.854,7.707-25.568,8.279-38.308,6.878
	c-49.507-5.412-90.781-43.903-114.396-84.24c-8.214-14.034-14.606-28.263-19.294-42.577c4.096,4.021,7.987,6.801,11.339,5.67
	c8.084-2.738,2.242-29.74,12.72-32.327c10.8-2.662,21.806,23.359,32.531,20.168c9.399-2.792,3.729-26.83,13.959-29.039
	c10.132-2.188,21.094,19.327,31.302,16.88c2.91-0.701,4.463-3.449,5.572-6.92c5.066,9.755,10.897,19.37,17.505,28.802
	C171.89,398.066,227.423,457.298,202.33,491.047z"/>
<g>
	<path id="SVGCleanerId_0_1_" style="fill:#F7EDE3;" d="M202.33,491.047c-10.854,7.707-25.568,8.279-38.308,6.878
		c-49.507-5.412-90.781-43.903-114.396-84.24c-8.214-14.034-14.606-28.263-19.294-42.577c4.096,4.021,7.987,6.801,11.339,5.67
		c8.084-2.738,2.242-29.74,12.72-32.327c10.8-2.662,21.806,23.359,32.531,20.168c9.399-2.792,3.729-26.83,13.959-29.039
		c10.132-2.188,21.094,19.327,31.302,16.88c2.91-0.701,4.463-3.449,5.572-6.92c5.066,9.755,10.897,19.37,17.505,28.802
		C171.89,398.066,227.423,457.298,202.33,491.047z"/>
</g>
<path style="fill:#DBD2CA;" d="M193.098,490.751c-53.529-6.919-98.154-56.142-123.689-107.723
	c-6.263-12.656-11.525-25.437-15.874-38.292c-9.298,3.827-4.012,29.381-11.866,32.042c-3.352,1.132-7.243-1.649-11.339-5.67
	c4.688,14.315,11.081,28.543,19.294,42.577c23.617,40.336,64.889,78.828,114.396,84.24c12.496,1.374,26.881,0.834,37.671-6.459
	C198.775,491.365,195.892,491.114,193.098,490.751z"/>
<g>
	<path style="fill:#F75534;" d="M309.668,20.956c10.854-7.705,25.567-8.277,38.31-6.884c49.514,5.41,90.785,43.91,114.399,84.247
		c81.501,139.221-17.082,297.944-152.709,357.682c96.884-81.82,121.512-212.173,47.077-318.339
		C340.112,113.939,284.583,54.705,309.668,20.956z"/>
	<path style="fill:#F75534;" d="M374.249,166.462c1.111-3.471,2.662-6.219,5.572-6.92c10.208-2.447,21.17,19.068,31.302,16.88
		c10.23-2.21,4.56-26.248,13.959-29.039c10.725-3.19,21.731,22.83,32.531,20.168c10.477-2.587,4.635-29.589,12.72-32.327
		c3.352-1.132,7.243,1.649,11.339,5.67c12.363,37.587,13.097,75.713,4.872,112.169c-6.651,7.093-11.997,24.943-21.116,23.585
		c-10.639-1.596-11.318-27.465-21.04-27.778c-9.108-0.302-15.792,24.285-26.43,23.002c-9.076-1.089-10.552-20.394-18.928-23.865
		C396.14,220.467,388.003,192.947,374.249,166.462z"/>
</g>
<path style="fill:#BD391E;" d="M414.516,174.371c-0.886,1.019-1.984,1.747-3.393,2.051c-10.132,2.188-21.094-19.327-31.302-16.88
	c-2.91,0.701-4.463,3.449-5.572,6.92c13.754,26.485,21.892,54.003,24.781,81.545c8.375,3.471,9.852,22.777,18.928,23.865
	c5.258,0.634,9.549-5.048,13.644-10.923C430.216,252.464,422.683,198.889,414.516,174.371z"/>
<g>
	<path style="fill:#F7EDE3;" d="M486.544,253.063c-19.715,87.312-90.834,165.041-176.872,202.94
		c64.922-54.834,97.398-131.463,89.358-207.995c8.375,3.471,9.852,22.777,18.928,23.865c10.639,1.283,17.321-23.304,26.43-23.002
		c9.723,0.312,10.402,26.183,21.04,27.778C474.546,278.006,479.893,260.155,486.544,253.063z"/>
	<path style="fill:#F7EDE3;" d="M309.672,20.954c10.854-7.707,25.568-8.279,38.308-6.878c49.507,5.412,90.781,43.903,114.397,84.24
		c8.214,14.034,14.606,28.263,19.294,42.578c-4.096-4.021-7.987-6.801-11.339-5.67c-8.084,2.738-2.242,29.74-12.72,32.327
		c-10.8,2.662-21.806-23.359-32.531-20.168c-9.399,2.792-3.729,26.83-13.959,29.039c-10.132,2.188-21.094-19.327-31.302-16.88
		c-2.91,0.701-4.463,3.449-5.572,6.92c-5.066-9.755-10.897-19.37-17.505-28.802C340.112,113.935,284.579,54.703,309.672,20.954z"/>
</g>
<path style="fill:#DBD2CA;" d="M392.949,143.159c-18.827-25.571-78.089-86.921-62.578-129.327c-7.424,0.76-14.66,2.834-20.699,7.122
	c-25.093,33.75,30.44,92.981,47.072,116.707c6.608,9.432,12.438,19.046,17.505,28.802c1.111-3.471,2.662-6.219,5.572-6.92
	c10.208-2.447,21.17,19.068,31.302,16.88c1.001-0.216,1.845-0.647,2.572-1.241C407.513,164.25,400.601,153.559,392.949,143.159z"/>
<g>
	<circle style="fill:#BD391E;" cx="153.883" cy="460.341" r="8.084"/>
	<circle style="fill:#BD391E;" cx="366.196" cy="55.999" r="8.084"/>
</g>
<g>
	<path style="fill:#F75534;" d="M81.775,222.395c-0.227,0-0.455-0.009-0.684-0.029c-4.449-0.373-7.753-4.282-7.38-8.731
		c3.227-38.486,25.88-79.207,65.509-117.764c29.517-28.718,57.714-46.049,58.9-46.772c3.811-2.326,8.787-1.122,11.111,2.69
		c2.325,3.81,1.122,8.783-2.686,11.11l0,0c-1.096,0.67-109.667,67.964-116.722,152.088
		C89.468,219.205,85.933,222.394,81.775,222.395z"/>
	<path style="fill:#F75534;" d="M309.679,464.088c-2.725,0-5.385-1.377-6.909-3.874c-2.325-3.81-1.122-8.783,2.686-11.11l0,0
		c1.096-0.67,109.667-67.964,116.722-152.088c0.373-4.448,4.278-7.752,8.731-7.38c4.449,0.373,7.753,4.282,7.38,8.731
		c-3.228,38.486-25.88,79.207-65.509,117.764c-29.517,28.718-57.714,46.049-58.9,46.772
		C312.568,463.706,311.115,464.088,309.679,464.088z"/>
</g>
<g>
</g>
<g>
</g>
<g>
</g>
<g>
</g>
<g>
</g>
<g>
</g>
<g>
</g>
<g>
</g>
<g>
</g>
<g>
</g>
<g>
</g>
<g>
</g>
<g>
</g>
<g>
</g>
<g>
</g>
</svg>
