<?xml version="1.0" encoding="iso-8859-1"?>
<!-- Generator: Adobe Illustrator 19.0.0, SVG Export Plug-In . SVG Version: 6.00 Build 0)  -->
<svg version="1.1" id="Layer_1" xmlns="http://www.w3.org/2000/svg" xmlns:xlink="http://www.w3.org/1999/xlink" x="0px" y="0px"
	 viewBox="0 0 512 512" style="enable-background:new 0 0 512 512;" xml:space="preserve">
<path style="fill:#F75534;" d="M381.551,333.804c-45.986,63.47,3.914,134.47-46.202,142.428
	c-48.803,7.754-32.931,27.93-79.347,27.93s-30.544-20.177-79.347-27.93c-50.117-7.958-0.216-78.958-46.202-142.428
	C84.479,270.334,63.703,7.837,256.001,7.837S427.523,270.334,381.551,333.804z"/>
<path style="fill:#BD391E;" d="M195.462,476.233c-50.117-7.958-0.216-78.958-46.202-142.428
	C104.051,271.389,83.212,16.508,265.405,8.057c-3.078-0.143-6.21-0.22-9.404-0.22c-192.298,0-171.522,262.497-125.55,325.967
	c45.986,63.47-3.915,134.47,46.202,142.428c48.803,7.754,32.931,27.93,79.347,27.93c3.467,0,6.58-0.115,9.404-0.327
	C230.41,501.217,240.62,483.407,195.462,476.233z"/>
<g>
	<path style="fill:#362928;" d="M131.683,179.084c13.881-0.315,60.636,1.365,92.349,35.555c0.928,1,1.335,2.415,0.994,3.736
		c-6.218,24.082-97.572,69.423-97.417-35.113C127.612,180.998,129.421,179.135,131.683,179.084z"/>
	<path style="fill:#362928;" d="M150.492,78.937c0,0,3.126,40.288,65.117,67.41c6.972,3.05,12.783,8.409,15.937,15.348
		c3.389,7.457,2.691,14.935-17.151,11.348C187.856,168.243,121.583,112.808,150.492,78.937z"/>
	<path style="fill:#362928;" d="M380.158,179.084c-13.881-0.315-60.636,1.365-92.349,35.555c-0.928,1-1.335,2.415-0.994,3.736
		c6.218,24.082,97.572,69.423,97.417-35.113C384.229,180.998,382.421,179.135,380.158,179.084z"/>
	<path style="fill:#362928;" d="M361.349,78.937c0,0-3.126,40.288-65.117,67.41c-6.972,3.05-12.783,8.409-15.937,15.348
		c-3.389,7.457-2.691,14.935,17.151,11.348C323.985,168.243,390.259,112.808,361.349,78.937z"/>
</g>
<path style="fill:#FFE8D1;" d="M338.275,434.796c1.334,4.448-2.431,8.767-7.012,8.007c-13.272-2.201-40.307-5.716-77.592-5.716
	c-37.02,0-62.851,3.466-75.534,5.669c-4.514,0.785-8.281-3.381-7.113-7.811c4.951-18.776,22.534-58.571,82.646-58.571
	C313.623,376.374,332.626,415.959,338.275,434.796z"/>
<path style="fill:#DBD2CA;" d="M253.671,409.695c-36.211,0-61.698,3.314-74.664,5.521c-4.153,7.366-6.587,14.428-7.993,19.775
	c-1.161,4.413,2.632,8.545,7.127,7.765c12.683-2.204,38.513-5.669,75.531-5.669c37.283,0,64.318,3.515,77.59,5.716
	c4.564,0.757,8.353-3.535,7.026-7.967c-1.601-5.346-4.279-12.372-8.667-19.692C315.832,412.937,289.484,409.695,253.671,409.695z"/>
<g>
	<path style="fill:#362928;" d="M276.692,332.537c16.182-2.453,72.605-7.959,109.519,26.857c2.553,2.407,1.188,6.699-2.286,7.19
		c-24.643,3.477-98.396,10.424-110.614-28.733C272.555,335.431,274.186,332.916,276.692,332.537z"/>
	<path style="fill:#362928;" d="M235.311,332.537c-16.182-2.453-72.605-7.959-109.519,26.857c-2.553,2.407-1.188,6.699,2.286,7.19
		c24.643,3.477,98.396,10.424,110.614-28.733C239.448,335.431,237.817,332.916,235.311,332.537z"/>
</g>
<path style="fill:#F75534;" d="M286.815,385.787c-0.23,0.825-0.491,1.641-0.763,2.414c-12.925,37.198-47.177,37.198-60.103,0
	c-12.936-37.198,3.323-136.401,3.323-136.401h53.457C282.729,251.799,298.319,346.896,286.815,385.787z"/>
<path style="fill:#BD391E;" d="M243.074,388.2c-9.628-27.687-3.083-89.72,0.893-119.636c1.181-8.884-5.733-16.765-14.694-16.765l0,0
	c0,0-16.259,99.203-3.323,136.401c8.04,23.141,24.335,31.877,38.613,26.226C255.89,410.993,247.958,402.257,243.074,388.2z"/>
<ellipse style="fill:#E64524;" cx="256" cy="383.06" rx="29.235" ry="33.039"/>
<path d="M99.305,210.612c4.328-0.02,7.821-3.544,7.802-7.871c-0.165-37.168,6.025-106.016,49.331-149.514
	c24.807-24.918,58.305-37.553,99.563-37.553c22.894,0,43.589,3.922,61.509,11.656c3.973,1.714,8.585-0.114,10.301-4.09
	c1.715-3.974-0.116-8.585-4.09-10.3C303.828,4.353,281.044,0,256.001,0c-45.579,0-82.814,14.187-110.671,42.167
	C98.026,89.682,91.258,163.209,91.434,202.809c0.02,4.316,3.524,7.802,7.837,7.802C99.281,210.612,99.293,210.612,99.305,210.612z"
	/>
<path d="M360.96,36.737c-3.221-2.891-8.176-2.623-11.067,0.599c-2.891,3.221-2.623,8.175,0.599,11.067
	c46.294,41.541,53.943,111.187,54.382,149.006c0.714,61.422-14.877,111.378-29.665,131.798c-2.044,2.821-3.947,5.736-5.721,8.708
	c-23.964-12.786-50.503-15.537-71.241-15.034c-0.365-6.984-0.868-13.911-1.447-20.551c8.967,9.154,22.421,17.311,41.918,17.311
	c3.249,0,6.669-0.227,10.26-0.713c4.289-0.582,7.294-4.529,6.715-8.818c-0.581-4.288-4.525-7.292-8.817-6.715
	c-43.807,5.939-53.565-38.194-53.965-40.107c-0.171-0.835-0.474-1.608-0.876-2.31c-0.842-5.915-1.454-9.703-1.577-10.447
	c-0.7-4.271-4.728-7.162-9.001-6.466c-4.271,0.7-7.166,4.729-6.466,9.001c0.101,0.619,6.471,40.026,7.96,77.589
	c-0.016,0.302-0.018,0.607,0.002,0.915c0.009,0.141,0.032,0.278,0.048,0.416c0.292,7.975,0.356,15.843,0.088,23.217
	c-6.771-7.999-16.408-13.014-27.091-13.014c-10.683,0-20.319,5.014-27.091,13.014c-0.269-7.373-0.204-15.24,0.088-23.213
	c0.017-0.141,0.04-0.281,0.049-0.424c0.02-0.308,0.018-0.612,0.002-0.914c1.489-37.562,7.859-76.967,7.96-77.586
	c0.699-4.272-2.195-8.301-6.466-9.001c-4.271-0.702-8.301,2.196-9.001,6.466c-0.122,0.744-0.735,4.532-1.577,10.449
	c-0.404,0.706-0.708,1.486-0.88,2.328c-0.023,0.116-2.583,11.932-10.52,22.688c-10.365,14.046-24.984,19.902-43.441,17.4
	c-4.288-0.577-8.236,2.426-8.817,6.715c-0.581,4.289,2.425,8.237,6.715,8.818c3.592,0.486,7.009,0.713,10.26,0.713
	c19.494,0,32.951-8.158,41.918-17.311c-0.579,6.642-1.083,13.57-1.447,20.556c-20.745-0.492-47.286,2.258-71.23,15.03
	c-1.774-2.972-3.677-5.888-5.721-8.709c-12.325-17.005-22.746-50.286-27.196-86.857c-0.522-4.295-4.426-7.347-8.726-6.833
	c-4.297,0.523-7.356,4.429-6.834,8.727c4.824,39.643,16.063,74.844,30.064,94.16c1.851,2.554,3.563,5.196,5.156,7.888
	c-5.521,4.109-10.573,8.738-15.071,13.83c-1.865,2.112-2.453,5.063-1.54,7.728s3.187,4.636,5.955,5.16
	c0.422,0.079,9.327,1.75,22.311,2.961c3.81,16.952,3.531,33.586,3.269,48.424c-0.255,14.455-0.474,26.939,2.992,37.227
	c4.28,12.703,13.518,20.015,28.238,22.355c21.335,3.39,28.768,9.055,35.957,14.533c9.107,6.938,17.708,13.493,44.624,13.493
	s35.517-6.555,44.622-13.494c7.189-5.478,14.622-11.144,35.957-14.533c14.721-2.339,23.957-9.65,28.238-22.352
	c3.467-10.286,3.248-22.768,2.995-37.221c-0.26-14.84-0.537-31.477,3.278-48.43c12.977-1.212,21.878-2.882,22.3-2.961
	c2.769-0.525,5.043-2.496,5.956-5.163c0.912-2.667,0.323-5.617-1.545-7.728c-4.512-5.101-9.56-9.729-15.057-13.824
	c1.592-2.693,3.306-5.335,5.159-7.892c19.867-27.436,33.29-85.488,32.644-141.174C420.078,156.836,411.713,82.278,360.96,36.737z
	 M218.544,390.774c0.904,2.6,1.914,5.069,3.022,7.398c5.098,14.074,17.088,24.311,31.35,25.614c0.092,0.008,0.184,0.015,0.275,0.023
	c0.383,0.032,0.767,0.065,1.154,0.084c0.55,0.029,1.101,0.046,1.656,0.046c0.555,0,1.107-0.018,1.656-0.046
	c0.387-0.019,0.77-0.051,1.154-0.084c0.092-0.008,0.184-0.015,0.275-0.023c14.262-1.303,26.252-11.54,31.35-25.614
	c0.924-1.942,1.775-3.988,2.558-6.12c23.181,10.804,33.04,30.376,37.084,42.607c-14.302-2.257-40.661-5.405-76.408-5.405
	c-35.398,0-60.67,3.092-74.411,5.351c3.834-12.799,13.833-33.884,39.166-44.194C218.465,390.531,218.503,390.656,218.544,390.774z
	 M256.001,357.861c11.799,0,21.398,11.305,21.398,25.202c0,3.09-0.476,6.051-1.345,8.789c-5.033,10.26-12.383,16.413-20.054,16.413
	c-7.671,0-15.02-6.154-20.054-16.413c-0.868-2.738-1.345-5.699-1.345-8.789C234.602,369.167,244.202,357.861,256.001,357.861z
	 M143.736,355.331c0.01-0.007,0.021-0.014,0.031-0.021c23.105-14.727,51.117-17.12,69.428-16.753
	c-0.089,5.166-0.072,10.268,0.075,15.22c-14.612,6.635-37.591,9.13-65.515,7.035c-3.765-0.28-7.279-0.619-10.434-0.971
	C139.379,358.252,141.519,356.746,143.736,355.331z M334.122,468.493c-25.235,4.009-35.085,11.516-42.998,17.547
	c-7.836,5.973-13.497,10.287-35.122,10.287s-27.286-4.314-35.122-10.287c-7.914-6.031-17.763-13.538-42.998-17.547
	c-17.285-2.746-18.563-12.956-18.018-43.824c0.255-14.49,0.526-30.589-2.71-47.637c2.988,0.11,6.048,0.18,9.17,0.18
	c16.061,0,33.469-1.67,48.037-6.978c0.176,1.606,0.372,3.177,0.59,4.71c-24.364,9.064-37.491,26.068-44.315,39.284
	c-7.982,15.46-9.223,29.063-9.272,29.634c-0.215,2.516,0.795,4.983,2.716,6.625c1.919,1.641,4.512,2.26,6.966,1.653
	c0.293-0.071,29.915-7.212,82.628-7.212c52.591,0,84.772,7.171,85.085,7.243c0.579,0.133,1.164,0.196,1.746,0.196
	c1.915,0,3.788-0.703,5.242-2.011c1.895-1.705,2.842-4.227,2.539-6.758c-0.243-2.027-6.256-47.859-51.475-67
	c0.32-2.051,0.597-4.177,0.835-6.364c14.569,5.309,31.978,6.979,48.041,6.979c3.123,0,6.184-0.07,9.174-0.181
	c-3.24,17.05-2.971,33.151-2.717,47.642C352.683,455.539,351.405,465.747,334.122,468.493z M364.251,360.816
	c-27.926,2.095-50.907-0.401-65.52-7.036c0.147-4.953,0.164-10.057,0.075-15.225c18.305-0.377,46.311,2.015,69.444,16.761
	c0.008,0.005,0.016,0.01,0.024,0.016c2.213,1.412,4.353,2.917,6.413,4.515C371.535,360.196,368.021,360.535,364.251,360.816z"/>
<path d="M126.971,171.464c-3.978,0.35-7.055,3.635-7.147,7.628c-0.822,36.044,8.179,60.043,26.754,71.33
	c7.202,4.376,15.684,6.547,24.792,6.547c11.214,0,23.376-3.29,35.258-9.806c12.668-6.945,26.3-18.71,26.563-30.896
	c0.044-1.981-0.666-3.904-1.983-5.382C191.51,166.329,129.586,171.235,126.971,171.464z M199.092,233.419
	c-12.785,7.009-31.159,11.64-44.375,3.608c-12.104-7.355-18.698-24.604-19.236-50.104c15.756,0.207,54.198,3.749,81.197,31.359
	C214.684,221.875,209.069,227.947,199.092,233.419z"/>
<path d="M238.185,175.954c2.435-3.126,4.495-8.7,0.496-17.5c-3.865-8.505-10.943-15.354-19.93-19.287
	c-56.208-24.592-60.292-59.285-60.45-60.897c-0.267-3.136-2.388-5.811-5.383-6.785c-3.015-0.98-6.326-0.048-8.385,2.365
	c-9.427,11.045-11.526,24.966-6.071,40.256c11.194,31.375,53.113,62.774,74.54,66.648c3.082,0.558,6.649,1.062,10.199,1.062
	C228.945,181.814,234.648,180.496,238.185,175.954z M215.79,165.331c-17.08-3.088-53.389-30.769-62.566-56.492
	c-0.497-1.395-0.905-2.752-1.221-4.075c8.945,14.971,26.415,33.865,60.467,48.763c5.44,2.379,9.681,6.432,11.944,11.412
	c0.194,0.427,0.345,0.8,0.461,1.12C223.343,166.201,220.543,166.19,215.79,165.331z"/>
<path d="M340.119,241.285c-0.034-0.001-0.068-0.001-0.102-0.001c-4.281,0-7.779,3.443-7.835,7.735
	c-0.055,4.328,3.407,7.882,7.735,7.937c0.243,0.003,0.485,0.005,0.727,0.005c13.058,0,24.453-4.545,32.99-13.167
	c12.88-13.009,19.065-34.778,18.382-64.704c-0.091-3.992-3.169-7.278-7.147-7.628c-2.615-0.229-64.539-5.135-104.237,39.42
	c-1.318,1.48-2.027,3.403-1.983,5.383c0.231,10.638,10.653,20.013,16.845,24.655c3.462,2.597,8.375,1.893,10.971-1.569
	c2.596-3.463,1.893-8.376-1.569-10.971c-5.459-4.093-8.403-7.75-9.715-10.119c27.005-27.598,65.437-31.134,81.177-31.34
	c-0.461,21.341-5.206,37.104-13.86,45.845C356.785,238.537,349.238,241.401,340.119,241.285z"/>
<path d="M358.924,71.485c-3.017,0.98-5.143,3.683-5.389,6.846c-0.027,0.356-3.422,35.888-60.445,60.836
	c-8.987,3.933-16.065,10.781-19.929,19.286c-4,8.801-1.938,14.375,0.495,17.501c3.537,4.543,9.239,5.861,14.985,5.861
	c3.55,0,7.117-0.503,10.199-1.062c21.427-3.873,63.346-35.273,74.54-66.648c5.455-15.291,3.356-29.211-6.071-40.256
	C365.25,71.437,361.942,70.503,358.924,71.485z M358.618,108.838c-9.177,25.723-45.488,53.405-62.566,56.492
	c-4.753,0.859-7.554,0.872-9.083,0.727c0.116-0.321,0.266-0.693,0.461-1.121c2.262-4.979,6.505-9.032,11.943-11.411
	c34.052-14.898,51.523-33.792,60.467-48.763C359.523,106.085,359.116,107.443,358.618,108.838z"/>
<g>
</g>
<g>
</g>
<g>
</g>
<g>
</g>
<g>
</g>
<g>
</g>
<g>
</g>
<g>
</g>
<g>
</g>
<g>
</g>
<g>
</g>
<g>
</g>
<g>
</g>
<g>
</g>
<g>
</g>
</svg>
