<?xml version="1.0" encoding="iso-8859-1"?>
<!-- Generator: Adobe Illustrator 19.0.0, SVG Export Plug-In . SVG Version: 6.00 Build 0)  -->
<svg version="1.1" id="Layer_1" xmlns="http://www.w3.org/2000/svg" xmlns:xlink="http://www.w3.org/1999/xlink" x="0px" y="0px"
	 viewBox="0 0 512 512" style="enable-background:new 0 0 512 512;" xml:space="preserve">
<path style="fill:#F75534;" d="M385.514,336.262c-47.438,65.474,4.039,138.716-47.662,146.926C287.509,491.187,303.882,512,256,512
	s-31.509-20.813-81.853-28.812c-51.699-8.21-0.224-81.451-47.661-146.926C79.061,270.786,57.629,0,256,0
	S432.939,270.786,385.514,336.262z"/>
<path style="fill:#BD391E;" d="M193.549,483.187c-51.699-8.209-0.224-81.451-47.661-146.926
	C99.252,271.875,77.755,8.945,265.701,0.228C262.526,0.08,259.296,0,256,0C57.629,0,79.061,270.786,126.486,336.262
	c47.437,65.474-4.039,138.716,47.661,146.926C224.491,491.187,208.119,512,256,512c3.577,0,6.787-0.118,9.701-0.336
	C229.601,508.96,240.133,490.589,193.549,483.187z"/>
<g>
	<path style="fill:#362928;" d="M127.757,176.656c14.319-0.324,62.551,1.407,95.265,36.678c0.957,1.031,1.377,2.491,1.025,3.854
		c-6.415,24.842-100.653,71.615-100.493-36.221C123.557,178.629,125.422,176.708,127.757,176.656z"/>
	<path style="fill:#362928;" d="M147.159,73.345c0,0,3.226,41.56,67.173,69.538c7.191,3.146,13.187,8.675,16.44,15.833
		c3.496,7.693,2.775,15.407-17.692,11.706C185.702,165.472,117.337,108.286,147.159,73.345z"/>
	<path style="fill:#362928;" d="M384.077,176.656c-14.319-0.324-62.551,1.407-95.265,36.678c-0.957,1.031-1.377,2.491-1.025,3.854
		c6.415,24.842,100.653,71.615,100.493-36.221C388.277,178.629,386.412,176.708,384.077,176.656z"/>
	<path style="fill:#362928;" d="M364.675,73.345c0,0-3.226,41.56-67.173,69.538c-7.191,3.146-13.187,8.675-16.44,15.833
		c-3.496,7.693-2.775,15.407,17.692,11.706C326.13,165.472,394.497,108.286,364.675,73.345z"/>
</g>
<path style="fill:#FFE8D1;" d="M340.872,440.442c1.376,4.589-2.508,9.044-7.234,8.26c-13.691-2.271-41.581-5.896-80.042-5.896
	c-38.189,0-64.836,3.575-77.918,5.848c-4.656,0.809-8.542-3.488-7.337-8.057c5.107-19.369,23.246-60.42,85.256-60.42
	C315.441,380.176,335.044,421.01,340.872,440.442z"/>
<path style="fill:#DBD2CA;" d="M253.596,414.549c-37.354,0-63.647,3.419-77.023,5.696c-4.285,7.597-6.795,14.884-8.246,20.4
	c-1.197,4.552,2.715,8.815,7.352,8.009c13.083-2.273,39.729-5.848,77.917-5.848c38.461,0,66.349,3.626,80.04,5.896
	c4.708,0.781,8.616-3.647,7.247-8.218c-1.651-5.515-4.414-12.762-8.941-20.314C317.72,417.893,290.54,414.549,253.596,414.549z"/>
<g>
	<path style="fill:#362928;" d="M277.344,334.954c16.693-2.531,74.898-8.211,112.977,27.705c2.633,2.484,1.226,6.911-2.358,7.417
		c-25.421,3.588-101.503,10.753-114.107-29.64C273.077,337.94,274.759,335.345,277.344,334.954z"/>
	<path style="fill:#362928;" d="M234.656,334.954c-16.693-2.531-74.898-8.211-112.977,27.705c-2.633,2.484-1.226,6.911,2.358,7.417
		c25.421,3.588,101.503,10.753,114.107-29.64C238.923,337.94,237.241,335.345,234.656,334.954z"/>
</g>
<path style="fill:#F75534;" d="M287.787,389.885c-0.237,0.852-0.507,1.692-0.787,2.49c-13.334,38.373-48.667,38.373-62,0
	c-13.344-38.373,3.427-140.708,3.427-140.708h55.146C283.573,251.667,299.655,349.766,287.787,389.885z"/>
<path style="fill:#BD391E;" d="M242.665,392.375c-10.07-28.957-2.99-94.336,1.091-124.679c1.141-8.487-5.458-16.029-14.02-16.029
	l0,0c-0.754,0-1.396,0.543-1.513,1.288c-1.877,11.936-15.686,103.579-3.222,139.42c8.294,23.872,25.103,32.884,39.833,27.055
	C255.885,415.888,247.703,406.876,242.665,392.375z"/>
<ellipse style="fill:#E64524;" cx="256" cy="387.072" rx="30.158" ry="34.082"/>
<g>
</g>
<g>
</g>
<g>
</g>
<g>
</g>
<g>
</g>
<g>
</g>
<g>
</g>
<g>
</g>
<g>
</g>
<g>
</g>
<g>
</g>
<g>
</g>
<g>
</g>
<g>
</g>
<g>
</g>
</svg>
