<?xml version="1.0" encoding="UTF-8" standalone="no"?>
<!-- Generator: Adobe Illustrator 13.0.0, SVG Export Plug-In . SVG Version: 6.00 Build 14948)  -->

<svg
   xmlns:dc="http://purl.org/dc/elements/1.1/"
   xmlns:cc="http://creativecommons.org/ns#"
   xmlns:rdf="http://www.w3.org/1999/02/22-rdf-syntax-ns#"
   xmlns:svg="http://www.w3.org/2000/svg"
   xmlns="http://www.w3.org/2000/svg"
   xmlns:sodipodi="http://sodipodi.sourceforge.net/DTD/sodipodi-0.dtd"
   xmlns:inkscape="http://www.inkscape.org/namespaces/inkscape"
   version="1.1"
   id="圖層_1"
   x="0px"
   y="0px"
   width="372px"
   height="587px"
   viewBox="0 0 372 587"
   enable-background="new 0 0 372 587"
   xml:space="preserve"
   sodipodi:docname="Hanafuda_koi (copy 1).svg"
   inkscape:version="0.92.4 (5da689c313, 2019-01-14)"><metadata
   id="metadata4233"><rdf:RDF><cc:Work
       rdf:about=""><dc:format>image/svg+xml</dc:format><dc:type
         rdf:resource="http://purl.org/dc/dcmitype/StillImage" /></cc:Work></rdf:RDF></metadata><defs
   id="defs4231" /><sodipodi:namedview
   pagecolor="#ffffff"
   bordercolor="#666666"
   borderopacity="1"
   objecttolerance="10"
   gridtolerance="10"
   guidetolerance="10"
   inkscape:pageopacity="0"
   inkscape:pageshadow="2"
   inkscape:window-width="1278"
   inkscape:window-height="1327"
   id="namedview4229"
   showgrid="false"
   inkscape:zoom="1.9454855"
   inkscape:cx="184.63797"
   inkscape:cy="295.08365"
   inkscape:window-x="1280"
   inkscape:window-y="33"
   inkscape:window-maximized="0"
   inkscape:current-layer="圖層_1" />

<path
   id="PATH77"
   stroke-miterlimit="100"
   d="M 370.59,585.26 H 3.92 V 2.74 h 366.67 z"
   inkscape:connector-curvature="0"
   style="display:inline;fill:none;stroke:#000000;stroke-width:3;stroke-miterlimit:100" />
<g
   id="g497"
   transform="matrix(0.70625171,0,0,0.70748678,20.462514,45.123204)"><path
     id="path2"
     d="m 351.6908,472.83467 c -19.96,36.076 -139.569,27.791 -141.455,65.249 -1.996,39.633 77.824,12.989 77.824,12.989 0,0 -37.71,42.524 16.761,42.524 52.522,0 62.725,-90.614 85.796,-113.89 z"
     style="fill:#f75534"
     inkscape:connector-curvature="0" /><path
     id="path4"
     d="m 234.3888,534.67067 c 0.446,-8.863 20.121,-22.627 51.577,-32.302 -36.712,8.108 -74.675,14.741 -75.731,35.715 -1.358,26.983 35.202,23.245 58.68,18.11 -14.453,-0.836 -35.302,-6.117 -34.526,-21.523 z"
     style="fill:#bd391e"
     inkscape:connector-curvature="0" /><path
     id="path6"
     d="m 117.0858,229.30467 c 19.96,-36.076 139.569,-27.791 141.455,-65.249 1.996,-39.633 -77.824,-12.989 -77.824,-12.989 0,0 37.71,-42.524 -16.761,-42.524 -52.522,0 -62.725,90.614 -85.797006,113.89 z"
     style="fill:#f75534"
     inkscape:connector-curvature="0" /><path
     id="path8"
     d="m 106.2958,222.43167 c 21.181,-21.369 31.52,-99.481 73.711,-112.141 -4.138,-1.112 -9.404,-1.749 -16.052,-1.749 -52.522,0 -62.725,90.614 -85.797006,113.89 l 38.927006,6.872 c 0.859,-1.554 1.916,-3.019 3.127,-4.415 z"
     style="fill:#bd391e"
     inkscape:connector-curvature="0" /><g
     id="g22"
     transform="translate(-21.612206,95.068675)"><path
       id="path10"
       d="m 452.751,83.393 c 0,0 40.379,17.316 55.434,13.665 15.055,-3.651 -15.496,-47.716 -72.799,-35.025 0,0 -6.774,14.939 17.365,21.36 z"
       style="fill:#f75534"
       inkscape:connector-curvature="0" /><path
       id="path12"
       d="m 356.975,140.73 c 0,0 4.282,43.727 -3.754,56.971 -8.036,13.244 -40.787,-29.211 -11.348,-79.987 0.001,0 16.287,-1.935 15.102,23.016 z"
       style="fill:#f75534"
       inkscape:connector-curvature="0" /><path
       id="path14"
       d="m 59.251,428.609 c 0,0 -40.379,-17.316 -55.434,-13.665 -15.055,3.651 15.496,47.716 72.799,35.025 0,-10e-4 6.774,-14.94 -17.365,-21.36 z"
       style="fill:#f75534"
       inkscape:connector-curvature="0" /><path
       id="path16"
       d="m 155.027,371.272 c 0,0 -4.282,-43.727 3.754,-56.971 8.036,-13.244 40.787,29.211 11.348,79.987 -0.001,0 -16.288,1.935 -15.102,-23.016 z"
       style="fill:#f75534"
       inkscape:connector-curvature="0" /><path
       id="path18"
       d="m 202.334,491.045 c -10.853,7.705 -25.567,8.277 -38.31,6.884 C 114.51,492.519 73.239,454.019 49.625,413.682 -31.876,274.461 66.707,115.738 202.334,56.001 105.45,137.821 80.822,268.174 155.257,374.34 c 16.633,23.723 72.162,82.956 47.077,116.705 z"
       style="fill:#f75534"
       inkscape:connector-curvature="0" /><path
       id="path20"
       d="m 137.753,345.539 c -1.111,3.471 -2.662,6.219 -5.572,6.92 -10.208,2.447 -21.17,-19.068 -31.302,-16.88 -10.23,2.21 -4.56,26.248 -13.959,29.039 -10.725,3.19 -21.731,-22.83 -32.531,-20.168 -10.477,2.587 -4.635,29.589 -12.72,32.327 -3.352,1.132 -7.243,-1.649 -11.339,-5.67 -12.363,-37.587 -13.097,-75.713 -4.872,-112.169 6.651,-7.093 11.996,-24.943 21.116,-23.585 10.639,1.596 11.318,27.465 21.04,27.778 9.108,0.302 15.792,-24.286 26.43,-23.002 9.076,1.089 10.552,20.394 18.928,23.865 2.889,27.541 11.027,55.06 24.781,81.545 z"
       style="fill:#f75534"
       inkscape:connector-curvature="0" /></g><path
     id="path24"
     d="m 30.029794,341.09767 c 0.905,-0.964 1.785,-2.133 2.653,-3.42 -1.977,-3.799 -4.348,-6.75 -7.722,-7.256 -9.119,-1.358 -14.466,16.493 -21.1160003,23.584 -8.224,36.455 -7.491,74.582 4.872,112.169 4.0960003,4.021 7.9870003,6.801 11.3390003,5.67 7.607,-2.576 2.888,-26.627 11.031,-31.617 -8.591,-33.329 -8.332,-66.883 -1.057,-99.13 z"
     style="fill:#bd391e"
     inkscape:connector-curvature="0" /><g
     id="g32"
     transform="translate(-21.612206,95.068675)"><path
       id="path26"
       d="m 93.798,250.223 c 2.534,0.084 4.88,-1.761 7.175,-4.436 -1.84,-3.027 -3.983,-5.304 -6.929,-5.657 -2.745,-0.331 -5.224,1.067 -7.553,3.308 1.912,3.833 4.124,6.682 7.307,6.785 z"
       style="fill:#f75534"
       inkscape:connector-curvature="0" /><path
       id="path28"
       d="m 80.573,331.541 c -7.369,1.819 -6.669,15.71 -8.416,24.748 4.949,5.187 9.884,9.781 14.762,8.33 7.064,-2.098 5.618,-16.192 8.803,-24.007 -5.061,-5.345 -10.127,-10.31 -15.149,-9.071 z"
       style="fill:#f75534"
       inkscape:connector-curvature="0" /><path
       id="path30"
       d="m 127.062,322.669 c -7.432,1.605 -6.475,14.728 -8.999,22.858 4.763,4.268 9.516,8.035 14.117,6.932 2.91,-0.701 4.463,-3.449 5.572,-6.92 -3.926,-7.56 -7.379,-15.206 -10.398,-22.911 -0.096,0.015 -0.194,0.021 -0.292,0.041 z"
       style="fill:#f75534"
       inkscape:connector-curvature="0" /></g><path
     id="path34"
     d="m 3.8457937,354.00767 c 19.7150003,-87.312 90.8340053,-165.041 176.8720063,-202.94 -64.922,54.834 -97.398001,131.463 -89.358001,207.995 -8.375,-3.471 -9.852,-22.777 -18.928005,-23.865 -10.639,-1.283 -17.321,23.304 -26.43,23.002 -9.723,-0.312 -10.402,-26.183 -21.04,-27.778 -9.119,-1.358 -14.466,16.493 -21.1160003,23.586 z"
     style="fill:#f7ede3"
     inkscape:connector-curvature="0" /><path
     d="m 180.7178,586.11567 c -10.854,7.707 -25.568,8.279 -38.308,6.878 -49.507001,-5.412 -90.781006,-43.903 -114.396006,-84.24 -8.214,-14.034 -14.606,-28.263 -19.2940003,-42.577 4.0960003,4.021 7.9870003,6.801 11.3390003,5.67 8.084,-2.738 2.242,-29.74 12.72,-32.327 10.8,-2.662 21.806,23.359 32.531,20.168 9.399,-2.792 3.729,-26.83 13.959005,-29.039 10.132,-2.188 21.094001,19.327 31.302001,16.88 2.91,-0.701 4.463,-3.449 5.572,-6.92 5.066,9.755 10.897,19.37 17.505,28.802 16.63,23.724 72.163,82.956 47.07,116.705 z"
     style="fill:#f7ede3"
     id="SVGCleanerId_0"
     inkscape:connector-curvature="0" /><g
     id="g38"
     transform="translate(-21.612206,95.068675)"><path
       d="m 202.33,491.047 c -10.854,7.707 -25.568,8.279 -38.308,6.878 -49.507,-5.412 -90.781,-43.903 -114.396,-84.24 -8.214,-14.034 -14.606,-28.263 -19.294,-42.577 4.096,4.021 7.987,6.801 11.339,5.67 8.084,-2.738 2.242,-29.74 12.72,-32.327 10.8,-2.662 21.806,23.359 32.531,20.168 9.399,-2.792 3.729,-26.83 13.959,-29.039 10.132,-2.188 21.094,19.327 31.302,16.88 2.91,-0.701 4.463,-3.449 5.572,-6.92 5.066,9.755 10.897,19.37 17.505,28.802 16.63,23.724 72.163,82.956 47.07,116.705 z"
       style="fill:#f7ede3"
       id="SVGCleanerId_0_1_"
       inkscape:connector-curvature="0" /></g><path
     id="path40"
     d="m 171.4858,585.81967 c -53.529,-6.919 -98.154006,-56.142 -123.689006,-107.723 -6.263,-12.656 -11.525,-25.437 -15.874,-38.292 -9.298,3.827 -4.012,29.381 -11.866,32.042 -3.352,1.132 -7.243,-1.649 -11.3390003,-5.67 4.6880003,14.315 11.0810003,28.543 19.2940003,42.577 23.617,40.336 64.889005,78.828 114.396006,84.24 12.496,1.374 26.881,0.834 37.671,-6.459 -2.916,-0.101 -5.799,-0.352 -8.593,-0.715 z"
     style="fill:#dbd2ca"
     inkscape:connector-curvature="0" /><g
     id="g46"
     transform="translate(-21.612206,95.068675)"><path
       id="path42"
       d="m 309.668,20.956 c 10.854,-7.705 25.567,-8.277 38.31,-6.884 49.514,5.41 90.785,43.91 114.399,84.247 C 543.878,237.54 445.295,396.263 309.668,456.001 406.552,374.181 431.18,243.828 356.745,137.662 340.112,113.939 284.583,54.705 309.668,20.956 Z"
       style="fill:#f75534"
       inkscape:connector-curvature="0" /><path
       id="path44"
       d="m 374.249,166.462 c 1.111,-3.471 2.662,-6.219 5.572,-6.92 10.208,-2.447 21.17,19.068 31.302,16.88 10.23,-2.21 4.56,-26.248 13.959,-29.039 10.725,-3.19 21.731,22.83 32.531,20.168 10.477,-2.587 4.635,-29.589 12.72,-32.327 3.352,-1.132 7.243,1.649 11.339,5.67 12.363,37.587 13.097,75.713 4.872,112.169 -6.651,7.093 -11.997,24.943 -21.116,23.585 -10.639,-1.596 -11.318,-27.465 -21.04,-27.778 -9.108,-0.302 -15.792,24.285 -26.43,23.002 -9.076,-1.089 -10.552,-20.394 -18.928,-23.865 -2.89,-27.54 -11.027,-55.06 -24.781,-81.545 z"
       style="fill:#f75534"
       inkscape:connector-curvature="0" /></g><path
     id="path48"
     d="m 392.9038,269.43967 c -0.886,1.019 -1.984,1.747 -3.393,2.051 -10.132,2.188 -21.094,-19.327 -31.302,-16.88 -2.91,0.701 -4.463,3.449 -5.572,6.92 13.754,26.485 21.892,54.003 24.781,81.545 8.375,3.471 9.852,22.777 18.928,23.865 5.258,0.634 9.549,-5.048 13.644,-10.923 -1.386,-8.485 -8.919,-62.06 -17.086,-86.578 z"
     style="fill:#bd391e"
     inkscape:connector-curvature="0" /><g
     id="g54"
     transform="translate(-21.612206,95.068675)"><path
       id="path50"
       d="m 486.544,253.063 c -19.715,87.312 -90.834,165.041 -176.872,202.94 64.922,-54.834 97.398,-131.463 89.358,-207.995 8.375,3.471 9.852,22.777 18.928,23.865 10.639,1.283 17.321,-23.304 26.43,-23.002 9.723,0.312 10.402,26.183 21.04,27.778 9.118,1.357 14.465,-16.494 21.116,-23.586 z"
       style="fill:#f7ede3"
       inkscape:connector-curvature="0" /><path
       id="path52"
       d="m 309.672,20.954 c 10.854,-7.707 25.568,-8.279 38.308,-6.878 49.507,5.412 90.781,43.903 114.397,84.24 8.214,14.034 14.606,28.263 19.294,42.578 -4.096,-4.021 -7.987,-6.801 -11.339,-5.67 -8.084,2.738 -2.242,29.74 -12.72,32.327 -10.8,2.662 -21.806,-23.359 -32.531,-20.168 -9.399,2.792 -3.729,26.83 -13.959,29.039 -10.132,2.188 -21.094,-19.327 -31.302,-16.88 -2.91,0.701 -4.463,3.449 -5.572,6.92 -5.066,-9.755 -10.897,-19.37 -17.505,-28.802 C 340.112,113.935 284.579,54.703 309.672,20.954 Z"
       style="fill:#f7ede3"
       inkscape:connector-curvature="0" /></g><path
     id="path56"
     d="m 371.3368,238.22767 c -18.827,-25.571 -78.089,-86.921 -62.578,-129.327 -7.424,0.76 -14.66,2.834 -20.699,7.122 -25.093,33.75 30.44,92.981 47.072,116.707 6.608,9.432 12.438,19.046 17.505,28.802 1.111,-3.471 2.662,-6.219 5.572,-6.92 10.208,-2.447 21.17,19.068 31.302,16.88 1.001,-0.216 1.845,-0.647 2.572,-1.241 -6.182,-10.932 -13.094,-21.623 -20.746,-32.023 z"
     style="fill:#dbd2ca"
     inkscape:connector-curvature="0" /><g
     id="g62"
     transform="translate(-21.612206,95.068675)"><circle
       id="circle58"
       r="8.0839996"
       cy="460.341"
       cx="153.883"
       style="fill:#bd391e" /><circle
       id="circle60"
       r="8.0839996"
       cy="55.999001"
       cx="366.19601"
       style="fill:#bd391e" /></g><g
     id="g68"
     transform="translate(-21.612206,95.068675)"><path
       id="path64"
       d="m 81.775,222.395 c -0.227,0 -0.455,-0.009 -0.684,-0.029 -4.449,-0.373 -7.753,-4.282 -7.38,-8.731 3.227,-38.486 25.88,-79.207 65.509,-117.764 29.517,-28.718 57.714,-46.049 58.9,-46.772 3.811,-2.326 8.787,-1.122 11.111,2.69 2.325,3.81 1.122,8.783 -2.686,11.11 v 0 c -1.096,0.67 -109.667,67.964 -116.722,152.088 -0.355,4.218 -3.89,7.407 -8.048,7.408 z"
       style="fill:#f75534"
       inkscape:connector-curvature="0" /><path
       id="path66"
       d="m 309.679,464.088 c -2.725,0 -5.385,-1.377 -6.909,-3.874 -2.325,-3.81 -1.122,-8.783 2.686,-11.11 v 0 c 1.096,-0.67 109.667,-67.964 116.722,-152.088 0.373,-4.448 4.278,-7.752 8.731,-7.38 4.449,0.373 7.753,4.282 7.38,8.731 -3.228,38.486 -25.88,79.207 -65.509,117.764 -29.517,28.718 -57.714,46.049 -58.9,46.772 -1.312,0.803 -2.765,1.185 -4.201,1.185 z"
       style="fill:#f75534"
       inkscape:connector-curvature="0" /></g><g
     id="g70"
     transform="translate(-21.612206,95.068675)" /><g
     id="g72"
     transform="translate(-21.612206,95.068675)" /><g
     id="g74"
     transform="translate(-21.612206,95.068675)" /><g
     id="g76"
     transform="translate(-21.612206,95.068675)" /><g
     id="g78"
     transform="translate(-21.612206,95.068675)" /><g
     id="g80"
     transform="translate(-21.612206,95.068675)" /><g
     id="g82"
     transform="translate(-21.612206,95.068675)" /><g
     id="g84"
     transform="translate(-21.612206,95.068675)" /><g
     id="g86"
     transform="translate(-21.612206,95.068675)" /><g
     id="g88"
     transform="translate(-21.612206,95.068675)" /><g
     id="g90"
     transform="translate(-21.612206,95.068675)" /><g
     id="g92"
     transform="translate(-21.612206,95.068675)" /><g
     id="g94"
     transform="translate(-21.612206,95.068675)" /><g
     id="g96"
     transform="translate(-21.612206,95.068675)" /><g
     id="g98"
     transform="translate(-21.612206,95.068675)" /></g><path
   style="stroke-width:0.51401049"
   d="m 5.6822227,498.11167 0.022717,-85.45425 1.0753185,2.05604 c 2.7264843,5.21312 11.6555638,11.77335 20.0843978,14.75607 8.149582,2.88391 19.524494,3.79064 28.180837,2.24639 l 3.896054,-0.69504 4.585118,4.3821 c 16.335223,15.61194 33.755065,25.20104 52.131095,28.6966 6.64021,1.26312 18.489,1.28996 23.13047,0.0524 5.13271,-1.36855 8.60874,-3.26479 10.32315,-5.63147 2.26321,-3.12426 3.55577,-7.90983 3.55153,-13.14906 -0.01,-12.37664 -6.36627,-26.13881 -21.9724,-47.57335 l -4.83095,-6.63516 2.31807,-4.93008 c 7.18799,-15.28747 7.77231,-31.22857 1.61399,-44.03224 -2.13337,-4.43546 -6.00472,-8.67121 -8.40758,-9.19897 -3.34319,-0.73429 -5.08958,1.61884 -6.62728,8.92972 -0.8903,4.23286 -1.2278,25.91776 -0.48877,31.40426 l 0.3808,2.82705 -1.04035,-1.28502 c -1.74181,-2.15146 -8.96936,-14.34746 -11.57522,-19.5324 -22.474994,-44.71896 -23.475191,-93.73978 -2.84301,-139.33902 3.62538,-8.01245 5.57535,-11.15856 8.50102,-13.71562 7.23574,-6.32409 17.9662,-10.23596 44.01683,-16.04664 26.73608,-5.96358 36.9316,-9.08516 43.44376,-13.30125 5.806,-3.75891 7.89454,-7.23593 7.87643,-13.11274 -0.0204,-6.62698 -3.16794,-10.65836 -10.00003,-12.80812 -3.12424,-0.98306 -4.71651,-1.13102 -11.83412,-1.09966 -8.49347,0.0374 -12.65548,0.58866 -22.5272,2.98363 l -5.05084,1.22538 -0.55728,-1.22311 c -0.30651,-0.6727 -0.74448,-1.2231 -0.97328,-1.2231 -0.2288,0 0.39072,-1.33 1.3767,-2.95556 1.96971,-3.24742 3.83041,-8.61308 3.83041,-11.04574 0,-6.75908 -5.38894,-10.69445 -16.03337,-11.70866 -11.72885,-1.11754 -20.19471,2.00214 -28.29474,10.42666 -7.18854,7.4765 -13.522913,19.02869 -22.754387,41.49784 -5.231101,12.73233 -8.987901,20.68051 -11.483093,24.29446 -0.826719,1.19739 -3.501913,4.34268 -5.944866,6.98952 -15.535582,16.83217 -26.820612,32.99077 -35.767913,51.2147 -25.859579,52.67099 -23.528286,107.68812 6.54249,154.39886 1.839657,2.85764 2.459693,4.17881 1.841885,3.92467 -8.226664,-3.3841 -20.12123,-7.19253 -26.631842,-8.52704 -4.063378,-0.83289 -10.4891912,-0.86096 -11.9507451,-0.0522 l -1.1565236,0.63997 V 205.52927 4.2760669 H 187.36222 369.06494 V 293.92099 583.56592 H 187.36222 5.6595055 Z M 245.31256,463.66376 c 5.11782,-1.88096 8.80553,-4.28897 13.07654,-8.53875 7.45251,-7.41547 13.4582,-18.11251 22.54415,-40.15454 9.21212,-22.34815 10.74134,-25.09823 18.72132,-33.66769 30.01208,-32.22907 48.1187,-69.68244 52.43252,-108.45622 0.73288,-6.5873 0.74439,-23.67938 0.0204,-30.32662 -2.54108,-23.33138 -10.72547,-46.34148 -23.45382,-65.93954 -1.52109,-2.34205 -2.76562,-4.34071 -2.76562,-4.44148 0,-0.10076 1.58144,0.46037 3.51432,1.24696 6.09968,2.48228 17.61283,6.05815 23.21422,7.2101 6.87799,1.41448 12.05761,1.21299 13.46395,-0.52376 1.25264,-1.54695 1.16103,-3.33829 -0.33506,-6.55173 -3.43605,-7.38027 -13.55503,-14.33851 -25.40403,-17.46891 -4.23,-1.11753 -6.0951,-1.31156 -12.91137,-1.34327 -4.49608,-0.0209 -9.37613,0.24415 -11.20116,0.6084 l -3.234,0.64547 -5.47121,-5.18477 c -18.31551,-17.35662 -38.22689,-27.15765 -58.31736,-28.7057 -9.43094,-0.72669 -16.62973,0.31829 -22.52233,3.26935 -2.89281,1.44874 -3.73721,2.38144 -5.35009,5.90954 -5.98626,13.09471 0.5527,31.68077 20.79011,59.09294 l 4.13366,5.59916 -2.01056,4.01323 c -4.58172,9.14544 -6.53053,17.98381 -6.09839,27.6577 0.45556,10.19831 3.61247,18.82061 8.7105,23.79051 2.49092,2.42832 5.39819,3.33899 6.83986,2.14251 3.52741,-2.92749 5.18265,-15.50709 4.32562,-32.87413 -0.25662,-5.20027 -0.40499,-9.51665 -0.3297,-9.59194 0.33222,-0.33222 8.47811,13.26622 11.66222,19.46848 23.92002,46.59322 24.27068,99.70616 0.96013,145.42831 -3.74681,7.34912 -6.32555,9.9336 -13.66774,13.6982 -8.26072,4.23555 -16.10905,6.59688 -38.0981,11.46257 -33.77844,7.47443 -43.59114,11.4185 -48.2883,19.40878 -1.19497,2.03273 -1.40541,2.97002 -1.40541,6.25951 0,4.76605 1.52259,8.13024 4.81682,10.64282 3.80346,2.90101 6.76177,3.48268 17.54264,3.44934 9.54924,-0.0296 12.56045,-0.45312 25.99861,-3.65718 0.74413,-0.17743 1.32102,0.12958 1.89793,1.01006 0.79636,1.21539 0.73431,1.45055 -1.58311,6.00083 -2.29452,4.50533 -2.41194,4.94192 -2.41194,8.96822 0,3.84738 0.13147,4.40488 1.4454,6.12912 2.20896,2.89875 5.71027,4.41017 13.2039,5.69976 0.70676,0.12162 3.71373,0.14616 6.68214,0.0545 4.16996,-0.12872 6.185,-0.45618 8.86233,-1.44018 z"
   id="path499"
   inkscape:connector-curvature="0" /></svg>