<?xml version="1.0" encoding="utf-8"?>
<!-- Generator: Adobe Illustrator 13.0.0, SVG Export Plug-In . SVG Version: 6.00 Build 14948)  -->
<!DOCTYPE svg PUBLIC "-//W3C//DTD SVG 1.1//EN" "http://www.w3.org/Graphics/SVG/1.1/DTD/svg11.dtd">
<svg version="1.1" id="圖層_1" xmlns="http://www.w3.org/2000/svg" xmlns:xlink="http://www.w3.org/1999/xlink" x="0px" y="0px"
	 width="372px" height="587px" viewBox="0 0 372 587" enable-background="new 0 0 372 587" xml:space="preserve">
<g>
	<g>
		<rect width="372" height="587" fill="#FFFFFF" fill-opacity="1.0"/>
	</g>
	<path id="PATH1" fill="#F93419" stroke="#000000" stroke-width="3" d="M22.5,622.5h-72l6-161l36-250C9,143,18.5,98.5,46.17-0.85
		h74.07C92,78.5,57.5,156.5,59.5,216.5c-28,82.5-19.5,155-36,241.5L22.5,622.5L22.5,622.5z"/>
	<path id="PATH2" fill="none" stroke="#000000" stroke-width="3" stroke-miterlimit="100" d="M24.45,216.471
		c-19.46-2.391-34.99-6.33-34.69-8.791c0.3-2.47,16.32-2.529,35.78-0.14s34.99,6.33,34.69,8.79
		C59.93,218.8,43.91,218.859,24.45,216.471z"/>
	<path id="PATH3" fill="none" stroke="#000000" stroke-width="3" stroke-miterlimit="100" d="M-11,462.02
		c-19.05,0-34.5-2.47-34.5-5.52s15.45-5.52,34.5-5.52s34.5,2.47,34.5,5.52S8.05,462.02-11,462.02z"/>
	<path id="PATH4" fill="#B35443" stroke="#000000" stroke-width="3" d="M5,60.5c-27.5-3-42.5-7-63.5-18.5C-12,39.5-5,31,21,31.5
		c26.5,1,38,5,61.5,28C44,63.5,47,65,5,60.5z"/>
	<path id="PATH5" fill="#B35443" stroke="#000000" stroke-width="3" d="M5,60.5c-27.5-3-42.5-7-63.5-18.5C-12,39.5-5,31,21,31.5
		c26.5,1,38,5,61.5,28C44,63.5,47,65,5,60.5z"/>
	<path id="PATH6" fill="#B35443" stroke="#000000" stroke-width="3" d="M40.5,101c-27,3-37.5,1.5-69-2c45-7.5,44-11.5,68.5-19
		c26.5-8.5,31-7.5,61.5,1.5C63,85.5,72,97,40.5,101z"/>
	<path id="PATH7" fill="#B35443" stroke="#000000" stroke-width="3" d="M57.5,137.5c-27,7.5-36.5,8.5-72,14.5
		c44.5-21.5,36-31,63.5-42c25.5-10,29-5,61.5-9.5C93,127,84.5,130,57.5,137.5z"/>
	<path id="PATH8" fill="#B35443" stroke="#000000" stroke-width="3" d="M35,194c-25.5,9-36.5,12.5-72,18.5C7.5,191,6.5,175,26,165
		c24-12,21-6.5,61.5-12.5C67,181.5,61,185,35,194z"/>
	<path id="PATH9" fill="#B35443" stroke="#000000" stroke-width="3" d="M97.5,245.5C80,268,64,281,44.5,296.5c0-33,5-46,22.5-75
		c14.5-23.5,19-41.5,59.5-54C112,202,118,219,97.5,245.5z"/>
	<path id="PATH10" fill="#B35443" stroke="#000000" stroke-width="3" d="M63,223c-21,18-43,35-78.5,41C15,222.5,20,218,48,198.5
		c22-15.5,18-17.5,58.5-30C89,195,89,201,63,223z"/>
	<path id="PATH11" fill="#427E41" stroke="#000000" stroke-width="3" d="M214,22.5C163,30,174.5,19,128.5,34
		c29.5-35.5,34-13,61-37.5c10-9,41-28.5,86.5-6C244.5,13,230.5,20.5,214,22.5z"/>
	<path id="PATH12" fill="#427E41" stroke="#000000" stroke-width="3" d="M164,250.5c-9,12-20,21.5-65.5,48.5
		c26-40.5,36.5-51.5,50-70.5C158,215,170.5,206,211,173C192,216,179,230.5,164,250.5z"/>
	<path id="PATH13" fill="#427E41" stroke="#000000" stroke-width="3" d="M206,429.5c-4,14.5-1.5,55,10,95.5c28.5-52.5,26-78,29.5-99
		c5.5-30-5.5-47-3.5-89C213.5,373.5,212.5,406,206,429.5z"/>
	<path id="PATH14" fill="#427E41" stroke="#000000" stroke-width="3" d="M164,394c-8.5,12-21.5,53-16.5,101
		c28.5-52.5,45.5-62.5,55.5-81c14.5-26,23.5-43,29-85C196.5,339.5,180,371,164,394z"/>
	<path id="PATH15" fill="#427E41" stroke="#000000" stroke-width="3" d="M270.5,393c5,15,14.5,46,58.5,77.5c-7-59.5-19-70-25-89.5
		c-12.5-38-18.5-48.5-55-70C240.5,346.5,262,366.5,270.5,393z"/>
	<path id="PATH16" fill="#427E41" stroke="#000000" stroke-width="3" d="M54,379c-8.5,13-17.5,32.5-34,70.5c47-26.5,43-37,59.5-51
		c18.5-15.5,23-28,47.5-60.5C92,340,70.5,354,54,379z"/>
	<path id="PATH17" fill="#427E41" stroke="#000000" stroke-width="3" d="M97,414c-4,14.5-14.5,33-13,93c28.5-52.5,48-61.5,53.5-82
		c6-21.5,8.5-47,10.5-89C119.5,372.5,103.5,390.5,97,414z"/>
	<path id="PATH18" fill="none" stroke="#000000" stroke-width="3" stroke-miterlimit="100" d="M-56.5,43.5c0,0,33.6,6.72,54,6.5
		c14.51-0.16,24.01-4.8,38.5-4c17.98,0.99,29.68,5.57,46.5,12c11.83,4.52,20.2,7.13,30.5,14.5c6.8,4.87,12.22,7.81,16.5,15
		c1.07,1.8,2.5,5,2.5,5"/>
	<path id="PATH19" fill="none" stroke="#000000" stroke-width="3" stroke-miterlimit="100" d="M-25.5,99.5c0,0,28.39-0.23,45-3.5
		c14.03-2.76,22.53-7.98,36.5-11c11.12-2.4,18.62-4.37,30-4.5c7.33-0.08,12.34-0.07,19.5,1.5c4.81,1.06,7.97,2.08,12.5,4
		c4.09,1.73,10.5,5.5,10.5,5.5"/>
	<path id="PATH20" fill="none" stroke="#000000" stroke-width="3" stroke-miterlimit="100" d="M-11,151.5c0,0,28-12.49,45-19.5
		c14.16-5.84,23.83-9.18,38-15c14.14-5.81,23.29-10.37,37.5-16c10.98-4.35,18.21-7.53,29.5-11c14.7-4.51,25.07-5.33,40-9
		c7.33-1.8,12.061-3.73,19.5-5c10.73-1.84,18.109-1.35,29-1.5c14.82-0.2,24.69,0.8,39.5,1.5c3.75,0.18,10,0.5,10,0.5"/>
	<path id="PATH21" fill="none" stroke="#000000" stroke-width="3" stroke-miterlimit="100" d="M206.5,71.5c0,0,18.93-4.42,30.5-5.5
		c10.08-0.94,16.88-0.15,27-0.5c8.07-0.27,13.5,0.08,21.5-1c4.15-0.56,7.04-0.62,11-2c7.47-2.61,11.2-7.12,17-12.5
		c8.03-7.45,18-23,18-23"/>
	<path id="PATH22" fill="none" stroke="#000000" stroke-width="3" stroke-miterlimit="100" d="M217.5,135.5c0,0,0.46-5.74,1.5-9
		c3.26-10.23,12.12-13.21,20-20.5c13.24-12.25,38-29.5,38-29.5"/>
	<path id="PATH23" fill="none" stroke="#000000" stroke-width="3" stroke-miterlimit="100" d="M294.5,66.5c0,0-5.19,12.83-10.5,19
		c-6.04,7.03-12.86,8.6-20,14.5c-7.77,6.42-11.64,12.19-19.5,18.5c-8.76,7.03-15.029,11.32-25,16.5c-16.57,8.62-29.7,9.33-47.5,15
		c-15.76,5.02-28.56,3.85-42,13.5c-10.59,7.6-14.81,15.98-22.5,26.5c-8.94,12.23-13.07,21.59-21,34.5
		C79.23,236.34,74.01,244.01,67,256c-8.51,14.561-21.5,39.5-21.5,39.5"/>
	<path id="PATH24" fill="none" stroke="#000000" stroke-width="3" stroke-miterlimit="100" d="M-13,265c0,0,20.66-14.859,32.5-24.5
		c17.29-14.08,26.59-26.061,44-40c11.62-9.311,20.03-14.65,32-23.5c5.82-4.3,8.66-9.12,15.5-11.5c5.34-1.86,15-1.5,15-1.5"/>
	<path id="PATH25" fill="none" stroke="#000000" stroke-width="3" stroke-miterlimit="100" d="M-33,211.5c0,0,21.34-5.52,33-11.5
		c9.63-4.939,14.64-10.58,24-16c11.69-6.76,20.26-9.79,32.5-15.5c11.02-5.15,17.59-11.01,29.5-13.5c6.63-1.39,11.23-1.73,18-1.5
		c5.67,0.19,9.94-0.58,15,2c3.79,1.93,8.5,7.5,8.5,7.5"/>
	<path id="PATH26" fill="none" stroke="#000000" stroke-width="3" stroke-miterlimit="100" d="M99.5,299c0,0,22.62-23.95,36-38.5
		c17.07-18.57,28.5-30.92,45-50c12.01-13.891,16.87-26.4,31.5-37.5c7.63-5.79,13.65-8.31,22-13c14.69-8.26,25.85-11.35,40-20.5
		c16.33-10.56,26.39-19.11,40-33c7.81-7.98,19.5-22.5,19.5-22.5"/>
	<path id="PATH27" fill="none" stroke="#000000" stroke-width="3" stroke-miterlimit="100" d="M140.5,30c0,0,25.561-10.56,41.5-15
		c12.93-3.6,22.24-3.32,35-7.5c10.46-3.42,16.46-8.32,27-11.5c11.48-3.46,31.5-5.5,31.5-5.5"/>
	<path id="PATH28" fill="none" stroke="#000000" stroke-width="3" stroke-miterlimit="100" d="M248,300c0,0,2,13.24,4,21
		c5.98,23.141,15.92,36.59,27.5,57.5c7.21,13.03,13.29,20.97,20.5,34c11.58,20.91,27.5,57.5,27.5,57.5"/>
	<path id="PATH29" fill="none" stroke="#000000" stroke-width="3" stroke-miterlimit="100" d="M218,523c0,0,4.891-44.08,8-70.5
		c3.25-27.58,5.71-45.93,9-73.5c2.48-20.811,2.45-34.939,6.5-55.5c1.9-9.641,6-25.5,6-25.5"/>
	<path id="PATH30" fill="none" stroke="#000000" stroke-width="3" stroke-miterlimit="100" d="M148,490c0,0,6.96-27.89,13-44
		c9.68-25.83,20.08-41.4,33.5-65.5c7.6-13.65,12.1-23.16,21-36C224.76,331.141,243,311,243,311"/>
	<path id="PATH31" fill="none" stroke="#000000" stroke-width="3" stroke-miterlimit="100" d="M19.5,450c0,0,18.87-21.14,30-34
		c12.53-14.49,24.7-21.74,33-39c2.45-5.08,2.59-9.17,5.5-14c7.88-13.05,21.21-14.04,34.5-21.5c16.38-9.189,28.33-13.34,45-22
		c18.84-9.79,35.08-11.91,49.5-27.5c7.061-7.641,10.41-13.93,15.5-23c7.82-13.939,11.5-24.16,16-39.5c5.56-18.96,7.99-32.25,8.5-52
		c0.1-3.75,0-10,0-10"/>
	<path id="PATH32" fill="none" stroke="#000000" stroke-width="3" stroke-miterlimit="100" d="M83.5,500.5c0,0,9.38-20.46,15.5-32.5
		c9.25-18.18,19.11-28.49,26.5-47.5c6.72-17.29,7.32-30.05,12-48C141.67,356.52,149,330,149,330"/>
	<path id="PATH33" fill="#427E41" stroke="#000000" stroke-width="3" d="M125.5,341c-14,5-62,16-95,6c66-29,65-30.5,85-35
		c21.5-4.5,32.5-1.5,66.5,2C143.5,338,142,335,125.5,341z"/>
	<path id="PATH34" fill="none" stroke="#000000" stroke-width="3" stroke-miterlimit="100" d="M334.5,79.5c0,0-3.78,26.95-8.5,42.5
		c-5.71,18.8-13.1,30.01-21,48c-16.01,36.43-24.94,61.55-43,97c-5.98,11.73-6.46,22.471-16.5,31c-10.891,9.26-22.65,7.471-36.5,11
		c-17.96,4.58-30.33,5.84-48.5,9.5c-24.22,4.88-40.39,8.061-64.5,13.5c-24.09,5.439-64,15.5-64,15.5"/>
	<path id="PATH35" fill="#427E41" stroke="#000000" stroke-width="3" d="M215,289.5c-5.5,17-14,24-48,65.5c1.5-49.5,9-64,16.5-85.5
		c5-15.5,9-27.5,49.5-60.5C223.5,253.5,222.5,268,215,289.5z"/>
	<path id="PATH36" fill="none" stroke="#000000" stroke-width="3" stroke-miterlimit="100" d="M167,355c0,0,10.85-32.46,18.5-51.5
		c8.98-22.35,15.359-37.15,26.5-58.5c6.37-12.21,11.23-20.01,18-32c7.1-12.58,12.19-20.76,19-33.5c5.26-9.84,13.5-26.5,13.5-26.5"/>
	<path id="PATH37" fill="#427E41" stroke="#000000" stroke-width="3" d="M300,214c-2,16-7.5,43.5-29.5,90c1.5-49.5-11.5-67.5-11-90
		c0.5-12.5-2-40,22.5-77C307.5,178.5,302.5,191.5,300,214z"/>
	<path id="PATH38" fill="none" stroke="#000000" stroke-width="3" stroke-miterlimit="100" d="M269.5,302c0,0,10.21-36.82,12.5-59.5
		c2.33-23.13-0.57-38.75-0.5-62c0.05-17.06,0.5-45.5,0.5-45.5"/>
	<path id="PATH39" fill="#427E41" stroke="#000000" stroke-width="3" d="M354,56.5c-9,12-15,30.5-60.5,57.5
		c20.5-43,15-53.5,28.5-72.5c9.5-13.5,24-36,64.5-69C373.5,13,369,36.5,354,56.5z"/>
	<path id="PATH40" fill="none" stroke="#000000" stroke-width="3" stroke-miterlimit="100" d="M293,112.5c0,0,17.93-18,26.5-30.5
		c9.53-13.9,12.49-25.17,20.5-40c7.06-13.08,11.24-22.14,19.5-34.5c9.05-13.54,27-34,27-34"/>
	<path id="PATH41" fill="#427E41" stroke="#000000" stroke-width="3" d="M287,39.5C269.5,49,252.5,60,206.5,75
		c29.5-35.5,31-39,58-63.5c10-9,27-17.5,80-30C319,13,317.5,23,287,39.5z"/>
	<path id="PATH42" fill="none" stroke="#000000" stroke-width="3" stroke-miterlimit="100" d="M213,66.5c0,0,21.63-17.95,35.5-27.5
		c14.27-9.83,24.71-14.97,39.5-24c11.64-7.11,19.19-12.19,31-19c9.45-5.45,25.5-14,25.5-14"/>
	<path id="PATH43" fill="none" stroke="#000000" stroke-width="3" stroke-miterlimit="100" d="M220,65c0,0,16.63-7.67,26.5-12.5
		c15.36-7.53,26.01-11.91,40.5-21c13.85-8.69,23.28-14.6,35-26c7.14-6.95,17.5-20,17.5-20"/>
</g>
<path id="PATH77" fill="none" stroke="#000000" stroke-width="3" stroke-miterlimit="100" d="M370.59,585.26H3.92V2.74h366.67
	V585.26L370.59,585.26z"/>
</svg>
