<?xml version="1.0" encoding="utf-8"?>
<!-- Generator: Adobe Illustrator 13.0.0, SVG Export Plug-In . SVG Version: 6.00 Build 14948)  -->
<!DOCTYPE svg PUBLIC "-//W3C//DTD SVG 1.1//EN" "http://www.w3.org/Graphics/SVG/1.1/DTD/svg11.dtd">
<svg version="1.1" id="圖層_1" xmlns="http://www.w3.org/2000/svg" xmlns:xlink="http://www.w3.org/1999/xlink" x="0px" y="0px"
	 width="372px" height="587px" viewBox="0 0 372 587" enable-background="new 0 0 372 587" xml:space="preserve">
<g>
	<g>
		<g>
			<path d="M82.568,110.103c-1.985,0-3.311,1.326-3.311,3.311v90.702c-0.659,99.305,1.992,200.598,6.621,304.541l3.31,2.649
				l1.991-1.332v-1.978c-5.301-103.283-7.286-204.576-6.62-303.881v-90.702C84.559,111.428,83.893,110.103,82.568,110.103z"/>
		</g>
	</g>
	<g>
		<g>
			<path fill="#9260C7" d="M97.8,525.206l-8.612-17.21l-5.954,18.529c-1.985,12.581,1.325,18.543,9.264,17.883
				C101.11,543.075,102.429,537.121,97.8,525.206z"/>
		</g>
	</g>
	<g>
		<g>
			<path d="M91.179,506.664l-1.991-1.319l-2.644,1.984l-5.295,15.227c-1.992,9.271-1.992,16.552,1.319,20.521
				c1.991,3.311,5.302,4.643,9.93,3.977c5.302-0.666,7.946-2.644,9.931-5.954c1.991-4.642,1.325-11.262-3.31-19.861L91.179,506.664z
				 M86.544,539.767l-1.326-5.955c0-5.296,1.326-11.916,3.97-19.194c5.961,9.265,8.612,16.551,8.612,21.18l-0.666,2.651
				c0,1.983-1.325,2.649-4.636,3.311C89.188,541.758,87.87,541.098,86.544,539.767z"/>
		</g>
	</g>
	<g>
		<g>
			<path fill="#9260C7" d="M52.117,460.986l17.21,5.954l-7.939-16.552c-6.621-9.265-12.582-11.908-17.217-5.954
				C38.216,451.056,41.526,456.352,52.117,460.986z"/>
		</g>
	</g>
	<g>
		<g>
			<path d="M38.875,453.7c1.984,3.976,6.621,7.952,15.892,11.263l14.56,4.63l1.991-0.66l0.659-2.649
				c-5.961-17.211-13.241-25.822-20.521-27.802c-3.311,0-6.621,1.318-9.931,3.97C38.875,445.76,38.216,449.729,38.875,453.7z
				 M46.155,446.42c1.326-1.984,2.651-2.649,4.636-1.984c3.976,0.667,9.271,6.62,13.906,19.196
				c-11.922-3.97-19.202-7.939-20.527-11.91v-1.332L46.155,446.42z"/>
		</g>
	</g>
	<g>
		<g>
			<path d="M71.318,464.963h-3.311l-0.666,2.646l0.666,1.324l17.871,15.893l3.976-0.667c1.325-0.665,0.659-2.645-0.667-3.31
				L71.318,464.963z"/>
		</g>
	</g>
	<g>
		<g>
			<path fill="#9260C7" d="M118.98,458.342l-11.25,15.886l19.195-3.31c10.597-3.311,14.566-8.604,10.597-15.227
				C132.887,448.411,126.926,449.729,118.98,458.342z"/>
		</g>
	</g>
	<g>
		<g>
			<path d="M140.833,464.963c1.319-3.977,0.659-7.287-1.325-10.597c-1.985-3.312-5.295-5.955-9.271-5.955
				c-4.636,0.66-9.93,3.971-15.885,11.909l-8.612,11.922v2.65c1.326,1.318,1.991,1.979,2.651,1.979
				C126.267,475.552,136.857,471.584,140.833,464.963z M136.197,460.986l-0.666,1.325c-1.984,4.629-9.931,6.62-21.846,8.605
				c6.621-11.256,11.916-16.552,17.217-16.552l3.97,2.644L136.197,460.986z"/>
		</g>
	</g>
	<g>
		<g>
			<path d="M110.375,472.242c-1.325-1.324-1.985-1.324-3.31-0.658l-20.521,12.573c-1.985,0.667-1.985,2.646-0.666,3.311
				c0,1.986,1.991,2.646,3.31,1.326l19.862-12.582C111.041,474.894,111.041,474.228,110.375,472.242z"/>
		</g>
	</g>
	<g>
		<g>
			<path fill="#9260C7" d="M49.466,417.954l17.876,4.635l-9.265-16.551c-7.286-9.272-13.241-11.256-18.542-4.636
				C34.906,408.023,38.216,412.658,49.466,417.954z"/>
		</g>
	</g>
	<g>
		<g>
			<path d="M47.481,394.782c-3.311,0-6.621,1.325-9.265,4.635c-3.311,3.312-3.311,6.621-2.651,11.251
				c1.985,3.977,7.28,7.286,15.892,10.596l14.56,3.312c1.325,0.665,1.991,0,3.311-0.666v-2.646
				C62.047,404.713,54.767,396.107,47.481,394.782z M41.526,402.729c1.985-1.326,3.311-1.992,5.295-1.992
				c4.636,0.666,9.265,6.621,15.226,17.885c-12.582-2.65-19.202-5.962-21.188-10.598l-0.659-0.666L41.526,402.729z"/>
		</g>
	</g>
	<g>
		<g>
			<path d="M68.667,420.598c-1.326-1.318-2.651-1.318-3.97,0.666c-0.666,0.667-0.666,2.646,0.659,3.312l19.202,14.565l3.311-0.659
				c1.318-1.331,1.318-2.65,0-3.312L68.667,420.598z"/>
		</g>
	</g>
	<g>
		<g>
			<path fill="#9260C7" d="M114.352,410.668c-3.311,4.643-6.621,9.93-9.271,15.891l17.876-4.628
				c11.256-3.977,14.566-9.932,9.265-15.893C127.592,399.417,121.631,401.402,114.352,410.668z"/>
		</g>
	</g>
	<g>
		<g>
			<path d="M134.212,404.713c-1.991-3.977-5.301-5.296-9.271-5.296c-4.635,0.66-9.271,5.296-14.566,12.582l-7.946,13.24
				c0,0.66,0,1.979,0.666,2.646c0.66,0.665,1.326,1.325,2.645,1.325c17.877-2.651,27.808-7.279,31.118-14.565
				C137.523,411.333,137.523,408.023,134.212,404.713z M132.221,411.333l-0.659,1.325c-1.326,4.629-9.271,7.939-21.847,9.931
				c5.955-11.256,11.256-17.211,15.885-17.876c1.325,0,3.311,0.665,4.636,3.311L132.221,411.333z"/>
		</g>
	</g>
	<g>
		<g>
			<path d="M107.065,424.574h-3.311L84.559,438.48c-1.991,1.979-1.991,2.645-0.666,3.97l3.977,0.66l19.195-14.562
				C107.73,427.885,107.73,426.559,107.065,424.574z"/>
		</g>
	</g>
	<g>
		<g>
			<path fill="#9260C7" d="M52.776,364.99c4.635,3.31,9.93,5.953,16.551,7.945l-5.295-17.877
				c-5.295-10.598-10.59-13.24-16.551-8.605C40.86,351.75,42.845,357.704,52.776,364.99z"/>
		</g>
	</g>
	<g>
		<g>
			<path d="M70.652,374.921l0.666-2.646c-3.311-17.217-8.612-27.147-15.232-29.791c-3.969-1.332-7.28-0.666-11.25,2.644
				c-3.311,2.646-3.977,5.955-3.977,9.933c0.666,3.977,5.295,9.265,13.241,13.906l13.907,6.619L70.652,374.921z M48.806,348.438
				l5.295-0.664c3.976,0.664,7.287,7.951,10.597,20.525c-11.256-5.294-17.217-9.931-18.542-14.566v-0.658L48.806,348.438z"/>
		</g>
	</g>
	<g>
		<g>
			<path d="M71.318,371.609h-3.977c-1.325,0-1.325,1.326,0,3.312l15.226,17.877l3.311,0.659c1.991-0.659,1.991-1.984,0-3.971
				L71.318,371.609z"/>
		</g>
	</g>
	<g>
		<g>
			<path fill="#9260C7" d="M120.306,373.596c-4.636,3.971-9.265,7.946-13.241,12.581l18.536,0.659
				c11.256-1.318,15.892-5.294,12.582-13.24C135.531,366.316,128.911,366.316,120.306,373.596z"/>
		</g>
	</g>
	<g>
		<g>
			<path d="M140.167,382.866c1.985-2.65,1.985-5.962,0.666-10.591c-1.991-3.977-3.976-6.619-7.946-6.619
				c-7.287-0.666-16.551,5.287-28.467,19.195c0,0.666-0.666,1.324,0,2.645l1.985,1.332
				C124.282,391.473,135.531,388.828,140.167,382.866z M135.531,374.921c1.326,1.983,1.326,3.976,0,5.295
				c-2.644,3.97-10.59,4.636-23.171,3.97c8.611-9.265,15.232-14.56,19.861-13.242C134.212,370.943,134.872,372.275,135.531,374.921z
				"/>
		</g>
	</g>
	<g>
		<g>
			<path d="M109.05,385.518c-0.66-1.332-1.319-1.99-3.311-1.332l-21.846,8.612c-1.985,0.659-2.644,1.984-1.985,3.312
				c0.66,1.982,1.985,1.982,3.31,1.982l22.512-9.264C109.05,388.161,110.375,387.496,109.05,385.518z"/>
		</g>
	</g>
	<g>
		<g>
			<path fill="#9260C7" d="M44.836,280.25l17.87,4.63l-9.93-15.886c-7.28-9.265-13.241-10.597-17.87-4.635
				C30.27,270.978,33.58,276.28,44.836,280.25z"/>
		</g>
	</g>
	<g>
		<g>
			<path d="M65.357,283.56c-7.946-16.551-15.891-24.497-23.171-25.163c-3.969-0.66-6.62,1.332-9.271,5.301
				c-2.645,3.31-3.311,6.621-1.319,9.931c1.319,3.971,6.621,7.939,15.886,10.59l15.225,3.311l1.992-1.32L65.357,283.56z
				 M35.565,270.319l1.985-3.97l3.976-2.651c4.629,0,9.931,6.621,16.551,17.21c-13.241-1.984-19.861-5.294-21.852-9.271
				L35.565,270.319z"/>
		</g>
	</g>
	<g>
		<g>
			<path d="M64.698,282.234c-1.992-0.666-3.31,0-3.976,1.326c-1.325,1.32-1.325,1.985,0.666,3.311l19.861,13.898l3.31-0.658
				c0.659-1.324,0-2.65-0.666-3.969L64.698,282.234z"/>
		</g>
	</g>
	<g>
		<g>
			<path fill="#9260C7" d="M117.661,276.083c-3.976,5.142-8.611,11.147-13.241,17.15h19.196
				c11.256-1.717,15.892-6.867,13.241-16.296L117.661,276.083z"/>
		</g>
	</g>
	<g>
		<g>
			<path d="M130.902,272.304c-4.635,0-10.596,1.985-17.217,8.605l-11.256,11.256v2.646l1.991,1.332
				c17.87,2.645,29.126,0,33.762-5.961c1.984-2.651,2.65-5.961,0.659-9.931C137.523,275.614,134.212,273.629,130.902,272.304z
				 M134.212,282.234c0.66,1.985,0.66,3.976,0,4.636c-3.31,3.969-10.596,5.294-23.837,4.629c8.605-9.931,15.226-14.56,19.861-13.899
				L134.212,282.234z"/>
		</g>
	</g>
	<g>
		<g>
			<path d="M107.065,292.165c-1.326-1.325-1.985-1.984-3.311-0.666l-22.505,8.61c-1.992,0-1.992,1.986-1.326,3.311
				c0.66,1.986,1.326,1.986,3.311,1.986l22.505-9.266C107.73,295.475,107.73,294.15,107.065,292.165z"/>
		</g>
	</g>
	<g>
		<g>
			<path fill="#9260C7" d="M50.792,235.891c4.635,3.311,9.93,6.62,16.55,8.605l-5.954-17.21c-5.302-11.256-10.596-13.9-16.551-8.612
				C38.216,223.976,40.86,229.937,50.792,235.891z"/>
		</g>
	</g>
	<g>
		<g>
			<path d="M52.776,214.045c-2.645-1.326-6.621,0-9.931,2.65c-3.311,2.644-4.629,5.955-3.97,9.931
				c1.325,7.28,10.59,13.901,27.141,20.521l3.311-0.66v-2.65C66.017,225.96,60.063,216.03,52.776,214.045z M62.706,239.868
				c-11.249-5.302-17.87-9.931-18.536-13.907v-1.325c0-1.319,0.666-2.651,1.985-3.97c1.991-1.326,3.311-1.991,5.302-1.326
				C56.086,220.666,59.396,227.286,62.706,239.868z"/>
		</g>
	</g>
	<g>
		<g>
			<path d="M69.327,242.511c-1.319-1.325-2.645-1.325-3.97,0c-1.325,1.326-1.325,2.646-0.659,3.312l16.551,17.876l3.31,0.66
				c1.319-0.66,1.319-1.985,0-3.97L69.327,242.511z"/>
		</g>
	</g>
	<g>
		<g>
			<path fill="#9260C7" d="M130.902,229.271c-5.302-6.621-10.596-5.295-18.542,3.31l-9.931,16.551l18.542-4.636
				C132.221,240.527,135.531,235.225,130.902,229.271z"/>
		</g>
	</g>
	<g>
		<g>
			<path d="M132.887,227.286c-2.651-3.311-5.961-4.636-9.271-4.636c-4.636,0-9.931,4.636-15.886,11.916l-7.287,12.582v3.31
				l1.985,0.66c18.542-1.985,28.473-6.621,31.783-13.241C135.531,234.566,135.531,231.255,132.887,227.286z M130.236,233.906
				l-0.66,1.985c-1.984,4.636-9.271,7.946-21.846,9.265c6.621-11.25,11.916-17.211,16.552-17.87c1.318,0,3.31,1.319,3.969,3.31
				L130.236,233.906z"/>
		</g>
	</g>
	<g>
		<g>
			<path d="M104.42,247.147l-3.31-0.66l-19.861,13.901c-1.326,0.66-1.326,1.985,0,3.31l3.31,0.66l19.861-13.901
				C105.739,250.458,105.739,249.132,104.42,247.147z"/>
		</g>
	</g>
	<g>
		<g>
			<path fill="#9260C7" d="M44.17,319.313l18.536,2.646l-11.249-15.226c-7.946-7.945-13.907-9.271-18.542-1.991
				C28.944,311.359,32.915,316.003,44.17,319.313z"/>
		</g>
	</g>
	<g>
		<g>
			<path d="M31.595,302.762c-2.651,3.971-3.31,7.28-1.325,10.592c3.97,6.619,14.566,10.588,32.436,11.914
				c1.326,0,1.992-0.666,1.992-1.984c1.319-0.659,1.319-1.325,0-1.991c-8.612-15.885-16.551-23.831-24.497-24.491
				C36.225,296.8,33.58,298.786,31.595,302.762z M34.906,311.359l-0.666-1.979l1.325-3.977c1.985-1.985,2.651-3.311,4.635-3.311
				c4.636,0.666,10.591,5.954,17.21,16.551C44.836,317.322,36.891,314.671,34.906,311.359z"/>
		</g>
	</g>
	<g>
		<g>
			<path d="M64.032,319.973c-1.326-1.326-2.644-0.66-3.31,1.318c-1.325,0.666-1.325,1.991,0.666,3.311l19.861,12.582
				c1.985,1.324,3.31,0.659,3.969-1.318c0.66-1.332,0.66-2.65-0.659-3.311L64.032,319.973z"/>
		</g>
	</g>
	<g>
		<g>
			<path fill="#9260C7" d="M137.523,321.957c-3.311-7.286-9.931-7.286-18.543,0c-4.628,3.311-9.265,7.945-13.241,13.24h18.543
				C135.531,333.872,140.167,329.243,137.523,321.957z"/>
		</g>
	</g>
	<g>
		<g>
			<path d="M131.562,314.012c-4.636-0.658-10.591,1.991-17.21,7.945l-10.597,11.257l-1.325,2.649l2.651,1.979
				c17.876,1.331,29.132,0,33.762-5.954c2.65-3.311,2.65-6.621,0.666-10.598C137.523,316.662,135.531,314.671,131.562,314.012z
				 M130.902,319.313c1.319,0,2.645,1.32,3.31,3.312c1.319,2.646,1.319,4.629,0,5.955c-2.65,3.312-10.596,4.636-23.171,3.976
				C120.306,322.623,126.926,318.646,130.902,319.313z"/>
		</g>
	</g>
	<g>
		<g>
			<path d="M107.73,333.872c0-1.983-1.991-1.983-3.31-1.983l-21.853,9.264c-1.985,0.666-1.985,1.992-1.985,3.977
				c0.666,1.325,1.985,1.985,3.976,0.667l21.846-8.612C107.73,336.523,109.05,335.197,107.73,333.872z"/>
		</g>
	</g>
	<g>
		<g>
			<path d="M196.439,128.638c-0.658-1.984-1.983-1.984-3.31-1.984c-1.985,0.666-2.646,1.984-1.985,3.31l23.832,87.391
				c17.217,64.879,28.474,116.517,33.103,154.92l2.649,2.646c2.651-0.667,3.312-1.985,2.651-3.312
				c-5.302-38.396-15.892-90.701-33.103-155.581L196.439,128.638z"/>
		</g>
	</g>
	<g>
		<g>
			<path fill="#9260C7" d="M205.713,353.074c5.294-1.324,11.256-4.637,16.551-7.946c-5.961-3.31-11.916-5.294-17.877-5.954
				c-11.256-2.65-16.552,0.66-16.552,8.6C188.495,355.727,194.456,357.704,205.713,353.074z"/>
		</g>
	</g>
	<g>
		<g>
			<path d="M224.907,344.462l-1.318-2.644c-17.218-5.955-29.133-7.286-33.769-3.312c-3.311,1.326-4.635,4.638-4.635,9.931
				c0.666,3.977,2.65,7.287,5.959,8.605c3.971,1.992,10.59,1.325,19.861-2.65l13.241-7.939L224.907,344.462z M191.146,347.773
				c-0.66-2.646,0-3.971,1.326-5.289c3.969-2.65,11.914-1.332,24.496,2.644c-11.923,6.622-19.201,9.267-23.172,7.286
				C191.807,351.75,191.146,349.764,191.146,347.773z"/>
		</g>
	</g>
	<g>
		<g>
			<path d="M248.745,342.484c0-1.332-1.326-2.65-2.649-2.65l-23.832,1.984c-1.326,0-2.65,1.326-2.65,3.31
				c0.666,1.325,1.324,2.646,3.311,2.646l23.838-2.646C248.079,345.128,249.404,344.462,248.745,342.484z"/>
		</g>
	</g>
	<g>
		<g>
			<path fill="#9260C7" d="M197.105,305.406l17.871-3.977l-15.227-9.932c-10.59-5.289-16.551-3.969-17.876,3.977
				C180.556,303.42,185.185,306.73,197.105,305.406z"/>
		</g>
	</g>
	<g>
		<g>
			<path d="M181.875,305.406c3.976,3.311,9.932,3.976,19.202,2.644l15.226-3.97l1.325-1.984c0.658-0.666,0-1.984-0.659-2.645
				c-13.906-11.263-24.496-15.892-31.784-12.581c-3.31,1.318-5.295,3.969-5.955,8.604
				C177.905,299.451,179.23,302.762,181.875,305.406z M184.525,296.143c0-2.652,0.66-3.978,2.65-4.644
				c4.63-1.979,11.915,1.333,22.507,8.61l-24.498,1.32C184.525,300.109,183.866,298.786,184.525,296.143z"/>
		</g>
	</g>
	<g>
		<g>
			<path d="M216.303,298.786c-1.984,0-3.312,0.665-3.312,2.644c0,1.332,0.666,1.99,1.985,2.65l23.172,4.637
				c1.99,0,3.311-0.667,3.311-2.645c0-1.332-0.659-2.652-1.984-3.311L216.303,298.786z"/>
		</g>
	</g>
	<g>
		<g>
			<path fill="#9260C7" d="M297.732,360.716c3.311-8.78-0.66-14.362-12.575-15.97h-18.535l13.239,15.97H297.732z"/>
		</g>
	</g>
	<g>
		<g>
			<path d="M263.971,342.484l0.66,2.644l10.598,11.916c7.278,5.962,12.574,9.272,17.209,8.612c3.977-0.666,6.62-2.65,7.945-7.287
				c2.65-3.977,1.986-7.286,0-9.932c-4.636-6.619-16.55-9.265-33.761-6.619C265.955,341.818,264.631,341.818,263.971,342.484z
				 M295.747,356.385l-3.97,3.971c-4.635,0.658-10.596-3.971-19.201-13.901c13.24-0.658,21.188,1.319,23.171,4.63
				C297.072,352.414,297.072,354.395,295.747,356.385z"/>
		</g>
	</g>
	<g>
		<g>
			<path d="M246.096,331.889c-1.986-0.666-3.312,0-3.312,1.325c-1.325,1.983-0.659,3.31,1.323,3.31l21.848,9.931
				c1.326,1.319,1.984,0,3.311-1.325c1.325-1.982,0.666-2.645-1.324-3.311L246.096,331.889z"/>
		</g>
	</g>
	<g>
		<g>
			<path fill="#9260C7" d="M294.422,288.855c-0.658-7.947-6.62-9.265-17.211-4.636l-16.55,9.271l18.536,5.296
				C290.453,300.109,295.747,296.8,294.422,288.855z"/>
		</g>
	</g>
	<g>
		<g>
			<path d="M291.113,280.25c-3.971-1.992-10.592-1.325-18.537,3.31c-5.954,2.65-9.932,5.296-13.241,7.939
				c-1.325,0.666-1.325,1.333-1.325,1.991l1.991,2.652c17.21,5.953,27.801,7.277,33.763,2.645c3.31-1.986,3.969-5.296,3.31-9.931
				C297.072,284.219,295.089,281.568,291.113,280.25z M292.438,289.521c0,2.644,0,3.969-1.983,5.29
				c-3.312,1.989-11.257,1.332-23.172-1.979c10.59-7.287,17.876-9.272,22.512-7.952C291.113,285.544,291.777,286.87,292.438,289.521
				z"/>
		</g>
	</g>
	<g>
		<g>
			<path d="M263.313,292.832c0-1.333-0.668-1.992-2.65-1.992l-23.832,3.311c-1.99,0-2.65,1.324-2.65,2.649
				c0,1.986,1.325,2.651,3.312,2.651l23.831-3.311C263.313,296.143,263.971,295.475,263.313,292.832z"/>
		</g>
	</g>
	<g>
		<g>
			<path fill="#9260C7" d="M246.096,247.147l17.217-7.946c9.93-5.955,11.916-11.916,6.619-17.217
				c-5.961-5.289-11.922-2.645-17.217,7.287C250.07,234.566,247.419,240.527,246.096,247.147z"/>
		</g>
	</g>
	<g>
		<g>
			<path d="M274.561,229.937c1.326-3.31,0-6.62-3.311-9.931c-3.311-2.651-6.619-3.976-10.589-2.651
				c-3.972,0.66-7.946,5.961-12.582,14.56l-4.629,14.572l0.657,2.645h2.651l13.901-5.295
				C269.266,239.202,273.9,234.566,274.561,229.937z M269.932,227.945v1.326c-0.666,3.976-7.287,8.605-19.861,13.24
				c3.971-11.915,7.939-19.195,12.574-20.527c1.326-0.659,3.312,0.666,4.638,1.991L269.932,227.945z"/>
		</g>
	</g>
	<g>
		<g>
			<path d="M248.079,249.132c1.325-1.985,1.325-3.311-0.66-3.976c-0.659-1.319-1.983-1.319-3.312,0l-16.549,17.217
				c-0.66,1.325-0.66,3.31,0,3.976c1.324,1.319,2.649,1.319,3.969,0L248.079,249.132z"/>
		</g>
	</g>
	<g>
		<g>
			<path fill="#9260C7" d="M197.768,244.496c-9.271-7.28-14.566-7.939-18.538-0.659c-3.976,6.621,0.66,11.916,11.917,13.9
				l18.535,1.326C206.371,253.767,201.734,249.132,197.768,244.496z"/>
		</g>
	</g>
	<g>
		<g>
			<path d="M185.185,235.891c-3.31,0-6.621,2.644-7.939,6.62c-2.65,3.976-2.65,7.946,0,10.597c1.984,3.97,7.939,6.62,17.21,7.939
				l15.226,0.66c1.325,0,1.985-0.66,1.985-1.319v-2.651C201.077,242.511,192.473,235.891,185.185,235.891z M180.556,247.807
				l0.659-3.311c1.985-1.985,3.311-3.31,4.636-3.31c4.635-0.659,10.59,4.636,18.536,15.232c-13.24-0.666-20.521-2.651-23.172-5.96
				L180.556,247.807z"/>
		</g>
	</g>
	<g>
		<g>
			<path d="M211.007,257.078c-1.325-1.326-2.649-0.66-3.312,0.659c-0.658,1.326-0.658,2.651,0.66,3.311l21.854,11.256
				c1.318,1.325,2.645,0.666,3.311-1.326c0.66-1.319,0.66-1.984-1.324-3.31L211.007,257.078z"/>
		</g>
	</g>
	<g>
		<g>
			<path fill="#9260C7" d="M195.781,210.735l-13.906-12.582c-9.265-7.28-15.226-6.621-17.871,1.325
				c-2.65,7.287,1.319,11.256,13.241,11.916L195.781,210.735z"/>
		</g>
	</g>
	<g>
		<g>
			<path d="M168.634,190.874c-3.311,0.659-5.955,3.31-7.28,7.28c-1.985,4.636-1.326,7.946,0.659,10.59
				c3.311,3.977,9.271,5.302,19.202,5.961l15.227-1.318l1.984-1.991l-0.658-1.985C185.851,195.502,176.579,189.548,168.634,190.874z
				 M169.959,196.168c4.636-1.325,11.256,3.31,20.527,12.575c-13.241,1.992-21.188,0.666-23.837-3.31
				c-1.326-1.318-1.985-2.644-0.66-5.289C167.315,197.494,167.974,196.168,169.959,196.168z"/>
		</g>
	</g>
	<g>
		<g>
			<path d="M197.105,208.084c-1.99-0.66-3.31,0-3.31,1.991c-0.666,1.319,0,2.645,1.317,3.311l22.514,7.939
				c1.325,0.659,2.65,0,3.309-1.319c0-1.991,0-2.651-1.324-3.976L197.105,208.084z"/>
		</g>
	</g>
	<g>
		<g>
			<path fill="#9260C7" d="M231.527,189.548c5.961-1.985,11.923-4.636,16.552-7.946c9.931-5.96,12.582-11.916,6.62-17.21
				c-5.954-5.301-11.249-2.65-17.211,7.939C234.839,177.633,233.52,183.593,231.527,189.548z"/>
		</g>
	</g>
	<g>
		<g>
			<path d="M260.661,172.331c0-3.97-1.326-7.28-3.972-9.931c-3.976-2.644-7.285-3.97-10.596-2.644
				c-6.621,1.985-12.574,11.915-17.211,29.792c0,1.325,0.66,1.984,1.325,1.984l2.644,1.325
				C249.404,186.238,258.675,179.617,260.661,172.331z M247.419,164.392c1.985,0,3.312,0,5.296,1.984l1.984,4.636l0,0
				c-0.659,4.629-7.28,9.93-19.195,14.56C239.475,172.997,243.45,166.376,247.419,164.392z"/>
		</g>
	</g>
	<g>
		<g>
			<path d="M233.52,187.563l-3.976,0.659l-15.887,17.876c-1.325,0.666-1.325,1.985,0,3.31c1.319,1.326,2.646,1.326,3.971,0
				l15.892-17.876C234.839,190.214,234.839,188.882,233.52,187.563z"/>
		</g>
	</g>
	<g>
		<g>
			<path fill="#9260C7" d="M258.01,388.828l-7.279-17.219l-6.621,17.219c-3.31,11.908,0,17.21,7.279,17.21
				C260.001,405.378,261.984,400.077,258.01,388.828z"/>
		</g>
	</g>
	<g>
		<g>
			<path d="M260.001,384.186l-6.62-13.242c-0.666-1.316-1.324-1.977-2.65-1.977c-1.324,0-1.984,0.659-2.65,1.977
				c-1.984,3.312-3.971,7.953-5.295,13.908c-2.645,9.265-2.645,15.885-0.659,19.861c1.983,2.645,5.294,3.977,9.265,3.977
				c4.635,0,7.945-1.332,9.932-4.644C263.971,399.417,263.313,392.798,260.001,384.186z M251.389,403.389
				c-2.644,0-3.97-0.66-4.629-1.986l-0.664-3.977c0-5.953,1.323-12.574,4.635-19.859c4.636,9.271,6.621,15.892,6.621,19.859
				l-0.66,3.977C256.023,402.729,254.04,403.389,251.389,403.389z"/>
		</g>
	</g>
	<g>
		<g>
			<path d="M267.281-54.743c-1.985,0-3.311,0.659-3.311,2.644c0,44.358,9.93,93.353,31.775,148.295
				c10.598,27.147,21.187,50.319,33.104,70.18c0.665,1.326,1.324,1.326,3.311,0.667c1.325-0.667,1.325-2.651,0.666-3.976
				c-10.598-18.536-21.854-41.708-32.443-68.849C279.197,39.922,269.266-9.065,269.932-52.099
				C269.932-54.083,268.605-54.743,267.281-54.743z"/>
		</g>
	</g>
	<g>
		<g>
			<path fill="#858585" d="M299.723-12.375l-15.23-1.326l2.65,14.567c4.635,9.265,13.24,13.241,27.142,11.915
				C313.625-0.46,308.988-9.065,299.723-12.375z"/>
		</g>
	</g>
	<g>
		<g>
			<path d="M292.438-16.352h-8.604c-0.66,0-1.326,0.666-1.326,2.65c-1.324,0.66-1.324,3.311,0,7.946
				c1.326,5.955,3.311,10.597,7.286,14.566c5.954,5.295,13.9,7.939,24.49,6.621c1.992,0,2.649-0.66,2.649-2.651
				c0-10.59-3.309-18.536-9.931-23.831C303.033-14.36,297.732-16.352,292.438-16.352z M287.143-11.05
				c6.621-0.659,12.58,0.66,16.552,3.97c3.97,3.31,6.621,9.271,7.279,17.211c-7.279,0.666-13.241-1.319-17.21-5.289
				C289.793,0.866,287.143-4.43,287.143-11.05z"/>
		</g>
	</g>
	<g>
		<g>
			<path d="M265.955-30.911c-1.324,1.984-1.324,3.31,0.667,3.969l16.551,15.232c1.318,0.659,2.644,0.659,3.97,0
				c0.659-1.332,0.659-2.651-0.658-3.976l-16.553-15.226C268.605-31.571,267.281-31.571,265.955-30.911z"/>
		</g>
	</g>
	<g>
		<g>
			<path fill="#858585" d="M324.214,57.139c-0.659-13.907-6.621-21.847-16.551-24.497l-14.56-0.66l3.969,14.56
				C301.709,55.155,310.974,59.124,324.214,57.139z"/>
		</g>
	</g>
	<g>
		<g>
			<path d="M300.383,28.673l-7.945,1.318c-1.324,0-1.983,1.333-1.983,1.991l1.323,7.939c1.326,5.961,3.971,10.597,7.945,13.907
				c6.622,5.954,14.562,7.945,25.158,5.954l1.984-2.644c-0.66-11.256-3.972-18.536-11.257-23.838
				C310.974,30.657,306.345,29.332,300.383,28.673z M312.965,37.944c3.969,2.644,7.279,8.599,7.939,17.211
				c-7.279,0-13.901-1.326-17.871-5.302c-3.977-3.31-5.961-7.939-6.62-15.219C303.033,33.967,308.988,35.292,312.965,37.944z"/>
		</g>
	</g>
	<g>
		<g>
			<path d="M295.089,33.967c1.324-1.325,1.324-2.644-0.667-3.976l-17.211-13.9c-1.324-0.66-3.311-0.66-3.97,0.659
				c-0.665,1.991-0.665,2.651,0.659,3.976l17.213,13.907C293.104,35.292,293.764,35.292,295.089,33.967z"/>
		</g>
	</g>
	<g>
		<g>
			<path fill="#858585" d="M336.796,111.428c0-13.901-5.961-22.512-15.892-25.823l-13.901-0.659l3.313,14.56
				C314.283,108.777,323.555,112.747,336.796,111.428z"/>
		</g>
	</g>
	<g>
		<g>
			<path d="M303.693,84.946l0.658,8.605c1.992,5.295,4.637,9.931,7.946,13.241c5.294,5.954,14.566,7.946,25.156,6.621l2.651-2.645
				c-0.659-11.262-4.637-19.202-10.592-23.837c-3.977-2.645-9.271-4.636-15.231-5.295l-7.938,0.659
				C305.678,82.955,304.353,83.621,303.693,84.946z M334.146,108.118c-7.94,0.66-13.901-1.325-17.87-4.635
				c-4.638-4.636-6.621-9.931-6.621-15.886c7.278-0.666,12.575,0.66,16.551,3.97C330.175,94.877,333.485,100.172,334.146,108.118z"
				/>
		</g>
	</g>
	<g>
		<g>
			<path d="M291.113,68.395l-3.971,0.659c-0.66,1.326-0.66,2.651,0.658,3.311l17.218,14.566h3.97c1.326-1.326,1.326-1.985,0-3.31
				L291.113,68.395z"/>
		</g>
	</g>
	<g>
		<g>
			<path fill="#858585" d="M363.277,143.205c-3.971-12.575-11.256-19.196-21.188-19.862l-14.565,3.311l6.62,13.241
				C341.431,147.181,351.362,148.5,363.277,143.205z"/>
		</g>
	</g>
	<g>
		<g>
			<path d="M324.881,127.32l2.645,7.28c2.649,5.295,6.621,9.271,11.256,11.916c7.286,3.311,15.893,3.311,25.822-0.666
				c1.984-0.66,1.984-1.319,1.984-3.31c-3.969-10.59-9.271-17.21-16.552-19.861l-16.551-1.319l-7.28,3.311
				C324.881,125.329,324.214,126.654,324.881,127.32z M347.386,127.979c5.301,1.984,9.271,6.62,12.581,13.241
				c-7.945,2.651-13.899,2.651-18.536,0c-4.635-2.651-8.604-6.621-10.596-13.241H347.386z"/>
		</g>
	</g>
	<g>
		<g>
			<path d="M307.663,114.738c-0.66,0-1.985,0-3.312,1.985c-0.658,1.325,0,1.985,1.992,3.31l20.521,9.265
				c1.326,0.666,2.649,0,3.31-1.318c0.66-1.326,0-2.651-1.324-3.31L307.663,114.738z"/>
		</g>
	</g>
	<g>
		<g>
			<path fill="#858585" d="M257.352-9.732l-1.985-14.56c-4.636,0.66-9.271,2.651-13.906,5.295
				c-7.938,6.621-10.59,15.886-6.62,28.467C247.419,6.819,255.365,0.2,257.352-9.732z"/>
		</g>
	</g>
	<g>
		<g>
			<path d="M257.352-25.617l-2.651-1.325c-8.604,0.66-15.226,4.636-19.86,11.921c-4.63,6.621-5.295,15.22-1.986,25.816
				c0,1.326,1.326,1.985,2.651,1.326C246.762,10.13,253.382,5.5,257.352-1.78C260.661-9.065,260.661-17.012,257.352-25.617z
				 M254.699-13.701c0,3.311-0.659,6.621-1.984,9.271c-2.645,5.295-7.945,8.605-15.226,10.59l-1.326-7.28
				c0-4.636,0.666-7.946,3.312-11.256c2.65-3.976,7.285-7.287,13.906-8.605L254.699-13.701z"/>
		</g>
	</g>
	<g>
		<g>
			<path d="M267.939-46.144c-0.658-0.659-1.984-0.659-3.31,0.667l-11.25,19.861c-1.325,1.325-0.666,2.645,0.659,3.311
				c1.324,1.326,2.65,0.666,3.311-0.666l11.916-19.195C270.591-44.153,269.932-45.478,267.939-46.144z"/>
		</g>
	</g>
	<g>
		<g>
			<path fill="#858585" d="M248.745,68.395c12.575-4.635,19.194-12.582,19.194-22.512l-3.31-13.901
				c-4.63,0.66-8.606,3.31-12.575,6.621C244.107,45.883,243.45,55.813,248.745,68.395z"/>
		</g>
	</g>
	<g>
		<g>
			<path d="M267.281,30.657c-0.659-1.326-1.326-1.984-3.311-1.326c-1.326,0-3.311,0.66-7.281,2.651
				c-5.301,3.31-9.271,6.621-11.256,11.25c-3.976,7.286-3.31,15.892,1.325,25.822c0,1.326,1.319,1.991,3.312,1.326
				c9.931-3.31,16.552-8.605,19.195-16.551c1.324-5.295,1.983-10.597,0.664-15.885L267.281,30.657z M248.079,54.495
				c0-3.31,0.666-5.961,1.991-8.611c2.645-4.629,7.279-8.605,13.24-10.591l2.645,9.931l-1.984,6.62
				c-1.326,5.295-5.961,8.605-13.24,12.582L248.079,54.495z"/>
		</g>
	</g>
	<g>
		<g>
			<path d="M274.561,8.811c-1.318-1.326-2.644,0-3.311,1.319l-8.605,20.527c-1.324,1.325-0.658,2.644,1.326,3.31
				c1.325,1.325,2.651,0.666,3.312-1.325l9.271-20.521C277.211,10.796,276.553,9.471,274.561,8.811z"/>
		</g>
	</g>
	<g>
		<g>
			<path fill="#858585" d="M277.871,98.188l-1.984-14.566c-5.296,0-9.265,1.984-13.242,5.295c-8.604,5.96-9.93,15.891-6.619,29.132
				C269.266,114.738,276.553,108.118,277.871,98.188z"/>
		</g>
	</g>
	<g>
		<g>
			<path d="M277.871,105.467c3.977-7.28,3.977-15.226,0.666-23.172c-0.666-0.659-1.326-1.985-2.65-1.985
				c-8.604,1.326-15.886,5.295-20.521,11.916c-4.636,7.28-4.636,15.892-1.984,25.822c0.659,1.985,1.318,2.651,3.31,1.985
				C267.281,118.048,274.561,112.747,277.871,105.467z M275.229,94.217l-1.986,9.265c-2.65,4.635-7.286,7.946-15.23,10.596
				l-0.66-7.286c0-4.635,0.66-7.946,2.65-11.256c3.311-3.969,7.28-7.28,13.9-9.271L275.229,94.217z"/>
		</g>
	</g>
	<g>
		<g>
			<path d="M289.127,61.774c-1.984-1.325-3.311-1.325-3.97,0.66L273.9,81.636c-0.659,1.985-0.659,3.31,0.66,3.969
				c1.991,1.326,2.649,0.66,3.311-0.659l11.922-19.861C290.453,63.76,290.453,62.435,289.127,61.774z"/>
		</g>
	</g>
	<g>
		<g>
			<path fill="#858585" d="M292.438,138.569l-1.983-14.56c-4.638,0.66-9.271,2.645-13.242,5.955
				c-8.604,5.955-10.589,15.226-6.62,28.467C283.173,155.12,290.453,148.5,292.438,138.569z"/>
		</g>
	</g>
	<g>
		<g>
			<path d="M293.104,123.343l-2.649-1.985c-9.271,0.66-16.552,5.295-20.522,11.916c-4.635,6.62-5.3,15.226-2.648,25.816l3.31,1.991
				c10.591-2.651,18.536-7.946,21.847-14.566C296.413,139.229,296.413,131.289,293.104,123.343z M288.467,126.654l1.326,7.946
				l-2.65,9.271c-1.326,4.629-6.621,7.939-14.565,10.59l-1.326-7.28c0-3.976,1.326-7.953,2.651-10.597
				C277.211,131.949,281.848,128.638,288.467,126.654z"/>
		</g>
	</g>
	<g>
		<g>
			<path d="M303.033,102.157c-1.99-0.66-2.65-0.66-3.312,1.325l-11.921,19.195c-0.658,1.332,0,2.651,1.325,3.976l3.978-1.325
				l10.59-19.861C305.02,104.148,304.353,102.816,303.033,102.157z"/>
		</g>
	</g>
	<g>
		<g>
			<path fill="#858585" d="M332.16,204.115c9.931-9.271,11.915-18.542,7.946-27.807l-9.271-11.916l-7.94,11.916
				C318.919,186.238,322.229,195.502,332.16,204.115z"/>
		</g>
	</g>
	<g>
		<g>
			<path d="M344.075,182.927c0-5.294-1.984-9.93-5.954-15.226l-5.961-5.301l-2.646,0.666l-5.961,5.295
				c-3.311,5.301-4.636,9.931-5.295,15.232c0,7.939,3.97,15.885,11.915,22.506c1.325,1.325,2.651,1.325,3.312,0
				C341.431,198.153,345.401,190.874,344.075,182.927z M339.447,182.927v1.326c0,5.295-2.651,10.59-7.287,15.892
				c-5.955-5.961-8.605-10.596-8.605-15.892v-0.66c0-5.96,2.65-10.596,7.28-15.232C336.137,172.997,338.78,177.633,339.447,182.927z
				"/>
		</g>
	</g>
	<g>
		<g>
			<path d="M192.473-80.565c-0.666-1.325-1.986-1.991-3.978-1.325C156.058-67.983,122.29-29.593,88.529,33.301
				c-17.211,32.443-31.777,64.226-43.693,96.663c0,1.325,0,1.985,1.319,3.311c1.991,0,3.311,0,3.976-1.985
				c11.256-29.792,24.497-60.909,42.367-92.686c33.769-63.554,66.205-101.958,98.646-115.858
				C193.131-77.255,193.797-78.581,192.473-80.565z"/>
		</g>
	</g>
	<g>
		<g>
			<path fill="#858585" d="M32.915,94.217c-10.59,1.319-17.21,9.265-19.862,21.84c12.582,3.976,21.853,1.991,28.473-6.621
				l5.955-13.9L32.915,94.217z"/>
		</g>
	</g>
	<g>
		<g>
			<path d="M48.146,93.551L40.2,91.567c-5.295-1.325-10.597,0-15.226,1.984c-7.287,4.636-11.922,11.256-14.566,21.847
				c-0.663,1.325,0,2.65,1.322,3.31c11.253,2.65,19.864,2.65,26.485-1.985c3.969-3.31,7.28-7.287,9.93-12.575l1.319-7.952
				L48.146,93.551z M34.906,112.087c-4.636,2.651-10.596,3.311-18.542,1.991c2.651-7.952,6.621-12.581,10.597-15.232l17.21-0.659
				C42.186,104.807,39.535,108.777,34.906,112.087z"/>
		</g>
	</g>
	<g>
		<g>
			<path d="M68.667,83.621c-0.66-1.985-1.985-1.985-3.311-1.326L46.155,93.551c-1.319,1.326-1.985,1.985-1.319,3.31
				c0.66,1.985,1.985,1.985,3.31,1.326l19.861-11.256C69.327,85.605,69.327,84.287,68.667,83.621z"/>
		</g>
	</g>
	<g>
		<g>
			<path fill="#858585" d="M54.101,39.263c-10.59-0.659-18.536,4.635-24.497,16.551c11.256,7.28,21.188,7.28,29.133,0.66
				l8.605-11.25C63.373,41.914,58.737,39.922,54.101,39.263z"/>
		</g>
	</g>
	<g>
		<g>
			<path d="M69.993,45.883c0.659-1.319,0-2.651-0.666-3.311c-7.939-5.294-15.226-7.28-23.172-5.294
				c-7.939,1.985-14.56,7.946-19.195,17.877c-0.667,1.318-0.667,2.65,1.325,3.31c9.265,5.295,17.87,6.621,25.156,3.97
				C61.388,59.783,66.682,53.829,69.993,45.883z M47.481,42.572c4.636-0.659,10.596,0,16.551,3.311
				c-2.644,5.96-6.621,9.93-12.575,11.256c-5.302,1.985-11.256,1.325-18.542-1.984C37.55,48.534,42.186,43.898,47.481,42.572z"/>
		</g>
	</g>
	<g>
		<g>
			<path d="M91.179,37.944c0-1.991-1.325-2.651-3.31-1.991l-21.188,5.961c-1.984,1.319-1.984,1.984-1.984,3.31
				c0.659,1.985,1.319,2.651,3.31,1.985l21.847-6.621C91.179,40.588,92.498,39.263,91.179,37.944z"/>
		</g>
	</g>
	<g>
		<g>
			<path fill="#858585" d="M73.962,9.471c-10.59,0-17.876,6.621-23.171,19.202c11.915,5.294,21.846,4.628,29.792-2.651
				c3.31-3.97,5.961-7.28,7.287-12.581C83.893,10.796,79.257,9.471,73.962,9.471z"/>
		</g>
	</g>
	<g>
		<g>
			<path d="M90.514,14.106c0-1.326,0-1.985-1.326-3.311C81.249,6.16,73.303,5.501,66.017,8.811
				c-7.939,1.985-13.241,8.605-17.87,18.536c-0.666,1.984,0,3.31,1.319,3.31l26.481,1.325C83.234,28.673,87.87,22.711,90.514,14.106
				z M84.559,14.772c-2.651,5.955-6.621,10.59-11.256,12.575H54.767c3.31-7.287,7.939-11.916,12.575-13.907L84.559,14.772z"/>
		</g>
	</g>
	<g>
		<g>
			<path d="M111.041,3.509c-0.666-1.318-1.991-1.318-3.311-1.318l-21.186,8.605c-1.985,1.326-1.985,1.985-1.326,3.311
				c0.66,1.985,1.985,2.644,3.97,1.325L109.05,6.82C111.041,6.16,111.7,5.501,111.041,3.509z"/>
		</g>
	</g>
	<g>
		<g>
			<path fill="#858585" d="M102.429-40.842c-9.931-3.311-18.536,0.66-26.482,11.25c9.931,8.612,19.862,10.596,28.473,5.961
				c4.629-2.651,7.94-5.961,10.59-9.931L102.429-40.842z"/>
		</g>
	</g>
	<g>
		<g>
			<path d="M73.962-30.911c-1.325,1.318-1.325,2.65,0,3.969c8.605,6.62,16.551,9.271,24.497,7.945
				c7.946-1.325,13.901-5.295,19.202-13.241l-0.666-3.31c-5.954-6.62-13.241-9.265-21.186-8.605
				C87.204-44.153,79.923-39.523,73.962-30.911z M97.8-23.631c-5.961,0.659-11.922-1.319-17.877-5.961
				c5.295-6.621,10.59-9.265,15.886-9.931c5.301,0,11.256,1.991,15.891,5.961C107.73-27.602,102.429-24.292,97.8-23.631z"/>
		</g>
	</g>
	<g>
		<g>
			<path d="M140.167-36.873l-2.644-1.985l-22.513,2.644c-1.325,0-2.65,1.332-2.65,2.651c0,1.991,1.325,2.651,3.31,2.651
				l21.853-2.651C140.167-33.562,140.833-34.222,140.167-36.873z"/>
		</g>
	</g>
	<g>
		<g>
			<path fill="#858585" d="M133.547-77.255c-9.265-5.302-19.195-3.311-29.126,5.961c7.94,10.59,17.87,14.56,27.801,11.25
				c4.636-1.319,8.612-3.97,11.922-7.28C141.492-71.959,138.183-75.27,133.547-77.255z"/>
		</g>
	</g>
	<g>
		<g>
			<path d="M102.429-73.285c-0.66,0.659-1.319,2.651,0,3.31c6.621,8.612,13.907,13.241,21.853,13.9
				c8.605,0,15.885-3.31,21.846-9.931c1.325-0.659,1.325-1.319,0.66-2.645c-5.295-7.945-11.256-11.916-19.195-13.907
				C118.98-83.875,111.041-80.565,102.429-73.285z M124.282-61.363c-5.302-0.666-9.931-3.31-15.232-9.271
				c5.96-5.301,11.921-7.28,17.217-6.621c5.954,1.319,10.59,3.97,14.566,9.931C135.531-63.354,130.236-60.704,124.282-61.363z"/>
		</g>
	</g>
	<g>
		<g>
			<path d="M144.803-69.975l-3.311,2.651c0,1.319,0.66,1.985,2.651,2.651l22.506,1.979c1.325,0,1.985-0.66,2.65-1.979l-1.984-2.651
				L144.803-69.975z"/>
		</g>
	</g>
	<g>
		<g>
			<path fill="#858585" d="M154.074-22.972l-1.991,14.573c1.325,10.59,8.612,17.21,21.853,20.521
				c3.97-13.241,1.319-23.172-6.62-29.133L154.074-22.972z"/>
		</g>
	</g>
	<g>
		<g>
			<path d="M154.733-25.617c-1.325-0.666-2.65,0-3.31,1.325l-1.325,7.94c-1.326,5.301-0.66,10.596,1.325,15.232
				c3.97,7.28,11.256,12.581,21.847,15.226c1.326,0,1.984,0,3.31-1.985c2.651-9.931,1.985-19.202-1.984-25.823
				c-3.311-3.97-6.621-7.279-12.583-9.93L154.733-25.617z M155.393-20.322c7.286,2.651,11.922,5.961,14.566,9.931
				c1.985,2.65,3.311,6.62,3.311,10.59l-1.985,7.286c-7.28-1.984-12.581-5.294-14.566-10.596c-1.325-2.645-1.985-4.629-1.985-8.599
				L155.393-20.322z"/>
		</g>
	</g>
	<g>
		<g>
			<path d="M145.462-44.153l-3.97-1.325c-1.325,1.325-1.325,1.984-0.659,3.976l10.59,19.862c1.325,1.318,2.651,1.318,3.97,0.66
				l1.325-3.311L145.462-44.153z"/>
		</g>
	</g>
	<g>
		<g>
			<path fill="#858585" d="M165.323-34.222c-3.311,9.93,0,19.201,10.597,27.801c8.605-9.931,11.255-19.861,7.28-29.126
				l-9.931-10.597C169.959-42.833,167.315-38.857,165.323-34.222z"/>
		</g>
	</g>
	<g>
		<g>
			<path d="M174.595-48.788l-3.311,0.666c-6.62,5.955-9.93,12.575-9.93,21.18c0,7.945,4.635,15.892,13.241,22.512h3.31
				c7.28-8.612,10.59-16.551,9.93-24.497C186.512-37.532,181.875-43.493,174.595-48.788z M166.649-26.942v-0.66
				c0-5.301,1.985-9.931,6.621-15.232c4.635,3.976,7.945,8.612,8.605,14.573v1.979c0,5.302-1.319,9.931-5.955,15.232
				C169.959-16.352,167.315-21.64,166.649-26.942z"/>
		</g>
	</g>
	<g>
		<g>
			<path d="M173.27-70.634l-1.985-0.66l-1.325,0.66l-1.325,1.984l1.991,22.506c0,1.991,0.659,2.651,2.645,2.651
				c1.326-0.66,2.651-1.319,1.984-3.31l-1.319-22.512L173.27-70.634z"/>
		</g>
	</g>
	<g>
		<g>
			<path fill="#858585" d="M73.962,113.413c-0.659,9.93,5.295,17.876,17.876,23.171c5.961-11.915,5.295-21.846-1.984-29.792
				l-11.917-7.286L73.962,113.413z"/>
		</g>
	</g>
	<g>
		<g>
			<path d="M77.938,96.861c-0.665,0-1.991,0-2.65,1.326c-0.66,0.659-1.985,3.31-2.651,7.28c-1.985,5.961-1.985,11.256-0.66,15.891
				c2.651,7.28,9.271,13.241,19.202,17.87c1.319,0.666,2.645,0,3.311-1.318c4.629-9.931,4.629-18.543,1.319-25.823
				c-1.319-4.629-5.295-8.605-9.931-11.915L77.938,96.861z M77.273,120.033l-1.326-5.955c0-3.976,1.326-8.611,3.31-11.263
				c5.961,2.651,9.931,6.621,11.922,11.263l1.985,7.28l-2.65,11.25C83.893,129.298,79.257,124.669,77.273,120.033z"/>
		</g>
	</g>
	<g>
		<g>
			<path d="M71.318,77.667c0-1.991-1.325-2.651-3.311-1.991c-1.326,1.325-1.991,1.991-1.326,3.31l7.946,21.188
				c1.319,1.985,2.645,1.985,3.97,1.325c1.985,0,2.651-1.325,1.325-3.31L71.318,77.667z"/>
		</g>
	</g>
	<g>
		<g>
			<path fill="#858585" d="M91.179,67.736c-1.991,10.59,3.311,18.529,14.56,25.815c7.946-11.256,8.612-21.187,2.651-29.792
				l-11.256-9.265L91.179,67.736z"/>
		</g>
	</g>
	<g>
		<g>
			<path d="M95.149,52.503l-3.97,7.28c-2.65,5.302-3.31,10.597-2.65,15.232c1.325,7.939,6.62,15.226,15.891,20.521l3.31-0.659
				c6.621-9.271,7.939-17.876,6.621-25.163c-1.991-4.629-4.636-9.265-9.271-13.241c-3.311-2.644-5.961-4.629-6.621-4.629
				L95.149,52.503z M93.824,71.705c0-4.635,1.325-9.271,3.976-13.241c5.954,2.651,9.93,6.621,11.25,12.581v4.63
				c0,3.969-1.319,8.611-3.97,13.241c-6.621-3.97-10.59-8.606-11.256-14.56V71.705z"/>
		</g>
	</g>
	<g>
		<g>
			<path d="M94.49,31.982c0-1.991-0.666-2.651-2.651-1.991c-1.325,0-2.651,1.333-1.984,2.651l4.635,22.513l1.319,1.984H97.8
				c1.319,0,2.644-1.984,1.985-3.31L94.49,31.982z"/>
		</g>
	</g>
	<g>
		<g>
			<path fill="#858585" d="M111.041,32.642c-1.991,10.59,2.644,19.202,13.9,25.822c7.946-10.59,9.271-19.861,3.31-29.133
				l-10.59-9.93L111.041,32.642z"/>
		</g>
	</g>
	<g>
		<g>
			<path d="M118.98,17.416l-3.31,0.667l-4.629,6.62c-2.651,5.289-3.311,10.59-3.311,15.219c1.319,8.612,6.621,15.233,15.886,21.193
				l3.976-0.666c5.955-8.605,7.939-17.217,5.955-25.157c-1.326-5.301-3.97-9.271-7.946-13.241L118.98,17.416z M113.026,37.278
				c0-4.636,1.325-9.265,4.635-13.907c6.621,3.976,9.931,8.611,11.25,13.241v3.976c0,3.977-1.319,8.605-4.629,14.567
				c-6.621-5.302-9.931-9.931-10.597-15.892L113.026,37.278z"/>
		</g>
	</g>
	<g>
		<g>
			<path d="M115.67-3.111c0-1.319-1.318-1.978-3.31-1.978c-1.319,0.659-1.985,1.318-1.985,3.31l3.977,21.84
				c0.659,1.991,1.984,2.651,3.31,1.991c1.985,0,2.645-1.325,2.645-2.65L115.67-3.111z"/>
		</g>
	</g>
	<g>
		<g>
			<path fill="#858585" d="M36.891,139.895c-5.295,9.265-4.636,18.536,3.31,29.792c11.256-7.286,15.885-15.885,13.9-26.481
				l-6.62-12.575L36.891,139.895z"/>
		</g>
	</g>
	<g>
		<g>
			<path d="M57.411,151.151c0.666-5.302-0.659-10.59-3.31-15.892l-4.635-6.621l-3.311-0.659l-6.621,4.629
				c-3.969,3.976-6.62,8.612-7.939,13.907c-1.991,7.946,0,15.885,6.621,24.497l3.31,0.659
				C50.792,165.71,56.086,158.431,57.411,151.151z M36.225,147.84c1.991-5.961,5.301-9.93,10.596-13.9
				c3.31,3.97,4.636,9.265,4.636,13.9v1.985c0,5.954-3.976,11.256-9.931,15.225c-3.976-4.629-5.301-9.271-5.301-13.9V147.84z"/>
		</g>
	</g>
	<g>
		<g>
			<path d="M266.622-42.167l-3.978-0.666c-15.227,13.241-31.775,31.783-48.987,54.955c-35.093,47.662-59.583,99.307-73.49,154.254
				c0,1.326,0,3.311,1.325,3.311c1.985,0,3.311,0,3.311-1.985c13.9-54.289,38.397-105.267,72.825-152.27
				c17.211-23.172,33.103-41.048,48.327-53.623C267.281-39.523,267.281-40.842,266.622-42.167z"/>
		</g>
	</g>
	<g>
		<g>
			<path fill="#858585" d="M179.23,177.633c5.955-11.922,5.295-21.853-1.325-29.792l-12.582-7.946l-3.969,14.567
				C161.354,164.392,167.315,172.331,179.23,177.633z"/>
		</g>
	</g>
	<g>
		<g>
			<path d="M166.649,137.91c-1.985-0.66-2.645,0-3.311,0.659l-3.31,7.946c-1.985,5.295-1.985,10.596-0.659,15.226
				c2.644,7.945,8.605,13.9,18.536,17.876c1.985,1.325,2.651,0.667,3.31-0.666c5.297-10.59,5.961-19.195,3.311-25.815
				c-2.65-4.636-5.961-8.604-10.59-11.916L166.649,137.91z M164.004,155.12c0-3.969,0.66-7.28,2.645-11.915
				c5.961,2.644,10.597,6.621,12.581,11.915l1.326,7.28c0,3.31-0.666,7.286-2.651,11.262c-6.621-3.31-11.256-7.287-13.241-13.241
				L164.004,155.12z"/>
		</g>
	</g>
	<g>
		<g>
			<path d="M160.694,118.048c-0.666-1.325-1.991-1.991-3.31-1.325c-1.991,0.667-2.651,1.325-1.991,3.31l7.945,21.187
				c0.666,1.985,1.326,1.985,3.311,1.319c1.325-0.66,1.985-1.319,1.325-3.311L160.694,118.048z"/>
		</g>
	</g>
	<g>
		<g>
			<path fill="#858585" d="M193.797,133.274c7.28-11.256,7.28-21.187,1.318-29.792l-11.249-8.605l-5.961,13.241
				C176.579,118.048,181.875,126.654,193.797,133.274z"/>
		</g>
	</g>
	<g>
		<g>
			<path d="M184.525,92.226c-0.659-0.659-1.985,0-2.65,1.325l-3.97,6.621c-2.651,5.295-3.31,10.596-2.651,15.226
				c1.992,8.611,7.946,15.232,16.553,19.861l3.976-0.66c5.954-9.271,7.946-17.876,5.296-25.163
				c-1.986-4.629-4.637-9.264-9.932-12.575L184.525,92.226z M181.215,114.738l-0.659-3.31c0-3.311,1.319-7.946,3.97-13.241
				c5.96,3.31,9.931,7.28,11.256,13.241l0.659,5.295c0,3.31-1.325,7.946-3.969,12.575
				C185.185,124.669,181.875,120.033,181.215,114.738z"/>
		</g>
	</g>
	<g>
		<g>
			<path d="M181.215,72.365c-0.659-1.985-1.985-1.985-3.31-1.985c-1.984,0-2.651,1.325-1.984,3.311l5.294,21.187
				c0,1.984,1.985,2.65,3.311,1.984c1.986,0,2.65-1.325,1.986-2.644L181.215,72.365z"/>
		</g>
	</g>
	<g>
		<g>
			<path fill="#858585" d="M220.938,96.861c5.961-11.915,5.297-21.846-1.983-29.125l-11.916-7.953l-3.976,13.907
				C202.4,84.287,208.355,92.226,220.938,96.861z"/>
		</g>
	</g>
	<g>
		<g>
			<path d="M214.316,60.449l-6.621-3.31c-1.324,0-2.649,0-3.309,1.325l-3.311,7.28c-1.326,5.961-1.326,11.256,0,15.892
				c2.65,7.939,8.604,13.9,19.201,17.87c0.658,0.666,1.984,0.666,3.311-1.319c3.971-9.931,4.628-17.877,1.318-25.823
				C223.589,67.736,219.611,63.76,214.316,60.449z M207.695,63.094c6.621,3.31,10.591,7.286,13.24,11.922l0.66,7.28l-1.984,11.256
				c-7.944-3.976-11.916-8.605-13.24-13.241c-1.325-1.985-1.325-3.977-1.325-5.954C205.046,71.045,206.371,67.07,207.695,63.094z"/>
		</g>
	</g>
	<g>
		<g>
			<path d="M201.077,37.944c-0.66-1.991-1.986-1.991-3.312-1.991c-1.984,1.325-2.65,2.651-1.326,3.969l7.946,20.527
				c0.659,1.985,1.984,2.645,3.31,1.985c1.326-0.66,1.986-1.985,1.326-3.311L201.077,37.944z"/>
		</g>
	</g>
	<g>
		<g>
			<path fill="#858585" d="M237.488,56.473c9.271-10.59,10.591-19.861,5.962-29.126L233.52,16.75l-7.285,12.581
				C222.923,39.263,226.898,48.534,237.488,56.473z"/>
		</g>
	</g>
	<g>
		<g>
			<path d="M248.079,33.967c-0.66-5.294-3.312-9.931-7.279-13.907l-5.961-5.289l-3.312,0.66l-4.629,6.62
				c-3.311,4.63-4.635,9.931-3.977,14.561c0,8.611,4.637,15.231,13.906,21.852h3.311C246.76,49.853,250.07,41.914,248.079,33.967z
				 M243.45,34.633v2.645c0,4.636-1.991,9.265-5.962,15.226c-6.619-5.295-9.271-10.59-9.93-15.891v-1.32
				c0-5.961,2.649-10.59,6.619-14.566C239.475,25.362,242.784,29.332,243.45,34.633z"/>
		</g>
	</g>
	<g>
		<g>
			<path d="M233.52-5.755L230.87-7.74c-2.652,0-3.312,0.66-2.652,2.651l2.652,22.505c0,1.325,0.659,1.985,3.31,1.985l1.984-2.651
				L233.52-5.755z"/>
		</g>
	</g>
	<g>
		<g>
			<path fill="#858585" d="M103.754,160.422c12.582,2.645,21.846,0.66,28.467-8.611l4.636-13.241l-14.566-0.659
				C111.7,139.895,105.739,147.181,103.754,160.422z"/>
		</g>
	</g>
	<g>
		<g>
			<path d="M138.842,138.569l-1.319-2.651c-8.612-2.644-16.552-2.644-23.171,1.992c-7.287,3.969-11.922,11.916-13.241,21.846
				c-0.667,1.985,0,3.31,1.319,3.31c11.256,2.644,19.861,1.325,25.822-3.31C134.872,154.461,138.183,147.84,138.842,138.569z
				 M116.995,142.539c4.636-2.645,10.597-3.97,16.552-1.979c-1.326,7.28-3.97,11.909-7.946,14.56
				c-4.629,3.311-10.59,4.636-18.536,3.311C109.05,149.826,112.36,144.53,116.995,142.539z"/>
		</g>
	</g>
	<g>
		<g>
			<path d="M157.384,124.669c-0.666-1.326-1.991-1.992-3.311-1.326l-19.202,13.241c-1.325,1.326-1.325,1.985-0.66,3.31
				c1.319,1.326,2.645,1.326,3.311,0.666l19.195-12.581C158.043,126.654,158.043,125.329,157.384,124.669z"/>
		</g>
	</g>
	<g>
		<g>
			<path fill="#858585" d="M113.685,94.877c10.597,7.939,20.527,8.605,29.133,3.311c4.635-3.311,7.28-7.28,9.265-11.256
				c-3.969-3.31-7.939-5.295-13.241-6.621C128.911,78.985,120.306,83.621,113.685,94.877z"/>
		</g>
	</g>
	<g>
		<g>
			<path d="M137.523,103.482c7.28-1.985,13.241-7.946,17.21-15.886c0-1.332,0-2.65-0.659-2.65
				c-7.286-5.961-14.566-7.946-23.171-6.621c-7.286,0.659-13.907,6.621-19.861,15.226c-0.666,1.985-0.666,3.31,0.659,3.976
				C120.971,103.482,129.577,105.467,137.523,103.482z M148.772,86.931c-3.97,5.954-7.939,9.93-13.241,11.256
				c-4.629,1.985-11.249,0-17.87-3.311c4.629-7.28,9.265-11.256,14.56-11.256C136.857,82.295,142.152,83.621,148.772,86.931z"/>
		</g>
	</g>
	<g>
		<g>
			<path d="M177.246,80.977c-0.667-1.992-1.992-2.651-3.311-1.992l-22.512,4.636c-1.325,0.666-2.65,1.984-1.984,3.31
				c0.66,1.985,1.984,2.645,3.31,1.985l21.847-4.63C176.579,83.621,177.246,82.295,177.246,80.977z"/>
		</g>
	</g>
	<g>
		<g>
			<path fill="#858585" d="M135.531,70.38c12.582,5.295,22.512,4.636,29.133-2.644c3.97-3.976,6.62-7.287,7.946-12.581
				c-4.636-2.651-8.605-3.311-13.907-3.97C148.113,51.185,140.833,57.139,135.531,70.38z"/>
		</g>
	</g>
	<g>
		<g>
			<path d="M160.694,73.69c7.28-3.311,12.575-8.605,14.56-17.877c0-0.659,0-1.984-1.319-3.31c-7.286-3.97-15.892-5.295-23.171-2.651
				c-7.287,2.651-13.241,8.612-17.217,19.202c-1.326,1.326-0.66,2.651,0.666,3.311C144.803,77,153.408,77.667,160.694,73.69z
				 M158.043,69.054l-18.536-0.659c3.969-7.28,7.945-11.922,12.575-13.24l17.217,1.318C166.649,62.435,163.338,67.07,158.043,69.054
				z"/>
		</g>
	</g>
	<g>
		<g>
			<path d="M196.439,45.883c-1.324-1.985-1.983-1.985-3.969-1.985l-21.188,8.605c-1.325,0.66-1.325,1.991-1.325,3.31
				c1.325,1.991,1.985,2.651,3.976,1.326l20.521-7.946C196.439,48.534,196.439,47.208,196.439,45.883z"/>
		</g>
	</g>
	<g>
		<g>
			<path fill="#858585" d="M164.664,30.657c12.582,5.295,22.512,4.635,29.792-3.31c3.312-3.311,5.961-7.946,6.621-12.575
				c-3.972-2.65-9.271-3.976-13.901-3.311C176.579,12.122,169.299,18.741,164.664,30.657z"/>
		</g>
	</g>
	<g>
		<g>
			<path d="M202.4,12.122c-7.944-3.97-15.226-4.636-23.17-1.991c-7.946,2.65-13.241,9.271-17.217,19.861
				c-0.659,1.991,0,2.651,1.992,3.31l25.815,0.666c7.287-3.31,11.916-9.931,13.908-18.536
				C204.387,14.106,203.729,13.44,202.4,12.122z M197.768,16.091c-2.651,6.62-5.961,11.256-10.592,13.24l-18.542-0.659
				c3.311-6.621,7.287-11.922,12.581-13.241L197.768,16.091z"/>
		</g>
	</g>
	<g>
		<g>
			<path d="M224.248,4.842c-0.659-1.991-1.984-1.991-3.313-1.333l-20.52,8.612c-1.991,1.319-2.65,1.985-1.991,3.97
				c1.325,1.325,2.651,1.325,3.976,1.325l20.521-9.265C224.248,6.819,224.907,6.16,224.248,4.842z"/>
		</g>
	</g>
	<g>
		<g>
			<path fill="#858585" d="M128.911,204.774c12.581-5.295,18.542-13.9,17.876-23.832l-4.636-13.9l-11.25,7.939
				C123.616,182.927,123.616,192.858,128.911,204.774z"/>
		</g>
	</g>
	<g>
		<g>
			<path d="M126.926,206.099c0.667,1.325,1.985,1.985,3.977,1.325c9.265-4.635,15.885-10.59,17.87-18.542
				c1.326-4.629,1.326-10.59-0.659-15.885l-3.311-7.287c-0.66-1.319-1.985-1.319-3.311-1.319c-0.659,0-3.31,1.319-7.28,3.31
				c-4.636,3.311-7.945,7.28-9.93,12.582C120.971,187.563,122.291,196.168,126.926,206.099z M127.592,189.548l1.319-7.287
				c1.991-4.629,6.62-9.265,12.581-11.909l3.311,11.909l-0.66,5.302c-1.991,5.294-6.62,9.931-13.241,13.241L127.592,189.548z"/>
		</g>
	</g>
	<g>
		<g>
			<path d="M325.539,172.997l-3.969-0.666l-8.605,12.582c-5.302,12.582-5.962,27.807-3.311,47.668
				c1.983,15.226,6.621,31.777,13.899,49.653l7.28,24.499c2.65,8.604,2.65,17.869,2.65,26.481
				c-1.325,13.239-4.636,27.142-10.592,41.707c-3.309,9.931-5.961,17.877-5.961,23.171c0,4.637,1.985,12.576,5.296,23.172
				l4.637,26.482c1.325,9.93,0,17.217-3.972,23.172c-4.635,6.62-10.596,11.914-18.542,16.55c-7.28,4.637-15.226,7.945-23.171,9.267
				c-9.932,1.332-17.211,0-23.172-5.289c-15.227-11.923-23.831-23.173-23.831-32.442c0-4.636,1.984-7.946,5.296-11.256
				c7.944-6.621,14.565-9.933,19.86-8.605c4.636,1.319,7.946,5.295,11.256,11.249c3.312,8.612,2.649,13.906-1.983,17.218
				l-7.287,0.665l-6.621-3.977h-3.969c-1.324,0.667-1.324,2.646,0,3.313c2.65,3.311,5.961,5.294,9.932,6.619l10.589-1.984
				c7.287-4.635,8.612-12.58,3.312-24.496c-2.645-7.286-7.279-11.916-13.899-13.242c-7.28-1.984-16.554,1.326-25.157,9.932
				c-4.635,3.977-6.62,9.266-6.62,14.566c0.66,11.916,9.267,23.83,25.815,36.411c7.285,5.962,15.892,7.939,27.148,5.962
				c8.604-0.665,17.209-3.976,25.154-9.271c8.605-5.303,15.227-11.257,19.862-17.878c4.635-6.619,6.62-15.886,5.961-25.815
				l-5.961-28.474l-3.972-21.847c0-5.294,1.319-12.573,4.631-21.187c5.961-14.561,9.271-28.467,11.256-43.033
				c0.667-9.271,0-18.536-1.984-28.467l-8.604-25.156c-7.287-17.876-11.259-33.762-13.908-47.668
				c-1.984-18.536-1.318-33.103,2.649-44.358l7.28-11.915C326.205,175.642,326.205,174.322,325.539,172.997z"/>
		</g>
	</g>
</g>
<path id="PATH77" fill="none" stroke="#000000" stroke-width="3" stroke-miterlimit="100" d="M370.59,585.26H3.92V2.74h366.67
	V585.26L370.59,585.26z"/>
</svg>
