<?xml version="1.0" encoding="utf-8"?>
<!-- Generator: Adobe Illustrator 13.0.0, SVG Export Plug-In . SVG Version: 6.00 Build 14948)  -->
<!DOCTYPE svg PUBLIC "-//W3C//DTD SVG 1.1//EN" "http://www.w3.org/Graphics/SVG/1.1/DTD/svg11.dtd">
<svg version="1.1" id="圖層_1" xmlns="http://www.w3.org/2000/svg" xmlns:xlink="http://www.w3.org/1999/xlink" x="0px" y="0px"
	 width="372px" height="587px" viewBox="0 0 372 587" enable-background="new 0 0 372 587" xml:space="preserve">
<path id="PATH77" fill="none" stroke="#000000" stroke-width="3" stroke-miterlimit="100" d="M370.59,585.26H3.92V2.74h366.67
	V585.26L370.59,585.26z"/>
<g>
	<g>
		<g>
			<path d="M71.892,214.259c0-2.024-1.346-2.693-3.364-2.024c-1.347,0.677-2.021,2.024-1.347,3.365l13.456,40.368
				c11.439,28.936,22.875,51.138,35.661,66.611l4.034,0.671c0.674-1.34,0.674-2.687,0-4.034
				c-12.782-15.475-24.218-37.675-34.984-65.935L71.892,214.259z"/>
		</g>
	</g>
	<g>
		<g>
			<path fill="#9260C7" d="M72.565,224.352c2.017-6.728,2.69-13.456,3.364-20.185c0.67-12.786-3.364-18.167-12.113-16.15
				c-8.072,2.023-9.419,8.751-3.364,20.185C63.817,214.259,67.854,219.641,72.565,224.352z"/>
		</g>
	</g>
	<g>
		<g>
			<path d="M78.62,209.548c1.344-10.769,0-18.167-3.364-21.531c-3.364-2.694-7.401-4.034-11.439-2.694
				c-5.381,0.677-8.072,4.041-8.746,7.405c-2.69,8.075,2.018,18.837,15.474,33.64l2.69,1.347l2.021-2.024L78.62,209.548z
				 M73.909,202.144l-2.691,16.82c-7.401-9.416-11.439-17.49-11.439-22.872v-2.017c0.674-1.347,2.694-2.694,5.384-3.364l5.382,0.67
				C72.565,194.075,73.909,197.439,73.909,202.144z"/>
		</g>
	</g>
	<g>
		<g>
			<path fill="#9260C7" d="M53.051,254.628c6.059,2.694,12.113,4.704,19.515,5.381c-2.694-6.728-5.384-12.109-9.422-17.497
				c-8.072-10.762-14.126-12.779-19.511-6.051C38.252,243.189,41.616,249.917,53.051,254.628z"/>
		</g>
	</g>
	<g>
		<g>
			<path d="M51.708,229.733c-3.364,0-7.402,1.347-10.092,4.711c-3.364,4.035-4.038,7.398-3.364,12.109
				c3.364,7.405,14.799,12.779,33.64,16.82l2.691-1.347l0.673-2.694C67.181,241.172,59.779,231.08,51.708,229.733z M44.979,238.479
				c2.018-2.018,3.364-3.364,6.055-3.364c5.381,1.347,10.765,8.075,16.82,21.531c-14.13-3.364-22.875-7.405-24.222-12.109v-1.347
				C43.632,241.172,44.306,239.825,44.979,238.479z"/>
		</g>
	</g>
	<g>
		<g>
			<path d="M73.909,257.993c-2.018-1.347-3.364-0.67-3.364,0.67c-1.344,2.024-0.674,3.364,0.673,4.034l16.821,10.092
				c2.017,0.677,2.69,0.677,4.037-1.34c0.674-1.347,0-2.693-1.347-3.364L73.909,257.993z"/>
		</g>
	</g>
	<g>
		<g>
			<path fill="#9260C7" d="M65.837,298.36l20.185,2.019l-12.787-15.475c-9.418-9.421-16.146-10.092-20.185-2.023
				C48.343,290.285,53.051,295.667,65.837,298.36z"/>
		</g>
	</g>
	<g>
		<g>
			<path d="M50.361,281.541c-2.691,4.034-2.691,8.068,0,11.432c2.69,4.041,8.749,7.406,18.841,8.753l16.82,1.34l2.69-2.011v-2.694
				l-10.766-12.785c-7.401-7.398-13.457-10.763-18.167-10.763C55.071,274.813,52.381,277.506,50.361,281.541z M55.071,284.234
				c1.344-2.693,2.691-4.041,4.708-4.041c5.384,0,12.112,5.382,20.858,16.82c-14.13,0-23.548-2.687-26.239-6.729l-0.673-2.687
				L55.071,284.234z"/>
		</g>
	</g>
	<g>
		<g>
			<path d="M87.366,297.691c-2.018-0.678-3.364,0-4.038,2.01c0,1.354,0,2.694,2.021,3.364l18.838,5.388
				c1.347,1.341,2.69,0,3.364-1.347l-2.018-3.365L87.366,297.691z"/>
		</g>
	</g>
	<g>
		<g>
			<path d="M122.353,106.609c0-1.347-1.347-2.023-3.364-1.347c-1.346,0.677-2.02,1.347-1.346,3.364
				c9.418,22.201,18.167,50.461,26.913,84.102c16.82,65.264,24.895,125.816,24.222,181.658c0,1.348,0.673,2.688,2.69,2.688
				c1.347,0,2.691-1.34,2.691-2.688c1.347-55.842-7.399-116.394-24.893-183.676C140.517,157.741,131.771,129.488,122.353,106.609z"
				/>
		</g>
	</g>
	<g>
		<g>
			<path fill="#9260C7" d="M102.168,184.653l19.511,6.729l-9.418-18.837c-6.728-10.092-13.456-12.11-18.841-6.052
				C87.366,172.544,90.729,179.272,102.168,184.653z"/>
		</g>
	</g>
	<g>
		<g>
			<path d="M123.696,192.729l0.674-2.018c-6.728-18.843-14.13-28.259-22.202-30.276c-4.037-1.347-7.401,0-10.766,4.035
				c-3.364,4.034-4.037,8.075-2.69,11.439c2.017,8.075,13.456,13.456,32.293,18.167L123.696,192.729z M93.42,173.891v-1.347
				c0-1.347,0.674-2.688,2.021-4.711c2.018-1.34,3.364-2.017,5.381-2.017c4.711,0.676,10.092,8.075,16.146,21.53
				C102.842,183.983,95.44,179.272,93.42,173.891z"/>
		</g>
	</g>
	<g>
		<g>
			<path d="M123.026,189.364c-2.021-1.347-2.694-1.347-4.038,0.677c-0.673,0.67-0.673,2.688,1.344,4.035l30.277,18.837
				c1.347,1.347,2.694,1.347,3.364-0.677c1.347-1.34,0.673-2.687-0.67-4.034L123.026,189.364z"/>
		</g>
	</g>
	<g>
		<g>
			<path fill="#9260C7" d="M162.048,172.544l14.129-14.804c8.746-10.092,8.746-16.82,0-20.185
				c-7.401-3.364-12.112,1.347-14.129,14.804C161.375,158.411,161.375,165.139,162.048,172.544z"/>
		</g>
	</g>
	<g>
		<g>
			<path d="M185.597,143.614c-0.673-4.034-3.364-6.728-8.075-8.075h-11.436c-6.728,5.381-8.749,17.497-6.728,37.005l2.017,2.017
				l2.691-0.67l12.112-11.439C182.906,155.047,185.597,148.996,185.597,143.614z M169.45,140.25c1.344-1.347,2.691-1.347,6.055,0
				l4.038,4.035v1.347c0,4.71-4.711,11.438-14.803,20.861l-0.673-4.717C164.065,150.342,165.413,142.268,169.45,140.25z"/>
		</g>
	</g>
	<g>
		<g>
			<path d="M163.395,169.856c-1.347-0.676-2.694-0.676-4.038,0.67l-14.129,23.548c0,1.34,0,2.693,1.347,3.364l4.034-0.67
				l14.13-22.877C165.413,172.544,165.413,170.527,163.395,169.856z"/>
		</g>
	</g>
	<g>
		<g>
			<path fill="#9260C7" d="M95.44,136.886l18.837,6.728c-2.017-6.728-4.708-12.786-8.745-18.167
				c-6.728-11.439-13.457-13.457-18.841-6.729C80.637,125.447,84.001,130.828,95.44,136.886z"/>
		</g>
	</g>
	<g>
		<g>
			<path d="M84.675,116.702c-3.364,4.034-4.038,7.398-2.691,10.763c2.018,8.075,13.457,14.803,32.294,18.844l2.69-0.677l0.674-2.688
				l-6.728-15.48c-5.381-8.746-10.092-14.127-15.474-14.796C92.076,111.991,88.039,113.337,84.675,116.702z M86.692,125.447
				c0-2.018,0.674-3.364,2.021-5.382c2.017-1.347,3.364-2.693,5.381-2.693c4.711,1.347,10.092,8.752,16.146,22.208
				c-14.126-4.041-21.528-8.752-23.548-13.456V125.447z"/>
		</g>
	</g>
	<g>
		<g>
			<path d="M116.298,140.92c-2.021-0.67-2.694-0.67-4.038,1.347c-0.673,1.347-0.673,2.688,1.343,3.364l22.205,14.803l4.037-0.67
				c1.344-1.353,0.67-2.694-1.347-4.04L116.298,140.92z"/>
		</g>
	</g>
	<g>
		<g>
			<path fill="#9260C7" d="M144.555,130.158l13.456-14.803c7.402-11.439,6.729-18.167-1.344-20.861
				c-8.075-2.688-12.786,2.023-14.129,15.479C142.537,116.032,143.21,123.43,144.555,130.158z"/>
		</g>
	</g>
	<g>
		<g>
			<path d="M165.413,99.881c-0.674-3.364-3.364-6.728-8.076-8.075c-5.381-1.347-8.745-1.347-11.436,1.347
				c-4.038,3.364-5.385,10.092-5.385,20.184l1.347,16.82l1.347,2.018h2.691l11.436-12.11
				C164.065,111.991,166.085,105.263,165.413,99.881z M145.228,114.008c0-8.745,2.017-14.126,4.037-16.82h6.055
				c3.364,1.347,4.71,2.693,4.71,4.034l0.67,0.677c0,5.381-5.381,12.779-14.8,22.201L145.228,114.008z"/>
		</g>
	</g>
	<g>
		<g>
			<path d="M145.228,127.464c-1.347-0.67-2.691,0-3.364,1.347l-9.419,18.167c-1.347,2.017-1.347,3.364,0.674,3.364
				c1.344,1.341,2.69,0.67,4.034-1.347l9.422-18.167C147.918,130.158,147.245,128.811,145.228,127.464z"/>
		</g>
	</g>
	<g>
		<g>
			<path fill="#9260C7" d="M122.353,111.991l1.344-20.184c0-13.456-4.708-18.838-12.782-15.473
				c-8.746,2.017-8.746,8.745-2.017,20.184L122.353,111.991z"/>
		</g>
	</g>
	<g>
		<g>
			<path d="M120.332,114.008h2.021l2.018-2.017c3.364-18.837,2.69-31.624-3.364-37.004c-2.69-2.018-6.728-3.364-10.766-2.018
				c-4.708,2.018-8.072,4.705-8.745,8.746C100.148,89.79,105.533,99.881,120.332,114.008z M110.914,78.351l6.728,1.347
				c2.02,2.017,3.364,6.728,3.364,14.126l-0.674,12.786c-9.418-10.092-13.456-17.49-13.456-22.878v-0.67
				C107.55,80.367,108.897,79.697,110.914,78.351z"/>
		</g>
	</g>
	<g>
		<g>
			<path fill="#9260C7" d="M112.935,238.479l-14.13,7.398c5.381,5.388,18.164,12.786,36.331,22.208
				c-0.673,13.457,0.673,25.566,6.055,35.657c10.766-6.728,20.184-16.819,29.603-28.929c8.075,6.058,21.532,10.092,40.369,12.109
				c-2.018-8.745-4.708-16.821-8.746-26.235l-6.054-10.769c5.381-6.052,9.419-14.803,12.782-25.566l3.365-14.803
				c-6.056,0-13.457,2.018-23.55,5.381l-12.109,4.711c-2.693-6.728-8.075-14.133-15.477-22.202l-10.092-10.092
				c-5.381,6.058-8.745,15.474-12.109,27.583l-2.021,16.821C131.098,231.75,123.696,234.444,112.935,238.479z"/>
		</g>
	</g>
	<g>
		<g>
			<path d="M133.789,228.386c-6.054,1.347-13.457,3.364-22.875,8.075l-13.456,6.728c-1.344,0-2.018,1.347-2.018,2.018v0.67
				l1.344,2.024c6.728,6.728,18.167,14.126,34.987,22.201l-0.673,3.364c0,11.439,2.69,22.202,6.728,31.623l2.69,2.019h2.694
				c9.419-6.728,18.838-16.144,28.256-28.259c9.419,6.057,22.205,9.422,39.025,11.438l2.69-0.676l1.344-2.688v-0.677
				c-2.017-12.103-6.729-24.219-14.127-36.328c8.072-10.092,12.783-23.549,15.474-39.692v-0.677l-0.673-2.017l-2.69-1.347
				c-8.076,0-19.512,3.364-33.641,8.746l-16.147-20.854l-8.749-9.422l-2.691-0.669l-2.69,0.669
				C141.864,194.075,136.483,208.872,133.789,228.386z M137.152,235.114l3.364-3.364l2.021-14.127
				c2.691-10.092,6.055-18.844,9.419-24.895c10.092,8.745,17.494,18.167,22.202,28.259c0.673,2.017,2.02,2.017,4.037,2.017
				l10.092-4.041c7.401-2.688,14.129-4.705,20.185-5.375c-3.364,15.467-8.072,26.236-14.13,33.641l-1.344,2.688l0.674,1.347
				l5.381,10.091c3.363,7.399,6.055,14.127,7.401,21.525c-16.819-2.688-27.585-6.051-34.313-11.433h-2.691
				c-0.673,0-1.347,0-1.347,0.67c-8.072,10.762-16.146,19.514-25.565,26.242c-2.691-7.397-4.711-16.149-4.711-25.572l0.673-4.704
				l0,0l-2.017-3.364c-14.13-6.728-24.896-13.456-32.297-18.167C120.332,238.479,131.098,235.114,137.152,235.114z"/>
		</g>
	</g>
	<g>
		<g>
			<path d="M183.58,249.917h-4.038c-6.728,4.711-12.783,6.728-19.511,7.405l-8.075-2.023c-2.018-0.67-3.364,0-4.038,1.347
				c0,2.017,0,3.364,1.347,4.041l10.092,2.01c8.072-0.67,16.147-3.364,23.549-9.415C184.25,253.281,184.923,251.265,183.58,249.917z
				"/>
		</g>
	</g>
	<g>
		<g>
			<path d="M148.592,239.148l-3.364-0.67c-0.673,1.347-1.347,2.023,0,2.694l4.037,7.398l6.055,11.438
				c0,1.347,1.346,2.017,2.69,1.347c1.347,0,1.347-1.347,1.347-2.693l-6.728-12.109L148.592,239.148z"/>
		</g>
	</g>
	<g>
		<g>
			<path d="M164.065,234.444l-2.691-1.347c-2.017,0-2.017,0.677-2.017,2.018l3.364,24.895l2.691,1.347
				c2.017,0,2.017-1.347,2.017-2.693L164.065,234.444z"/>
		</g>
	</g>
	<g>
		<g>
			<path d="M175.504,235.114c-0.673-0.67-1.347,0-2.017,1.347c-2.021,4.711-2.694,11.439-2.021,20.185
				c0,1.347,0.674,2.017,2.021,2.017c2.017,0,2.017-0.67,2.017-2.017c-0.673-8.745,0-14.803,2.017-18.837
				C177.521,236.461,177.521,235.114,175.504,235.114z"/>
		</g>
	</g>
	<g>
		<g>
			<path d="M276.426,100.552c0-1.34-1.347-2.017-3.363-2.017c-1.348,0.677-2.691,1.346-2.017,3.364
				c2.69,17.497,4.706,40.369,4.706,67.958c0.674,55.166-7.4,110.337-22.874,163.485c0,1.354,0,3.365,2.018,3.365l3.362-2.012
				c15.479-53.825,23.55-108.327,23.55-164.839C281.137,141.591,279.79,118.719,276.426,100.552z"/>
		</g>
	</g>
	<g>
		<g>
			<path fill="#9260C7" d="M260.952,128.811l-8.074-18.837c-6.055-11.438-12.11-13.456-18.167-8.075
				c-6.056,6.728-3.365,12.779,7.4,18.837L260.952,128.811z"/>
		</g>
	</g>
	<g>
		<g>
			<path d="M256.914,112.668c-4.036-9.422-8.747-14.133-14.129-16.15c-3.364-0.67-6.728,0.67-10.092,3.364
				c-3.364,3.364-4.711,7.399-4.038,11.433c1.347,7.405,12.783,14.133,31.624,20.185l2.69-0.67v-2.694L256.914,112.668z
				 M234.04,109.974l-0.673-1.347c0-1.347,1.344-2.687,2.69-4.711c2.016-1.34,3.363-2.017,6.054-2.017
				c4.712,1.347,9.419,8.745,14.13,22.201C242.785,119.396,235.384,114.678,234.04,109.974z"/>
		</g>
	</g>
	<g>
		<g>
			<path d="M279.79,147.648c2.018-0.67,2.018-2.017,0-3.364l-16.82-17.491c-1.347-1.347-2.69-1.347-4.037,0
				c-0.675,2.017-0.675,3.364,0,4.034l17.493,16.82C277.099,148.996,278.442,148.996,279.79,147.648z"/>
		</g>
	</g>
	<g>
		<g>
			<path fill="#9260C7" d="M292.574,136.886l16.819-11.439c10.091-8.746,11.438-14.804,4.037-20.185
				c-6.728-4.711-12.782-1.347-16.82,11.439C293.92,122.76,293.247,129.488,292.574,136.886z"/>
		</g>
	</g>
	<g>
		<g>
			<path d="M320.832,113.337c0-4.033-2.021-7.397-5.385-10.092c-4.707-2.694-8.071-3.364-12.109-1.347
				c-6.728,3.364-11.438,14.803-13.455,34.317l0.673,2.687h2.691C310.74,130.158,320.159,122.083,320.832,113.337z M312.084,107.95
				l3.363,4.718v0.669c-0.67,4.705-7.397,10.763-19.511,18.161c2.021-14.797,6.055-22.872,10.092-24.889
				C307.376,105.263,310.066,106.609,312.084,107.95z"/>
		</g>
	</g>
	<g>
		<g>
			<path d="M294.593,138.227c1.344-1.34,0.671-2.687-0.673-4.034c-1.346-0.67-3.364-0.67-4.037,1.347l-13.457,19.508
				c-1.347,2.023-0.674,2.693,0.673,4.041c1.344,0.676,2.691,0.676,3.365-1.347L294.593,138.227z"/>
		</g>
	</g>
	<g>
		<g>
			<path fill="#9260C7" d="M306.028,173.221l16.821-10.769c10.091-8.746,11.438-15.474,4.038-20.185
				c-6.729-5.381-12.784-1.347-16.821,11.439C307.376,159.088,306.703,165.816,306.028,173.221z"/>
		</g>
	</g>
	<g>
		<g>
			<path d="M334.288,150.342c0-4.71-2.021-8.075-5.384-10.092c-4.035-3.364-8.072-3.364-12.11-2.023
				c-6.728,4.041-11.438,15.48-13.456,34.318l0.674,2.687l2.691,0.677C324.196,167.163,333.615,158.411,334.288,150.342z
				 M319.484,143.614l6.056,0.67l3.364,4.711v0.677c0,4.705-6.729,10.762-19.511,18.161
				C311.413,153.707,314.777,145.632,319.484,143.614z"/>
		</g>
	</g>
	<g>
		<g>
			<path d="M307.376,171.197c-0.673-0.67-2.021-0.67-3.364,0l-28.26,28.936c-1.343,1.341-1.343,2.688,0.674,4.034
				c0.673,0.67,2.691,0.67,3.364,0l27.586-29.605C309.394,173.891,309.394,172.544,307.376,171.197z"/>
		</g>
	</g>
	<g>
		<g>
			<path fill="#9260C7" d="M229.329,167.163l19.511,7.399c-2.017-7.399-4.707-13.457-8.072-18.837
				c-6.728-11.439-12.785-13.457-18.84-6.729C215.873,155.047,218.563,161.105,229.329,167.163z"/>
		</g>
	</g>
	<g>
		<g>
			<path d="M230.002,142.268c-4.037,0-7.401,1.347-10.765,4.711c-3.364,3.364-4.037,6.728-3.364,10.762
				c2.017,4.711,6.728,9.422,16.82,13.457l15.474,6.058l2.02-1.347l1.344-2.017C245.477,155.047,238.073,144.285,230.002,142.268z
				 M223.274,150.342c2.69-2.694,4.037-3.364,6.055-2.694c4.711,1.347,10.092,9.422,14.804,22.878
				c-14.131-4.71-21.532-9.422-22.879-14.803v-0.677C221.254,153.707,221.928,152.36,223.274,150.342z"/>
		</g>
	</g>
	<g>
		<g>
			<path d="M280.464,196.092c1.344-0.676,0.673-2.017-0.674-3.363l-29.604-20.184h-4.037c-0.673,2.017-0.673,3.364,0.674,4.04
				l29.603,20.854C277.773,198.109,279.117,198.109,280.464,196.092z"/>
		</g>
	</g>
	<g>
		<g>
			<path fill="#9260C7" d="M274.409,107.28c2.689-6.729,4.708-13.457,5.381-20.185c2.018-12.786-1.348-18.837-10.092-17.49
				c-8.746,1.34-10.093,8.068-5.381,20.185C266.334,95.171,269.698,101.899,274.409,107.28z"/>
		</g>
	</g>
	<g>
		<g>
			<path d="M277.099,108.627c6.056-19.507,7.403-32.293,2.691-37.682c-2.017-3.364-6.054-4.704-10.766-4.034
				c-5.382,1.347-8.072,2.694-9.419,6.728c-3.364,7.398,0.674,19.514,12.784,34.988l2.689,1.347L277.099,108.627z M275.752,74.31
				l1.347,7.405c0,5.381-0.673,11.439-3.362,18.837c-6.729-9.422-10.094-16.82-10.094-22.201l1.344-2.688
				c0.675-2.024,2.021-2.694,4.712-2.694C273.063,72.299,275.079,72.969,275.752,74.31z"/>
		</g>
	</g>
	<g>
		<g>
			<path fill="#9260C7" d="M318.141,212.913h-13.456c-1.347-9.416-4.71-18.837-9.421-26.913l-7.398-10.769
				c-8.075,7.405-14.803,19.514-21.531,35.664l-25.566,2.017l-12.785,4.711c4.038,7.398,12.785,15.473,26.242,25.565
				c-3.363,11.439-5.385,23.548-6.058,36.328c8.074-2.01,20.857-9.416,37.679-22.871c3.363,6.728,9.418,12.109,19.51,16.82
				l12.785,3.364c1.344-6.729,1.344-14.803,0.671-23.548l-2.018-11.439c9.419-6.058,16.821-14.126,24.223-24.219
				C336.306,214.93,328.234,214.259,318.141,212.913z"/>
		</g>
	</g>
	<g>
		<g>
			<path d="M344.381,216.276l-2.021-2.017c-6.055-2.693-18.164-4.034-34.984-4.711c-1.348-9.416-4.711-18.167-10.093-25.565
				l-6.728-10.763l-2.02-1.353c-1.344,0-2.018,0.677-2.69,0.677c-7.403,7.404-14.8,18.837-22.203,34.316
				c-6.729-0.677-14.803,0.67-24.222,3.364l-13.456,4.034l-1.348,2.017v1.347v1.34c4.712,7.405,13.456,16.15,25.569,25.572
				c-3.363,10.763-4.71,22.201-5.385,34.311v0.669l1.348,2.694h2.69c7.401-1.341,19.512-8.069,36.331-20.855
				c6.729,10.092,17.494,16.15,32.297,18.837h2.691l1.347-2.017l1.344-14.804l-2.018-20.184
				c8.746-6.051,16.146-14.133,22.875-23.548l0.674-2.017V216.276z M301.321,212.913c0,2.017,1.344,3.364,3.363,3.364h10.763
				l20.185,3.364c-6.728,8.075-13.456,14.803-20.185,19.508l-2.017,2.694v0.67l1.347,6.059l1.344,14.802l-0.674,10.092
				c-14.126-4.71-22.873-10.092-26.238-18.167l-2.69-2.018l-2.691,1.347c-13.456,9.421-24.222,16.15-32.297,20.184
				c1.348-11.439,3.365-21.531,5.384-30.276l0.675-1.347l-1.348-2.687c-10.092-7.405-18.168-14.81-23.548-21.538
				c13.456-4.705,24.221-6.051,32.968-4.705c1.347,0,3.363-1.347,4.037-2.693c5.381-12.786,11.438-23.549,18.167-30.947
				C295.264,190.711,299.301,201.474,301.321,212.913z"/>
		</g>
	</g>
	<g>
		<g>
			<path d="M304.012,237.808c-0.674-1.347-1.347-2.024-3.363-1.347c-7.401,3.364-14.13,4.041-20.858,2.688l-7.4-4.034l-4.038,0.67
				c-1.344,0.677-1.344,2.024,0.673,4.041l9.418,4.041c7.403,2.011,15.478,1.341,24.896-2.693
				C304.685,240.502,305.355,239.825,304.012,237.808z"/>
		</g>
	</g>
	<g>
		<g>
			<path d="M275.752,227.045l-2.689-8.751c0-0.67-1.348-1.341-2.691-0.67c-0.673,0-1.347,0.67-0.673,2.017l2.017,8.075l3.364,13.457
				c0,1.34,0.673,2.017,1.347,1.34l2.691-2.01L275.752,227.045z"/>
		</g>
	</g>
	<g>
		<g>
			<path d="M286.519,217.624l-2.017,2.017l-2.021,22.202c0,1.347,0.674,2.694,2.021,2.694l2.017-2.694l2.018-22.202L286.519,217.624
				z"/>
		</g>
	</g>
	<g>
		<g>
			<path d="M300.648,221.658h-2.691c-2.693,4.71-5.383,10.762-7.401,19.514c0,2.017,0,2.017,2.019,2.017l2.689-1.347l1.347-6.728
				c1.347-5.381,3.364-8.746,4.711-10.763C302.665,223.004,301.991,221.658,300.648,221.658z"/>
		</g>
	</g>
	<g>
		<g>
			<path fill="#858585" d="M87.366,297.691c-13.457,2.688-24.223,9.415-32.294,19.507c-2.69,3.365-4.71,7.404-5.384,11.439
				l-3.364,10.092l-8.071,11.434c-3.364,4.04-4.711,8.081-5.384,11.444l-1.344,16.145c0,6.728-0.674,11.438-1.347,13.456
				c-2.017,4.041-3.364,16.144-4.038,34.987l23.548-5.388c10.766-4.034,18.84-8.739,26.912-13.456l15.477-1.341
				c8.072,1.341,14.13-0.671,18.838-4.034c4.71-3.364,8.074-9.422,11.438-17.497l3.364-10.769l36.332-30.276
				c-0.674-5.375-3.364-9.415-7.402-13.456c-8.072-9.415-18.164-12.78-30.276-12.104l-12.109-10.769
				C102.842,299.701,94.767,297.014,87.366,297.691z"/>
		</g>
	</g>
	<g>
		<g>
			<path d="M87.366,294.327c-14.8,2.687-26.239,9.414-34.984,20.854c-2.694,4.704-5.385,8.744-6.058,13.456l-2.691,8.745
				l-5.38,7.404c-5.384,6.729-8.075,12.78-8.749,16.82l-0.67,10.763c0,10.092-1.347,15.473-2.021,18.16
				c-1.344,2.024-2.017,8.082-3.364,18.175l-0.673,17.49l0.673,2.017l3.364,1.348l23.548-5.389
				c10.766-4.704,20.185-9.415,28.259-14.796h10.092c10.766,1.34,18.838-0.67,23.548-4.035c8.071-6.058,13.456-15.479,16.146-30.275
				l36.332-29.607l0.674-2.022v-1.341c-1.347-4.711-4.038-10.093-8.076-14.803c-8.745-9.416-19.511-13.456-31.62-12.78
				l-14.803-12.785C102.168,295.667,94.094,293.65,87.366,294.327z M121.006,320.563c1.347,0.676,2.021,0.676,3.364,0.676
				c10.092-0.676,17.494,2.011,24.222,7.398c4.711,3.363,7.402,8.745,10.092,13.456l-35.658,28.93l-0.674,2.017l-3.364,10.762
				c-2.69,7.406-6.054,12.788-10.091,15.48c-4.038,3.364-10.092,4.704-18.841,3.364l-14.8,1.34
				c-7.401,4.719-16.82,9.423-26.913,13.456l-18.84,4.719c0.673-17.497,2.021-26.912,3.364-29.606
				c1.346-2.693,2.02-8.753,2.693-19.515l0.67-10.762c0.673-3.364,2.694-7.398,7.401-13.456l5.385-8.075l4.034-10.093
				c0.674-4.711,2.021-8.075,4.711-10.769c7.401-10.092,17.494-16.145,30.277-18.831c5.381-0.676,12.109,1.341,19.511,6.728
				L121.006,320.563z"/>
		</g>
	</g>
	<g>
		<g>
			<path d="M138.5,319.216l-1.347-2.018c-22.875,3.365-45.75,19.509-68.625,47.773c-11.439,14.796-21.531,29.6-28.933,45.074
				c-1.343,1.347-0.67,2.022,0.673,2.693c1.347,0,2.021,0,2.69-1.347c6.729-13.456,16.15-27.591,27.586-42.386
				c22.875-28.26,45.079-44.404,66.607-47.768L138.5,319.216z"/>
		</g>
	</g>
	<g>
		<g>
			<path d="M104.186,332.672c-8.746-6.729-17.494-8.746-28.256-6.059c-5.384,0.678-10.092,2.694-14.13,5.388
				c-0.673,1.341-0.673,2.019,0,2.694l2.691,0.671l12.783-5.388c8.749-2.012,16.82,0,24.222,5.388l6.055,12.108
				c2.02,10.093,0,20.185-5.382,30.953c0,1.34,0,2.687,1.344,2.687c0.674,0.678,2.021,0,2.021-0.676
				c6.728-12.103,8.745-23.547,5.381-34.311L104.186,332.672z"/>
		</g>
	</g>
	<g>
		<g>
			<path d="M88.039,364.295l-6.729-10.092c-6.055-4.04-12.783-5.381-20.857-3.364c-5.382,2.018-8.746,3.364-10.766,6.053
				c-1.344,0.676-1.344,1.353-0.67,2.693l2.69,0.669c2.017-2.01,5.381-3.362,8.746-5.374c7.401-2.023,13.456-0.677,18.167,2.688
				l6.055,8.074c2.691,7.398,1.347,15.473-2.691,25.566c-0.673,1.347,0,2.688,0.674,3.363c1.344,0.678,2.69,0,2.69-1.347
				C90.729,381.792,91.403,372.37,88.039,364.295z"/>
		</g>
	</g>
	<g>
		<g>
			<path d="M63.143,379.099c-2.69-2.693-4.708-4.034-8.072-4.712c-2.021,0-5.384,0.678-8.075,3.365l-4.038,3.362
				c-1.343,0.678-1.343,1.348,0,2.688c0.673,0.678,2.02,0.678,2.694,0l2.69-2.688c2.691-2.016,5.381-2.687,6.728-2.687l4.708,2.687
				l0.674,3.365l1.346,8.075c0,3.364-0.673,6.728-2.02,8.744l-0.67,1.348l0.67,2.018l3.364-0.678
				c2.694-4.704,4.038-9.415,2.694-16.144L63.143,379.099z"/>
		</g>
	</g>
	<g>
		<g>
			<path fill="#858585" d="M338.996,317.198c0.673-8.075,0.673-13.457,0-16.819c-4.034-13.457-12.108-21.532-23.549-22.202
				c-6.054,0-12.782,2.017-21.527,6.058c-8.074,4.035-12.112,6.729-13.456,6.729l-10.093-2.023l-14.803,1.346
				c-6.055,2.018-10.092,5.382-13.457,10.094c-2.69,4.04-4.038,8.074-4.038,13.456c-0.669,4.71,1.348,9.415,4.712,12.108
				l6.729,8.076l1.348,9.415l2.017,8.751c2.69,4.035,6.055,8.745,10.765,12.786l12.783,7.398c7.401,2.694,14.13,8.068,20.185,14.797
				c4.038,5.388,13.456,7.404,27.586,5.388c4.038-0.671,9.419,0.67,16.82,3.364c2.018-8.076,2.69-14.127,2.018-18.845
				c0-2.688,0.673-6.051,2.02-10.762l2.019-11.433c0-3.364-0.675-6.729-3.365-10.77l-5.382-10.769
				C337.652,330.654,337.652,325.943,338.996,317.198z"/>
		</g>
	</g>
	<g>
		<g>
			<path d="M280.464,287.599l-4.712-0.677c-7.4-2.688-14.129-2.688-21.527,0c-6.058,2.688-11.439,6.051-14.804,11.438
				c-3.363,4.705-4.71,9.422-4.71,15.475c-0.671,4.04,0.673,7.404,2.02,10.091l5.381,6.729l4.038,4.712l0.674,6.728l3.363,12.109
				c2.691,4.041,6.055,8.075,11.437,13.456l14.129,8.075c6.729,2.693,12.784,6.728,17.495,13.456
				c5.38,6.059,15.473,8.746,31.622,6.729c4.035-0.67,8.746,0.671,15.475,3.363l2.69-0.67l1.347-1.354
				c2.017-8.737,2.691-15.466,2.017-20.184c0-2.688,0.675-6.051,2.021-10.092l2.016-12.779c0-2.688-1.346-7.405-4.71-14.133
				l-4.708-8.069l0.674-13.456c1.344-8.751,1.344-15.479,0.67-18.844c-4.708-15.467-13.456-23.548-26.913-24.889
				c-7.397,0-16.82,2.694-28.255,9.422L280.464,287.599z M335.632,301.055l0.674,5.374l-2.018,22.209l0.674,5.382l4.707,9.415
				c3.365,4.04,4.038,8.081,4.038,11.445l-1.347,10.092c-2.017,4.035-2.691,7.398-2.691,10.763v4.033l-0.673,11.44l-15.474-2.018
				c-12.782,2.018-20.857,0.671-24.222-4.035c-6.727-8.081-14.13-13.455-22.202-15.479l-10.765-7.398
				c-4.711-4.034-8.076-8.075-10.093-11.439c-0.673-2.688-2.017-6.052-2.689-9.415l-0.674-8.082l-6.729-8.069l-3.364-4.709
				c-1.347-2.019-2.018-4.041-1.347-6.729c0-10.094,5.385-16.821,14.803-20.185c5.382-2.688,10.767-2.688,17.495,0l6.728,0.677
				l10.092-4.042c11.436-6.728,19.511-8.744,24.222-8.744C325.54,282.211,332.268,289.609,335.632,301.055z"/>
		</g>
	</g>
	<g>
		<g>
			<path d="M281.808,289.609c-1.344-1.34-2.018-1.34-2.69,0c-0.675,0.676-0.675,2.023,0,3.363l17.493,21.538
				c12.783,18.831,22.201,39.016,26.912,61.224c0.674,1.34,2.018,2.018,3.365,1.34c0.673,0,1.347-1.34,0.673-2.688
				c-4.711-22.201-14.13-43.056-27.586-62.57L281.808,289.609z"/>
		</g>
	</g>
	<g>
		<g>
			<path d="M314.777,298.36l-16.82,0.671l-8.748,3.364c-11.436,4.033-18.163,10.762-20.185,21.53c-1.344,6.053-1.344,10.77,0,16.145
				c0,0.677,0.674,1.354,2.69,1.354c1.348-0.677,1.348-1.354,1.348-2.694c-1.348-4.71-1.348-8.751-0.673-14.127
				c2.02-9.421,8.074-15.479,18.166-18.174l8.071-3.363l14.804-0.67c4.037,1.346,6.729,4.033,9.419,8.074l2.69,0.678
				c1.348,0,1.348-0.678,0.673-2.694C323.522,303.741,320.159,300.379,314.777,298.36z"/>
		</g>
	</g>
	<g>
		<g>
			<path d="M312.756,317.875h-10.765c-9.417,4.035-14.799,12.104-15.473,22.195c0,4.717,0,10.093,1.347,14.133
				c0.671,1.348,1.344,1.348,2.69,1.348c1.344-0.671,2.019-1.348,1.344-2.694c-1.344-4.034-2.017-8.069-1.344-12.109
				c0.674-9.416,4.708-15.475,12.782-19.508l8.746,0.671c6.057,1.34,10.766,4.703,13.456,9.421c0.673,1.341,1.348,2.011,2.021,0.67
				c2.018-0.67,2.018-1.347,1.344-2.693C325.54,323.25,320.159,319.886,312.756,317.875z"/>
		</g>
	</g>
	<g>
		<g>
			<path d="M323.522,344.11l-8.075-0.676c-4.707,1.353-7.397,4.04-9.419,8.751c-3.363,6.059-3.363,14.127,0,22.879
				c0.675,2.01,1.348,2.01,2.691,2.01c1.347-0.669,2.021-2.01,1.347-2.688c-3.363-8.745-3.363-15.473-0.673-20.184
				c1.347-3.364,4.037-5.381,7.4-6.729h6.056c4.038,2.018,7.401,6.052,10.766,11.439l2.69,1.34c1.347,0,1.347-1.34,0.673-2.687
				C333.615,350.163,328.904,345.457,323.522,344.11z"/>
		</g>
	</g>
	<g>
		<g>
			<path fill="#858585" d="M247.496,310.47c-7.401-3.363-16.15-3.363-26.242-0.676c-6.054,1.354-13.456,6.729-21.528,14.132
				c-7.4,6.729-13.456,10.77-17.493,10.77l-38.352,2.688c-12.109,3.364-20.854,10.092-26.239,19.509
				c-4.038,7.403-5.381,15.479-3.364,24.223c1.347,6.053,4.038,10.094,8.075,13.457l8.072,8.746l4.038,16.819
				c2.69,7.399,6.728,12.116,10.766,15.481c4.037,2.687,10.092,4.033,16.82,4.703c6.054,0.67,9.418,1.347,10.766,2.694l7.401,10.763
				c2.691,4.71,5.381,8.074,8.072,9.422c4.711,2.693,21.531,8.745,51.134,16.149c2.69-8.752,6.729-16.149,12.109-22.878
				l8.749-10.093c2.69-3.363,4.038-6.728,3.363-9.421l-2.02-15.475c-0.671-4.041,0-8.744,2.02-13.456l8.072-14.132
				c2.021-5.375,3.364-9.416,3.364-14.797c-0.67-4.034-2.017-8.753-5.381-14.127l-4.712-12.786v-11.438
				c0-5.381,0-9.416-1.344-13.456C260.952,319.216,255.568,313.157,247.496,310.47z"/>
		</g>
	</g>
	<g>
		<g>
			<path d="M220.584,306.429c-7.401,2.024-14.803,7.406-22.877,15.481c-6.729,6.057-12.11,9.421-15.474,9.421l-39.696,2.688
				c-10.092,3.363-18.841,8.744-24.895,16.819c-4.708,6.729-7.402,14.133-7.402,22.872l0.674,8.081
				c2.021,6.729,5.384,12.104,10.092,16.145l6.055,6.728l2.02,8.745l5.382,12.786c2.021,5.382,4.71,9.423,9.418,12.109
				c4.711,3.363,11.439,5.381,18.841,5.381c4.708,0.67,7.401,1.347,8.072,2.023l5.384,7.398c3.364,6.728,6.729,10.762,10.092,12.786
				c5.381,2.688,22.202,8.738,51.803,16.82c2.021,0.671,4.038,0,4.712-2.023c2.691-8.745,6.729-15.474,11.439-21.525l2.689-3.364
				l8.072-9.422c1.348-3.363,2.694-6.728,2.021-10.092l-1.347-10.763l-0.675-7.404c0-2.687,0.675-5.381,1.348-8.074l3.364-6.06
				c6.054-10.762,8.744-18.831,8.744-24.888c-0.669-4.712-2.69-10.763-6.053-17.491c-2.691-4.04-4.038-7.404-4.038-9.422v-8.751
				c0-8.068,0-12.78-1.344-16.821c-3.365-9.415-8.75-15.466-17.494-19.507L220.584,306.429z M222.601,313.157
				c8.076-2.688,16.147-2.688,22.201,0c8.076,2.024,13.456,7.406,15.478,15.48l1.344,8.069v16.149l4.711,11.438
				c3.364,6.729,5.381,11.439,5.381,14.804l0,0l-2.017,10.763l-5.381,10.762l-4.038,6.729c-1.347,4.041-2.69,8.082-2.69,10.769
				l1.344,9.416l1.347,10.091v0.678l-8.074,13.456l-2.691,3.363c-5.381,5.382-9.419,12.11-12.783,20.185l-47.096-15.474
				l-7.402-10.091l-6.729-8.753c-2.69-2.687-6.728-3.364-12.783-3.364c-6.728-0.669-11.439-2.687-14.804-4.703
				c-3.363-2.024-6.054-5.388-8.072-9.422l-4.037-12.109l-2.69-9.416c-0.674-3.364-4.038-6.058-7.402-9.422
				c-4.038-2.693-6.729-7.399-8.075-12.116l-0.674-6.728c0-7.398,2.02-13.457,6.728-19.508c4.711-6.052,12.113-10.769,20.858-13.456
				l37.678-2.688l0,0c6.054,0,12.783-4.04,20.183-11.446C209.818,319.216,216.547,314.511,222.601,313.157z"/>
		</g>
	</g>
	<g>
		<g>
			<path d="M188.287,333.342c-1.344-2.011-2.69-2.011-3.364-1.341c-0.673,1.341-1.344,2.019,0,3.365l16.146,31.616
				c11.44,26.913,20.185,55.179,25.569,85.455c0.673,2.01,2.017,2.01,2.69,2.01l2.017-2.687
				c-6.054-30.277-14.799-59.877-26.912-86.789L188.287,333.342z"/>
		</g>
	</g>
	<g>
		<g>
			<path d="M229.329,334.02c-7.401-0.678-15.473,0-23.548,4.04l-12.783,7.397c-21.531,2.018-37.004,8.746-45.08,20.185
				c-4.037,6.729-6.728,13.457-6.728,21.525l0.673,6.058c0,1.347,0.673,1.347,2.017,1.347l1.347-2.688
				c-1.347-8.082,0-16.149,6.054-23.548c7.402-10.769,22.205-16.82,43.06-18.844l0.674-0.67l10.766-6.729
				c8.745-4.034,16.146-4.711,22.874-4.034c8.075,2.011,14.803,7.397,20.858,17.491c0.673,1.341,2.017,1.341,2.691,0.67l0.673-2.694
				C246.823,342.094,239.421,336.036,229.329,334.02z"/>
		</g>
	</g>
	<g>
		<g>
			<path d="M254.896,385.155l0.673-3.363c-10.092-14.133-22.201-20.861-36.331-21.538l-17.494,4.041
				c-14.13,2.018-24.222,8.075-30.95,17.497c-6.728,10.092-8.745,20.854-5.381,33.642c0,1.34,0,2.009,2.017,1.34
				c1.347-0.67,1.347-1.34,1.347-2.018l-0.674-10.092c0.674-8.074,2.691-14.803,6.055-20.185
				c5.384-9.415,15.477-14.134,28.932-16.82l16.82-3.364c12.11,0,22.875,6.729,32.295,20.185
				C252.878,385.826,253.552,385.826,254.896,385.155z"/>
		</g>
	</g>
	<g>
		<g>
			<path d="M250.861,403.317c-5.385-9.422-14.131-15.475-24.896-17.491h-14.803c-10.763,2.694-18.164,11.432-22.202,24.889
				c-2.017,6.728-3.363,13.456-3.363,20.185c0,0.678,0.673,1.354,2.69,1.354l1.348-1.354c0-6.051,1.344-12.104,2.69-18.831
				c4.037-12.116,10.091-19.514,20.185-22.878l12.782,0.671c9.419,1.347,16.819,7.396,21.531,15.479
				c1.344,1.341,2.69,2.012,3.363,0.671C251.53,405.34,251.53,404.664,250.861,403.317z"/>
		</g>
	</g>
	<g>
		<g>
			<path d="M203.09,445.032v0.677c0,1.341,0.674,2.011,2.018,2.011l2.021-2.011c0-4.041,0.67-7.404,2.017-11.444
				c2.018-8.069,6.729-12.781,12.783-13.457l0.673-0.671l2.017-1.341h4.712c4.711,1.341,8.744,6.053,13.456,13.457
				c0,0.671,0.673,1.341,2.691,0.671c0.673-0.671,0.673-1.347,0.673-2.024c-4.711-9.416-10.092-14.796-16.147-16.144
				c-4.037-0.676-7.401,0-9.418,2.018c-7.401,1.347-12.112,6.058-14.803,14.804C203.764,435.618,203.09,440.991,203.09,445.032z"/>
		</g>
	</g>
</g>
</svg>
