<?xml version="1.0" encoding="utf-8"?>
<!-- Generator: Adobe Illustrator 13.0.0, SVG Export Plug-In . SVG Version: 6.00 Build 14948)  -->
<!DOCTYPE svg PUBLIC "-//W3C//DTD SVG 1.1//EN" "http://www.w3.org/Graphics/SVG/1.1/DTD/svg11.dtd">
<svg version="1.1" id="圖層_1" xmlns="http://www.w3.org/2000/svg" xmlns:xlink="http://www.w3.org/1999/xlink" x="0px" y="0px"
	 width="372px" height="587px" viewBox="0 0 372 587" enable-background="new 0 0 372 587" xml:space="preserve">
<g>
	<g>
		<path d="M102.222,125.756l-11.61,87.069C82.875,277.959,79.65,329.551,79.65,367.602c0,1.926,1.289,2.568,2.579,2.568
			c1.934,0,2.58-0.643,2.58-2.568c0-38.051,3.224-89,10.964-154.134l11.606-87.065c0-1.291-0.645-2.582-1.932-3.224
			C103.51,123.178,102.222,123.82,102.222,125.756z"/>
	</g>
	<g>
		<path fill="#9260C7" d="M122.214,329.551l-16.122,7.731l17.41,6.45c10.965,2.582,16.123,0,16.123-7.733
			C138.979,328.254,133.176,326.326,122.214,329.551z"/>
	</g>
	<g>
		<path d="M142.203,335.355c-0.642-3.879-2.578-7.103-5.802-9.029c-3.871-1.941-9.675-0.643-18.057,2.582
			c-3.871,1.283-7.739,3.222-13.543,6.447l-1.292,1.927l1.292,2.583l14.188,5.166c9.028,2.568,14.832,2.568,18.703,0
			C140.917,343.732,142.203,340.508,142.203,335.355z M111.896,337.282c10.961-6.447,18.702-8.374,22.572-6.447
			c1.934,1.295,1.934,3.224,1.934,5.164c0.645,2.581,0,4.509-1.934,4.509C131.243,343.732,123.502,341.807,111.896,337.282z"/>
	</g>
	<g>
		<path d="M105.447,335.355l-22.573,0.644c-1.935,0-3.224,1.283-3.224,2.581c0.646,1.928,1.934,3.227,3.224,2.57l23.218-0.644
			c1.287,0,2.578-1.284,2.578-3.226C108.67,335.355,107.379,335.355,105.447,335.355z"/>
	</g>
	<g>
		<path fill="#9260C7" d="M120.278,283.111c-4.513,3.222-9.673,7.103-13.543,12.254l18.059,1.295
			c11.608-0.652,16.123-4.52,14.186-12.254C136.401,277.316,129.952,276.66,120.278,283.111z"/>
	</g>
	<g>
		<path d="M133.821,276.66c-7.095-1.927-16.767,3.879-29.02,16.123l-0.646,3.225l2.58,1.295c16.768,3.227,27.733,1.932,32.891-3.223
			c2.578-2.582,2.578-6.448,1.291-10.317C139.625,279.884,137.692,277.316,133.821,276.66z M111.896,292.783
			c9.674-8.377,16.122-12.244,20.635-11.602l3.871,4.509c0,1.941,0,3.869-0.646,5.166
			C132.531,294.08,124.793,294.723,111.896,292.783z"/>
	</g>
	<g>
		<path d="M106.092,292.783l-21.93,7.103c-1.934,0-2.579,1.929-1.934,3.226c0.646,1.928,1.934,1.928,3.226,1.928l21.925-7.734
			c1.938-0.644,2.58-1.296,1.938-3.224C108.67,292.783,107.379,292.141,106.092,292.783z"/>
	</g>
	<g>
		<path fill="#9260C7" d="M52.564,357.273l10.963-14.826l-18.058,3.227c-11.607,2.579-15.477,7.73-10.962,14.182
			C39.02,366.948,44.827,366.305,52.564,357.273z"/>
	</g>
	<g>
		<path d="M62.883,340.508l-14.832,1.299c-8.385,1.926-14.834,5.151-16.769,9.674c-1.29,3.224-1.29,6.447,1.288,9.672
			c1.937,3.867,5.162,5.797,8.386,5.797c7.737,0,15.477-7.735,24.505-23.217v-1.926L62.883,340.508z M58.366,345.674
			c-7.091,10.957-12.896,16.121-17.41,16.121l-4.515-3.225l-0.646-3.225l0.646-1.941C38.378,349.538,45.469,346.958,58.366,345.674z
			"/>
	</g>
	<g>
		<path d="M81.584,328.908l-19.993,11.6c-1.288,1.299-1.288,2.582-0.642,3.225c0.642,1.941,1.933,1.941,3.867,1.3l19.993-12.259
			c1.29-0.644,1.29-1.938,0-3.223C84.809,327.611,82.875,327.611,81.584,328.908z"/>
	</g>
	<g>
		<path fill="#9260C7" d="M46.76,280.539l18.057,1.929l-10.961-14.826c-8.386-7.747-14.835-7.747-18.702-1.297
			C31.928,273.434,35.795,277.959,46.76,280.539z"/>
	</g>
	<g>
		<path d="M57.725,269.569c-5.807-7.091-11.61-10.959-16.122-10.317c-3.225,0-6.45,1.941-8.386,5.808
			c-2.58,3.867-2.58,7.731-0.646,10.958c3.871,5.806,14.836,9.03,32.246,8.388l1.936-1.295v-2.572
			C64.816,277.316,61.591,273.434,57.725,269.569z M41.603,264.418c4.512-0.654,10.315,5.151,18.056,15.466
			c-12.899-1.283-19.993-3.224-22.572-7.093l-0.646-1.925l1.291-3.224C39.02,265.06,39.666,264.418,41.603,264.418z"/>
	</g>
	<g>
		<path d="M62.236,280.539c-0.645,1.929,0,3.224,1.291,3.867l20.635,10.959l3.871-1.285c0.646-1.297,0-1.939-1.935-3.224
			L65.46,279.884C64.816,279.242,63.527,279.242,62.236,280.539z"/>
	</g>
	<g>
		<path fill="#9260C7" d="M52.564,241.19l17.413,5.808l-8.385-16.123c-7.091-9.031-12.898-11.601-17.411-5.807
			C39.02,231.518,42.245,236.681,52.564,241.19z"/>
	</g>
	<g>
		<path d="M65.461,232.172c-4.511-7.746-9.673-12.255-14.186-12.898c-3.224,0-6.448,1.285-9.03,4.509
			c-3.225,3.868-3.867,7.734-2.579,10.316c1.937,3.867,6.448,7.747,15.477,10.969l14.189,3.869l2.58-0.642v-2.582L65.461,232.172z
			 M44.18,230.875l1.934-3.867c1.937-1.94,3.225-2.583,4.516-1.94c4.512,0,9.673,6.45,14.831,17.419
			c-12.252-2.581-19.347-6.448-20.634-10.315L44.18,230.875z"/>
	</g>
	<g>
		<path d="M68.041,245.068c-1.288,1.285-1.288,2.57,0.646,3.227L86.1,263.121h3.871c1.288-1.287,1.288-2.584-0.645-3.869
			l-17.413-14.838C69.977,243.772,68.686,243.772,68.041,245.068z"/>
	</g>
	<g>
		<path fill="#9260C7" d="M106.735,253.446l17.414-3.867c10.963-4.511,14.188-9.032,9.672-15.48
			c-4.515-5.807-10.319-5.151-17.414,3.867L106.735,253.446z"/>
	</g>
	<g>
		<path d="M126.727,227.651c-3.87,0.641-9.672,4.521-14.831,11.613l-7.74,12.898v2.582l2.58,1.285
			c18.059-1.939,27.733-6.449,30.957-13.542c1.934-3.223,1.287-6.448-1.291-9.672C133.821,228.948,130.597,227.651,126.727,227.651z
			 M127.372,232.814c1.935,0,3.225,1.285,4.516,2.582l1.288,3.868v1.926c-1.934,3.878-9.674,6.449-21.926,9.032
			C117.699,238.621,123.502,232.814,127.372,232.814z"/>
	</g>
	<g>
		<path d="M105.447,250.865l-19.349,13.553c-1.29,1.285-1.29,2.568-0.644,3.867l3.87,0.642l18.702-13.541
			c1.933-1.297,1.933-1.939,0.645-3.867L105.447,250.865z"/>
	</g>
	<g>
		<path fill="#9260C7" d="M113.83,205.079l17.413-1.934c11.607-2.576,14.831-7.097,11.607-13.546
			c-3.224-7.092-9.673-6.449-18.056,1.297C120.278,194.763,117.054,199.272,113.83,205.079z"/>
	</g>
	<g>
		<path d="M111.25,205.721l2.58,1.298c17.413,0.643,27.732-2.582,31.599-8.389c1.937-3.224,1.937-6.449,0-10.958
			c-1.932-3.225-4.512-5.165-9.027-5.807c-6.45-0.642-14.832,7.091-25.151,21.28L111.25,205.721L111.25,205.721z M140.917,190.247
			l0.645,3.225l-0.645,2.576c-1.938,3.224-9.674,5.806-22.572,6.448c7.737-10.315,13.543-15.473,18.057-15.473
			C138.337,187.023,139.625,188.313,140.917,190.247z"/>
	</g>
	<g>
		<path d="M111.896,202.496l-20.638,10.971c-1.288,0.643-1.933,1.927-0.646,3.225c0.646,1.927,1.938,1.927,3.87,1.284l20.638-10.958
			c1.288-1.298,1.288-1.94,0.646-3.874C115.12,202.496,113.83,201.854,111.896,202.496z"/>
	</g>
	<g>
		<path fill="#9260C7" d="M76.426,189.599l-8.386-16.123c-6.449-9.673-12.252-11.601-17.41-5.8
			c-4.516,6.449-1.937,11.607,8.382,16.123L76.426,189.599z"/>
	</g>
	<g>
		<path d="M75.78,192.181l2.58-1.285v-2.582c-6.448-16.123-12.898-24.511-19.994-26.438c-3.866,0-7.091,1.285-9.672,4.509
			c-2.579,3.225-3.224,6.449-2.579,10.316c1.937,3.874,6.45,7.747,15.477,10.971L75.78,192.181z M51.275,173.476l1.289-3.867
			c1.936-1.933,3.224-2.582,5.161-2.582c3.867,0.649,9.028,7.098,14.187,18.704c-12.252-3.224-19.347-6.448-20.636-10.958
			L51.275,173.476L51.275,173.476z"/>
	</g>
	<g>
		<path d="M74.489,187.671c-1.287,1.927-1.287,2.576,0,3.224l18.061,15.474l3.224-0.649c1.287-1.284,1.287-2.576,0-3.225
			L78.36,187.022L74.489,187.671z"/>
	</g>
	<g>
		<path fill="#9260C7" d="M91.257,383.725l-9.028-16.123l-5.158,17.407c-1.936,11.611,1.289,16.763,9.028,15.479
			C93.836,399.846,95.127,394.04,91.257,383.725z"/>
	</g>
	<g>
		<path d="M81.584,365.02l-1.934,1.285c-1.291,3.223-3.224,7.746-4.515,14.194c-1.933,9.019-1.933,15.469,1.291,19.347
			c1.933,3.226,5.158,3.867,9.672,3.226c4.513,0,7.095-1.94,8.383-5.806c3.225-6.449,0-16.767-10.319-30.961
			C84.163,365.02,82.875,365.02,81.584,365.02z M86.099,398.55c-3.224,0-4.515-0.643-5.159-1.93l-1.289-5.804
			c0-4.523,1.289-10.317,3.224-17.422c5.159,9.033,7.737,15.479,7.737,19.35v2.581C89.324,397.266,88.033,397.907,86.099,398.55z"/>
	</g>
	<g>
		<path d="M187.992,192.181c-1.932,0-2.578,0.642-2.578,1.94c3.223,96.735,3.869,195.396,1.934,296.654
			c-0.643,1.284,0,1.928,1.936,1.928l2.578-1.928c2.58-101.258,2.58-199.918-0.646-296.654L187.992,192.181z"/>
	</g>
	<g>
		<path fill="#9260C7" d="M195.732,508.825l-6.449-18.051l-7.74,16.766c-4.511,11.614-2.578,17.408,5.805,18.063
			C195.087,526.245,198.313,520.438,195.732,508.825z"/>
	</g>
	<g>
		<path d="M191.861,489.478l-2.578-1.927l-1.936,1.927l-7.739,13.553c-3.224,9.021-3.87,15.469-1.937,19.99
			c1.292,3.226,4.515,4.511,9.674,5.151c3.869,0.655,7.096-1.284,9.672-4.509c3.227-3.868,3.227-10.315,0.646-19.349
			L191.861,489.478z M182.188,520.438l-0.646-3.867c0-4.521,2.579-10.973,7.095-20.643c3.225,7.743,5.159,14.193,5.159,19.346
			l-1.288,5.806c-0.646,1.94-1.938,1.94-5.16,1.94C185.415,523.021,184.122,522.378,182.188,520.438z"/>
	</g>
	<g>
		<path fill="#9260C7" d="M231.848,426.927c-5.16-5.806-10.965-3.866-17.414,6.448c-2.578,5.166-5.156,10.317-7.095,16.123
			l16.771-5.806C234.427,438.541,237.007,432.733,231.848,426.927z"/>
	</g>
	<g>
		<path d="M233.781,425.643c-3.225-3.225-6.449-4.521-9.674-3.881c-6.448,1.299-12.897,10.329-19.349,27.096l0.646,2.581l2.58,0.643
			l14.188-4.521c8.384-3.866,13.54-7.734,14.833-12.244C237.65,432.091,237.007,428.868,233.781,425.643z M224.754,426.284
			c1.934,0,3.225,0.643,5.157,2.584l1.937,3.865v1.283c-1.291,4.523-7.738,7.747-20.638,11.616
			C216.368,434.018,220.883,427.569,224.754,426.284z"/>
	</g>
	<g>
		<path d="M205.404,448.214l-16.768,15.469c-1.289,1.295-1.289,2.579-0.646,3.878c0.646,0.644,2.579,0.644,3.87,0l16.769-16.122
			c1.935-1.298,1.935-2.581,0.646-3.225C207.984,446.917,207.339,446.917,205.404,448.214z"/>
	</g>
	<g>
		<path fill="#9260C7" d="M151.878,454.664l18.059,2.567l-10.964-14.824c-8.383-7.747-13.544-9.032-18.056-1.94
			C137.046,446.917,140.917,452.08,151.878,454.664z"/>
	</g>
	<g>
		<path d="M163.488,443.692c-5.804-7.094-10.965-10.317-16.123-10.317c-3.224,0-6.448,1.939-8.386,5.809
			c-2.578,3.225-2.578,7.092-0.642,10.314c2.579,3.867,7.736,7.092,16.765,8.39l14.835,1.929l2.579-1.285v-2.581L163.488,443.692z
			 M143.496,441.765c1.29-2.581,2.578-3.224,3.869-3.224c5.158,0,10.961,5.151,17.411,16.123
			c-12.253-1.299-19.99-3.228-21.926-7.747l-0.646-1.926L143.496,441.765z"/>
	</g>
	<g>
		<path d="M168,455.949c-1.288,1.938-1.288,2.581,0.646,3.224l19.993,12.255c1.934,0.644,3.225,0.644,3.225-0.643
			c1.291-1.939,0.646-3.226-0.646-3.877l-19.991-12.244C169.291,454.008,168.646,454.664,168,455.949z"/>
	</g>
	<g>
		<path fill="#9260C7" d="M234.427,385.009c-4.516-5.807-10.317-4.51-17.413,5.165c-3.226,5.151-5.804,9.672-8.383,16.121
			l17.411-5.165C237.007,396.62,239.585,390.816,234.427,385.009z"/>
	</g>
	<g>
		<path d="M238.939,393.398c1.291-3.226,0.646-6.451-2.58-9.676c-2.578-3.879-5.803-5.807-9.027-4.521
			c-4.516,0.644-9.673,4.521-14.189,12.899l-6.449,12.896c-0.643,1.297-0.643,1.938,0,3.226l2.584,0.643
			C226.688,404.998,236.359,399.846,238.939,393.398z M233.781,392.102c-1.291,3.225-7.739,7.092-20.639,10.313
			c5.162-11.599,10.319-17.405,14.188-18.69c1.935,0,3.226,1.285,5.157,3.225l1.291,3.227v1.926H233.781z"/>
	</g>
	<g>
		<path d="M207.339,403.713l-18.7,15.48c-0.646,0.643-0.646,1.928,0,3.225l3.225,0.644l18.703-14.839
			c1.289-1.285,1.289-1.928,0-3.225L207.339,403.713z"/>
	</g>
	<g>
		<path fill="#9260C7" d="M153.814,406.938l18.057,4.51c-3.225-6.448-6.45-11.602-9.674-15.479
			c-7.095-9.021-12.899-10.317-18.056-3.866C139.625,398.55,142.85,403.07,153.814,406.938z"/>
	</g>
	<g>
		<path d="M142.203,390.174c-2.578,3.866-3.224,7.092-1.287,10.313c2.58,7.094,12.897,10.959,30.31,12.9l2.581-0.643v-2.582
			l-7.74-12.898c-5.157-7.091-10.318-11.613-14.831-11.613C147.365,385.65,144.786,386.947,142.203,390.174z M145.428,398.55v-1.284
			l0.646-3.867c1.937-2.582,3.224-3.225,4.516-2.582c5.159,0,9.674,5.805,16.122,17.406
			C153.814,405.641,147.365,402.414,145.428,398.55z"/>
	</g>
	<g>
		<path d="M169.291,409.521c-0.645,1.283-0.645,2.566,0.646,3.865l19.346,13.539l3.226-0.643c1.288-1.938,0.646-3.225-0.646-3.866
			l-18.701-12.896C171.871,408.223,170.582,408.223,169.291,409.521z"/>
	</g>
	<g>
		<path fill="#9260C7" d="M226.042,332.13c-5.806-4.519-11.608-1.938-15.478,8.378c-2.58,5.809-3.871,11.614-5.16,17.42l15.479-8.39
			C230.557,342.447,232.49,337.282,226.042,332.13z"/>
	</g>
	<g>
		<path d="M232.49,339.223c0-3.224-1.288-6.449-5.158-9.029c-3.225-2.582-6.449-3.866-9.673-2.582
			c-4.517,1.939-8.384,7.09-10.966,16.121l-3.865,14.195c-0.646,0.643,0,1.928,1.287,1.928l2.578,0.644
			c3.871-1.929,7.74-3.867,12.897-7.093C227.332,348.896,231.202,343.732,232.49,339.223z M219.592,332.771l4.518,1.285
			c1.934,1.299,3.224,2.582,3.224,4.522l0,0c-0.646,4.51-7.095,9.673-18.701,14.825C211.855,341.15,215.08,334.059,219.592,332.771z
			"/>
	</g>
	<g>
		<path d="M203.471,356.631l-14.832,18.063c-0.646,1.285-0.646,2.582,0.646,3.867l3.226-0.644l14.83-18.062l0.646-1.929
			l-0.646-1.297L203.471,356.631L203.471,356.631z"/>
	</g>
	<g>
		<path fill="#9260C7" d="M150.59,372.752l18.701-0.643l-13.542-12.254c-9.675-6.451-14.832-6.451-18.057,0.643
			C135.112,367.602,139.625,372.109,150.59,372.752z"/>
	</g>
	<g>
		<path d="M136.401,370.17c4.515,5.809,16.121,7.105,32.889,4.523l2.58-1.941l-0.645-1.926
			c-12.253-13.553-21.282-19.348-28.376-18.063c-3.224,0.641-6.448,2.582-7.095,7.092
			C133.821,364.376,134.468,367.602,136.401,370.17z M144.141,357.928c4.512-1.297,10.961,3.225,19.347,12.242
			c-12.898,0.656-20.638-0.643-23.218-3.865c-0.645-0.644-0.645-2.58,0-5.152C140.917,359.855,142.203,357.928,144.141,357.928z"/>
	</g>
	<g>
		<path d="M166.712,370.826c-0.646,1.926-0.646,3.225,1.288,3.867l21.93,7.734l3.867-1.287c0-1.938,0-3.225-1.936-3.225
			l-21.924-8.391C168.646,368.886,166.712,369.527,166.712,370.826z"/>
	</g>
	<g>
		<path fill="#9260C7" d="M217.659,256.67l-9.028,15.481l18.057-4.509c10.319-3.878,13.543-9.675,9.026-16.123
			C230.557,245.713,224.754,246.998,217.659,256.67z"/>
	</g>
	<g>
		<path d="M239.585,260.537c1.291-3.224,0.646-6.448-1.935-10.315c-3.225-3.224-6.448-5.154-9.674-4.509
			c-3.869,0.641-9.027,5.152-14.188,12.254c-2.578,3.867-5.157,8.378-7.095,12.899v2.568c0.646,0.656,1.291,1.299,2.582,0.656
			C226.688,271.509,237.007,266.986,239.585,260.537z M235.07,257.313l-0.645,1.297c-1.291,3.869-8.385,7.093-20.639,9.675
			c5.804-10.972,10.32-16.766,15.479-17.42c1.291,0,2.582,0,4.516,2.582L235.07,257.313z"/>
	</g>
	<g>
		<path d="M207.339,270.21l-18.7,13.553c-1.291,1.927-1.291,2.57,0,3.869l3.225,0.643l18.703-14.184
			c1.289-1.299,1.289-2.582,0.645-3.88C210.564,269.569,208.631,268.927,207.339,270.21z"/>
	</g>
	<g>
		<path fill="#9260C7" d="M150.59,282.468l18.056-0.645l-13.543-12.254c-9.028-6.448-15.477-6.448-18.056,0.641
			C134.468,277.316,138.979,281.181,150.59,282.468z"/>
	</g>
	<g>
		<path d="M134.468,269.569c-1.292,3.865-1.292,7.091,1.287,10.315c3.871,4.521,15.48,6.449,33.536,4.521l1.936-1.938l-1.289-2.584
			l-10.32-10.315c-7.095-5.806-12.252-8.376-17.414-7.735C138.979,262.479,136.401,265.06,134.468,269.569z M139.625,270.866
			c1.291-2.582,1.936-3.88,3.224-3.88c4.515-0.641,10.964,3.224,19.993,12.898c-12.252,0.655-19.993,0-23.217-3.224
			C138.979,274.733,138.979,273.434,139.625,270.866z"/>
	</g>
	<g>
		<path d="M166.066,280.539c-0.646,1.929-0.646,3.224,1.934,3.224l21.283,8.377c1.934,0.643,2.578,0,3.226-1.927
			c0.646-1.297,0-2.582-1.292-3.224l-21.926-7.747C168,279.242,166.066,279.242,166.066,280.539z"/>
	</g>
	<g>
		<path fill="#9260C7" d="M208.631,215.395c-1.938,5.807-3.871,10.971-4.516,17.42l16.121-8.389
			c9.029-6.45,10.966-12.256,4.518-17.407C218.949,202.496,213.788,205.079,208.631,215.395z"/>
	</g>
	<g>
		<path d="M201.537,234.742h3.223c16.123-5.794,25.151-12.898,25.797-19.99c0.646-3.225-0.646-6.448-3.869-9.673
			c-3.225-2.583-6.449-3.867-10.318-2.583c-4.514,1.94-8.383,6.449-11.607,15.48l-3.224,14.196
			C200.893,232.814,200.893,234.099,201.537,234.742z M226.042,213.467c-1.288,4.509-7.737,9.032-18.703,14.825
			c3.228-12.897,7.095-19.347,10.966-20.631c1.934-0.643,3.225,0,5.158,1.284c1.291,1.297,2.579,3.225,2.579,3.88V213.467z"/>
	</g>
	<g>
		<path d="M201.537,231.518l-14.831,17.419c-1.292,1.285-1.292,2.582,0.642,3.867l3.869-0.642l14.188-17.42
			c1.289-1.285,1.289-2.57,0-3.867L201.537,231.518z"/>
	</g>
	<g>
		<path fill="#9260C7" d="M151.878,234.742l17.413,3.224l-10.318-14.824c-7.095-8.39-12.899-10.316-17.411-3.868
			C137.692,225.723,140.917,231.518,151.878,234.742z"/>
	</g>
	<g>
		<path d="M139.625,217.976c-2.58,3.868-3.224,7.092-1.934,10.316c3.225,6.45,14.186,10.329,31.599,12.255
			c0.646,0,1.936,0,2.58-1.284v-2.583c-8.383-15.479-16.122-23.855-23.218-23.855C144.141,212.825,141.562,214.752,139.625,217.976z
			 M148.01,217.976c4.512,0.643,10.316,5.807,16.766,16.766c-12.898-1.927-20.635-5.152-21.926-9.019l-0.646-1.297l1.293-3.225
			L148.01,217.976z"/>
	</g>
	<g>
		<path d="M166.712,236.039c-0.646,1.927-0.646,3.225,1.288,3.868l19.348,12.897l3.869-0.642c0.646-1.297,0.646-2.582-0.646-3.867
			l-19.989-12.899C169.291,234.742,168.646,234.742,166.712,236.039z"/>
	</g>
	<g>
		<path fill="#9260C7" d="M237.65,290.213c-3.869-6.45-9.674-5.166-17.414,3.224c-3.223,4.51-7.094,9.672-9.672,15.467l17.412-3.225
			C238.939,301.813,242.164,296.66,237.65,290.213z"/>
	</g>
	<g>
		<path d="M207.984,306.979v2.582c0.646,1.285,1.291,1.929,2.58,1.929c17.412-2.585,28.375-5.81,30.957-12.255
			c1.933-3.227,1.287-6.45-1.291-10.317c-2.58-3.226-5.16-5.806-9.028-5.806c-4.515,0.652-9.675,3.878-14.834,11.612
			L207.984,306.979z M215.08,305.68c6.447-11.6,12.252-16.763,16.122-16.763l5.157,2.582l0.646,3.867v1.295
			C235.07,300.527,227.332,303.109,215.08,305.68z"/>
	</g>
	<g>
		<path d="M208.631,306.337l-19.348,12.896c-1.291,0.644-1.291,1.929-0.646,3.226l3.225,0.642l19.349-12.896
			c1.933-0.644,2.578-1.3,1.29-3.226L208.631,306.337z"/>
	</g>
	<g>
		<path fill="#9260C7" d="M150.59,322.458l18.701-0.655l-13.542-12.242c-9.675-7.104-14.832-7.104-18.057,0.644
			C135.112,317.938,139.625,321.803,150.59,322.458z"/>
	</g>
	<g>
		<path d="M171.226,322.458v-2.582l-10.962-10.315c-7.741-5.808-12.899-7.746-17.414-7.104c-3.871,0-6.448,3.225-7.737,7.104
			c-1.936,3.869-0.645,7.092,1.289,10.315c4.515,5.808,15.477,7.093,32.889,4.509L171.226,322.458z M163.488,319.876
			c-12.898,1.285-20.638-0.644-23.218-3.226c-0.645-1.297-0.645-3.221-0.645-5.162c1.291-2.584,2.578-3.869,3.871-4.51
			C148.01,306.337,154.459,310.846,163.488,319.876z"/>
	</g>
	<g>
		<path d="M169.291,319.232c-0.645-0.655-1.933,0-3.224,1.929c0,1.297,0,2.581,1.934,3.224l21.929,7.745
			c1.935,0.644,2.58,0,3.227-1.295c1.287-1.927,0.643-3.224-1.293-3.224L169.291,319.232z"/>
	</g>
	<g>
		<path d="M309.878,181.865l-9.674,52.877c-6.448,42.575-10.96,83.835-12.25,123.186c0,1.285,0.646,1.928,2.577,1.928
			c1.291,0,1.937-0.643,1.937-1.928c1.935-39.351,5.804-80.611,12.253-122.532l9.673-52.247c0.646-1.927,0-3.225-1.288-3.225
			C311.17,179.925,309.878,179.925,309.878,181.865z"/>
	</g>
	<g>
		<path fill="#9260C7" d="M298.271,374.693l-7.739-16.767l-6.449,18.052c-2.578,11.61,0,17.42,7.739,16.766
			C300.204,392.102,302.143,386.293,298.271,374.693z"/>
	</g>
	<g>
		<path d="M290.531,354.703c-1.287,0-1.934,0.643-2.577,1.928l-5.806,14.195c-2.58,9.673-2.58,16.121,0,19.99
			c2.578,3.224,5.806,4.509,9.674,4.509c5.158,0,8.382-1.927,9.674-5.151c2.58-4.523,1.935-10.972-1.936-20.004l-7.094-13.539
			L290.531,354.703z M297.626,383.725l-0.646,3.865c-0.644,1.285-1.934,2.584-5.158,2.584l-5.157-1.941l-1.292-5.162
			c0-5.152,1.936-11.604,5.158-19.99C295.048,372.109,297.626,379.202,297.626,383.725z"/>
	</g>
	<g>
		<path fill="#9260C7" d="M320.844,305.038c-3.871,4.522-7.095,9.674-9.674,14.838l17.414-3.226
			c10.96-3.863,14.186-8.39,9.671-14.838C333.741,295.365,327.938,296.008,320.844,305.038z"/>
	</g>
	<g>
		<path d="M331.161,295.365c-4.514,0-9.673,3.867-14.834,10.972l-7.737,12.896v2.569l2.58,0.655l14.832-2.582
			c8.385-1.939,14.188-5.164,16.122-9.673c1.291-3.226,0.646-7.093-1.934-10.317C337.61,296.008,334.387,294.723,331.161,295.365z
			 M315.685,316.65c5.805-10.971,11.608-16.123,16.123-16.766c1.288,0,2.579,0.643,4.514,2.57l1.29,3.881l-0.646,1.926
			C335.675,312.131,327.938,315.354,315.685,316.65z"/>
	</g>
	<g>
		<path d="M311.815,322.458c1.934-0.655,1.934-1.938,1.288-3.881c-1.288-1.283-1.935-1.283-3.867,0l-18.705,12.899
			c-1.934,0.652-1.934,1.938-1.287,3.879c1.287,1.283,2.578,1.283,3.869,0L311.815,322.458z"/>
	</g>
	<g>
		<path fill="#9260C7" d="M335.032,272.792c11.604-2.582,14.831-6.446,11.604-13.539c-3.223-7.091-9.672-6.449-17.411,1.285
			c-4.514,3.227-8.383,7.748-12.254,12.897L335.032,272.792z"/>
	</g>
	<g>
		<path d="M314.394,272.792c0,0.643,0,1.299,0,1.941l2.579,1.927l14.835-0.642c9.028-1.285,14.83-3.867,17.41-7.733
			c1.938-3.225,1.938-6.451,0-10.317c-2.58-3.878-5.157-6.448-8.382-6.448C333.741,250.865,324.713,257.967,314.394,272.792z
			 M344.061,260.537l1.288,3.227l-0.643,1.296c-1.938,3.867-9.674,5.806-22.573,6.449c8.383-10.315,14.188-14.838,18.059-14.196
			C342.124,257.313,343.415,257.967,344.061,260.537z"/>
	</g>
	<g>
		<path d="M315.685,271.509l-20.637,10.315c-1.935,0.645-2.58,1.939-1.292,3.867c1.292,1.299,1.938,1.299,3.225,0.643l20.64-9.673
			c1.934-1.285,2.579-2.57,1.934-3.869C318.265,270.866,317.619,270.21,315.685,271.509z"/>
	</g>
	<g>
		<path fill="#9260C7" d="M332.449,212.17l-10.961,14.196l18.702-3.224c10.317-2.583,14.188-7.747,9.673-14.196
			C345.993,202.496,340.19,203.145,332.449,212.17z"/>
	</g>
	<g>
		<path d="M336.966,227.008c9.027-1.94,14.189-5.165,16.123-9.032c2.578-3.224,1.935-6.449-0.646-10.958
			c-2.58-3.225-5.159-5.165-9.028-5.165c-3.871,0.642-9.674,3.867-15.478,10.971c-3.226,3.224-5.806,7.734-8.386,12.243v2.583
			c0.646,0.641,1.291,1.297,2.58,1.297L336.966,227.008z M343.415,207.019c1.934,0,3.223,1.285,4.515,3.224l1.288,3.225v1.927
			c-2.58,3.225-9.674,6.449-21.925,7.747l8.382-10.972C338.898,208.945,341.481,207.019,343.415,207.019z"/>
	</g>
	<g>
		<path d="M320.844,224.426l-19.993,11.613c-1.935,1.285-1.935,2.583-0.646,3.868c0.646,1.284,1.292,1.94,3.227,1.284l19.99-12.898
			l0.646-3.224C323.421,223.142,322.133,223.142,320.844,224.426z"/>
	</g>
	<g>
		<path fill="#9260C7" d="M253.129,316.009c-10.965-3.878-16.77-1.938-17.415,5.794c-0.644,7.748,4.517,10.327,16.124,8.391
			l17.413-5.809C263.447,321.161,258.285,318.577,253.129,316.009z"/>
	</g>
	<g>
		<path d="M238.297,312.787c-3.227,1.925-5.16,5.148-5.16,9.016c-0.646,3.881,0.646,7.105,3.87,9.676l18.7,0.651l14.189-5.161
			l1.933-2.584l-1.933-1.927C255.707,312.787,245.389,309.561,238.297,312.787z M237.65,322.458c0.646-3.226,1.289-4.521,2.58-4.521
			c3.869-2.582,11.606,0,22.57,6.447c-11.605,4.523-19.348,5.166-22.57,3.227C238.939,326.326,237.65,324.385,237.65,322.458z"/>
	</g>
	<g>
		<path d="M269.251,322.458h-1.935l-1.289,1.927c0,1.299,0.645,2.584,2.578,3.227l23.217,1.298l3.226-2.582
			c0-1.3-1.292-1.941-3.226-1.941L269.251,322.458z"/>
	</g>
	<g>
		<path fill="#9260C7" d="M277.634,264.418l-10.315-14.838c-7.74-8.39-13.543-10.316-17.414-3.867
			c-4.516,6.449-1.291,11.6,9.674,15.48L277.634,264.418z"/>
	</g>
	<g>
		<path d="M276.991,266.986l2.577-0.641v-2.582l-7.739-12.899c-5.802-7.735-10.317-11.601-15.478-11.601
			c-3.224,0-6.447,1.926-9.027,5.15c-1.936,3.881-3.225,7.105-1.29,10.329c2.577,4.509,7.739,7.735,16.769,9.675L276.991,266.986z
			 M250.551,252.162l-0.646-1.297l1.935-3.226l4.515-3.225c3.871,0,9.676,5.808,16.123,16.779
			C259.577,259.252,252.482,256.67,250.551,252.162z"/>
	</g>
	<g>
		<path d="M298.271,275.375l-19.347-12.897l-3.87,0.643c-0.646,1.297,0,2.582,0.646,3.865l19.348,12.898l3.868-0.642
			C300.204,277.316,299.563,276.66,298.271,275.375z"/>
	</g>
	<g>
		<path d="M-39.657-24.507c-1.29,1.291-1.29,2.582,0.646,3.224C-2.253,0.001,33.217,32.892,68.686,76.744
			c17.413,22.571,31.6,43.209,41.919,61.911c0.645,1.934,1.936,1.934,3.224,0.646c1.936-0.646,2.578-1.291,1.29-3.224
			C104.155,116.73,90.611,96.092,72.556,73.52C37.086,28.376,0.326-4.514-36.431-25.149C-38.368-26.44-39.657-26.44-39.657-24.507z"
			/>
	</g>
	<g>
		<path fill="#858585" d="M-6.123,49.015C0.972,38.05,1.617,28.377-3.54,19.994l-10.965-9.032l-5.804,12.256
			C-22.246,33.535-17.73,41.92-6.123,49.015z"/>
	</g>
	<g>
		<path d="M-15.797,9.029l-4.513,6.449c-2.578,5.158-3.869,10.964-2.578,15.477c1.287,7.741,5.803,14.836,14.831,19.993l3.87-0.645
			c5.804-9.028,7.737-16.768,5.804-24.505c-1.291-5.162-3.87-9.028-7.74-12.898l-7.092-4.516L-15.797,9.029z M-17.73,30.31v-2.58
			c0-4.512,1.291-9.028,4.515-13.543c5.159,3.87,9.028,7.74,10.317,12.898v4.516c0,3.87-1.289,8.382-3.869,12.898
			C-13.215,40.629-17.085,36.116-17.73,30.31z"/>
	</g>
	<g>
		<path d="M-19.021-13.543l-1.934,3.225l3.87,21.28l3.225,2.583c1.288-0.645,2.58-1.291,2.58-3.225l-4.516-21.929L-19.021-13.543z"
			/>
	</g>
	<g>
		<path fill="#858585" d="M34.507,76.744c6.449-10.965,6.449-20.639,0.646-28.375l-11.611-8.385l-5.158,12.898
			C17.094,63.2,22.897,71.586,34.507,76.744z"/>
	</g>
	<g>
		<path d="M24.834,37.404c-1.937-0.646-2.579,0-3.224,0.646l-3.87,7.095c-1.935,5.803-2.58,10.318-1.292,15.477
			c1.936,7.74,7.094,14.189,16.769,18.702c1.291,0.646,2.579,0.646,3.224-1.288c5.804-9.032,6.448-17.414,4.515-24.508
			c-1.937-4.512-4.515-9.028-9.674-12.252L24.834,37.404z M21.61,59.331l-0.646-3.868c0-4.516,1.291-8.385,3.87-12.255
			c5.159,3.225,9.673,7.74,10.961,12.255l0.646,5.804c0,3.87-0.646,7.736-3.224,12.252C26.768,69.003,22.897,64.492,21.61,59.331z"
			/>
	</g>
	<g>
		<path d="M16.448,16.77c-1.288,0-1.934,1.287-1.288,3.225l5.804,20.635c0.646,1.936,1.933,1.936,3.224,1.936
			c1.933-1.291,2.58-1.936,1.933-3.224l-6.449-21.284C19.672,16.77,18.384,16.124,16.448,16.77z"/>
	</g>
	<g>
		<path fill="#858585" d="M64.816,116.084c7.74-10.32,9.03-19.993,3.87-28.375l-10.32-9.673l-6.448,12.898
			C49.339,100.606,53.855,108.99,64.816,116.084z"/>
	</g>
	<g>
		<path d="M65.461,79.969l-6.449-4.516c-0.646-0.642-1.933-0.642-3.224,1.292l-3.871,6.449c-2.579,4.515-3.867,9.673-3.224,14.831
			c0.646,7.74,5.807,14.19,14.834,20.638l3.225-0.646c6.45-9.027,8.383-16.768,6.45-24.505
			C72.557,88.351,69.977,84.484,65.461,79.969z M68.686,94.8v3.87c0,3.87-1.288,8.385-5.159,13.544
			c-5.803-5.159-9.027-9.674-9.672-14.832v-1.937c0-4.512,1.288-9.028,4.511-14.186C63.527,85.126,66.752,89.642,68.686,94.8z"/>
	</g>
	<g>
		<path d="M53.855,54.172c-1.938,0-2.58,1.291-1.938,2.579l3.871,21.926c0,1.292,0.645,2.582,2.578,1.938l1.938-2.579l-3.224-21.93
			C56.433,54.172,55.143,53.527,53.855,54.172z"/>
	</g>
	<g>
		<path fill="#858585" d="M78.359,154.128c10.965-7.736,14.19-16.119,11.61-25.792l-7.095-12.898l-9.672,10.318
			C68.041,134.785,69.977,144.458,78.359,154.128z"/>
	</g>
	<g>
		<path d="M81.584,113.504c-1.287,0-3.225,1.934-6.449,5.158c-3.871,3.87-6.449,9.028-7.095,13.544
			c-1.288,8.382,1.936,16.123,8.386,23.863l3.871,0.642c9.027-6.449,12.897-14.186,13.539-21.926c0-4.516-1.287-9.673-4.512-14.832
			l-4.515-5.807L81.584,113.504z M88.033,134.139v0.646c0,5.158-3.224,10.319-9.028,15.477c-3.87-5.804-5.803-10.319-5.803-14.832
			v-2.579c1.287-4.515,3.869-9.031,9.027-13.543C86.099,124.466,88.033,128.982,88.033,134.139z"/>
	</g>
	<g>
		<path d="M82.229,94.157l-2.579,21.281c0,1.934,1.289,3.224,2.579,3.224c1.934,0,2.58-0.646,2.58-2.578l2.579-21.927
			c0-1.291-0.643-2.582-2.579-2.582C82.875,90.933,82.229,91.576,82.229,94.157z"/>
	</g>
	<g>
		<path fill="#858585" d="M2.908-27.732L-8.702-18.7l11.61,8.382c9.028,3.225,18.702,0,27.085-9.028
			C20.964-28.374,11.936-31.598,2.908-27.732z"/>
	</g>
	<g>
		<path d="M31.928-21.283c-7.739-7.737-15.479-11.606-22.57-10.315c-8.386,0-14.835,3.866-20.638,10.961v3.225
			C-5.478-10.318,1.617-7.093,9.357-6.448c7.736,0.646,15.477-3.224,22.57-11.61C33.217-18.7,33.217-19.991,31.928-21.283z
			 M9.357-26.44c5.803-0.646,10.96,1.934,16.764,7.095c-5.804,5.158-10.961,7.737-16.764,7.737
			c-4.516-0.643-9.031-2.58-14.835-7.092C-0.316-23.862,4.841-26.44,9.357-26.44z"/>
	</g>
	<g>
		<path d="M-8.702-21.925h-21.927c-1.291,0-2.578,1.288-2.578,3.225c0,1.288,1.287,1.933,2.578,1.933h21.927
			c1.936,0,2.579-0.646,2.579-1.933C-6.123-20.637-6.767-21.925-8.702-21.925z"/>
	</g>
	<g>
		<path fill="#858585" d="M33.217,10.962l12.897,7.094c9.674,1.938,18.702-1.287,25.797-12.252
			c-9.675-8.382-19.347-9.673-28.375-5.158L33.217,10.962z"/>
	</g>
	<g>
		<path d="M73.202,3.871c-7.741-6.449-15.478-9.673-23.863-7.74c-4.512,0.645-9.027,3.225-12.898,7.74l-5.159,5.804
			c-0.646,0.646,0,2.579,0.646,3.225l6.45,4.512c4.511,2.582,10.315,4.515,14.831,3.87c7.741-0.646,14.832-5.804,21.28-14.187
			C75.135,5.805,75.135,4.514,73.202,3.871z M68.041,5.805c-4.513,6.449-9.675,9.673-15.477,10.319
			c-5.158,0.646-10.319-1.937-15.478-5.804c3.87-5.161,8.383-8.386,13.544-9.674C55.788,0.001,61.591,1.935,68.041,5.805z"/>
	</g>
	<g>
		<path d="M33.217,8.384l-21.281,2.579c-1.937,0.646-2.579,1.292-2.579,3.225c0,1.937,0.642,2.583,3.223,2.583l21.282-3.225
			c1.933,0,2.579-1.291,2.579-3.225C36.441,9.029,35.153,7.738,33.217,8.384z"/>
	</g>
	<g>
		<path fill="#858585" d="M110.605,50.947c-9.674-9.027-18.056-11.606-27.731-8.382l-10.963,8.382l10.963,9.028
			C92.549,63.845,100.931,60.621,110.605,50.947z"/>
	</g>
	<g>
		<path d="M89.324,38.695c-4.515,0.646-9.674,1.934-14.189,5.804l-5.804,5.157c-0.646,1.291-0.646,2.583,0,3.225l5.804,5.806
			c4.515,3.225,9.674,5.158,14.189,5.158c8.382,0.646,15.478-3.224,22.571-10.964c1.934-0.643,1.934-1.934,0-3.225
			C104.802,41.274,97.061,38.05,89.324,38.695z M89.324,58.688c-4.515,0-9.674-2.582-14.189-7.74
			c4.515-4.515,9.674-6.448,14.189-7.094c5.157-0.646,10.961,1.938,16.768,7.094C100.286,56.751,94.481,59.331,89.324,58.688z"/>
	</g>
	<g>
		<path d="M46.76,50.947c0,1.934,1.291,3.225,2.579,3.225h22.572c1.291,0,2.578-1.291,2.578-3.225c0-1.291-1.287-1.933-2.578-1.933
			H49.339C48.051,49.015,46.76,49.656,46.76,50.947z"/>
	</g>
	<g>
		<path fill="#858585" d="M137.692,83.193c-9.674-9.029-18.06-11.607-27.733-8.383l-10.961,8.383l10.961,8.382
			C119.632,96.091,128.018,92.866,137.692,83.193z"/>
	</g>
	<g>
		<path d="M139.625,85.126c1.291-0.643,1.291-1.933,0-3.867c-7.737-7.74-14.832-10.964-23.218-10.964
			c-4.512,0.646-9.673,2.579-14.186,6.449l-5.804,5.157c-0.645,1.292-0.645,1.937,0,2.583l5.804,6.449
			c4.513,3.224,9.674,5.158,14.186,5.158C124.793,96.091,131.888,92.866,139.625,85.126z M102.222,83.193
			c5.158-5.158,9.674-7.095,14.833-7.741c4.515,0,10.318,2.583,16.122,7.741c-6.45,5.158-11.607,7.74-16.122,7.74
			C111.896,90.933,106.735,87.708,102.222,83.193z"/>
	</g>
	<g>
		<path d="M73.847,83.193c0,1.291,1.289,2.578,2.58,2.578h21.925l2.58-2.578c0-1.934-0.646-2.58-1.934-2.58H76.426
			C75.135,80.614,73.847,81.259,73.847,83.193z"/>
	</g>
	<g>
		<path fill="#858585" d="M135.755,168.325c1.937-12.256-0.643-21.287-9.028-27.09l-13.543-3.871l-0.643,14.188
			C115.12,161.227,122.857,167.027,135.755,168.325z"/>
	</g>
	<g>
		<path d="M133.821,144.458c-3.224-3.87-7.739-6.449-13.543-8.382l-7.095-1.291l-2.578,1.291l-1.289,8.382
			c0,5.804,1.289,10.319,3.867,14.834c3.871,7.091,11.61,10.958,21.929,11.607l2.58-1.292
			C139.625,158.65,138.979,150.904,133.821,144.458z M117.054,156.711c-1.935-3.225-2.58-7.091-2.58-11.606l0.646-5.162
			c6.45,1.292,11.607,3.87,14.832,7.737c2.579,3.224,3.87,7.746,3.87,12.897l-0.645,4.522
			C125.44,163.803,120.278,160.578,117.054,156.711z"/>
	</g>
	<g>
		<path d="M348.572-39.338c1.291-0.646,1.291-1.934,0-3.224h-3.225c-26.438,22.572-46.433,67.715-58.684,136.72
			c-6.449,34.179-10.318,69.003-11.609,101.891c0,1.297,0.646,2.582,2.578,3.224c1.291,0,2.582-1.285,2.582-3.224
			c1.288-30.948,5.157-63.842,11.605-98.666C304.076,28.376,322.775-16.767,348.572-39.338z"/>
	</g>
	<g>
		<path fill="#858585" d="M240.876,193.472c13.543-0.649,21.926-5.8,25.151-14.832l0.645-14.189
			c-4.515-0.648-9.027,0.649-13.543,2.576C244.102,171.548,240.23,179.925,240.876,193.472z"/>
	</g>
	<g>
		<path d="M269.251,163.803l-1.935-1.928c-8.385-0.648-16.121,1.928-21.282,7.734c-5.804,5.164-8.384,13.541-7.095,23.863
			c0,1.934,0.646,2.576,1.937,2.576c10.962,0,18.701-3.225,23.858-9.674C269.251,179.925,271.186,172.833,269.251,163.803z
			 M264.734,169.609c0,5.164-1.287,10.316-4.512,13.541c-3.226,3.874-8.386,6.449-16.77,7.098V189.6
			c0-7.734,2.58-12.898,5.805-16.123c3.87-4.509,9.026-6.449,15.477-6.449V169.609z"/>
	</g>
	<g>
		<path d="M269.251,166.384l14.188-16.765c1.287-1.291,1.287-2.582-0.646-3.87l-3.225,0.643L265.38,163.16
			c-1.935,0.643-1.935,1.94,0,3.224H269.251L269.251,166.384z"/>
	</g>
	<g>
		<path fill="#858585" d="M238.939,132.852c12.256,2.579,21.283,0,27.088-8.385c3.224-4.513,3.869-9.028,4.515-13.544l-14.188-0.643
			C246.68,112.214,240.23,119.954,238.939,132.852z"/>
	</g>
	<g>
		<path d="M273.121,110.922l-1.938-1.933c-8.383-3.226-15.478-2.58-22.572,1.29c-6.447,4.512-10.961,11.607-12.252,21.926
			c-0.646,1.933,0,2.579,1.291,3.225c10.961,2.579,18.701,0.646,25.15-3.87C269.251,126.402,272.475,119.954,273.121,110.922z
			 M259.577,127.69c-3.87,3.224-9.673,3.87-17.413,3.224c1.29-7.736,4.516-12.898,9.031-15.477
			c4.512-3.224,10.316-3.87,16.765-2.579C266.027,119.308,263.447,124.466,259.577,127.69z"/>
	</g>
	<g>
		<path d="M287.309,96.091l-18.058,12.898c-1.291,1.29-1.935,1.933-0.646,3.224l3.224,1.29l18.702-12.897
			c1.291-1.291,1.291-1.937,0.646-3.224L287.309,96.091z"/>
	</g>
	<g>
		<path fill="#858585" d="M276.346,89.642c2.579-4.515,3.87-9.028,3.225-14.189l-13.543,1.292
			c-9.674,3.225-15.477,10.964-16.123,23.862C263.447,102.54,272.475,98.024,276.346,89.642z"/>
	</g>
	<g>
		<path d="M274.408,97.382c5.808-5.807,8.386-12.898,7.74-21.93l-1.934-1.933c-8.387-1.934-16.123-0.646-21.931,4.516
			c-6.447,4.512-9.673,11.606-10.961,22.571c0,1.934,1.288,2.579,2.579,3.225C260.223,104.474,269.251,102.54,274.408,97.382z
			 M276.991,78.035c0,6.449-1.937,11.606-5.808,14.831c-4.513,4.516-10.315,5.804-18.056,5.158
			c0.646-7.091,3.224-12.897,7.739-16.123C265.381,78.677,269.896,77.39,276.991,78.035z"/>
	</g>
	<g>
		<path d="M295.048,59.331L278.279,73.52c-1.934,1.291-1.934,1.933-0.646,3.87l3.87,0.646L298.271,63.2
			c1.29-1.288,1.29-1.933,0-3.87l-1.291-0.643L295.048,59.331z"/>
	</g>
	<g>
		<path fill="#858585" d="M284.729,36.116c3.227-3.224,5.804-7.74,6.448-12.256c-3.868-1.933-9.026-3.224-13.543-3.224
			c-10.315,0.646-18.057,7.094-21.927,19.347C267.96,44.499,277.634,43.853,284.729,36.116z"/>
	</g>
	<g>
		<path d="M279.568,42.565c7.738-3.224,12.254-9.673,14.188-18.059c0-1.288,0-2.579-1.934-2.579
			c-7.096-4.515-14.831-5.158-22.571-1.933c-7.094,2.578-12.897,9.028-16.122,19.347c-0.646,1.288,0,2.579,1.934,3.224H279.568z
			 M271.829,24.506l16.125,0.646c-2.581,6.449-5.806,10.964-10.32,12.897h-18.057C262.802,30.955,266.672,26.442,271.829,24.506z"/>
	</g>
	<g>
		<path d="M309.878,12.254l-19.987,9.673c-1.291,0-1.291,1.291-1.291,3.225c0.646,1.29,1.933,1.933,3.224,1.29l19.993-9.673
			c1.934-0.646,2.577-1.292,1.934-3.225C312.46,12.254,311.17,11.608,309.878,12.254z"/>
	</g>
	<g>
		<path fill="#858585" d="M269.896-7.739c10.961,7.095,20.635,8.385,28.373,2.579c4.519-3.224,7.741-7.091,9.675-10.961
			c-3.225-2.579-7.74-5.161-12.896-5.803C285.373-23.216,276.346-18.7,269.896-7.739z"/>
	</g>
	<g>
		<path d="M267.96-9.027c-1.288,1.288-1.288,1.934,0.646,3.225c8.387,6.448,16.769,8.382,24.508,5.803
			c7.737-2.579,13.541-7.095,17.412-15.478l-0.646-2.582c-7.09-5.158-14.186-7.737-21.924-7.092
			C279.568-23.216,273.121-18.7,267.96-9.027z M291.822-5.16c-5.805,1.292-11.606,0-18.057-3.867
			c5.158-6.449,9.674-9.673,14.832-10.964c5.157,0,10.317,1.291,16.122,4.515C300.851-10.318,296.98-6.448,291.822-5.16z"/>
	</g>
	<g>
		<path d="M328.584-23.216L307.299-18.7c-1.933,0-2.578,1.933-1.933,3.224c0,1.933,1.287,1.933,2.578,1.933l21.927-5.157
			c1.29,0,2.578-1.291,1.937-2.583C331.161-23.216,330.516-23.216,328.584-23.216z"/>
	</g>
	<g>
		<path fill="#858585" d="M332.449,65.137c6.449-11.61,6.449-21.284,0-29.021l-11.605-8.386l-4.517,13.544
			C315.039,50.947,320.844,58.688,332.449,65.137z"/>
	</g>
	<g>
		<path d="M334.387,65.779c5.805-9.028,6.449-16.765,3.868-24.505c-1.289-5.158-4.514-8.382-9.671-12.252
			c-3.226-2.58-5.163-3.87-7.096-3.87c-0.646,0-1.937,0-2.578,1.29l-3.871,6.45c-1.936,5.803-1.936,10.961-0.646,16.123
			c1.935,7.091,7.096,13.54,16.769,18.056C333.096,68.361,333.741,67.715,334.387,65.779z M333.741,42.565l0.646,6.45
			c0,3.224-0.646,7.736-3.226,11.606c-7.095-3.224-10.317-7.74-11.608-12.898l-1.288-4.516c0-3.867,1.288-8.383,3.225-11.606
			C327.293,33.535,331.161,37.404,333.741,42.565z"/>
	</g>
	<g>
		<path d="M311.815,7.738l6.448,20.638c0.646,1.933,1.935,1.933,3.225,1.933c1.933-0.643,2.578-1.933,1.933-3.225l-6.448-21.28
			c-0.646-1.291-1.934-1.934-3.224-1.291C311.815,4.514,311.17,5.805,311.815,7.738z"/>
	</g>
	<g>
		<path fill="#858585" d="M359.537-3.869l-14.188-3.87V6.45c2.581,9.674,10.318,15.477,23.863,16.768
			C371.145,10.32,367.92,0.646,359.537-3.869z"/>
	</g>
	<g>
		<path d="M353.089-9.027l-7.74-1.291l-1.934,1.291c-0.646,1.934-1.291,3.867-1.291,8.383c0,5.158,1.291,10.964,3.869,14.831
			c4.516,6.449,12.253,10.319,22.572,10.965l3.224-1.934c1.291-10.318,0-18.705-5.803-24.508
			C362.761-5.16,358.892-7.739,353.089-9.027z M347.284-0.644V-5.16c6.451,0.646,11.606,3.225,15.477,7.74
			c2.58,3.225,3.871,7.74,3.871,12.898v4.516c-7.74-1.292-13.543-4.516-16.123-9.032C348.572,7.738,347.284,3.871,347.284-0.644z"/>
	</g>
	<g>
		<path d="M330.516-27.732c-1.289,1.292-1.289,2.583,0,3.87l12.899,17.414c1.291,1.288,2.578,1.288,3.223,0.646
			c1.936-1.292,1.936-2.583,0.646-3.225l-12.897-18.059L330.516-27.732z"/>
	</g>
	<g>
		<path fill="#858585" d="M320.844,188.956c1.933-13.54-1.934-21.929-10.318-27.081l-14.188-3.225l0.643,14.183
			C299.563,182.507,307.944,187.671,320.844,188.956z"/>
	</g>
	<g>
		<path d="M295.693,156.069c-0.646,0-1.293,0.642-1.938,1.933c-0.644,0.648-1.288,3.225-1.288,7.74
			c0.646,5.807,2.58,10.958,5.158,14.832c4.517,6.449,12.252,9.673,23.218,10.322c1.289,0,2.577-0.648,2.577-1.94
			c1.292-10.958-0.646-18.704-5.802-24.504c-3.87-3.874-8.383-6.449-13.543-7.098L295.693,156.069z M301.496,177.349
			c-1.936-3.224-3.227-7.097-3.227-12.897v-3.225c6.45,0.648,12.255,2.576,15.479,6.449c3.224,3.873,4.516,9.024,4.516,15.474v2.582
			C310.524,184.447,304.721,181.223,301.496,177.349z"/>
	</g>
	<g>
		<path d="M280.857,139.3c-1.934,1.934-1.934,2.58-0.643,3.867l14.186,17.41h3.869v-3.225l-13.543-17.41L280.857,139.3z"/>
	</g>
	<g>
		<path fill="#858585" d="M317.619,145.75c3.869-11.61,2.579-21.283-4.516-27.733l-12.899-6.449l-2.578,13.544
			C298.271,135.431,304.721,142.525,317.619,145.75z"/>
	</g>
	<g>
		<path d="M319.553,121.887c-2.58-4.515-6.447-8.383-11.607-10.319l-7.74-2.578c-1.288,0-1.934,0-2.578,1.29
			c-0.646,1.934-1.934,5.158-2.578,7.737c-0.646,5.162,0,10.32,1.934,14.835c3.224,7.737,9.673,12.253,19.991,15.477
			c1.292,0.649,2.58,0,3.227-1.291C323.421,136.719,323.421,128.336,319.553,121.887z M300.204,123.178l1.292-9.032
			c6.448,3.226,11.607,6.45,13.543,10.32c1.934,3.224,2.58,6.448,2.58,9.673l-1.936,7.741c-7.739-2.58-11.607-5.804-14.188-10.319
			L300.204,123.178z"/>
	</g>
	<g>
		<path d="M288.6,89.642c-1.291,0.646-1.935,1.934-0.646,3.225l9.672,19.993c0.646,1.287,1.937,1.933,3.225,0.645
			c1.292-0.645,2.58-1.29,1.292-3.224l-10.319-19.347C291.177,89.642,290.531,88.351,288.6,89.642z"/>
	</g>
	<g>
		<path fill="#858585" d="M327.938,107.055c4.512-12.898,2.577-22.571-5.806-29.02l-12.896-5.806l-1.938,14.188
			C307.944,96.736,315.039,103.186,327.938,107.055z"/>
	</g>
	<g>
		<path d="M309.878,70.295l-3.225,1.291l-1.934,7.737c-0.645,5.161,0,10.318,1.934,14.834c3.871,7.092,10.966,12.252,20.64,14.833
			c1.934,0,2.578,0,3.223-1.935c3.227-9.673,2.58-18.059-1.289-25.154c-2.578-3.866-6.45-7.091-12.254-9.672L309.878,70.295z
			 M309.878,83.838l1.292-8.386c6.449,2.583,10.318,5.807,13.543,9.674c1.936,2.582,2.58,6.449,2.58,9.673l-1.291,7.74
			c-7.737-1.934-12.253-5.158-14.832-10.319C310.524,89.642,309.878,87.063,309.878,83.838z"/>
	</g>
	<g>
		<path d="M297.626,50.947c-1.933,1.292-2.578,1.934-1.288,3.871l10.961,18.702c0.646,1.933,1.291,1.933,3.227,1.291
			c1.291-1.291,1.936-1.937,0.646-3.225l-10.319-19.347C300.204,50.947,298.916,50.302,297.626,50.947z"/>
	</g>
	<g>
		<path fill="#858585" d="M282.794,234.742c8.383-9.674,9.674-19.347,5.16-28.372l-10.32-10.322l-7.092,12.897
			C268.605,218.619,272.475,227.008,282.794,234.742z"/>
	</g>
	<g>
		<path d="M278.925,194.121H275.7c-0.646,1.285-2.579,3.224-4.517,6.449c-2.578,5.151-3.867,10.316-3.225,14.825
			c0.646,8.389,4.516,15.48,13.544,21.286l3.869-0.642c6.448-7.747,9.028-16.122,7.095-23.869
			c-0.646-5.151-3.224-9.674-7.095-12.898L278.925,194.121z M287.954,216.049c0,4.51-1.937,9.019-5.806,14.826
			c-5.803-5.152-9.027-9.674-9.674-15.48v-1.285c0-5.165,1.934-10.316,5.805-14.838c5.803,5.165,8.386,9.673,9.675,14.195V216.049z"
			/>
	</g>
	<g>
		<path d="M122.214-55.461h-3.87c-1.291,1.292-1.291,1.934,0,3.225c11.607,14.832,23.858,35.469,36.757,60.62
			c24.508,50.304,38.695,103.83,42.564,158.643c0,1.298,0.646,2.582,2.579,1.94c1.292,0,1.938-1.291,1.938-2.583
			c-3.226-55.462-17.414-108.987-43.209-160.58C146.72-19.991,134.468-40.629,122.214-55.461z"/>
	</g>
	<g>
		<path fill="#858585" d="M163.488,170.251c12.252-3.225,19.346-9.674,21.281-19.347l-2.58-14.186
			c-4.515,0.645-9.027,2.582-12.898,5.161C161.551,148.329,159.617,157.353,163.488,170.251z"/>
	</g>
	<g>
		<path d="M182.188,134.139c-9.027,0.646-15.477,4.516-19.992,11.61c-3.871,6.452-4.513,14.828-1.933,25.151
			c0.646,1.933,1.933,1.933,3.224,1.933c10.319-2.582,17.41-7.091,21.281-14.183c3.224-7.098,3.869-14.837,0.646-23.22
			C184.769,134.785,183.479,134.139,182.188,134.139z M166.712,148.329c3.225-4.516,8.383-7.094,14.186-9.028l1.291,7.737
			l-2.579,9.031c-1.937,4.509-7.094,8.382-14.189,10.315l-1.933-7.091C163.488,154.778,164.776,151.553,166.712,148.329z"/>
	</g>
	<g>
		<path d="M191.861,116.084l-10.964,19.347c-1.288,0.646-1.288,2.579,0.646,3.224c1.291,1.288,2.579,0.646,3.226-0.645
			l10.963-19.348c1.287-1.29,1.287-2.578-0.646-3.224C193.797,114.146,191.861,114.792,191.861,116.084z"/>
	</g>
	<g>
		<path fill="#858585" d="M157.04,125.112c12.251-3.871,18.701-11.608,19.346-21.281l-3.224-14.189
			c-4.516,1.292-8.386,3.225-12.252,7.095C153.814,103.831,152.522,113.504,157.04,125.112z"/>
	</g>
	<g>
		<path d="M175.74,88.351c-0.646-0.643-1.291-1.288-3.224-0.643l-7.095,2.579c-5.157,2.579-9.028,5.804-11.607,10.319
			c-3.224,7.091-3.224,15.478,1.288,25.15c0.646,1.934,1.291,2.58,3.224,1.934c9.674-3.224,16.123-9.028,19.347-16.123
			c1.292-4.513,1.937-10.319,0.646-15.477L175.74,88.351z M173.807,102.54l-1.291,7.094c-1.935,4.512-6.45,9.028-13.543,11.607
			c-1.933-3.225-1.933-7.095-1.933-9.027c0-3.224,0-6.45,1.933-9.028c2.579-3.87,6.448-7.74,12.898-10.319L173.807,102.54z"/>
	</g>
	<g>
		<path d="M179.61,68.361l-8.384,19.99c-1.289,1.937-0.645,2.582,1.29,3.87c1.291,0.645,2.579,0.645,3.224-1.288l9.028-19.993
			c0.646-1.937,0.646-2.579-1.289-3.87C182.188,67.07,180.897,67.07,179.61,68.361z"/>
	</g>
	<g>
		<path fill="#858585" d="M137.692,85.126c12.252-1.933,19.348-8.382,21.281-18.056l-1.289-14.832
			c-5.161,0.643-9.031,2.579-13.543,5.159C136.401,63.845,133.821,72.874,137.692,85.126z"/>
	</g>
	<g>
		<path d="M160.264,51.593c-0.646-0.646-1.291-1.937-3.224-1.937c-8.387,1.291-14.836,4.516-19.348,11.611
			c-4.516,5.803-5.161,14.186-3.224,25.15l3.224,1.291c10.961-1.937,18.057-6.449,21.281-12.898
			C162.842,67.07,163.488,59.331,160.264,51.593z M155.749,55.463l1.291,7.092l-2.58,9.031c-1.937,5.158-7.095,8.383-14.834,10.315
			l-1.288-6.449c0-3.867,1.288-8.382,3.224-11.607C144.786,59.331,149.298,56.751,155.749,55.463z"/>
	</g>
	<g>
		<path d="M166.712,32.892l-10.963,18.055c-1.289,1.292-0.646,3.225,0.645,3.871c1.291,0.645,2.58,0.645,3.871-0.646l10.962-19.348
			c1.29-1.29,1.29-1.933-0.645-3.224C169.291,30.31,168,30.955,166.712,32.892z"/>
	</g>
	<g>
		<path fill="#858585" d="M128.018,43.853c11.608-5.803,17.411-14.186,16.123-23.859l-4.515-12.898
			c-4.513,1.288-8.383,3.867-11.608,8.382C121.569,23.218,121.569,32.892,128.018,43.853z"/>
	</g>
	<g>
		<path d="M146.074,27.085c2.579-7.091,0.646-14.831-4.512-21.926l-2.583-1.288c-9.027,3.225-14.186,8.383-16.765,16.123
			c-2.583,7.091-1.936,16.122,3.868,25.15l3.225,0.646C138.979,41.274,144.141,34.825,146.074,27.085z M142.203,21.927l-1.287,4.515
			c-1.291,5.159-4.515,9.674-11.61,13.541c-2.58-5.159-3.225-8.382-3.225-11.607l0.645-6.449c1.938-5.158,5.804-8.382,11.611-11.607
			C140.917,14.187,142.203,18.057,142.203,21.927z"/>
	</g>
	<g>
		<path d="M148.653-13.543c0-1.933,0-3.224-1.933-3.224c-1.292,0-2.58,0-3.224,1.291l-6.45,21.281c-0.645,1.291,0,3.224,1.933,3.224
			c1.291,1.292,2.583,0,3.224-1.933L148.653-13.543z"/>
	</g>
	<g>
		<path fill="#858585" d="M227.332,136.719l-14.189,0.646l4.518,13.541c5.804,7.746,15.477,10.971,27.729,7.746
			C243.454,145.75,237.007,138.655,227.332,136.719z"/>
	</g>
	<g>
		<path d="M220.236,133.494l-7.736,1.292c-1.29,0-1.936,1.291-1.936,2.579l1.291,7.741c2.578,5.8,5.158,9.673,9.026,12.249
			c6.449,5.165,14.831,6.45,25.151,3.874l1.936-2.576c-1.936-10.97-5.806-17.416-12.898-21.932
			C230.557,134.139,226.042,132.852,220.236,133.494z M224.107,154.128c-3.871-3.224-6.448-8.379-7.739-14.828
			c5.159-1.291,10.964-1.291,16.122,1.934c4.517,3.224,7.74,7.743,9.674,15.477C234.427,158.002,228.624,157.353,224.107,154.128z"
			/>
	</g>
	<g>
		<path d="M192.509,123.178c-0.646,1.934-0.646,2.578,1.288,3.866l18.059,12.256c1.287,1.288,2.578,1.288,3.226-0.646
			c1.288-1.291,1.288-2.579-0.646-3.87l-18.058-12.253C195.087,121.887,194.441,121.887,192.509,123.178z"/>
	</g>
	<g>
		<path fill="#858585" d="M211.855,99.961c7.094,7.094,16.769,7.737,28.375,2.579c-3.871-11.607-10.965-18.056-21.281-18.056
			l-14.189,3.225L211.855,99.961z"/>
	</g>
	<g>
		<path d="M226.688,83.193l-15.478-0.646c-3.871,0.646-6.45,1.937-7.095,2.58c-1.934,1.291-1.934,1.937-1.934,3.225l3.223,7.74
			c2.58,4.515,6.451,7.74,10.964,10.318l25.153-0.646l1.933-3.87C238.939,91.576,233.781,85.771,226.688,83.193z M207.984,88.996
			l16.77-1.288c5.157,1.933,9.027,6.449,12.253,13.541l-18.702,0.645C213.788,99.315,210.564,94.8,207.984,88.996z"/>
	</g>
	<g>
		<path d="M182.188,78.035c-0.646,1.934,0,2.579,1.934,3.224l19.993,8.382c1.289,1.292,2.578,0.646,3.224-1.291
			c0.646-1.288,0.646-2.58-1.288-3.225l-20.636-8.382C184.122,75.453,182.834,76.744,182.188,78.035z"/>
	</g>
	<g>
		<path fill="#858585" d="M195.732,67.07c5.805,8.382,15.478,10.965,28.375,7.74c-3.226-12.898-9.027-20.638-19.349-21.929
			l-13.543,1.291L195.732,67.07z"/>
	</g>
	<g>
		<path d="M226.688,74.165c-2.578-10.319-6.449-17.414-13.545-21.283c-4.512-1.934-9.672-3.225-15.477-3.225l-7.736,1.937
			l-1.291,2.579l1.934,7.74c1.291,5.158,4.516,9.674,8.386,12.252c7.094,4.513,15.478,5.804,25.151,2.58
			C226.042,76.744,226.688,75.453,226.688,74.165z M210.564,57.397c3.869,1.933,7.095,7.74,9.672,14.832
			c-7.736,1.291-13.543,0.645-18.055-1.934c-4.517-3.225-7.096-8.383-8.386-14.832C200.245,54.172,205.404,54.172,210.564,57.397z"
			/>
	</g>
	<g>
		<path d="M169.937,41.274c-0.646,1.291-0.646,1.933,1.289,3.225l18.057,11.606l3.871-0.643c1.287-1.291,0.643-2.582-0.646-3.224
			l-18.702-12.255C172.516,39.341,171.226,39.341,169.937,41.274z"/>
	</g>
	<g>
		<path fill="#858585" d="M187.348-2.578L173.807,2.58l9.027,10.965c8.383,6.449,18.059,5.803,28.376-1.291
			C204.76,0.646,197.02-3.869,187.348-2.578z"/>
	</g>
	<g>
		<path d="M172.516,0.646c-1.29,1.288-1.29,1.934-0.646,3.225l3.87,6.449c3.225,5.158,7.739,7.736,12.896,9.674
			c7.096,1.933,15.479,0,24.506-5.807c1.291-0.642,1.291-1.933,0.646-3.867c-5.804-9.031-12.251-14.189-19.347-15.48l-15.477,2.583
			L172.516,0.646z M177.673,3.871c5.161-3.225,10.319-4.515,16.124-3.87c4.516,0.645,9.674,4.512,14.188,10.961
			c-7.094,3.87-12.897,5.162-18.057,3.225C184.769,12.9,180.255,9.029,177.673,3.871z"/>
	</g>
	<g>
		<path d="M149.944-2.578c-0.646,1.934,0.646,2.579,1.934,3.224l21.284,5.158c1.933,0,2.579-0.646,3.224-1.934l-1.937-3.225
			l-21.28-5.161C151.878-5.16,150.59-3.869,149.944-2.578z"/>
	</g>
	<g>
		<path fill="#858585" d="M198.313,205.721c10.318-9.024,12.897-18.698,9.674-27.723l-7.74-11.613l-9.028,10.964
			C186.706,187.023,189.283,196.048,198.313,205.721z"/>
	</g>
	<g>
		<path d="M211.855,184.447c0-4.522-1.291-9.674-4.518-14.195l-5.802-5.8c-0.646-0.648-2.58-0.648-3.226,0l-5.804,5.8
			c-3.226,3.873-5.161,9.031-5.803,13.547c-0.646,8.382,2.577,15.474,10.313,23.22h3.871
			C207.984,199.921,211.855,192.823,211.855,184.447z M207.339,185.089v0.642c0,4.516-2.579,9.674-8.382,15.48
			c-4.516-5.164-7.096-10.964-7.096-15.48v-1.284c0-5.164,3.226-10.322,7.742-14.195
			C204.76,174.773,206.693,179.925,207.339,185.089z"/>
	</g>
</g>
<path id="PATH77" fill="none" stroke="#000000" stroke-width="3" stroke-miterlimit="100" d="M370.59,585.26H3.92V2.74h366.67
	V585.26L370.59,585.26z"/>
</svg>
