<?xml version="1.0" encoding="utf-8"?>
<!-- Generator: Adobe Illustrator 13.0.0, SVG Export Plug-In . SVG Version: 6.00 Build 14948)  -->
<!DOCTYPE svg PUBLIC "-//W3C//DTD SVG 1.1//EN" "http://www.w3.org/Graphics/SVG/1.1/DTD/svg11.dtd">
<svg version="1.1" id="圖層_1" xmlns="http://www.w3.org/2000/svg" xmlns:xlink="http://www.w3.org/1999/xlink" x="0px" y="0px"
	 width="372px" height="587px" viewBox="0 0 372 587" enable-background="new 0 0 372 587" xml:space="preserve">
<g>
	<g>
		<path fill="#858585" d="M301.422,284.494l8.503-19.617c-24.194,2.615-41.196,13.078-51.659,32.693
			c-5.229,9.154-7.846,18.964-7.846,28.117l51.002,32.039c8.503-17.652,22.887-35.31,41.85-54.926l25.504-22.886
			c-16.348-8.5-32.043-9.809-48.391-5.23L301.422,284.494z"/>
	</g>
	<g>
		<path d="M307.961,275.991l4.579-10.463l0.654-0.651l-0.654-2.617l-3.271-0.652c-24.85,2.615-43.156,13.729-53.619,34.656
			c-5.23,9.809-7.846,19.615-8.5,29.424l1.961,2.615l50.351,32.04l2.615,0.654l1.96-1.961c8.503-17.001,22.887-34.657,41.197-52.966
			l25.501-24.195l1.309-2.614l-1.309-2.614C349.158,266.184,328.232,265.528,307.961,275.991z M298.152,284.494l1.31,1.96h3.924
			l16.999-8.499c13.732-3.924,27.464-3.27,41.853,3.27c-9.157,7.845-18.966,16.347-28.119,26.807
			c-15.038,15.041-26.156,30.733-34.001,45.12l-46.428-29.424c1.308-9.81,3.925-18.967,9.154-27.465
			c8.499-14.389,22.231-23.542,41.193-27.466l-5.885,14.387V284.494L298.152,284.494z"/>
	</g>
	<g>
		<path d="M340.001,283.185c-17.653,6.539-33.346,15.693-47.731,28.116c-7.193,5.889-13.078,11.771-17.002,17.656
			c-0.654,0.654,0,1.96,0.653,2.615h2.615l16.348-17.653c13.732-11.772,30.079-20.926,46.427-26.81c1.31,0,1.96-0.655,1.31-2.615
			C341.965,283.185,341.311,283.185,340.001,283.185z"/>
	</g>
	<g>
		<path d="M287.689,281.875l-5.229,11.118c-3.271,9.153-3.271,18.308,0.655,28.771c0,0.654,1.306,1.31,2.613,0.654
			c0.654,0,1.311-0.654,0.654-1.96c-2.613-9.81-3.27-17.656-0.654-26.156c1.311-4.578,3.271-7.848,5.23-9.808l-0.65-2.619H287.689z"
			/>
	</g>
	<g>
		<path fill="#858585" d="M256.305,462.35l-4.578,32.694c-1.307,24.195,3.924,41.197,15.695,51.006
			c1.961-5.888,7.189-13.731,13.729-24.851l18.312,18.312c18.962,12.423,44.463,18.962,76.503,20.269l-7.845-97.43
			c-5.884-6.539-13.732-12.423-23.54-18.308c-19.617-12.423-38.579-17.656-58.196-17.002L256.305,462.35z"/>
	</g>
	<g>
		<path d="M253.689,459.734l-0.654,1.31l-4.578,35.311c-1.307,24.846,4.578,42.503,17.001,52.311l2.614,0.654l1.965-1.963
			l11.113-19.617c6.539,7.849,15.041,14.387,26.811,20.271c17.656,9.154,39.888,13.732,67.354,15.038l2.614-1.306l1.307-1.964
			l-7.846-98.083l-0.653-1.961c-7.193-6.538-15.038-13.077-25.501-18.963c-19.617-12.423-39.233-17.655-58.852-17.002
			c-0.653,0-1.309,0-1.963,0.655L253.689,459.734z M266.113,540.816c-7.193-9.81-11.117-22.887-11.117-39.889
			c0-14.384,1.309-26.807,4.578-37.925l28.771-32.694c17.001-0.653,34.002,4.579,51.655,14.388
			c10.463,5.885,18.312,12.424,24.85,18.963l7.193,92.198c-29.425-1.31-52.965-7.193-70.622-18.966l-17.652-16.999
			c-0.653-1.309-1.31-1.963-2.617-1.963l-3.271,1.31C272.652,527.738,268.729,534.932,266.113,540.816z"/>
	</g>
	<g>
		<path d="M287.689,447.966c-1.961,0-1.961,1.307-1.307,2.615l24.192,33.349c18.965,25.501,37.928,45.118,57.544,61.466h2.615
			c1.309-1.31,0.653-1.964,0-3.271c-19.617-15.692-38.579-35.964-57.541-60.813l-23.541-32.693
			C288.999,447.312,288.346,446.657,287.689,447.966z"/>
	</g>
	<g>
		<path d="M293.577,459.734c-1.31,1.31-2.617,7.192-4.578,16.348c-1.96,13.078-2.615,24.195-1.31,34.655l1.963,1.963l1.962-2.614
			c-1.306-9.809-0.654-20.926,1.309-33.35l4.575-16.348c0-0.654,0-1.31-1.96-1.964C294.884,457.774,294.229,457.774,293.577,459.734
			z"/>
	</g>
	<g>
		<path d="M313.846,487.199l0.654,14.384c0.654,11.117,2.615,20.926,5.885,30.079l1.963,1.31c1.961-0.653,1.961-1.31,1.961-2.617
			c-3.27-9.154-5.229-18.963-5.885-28.771l-0.654-13.732c0-1.306-0.653-1.96-1.96-1.96
			C315.154,485.891,313.846,485.891,313.846,487.199z"/>
	</g>
	<g>
		<path d="M308.616,481.967c0,0.654,0.653,1.31,2.614,1.31l18.962,2.614c14.388,1.31,28.118,4.578,39.232,8.499
			c1.311,0.654,2.618,0,2.618-1.306c0.651-0.654,0.651-1.964-1.309-2.615c-11.117-3.924-24.848-7.192-39.889-8.502l-19.616-2.615
			C309.271,479.352,308.616,480.006,308.616,481.967z"/>
	</g>
	<g>
		<path fill="#858585" d="M135.99,432.925l-11.117,0.654c-9.154,2.615-18.308,7.193-26.81,15.691L77.14,472.158
			c-5.233,5.231-9.808,8.502-14.387,9.809l35.31,1.963l-40.54,54.928l24.847,6.538c19.617,2.614,37.273,1.307,53.62-4.578
			c15.693-5.886,29.425-13.078,41.848-20.924l13.732-9.808l-3.271,12.423c-1.963,9.153-5.233,15.038-7.848,18.309
			c7.848-2.615,16.347-7.846,24.194-14.385c17.652-13.731,27.461-32.043,29.426-53.619L135.99,432.925z"/>
	</g>
	<g>
		<path d="M237.343,472.813l-1.964-3.271l-98.735-39.888h-0.654l-11.772,0.653c-9.808,2.615-18.962,7.85-28.771,16.349
			c-6.539,5.884-13.078,13.077-19.617,20.271l-6.539,8.5c-1.96,1.31-5.23,3.271-7.194,3.271c-1.306,0.653-2.615,1.309-2.615,3.27
			l2.615,3.27l28.774,3.27c-18.311,22.887-30.08,39.233-35.313,47.736l-1.306,2.615l0.655,0.653l1.96,1.96l26.155,7.193
			c20.271,2.615,37.924,1.306,53.62-4.578c19.617-7.845,36.615-16.348,50.348-26.155c-3.27,11.117-6.539,17.656-9.154,20.927
			l-0.654,1.96l0.654,1.309c0.655,1.961,1.96,2.615,3.27,1.961c9.154-3.27,17.001-8.499,26.155-15.692
			C224.919,513.354,235.379,495.698,237.343,472.813z M100.68,482.621c-0.654-0.654-1.963-1.961-3.269-1.961l-24.85-0.654
			l9.154-9.153c5.233-7.192,11.772-13.731,18.311-19.616c7.845-6.539,16.347-11.117,24.192-13.732l10.463-1.309l95.469,37.928
			c-3.271,26.807-17.002,46.423-41.85,59.501c3.27-7.845,5.885-15.692,6.539-22.886v-0.651l-1.311-2.618l-3.268,0.654l-14.385,9.809
			c-12.426,7.849-26.155,14.388-41.197,19.616c-20.922,7.849-44.463,7.849-71.928-0.654l37.927-51.002l0.651-1.961L100.68,482.621z"
			/>
	</g>
	<g>
		<path d="M171.299,463.004c-15.693,16.348-34.655,31.386-56.235,46.427l-29.425,17.002c-0.655,0.651-1.306,1.307-0.655,2.615
			l1.964,0.654l29.425-17.002c22.886-15.692,41.848-30.733,57.541-46.428c0.654-1.309,0.654-2.613,0-3.27L171.299,463.004
			L171.299,463.004z"/>
	</g>
	<g>
		<path d="M137.95,492.43l-3.924,13.731c-3.921,9.154-9.154,16.348-15.693,22.231c-1.306,0.654-1.96,1.31-0.655,2.614
			c0.655,1.311,1.964,1.311,2.618,0c7.845-5.229,13.078-13.077,17.653-23.54l3.924-14.384l-1.309-1.964L137.95,492.43z"/>
	</g>
	<g>
		<path d="M175.223,467.583c-0.655,0-1.309,0.651-1.309,1.96l-0.655,14.387c-2.615,11.114-7.19,20.923-15.038,28.771
			c-0.654,0.653-0.654,1.306,0,1.961c1.309,1.309,2.615,1.309,3.27,0c8.5-8.5,13.078-18.309,15.693-29.426l0.654-15.692
			C177.838,467.583,177.184,466.928,175.223,467.583z"/>
	</g>
	<g>
		<path d="M145.798,485.891l-35.309,3.271c-1.309,0-1.964,0-1.309,1.96l2.615,1.31l11.118-1.31l22.886-1.306l2.615-1.311
			L145.798,485.891z"/>
	</g>
	<g>
		<path d="M100.026,464.313c-1.309,0-1.963,1.306-1.309,2.613l2.615,0.655l14.387-3.271l29.425,1.307l1.96-1.307
			c0.654-1.31,0-1.964-1.306-1.964l-30.734-1.96L100.026,464.313z"/>
	</g>
	<g>
		<path d="M209.225,460.39c-1.961,0-1.961,0.654-1.961,2.614l0.654,13.078c0,9.809-1.311,18.308-3.925,24.195
			c0,1.306,0,2.613,0.655,2.613c1.959,0.655,2.613,0,2.613-0.653c3.271-6.539,4.579-15.692,5.23-25.501l-1.307-14.388
			C211.188,460.39,210.532,460.39,209.225,460.39z"/>
	</g>
	<g>
		<path fill="#858585" d="M118.333,372.114c-4.575-3.925-11.114-7.849-19.617-11.117c-16.347-7.845-33.349-9.154-51.002-5.886
			l3.27,5.886c1.96,3.924,5.229,7.849,8.499,10.463l-15.692,7.849c-11.769,8.498-22.886,19.616-33.349,34.654
			c3.27,2.614,7.848,5.229,13.078,7.193c11.118,5.229,22.231,7.845,32.694,8.499c17.656,1.309,31.389,0.653,41.197-0.654
			c14.383-1.961,26.807-8.5,35.309-18.308c8.5-9.154,8.5-18.309,0-27.465L118.333,372.114z"/>
	</g>
	<g>
		<path d="M142.529,396.961l-0.655-3.924c-1.309-8.5-8.499-15.693-21.577-23.538c-7.193-5.231-14.387-9.808-21.58-13.077
			c-17.002-6.539-34-7.849-52.311-4.579l-1.96,1.31v1.961v1.31l2.615,4.575l6.539,9.152c-16.347,7.193-31.385,20.927-45.118,41.853
			l-1.309,1.961l1.963,3.271c13.729,9.152,28.771,14.387,47.078,15.691c17.656,1.31,32.695,0.654,42.503-1.306
			c15.693-2.618,27.465-8.503,36.619-18.966C140.565,407.424,142.529,402.193,142.529,396.961z M116.373,374.729l0.655,0.654
			l9.154,5.229c5.229,4.58,8.499,9.154,9.808,13.732c0.654,4.579-1.309,9.154-5.233,13.732c-8.5,9.154-19.617,15.038-33.346,17.653
			c-9.809,1.309-23.541,1.964-41.197,0.653c-14.383-1.306-27.461-5.229-40.539-13.078c9.154-13.076,19.617-24.191,30.731-31.385
			l13.732-7.193l2.615-2.615v-0.653l-1.306-2.615l-8.503-11.116c15.693-2.615,30.734,0,45.772,6.539
			C106.565,367.536,111.794,371.46,116.373,374.729z"/>
	</g>
	<g>
		<path d="M115.719,387.807c-18.962,1.311-38.579,4.58-58.196,11.118l-25.501,9.153c-1.309,0-1.963,1.306-1.309,2.615
			c0.655,0.654,1.309,1.309,2.615,0.654c6.539-2.615,14.387-5.886,24.85-8.504c20.268-5.884,39.233-9.808,58.195-11.113l1.306-1.31
			L115.719,387.807z"/>
	</g>
	<g>
		<path d="M69.292,366.881c-0.655,1.311,0,1.965,1.309,1.965l11.114,5.229c8.502,4.578,17.002,10.463,23.541,18.313
			c1.309,1.305,1.963,1.305,3.269,0c0.655-1.311,0.655-1.965,0-3.271c-7.845-7.193-16.347-13.732-24.846-18.312l-11.772-5.885
			C69.946,364.921,69.292,365.575,69.292,366.881z"/>
	</g>
	<g>
		<path d="M98.717,390.422c-8.5,13.078-17.002,20.926-24.847,24.85c-0.654,0.651-1.309,1.961-0.654,2.615
			c0.654,1.961,1.309,1.961,2.615,0.654c8.502-3.924,17.656-12.428,26.156-26.155c1.309-1.31,0.654-1.964,0-1.964H98.717z"/>
	</g>
	<g>
		<path d="M52.944,387.152c-0.654,1.31,0,1.964,1.309,2.615l7.845,1.963c5.233,1.961,10.463,3.27,14.387,5.885
			c1.309,0.654,2.615,0,2.615-0.654c1.309-1.961,0.655-2.615-0.654-2.615c-4.576-2.613-9.154-4.578-15.693-6.539l-7.845-1.959
			C54.253,385.191,52.944,385.848,52.944,387.152z"/>
	</g>
	<g>
		<path fill="#858585" d="M112.449,245.912c-0.655,5.887-2.615,11.118-5.23,15.696c-5.233-3.27-11.117-6.539-18.311-9.809
			c-15.039-7.193-27.461-9.808-38.579-9.808l3.924,9.808c1.96,8.5,1.96,16.999,0,24.848c-1.963,10.463-1.309,20.925,1.96,32.039
			c4.579,10.463,9.809,17.656,17.656,20.926l31.386,8.5c14.387,3.27,24.195,7.193,29.425,11.117l9.809-9.153
			c6.539-6.539,9.808-13.077,9.154-17.656c-0.651-9.153-2.615-19.616-5.885-30.734c-7.193-22.886-18.962-41.193-34.655-53.617
			L112.449,245.912z"/>
	</g>
	<g>
		<path d="M111.794,235.452c-1.96,0-1.96,1.306-1.96,2.615v0.655v0.651c0,5.888-1.309,11.771-3.924,17.656
			c-7.193-4.578-14.387-8.5-22.231-11.769c-12.423-4.579-23.541-6.539-34.003-6.539c-0.655,0-1.96,0.651-1.96,1.96v3.27
			c0.654,0,1.96,3.269,3.27,9.154c1.96,7.193,1.96,15.041,0,23.541c-1.964,10.463-1.309,21.577,2.615,32.694
			c3.924,12.424,10.463,19.616,19.617,22.887c5.884,2.614,13.078,4.578,22.231,6.539l20.926,5.229
			c6.539,1.964,11.769,4.578,15.693,7.848h3.924c15.038-10.463,21.577-20.271,20.922-29.425
			c-0.651-10.463-2.615-21.577-6.539-32.694c-7.845-22.886-18.962-41.194-35.31-54.271H111.794z M56.214,289.069l3.27-24.192
			c0-6.539-1.96-13.078-3.924-19.616c10.463,0.651,21.58,3.92,33.349,10.46l16.347,9.156h2.615l1.963-1.309
			c3.27-5.23,5.23-11.117,5.885-18.308c13.078,13.077,22.886,29.425,29.425,49.692c2.615,10.463,4.579,18.966,5.23,27.465v1.31
			c0,5.229-5.23,12.424-16.347,21.578c-6.539-4.58-18.962-9.154-37.27-13.078l-20.926-5.886
			c-5.884-1.963-10.463-6.539-13.732-13.731C58.178,305.416,56.214,297.57,56.214,289.069z"/>
	</g>
	<g>
		<path d="M68.637,255.068c-1.306,1.307-1.96,1.961-1.306,3.27l21.577,26.807c16.347,20.927,32.694,37.273,49.042,50.352
			c1.309,0.653,1.309,0.653,2.615,0c0.655-0.654,0.655-1.961,0-3.271c-15.692-12.424-32.04-29.425-49.042-49.042l-20.922-27.464
			L68.637,255.068z"/>
	</g>
	<g>
		<path d="M64.062,286.454c0,1.31,0,2.615,1.306,3.27c10.463,4.578,21.581,6.54,32.695,4.578l1.309-1.309
			c0-1.96-0.654-2.614-2.615-1.96c-9.808,1.306-19.617-0.654-29.425-5.233C66.022,285.145,65.368,285.8,64.062,286.454z"/>
	</g>
	<g>
		<path d="M118.988,264.877l-2.615,13.729c-1.963,10.463-6.539,17.656-11.772,21.58c-1.306,0.654-1.306,1.961-0.651,2.615
			l2.615,0.654c6.539-4.578,11.114-13.077,13.732-22.886l2.615-15.693l-1.964-1.309
			C119.643,263.568,118.988,263.568,118.988,264.877z"/>
	</g>
	<g>
		<path d="M72.561,308.686c0,0.655,0,1.311,1.309,1.965c18.308,5.885,34,8.498,45.772,8.498l1.96-2.613l-1.96-1.311
			c-11.772,0.654-26.81-2.615-44.466-8.498C73.87,306.727,72.561,306.727,72.561,308.686z"/>
	</g>
	<g>
		<path d="M131.411,284.494c-0.654,0-1.306,1.306-1.306,1.96l0.651,12.424c0,8.502-2.615,17.001-5.884,23.54
			c-0.655,1.311,0,2.615,1.309,2.615c1.306,0.654,1.96,0.654,1.96-0.654c3.924-7.845,6.539-15.693,6.539-25.501l-0.654-12.424
			C134.026,285.145,133.375,284.494,131.411,284.494z"/>
	</g>
	<g>
		<path fill="#D96038" d="M181.107,355.768v75.853h91.545v-75.853H181.107z"/>
	</g>
	<g>
		<path d="M181.107,353.152c-1.309,0-2.615,1.306-2.615,2.613v75.854c0,1.96,1.306,2.614,2.615,2.614h91.545
			c1.959,0,3.269-0.654,3.269-2.614v-75.854c0-1.309-1.31-2.613-3.269-2.613H181.107z M270.037,358.382v71.273h-86.315v-71.273
			H270.037z"/>
	</g>
	<g>
		<path d="M225.57,370.807l-1.307,44.465c0,1.307,1.307,1.961,2.615,1.961l1.96-1.961l0.654-43.812l-1.96-2.614
			C226.227,368.846,225.57,369.499,225.57,370.807z"/>
	</g>
	<g>
		<path d="M243.227,374.074l-0.653,39.232c0,1.311,0.653,1.965,1.31,1.965l2.614-1.965v-39.232l-1.31-1.96
			C243.227,371.46,243.227,372.114,243.227,374.074z"/>
	</g>
	<g>
		<path d="M207.918,372.114l-0.654,41.192c0,1.311,0,1.965,1.961,1.965l1.963-1.965l0.654-41.192l-1.964-1.964
			C208.572,370.15,207.918,370.807,207.918,372.114z"/>
	</g>
	<g>
		<path fill="#D96038" d="M337.387,395c0-3.924-4.576-7.193-13.731-10.463c-9.81-3.27-18.309-2.614-26.156,1.961
			c-11.769,7.193-18.308,30.734-18.308,71.928l14.387,5.889l20.923,1.306c3.924-3.271,7.193-9.153,9.154-18.309
			c1.963-11.116,4.578-19.615,5.887-24.194l5.885-16.348L337.387,395z"/>
	</g>
	<g>
		<path d="M331.502,384.537c-5.885-2.614-11.117-3.924-17.002-4.578c-7.193-0.65-13.078,1.311-18.962,4.578
			c-12.423,7.849-18.962,32.695-18.962,73.889l1.96,1.964l15.692,7.193c10.463,2.614,17.655,2.614,21.58-0.655
			c3.271-1.963,5.885-5.884,8.499-10.462l7.193-32.695l2.615-5.884C338.04,407.424,340,399.576,340,395
			C340.001,391.73,337.387,388.462,331.502,384.537z M298.808,388.462c3.925-2.614,9.81-3.925,15.692-3.271
			c4.579,0,9.809,1.961,14.387,3.925l5.886,5.884l-5.886,21.577l-1.963,5.885l-4.576,16.347
			c-1.963,13.732-5.231,21.581-9.808,24.195c-1.964,1.961-7.193,1.961-13.732,0c-5.229-0.654-11.116-3.27-16.348-6.538
			C282.46,417.887,287.689,395.654,298.808,388.462z"/>
	</g>
	<g>
		<path fill="#D96038" d="M203.339,446.657l-2.614,13.731c-0.654,9.153,0.654,15.692,3.27,18.309
			c2.615,1.963,9.154,3.924,19.617,5.884c11.769,1.964,19.615,4.579,22.886,5.888c3.271,2.615,7.192,1.961,11.769-1.309
			c5.889-5.885,10.463-9.154,13.732-9.81l13.732-6.538c2.615-2.615,3.924-5.229,5.229-8.499c0.654-3.271,0-7.849-2.614-14.388
			l-3.271-9.809c-6.539-3.924-15.038-6.539-25.501-8.499C239.957,429.655,220.995,434.233,203.339,446.657z"/>
	</g>
	<g>
		<path d="M201.379,444.696l-0.654,1.961c-3.925,17.656-3.27,29.425,1.961,33.349c2.617,2.615,10.463,5.229,21.58,7.193
			l20.922,5.885l9.81,1.306l17.655-12.423c7.193-3.27,12.424-5.885,14.388-7.845c3.271-1.964,5.229-5.233,6.538-9.157
			c0.65-3.27,0-8.499-1.963-15.038l-4.575-11.118l-1.31-1.306c-6.539-3.924-15.692-6.539-26.155-7.848
			C239.303,427.04,219.688,431.619,201.379,444.696z M205.954,448.617c16.347-11.77,33.349-15.692,51.005-14.384
			c10.463,0.654,18.962,3.27,25.501,7.192c3.924,9.154,6.539,15.693,6.539,20.923l-0.653,1.311
			c-0.654,2.614-1.962,5.229-3.925,6.538l-13.729,6.539l-17.655,12.424l-5.886-0.655c-3.269-1.96-10.461-4.575-21.58-6.538
			c-11.113-1.961-17.651-3.27-19.615-5.885c-1.961-1.31-2.615-5.229-2.615-9.809C203.339,463.004,203.993,456.466,205.954,448.617z"
			/>
	</g>
	<g>
		<path fill="#D96038" d="M175.877,352.498l-6.539-15.693c-5.233-11.117-11.772-17.656-18.965-19.615
			c-7.19-1.965-13.078-0.654-18.962,5.884l-9.808,13.077c-1.96,1.961-5.23,7.846-9.154,18.963l-9.809,30.08
			c-3.924,9.808-5.884,16.347-5.229,18.961c0,3.271,1.96,6.539,5.884,9.81c5.884,3.925,13.732,7.849,24.846,12.423
			c6.539-1.96,13.078-5.885,20.271-12.423C163.451,400.23,171.954,379.309,175.877,352.498z"/>
	</g>
	<g>
		<path d="M151.028,314.57c-5.884-1.961-9.808,0.654-13.078,6.539c3.27-1.961,7.193-2.615,11.117-1.308
			c9.809,2.615,18.308,13.732,24.192,32.695c-3.269,24.846-11.769,43.81-24.192,57.541c-7.193,7.192-14.387,11.771-20.926,13.73
			l-9.808-3.923c-5.23-3.271-9.809-5.885-13.078-8.5c-3.27-1.964-5.23-4.578-5.23-7.193c0-3.27,1.96-9.153,5.23-18.307l6.539-19.617
			c4.579-17.002,9.154-26.155,11.118-28.119l6.539-7.193c3.27-4.575,5.885-7.846,8.5-9.152c-5.23-0.654-9.809,1.309-13.078,6.538
			l-5.23,5.232c-3.27,2.614-7.848,13.077-13.078,31.386l-6.539,19.616c-3.27,9.809-5.233,16.348-5.233,20.271
			c0.654,3.271,2.618,7.193,7.193,11.114c5.884,4.578,13.732,8.503,24.85,12.427l1.306,0.651
			c7.848-1.961,15.693-6.539,22.886-13.729c14.387-14.387,23.541-34.658,27.465-62.119v-1.31l-7.193-16.347
			C164.76,323.729,158.221,316.534,151.028,314.57z"/>
	</g>
	<g>
		<path fill="#D96038" d="M192.876,416.577c-9.154-11.114-21.577-17.652-37.27-19.616h-8.502c-6.539,0-11.114,0.654-14.384,2.615
			c-4.579,3.924-11.117,13.076-19.617,28.119c-1.309,2.613,0,7.845,2.615,15.038c3.269,8.502,5.229,14.387,5.229,17.655
			c0,3.925,9.157,9.153,27.465,13.732l34.003,8.499c3.921,1.309,7.19,0,11.114-5.885c3.27-5.885,6.539-14.388,8.503-26.155
			C203.993,438.158,201.379,427.04,192.876,416.577z"/>
	</g>
	<g>
		<path d="M155.606,394.346h-9.809c-6.539,0-11.117,0.654-14.387,3.271c-3.27,1.961-6.539,6.538-11.769,14.387l-8.502,15.038
			c-1.96,3.27-1.306,9.809,3.27,18.963c1.963,6.538,3.924,11.117,3.924,14.387c0,3.925,4.579,7.846,13.078,11.77l49.696,13.077
			h7.193c6.539-3.27,12.423-15.038,16.349-34.654c2.613-11.117-0.655-22.231-7.85-32.694
			C187.646,404.154,173.914,396.961,155.606,394.346z M145.144,398.925l9.808,0.651c16.348,1.963,28.771,9.156,37.924,20.925
			c4.579,7.849,7.192,15.693,7.192,22.887l-0.653,6.539c-3.271,17.656-7.845,27.464-13.077,30.079h-2.616l-17.001-3.924
			c-28.771-6.539-43.809-11.77-43.809-15.692l-3.924-17.002c-2.615-7.192-3.924-11.769-3.269-13.731
			c7.193-15.038,13.732-24.848,18.962-28.116C136.644,400.23,140.565,399.576,145.144,398.925z"/>
	</g>
	<g>
		<path fill="#D96038" d="M298.808,319.803c-9.809-3.924-17.001-5.884-20.926-5.232c-4.575,0.654-9.809,4.578-16.999,12.428
			l-8.502,11.77c0.654,14.387,6.539,27.463,16.348,39.888c4.578,5.884,9.153,11.114,13.731,14.384l21.577-5.23
			c7.193-3.27,13.078-5.884,17.002-8.498c3.924-2.619,5.885-11.117,4.578-25.504c-0.654-14.385-2.614-22.231-7.193-24.848
			L298.808,319.803z"/>
	</g>
	<g>
		<path d="M259.574,324.379l-9.809,13.077v1.31c0.653,15.039,6.539,28.771,16.348,40.543L280.5,395l1.96,0.654
			c6.539-0.654,13.731-2.617,22.231-5.232l17.655-9.152c2.615-1.961,4.576-6.539,5.886-13.732c0.653-5.885,0.653-11.77,0-17.653
			c-0.654-13.077-3.271-20.926-7.849-22.886l-1.961-0.655c-19.616-10.463-32.694-15.041-41.192-14.387
			C272.652,312.609,266.768,316.534,259.574,324.379z M268.729,374.729c-7.846-11.117-12.424-22.887-13.731-35.31l11.116-13.731
			c5.229-5.886,9.154-8.5,11.77-8.5c5.233-0.653,18.311,3.922,37.928,13.729l1.961,1.31c2.614,0.654,3.924,6.539,5.232,17.656
			l0.651,7.846c0,11.117-1.961,17.655-4.575,19.615c-3.271,1.965-8.503,4.579-16.348,7.85l-20.271,5.229
			C277.882,385.848,272.652,380.613,268.729,374.729z"/>
	</g>
	<g>
		<path fill="#D96038" d="M186.992,304.109c-5.885,2.615-9.809,6.539-13.078,11.77c-3.924,4.579-4.575,13.078-2.615,22.887
			c1.309,5.229,3.269,9.809,4.578,13.732c17.652,6.538,35.309,8.499,55.581,3.924c10.46-1.964,18.308-4.579,24.847-7.849
			c3.924-3.269,7.193-10.464,9.153-22.886c1.31-11.77,0.655-19.617-1.96-22.887c-1.309-3.27-7.193-6.539-17.002-9.809l-20.926-6.539
			c-3.271-1.31-6.539-0.654-10.459,1.31l-12.428,8.499L186.992,304.109z"/>
	</g>
	<g>
		<path d="M200.725,294.302l-10.463,5.23c-3.924,1.96-7.194,3.27-9.154,4.577c-3.924,2.615-6.539,5.886-9.808,9.81
			c-5.885,9.153-5.23,22.231,2.615,39.886l0.654,1.309c17.656,6.539,36.619,7.849,56.89,3.924
			c10.46-1.309,18.309-4.578,26.155-7.848c5.229-3.924,8.5-12.424,10.46-24.848c1.31-12.423,0.654-20.271-1.96-24.85
			c-2.615-3.27-9.154-7.189-19.617-11.769l-20.271-6.539l-9.154,0.655c-1.961,0.654-4.578,2.614-8.499,5.229L200.725,294.302z
			 M175.877,317.188c1.96-3.924,5.23-6.539,7.845-7.848c1.309-1.311,4.579-3.27,9.154-5.23l11.117-5.231l15.038-9.809l5.888-0.655
			l21.577,7.193c8.5,3.925,13.078,6.539,15.038,8.502c1.964,3.271,1.964,10.461,1.31,21.578c-1.31,11.117-3.924,17.655-7.848,20.271
			c-5.885,3.271-14.385,5.884-24.191,7.845c-18.963,3.924-36.619,2.618-52.967-3.27c-3.27-8.499-4.579-15.692-4.579-21.577
			C173.259,323.729,173.914,319.803,175.877,317.188z"/>
	</g>
	<g>
		<path fill="#D96038" d="M165.415,413.309c-5.884,7.849-9.154,13.731-9.808,17.001c0,2.615,5.23,8.499,15.038,16.349
			c7.848,7.848,14.387,12.423,18.962,14.387h51.006c2.613,0,5.229-4.578,8.498-13.078c3.925-10.463,7.193-17.656,9.81-20.271
			l-84.352-26.156L165.415,413.309z"/>
	</g>
	<g>
		<path d="M175.223,398.925l-2.615,0.651l-10.463,13.73c-5.233,7.85-7.848,13.732-8.502,16.349c0,3.924,4.578,10.463,15.041,19.615
			l19.617,13.732c5.229,2.615,22.231,3.27,52.313,0.655l5.884-3.925l5.229-12.424c3.924-9.152,7.193-15.691,8.502-17.655
			l1.307-2.615l-1.96-1.96L175.223,398.925z M158.221,430.31c0.655-3.27,6.539-12.423,17.656-26.155l79.119,24.848l-15.039,30.079
			l-49.041-0.654l-19.617-13.729C162.8,436.849,158.221,432.925,158.221,430.31z"/>
	</g>
	<g>
		<path fill="#D96038" d="M220.341,361.65c0.654-18.308-1.31-28.771-5.885-32.693c-9.808-8.499-16.347-11.117-20.271-8.499
			l-16.349,15.692c-3.924,2.615-11.117,8.498-20.271,18.308c-10.463,11.117-16.347,20.271-17.653,26.812
			c-0.654,6.537,0.651,12.422,4.576,15.691l9.154,5.232c1.963,1.961,7.848,1.961,17.656,0c3.269-3.924,6.539-8.502,12.423-14.387
			C194.186,376.689,207.264,368.189,220.341,361.65z"/>
	</g>
	<g>
		<path d="M203.993,318.494l-11.117,0.654l-15.692,15.037c-5.23,1.965-12.423,8.504-21.577,18.313
			c-11.117,11.77-17.656,21.576-18.311,28.771c-1.306,9.808,2.618,17,11.772,22.23l2.615,0.654l20.271,0.654l1.96-0.654
			l11.771-15.038c11.114-10.464,22.232-18.966,35.31-24.851l1.961-2.615c0-19.615-2.615-31.385-6.539-34.653L203.993,318.494z
			 M212.493,330.917c3.924,2.618,5.231,11.118,5.231,26.156v2.618c-12.423,5.884-23.539,14.383-33.349,24.19
			c-6.539,5.886-11.118,11.117-14.387,16.349l-15.039,0.653l-3.269-2.614c-7.193-3.271-10.463-9.153-9.809-16.348
			c1.309-6.539,7.193-15.042,17.656-26.156c9.154-9.152,15.693-15.041,20.268-17l15.696-15.693
			C198.109,320.458,203.993,323.072,212.493,330.917z"/>
	</g>
	<g>
		<path fill="#D96038" d="M248.457,440.118c3.27,3.27,6.539,5.885,9.156,6.539l15.039,3.27h15.691
			c3.27-0.654,5.885-3.27,7.848-6.539l9.154-16.348c3.271-6.539,3.924-11.117,3.271-15.038l-5.886-6.539
			c-0.653-0.654-0.653-3.27,0-5.887c0.654-3.921,0-6.539-1.31-9.154c-1.96-3.27-6.538-5.885-15.038-5.885h-11.771
			c-3.27,9.154-13.077,26.156-30.729,49.696L248.457,440.118z"/>
	</g>
	<g>
		<path d="M242.572,433.579c-1.307,0.654-1.307,1.31,0,2.615l3.924,5.231c3.27,3.921,6.539,6.539,9.809,7.845l16.348,3.271H289
			c2.615-0.654,5.229-2.614,7.193-5.229l11.113-19.615c3.271-5.886,4.578-10.464,3.925-14.388c0-2.615-2.614-5.885-5.229-8.5
			l-0.654-0.654v-3.27c0.654-4.578,0-8.498-1.31-12.423c-2.615-3.925-7.845-5.885-15.038-6.539h-15.038
			c-1.31,0-1.964,0.654-1.964,1.96C268.729,392.386,258.92,408.732,242.572,433.579z M258.92,444.042
			c-3.924-0.654-7.193-3.924-11.77-9.809l14.384-20.271c7.849-12.424,11.772-20.926,14.387-26.812
			c13.078-1.305,21.577,0.654,22.887,3.925c1.96,2.614,1.96,5.229,0.654,8.5c0,3.924,0,6.538,1.96,7.848l0.655,1.31
			c2.614,1.961,3.27,3.92,3.924,5.229c0,3.271-0.654,6.538-3.27,11.117l-5.233,9.809c-3.27,7.846-6.538,11.77-9.153,11.77h-15.038
			L258.92,444.042z"/>
	</g>
	<g>
		<path fill="#D96038" d="M224.266,346.613l-5.885,13.729c10.459,1.309,22.23,5.887,37.924,15.041l19.616,13.732
			c3.925,0,9.81-3.27,17.002-8.504c7.845-5.883,10.463-11.113,8.499-14.383c-8.499-15.695-16.347-24.851-23.54-27.465l-20.923-8.5
			c-9.152-3.269-15.691-3.924-19.616-1.309C233.419,331.57,229.494,337.456,224.266,346.613z"/>
	</g>
	<g>
		<path d="M236.033,326.342c-3.924,2.615-9.153,9.154-13.732,18.963l-6.537,13.731l0.653,2.614l1.31,1.311
			c9.809,1.307,22.23,5.885,37.271,15.038c7.192,3.924,13.731,9.153,19.616,13.077l1.309,0.654c3.27,0,8.5-1.963,13.732-5.885
			c6.539-3.924,11.113-7.848,13.078-11.771c1.96-3.27,2.614-5.885,1.306-9.153l-10.46-16.349
			c-4.578-6.537-10.462-9.807-15.041-11.769l-26.811-11.116L236.033,326.342z M239.303,330.917l12.424,0.655
			c2.619,0.654,7.849,2.613,15.041,5.884l9.81,4.579c5.884,1.309,13.731,9.808,22.23,25.501l0.654,0.653l-0.654,3.271l-10.463,9.81
			l-11.769,4.578c-5.233-4.578-12.424-8.504-20.271-13.732c-13.078-7.193-24.847-12.424-34.004-13.732
			C227.534,343.344,233.419,334.842,239.303,330.917z"/>
	</g>
	<g>
		<path fill="#D96038" d="M192.876,385.191l1.964-4.578l-9.809-1.961c-7.193-0.653-11.117,0-13.078,1.961
			c-1.963,2.615-3.924,7.193-4.579,13.731c-1.96,6.539-1.96,11.117,0.655,14.388l11.769,12.424
			c5.233,5.229,10.464,8.499,14.388,8.499c5.883,0.653,15.691-2.615,28.771-9.154l-7.192-8.499
			c-6.539-3.27-12.425-7.848-18.309-14.387C193.529,393.691,192.225,389.768,192.876,385.191z"/>
	</g>
	<g>
		<path d="M170.645,378.652c-2.615,3.271-4.575,8.5-5.884,15.039c-1.309,7.192-1.309,13.078,0.654,16.348l11.769,12.423
			c6.539,5.888,12.423,9.157,17.001,9.809c5.885,0.654,15.692-1.961,29.426-9.153l1.959-1.96l-1.305-2.615l-6.539-7.849l-0.654-1.31
			c-6.539-2.614-12.424-7.19-17.656-13.729c-3.27-2.618-4.575-5.888-4.575-9.157l1.96-4.575l0.655-2.614l-1.961-1.31
			L170.645,378.652z M174.568,381.923l16.348,0.654c-0.654,1.306-0.654,2.614-0.654,5.229c0,3.924,1.309,7.848,4.578,11.77
			c5.229,4.578,11.114,9.156,18.962,14.387l4.579,5.885c-11.117,5.232-18.966,7.849-24.195,7.192c-3.27,0-7.192-3.271-13.078-7.849
			l-11.117-11.769c-1.96-2.614-1.96-6.539,0-13.078C171.299,388.462,172.608,384.537,174.568,381.923z"/>
	</g>
	<g>
		<path fill="#D96038" d="M223.609,351.843c-3.27-2.614-6.539-3.27-9.809-2.614l-10.463,1.307c-3.924,0.654-7.193,3.27-9.809,8.502
			c-3.27,5.885-3.924,10.463-3.27,15.693c0.654,4.578,3.924,6.539,7.848,6.539l35.311-6.539c2.614,0,3.924-0.655,5.229-2.615
			c0.654-1.309,0-4.578-3.92-9.809C230.805,357.729,227.534,353.805,223.609,351.843z"/>
	</g>
	<g>
		<path d="M224.919,349.229c-4.578-2.614-10.463-3.27-17.001-1.963l-4.579,0.653c-3.271,0.654-6.539,1.964-9.81,6.539
			c-5.229,6.539-7.191,13.731-5.883,20.926c1.309,5.229,3.924,7.193,7.848,8.499l41.849-7.193l3.271-2.614
			c1.306-3.269,0-7.845-3.924-13.077C233.419,355.111,229.494,351.843,224.919,349.229z M215.764,351.843
			c1.963,0,4.577,0.655,6.537,1.962l9.809,9.156l3.925,8.499l0,0l-39.233,6.539c-1.96,0-3.27-1.31-3.924-3.271
			c-1.307-5.885,0.654-11.769,4.579-17.002l6.538-4.574L215.764,351.843z"/>
	</g>
	<g>
		<path fill="#D96038" d="M238.648,372.114l8.502,3.27c6.539,3.925,11.113,12.423,12.424,24.192l3.924,2.617l12.423-0.654
			c5.229-2.614,7.194-7.193,6.539-15.041l-4.578-18.309c-1.306-4.578-4.575-8.498-9.809-11.117c-5.229-2.614-9.81-3.92-15.038-3.92
			c-3.27,0-6.539,1.959-9.153,5.229C242.572,360.997,239.957,365.575,238.648,372.114z"/>
	</g>
	<g>
		<path d="M246.496,359.036c1.961-2.614,3.924-3.271,6.539-3.271c4.578,0,9.154,1.308,13.078,3.271
			c5.229,2.614,8.498,5.885,9.152,9.81l3.924,17.652c3.271-3.921,3.926-9.154,1.961-15.691l-1.305-3.271
			c-0.656-5.229-4.58-9.154-10.464-12.425c-5.885-3.27-10.463-4.577-16.348-4.577c-3.925,0-7.849,1.964-10.464,5.231
			c-2.614,3.271-5.229,9.154-6.538,15.693l0.655,2.614l9.808,3.925c5.885,3.924,9.153,11.117,9.81,22.23l0.653,0.654l5.885,3.924
			l14.388-0.654c5.229-2.614,5.885-7.192,1.959-15.037c0,5.229-0.653,8.498-3.924,9.809l-13.076-0.654
			c-1.961-9.809-5.23-17.002-9.154-21.58c-3.27-3.922-7.193-5.229-11.117-5.885C243.227,364.921,245.188,361.65,246.496,359.036z"/>
	</g>
	<g>
		<path fill="#D96038" d="M259.574,399.576l-18.963,12.426c-3.924,1.961-13.077,1.961-24.85,0l0.654,6.539
			c0.654,4.575,1.309,7.845,2.613,9.154c6.539,8.499,15.043,10.463,28.119,5.884c9.154-3.271,15.693-8.499,18.963-15.038
			C270.037,411.348,267.422,404.809,259.574,399.576z"/>
	</g>
	<g>
		<path d="M260.883,397.615h-2.617l-18.309,11.769l-12.423,1.31l-11.117-1.31c-0.653-0.651-1.961-0.651-2.615,0.655
			c-0.653,0.654-0.653,0.654-0.653,1.963c0,8.499,1.309,13.729,3.924,17.653c6.539,9.152,17.002,11.117,31.386,6.539
			c5.888-2.615,11.117-5.23,15.041-9.154c4.575-3.924,6.539-8.499,6.539-13.077C271.343,407.424,268.073,402.193,260.883,397.615z
			 M265.458,412.652v1.311c-0.653,3.27-2.614,6.538-5.884,9.809l-13.078,7.192c-11.117,4.576-19.616,2.615-25.501-4.578
			c-0.654-1.96-1.964-5.885-1.964-11.769l23.541-0.654l17.002-11.117C262.844,405.463,265.458,408.732,265.458,412.652z"/>
	</g>
	<g>
		<path fill="#D96038" d="M291.614,88.979l9.152-6.539l22.235,5.888c18.308,2.615,33.346,0.651,47.078-5.888V4.627L31.368,3.973
			l3.924,11.117c4.575,8.5,10.459,15.038,18.962,19.617c7.845,4.579,24.847,7.193,49.696,7.848l35.31,0.651v11.118
			c1.306,7.193,5.884,12.423,12.423,15.038c12.423,4.579,23.541,4.579,35.31,0l5.884,12.426c7.193,6.539,17.656,7.845,33.35,3.27
			l11.117,6.539c9.809,3.921,18.963,5.884,28.115,5.23C274.611,96.827,283.115,93.557,291.614,88.979z"/>
	</g>
	<g>
		<path d="M373.351,4.627c0-1.96-0.654-3.27-3.27-3.27L31.368,0.704c-1.309,0-1.964,0.654-2.615,1.309l-0.654,2.615
			c0,2.615,1.306,7.193,4.575,12.423c3.924,9.157,10.463,15.696,19.617,20.271c13.078,7.193,39.888,9.809,83.045,9.154v1.964
			c0,12.423,5.229,20.271,15.692,23.541l33.349,1.96c1.961,5.229,5.23,9.808,9.809,13.078l31.385,1.309
			c11.772,8.5,24.851,12.423,39.889,11.769c13.732-1.309,26.156-5.229,35.964-13.732c7.194,2.615,16.348,5.233,26.156,5.884
			c16.347,1.309,31.389-0.651,43.812-6.539l1.961-3.27L373.351,4.627L373.351,4.627z M298.152,80.479l-9.153,6.539
			c-7.192,3.924-15.692,6.539-23.541,6.539c-9.153,0-17.651-1.309-26.155-5.23l-11.113-6.539h-2.619
			c-11.768,3.921-21.576,3.921-28.114,0l-5.886-7.848l-1.309-4.579l-1.961-2.615l-1.963-0.655l-11.115,2.618
			c-7.848,0.651-15.042,0-21.58-2.618c-6.539-1.96-9.809-6.539-11.769-13.078c-0.654-3.921-0.654-7.19,0-9.154l-0.654-3.27
			l-1.96-0.654h-35.31c-24.85-0.651-40.542-3.921-48.39-8.5c-9.154-5.23-16.347-13.078-19.617-24.195l330.869,0.655v72.582
			c-12.424,5.23-26.811,6.539-43.809,4.579l-21.581-5.888C299.462,79.17,298.808,79.17,298.152,80.479z"/>
	</g>
	<g>
		<path d="M285.075,59.554c0-1.306,0-1.96-1.96-2.615c-0.655-0.654-1.311,0-1.965,0.655c-2.614,6.539-6.539,11.117-12.424,13.078
			c-4.574,1.309-9.808,1.309-15.691-1.96c-0.654,0-1.96,0-2.615,0.651c0,1.309,0,1.963,1.307,2.618
			c6.539,3.27,13.078,3.921,18.312,1.96C276.576,71.98,281.807,66.747,285.075,59.554z"/>
	</g>
	<g>
		<path d="M340.655,68.71c3.27-4.579,3.27-9.808,0-14.387c-2.614-5.23-6.538-7.193-12.423-6.539c-5.886,0-9.81,4.579-12.424,12.423
			l-3.27,7.193c-2.615,4.579-7.193,9.809-13.732,13.732c-0.654,0.654-0.654,1.306,0,2.615l2.614,0.655
			c7.194-5.233,11.118-9.809,14.388-15.042l7.193-15.038c1.306-1.96,2.614-1.96,5.229-2.615c3.924-0.655,7.192,1.306,9.153,4.575
			c2.614,3.27,1.963,6.539,0,9.808c-2.615,3.27-5.885,4.579-11.113,3.924c-1.311,0-1.965,0.654-1.965,1.963l1.31,1.96
			C332.156,75.25,337.387,72.631,340.655,68.71z"/>
	</g>
	<g>
		<path d="M264.805,3.322c-1.307-1.309-1.961-1.309-2.615,0c-6.539,11.769-15.692,20.922-26.811,27.461
			c-9.152,5.884-17.652,9.154-24.848,9.808l-71.272,0.655c-1.309,0-1.964,0.654-1.964,1.96c0,1.309,0.655,1.964,1.964,1.964
			l71.927-0.655c8.5-0.654,17.653-4.578,28.116-11.117c10.464-7.19,19.617-16.999,26.155-28.116
			C266.113,4.627,266.113,3.322,264.805,3.322z"/>
	</g>
	<g>
		<path d="M369.426,29.477l-16.998,3.27l-39.888-0.654c-10.463-1.964-18.963-1.964-26.812,0c-6.539,1.306-11.117,4.575-13.076,9.154
			c-3.271,4.578-2.615,9.154,1.309,14.387c4.575,4.575,12.423,7.845,24.847,9.154l18.309,0.654l1.309-2.618
			c0-0.651-0.653-1.96-1.96-1.96c-20.926,1.309-34.004-1.309-39.888-8.499c-1.964-2.618-2.615-5.888-0.655-9.157
			c1.961-3.92,5.885-5.884,12.424-7.19c6.539-1.964,14.388-1.964,23.54,0l40.543,0.651l18.309-3.921c1.309,0,1.96-1.309,1.309-2.618
			C371.39,29.477,370.735,28.823,369.426,29.477z"/>
	</g>
	<g>
		<path d="M233.419,50.4c-1.31,0-1.961,1.309-1.31,2.615c0,1.309,1.31,1.309,1.964,1.309l5.884-1.309l8.5,1.309
			c2.618,1.309,3.924,3.924,4.578,7.848c0,6.539-3.924,11.769-13.078,16.348l-13.73,4.575c-1.961,0-2.615,0.654-1.961,1.963
			c0,1.96,1.305,1.96,2.614,1.96l16.347-5.884c9.81-5.233,14.388-11.772,13.078-18.962c0-5.887-2.615-9.157-5.885-11.117
			c-2.613-1.96-6.538-2.615-11.117-1.96L233.419,50.4z"/>
	</g>
	<g>
		<path d="M209.225,42.555c0,8.5-3.922,15.693-11.115,20.268l-11.116,4.579c-1.961,0-2.615,1.309-1.961,2.615
			c0,0.654,0.654,1.963,2.614,1.963l12.424-5.888c7.849-5.23,13.078-13.078,13.078-23.538l-1.961-1.963
			C209.878,40.591,209.225,41.246,209.225,42.555z"/>
	</g>
	<g>
		<path d="M243.227,213.217c-17.656,5.888-29.425,7.848-35.963,6.539l-5.885-0.651l-39.233-1.309
			c-1.309,0.654-1.964,1.309-1.964,3.27c0,1.309,1.309,1.96,3.27,1.96l37.272,1.309l5.885,1.309
			c6.539,0.651,19.617-1.964,37.928-7.848c1.96,0,2.613-1.309,1.96-3.27C245.842,213.217,244.536,212.566,243.227,213.217z"/>
	</g>
	<g>
		<path d="M276.576,242.643l37.924,5.887c4.579,1.96,9.809,3.921,13.732,7.191l3.27-0.652c0.654-0.654,0.654-1.963,0-3.27
			c-4.578-3.269-9.809-6.538-15.692-7.847l-37.272-6.539c-4.575-1.309-9.153-3.27-13.732-5.23c-4.574-2.618-7.189-5.888-8.498-9.808
			l-1.31-5.888c0-1.96-0.651-2.615-1.961-2.615c-2.615,0-3.271,0.654-3.271,1.963l1.311,7.845c1.96,5.233,5.229,9.809,11.113,12.423
			C266.768,239.373,271.997,241.991,276.576,242.643z"/>
	</g>
	<g>
		<path fill="#D96038" d="M256.305,133.445c-1.309-2.615-3.924-2.615-6.539-2.615l-7.192,5.229l-7.193,5.885
			c-2.614,1.963-5.229,5.884-5.885,11.771l-1.96,10.46c-0.654,3.27,3.924,5.888,15.038,6.539l27.465-1.96
			c4.575-8.5,5.884-16.347,5.229-22.886c-0.654-3.27-3.271-5.884-6.539-6.539l-7.846-1.96L256.305,133.445z"/>
	</g>
	<g>
		<path d="M272.652,170.063c3.924-7.848,5.884-14.387,5.884-20.926v-3.27c-1.306-7.193-5.884-11.118-14.384-11.118h-1.963
			l-1.961-1.96c-3.271-3.924-7.193-5.885-10.463-5.23c-3.925,1.306-7.849,3.921-12.424,8.499l-3.924,3.27
			c-3.925,3.27-6.539,9.809-8.5,19.617l-0.654,4.579c-0.654,1.96,0,3.921,1.961,5.23c3.27,3.269,9.809,4.578,19.616,5.229
			l25.501-2.615L272.652,170.063z M271.997,146.522v2.615c0,5.229-1.306,11.117-3.924,16.347l-22.886,1.96l-14.385-3.27l0.654-3.921
			c1.307-8.502,3.27-13.078,5.885-15.696l4.575-3.921c3.924-3.27,7.192-5.888,8.502-6.539c1.308,0,2.615,0.651,5.229,3.269
			l3.925,3.27l9.809,1.96L271.997,146.522z"/>
	</g>
	<g>
		<path fill="#D96038" d="M300.116,142.599c-1.31-1.309-3.271-1.96-4.578-1.96c-3.271,0-9.81,3.921-18.962,11.769
			c-1.311,1.309-3.27,5.229-4.579,10.462l-1.306,7.194l42.503,17.653l8.499-22.231c1.31-5.23,1.31-9.154,0-13.078l-3.271-6.539
			l-6.539-0.655l-7.192,0.655C303.386,145.868,302.077,144.559,300.116,142.599z"/>
	</g>
	<g>
		<path d="M294.884,137.369c-3.924,0-11.114,4.576-20.271,13.078c-3.271,2.615-5.885,9.154-7.19,19.617
			c0,1.96,0.651,2.615,1.961,3.269l42.502,16.999c1.961,1.309,3.271,0,3.925-1.306l9.153-22.886
			c2.615-9.154,0.654-16.347-4.578-22.231l-9.809-1.309h-5.229l-2.614-1.96C300.116,138.02,297.498,137.369,294.884,137.369z
			 M279.189,155.022c7.193-7.193,13.078-11.114,16.349-11.114c0,0,1.31,0,2.614,1.306c1.31,1.964,3.925,3.924,6.539,3.924
			l11.117-0.655l1.96,2.615l1.311,7.848l-0.655,5.23l-6.539,18.965L274.611,168.1C275.921,160.255,277.23,156.331,279.189,155.022z"
			/>
	</g>
	<g>
		<path fill="#FFE000" d="M256.305,156.331c-4.578-2.615-9.154-3.924-13.078-3.27c-5.884,0.654-11.769,3.27-18.961,9.154
			c-0.654,0.654-3.271,1.309-7.193,1.96l-9.809,2.618c-3.271,0.651-5.885,2.615-7.849,5.229l-5.229,6.539
			c-2.615,1.96-9.154,6.539-18.961,12.423c-0.655,2.615,0,5.233,1.96,7.848c2.615,2.615,5.884,4.575,10.462,5.884
			c7.193,2.615,19.617,1.309,35.965-3.27c7.193-3.27,13.731-3.27,19.615,0c9.81-1.96,15.693-7.848,19.617-18.308l2.614-15.696
			C263.498,162.87,260.883,158.946,256.305,156.331z"/>
	</g>
	<g>
		<path d="M257.613,153.716c-5.232-3.269-10.463-4.578-15.041-3.924c-5.885,0.655-11.77,3.27-18.963,9.154h-0.653l-16.349,4.579
			c-3.924,1.306-7.844,4.575-12.422,9.808l-2.615,2.615l-17.656,12.423l-1.96,1.96c-0.654,3.27,0,6.539,2.615,9.809
			c2.615,3.924,6.539,6.539,12.424,7.848c7.848,2.615,20.271,1.309,37.272-3.924l19.616,0.655
			c9.153-1.96,15.692-6.539,19.616-15.693c3.27-6.539,5.229-13.732,5.229-21.58v-0.651
			C266.768,160.906,262.844,156.985,257.613,153.716z M243.227,156.331c3.271-0.655,7.193,0.654,10.463,2.615
			c4.576,1.96,7.193,5.23,8.5,9.154c0,5.233-1.307,10.463-2.614,15.042c-3.271,8.499-8.499,13.078-16.349,15.038
			c-6.537-2.615-13.731-2.615-20.926,0c-15.037,4.579-26.154,5.884-34,3.924c-6.539-1.963-9.808-5.233-9.808-9.154l18.307-12.426
			l2.615-3.921c3.924-3.27,6.539-5.887,8.503-6.539l18.962-5.888l0,0C233.419,158.946,239.303,156.985,243.227,156.331z"/>
	</g>
	<g>
		<path fill="#FFE000" d="M341.965,221.065c1.307,0,0.654-3.27-1.964-7.848c-3.921-5.23-5.229-8.499-5.884-10.459l-3.925-17.656
			c0-1.309-1.96-1.96-5.229-3.924c-3.924-1.306-6.539-3.924-8.499-5.884c-2.618-3.27-7.848-6.539-14.387-8.499l-26.156,1.96
			l-7.848,11.769c-5.884,9.808-9.153,18.965-9.81,26.156h7.193c5.232,1.309,9.154,2.618,12.424,3.924l9.809,7.848
			c3.925,3.27,8.502,5.885,13.731,6.539c5.885,0.655,13.732,0.655,24.195-0.654L341.965,221.065z"/>
	</g>
	<g>
		<path d="M343.925,224.335l1.964-2.615c0.651-1.963-0.653-5.233-3.924-10.463l-4.578-9.808l-3.925-17.002
			c-1.306-2.615-3.27-4.575-7.188-5.884l-7.193-5.23c-3.271-4.578-7.849-7.193-14.388-9.157l-29.425,1.309l-1.961,0.654
			l-8.502,13.732c-5.885,9.809-9.154,18.308-9.809,26.156l1.309,3.269l1.961,0.651c7.849,0,14.387,1.309,17.655,3.27l5.229,4.579
			c6.539,5.23,13.078,9.154,20.271,9.808c5.885,1.309,13.732,1.309,24.195,0L343.925,224.335z M313.846,177.253l13.078,9.157
			l4.578,16.347c0,1.96,1.96,6.539,5.229,11.769l1.964,4.579l-16.349,2.615c-8.502,0.655-15.041,0.655-20.271,0
			c-5.23-0.654-10.463-3.924-16.348-9.154l-6.539-4.579c-3.271-2.615-9.809-4.578-17.002-4.578
			c1.31-9.809,7.193-20.268,15.692-32.04l24.195-1.306C307.961,172.023,311.885,173.984,313.846,177.253z"/>
	</g>
	<g>
		<path fill="#D96038" d="M321.039,209.948c1.309-1.96,1.309-5.229,0.654-7.845c-0.654-2.615-2.614-5.233-4.578-5.884l-8.499-1.309
			c-3.271,1.309-4.579,3.27-6.539,5.23c-0.655,2.618-1.311,5.233,0,7.848c0.654,3.27,2.614,5.23,5.229,6.539l7.849,0.655
			L321.039,209.948z"/>
	</g>
	<g>
		<path d="M317.77,194.255l-9.809-1.306c-3.27,1.306-5.884,3.27-7.193,6.539c-1.96,3.27-1.96,6.539-1.306,9.808
			c1.306,3.27,3.271,5.23,6.539,6.539l9.153,1.306c3.925-1.306,6.539-3.27,7.192-5.885c1.961-3.27,2.615-6.539,1.308-9.808
			C322.348,198.179,320.385,195.564,317.77,194.255z M308.616,196.87l6.538,0.655c2.614,0.654,3.27,2.615,4.579,5.233l0.65,1.96
			l-1.306,4.578l-4.579,3.921l-6.539-0.651c-2.614-0.654-3.27-2.618-3.924-4.579c-1.306-2.615-1.306-4.578,0-6.539
			C305.347,199.488,306.655,198.179,308.616,196.87z"/>
	</g>
	<g>
		<path fill="#D96038" d="M300.116,187.062l0.65-5.885l-3.921-4.575h-5.887c-1.961,0-3.27,1.96-4.576,3.27
			c-0.654,1.96-0.654,3.921-0.654,5.884c0.654,2.615,1.961,3.924,3.924,4.575h5.886L300.116,187.062z"/>
	</g>
	<g>
		<path d="M302.077,180.523c-0.655-1.96-2.615-3.921-4.579-5.23l-7.189-1.309c-2.617,1.309-4.578,2.618-5.232,5.233
			c-1.96,2.615-1.96,4.575-0.654,7.193c0.654,2.615,1.963,4.575,4.578,5.229l7.193,1.309l5.885-4.578
			C302.731,185.756,302.731,183.141,302.077,180.523z M291.614,178.563h3.924l3.27,3.27v1.309c0,3.27-1.31,5.23-3.924,5.884
			l-3.924-0.654l-3.271-3.27C286.384,181.832,287.689,179.217,291.614,178.563z"/>
	</g>
	<g>
		<path fill="#D96038" d="M207.918,191.64c2.614,1.309,4.575,2.615,7.846,3.27c2.617,0,4.577-1.309,7.192-3.27
			c2.614-1.96,3.271-3.924,3.271-6.539c0.653-3.27-0.656-5.884-2.615-7.848c-1.961-1.96-3.924-3.27-7.193-3.921
			c-2.615,0-5.23,0.651-7.193,3.27c-2.615,1.96-3.27,3.921-3.92,7.19C204.648,186.411,205.954,189.025,207.918,191.64z"/>
	</g>
	<g>
		<path d="M216.417,172.023c-3.271,0-6.539,0.655-9.153,3.27c-1.961,1.96-3.271,4.579-3.925,7.848v0.651
			c0,3.27,0.654,5.888,3.271,9.157c2.615,1.96,5.885,3.27,9.154,3.27c2.617,0.651,5.231-0.654,8.502-3.27
			c2.614-1.963,3.924-4.578,3.924-7.848c0.65-3.924-1.31-6.539-3.271-9.154C222.956,173.333,220.341,172.023,216.417,172.023z
			 M210.532,177.908c1.31-1.306,3.27-2.615,5.885-2.615c2.614,0.655,3.924,1.309,5.884,3.27c1.311,1.309,1.965,3.27,1.965,5.884
			c0,2.615-0.654,4.579-2.615,5.884c-1.31,1.964-3.924,2.618-5.887,2.618c-2.615,0-4.576-1.309-5.886-3.269
			c-1.96-1.309-2.614-3.27-2.614-5.888C207.264,181.177,208.572,179.217,210.532,177.908z"/>
	</g>
	<g>
		<path fill="#D96038" d="M236.688,177.253c1.31,1.964,3.27,2.618,5.229,2.618l5.231-1.309l2.615-5.23l-1.959-5.887
			c-1.311-1.96-2.619-1.96-5.234-2.615c-2.614,0-3.924,0.655-5.883,1.964c-1.311,1.96-1.961,3.27-2.615,5.229
			C234.073,173.984,235.379,175.948,236.688,177.253z"/>
	</g>
	<g>
		<path d="M249.111,166.139c-1.961-1.963-3.924-2.615-6.539-3.27c-2.615,0-4.575,0.655-6.539,2.615
			c-1.961,1.309-3.27,3.27-3.27,6.539c0,1.96,0.654,4.579,2.614,6.539c1.31,1.96,3.271,3.27,6.539,3.27l6.539-1.96
			c1.963-1.963,3.271-4.579,3.271-6.539C252.381,170.063,251.075,168.1,249.111,166.139z M242.572,166.794
			c3.27,0,5.232,1.96,5.232,5.884c-0.654,3.924-1.964,5.884-5.888,5.884c-1.961,0-2.615-1.309-3.921-1.96l-1.309-3.924v-0.655
			l1.959-3.269C239.303,167.445,240.611,166.794,242.572,166.794z"/>
	</g>
	<g>
		<path fill="#D96038" d="M275.921,168.754c0-1.96,0-3.27-1.96-4.579l-4.578-0.651l-6.539,7.19l-19.617,28.773l-0.654,5.23
			c0.654,3.269,2.615,5.884,7.193,7.848l12.424-0.654l3.924-3.924L275.921,168.754z"/>
	</g>
	<g>
		<path d="M277.882,173.984c1.31-5.229,0.654-9.808-2.614-11.769h-8.5l-6.539,7.193l-19.615,28.771v0.655
			c-0.655,2.615-1.311,4.575-0.655,7.845c1.31,3.269,3.925,5.887,8.5,7.848l12.426,0.655l7.845-5.885l0.655-1.309L277.882,173.984z
			 M272.652,166.794l0.654,1.96l-0.654,5.884l-8.5,32.04c-4.578,4.578-8.502,5.887-13.732,3.269c-3.924-1.306-5.232-3.92-5.232-7.19
			l0.654-1.964l18.963-28.771l5.232-5.229L272.652,166.794L272.652,166.794z"/>
	</g>
	<g>
		<path fill="#D96038" d="M265.458,226.295c1.964-0.651,3.271-3.269,3.925-5.229l-1.31-7.193c-1.306-2.615-3.271-3.924-5.884-4.576
			l-6.539,1.96c-2.615,1.309-3.924,3.27-4.575,5.23c-0.655,2.618,0,4.579,1.306,7.193l5.885,3.924L265.458,226.295z"/>
	</g>
	<g>
		<path d="M271.343,219.105c0-6.539-2.614-9.809-8.499-11.118l-8.498,1.309c-2.619,1.96-4.58,3.921-5.234,6.539
			c-0.653,3.27,0,6.539,1.31,8.5l7.193,5.229l8.5-1.306c2.614-1.964,3.924-3.924,5.229-7.193V219.105L271.343,219.105z
			 M256.305,212.566c1.961-1.309,3.271-1.309,5.885-1.309l3.925,3.27c1.309,1.96,1.96,3.924,1.309,5.884l-3.271,4.579l-5.231,0.655
			l-5.229-3.27c-0.654-1.309-0.654-3.27-0.654-5.233C253.035,215.181,254.996,213.217,256.305,212.566z"/>
	</g>
	<g>
		<path fill="#D96038" d="M247.15,222.375c2.615-1.309,3.27-3.27,3.925-5.888l-1.31-7.19c-0.654-1.963-3.271-3.269-5.885-3.924
			l-6.539,1.306c-1.964,1.309-3.924,3.269-3.924,5.887c-0.654,1.96,0,4.576,0.654,6.539l5.884,3.921L247.15,222.375z"/>
	</g>
	<g>
		<path d="M236.688,204.718c-3.27,1.309-4.578,4.578-5.885,7.193c-0.654,2.615,0,5.884,1.961,8.499
			c1.31,2.615,3.924,3.924,7.192,5.233l8.5-1.309c1.963-1.96,3.924-4.579,4.578-7.193v-2.615c0-2.615,0-5.23-1.96-6.539
			c-1.311-2.615-3.926-3.924-5.889-4.578L236.688,204.718z M236.033,218.45c-0.654-1.963-1.307-3.924-0.654-5.884
			c0-1.309,1.311-3.27,3.27-4.579l5.233-0.654l4.575,3.27l0.654,5.233c0,2.615-1.961,3.921-3.271,5.23l-5.229,0.654L236.033,218.45z
			"/>
	</g>
	<g>
		<path fill="#D96038" d="M66.022,95.518l-6.539-6.539c-3.27-1.96-5.23-2.615-7.845-1.96c-2.618,1.309-5.233,3.27-7.193,7.193
			c-3.27,3.924-4.579,8.5-4.579,12.423c-0.654,3.924,0,7.848,1.309,12.423l3.924,8.502c0.651,1.96,8.5,3.27,24.192,4.575
			c15.692,0.655,24.195-0.654,27.464-3.27c3.924-4.575,3.924-10.463,0-17.001c-5.233-8.5-10.463-13.729-15.042-14.384
			C73.87,98.136,68.637,98.136,66.022,95.518z"/>
	</g>
	<g>
		<path d="M50.984,83.749c-3.27,1.309-6.539,3.924-9.809,8.5c-2.615,4.579-4.579,9.157-4.579,14.387
			c-0.654,5.23,0.655,11.117,3.924,18.308l1.309,3.27c1.306,2.618,3.92,3.924,9.154,4.579l24.846,3.269
			c12.423,0,20.271-1.96,22.886-5.229c2.615-1.964,3.27-5.233,3.27-9.157l-1.306-7.845l-1.963-3.924l-5.23-8.5
			c-4.578-4.578-7.848-6.539-11.772-7.193h-7.19l-6.539-1.309l-2.618-2.615C59.483,85.058,54.908,82.439,50.984,83.749z
			 M60.792,94.866l3.27,3.27c1.96,1.96,5.23,2.615,11.114,2.615h5.887c3.921,0.654,7.845,4.575,12.423,12.423
			c3.27,5.884,3.27,10.463,0.655,13.078l-22.235,2.615l-24.192-3.924l-1.309-1.96c-1.96-5.884-3.27-10.463-3.27-14.387v-1.306
			c0-3.924,1.309-7.193,3.27-11.117c2.615-3.924,4.579-5.884,6.539-5.884C54.253,89.633,57.523,91.597,60.792,94.866z"/>
	</g>
	<g>
		<path fill="#D96038" d="M152.992,99.441c-4.579-9.809-8.502-15.693-11.772-17.653l-15.038-7.848
			c-6.539-3.27-10.463-1.96-11.772,4.579c-1.306,3.92-2.615,6.539-4.576,8.499l-6.539,4.579c-1.964,1.96-3.924,5.23-4.579,10.459
			l-1.306,7.193l1.306,9.154c1.309,6.539,4.579,10.463,8.502,11.118C114.41,131.481,129.451,121.021,152.992,99.441z"/>
	</g>
	<g>
		<path d="M151.028,88.327c-2.615-4.579-5.884-7.848-8.499-9.808l-15.042-7.194c-4.575-2.615-7.845-2.615-11.114-1.963
			c-1.963,1.309-4.579,4.579-5.233,9.157c-1.306,3.269-3.27,5.884-6.539,8.499l-3.27,1.96c-4.575,3.924-7.19,11.117-7.19,20.271
			c-0.655,1.964-0.655,5.885,1.306,11.772c1.964,6.539,5.884,11.114,11.118,11.769c5.229,1.309,13.078-2.615,25.501-11.769
			l22.886-19.617c1.309-0.654,1.96-1.963,0.655-3.269L151.028,88.327z M139.259,84.403c2.615,1.306,5.884,5.884,9.808,14.383
			l-24.195,19.617c-9.154,5.888-15.039,9.157-17.002,8.502c-4.575-0.654-7.19-7.193-7.19-17.001l1.306-8.5
			c1.309-3.924,1.963-5.887,3.27-6.539l8.502-6.539l5.884-13.078l5.23,1.96L139.259,84.403z"/>
	</g>
	<g>
		<path fill="#FFE000" d="M98.717,150.447l-2.615-19.617c-9.154-11.118-20.271-15.696-33.349-13.732
			c-6.539,0.654-11.769,2.615-17.002,5.884l-9.808,7.193c-3.921,3.924-6.539,8.5-7.845,12.423c-1.309,2.615-1.309,5.884-1.309,9.809
			c0,3.269-0.655,5.229-1.96,7.848c-5.884,7.19-7.848,11.769-5.233,14.384c1.963,1.963,6.539,3.924,13.732,3.924l28.119-1.96
			c9.154-1.309,18.962-6.539,27.461-15.041L98.717,150.447z"/>
	</g>
	<g>
		<path d="M62.753,114.483c-7.193,0-13.078,1.96-18.308,5.229c-3.27,1.309-7.193,4.579-11.117,8.5
			c-3.924,4.579-6.539,9.157-8.5,13.078c-0.654,2.618-1.309,5.888-1.309,10.463l-1.306,5.884
			c-7.193,9.157-9.157,15.696-5.233,18.965c2.615,2.615,7.848,4.575,15.042,5.23l30.076-1.96
			c10.463-1.309,19.617-6.539,28.119-15.696l11.114-12.423l0.655-2.615l-2.615-18.308l-0.654-1.964
			C88.909,117.752,77.14,112.519,62.753,114.483z M31.368,143.908c1.306-3.924,3.27-7.848,6.539-11.117l9.809-7.194
			c4.575-2.615,9.808-4.575,15.692-4.575c11.769-1.309,21.577,1.96,30.08,11.769l1.96,16.347l-11.769,12.423
			c-7.193,5.884-15.042,10.462-22.886,11.771l-27.464,1.96c-6.539,0-10.463-1.96-11.769-3.27c-0.654-0.654,1.306-3.924,5.23-9.808
			c2.615-2.615,3.27-6.539,3.27-11.117L31.368,143.908z"/>
	</g>
	<g>
		<path fill="#D96038" d="M50.984,168.754l7.845-1.309l4.578-6.539c0.655-3.271,0.655-5.23-1.309-7.845
			c-1.306-2.615-3.269-3.924-6.539-5.233l-7.845,1.309c-1.964,1.309-3.924,3.924-4.579,6.539c-0.654,3.27-0.654,5.23,1.309,7.848
			C45.751,166.139,47.715,167.445,50.984,168.754z"/>
	</g>
	<g>
		<path d="M46.406,147.177c-2.615,1.96-3.924,4.575-5.23,8.499c-1.309,3.27,0,6.539,1.306,9.154
			c1.963,2.615,3.924,5.233,7.193,5.233l9.808-1.309c4.579-1.96,6.539-5.23,6.539-10.463l-1.96-5.884
			c-1.964-3.27-4.579-5.23-7.848-6.539L46.406,147.177z M55.56,150.447l5.233,3.269c0.655,1.96,1.306,3.921,0.655,6.539l-3.924,5.23
			l-6.539,1.309c-1.964-0.655-3.924-1.964-5.233-4.579c-1.306-1.96-1.306-3.27-1.306-5.884c1.306-2.615,1.96-3.924,4.575-5.233
			L55.56,150.447z"/>
	</g>
	<g>
		<path fill="#D96038" d="M66.677,141.29l5.884-0.651l3.27-4.579c0.655-1.96,0-4.578-0.654-5.884l-4.575-3.924
			c-1.964,0-4.579,0-5.885,1.309c-1.963,0.651-2.618,2.615-3.924,5.23c0,1.309,0,3.269,1.306,5.229L66.677,141.29z"/>
	</g>
	<g>
		<path d="M59.483,131.481c-0.654,2.618-0.654,4.578,1.309,7.848l5.23,3.924l7.848-0.655c1.96-1.96,3.27-3.27,3.924-6.539
			l-0.655-6.539l-6.539-4.579l-6.539,1.309C61.447,127.561,59.483,129.521,59.483,131.481z M71.907,139.329h-4.575l-3.27-1.96
			l-1.309-4.578c0.654-1.309,1.309-2.615,3.27-3.27l3.924-1.309c1.96,0.654,2.615,1.309,3.924,2.618v3.27
			C73.87,136.06,73.216,138.02,71.907,139.329z"/>
	</g>
	<g>
		<path fill="#FFE000" d="M176.529,115.789l-15.038-13.732c-3.27-1.306-7.848-3.27-15.038-5.884
			c-4.579-1.306-11.117-0.654-20.271,3.924c-13.078,6.539-19.617,17.002-20.926,32.695v5.884c0,4.579,1.309,8.502,3.924,11.772
			c15.693,2.615,28.771,2.615,41.848,0c18.962-3.924,32.04-9.157,39.234-14.387c1.963-1.96,1.309-5.229-2.615-10.463
			C184.377,121.021,180.453,117.752,176.529,115.789z"/>
	</g>
	<g>
		<path d="M162.8,100.096l-15.042-7.193l-10.463,0.655c-6.539,1.309-12.423,3.27-16.999,6.539
			c-11.772,6.539-17.656,17.656-18.311,32.695v6.539c0.654,4.579,2.615,9.154,4.579,13.078l1.96,1.309l14.387,1.96l28.771-1.96
			c19.617-3.924,32.694-9.157,39.888-15.041c2.615-1.306,3.27-3.924,2.615-6.539c0-3.924-2.615-7.193-6.539-11.114L162.8,100.096z
			 M145.144,98.787l2.615,1.309l12.423,5.23l5.233,5.888c3.924,3.921,7.194,6.539,9.154,7.19c3.27,1.309,5.885,3.924,9.154,7.848
			l3.923,6.539v0.654c-6.539,5.884-19.617,10.463-37.272,13.732c-9.809,1.96-22.886,1.96-38.579,0
			c-2.615-3.27-3.27-7.193-3.27-11.772v-2.615c0.655-11.118,4.579-19.617,12.423-25.501c3.924-3.924,9.809-5.884,15.696-7.193
			L145.144,98.787z"/>
	</g>
	<g>
		<path fill="#D96038" d="M167.375,127.561c0-2.618-0.654-5.233-3.27-7.193c-2.615-1.964-4.575-2.615-7.193-2.615
			c-3.269,0-5.884,0.651-7.845,3.27c-1.963,1.96-3.27,4.575-2.615,7.19c0,3.27,1.306,5.888,3.27,7.848
			c1.96,1.309,4.575,2.615,7.845,2.615c2.615,0,4.579-1.306,7.193-3.27L167.375,127.561z"/>
	</g>
	<g>
		<path d="M156.912,115.789c-3.92,0-6.539,1.309-9.154,3.924c-2.615,2.615-3.269,5.23-3.269,8.5c0,3.924,1.309,6.539,3.924,9.157
			c2.615,1.96,5.23,3.27,9.154,3.27c3.27,0,6.539-1.309,8.502-3.924c1.96-2.615,3.27-5.233,3.27-8.502
			c0-3.921-1.309-7.19-3.924-9.154C162.146,116.443,159.53,115.134,156.912,115.789z M163.451,134.1
			c-1.96,1.96-3.921,2.615-5.884,2.615c-2.615,0-5.23-0.655-6.539-2.615l-2.615-5.888c0-1.96,0.654-3.921,2.615-5.884
			c0.655-1.306,3.27-2.615,5.884-2.615c1.964,0,4.579,0.655,5.888,1.96c1.96,1.964,2.615,3.924,2.615,5.888
			C165.415,130.175,164.76,132.791,163.451,134.1z"/>
	</g>
	<g>
		<path fill="#D96038" d="M137.295,119.712l-2.615-5.229c-1.96-1.309-3.27-1.964-5.23-1.964c-2.615,0.655-4.578,0.655-5.884,2.615
			c-1.309,1.309-1.963,3.269-1.963,5.233c0,2.615,1.309,3.924,2.615,5.229c1.964,1.964,3.27,1.964,5.233,1.964l5.23-2.618
			L137.295,119.712z"/>
	</g>
	<g>
		<path d="M129.451,110.559c-3.269,0.655-5.233,1.306-7.193,2.615c-1.309,1.96-2.615,4.578-2.615,7.193
			c0,2.615,1.306,5.229,3.27,7.193c1.96,1.306,3.924,1.96,6.539,1.96c3.27,0,5.23-1.309,6.539-3.27c1.96-1.309,3.27-3.27,3.27-6.539
			c0-2.615-1.309-5.229-3.27-6.539C134.026,111.213,131.411,110.559,129.451,110.559z M124.873,116.443
			c1.309-1.309,2.615-1.96,4.578-1.96l3.27,1.96l1.96,3.269l-1.306,4.579c-0.655,0.651-1.964,1.96-3.924,1.96l-3.924-1.96
			l-1.96-3.924C123.566,118.403,124.218,117.752,124.873,116.443z"/>
	</g>
	<g>
		<path d="M100.026,166.794l-6.539,11.114c-6.539,8.502-13.078,13.732-20.926,17.001l-39.233,1.96c-1.306-0.651-2.615,0-3.27,1.964
			c0,1.306,0.654,2.615,2.615,2.615l13.732,1.96c11.117,0.654,20.271-0.651,28.771-3.921c7.848-3.27,15.041-9.157,22.235-17.656
			l7.845-13.078c0.654-1.96,0-3.27-1.96-3.27C101.986,164.176,100.68,164.83,100.026,166.794z"/>
	</g>
	<g>
		<path d="M197.455,154.367l-3.926-0.651c-11.767,9.809-22.885,15.039-34.653,16.348l-24.195-3.924l-13.078-5.233
			c-1.306-0.651-1.96,0-3.27,1.309c-0.655,1.309,0,2.615,1.309,3.27l13.078,5.884l27.461,3.924
			c11.772-1.96,24.195-7.193,36.618-17.001L197.455,154.367z"/>
	</g>
	<g>
		<path fill="#D96038" d="M118.988,155.676l-18.962-45.772c-1.963-2.615-3.924-3.27-6.539-1.96c-1.963,1.96-3.27,3.27-2.615,5.884
			c3.921,29.425,7.845,45.118,11.114,46.427c4.579,2.615,9.154,2.615,13.078,0L118.988,155.676z"/>
	</g>
	<g>
		<path d="M101.986,107.944c-1.96-3.27-5.23-3.924-8.5-2.618c-3.27,1.963-5.233,4.579-5.233,7.848v1.96
			c3.924,29.425,8.502,45.121,12.426,47.735l13.729,0.655l7.193-6.539v-1.309l-8.5-26.155
			C107.871,117.752,104.601,109.904,101.986,107.944z M93.487,113.174c0-1.309,0.655-1.96,1.96-3.27l2.615,1.309
			c1.963,1.96,5.233,8.499,9.808,19.617l8.502,24.846c-3.27,4.579-7.848,5.23-13.078,1.96c-3.27-0.651-6.539-15.038-9.809-43.154
			v-1.308H93.487z"/>
	</g>
	<g>
		<path fill="#D96038" d="M128.142,168.754c1.309-1.96,1.964-4.579,1.309-7.193c0-2.615-1.309-4.576-3.269-5.885l-7.848-1.309
			c-1.96,0.655-3.924,1.964-5.23,4.579c-1.309,1.96-1.963,4.579-1.309,6.539c0,1.96,1.309,4.579,3.924,5.884l7.193,1.309
			L128.142,168.754z"/>
	</g>
	<g>
		<path d="M118.333,152.407c-3.27,1.309-5.23,2.615-6.539,5.229c-1.96,2.618-2.615,5.233-1.96,7.848
			c0.655,3.27,1.96,5.884,5.23,7.848c2.615,1.306,4.579,1.96,7.848,1.306l7.193-4.575c1.306-3.27,2.615-5.888,1.306-9.157
			c0-2.615-1.96-5.23-4.575-6.539C124.218,152.407,121.603,152.407,118.333,152.407z M119.643,156.331l5.23,1.306l3.269,4.579v1.309
			c0,3.921-1.96,6.539-5.884,7.19l-5.884-0.651c-1.309-1.309-2.615-3.27-3.27-4.579c0-1.96,0.655-4.579,1.96-5.884
			C115.719,157.637,117.679,156.985,119.643,156.331z"/>
	</g>
	<g>
		<path fill="#D96038" d="M110.489,172.023c1.306-1.96,1.306-4.578,1.306-6.539c-0.654-1.96-1.96-4.579-3.924-5.884l-7.19-1.309
			c-1.963,0.654-3.924,1.963-5.887,3.924c-1.306,2.615-1.306,4.579-1.306,7.193c0,2.614,1.96,3.924,3.924,5.884l7.19,1.309
			C106.565,175.948,108.525,174.639,110.489,172.023z"/>
	</g>
	<g>
		<path d="M108.525,157.637c-1.96-1.306-5.229-1.96-8.499-1.306c-2.615,0.654-4.579,2.615-6.539,4.575
			c-1.963,3.27-2.615,5.888-1.963,9.157c0.654,3.269,1.963,5.229,5.233,6.539l8.5,1.96c2.615-0.654,4.578-1.96,6.539-5.23
			c1.964-2.618,2.615-5.233,1.309-7.848C113.104,162.215,111.14,159.601,108.525,157.637z M109.834,167.445l-1.309,3.924
			l-3.924,3.27l-5.884-1.306l-3.27-4.578c0-1.96,0-3.27,1.309-5.23l4.575-3.27l5.233,0.651l3.269,4.579L109.834,167.445
			L109.834,167.445z"/>
	</g>
</g>
<path id="PATH77" fill="none" stroke="#000000" stroke-width="3" stroke-miterlimit="100" d="M370.59,585.26H3.92V2.74h366.67
	V585.26L370.59,585.26z"/>
</svg>
