<?xml version="1.0" encoding="utf-8"?>
<!-- Generator: Adobe Illustrator 13.0.0, SVG Export Plug-In . SVG Version: 6.00 Build 14948)  -->
<!DOCTYPE svg PUBLIC "-//W3C//DTD SVG 1.1//EN" "http://www.w3.org/Graphics/SVG/1.1/DTD/svg11.dtd">
<svg version="1.1" id="圖層_1" xmlns="http://www.w3.org/2000/svg" xmlns:xlink="http://www.w3.org/1999/xlink" x="0px" y="0px"
	 width="372px" height="587px" viewBox="0 0 372 587" enable-background="new 0 0 372 587" xml:space="preserve">
<g>
	<g>
		<g>
			<path fill="#858585" d="M294.832-5.661l-26.801,0.667c-5.359,7.367-10.051,16.083-15.41,26.133
				c-8.712,20.101-12.729,35.51-10.721,47.569l29.479,73.034c16.08,40.868,24.122,75.711,24.792,103.185
				c0,22.777-3.349,53.602-10.721,92.455c-2.009,33.501,7.372,66.334,28.811,97.826c0-14.742,0.67-31.492,2.012-50.251
				c2.679-36.852,9.379-66.328,18.088-87.103c10.721-23.45,18.092-61.642,23.45-113.902c4.692-50.251,4.692-86.428,0-109.211
				c-4.688-19.433-12.059-36.184-23.45-49.583C324.982,13.772,311.581,3.048,294.832-5.661z"/>
		</g>
	</g>
	<g>
		<g>
			<path d="M272.722-15.044c-1.342,0.668-2.012,1.342-1.342,3.351c8.713,23.45,17.422,50.251,26.131,79.734
				c16.751,59.634,24.792,105.861,23.45,138.021c0,22.783-5.359,53.601-16.08,93.802l-6.699,33.501
				c-2.68,18.092-2.68,42.216,2.012,72.367c0,2.676,1.338,2.676,2.679,2.676c2.009,0,2.681-0.674,2.681-3.35
				c-4.021-29.478-4.692-53.602-2.681-71.026l7.371-32.826l10.051-45.56c4.018-18.766,5.358-35.516,6.029-49.583
				c1.338-33.501-7.371-79.061-24.121-138.688c-8.042-29.483-16.751-56.951-26.13-81.076
				C275.401-15.044,274.73-15.711,272.722-15.044z"/>
		</g>
	</g>
	<g>
		<g>
			<path d="M278.752-2.979c-1.342-0.674-2.68,0-3.351,0.667c-10.051,28.809-16.751,53.601-20.101,74.369l2.009,2.683
				c1.341,0,2.013-1.341,2.013-2.015c2.679-20.768,9.379-44.886,20.1-73.028C280.093-1.644,279.422-2.311,278.752-2.979z"/>
		</g>
	</g>
	<g>
		<g>
			<path d="M276.743-7.677c-1.342,0-2.013,0-2.013,2.016c-0.67,0.667,0,1.335,0.671,2.008l24.792,16.077
				c17.417,14.749,28.81,33.501,33.501,56.284c0,1.341,0.667,2.015,2.009,2.015c2.009-0.674,2.009-1.348,2.009-2.683
				c-5.359-23.451-16.751-43.551-35.51-58.967L276.743-7.677z"/>
		</g>
	</g>
	<g>
		<g>
			<path d="M288.802,29.174c-0.671,0-1.342,0-2.009,1.348c-9.383,26.126-14.741,50.251-15.413,73.027
				c0,1.342,0.672,1.342,1.342,1.342l2.68-1.342c0-13.4,3.351-30.15,8.041-48.242l7.368-23.451
				C290.811,31.19,290.811,29.848,288.802,29.174z"/>
		</g>
	</g>
	<g>
		<g>
			<path d="M302.872,74.741c-0.67,0-1.341,0-2.679,1.335l-10.721,27.474c-7.371,21.442-11.392,41.542-11.392,60.302
				c0,1.341,0.671,1.341,1.341,1.341l2.68-1.341c0-18.759,4.021-38.192,10.722-58.96l11.388-26.801
				C304.881,76.75,304.881,75.408,302.872,74.741z"/>
		</g>
	</g>
	<g>
		<g>
			<path d="M292.151,35.207c-1.341-0.667-2.009-0.667-3.35,0c-0.671,1.342-0.671,2.683,0,3.35l16.751,18.766
				c12.729,14.067,21.441,26.126,26.8,35.502c0.671,0.674,2.009,1.348,3.351,0.674c0.67-0.674,1.342-2.009,0-2.676
				c-5.359-9.383-14.071-22.116-26.801-36.184L292.151,35.207z"/>
		</g>
	</g>
	<g>
		<g>
			<path d="M305.553,84.124c-0.672-0.674-1.342-0.674-2.681,0c-0.67,0.667-0.67,2.002,0,2.676l12.06,12.06
				c8.042,9.383,14.071,15.416,16.08,19.433c4.021,6.701,6.7,12.733,7.37,20.101l2.68,1.334l1.342-2.676
				c-1.342-6.7-4.021-14.074-8.042-20.774L318.282,96.85L305.553,84.124z"/>
		</g>
	</g>
	<g>
		<g>
			<path d="M314.262,118.959c-2.009-0.667-2.681,0-2.681,1.341l-20.1,51.592c-2.68,7.368-3.351,16.083-4.021,24.118
				c0,2.015,0,2.683,1.342,2.683l2.68-2.015c0.67-8.036,1.342-16.077,4.021-23.451l10.721-29.477l8.709-22.109
				C315.602,120.3,314.932,118.959,314.262,118.959z"/>
		</g>
	</g>
	<g>
		<g>
			<path d="M317.61,131.692c-1.337-1.341-2.009-1.341-3.349,0c-1.339,0.667-1.339,2.009,0,2.009l13.399,18.092
				c8.712,13.4,14.742,24.118,15.412,32.16c0,1.341,0.671,2.009,2.009,2.009l1.342-2.009c-0.671-8.709-5.362-20.101-14.742-33.501
				L317.61,131.692z"/>
		</g>
	</g>
	<g>
		<g>
			<path d="M321.632,161.175c-0.671-0.674-2.009-0.674-2.68,0.667l-12.729,25.459c-8.041,17.424-12.063,30.151-12.063,38.192
				c0,0.667,0.672,2.009,1.342,2.009l2.68-2.009c0-8.041,4.021-20.101,12.062-37.518l12.06-24.125
				C322.974,162.51,322.303,161.843,321.632,161.175z"/>
		</g>
	</g>
	<g>
		<g>
			<path d="M324.312,173.901h-3.351c-1.338,0.674-1.338,1.342,0,2.677l8.712,16.083c6.03,12.733,9.381,26.133,9.381,38.192
				c0,1.341,0.67,2.009,2.008,2.009l2.012-2.009c-0.67-13.4-3.35-26.126-9.379-39.527L324.312,173.901z"/>
		</g>
	</g>
	<g>
		<g>
			<path d="M324.982,192.661c-2.009-0.667-2.68-0.667-2.68,1.341l-12.729,22.777c-7.371,16.083-12.063,29.483-14.071,39.534
				c0,1.341,0,2.683,2.009,2.683c1.341,0,2.012-0.667,2.012-1.341c2.009-10.05,6.03-23.45,14.739-39.527l11.391-22.783
				C325.652,194.676,325.652,194.002,324.982,192.661z"/>
		</g>
	</g>
	<g>
		<g>
			<path d="M321.632,239.562l-2.68,0.667l-13.399,22.115c-9.381,15.41-14.071,26.801-16.08,34.835c0,0.675,0,2.017,2.009,2.017
				l2.679-1.342c1.342-8.041,6.033-18.759,14.742-34.842l13.4-20.768C322.974,241.577,322.303,240.903,321.632,239.562z"/>
		</g>
	</g>
	<g>
		<g>
			<path d="M323.644,228.845c-0.67-1.342-1.341-1.342-2.012-1.342c-2.009,0.674-2.009,1.342-2.009,3.35l6.029,15.409
				c3.351,12.733,6.029,22.783,6.7,31.492c0,2.009,0.671,2.009,2.009,2.009l2.012-2.009c-0.67-8.709-3.35-19.427-6.7-32.159
				L323.644,228.845z"/>
		</g>
	</g>
	<g>
		<g>
			<path d="M318.952,257.654c0-1.341-0.67-2.009-2.009-1.341c-1.342,0-2.012,0.667-1.342,2.683l4.021,17.418
				c2.68,13.4,4.688,24.118,4.688,32.166c0,2.002,0.671,2.677,1.341,2.677l2.68-2.677c0-8.048-2.009-19.433-4.688-32.833
				L318.952,257.654z"/>
		</g>
	</g>
	<g>
		<g>
			<path d="M309.573,297.854c0-0.675-0.671-1.341-2.012-0.675c-1.339,0-2.009,0.675-1.339,2.017l4.688,14.735
				c3.351,10.724,4.69,19.433,4.69,26.8c0,0.675,0.672,1.348,2.681,1.348l1.341-1.348c0-8.034-1.341-16.75-4.691-28.135
				L309.573,297.854z"/>
		</g>
	</g>
	<g>
		<g>
			<path d="M308.231,305.896c-0.67-1.342-2.009-1.342-2.679-1.342l-8.709,6.701c-5.362,5.358-9.384,13.399-11.393,22.775
				c0,1.349,0,2.016,2.009,2.016c1.342,0,2.013,0,2.013-1.341c2.009-8.709,5.359-16.077,10.05-20.774l7.371-5.353
				C308.231,307.905,308.231,307.23,308.231,305.896z"/>
		</g>
	</g>
	<g>
		<g>
			<path d="M300.86,351.456h-2.679l-4.688,5.358c-2.683,4.691-4.021,10.718-4.691,18.093c0,0.673,0,1.34,2.009,1.34l2.013-1.34
				c0.67-6.7,2.009-11.393,4.021-16.077c2.008-2.683,2.679-4.024,4.017-4.024C301.531,353.465,301.531,352.13,300.86,351.456z"/>
		</g>
	</g>
	<g>
		<g>
			<path d="M300.86,342.748c-1.338-1.342-2.009-1.342-2.679,0c-0.671,0.667-1.338,2.008,0,2.682c0.67,0,3.35,3.35,7.371,10.718
				c4.69,8.709,6.7,16.751,6.7,25.459c0,1.342,0.67,2.009,2.679,2.009l1.342-2.009c0-9.376-2.012-18.759-7.371-27.474
				L300.86,342.748z"/>
		</g>
	</g>
	<g>
		<g>
			<path fill="#858585" d="M333.023,413.766c0,2.684,0.671,14.068,2.68,32.834l2.009,34.168l-8.039,49.584l2.68,23.451
				c0.671,14.734,0,28.135-3.35,41.536h40.201V205.394l-22.11,142.039c-1.341,19.433-2.682,31.498-4.021,37.524l-5.361,14.074
				L333.023,413.766z"/>
		</g>
	</g>
	<g>
		<g>
			<path d="M369.204,202.711c-2.009,0-3.351,1.341-3.351,2.682l-21.441,141.371v2.015c-1.339,18.753-2.68,30.151-4.019,35.504
				l-4.69,11.398l-4.691,17.417c-0.668,3.351,0,14.735,1.341,33.501l2.68,33.501l-7.371,49.583l0.671,12.053l1.341,22.116
				c0.671,10.718-0.67,20.769-3.35,30.15v2.683l2.68,0.668h40.201c1.341,0,2.009-0.668,2.009-2.015V205.394L369.204,202.711z
				 M345.753,384.957l4.021-35.51v-2.015c0.67-9.377,6.029-45.555,16.079-107.871v352.426h-33.501
				c2.009-9.376,3.351-18.753,3.351-26.801l-2.68-23.451l-0.671-10.05v-1.335l8.041-52.267l-2.012-32.152l-2.679-29.483v-2.016
				c0.67-3.35,2.679-8.702,5.358-16.076L345.753,384.957z"/>
		</g>
	</g>
	<g>
		<g>
			<path d="M352.453,392.998l-2.009-1.341c-1.342,0-2.012,0-2.012,2.009l-0.671,32.833c-2.009,24.785-5.358,43.551-12.729,56.951
				l0.671,2.009l4.69,11.392c2.68,8.709,4.688,15.409,4.688,20.101c0,9.383,1.342,26.801,4.021,54.936
				c0.672,0.675,2.009,1.349,2.681,1.349l1.341-2.016v-0.667c-2.68-26.801-4.021-44.892-4.021-53.602
				c0-4.691-1.341-11.392-4.021-18.766l-6.028-13.4c9.379-18.753,13.399-45.554,13.399-79.054V392.998z"/>
		</g>
	</g>
	<g>
		<g>
			<path fill="#FFE000" d="M287.46,294.506c3.351-3.351,0.671-12.06-8.708-25.46c31.491,19.433,48.909,27.468,52.26,24.118
				c1.341-2.008-5.359-11.385-21.438-27.468l-38.193-33.501c-8.708-6.033-18.759-11.392-28.809-15.416
				c-8.713-4.018-15.413-6.026-20.101-6.026c-3.35,0-7.37,3.351-11.392,8.709c-4.688,6.032-8.038,11.391-9.38,16.75
				c-2.679,4.691-6.029,9.383-10.721,12.732c-5.359,4.017-10.05,5.359-14.071,3.35l-9.379-2.683c-3.35-1.335-5.359-3.35-4.688-6.033
				l-1.342-18.085c0-2.015,0-4.691,1.342-8.041c2.008-5.359,5.359-10.051,11.388-13.4c-12.059,0-22.109,3.35-28.809,10.05
				l-6.7-1.342c-4.691,0-8.042,1.342-9.379,2.683l-8.712,10.05c-4.021,5.359-5.359,11.385-4.021,17.418
				c0.671,6.033,3.351,10.05,7.371,12.733c3.35,3.35,6.029,5.359,6.029,8.035c0,4.024-1.338,7.374-2.679,10.05
				c-2.009,2.016-4.021,3.35-7.371,2.683l-20.768,1.341c-11.392,1.341-18.763,4.691-22.112,7.374
				c-5.359,4.685-8.039,22.102-10.051,52.927c0,10.724,0.671,26.127,3.35,46.228c3.351,20.774,6.701,31.498,10.05,30.824
				c4.692-0.674,8.712-18.092,10.721-50.251c0.671,15.409,4.021,22.776,9.379,20.774c4.692-1.348,8.042-13.4,8.042-34.849
				c2.009,16.083,5.359,22.783,10.05,20.101c4.688-2.676,8.039-14.735,10.05-36.177l1.338,7.373
				c2.012,5.354,4.021,8.036,7.371,8.036c4.691,0,8.042-9.384,9.379-28.811l2.012,6.026c3.35,3.351,8.039,5.366,14.738,6.033
				l8.042,4.691c6.7,5.359,13.4,11.392,18.76,20.101c18.091,26.127,30.15,63.651,34.841,111.227l-0.67-37.524
				c-2.679-29.478-7.37-52.928-15.409-71.693l12.059,8.716c9.38,8.702,17.422,18.752,26.131,29.477
				c26.801,36.177,42.883,78.393,48.912,128.644c1.339-15.415-1.34-33.5-7.37-55.615c-10.721-44.887-32.16-85.088-63.652-121.271
				c-12.729-19.434-20.1-35.51-23.45-46.234c2.009-8.035,8.709-16.076,19.43-26.126c20.101,14.741,31.492,20.775,36.181,17.424
				c4.691-2.683,1.341-9.383-8.708-20.101C271.38,291.155,284.11,297.18,287.46,294.506z"/>
		</g>
	</g>
	<g>
		<g>
			<path fill="#D96038" d="M241.9,354.133l-4.691-10.051c-4.688-6.7-9.379-12.053-15.408-13.4c-6.03-2.002-12.06,0-18.76,4.698
				c-4.021,2.676-6.033,5.352-8.712,8.035c-6.7,4.69-11.389,8.041-14.071,11.391c-5.359,6.7-6.03,13.401-3.35,20.102l24.792,67.001
				c14.071,36.177,22.11,53.602,24.122,53.602c2.679,0,6.029-10.725,9.379-30.825c3.351-22.103,4.021-38.186,2.009-48.903
				l16.751,24.118c11.391,20.101,20.101,39.534,24.792,58.286c6.029,22.116,10.05,37.524,13.399,44.899
				c2.009,7.367,4.021,10.718,6.7,11.385s4.021-6.033,6.029-21.436c2.013-16.083,1.342-30.825-0.67-44.898
				c-4.018-20.101-10.718-42.203-20.769-66.328C271.38,391.657,257.31,368.881,241.9,354.133z"/>
		</g>
	</g>
	<g>
		<g>
			<path fill="#D96038" d="M129.339,215.444l-8.712,10.05c-4.021,5.359-5.359,11.385-4.021,17.418
				c0.671,4.691,2.012,8.042,5.363,10.718c0,0.674,2.008,2.015,6.7,2.683l16.08-0.667c6.03-1.341,12.06-8.715,17.421-20.768
				l-0.671-9.383c0-2.015,0-4.691,1.342-8.041c2.008-5.359,5.359-10.051,11.388-13.4c-12.059,0-22.109,3.35-28.809,10.05l-6.7-1.342
				C134.027,212.761,130.677,214.103,129.339,215.444z"/>
		</g>
	</g>
	<g>
		<g>
			<path d="M289.473,296.514c2.009-1.335,2.679-3.351,2.679-5.359c0-3.35-1.341-7.374-4.021-12.06
				c26.801,14.736,40.872,20.101,44.893,16.083l1.338-4.024c-1.338-4.692-9.379-14.742-25.459-30.151l-36.181-31.492
				c-8.712-6.033-18.092-12.059-28.813-16.083c-10.051-4.018-16.751-6.026-21.438-6.026c-4.021,0-8.712,3.35-14.071,10.051
				c-4.691,5.358-8.041,11.392-10.05,17.424c-1.342,4.018-4.691,8.035-9.38,11.385c-4.021,2.683-8.041,4.018-11.392,2.683
				l-3.35-0.667c-6.029-2.015-8.708-2.682-8.038-4.024l-1.342-14.742v-4.018l0.671-6.7c2.009-5.365,5.358-9.383,10.05-11.392
				l2.008-4.691c-0.67-1.335-2.008-2.009-3.35-2.009c-12.059,0.674-22.109,4.024-29.48,10.05
				c-9.379-2.008-14.742-1.341-17.421,2.009l-2.009,1.342l-9.379,11.391c-3.35,6.033-4.021,12.059-2.683,18.759
				c0.671,5.359,4.021,10.725,10.051,14.742c2.012,2.009,3.35,3.35,3.35,4.685c0,4.698-1.338,7.374-2.68,8.715l-3.35,0.667
				l-22.109,1.341c-11.392,1.341-20.101,4.691-23.45,8.042c-6.03,5.359-10.051,23.451-10.721,53.601l-0.67,2.009
				c0,9.377,0.67,23.45,3.35,41.542c2.012,22.11,5.362,34.168,9.38,37.519c1.342,1.341,3.35,1.341,4.691,1.341
				c5.359-0.674,9.38-12.726,12.059-33.5l2.012,3.35l6.7,0.675c3.351-1.349,6.7-7.375,8.709-18.766l3.35,4.017
				c2.012,0.675,4.021,0.675,6.03,0c4.021-2.676,7.371-11.385,10.05-24.785c2.012,2.683,4.021,4.018,7.371,4.018
				c6.029,0,10.05-7.368,11.392-22.109c3.35,2.676,8.039,4.024,13.4,4.691l8.708,5.359c6.03,5.358,12.063,12.059,17.422,20.1
				c18.091,26.127,29.479,61.644,33.501,108.544c0,2.009,2.009,2.683,3.349,2.683l3.351-3.35V460
				c0-34.168-3.351-64.318-12.059-89.784c15.409,13.399,29.479,30.15,41.539,50.918c18.092,30.824,30.15,66.334,34.843,105.867
				c0.67,2.683,2.009,3.351,4.021,3.351c2.008,0,2.679-0.668,2.679-3.351c0.671-15.415-2.012-34.841-7.371-56.951
				c-12.059-44.892-33.501-85.093-64.321-121.944c-12.06-18.759-19.431-33.5-22.11-43.551c1.339-6.025,6.03-13.4,16.081-22.109
				c19.429,14.734,32.159,19.432,37.521,15.409l2.679-5.359l0,0l-0.67-5.365C276.072,297.18,285.451,299.863,289.473,296.514z
				 M275.401,271.054l7.371,12.727l2.679,8.048c-2.009,0.667-6.699-2.015-13.399-6.033l-21.442-13.4h-4.688
				c-1.341,2.009-1.341,3.35,0,5.359c6.7,6.7,10.051,11.392,9.38,14.741c-1.341,0.667-5.359-0.667-11.392-4.018
				c-6.7-3.35-13.4-7.374-20.769-13.4l-4.69,0.667c-10.721,10.05-17.421,18.76-19.43,27.468l-0.671,0.667l0.671,0.674
				c2.679,11.392,10.05,26.801,23.45,47.575c20.771,24.117,37.521,52.254,50.251,82.404c-10.721-22.777-24.12-42.203-40.871-58.954
				l-20.771-18.099l-4.021,0.675c-0.668,0-1.339,0.674-1.339,2.009v1.341c6.03,13.401,10.051,31.492,13.401,53.602
				c-7.371-29.477-18.763-52.26-33.501-68.343c-8.042-8.709-14.742-14.735-20.771-16.751h-1.341
				c-5.359-0.667-8.709-2.009-11.388-4.685l-2.012-4.024c0-2.009-1.338-3.35-3.35-3.35c-2.679,0.674-3.35,2.01-3.35,3.35
				l-2.68,16.751l-3.35,8.709l-3.35-4.686l-2.009-7.373c0-2.677-1.341-3.351-3.35-3.351c-1.341,0-3.35,0.674-3.35,3.351
				l-3.35,21.441c-2.012,6.7-3.351,10.718-5.363,12.06c-1.338-1.342-3.35-6.701-4.688-17.425c0-2.677-1.341-3.35-3.35-3.35
				c-2.012,0-3.35,0.673-3.35,3.35l-2.012,20.774l-3.351,10.724c-1.338,0-2.679-1.347-3.35-5.364l-2.009-12.06
				c0-2.676-0.67-3.351-3.35-3.351c-1.341,0-2.679,0.675-3.35,3.351l-2.679,27.475c-2.012,9.377-3.351,16.076-4.692,18.753
				c-2.009-4.018-4.021-13.4-6.7-29.478c-2.009-14.741-3.351-27.474-3.351-38.858v-4.692l0.671-1.341
				c0.671-28.81,4.021-44.886,8.709-48.91c2.683-3.351,9.383-5.359,20.1-6.701l19.434-1.341c2.68,0.667,6.029,0,8.038-2.009
				c4.021-2.676,6.029-8.042,6.029-14.074c0-4.018-2.679-7.368-6.029-10.05c-4.021-2.676-6.7-6.026-8.038-11.385
				c-2.012-6.7,2.009-14.742,10.717-22.783l2.012-2.009h12.729l3.35-1.342c2.68-2.683,8.042-5.359,15.409-7.367
				c-3.35,5.359-5.359,10.718-5.359,16.75v5.359l1.341,10.05v3.35c0,4.691,4.018,8.042,12.059,10.05l4.021,1.341
				c5.359,2.009,11.388,0.667,16.75-3.35c6.029-4.018,10.051-9.383,12.059-14.742c1.341-5.359,4.691-10.724,9.38-15.409
				c4.021-5.365,6.7-8.041,8.712-8.041c4.021,0,10.051,2.008,19.43,5.359c10.051,4.691,18.759,9.383,26.801,16.083l33.501,28.136
				c13.399,12.065,20.771,20.774,23.45,26.133c-8.709-2.683-23.45-10.718-44.892-23.451h-4.688
				C275.401,268.378,274.73,269.712,275.401,271.054z"/>
		</g>
	</g>
	<g>
		<g>
			<path d="M146.757,212.094c-2.009-0.668-2.679,0-2.679,0.667c-1.338,1.342-0.671,2.683,0.67,2.683l7.371,4.018l2.679,0.667
				c1.341-1.335,1.341-2.002,0-2.676L146.757,212.094z"/>
		</g>
	</g>
	<g>
		<g>
			<path d="M144.078,229.512c0.67-3.35-0.671-5.359-4.688-5.359c-3.35,0-5.362,1.341-5.362,4.692
				c-0.671,3.35,0.671,5.359,4.691,5.359C141.398,234.877,144.078,233.529,144.078,229.512z"/>
		</g>
	</g>
	<g>
		<g>
			<path d="M91.818,289.813l-2.012,1.341c-4.018,25.459-4.018,50.924,0,76.377l2.012,1.349l2.009-2.683
				c-3.35-24.792-3.35-48.917,0-73.703C93.827,291.155,93.827,289.813,91.818,289.813z"/>
		</g>
	</g>
	<g>
		<g>
			<path d="M107.227,287.805c-0.671,0-2.009,1.341-2.009,2.009c-1.342,19.434-1.342,40.2,1.338,61.643l2.012,1.341l2.009-2.015
				c-2.009-21.436-2.679-41.535-0.67-60.969L107.227,287.805z"/>
		</g>
	</g>
	<g>
		<g>
			<path d="M126.657,289.146c-1.338,0-2.009,0-2.009,2.009c-0.67,11.391-0.67,26.126,2.009,43.551
				c0.67,1.341,1.341,2.009,2.012,2.009c2.009-0.668,2.009-1.335,2.009-2.009c-2.009-17.425-3.35-32.16-2.009-43.551
				L126.657,289.146z"/>
		</g>
	</g>
	<g>
		<g>
			<path d="M140.727,279.763l0.671,0.667l3.35,41.549c0,2.002,0,2.002,2.009,2.002l1.341-2.677l-1.341-26.126
				c3.35,6.026,7.371,9.376,11.392,11.385c2.009,0,2.68-0.667,2.68-1.334l1.341-4.024l1.338-9.376v-1.348
				c3.35,4.025,7.371,5.365,11.392,6.699l2.679-2.001c1.342-7.374,0.671-14.749-2.679-22.783c-0.671-0.667-1.341-1.341-3.35-0.667
				l-0.671,1.335v1.341c2.012,4.691,3.35,9.376,3.35,14.742v3.35c-4.688-1.341-7.371-3.35-10.05-6.7l-2.009-4.692h-0.671v-0.674
				c0-1.335,0-1.335-2.009-1.335l-1.341,2.009l0,0l0.671,10.725l-0.671,9.376c-4.021-1.342-7.371-6.026-10.05-12.059l-3.35-10.051
				c0-1.341,0-1.341-2.009-1.341C141.398,277.754,140.727,279.095,140.727,279.763z"/>
		</g>
	</g>
	<g>
		<g>
			<path d="M130.677,258.995l-3.35,0.667c-0.67,1.341-0.67,1.341,0.67,2.682l5.359,4.686c4.021,4.024,6.701,8.715,8.042,13.4
				c0,1.348,0.671,2.016,2.68,1.348c0.67-0.674,1.341-0.674,0.67-2.683c-1.341-4.691-4.021-10.05-8.041-14.741L130.677,258.995z"/>
		</g>
	</g>
	<g>
		<g>
			<path d="M128.668,311.256l5.359-0.675c3.35-2.676,6.7-8.703,8.042-17.418l1.338-15.409l-2.009-2.009
				c-1.341,0-2.009,0.667-2.009,2.009l-1.341,15.409c-1.341,8.042-4.021,12.066-6.03,14.067h-1.341l-2.68-2.676
				c-0.67-0.674-1.341-1.341-2.679-0.674c-1.341,0.674-1.341,1.349-1.341,2.016l1.341,2.683L128.668,311.256z"/>
		</g>
	</g>
	<g>
		<g>
			<path d="M125.989,276.413c0.668-1.335,0-2.009-2.012-2.009c-0.67,0-2.008,0-2.008,1.341l-3.351,25.459
				c-1.341,7.374-3.35,11.392-4.691,11.392l-2.68-0.668l-1.341-4.023l-2.009-2.676c-1.341,0-2.009,0.667-2.009,2.676l0.667,2.676
				c0,2.016,0.671,4.024,2.012,4.697l6.03,2.003c3.35-0.667,6.029-6.025,8.709-16.076L125.989,276.413z"/>
		</g>
	</g>
	<g>
		<g>
			<path d="M108.568,276.413c0-0.667,0-2.009-2.012-2.009c-1.338,0-2.009,1.341-2.68,2.009l-3.35,30.15
				c-1.338,8.715-2.679,13.401-4.021,14.068h-2.679c-0.671-1.336-2.009-4.018-2.009-8.703l-2.012-2.015
				c-2.009,0-2.68,0.667-2.009,2.015c0,6.026,1.341,9.376,4.021,11.385c1.338,1.342,3.35,1.342,5.358,1.342
				C102.539,323.313,106.556,307.23,108.568,276.413z"/>
		</g>
	</g>
	<g>
		<g>
			<path d="M67.025,309.914l2.012,4.691l4.018,3.35c2.683,1.341,5.362,0,7.371-3.35c3.35-4.691,6.7-12.06,8.042-21.442l2.009-13.4
				l-1.338-2.009c-2.012,0-2.012,0.674-2.012,2.009l-2.008,12.732c-2.012,8.709-4.692,15.41-8.042,19.433l-2.009,2.677l-3.35-4.024
				l-2.012-2.676L67.025,309.914z"/>
		</g>
	</g>
	<g>
		<g>
			<path d="M280.093,270.38c0.668-1.335,0.668-2.002-0.671-2.676c-24.121-20.101-42.88-32.16-56.951-37.525
				c-0.67-0.667-2.012,0-2.012,0.674c-0.668,1.341,0,2.676,0.67,3.351c14.071,4.691,32.831,16.75,56.281,36.851L280.093,270.38z"/>
		</g>
	</g>
	<g>
		<g>
			<path d="M215.101,250.954c-0.672,0-1.342,0-2.681,1.341c0,0.667,0,2.009,2.009,2.009c8.042,3.35,19.43,10.724,32.831,22.109
				c1.342,1.341,2.012,1.341,3.35,0c0.671-1.335,0.671-2.009-0.668-3.35C235.87,261.678,224.479,254.304,215.101,250.954z"/>
		</g>
	</g>
	<g>
		<g>
			<path d="M205.72,264.354c-0.67-0.674-2.012,0-2.012,1.341c-1.337,0.667-0.667,2.009,0.671,2.009l15.412,11.391h2.68v-2.682
				L205.72,264.354z"/>
		</g>
	</g>
	<g>
		<g>
			<path d="M183.608,250.954c-1.338,0-2.009,0-2.679,1.341c0,0.667,0,2.009,0.67,2.009l16.75,8.041
				c10.05,4.018,16.751,6.701,20.101,5.359c3.351,0,5.359-2.009,6.699-3.35l1.342-5.359l-0.67-2.015l-2.012-1.335l-2.009,2.009
				l0.67,1.341l-0.67,2.683l-3.351,2.676C213.759,265.028,201.699,261.004,183.608,250.954z"/>
		</g>
	</g>
	<g>
		<g>
			<path d="M229.171,237.553c4.688,4.691,6.029,8.042,5.359,10.724c-4.021,1.335-16.08-1.348-35.51-8.715
				c-1.342,0-2.013,0-2.68,1.341c-0.671,1.341,0,2.009,1.338,2.676c20.771,7.375,33.501,10.051,37.521,8.716l2.68-2.683
				c0.671-2.009,0.671-4.017-1.338-8.035l-4.021-6.033l-2.013-1.341C229.171,235.544,229.171,236.212,229.171,237.553z"/>
		</g>
	</g>
	<g>
		<g>
			<path d="M225.149,224.153l-14.741-5.359c-1.338,0-2.009,0-2.009,1.335c-1.341,1.348-0.67,2.015,0.671,2.683l15.409,4.691
				l21.441,4.691c2.681,0,5.359-1.341,6.03-3.35c2.009-2.683,0.67-6.033-1.342-10.051l-2.68-1.341
				c-2.009,0.674-2.009,1.341-0.67,3.35c1.342,2.676,2.012,4.691,1.342,6.7l-2.681,0.674L225.149,224.153z"/>
		</g>
	</g>
	<g>
		<g>
			<path d="M202.371,296.514l-1.342-2.008l-7.371,42.209l1.341,2.016l2.68-1.349l7.371-42.203L202.371,296.514z"/>
		</g>
	</g>
	<g>
		<g>
			<path d="M208.399,318.629c-0.67,0-1.341,0.667-1.341,2.003l-2.009,10.05l-2.679,14.074c0,1.341,0,2.677,2.008,3.35
				c0.671,0,2.012,0,2.68-2.009l2.012-14.741l1.338-10.724C211.079,319.296,210.408,318.629,208.399,318.629z"/>
		</g>
	</g>
	<g>
		<g>
			<path d="M218.45,336.715c-0.671-0.668-2.009,0-2.68,1.341l-2.012,13.4c-0.667,0.674,0,1.341,1.342,2.009l2.679-2.009l2.68-12.726
				C220.459,337.382,220.459,336.715,218.45,336.715z"/>
		</g>
	</g>
	<g>
		<g>
			<path d="M168.869,334.706c0-1.342-0.67-2.009-2.012-1.342c-2.009,0.667-2.009,1.342-2.009,2.016l1.342,9.376
				c0.667,7.374-0.671,14.741-2.683,23.451c0,0.674,0,1.341,1.341,2.009l2.68-2.009c2.012-8.042,3.35-16.751,2.679-24.125
				L168.869,334.706z"/>
		</g>
	</g>
	<g>
		<g>
			<path d="M181.599,345.43c-0.67,0-1.341,0.667-2.009,2.003l-1.341,11.397l-3.35,19.426c0,1.342,0,2.678,1.341,2.678
				c1.338,0.673,2.009,0,2.009-1.336l4.021-20.101l1.338-11.392C184.279,346.765,183.608,345.43,181.599,345.43z"/>
		</g>
	</g>
	<g>
		<g>
			<path d="M194.329,361.506c-2.009,0-2.68,0-2.68,1.342l-0.671,10.051l-4.021,16.083c0,0.667,0,2.001,1.342,2.676
				c0.67,0,2.009,0,2.679-2.009l3.351-15.416l1.341-10.05C195.67,362.181,194.999,361.506,194.329,361.506z"/>
		</g>
	</g>
	<g>
		<g>
			<path d="M203.041,378.256c-1.342,0-2.012,0-2.012,1.342l-0.671,8.709l-2.68,14.074c-0.671,2.003,0,2.677,0.671,2.677
				c1.341,0.674,2.68,0,2.68-0.674l3.35-16.077l0.671-8.709L203.041,378.256z"/>
		</g>
	</g>
	<g>
		<g>
			<path fill="#858585" d="M127.998,165.193c19.43-15.416,32.16-35.516,38.86-60.301c8.712-32.834,6.7-69.685-8.709-110.553
				c-12.729,2.683-24.792,8.035-38.192,15.409c-26.801,14.742-42.88,33.501-48.239,55.61c-4.692,21.441-4.692,52.934,0,95.144
				l6.03,66.328c3.35-6.026,8.041-13.4,14.071-21.436C103.206,188.643,115.268,175.243,127.998,165.193z"/>
		</g>
	</g>
	<g>
		<g>
			<path d="M166.857-0.303l-3.35,0.674c-12.729,14.068-26.13,34.168-39.53,58.954c-26.801,48.917-42.21,100.502-46.901,153.436
				l2.679,3.35c2.012,0,2.683-0.667,2.683-2.008c4.688-52.928,20.101-103.853,46.23-152.095
				c12.729-24.118,26.13-43.551,38.86-57.619C168.199,2.374,168.199,1.039,166.857-0.303z"/>
		</g>
	</g>
	<g>
		<g>
			<path d="M153.457,2.374c-0.667-1.334-2.008-1.334-2.679-1.334l-27.471,13.4c-18.759,10.718-31.489,20.101-38.86,27.468
				c-0.671,1.341-0.671,2.016,0.671,2.683h2.679c6.7-7.368,19.43-16.75,38.192-26.8c9.38-4.692,18.089-9.383,26.13-12.733
				C153.457,4.389,154.128,3.722,153.457,2.374z"/>
		</g>
	</g>
	<g>
		<g>
			<path d="M153.457,19.124c-0.667-1.334-2.008-2.002-2.679-1.334c-9.38,4.685-19.43,10.717-30.151,18.085
				c-22.109,14.074-38.86,29.483-50.251,44.899c-0.67,1.335-0.67,2.676,0,2.676c1.342,1.342,2.68,0.674,3.351,0
				c10.721-15.409,26.8-30.15,48.913-44.892c11.389-6.7,20.768-12.733,29.48-16.75C153.457,21.139,154.128,19.798,153.457,19.124z"
				/>
		</g>
	</g>
	<g>
		<g>
			<path d="M134.027,47.94h-2.68c-6.029,4.685-14.071,11.385-21.441,18.759c-16.08,15.409-28.81,28.81-36.851,40.875
				c-1.338,0.668-1.338,2.002,0.671,2.677c0.67,1.341,1.341,1.341,2.679,0c12.733-19.427,32.163-38.86,57.622-58.96V47.94z"/>
		</g>
	</g>
	<g>
		<g>
			<path d="M111.918,91.491h-2.679c-19.433,24.118-32.163,43.551-38.863,58.286c0,1.348,0,2.015,1.342,2.683
				c1.338,0.667,2.009,0,3.35-0.667c5.358-14.742,18.088-33.501,36.851-56.951C113.256,93.5,113.256,92.158,111.918,91.491z"/>
		</g>
	</g>
	<g>
		<g>
			<path d="M74.396,171.226c-0.67,0.667-0.67,2.002,0.671,2.676h2.68l14.071-22.109h-2.012c-1.338,0-1.338-1.341,0-1.341
				L74.396,171.226z"/>
		</g>
	</g>
	<g>
		<g>
			<path d="M162.84,6.398c-0.671-1.341-1.342-1.341-2.683-1.341c-1.338,0.667-1.338,1.341-1.338,2.682l4.688,19.434
				c2.012,16.076,2.012,33.501,1.341,50.918l2.009,2.683l1.342-2.015C170.878,49.949,168.869,25.824,162.84,6.398z"/>
		</g>
	</g>
	<g>
		<g>
			<path d="M148.769,26.498c-0.671-2.009-1.341-2.009-2.012-2.009c-1.338,0-2.009,0.668-2.009,2.009
				c4.692,38.192,6.03,69.011,3.35,93.128l1.342,2.016c2.009,0,2.009,0,2.009-1.342C154.798,95.509,153.457,64.69,148.769,26.498z"
				/>
		</g>
	</g>
	<g>
		<g>
			<path d="M133.356,56.649c0-2.009-0.667-2.009-2.679-2.009c-0.671,0-1.338,0.667-1.338,2.009
				c4.017,37.525,4.688,64.993,2.679,83.752c0,1.341,0,2.009,2.009,2.009l1.341-2.009C138.048,121.642,137.377,93.5,133.356,56.649z
				"/>
		</g>
	</g>
	<g>
		<g>
			<path d="M115.268,88.141c0-1.342-1.341-2.683-2.679-2.683c-0.671,0.667-2.012,1.341-2.012,2.683l3.35,26.8
				c1.341,18.759,2.012,33.501,1.341,43.551c0,0.667,0,2.009,2.009,2.009l1.341-2.009c1.338-10.05,0.671-24.792-1.341-43.551
				L115.268,88.141z"/>
		</g>
	</g>
	<g>
		<g>
			<path d="M98.518,131.692c0-2.015-1.341-2.682-2.012-2.015c-2.009,0-2.679,0.674-2.009,2.015l2.68,18.759l2.679,30.151
				l1.342,2.008c0.67,0,2.009-0.667,2.679-2.008l-2.679-30.151L98.518,131.692z"/>
		</g>
	</g>
	<g>
		<g>
			<path d="M83.776,5.057c-0.67-0.667-2.009-0.667-3.35,0.667C69.705,23.822,59.655,45.257,48.937,70.049
				c-20.1,50.251-30.821,93.129-30.151,130.654c0,21.441,1.338,41.542,4.018,59.627c0.671,10.725,4.021,24.125,7.371,40.875
				c6.03,24.792,8.042,46.228,8.712,64.993c0.667,29.483-2.012,60.301-7.371,93.802c-4.692,29.483-10.722,54.269-16.75,73.034
				c-1.342,1.335-0.671,2.676,1.338,3.351c2.012,0,3.35,0,3.35-2.016c6.7-18.759,12.732-42.884,17.421-73.034
				c4.691-33.501,8.042-65.653,7.371-95.137c-0.671-18.766-2.68-40.869-8.709-65.667l-7.371-40.869
				c-2.679-17.418-4.021-37.519-4.691-58.96c0-36.851,10.05-79.728,30.15-128.645C64.346,47.94,74.396,26.498,85.118,9.074
				C85.788,7.739,85.788,6.398,83.776,5.057z"/>
		</g>
	</g>
	<g>
		<g>
			<path d="M40.225,325.997l-3.35-0.668c-0.67,0-0.67,1.335-0.67,2.676l7.371,14.074l14.742,36.177c0,1.342,1.338,2.01,2.009,1.342
				c1.341,0,2.012-1.342,1.341-2.015c-4.021-12.727-8.712-24.786-14.742-36.852L40.225,325.997z"/>
		</g>
	</g>
	<g>
		<g>
			<path d="M77.747,19.124l-2.68-1.334l-1.341,2.009c3.35,18.091,3.35,32.159,1.341,41.542c0,0.667,0,2.009,2.009,2.009l2.012-2.009
				C81.097,51.958,80.426,37.89,77.747,19.124z"/>
		</g>
	</g>
	<g>
		<g>
			<path d="M61.667,52.625c0-1.335-1.341-2.002-2.012-1.335c-1.338,0-2.679,0-2.679,1.335c3.35,34.174,4.691,60.975,2.679,81.076
				c0,1.341,0.671,2.009,2.012,2.009l2.009-2.009C65.017,113.6,64.346,86.799,61.667,52.625z"/>
		</g>
	</g>
	<g>
		<g>
			<path d="M44.246,94.841l-2.68-2.016c-0.671,0-1.341,0.674-1.341,2.016l2.679,27.468l2.012,46.901
				c0,1.341,1.338,2.682,2.009,2.682l2.68-2.682l-2.68-47.568L44.246,94.841z"/>
		</g>
	</g>
	<g>
		<g>
			<path d="M31.517,138.393l-2.012,1.334l-2.68-1.334l18.092,87.769c0,1.341,1.338,2.015,2.009,1.341c1.341,0,2.012,0,1.341-2.009
				L31.517,138.393z"/>
		</g>
	</g>
	<g>
		<g>
			<path d="M23.475,193.329c-0.671-1.335-1.338-1.335-2.68-1.335c-1.341,0-1.341,1.335-1.341,2.008l9.383,33.501
				c7.368,23.451,12.729,40.201,16.08,50.251c1.338,1.341,2.009,1.341,3.35,1.341c1.339-0.667,1.339-1.341,1.339-3.35
				c-4.688-9.383-10.051-26.133-16.75-49.584L23.475,193.329z"/>
		</g>
	</g>
	<g>
		<g>
			<path d="M29.504,274.404l-2.68-1.341c-1.338,1.341-1.338,2.015-0.671,2.683l14.071,22.784l14.742,24.117l2.679,0.667
				c1.342-0.667,2.009-2.009,0.671-2.682l-14.742-24.786L29.504,274.404z"/>
		</g>
	</g>
	<g>
		<g>
			<path d="M43.575,362.181c-0.671-0.675-2.009-1.349-2.68-0.675c-1.341,0-1.341,0.675-1.341,2.009l7.371,30.818l10.05,43.552
				l2.012,1.347c1.338,0,2.009-0.674,1.338-1.347c-0.671-8.035-3.35-22.777-8.709-43.552L43.575,362.181z"/>
		</g>
	</g>
	<g>
		<g>
			<path d="M40.225,425.158c0-2.009-1.338-2.009-2.009-2.009c-1.341,0.667-2.012,2.009-1.341,2.683l3.35,12.053l4.691,20.774
				L46.925,460l1.341-2.016l-4.691-20.768L40.225,425.158z"/>
		</g>
	</g>
	<g>
		<g>
			<path d="M34.866,468.035c-0.671-2.003-1.341-2.003-2.68-1.336c-2.012,0.669-2.012,2.009-2.012,2.684l3.35,7.367l2.68,13.401
				l2.012,2.009l2.009-2.009l-3.35-14.068L34.866,468.035z"/>
		</g>
	</g>
	<g>
		<g>
			<path d="M41.566,346.097c-1.341-1.341-2.012-0.667-2.679,1.336l-9.383,19.433c-6.701,14.741-11.389,25.466-14.738,33.501
				c0,1.342,0,2.015,1.338,2.683c1.341,0,2.682,0,2.682-1.341l14.739-33.501l9.379-19.428
				C42.904,347.433,42.904,346.097,41.566,346.097z"/>
		</g>
	</g>
	<g>
		<g>
			<path d="M41.566,398.357h-2.679l-8.712,13.399c-5.359,11.393-10.721,22.777-15.409,32.828c0,0.673,0.67,1.348,1.338,2.682
				c0.67,0.667,2.012-0.667,2.682-1.334l15.409-31.499l8.042-13.4C43.575,399.031,42.904,398.357,41.566,398.357z"/>
		</g>
	</g>
	<g>
		<g>
			<path d="M36.875,313.932c-1.338-1.335-2.009-1.335-2.68,0.674l-9.379,20.774c-7.371,16.076-12.062,27.468-14.742,36.851
				c0,1.335,0,2.677,2.012,2.677l2.009-1.342c2.679-8.709,7.371-21.436,14.071-36.184l10.05-21.436
				C38.216,314.605,38.216,313.932,36.875,313.932z"/>
		</g>
	</g>
	<g>
		<g>
			<path d="M46.925,85.458c0-1.335-1.338-2.009-2.679-0.667C23.475,96.176,8.736,106.9,0.024,115.609
				c-0.671,1.341-0.671,1.341,0,2.682c1.341,0.667,2.012,0.667,3.35,0c4.691-6.032,13.4-12.733,25.462-20.101l17.417-10.05
				C47.596,88.141,48.266,86.799,46.925,85.458z"/>
		</g>
	</g>
	<g>
		<g>
			<path d="M63.005,48.607c-0.667-1.335-1.338-2.009-2.679-0.667c-21.438,8.708-38.86,18.759-53.602,31.485
				c-1.338,0.674-1.338,2.015-0.67,2.683c0.67,1.341,2.012,1.341,3.35,0c14.071-12.06,31.492-22.109,52.264-30.818L63.005,48.607z"
				/>
		</g>
	</g>
	<g>
		<g>
			<path d="M80.426,14.439c-0.67-1.342-2.009-1.342-2.679-1.342c-17.421,4.692-34.843,12.727-52.26,23.451L4.715,51.958
				c-1.341,1.341-1.341,2.015,0,2.683c1.338,1.335,2.009,1.335,2.68,0c5.359-4.018,12.059-9.383,20.101-14.742
				C44.917,29.174,61.667,21.807,78.417,17.79C80.426,17.122,80.426,15.774,80.426,14.439z"/>
		</g>
	</g>
	<g>
		<g>
			<path d="M237.88-9.012c-2.01-0.667-2.68,0-4.021,1.335c-6.7,12.733-13.399,29.483-19.43,50.925
				c-12.729,42.21-18.088,85.093-16.079,128.644c0,2.009,0.671,2.009,2.68,2.009c1.342,0,2.679-1.341,2.679-2.676
				c-2.009-42.884,3.351-84.426,15.413-126.636c6.028-20.101,12.729-36.851,19.43-50.251C239.221-7.003,239.221-7.677,237.88-9.012z
				"/>
		</g>
	</g>
	<g>
		<g>
			<path d="M235.2-1.644c-0.67-0.667-1.342-1.334-3.35-0.667c-0.671,0.667-1.342,1.335,0,3.35
				c7.37,16.75,12.059,34.168,12.729,52.26c0,1.341,0.671,2.009,1.341,2.009l2.681-2.009C247.93,34.54,243.242,15.774,235.2-1.644z"
				/>
		</g>
	</g>
	<g>
		<g>
			<path d="M235.2-1.644l-3.35-0.667c-3.351,2.008-10.05,6.7-19.431,14.735c-14.07,12.065-24.12,22.783-30.821,34.175
				c-0.67,1.342-0.67,2.009,0.671,2.676l2.679-0.667c6.701-10.718,16.75-22.109,30.152-33.501l19.43-14.067
				C235.2,1.039,235.2-0.303,235.2-1.644z"/>
		</g>
	</g>
	<g>
		<g>
			<path d="M225.149,22.474c0-1.335-0.67-1.335-2.679-1.335c-0.67,0-1.342,1.335-0.67,2.683
				c9.379,31.485,12.729,58.953,10.05,81.069c0,1.335,0.671,2.009,2.008,2.009c1.342,0,2.012,0,2.012-2.009
				C238.551,82.775,235.2,54.64,225.149,22.474z"/>
		</g>
	</g>
	<g>
		<g>
			<path d="M221.129,32.524c-0.67-1.334-2.008-1.334-2.679,0c-18.092,17.424-30.15,32.833-36.851,45.566
				c0,0.667,0,2.009,1.341,2.009c1.338,1.341,2.008,1.341,2.679-0.674c6.03-11.385,18.088-26.8,35.509-44.218
				C222.471,34.54,222.471,33.198,221.129,32.524z"/>
		</g>
	</g>
	<g>
		<g>
			<path d="M209.741,70.049l-1.342,0.674c-3.35,2.676-8.709,9.376-16.079,19.427c-10.05,15.409-16.75,30.825-20.771,45.56
				c0,2.015,0,2.683,2.009,2.683c1.341,0,2.012,0,2.012-1.342c3.35-13.4,9.379-26.126,16.75-38.86
				c6.029-9.383,11.388-16.75,16.75-22.783c6.7,14.742,10.051,26.8,10.051,34.842l2.68,1.341l2.009-2.015
				c-0.669-7.368-2.681-15.402-6.03-24.785l-6.7-13.4L209.741,70.049z"/>
		</g>
	</g>
	<g>
		<g>
			<path d="M203.708,116.95l-2.679,0.674c-9.38,10.717-16.081,24.118-19.43,40.201c-0.67,0.667,0,2.002,0.671,2.676
				c1.338,0,2.679,0,2.679-2.009c4.021-15.416,10.05-28.142,18.759-38.192C204.379,118.959,204.379,118.292,203.708,116.95z"/>
		</g>
	</g>
	<g>
		<g>
			<path d="M204.379,113.6c0-0.674-1.338-1.341-2.68-0.674c-1.341,0.674-1.341,1.348-0.67,2.683l4.69,14.741l6.03,23.451
				c0,2.009,0,2.009,2.009,2.009l1.342-2.009l-5.359-23.451L204.379,113.6z"/>
		</g>
	</g>
</g>
<path id="PATH77" fill="none" stroke="#000000" stroke-width="3" stroke-miterlimit="100" d="M370.59,585.26H3.92V2.74h366.67
	V585.26L370.59,585.26z"/>
</svg>
