<?xml version="1.0" encoding="utf-8"?>
<!-- Generator: Adobe Illustrator 13.0.0, SVG Export Plug-In . SVG Version: 6.00 Build 14948)  -->
<!DOCTYPE svg PUBLIC "-//W3C//DTD SVG 1.1//EN" "http://www.w3.org/Graphics/SVG/1.1/DTD/svg11.dtd">
<svg version="1.1" id="圖層_1" xmlns="http://www.w3.org/2000/svg" xmlns:xlink="http://www.w3.org/1999/xlink" x="0px" y="0px"
	 width="372px" height="587px" viewBox="0 0 372 587" enable-background="new 0 0 372 587" xml:space="preserve">
<g>
	<rect width="372" height="587" fill="#FFFFFF" fill-opacity="1.0"/>
</g>
<path id="PATH1" fill="#7CC4AA" stroke="#000000" stroke-width="3" d="M-8.5,245C220,252.5,91,333.5,378,334.5V592H-8.5V245z"/>
<path id="PATH2" fill="none" stroke="#000000" stroke-width="3" stroke-miterlimit="100" d="M365.5,563c0,0-79.08,19.95-127.5,20.5
	c-45.561,0.521-76.52-3.6-120.5-15.5c-41.95-11.35-71.52-19.41-107-44.5c-8.18-5.78-21-16.5-21-16.5"/>
<path id="PATH3" fill="none" stroke="#000000" stroke-width="3" stroke-miterlimit="100" d="M362,478.5c0,0-85.96,24.31-138.5,22
	c-36.779-1.62-63.12-2.47-96.5-18c-32.04-14.91-48.66-33.86-73.5-59c-21.359-21.62-51-63-51-63"/>
<path id="PATH4" fill="none" stroke="#000000" stroke-width="3" stroke-miterlimit="100" d="M363.5,399.5c0,0-42.05,26.79-70.5,34
	c-65.51,16.61-118.33-4.95-175.5-41c-21.75-13.71-37.51-22.98-53-43.5c-17.29-22.9-23.93-42.68-28.5-71c-1.141-7.07-2-19-2-19"/>
<path id="PATH5" fill="none" stroke="#000000" stroke-width="3" stroke-miterlimit="100" d="M349,337c0,0-22.83,26.891-41.5,35
	c-25.971,11.28-47.439,3.79-75.5,0c-23.57-3.18-40.109-5.09-61.5-15.5c-16.93-8.24-28.42-14.98-41-29
	c-9.35-10.41-14.92-18.46-20-31.5c-4.25-10.9-6.5-30.5-6.5-30.5"/>
<path id="PATH6" fill="#327830" stroke="#000000" stroke-width="3" d="M93,147c3.5-4.5,117.5-11,114-4.5c-2,2,8,2-1.5,8
	c-30.5,6-96,11-101.5,9C97,157,87.5,154.5,93,147z"/>
<path id="PATH7" fill="#F35ABD" stroke="#000000" stroke-width="3" d="M198.279,65.25c2.74,14.46,7.091,17.74-2.859,37.52
	c-15.949,4.72-19.199-0.84-20.17-12.72C179.99,73.48,179.62,85.9,198.279,65.25z"/>
<path id="PATH8" fill="#F35ABD" stroke="#000000" stroke-width="3" d="M90.641,87.8c14.289,4.88,15.779-7.17,28.959,8.65
	c5.53,6.65,0.16,18.71-9,18.94C98.971,115.61,86.141,108.58,90.641,87.8z"/>
<path id="PATH9" fill="#F35ABD" stroke="#000000" stroke-width="3" d="M114.74,70.63c-18.57,13.74-12.301,19.4,0.88,27.62
	c12.01,7.5,26.819,3.48,23.61-10.56C135.311,71.1,129.18,76.55,114.74,70.63z"/>
<path id="PATH10" fill="#F35ABD" stroke="#000000" stroke-width="3" d="M117.061,60.76c0.399,7.86,1.739,16.6,3.189,20.17
	c1.9,5.15,4.91,3.72,13.91,13.48c16.63,0.14,18.23-6.1,15.88-17.78C136.971,56.55,131.5,67.93,117.061,60.76L117.061,60.76z"/>
<path id="PATH11" fill="#F35ABD" stroke="#000000" stroke-width="3" d="M159.38,55.87c2.649,12.12,11.08,16.82,6.2,32.36
	c-2.76,8.87-16.75,9.9-20.66,2.2c-3.16-5.68-8.05-13.71-5.21-15.29c9.39-6.97,7.88-12.65,19.681-19.26L159.38,55.87z"/>
<path id="PATH12" fill="#F35ABD" stroke="#000000" stroke-width="3" d="M181.76,58.38c2.74,14.46,7.09,17.74-2.859,37.52
	c-15.95,4.72-23.351-0.14-19.49-11.28c3.55-9.93,8.77-13.02,22.35-26.23V58.38z"/>
<path id="PATH13" fill="#FF9CDC" stroke="#000000" stroke-width="3" d="M155.32,114.17c-10.33,1.45-19.41-2.33-20.271-8.46
	c-0.86-6.12,6.82-12.26,17.15-13.71c10.329-1.45,19.409,2.33,20.271,8.46C173.33,106.58,165.65,112.72,155.32,114.17z"/>
<path id="PATH14" fill="#F35ABD" stroke="#000000" stroke-width="3" d="M203.67,88.53c2.74,14.46,7.09,17.74-2.859,37.52
	c-15.951,4.72-19.201-0.84-20.17-12.72C185.38,96.76,185.01,109.18,203.67,88.53z"/>
<path id="PATH15" fill="#F35ABD" stroke="#000000" stroke-width="3" d="M87.27,100.29c13,7.01,17.541-6,30.721,9.82
	c5.529,6.65,0.16,18.71-9,18.94C97.359,129.27,82.77,121.07,87.27,100.29z"/>
<path id="PATH16" fill="#F35ABD" stroke="#000000" stroke-width="3" d="M115.189,97.78c0.99,19.65,2.09,17.38,17.101,33.65
	c16.63,0.14,18.229-6.1,15.88-17.78C135.1,93.57,129.63,104.95,115.189,97.78L115.189,97.78z"/>
<path id="PATH17" fill="#F35ABD" stroke="#000000" stroke-width="3" d="M181.99,90.16c2.74,14.46,7.09,17.74-2.86,37.52
	c-15.95,4.72-19.2-0.84-20.17-12.72C163.7,98.39,163.33,110.81,181.99,90.16z"/>
<path id="PATH18" fill="#F35ABD" stroke="#000000" stroke-width="3" d="M210.01,108.49c-6.33,20.33,1.35,14.66-9.43,31.02
	c-15.95,4.72-19.801-0.04-16.801-11.42c11.23-20.67,12.261-13.39,26.23-19.59V108.49L210.01,108.49z"/>
<path id="PATH19" fill="#F35ABD" stroke="#000000" stroke-width="3" d="M191.55,110.38c-6.329,20.33,3.57,17.88-8.19,32.26
	c-15.949,4.72-19.949-1.08-20.909-12.97C171.51,106.13,187.68,113.05,191.55,110.38z"/>
<path id="PATH20" fill="#F35ABD" stroke="#000000" stroke-width="3" d="M86.73,119.1c13,7.01,17.64-7.78,30.819,8.04
	c5.53,6.65,0.16,18.71-9,18.94C96.92,146.3,86.641,138.56,86.73,119.1z"/>
<path id="PATH21" fill="#F35ABD" stroke="#000000" stroke-width="3" d="M112.88,114.01c13,7.01,14.61-4.17,27.79,11.65
	c5.53,6.65-1.98,21.13-11.141,21.36c-11.629,0.22-21.399-13.96-16.659-33.01H112.88z"/>
<path id="PATH22" fill="#F35ABD" stroke="#000000" stroke-width="3" d="M155.9,110.79c5.109,16.25,16.699,15.68,11.81,31.21
	c-2.64,8.85-24.33,10.49-30.601,3.59c-4.549-24.81,11.23-18.19,18.791-34.81V110.79z"/>
<path id="PATH23" fill="none" stroke="#000000" stroke-width="3" stroke-miterlimit="100" d="M166.96,88.03l-2.319,5.27"/>
<path id="PATH24" fill="none" stroke="#000000" stroke-width="3" stroke-miterlimit="100" d="M171.74,91.84l-2.25,4.09"/>
<path id="PATH25" fill="none" stroke="#000000" stroke-width="3" stroke-miterlimit="100" d="M133.38,95.58l4.55,3.84"/>
<path id="PATH26" fill="none" stroke="#000000" stroke-width="3" stroke-miterlimit="100" d="M152.279,85.85l0.881,6.24"/>
<path id="PATH27" fill="none" stroke="#000000" stroke-width="3" stroke-miterlimit="100" d="M145.811,88.41l2.129,5.12"/>
<path id="PATH28" fill="none" stroke="#000000" stroke-width="3" stroke-miterlimit="100" d="M138.51,91.8l3.461,4.46"/>
<path id="PATH29" fill="none" stroke="#000000" stroke-width="3" stroke-miterlimit="100" d="M159.439,86.5l-0.51,6.43"/>
<path id="PATH30" fill="#327830" stroke="#000000" stroke-width="3" d="M281.67,443.5c4.33,4.67-4.67,6.33-14.67,10.33
	c-7,3-6.33,7.33-35.33,9.33c-7.67,0-43.67-14-52.67-14c-14.33,0-21.67,17.33-40.67,17.33c-20-1-21.67-9-34-10.33
	c-14.67-1.67-21.67,7.67-39.01,8.14c-24.65,0.19-42.99-0.81-46.32-6.47c-6-11,16-21,24-25c6.33-3,0.33-13,10.67-21.33
	c12.33-10.33,29,2,35.67-3c8.33-6,7.641-18.86,15-19c9.78-0.36,37,8.67,59,10.33c19.33,1.33,33.65-4.51,42.67-4.67
	c34-1.67,69.33,42.33,75.67,48.33L281.67,443.5z"/>
<path id="PATH31" fill="#327830" stroke="#000000" stroke-width="3" d="M198,131c15-6,24,12,45.5,12.5c16.5,0.5,18-12.5,28-7
	c14.2,6.86,12.5,19.5,22.5,28c5.5,4.5,19,6.5,19.5,17.5c0.5,15.5-12,19-16,31.5c-0.5,1.5-9-1-17.5,8c-4,4.5-8.5,13.5-15,20
	c-12,12-29.5-5-37.5-5.5c-16.5-1-15.18,13.1-32.5,6c-11.37-4.66-8.5-11.5-12.5-16.5c-4-4-13.5-0.5-18.5-10.5c-3-6,7-14.5,0.5-29
	c-2.5-6-12.5-18.5-10-23.5c7-12.5,15-1.5,22.5-9C186.5,144,186,136,198,131z"/>
<path id="PATH32" fill="#327830" stroke="#000000" stroke-width="3" d="M96.33,233.17c21.33-12,36.33-1.67,44.67-5.33
	c16-8,18.33-25.67,38-12c12.67,8.33,3.67,23,5,40.67c1,13,10.67,11,9,30c-1.67,17-15.67,10.33-22.67,24.67
	c-8,14.33-7.53,31.53-11.33,35.33c-5.9,5.9-13.8,8.73-22.34,9.27c-8.84,0.552-18.33-6.6-27-4.93c-26.33,3.67-47.33,15.67-65.67-7.33
	c-13-16.67,1.67-22,2.89-31.01c2.11-18.65-8.22-27.99-0.89-44.99c4.67-11,15-8.33,25.67-14.668c10-6.33,19-17.33,24.67-19.67V233.17
	z"/>
<path id="PATH33" fill="#F35ABD" stroke="#000000" stroke-width="3" d="M99.33,153.17c5,15.33,16,17,13.67,26
	c-3.67,14-18.33,15.33-28,0.33C85,174.83,88.33,163.17,99.33,153.17z"/>
<path id="PATH34" fill="#F35ABD" stroke="#000000" stroke-width="3" d="M117,173.17c-8.33,2-19.67,13.33-17.33,20.33
	c4.67,12,13.67,18.33,17,6.33c3.33-12.33-1.33-12.67,0.33-26.67V173.17z"/>
<path id="PATH35" fill="#F35ABD" stroke="#000000" stroke-width="3" d="M82.67,176.17c3,9,18.67,13,16.67,23.67
	c-2.67,10-13.67,15.67-20.33,8.33c-8.33-9.67-3.33-23,3.67-32H82.67z"/>
<path id="PATH36" fill="#F35ABD" stroke="#000000" stroke-width="3" d="M121,185.5c6.67,14,3.33,21.67,1.33,28.67
	c-4.67,12-20,16-23.33,4C95.67,205.5,114,194.5,121,185.5z"/>
<path id="PATH37" fill="#F35ABD" stroke="#000000" stroke-width="3" d="M69.33,197.5c15,13,21.67,13,23,19.67c2,10-9.33,10-10.33,10
	C76,224.5,66.67,223.84,69.33,197.5z"/>
<path id="PATH38" fill="#F35ABD" stroke="#000000" stroke-width="3" d="M304.5,325.5c1,21,6.5,26.5-11.5,52.5c-23.5,3.5-27-5-26-22
	C277,333.5,274,351,304.5,325.5z"/>
<path id="PATH39" fill="#F35ABD" stroke="#000000" stroke-width="3" d="M147.75,336c19.25,9.75,23.75-7,39.25,18
	c6.5,10.5-3.5,26.5-16.5,25C154,377,137.25,364.5,147.75,336z"/>
<path id="PATH40" fill="#F35ABD" stroke="#000000" stroke-width="3" d="M185.25,316.5c-29,15.75-21.25,25-4.25,39.25
	c15.5,13,37.25,10.25,35.5-10.25C214.25,321.25,204.5,327.75,185.25,316.5z"/>
<path id="PATH41" fill="#F35ABD" stroke="#000000" stroke-width="3" d="M190.5,303c-1,11.2-0.83,23.83,0.5,29.17
	c1.67,7.67,6.2,6.23,17,21.83c23.5,3.5,27-5,26-22C219.5,301,209.5,316,190.5,303z"/>
<path id="PATH42" fill="#F35ABD" stroke="#000000" stroke-width="3" d="M251.33,304.5c1.33,17.67,12.33,26,2.33,47
	c-5.67,12-25.67,10.67-29.67-1c-3.33-8.67-8.67-21-4.33-22.67C234.33,319.83,233.33,311.5,251.33,304.5z"/>
<path id="PATH43" fill="#F35ABD" stroke="#000000" stroke-width="3" d="M282.5,312.5c1,21,6.5,26.5-11.5,52.5
	c-23.5,3.5-33-4.83-25.33-19.83C252.67,331.84,260.67,328.5,282.5,312.5z"/>
<path id="PATH44" fill="#FF9CDC" stroke="#000000" stroke-width="3" d="M234,386.16c-14.91,0-26.99-7.16-26.99-15.99
	s12.08-15.99,26.99-15.99s26.99,7.16,26.99,15.99S248.91,386.16,234,386.16L234,386.16z"/>
<path id="PATH45" fill="#F35ABD" stroke="#000000" stroke-width="3" d="M307.5,359.5c1,21,6.5,26.5-11.5,52.5c-23.5,3.5-27-5-26-22
	C280,367.5,277,385,307.5,359.5z"/>
<path id="PATH46" fill="#F35ABD" stroke="#000000" stroke-width="3" d="M140.5,353c17,12.5,26-5,41.5,20c6.5,10.5-3.5,26.5-16.5,25
	C149,396,130,381.5,140.5,353z"/>
<path id="PATH47" fill="#F35ABD" stroke="#000000" stroke-width="3" d="M180.5,355c-2.5,28-0.5,25,17.5,51c23.5,3.5,27-5,26-22
	C209.5,353,199.5,368,180.5,355z"/>
<path id="PATH48" fill="#F35ABD" stroke="#000000" stroke-width="3" d="M276.5,357.5c1,21,6.5,26.5-11.5,52.5c-23.5,3.5-27-5-26-22
	C249,365.5,246,383,276.5,357.5z"/>
<path id="PATH49" fill="#F35ABD" stroke="#000000" stroke-width="3" d="M312.5,389c-13,27.5-1,21-19.5,42c-23.5,3.5-28-4-21.5-19.5
	C291.5,384.5,291.5,395,312.5,389z"/>
<path id="PATH50" fill="#F35ABD" stroke="#000000" stroke-width="3" d="M286,388c-13,27.5,1.5,26-18,44c-23.5,3.5-28-5.5-27-22.5
	C258.5,378,280,391,286,388z"/>
<path id="PATH51" fill="#F35ABD" stroke="#000000" stroke-width="3" d="M136,379.5c17,12.5,26.5-7.5,42,17.5
	c6.5,10.5-3.5,26.5-16.5,25C145,420,132,407,136,379.5z"/>
<path id="PATH52" fill="#F35ABD" stroke="#000000" stroke-width="3" d="M174,377.5c17,12.5,21.5-3,37,22c6.5,10.5-7,29.5-20,28
	C174.5,425.5,163.5,403.5,174,377.5z"/>
<path id="PATH53" fill="#F35ABD" stroke="#000000" stroke-width="3" d="M235.5,381.5c4,24,20.5,25.5,10.5,46.5c-5.5,12-36.5,10-44-1
	C200.5,391,221.5,403.5,235.5,381.5z"/>
<path id="PATH54" fill="none" stroke="#000000" stroke-width="3" stroke-miterlimit="100" d="M255.67,351.5l-4.33,7"/>
<path id="PATH55" fill="none" stroke="#000000" stroke-width="3" stroke-miterlimit="100" d="M261.67,357.83l-4,5.33"/>
<path id="PATH56" fill="none" stroke="#000000" stroke-width="3" stroke-miterlimit="100" d="M206.67,355.5l5.67,6.33"/>
<path id="PATH57" fill="none" stroke="#000000" stroke-width="3" stroke-miterlimit="100" d="M235.33,345.5v9"/>
<path id="PATH58" fill="none" stroke="#000000" stroke-width="3" stroke-miterlimit="100" d="M225.67,347.83l2,7.67"/>
<path id="PATH59" fill="none" stroke="#000000" stroke-width="3" stroke-miterlimit="100" d="M214.67,351.17l4,7"/>
<path id="PATH60" fill="none" stroke="#000000" stroke-width="3" stroke-miterlimit="100" d="M245.33,347.83l-2,9"/>
<path id="PATH61" fill="#F35ABD" stroke="#000000" stroke-width="3" d="M100,187.5c12,25,14,20,9,39c-6,12-23,12-30,1
	C78,207.5,86,209.5,100,187.5z"/>
<path id="PATH62" fill="#F35ABD" stroke="#000000" stroke-width="3" d="M119.33,208.83c0.33,9,2,11.33-0.33,18.33
	c-4.33,12-18.67,20-22,8C93.67,222.49,112.33,217.83,119.33,208.83z"/>
<path id="PATH63" fill="#F35ABD" stroke="#000000" stroke-width="3" d="M78.33,217.17c4.67,9,19,11,16.33,17.33
	c-5.33,10-17,1.33-18.33,0C66.66,224.83,71.33,226.17,78.33,217.17z"/>
<path id="PATH64" fill="none" stroke="#000000" stroke-width="3" stroke-miterlimit="100" d="M196,162.5c0,0,13.29,5.69,20,11
	c6.561,5.19,15,16.5,15,16.5"/>
<path id="PATH65" fill="none" stroke="#000000" stroke-width="3" stroke-miterlimit="100" d="M250,195.5
	c0.561-13.5,0.939-22.5,1.5-36"/>
<path id="PATH66" fill="none" stroke="#000000" stroke-width="3" stroke-miterlimit="100" d="M182,187c0,0,16.02,11.14,25.5,18
	c7.17,5.19,10.65,11.08,19,14c9.38,3.279,16.88,2.51,26.5,0c4.48-1.17,8.029-1.43,11.5-4.5c4.4-3.9,3.1-9.38,6-14.5
	c5.43-9.58,20-21.5,20-21.5"/>
<path id="PATH67" fill="none" stroke="#000000" stroke-width="3" stroke-miterlimit="100" d="M95.5,342.5c0,0,13.05-14.42,23.5-18.5
	c6.061-2.37,10.91-1.2,17-3.5c6.29-2.38,10.5-4.5,15.5-9c6.029-5.43,8.529-10.67,12-18c3.68-7.779,6.4-13.4,6.5-22
	c0.029-2.63-0.92-4.4-0.5-7c0.62-3.811,5-9,5-9"/>
<path id="PATH68" fill="none" stroke="#000000" stroke-width="3" stroke-miterlimit="100" d="M140,308c0,0,4.34-12.8,8-20
	c2.66-5.25,4.689-8.63,8-13.5c1.96-2.891,2.43-5.85,5.5-7.5c2.5-1.34,7.5-1,7.5-1"/>
<path id="PATH69" fill="none" stroke="#000000" stroke-width="3" stroke-miterlimit="100" d="M130.5,285.5c0,0,3.04-7.35,4-12
	c1.439-6.98-1.279-12.1,0.5-19c1.01-3.91,2.93-6.109,4-10c0.811-2.939,1.5-8,1.5-8"/>
<path id="PATH70" fill="none" stroke="#000000" stroke-width="3" stroke-miterlimit="100" d="M114.5,293c0,0-3.54-11.04-7-17
	c-2.43-4.189-4.811-6.48-7.5-10.5c-1.74-2.59-3.859-3.95-4.5-7C95,256.109,96,252,96,252"/>
<path id="PATH71" fill="none" stroke="#000000" stroke-width="3" stroke-miterlimit="100" d="M101,304c0,0-11.061-1.77-17.5-0.5
	c-4.71,0.93-8.07,1.73-12,4.5c-1.63,1.15-4,3.5-4,3.5"/>
<path id="PATH72" fill="none" stroke="#000000" stroke-width="3" stroke-miterlimit="100" d="M75.33,456.83
	c0,0,10.59-12.13,19.33-13.67c9.73-1.71,16.27,3.7,25,8.33c3.369,1.79,5.05,4.12,8.67,5.33c7.3,2.46,13.09-0.36,20.33-3
	c7.17-2.62,10.561-7.142,17.33-10.67c3.07-1.602,5.01-3.021,8.33-4c7.709-2.271,13.76-0.7,21.33,2
	c4.109,1.46,10.33,5.328,10.33,5.328"/>
<path id="PATH73" fill="none" stroke="#000000" stroke-width="3" stroke-miterlimit="100" d="M183.33,444.83c0,0,6.13,4,10.33,4.67
	c5.13,0.82,8.779-0.56,13.67-2.33c3.57-1.3,5.199-4.54,9-4.67c5.37-0.18,6.891,5.87,11.67,8.33c4.25,2.188,7.23,4.7,12,4.33
	c6.23-0.48,7.82-7.062,13.33-10c2.42-1.29,6.67-3,6.67-3"/>
<path id="PATH74" fill="none" stroke="#000000" stroke-width="3" stroke-miterlimit="100" d="M56,434.83c0,0,13.33-2.49,20.67,0
	c4.99,1.7,12,7.33,12,7.33"/>
<path id="PATH75" fill="none" stroke="#000000" stroke-width="3" stroke-miterlimit="100" d="M101,413.83c0,0,2.88-1.05,4.67-1
	c4.87,0.14,6.221,5.22,9.67,8.67c5.96,5.96,14.33,17.33,14.33,17.33"/>
<path id="PATH76" fill="none" stroke="#000000" stroke-width="3" stroke-miterlimit="100" d="M63.33,417.5
	c0,0,7.779,2.69,12.33,1.67c6.061-1.36,12.67-10.67,12.67-10.67"/>
<path id="PATH77" fill="none" stroke="#000000" stroke-width="3" stroke-miterlimit="100" d="M370.59,585.26H3.92V2.74h366.67
	V585.26L370.59,585.26z"/>
</svg>
