<?xml version="1.0" encoding="utf-8"?>
<!-- Generator: Adobe Illustrator 13.0.0, SVG Export Plug-In . SVG Version: 6.00 Build 14948)  -->
<!DOCTYPE svg PUBLIC "-//W3C//DTD SVG 1.1//EN" "http://www.w3.org/Graphics/SVG/1.1/DTD/svg11.dtd">
<svg version="1.1" id="圖層_1" xmlns="http://www.w3.org/2000/svg" xmlns:xlink="http://www.w3.org/1999/xlink" x="0px" y="0px"
	 width="372px" height="587px" viewBox="0 0 372 587" enable-background="new 0 0 372 587" xml:space="preserve">
<path id="PATH77" fill="none" stroke="#000000" stroke-width="3" stroke-miterlimit="100" d="M370.59,585.26H3.92V2.74h366.67
	V585.26L370.59,585.26z"/>
<g>
	<g>
		<path fill="#333333" d="M58.993,395.005c2.639,0,4.621-1.979,4.621-4.614c0-3.3-1.982-4.627-4.621-4.627
			c-1.979,0-2.639,0.664-3.3,1.327c-1.318,0.657-1.979,1.973-1.979,3.3C53.714,393.026,55.693,395.005,58.993,395.005z"/>
	</g>
	<g>
		<path fill="#333333" d="M45.794,428c3.299,0,4.621-1.979,4.621-5.277c0-3.3-1.321-4.621-4.621-4.621
			c-1.318,0-1.979,0.657-3.3,1.321l-1.979,3.3l1.979,3.963C43.816,427.343,44.477,428,45.794,428z"/>
	</g>
	<g>
		<path fill="#333333" d="M83.411,385.106c3.299,0,4.617-1.979,4.617-4.614c0-3.3-1.318-4.627-4.617-4.627
			c-3.3,0-4.621,1.327-4.621,4.627C78.79,383.128,80.111,385.106,83.411,385.106z"/>
	</g>
	<g>
		<path fill="#333333" d="M45.794,366.63c3.299,0,4.621-1.321,4.621-3.963l-1.321-3.3c-0.661-1.314-1.979-1.973-3.299-1.973
			c-3.3,0-5.278,1.973-5.278,5.272C40.516,365.309,42.495,366.63,45.794,366.63z"/>
	</g>
	<g>
		<path fill="#333333" d="M328.896,538.871c3.3,0,4.621-1.328,4.621-4.627c0-3.3-1.321-5.272-4.621-5.272
			c-1.317,0-1.979,0.658-3.299,1.973l-1.979,3.3C323.618,537.543,325.597,538.871,328.896,538.871z"/>
	</g>
	<g>
		<path fill="#333333" d="M343.415,560.641l0.661-3.3l-0.661-3.3c-1.321-1.314-2.639-1.972-3.96-1.972
			c-1.318,0-2.639,0.657-3.3,1.972l-1.979,3.3l1.979,3.3c0.661,1.327,1.981,1.327,3.3,1.327
			C340.776,561.968,342.094,561.968,343.415,560.641z"/>
	</g>
	<g>
		<path fill="#333333" d="M303.82,553.384c3.3,0,5.278-1.314,5.278-4.614s-1.979-5.284-5.278-5.284c-0.66,0-1.979,0.657-3.3,1.984
			c-0.66,0.657-1.32,1.973-1.32,3.3l1.32,3.3C301.842,552.727,303.16,553.384,303.82,553.384z"/>
	</g>
	<g>
		<path fill="#333333" d="M287.983,565.268l1.979-3.964c0-2.636-1.979-4.62-5.278-4.62s-4.62,1.984-4.62,4.62
			c0,3.3,1.32,4.621,4.62,4.621L287.983,565.268z"/>
	</g>
	<g>
		<path fill="#333333" d="M342.755,511.146l1.321-3.299l-1.321-3.3l-3.3-1.973c-3.3,0-5.278,1.973-5.278,5.272
			c0,3.299,1.979,4.627,5.278,4.627L342.755,511.146z"/>
	</g>
	<g>
		<path fill="#333333" d="M322.297,560.641l1.321-3.3c0-3.3-1.979-5.271-5.278-5.271c-2.643,0-4.621,1.972-4.621,5.271
			s1.979,4.627,4.621,4.627L322.297,560.641z"/>
	</g>
	<g>
		<path fill="#333333" d="M65.592,532.929l1.321-3.957c0-2.642-1.981-4.627-5.281-4.627c-2.639,0-4.617,1.985-4.617,4.627
			c0,3.3,1.979,5.272,4.617,5.272L65.592,532.929z"/>
	</g>
	<g>
		<path fill="#333333" d="M43.816,524.345l1.318-3.957l-1.318-3.299l-3.96-1.315c-2.639,0-4.621,1.315-4.621,4.614
			c0,3.3,1.982,5.285,4.621,5.285L43.816,524.345z"/>
	</g>
	<g>
		<path fill="#333333" d="M45.134,559.982l0.661-3.956l-0.661-3.3c-1.318-0.657-2.639-1.321-3.957-1.321
			c-2.642,0-4.621,1.321-4.621,4.621c0,3.299,1.979,5.277,4.621,5.277L45.134,559.982z"/>
	</g>
	<g>
		<path fill="#333333" d="M76.812,567.239c3.299,0,5.278-1.314,5.278-4.614s-1.979-4.621-5.278-4.621
			c-2.639,0-4.621,1.321-4.621,4.621S74.172,567.239,76.812,567.239z"/>
	</g>
	<g>
		<path fill="#333333" d="M81.429,412.16c2.643,0,3.96-1.973,3.96-5.271c0-2.643-1.318-3.964-3.96-3.964
			c-3.299,0-5.278,1.321-5.278,3.964l1.979,3.957L81.429,412.16z"/>
	</g>
	<g>
		<path fill="#333333" d="M45.794,134.339l1.321-3.299c0-3.3-1.321-4.614-4.621-4.614c-3.299,0-5.278,1.314-5.278,4.614l1.979,3.299
			c1.321,1.321,1.981,1.321,3.299,1.321L45.794,134.339z"/>
	</g>
	<g>
		<path fill="#333333" d="M41.177,167.335c2.639,0,4.618-1.979,4.618-5.278s-1.979-4.621-4.618-4.621
			c-3.299,0-5.281,1.321-5.281,4.621S37.877,167.335,41.177,167.335z"/>
	</g>
	<g>
		<path fill="#333333" d="M68.23,197.688c3.3,0,4.621-1.314,4.621-4.614c0-3.299-1.321-4.621-4.621-4.621
			c-3.299,0-4.617,1.321-4.617,4.621l1.318,3.3C65.592,197.031,66.913,197.688,68.23,197.688z"/>
	</g>
	<g>
		<path fill="#333333" d="M49.094,189.775c3.3,0,4.621-1.985,4.621-5.285c0-2.636-1.321-4.614-4.621-4.614
			c-3.299,0-4.617,1.979-4.617,4.614l1.318,3.963C47.115,189.117,48.433,189.775,49.094,189.775z"/>
	</g>
	<g>
		<path fill="#333333" d="M29.957,153.479c2.639,0,4.621-1.321,4.621-4.621s-1.981-5.278-4.621-5.278
			c-1.321,0-1.979,0.657-3.3,1.979l-1.321,3.299l1.321,3.299C27.979,153.479,28.636,153.479,29.957,153.479z"/>
	</g>
	<g>
		<path fill="#333333" d="M31.278,189.775c2.639,0,4.617-1.985,4.617-5.285c0-3.299-1.979-4.614-4.617-4.614
			c-1.982,0-2.643,0-3.3,1.315c-1.321,0.664-1.981,1.985-1.981,3.299l1.981,3.963L31.278,189.775z"/>
	</g>
	<g>
		<path fill="#333333" d="M31.278,380.492c2.639,0,4.617-1.328,4.617-4.627c0-3.3-1.979-5.272-4.617-5.272
			c-3.3,0-5.281,1.973-5.281,5.272l1.981,3.299L31.278,380.492z"/>
	</g>
	<g>
		<path fill="#333333" d="M46.455,402.925l1.321-3.3l-1.321-3.299c-0.66-1.321-2.639-1.979-3.96-1.979
			c-2.639,0-3.96,1.979-3.96,5.277c0,3.3,1.321,4.621,3.96,4.621L46.455,402.925z"/>
	</g>
	<g>
		<path fill="#333333" d="M29.957,442.52c2.639,0,4.621-1.979,4.621-5.277c0-3.3-1.981-4.621-4.621-4.621
			c-3.3,0-4.621,1.321-4.621,4.621l1.321,3.299C27.979,441.856,28.636,442.52,29.957,442.52z"/>
	</g>
	<g>
		<path fill="#333333" d="M33.256,472.216l1.321-3.963l-1.321-3.3c-0.66-1.314-1.978-1.973-3.96-1.973
			c-2.639,0-3.96,1.973-3.96,5.272c0,3.299,1.321,4.627,3.96,4.627L33.256,472.216z"/>
	</g>
	<g>
		<path fill="#333333" d="M58.993,556.026c2.639,0,4.621-1.321,4.621-4.621s-1.982-5.278-4.621-5.278
			c-1.979,0-2.639,1.315-3.3,1.979c-1.318,0.664-1.979,1.979-1.979,3.3l1.979,3.963L58.993,556.026z"/>
	</g>
	<g>
		<path fill="#333333" d="M29.957,545.47c2.639,0,4.621-1.984,4.621-4.627c0-3.3-1.981-5.271-4.621-5.271
			c-1.321,0-1.979,0.657-3.3,1.972l-1.321,3.3C25.336,543.485,26.657,545.47,29.957,545.47z"/>
	</g>
	<g>
		<path fill="#333333" d="M251.027,41.952c3.3,0,4.621-1.314,4.621-3.957l-1.321-3.3c-0.66-1.321-2.639-1.985-3.3-1.985
			c-3.3,0-4.62,1.985-4.62,5.285C246.407,40.637,247.728,41.952,251.027,41.952z"/>
	</g>
	<g>
		<path fill="#333333" d="M207.473,28.753l0.66-3.957c0-2.643-1.32-4.621-4.62-4.621s-5.278,1.979-5.278,4.621l1.979,3.957
			c1.321,0.658,1.981,1.321,3.3,1.321C204.834,30.075,206.155,29.411,207.473,28.753z"/>
	</g>
	<g>
		<path fill="#333333" d="M41.177,36.674c3.3,0,4.618-1.321,4.618-4.621c0-3.3-1.318-4.614-4.618-4.614
			c-2.642,0-4.621,1.314-4.621,4.614C36.556,35.353,38.535,36.674,41.177,36.674z"/>
	</g>
	<g>
		<path fill="#333333" d="M65.592,30.075c3.299,0,4.621-1.979,4.621-4.621l-1.321-3.3l-3.299-1.979c-1.318,0-1.979,1.321-3.3,1.979
			l-1.979,3.3C60.313,28.096,62.292,30.075,65.592,30.075z"/>
	</g>
	<g>
		<path fill="#333333" d="M31.936,56.471c3.299,0,4.621-1.979,4.621-4.621c0-3.3-1.321-5.278-4.621-5.278
			c-3.3,0-4.618,1.979-4.618,5.278C27.318,54.493,28.636,56.471,31.936,56.471z"/>
	</g>
	<g>
		<path fill="#333333" d="M224.631,41.294l1.321-3.957l-1.321-3.299c-0.66-1.328-2.639-1.985-3.3-1.985
			c-3.299,0-4.62,1.985-4.62,5.284c0,3.3,1.321,4.614,4.62,4.614L224.631,41.294z"/>
	</g>
	<g>
		<path fill="#333333" d="M229.909,64.392c3.3,0,4.62-1.985,4.62-5.285c0-2.636-1.32-4.614-4.62-4.614
			c-2.639,0-4.617,1.979-4.617,4.614C225.292,62.407,227.271,64.392,229.909,64.392z"/>
	</g>
	<g>
		<path fill="#333333" d="M216.054,80.889c2.639,0,4.617-1.321,4.617-4.621s-1.979-5.278-4.617-5.278
			c-1.321,0-1.981,0.657-3.3,1.978l-1.321,3.3l1.321,3.3C214.072,80.889,214.732,80.889,216.054,80.889z"/>
	</g>
	<g>
		<path fill="#333333" d="M276.764,35.353c2.639,0,3.96-1.314,3.96-3.957c0-3.3-1.321-5.285-3.96-5.285
			c-1.979,0-2.64,0.664-3.3,1.985c-1.317,0.657-1.979,1.315-1.979,3.3C271.485,34.038,273.464,35.353,276.764,35.353z"/>
	</g>
	<g>
		<path fill="#333333" d="M239.15,31.396c2.639,0,4.617-1.321,4.617-4.621c0-3.3-1.979-4.621-4.617-4.621
			c-3.3,0-4.621,1.321-4.621,4.621l1.321,3.299C237.169,31.396,237.829,31.396,239.15,31.396z"/>
	</g>
	<g>
		<path fill="#333333" d="M311.08,29.411c2.639,0,4.617-1.315,4.617-4.614c0-3.3-1.979-4.621-4.617-4.621
			c-3.3,0-4.62,1.321-4.62,4.621l1.32,3.299C309.099,29.411,309.759,29.411,311.08,29.411z"/>
	</g>
	<g>
		<path fill="#333333" d="M345.394,28.096l1.321-3.299c0-3.3-1.321-4.621-4.621-4.621c-3.299,0-5.277,1.321-5.277,4.621
			c0,3.299,1.979,4.614,5.277,4.614L345.394,28.096z"/>
	</g>
	<g>
		<path fill="#333333" d="M297.882,40.637c3.3,0,5.278-1.985,5.278-4.627c0-3.3-1.979-4.614-5.278-4.614s-4.62,1.314-4.62,4.614
			C293.262,38.652,294.582,40.637,297.882,40.637z"/>
	</g>
	<g>
		<path fill="#333333" d="M346.715,175.919l1.321-3.963l-1.321-3.3c-0.66-0.664-2.639-1.321-3.3-1.321
			c-1.321,0-2.639,0.658-3.3,1.321c-1.32,1.321-1.979,1.979-1.979,3.3l1.979,3.963c0.661,0.658,1.979,1.315,3.3,1.315
			L346.715,175.919z"/>
	</g>
	<g>
		<path fill="#333333" d="M328.896,189.775l1.321-3.3l-1.321-3.299c-1.317-1.321-2.639-1.321-3.956-1.321
			c-2.643,0-4.621,1.321-4.621,4.621c0,3.3,1.979,5.278,4.621,5.278C326.257,191.753,327.578,191.089,328.896,189.775z"/>
	</g>
	<g>
		<path fill="#333333" d="M342.094,204.951c3.3,0,4.621-1.321,4.621-4.621c0-3.299-1.321-4.614-4.621-4.614
			c-3.299,0-5.277,1.315-5.277,4.614C336.816,203.63,338.795,204.951,342.094,204.951z"/>
	</g>
	<g>
		<path fill="#333333" d="M343.415,226.07c3.3,0,5.278-1.321,5.278-4.621s-1.979-5.278-5.278-5.278s-4.62,1.978-4.62,5.278
			S340.115,226.07,343.415,226.07z"/>
	</g>
	<g>
		<path fill="#333333" d="M315.04,206.93c2.64,0,4.618-1.979,4.618-5.278c0-2.636-1.979-4.621-4.618-4.621
			c-3.3,0-4.62,1.985-4.62,4.621l1.32,3.963C313.059,206.272,313.719,206.93,315.04,206.93z"/>
	</g>
	<g>
		<path fill="#333333" d="M111.125,189.775l1.321-3.3l-1.321-3.299l-3.3-1.321c-3.299,0-4.617,1.321-4.617,4.621
			c0,3.3,1.318,5.278,4.617,5.278L111.125,189.775z"/>
	</g>
	<g>
		<path fill="#333333" d="M91.328,208.251c3.299,0,4.621-1.321,4.621-4.621c0-3.3-1.321-4.614-4.621-4.614
			c-1.318,0-2.639,0.657-3.3,1.314l-1.318,3.3C86.71,206.93,88.028,208.251,91.328,208.251z"/>
	</g>
	<g>
		<path fill="#333333" d="M31.936,278.863c2.642,0,3.96-1.321,3.96-4.621s-1.318-4.621-3.96-4.621c-3.3,0-5.278,1.321-5.278,4.621
			S28.636,278.863,31.936,278.863z"/>
	</g>
	<g>
		<path fill="#333333" d="M31.936,338.255c2.642,0,3.96-1.321,3.96-4.62c0-3.3-1.318-5.278-3.96-5.278
			c-3.3,0-5.278,1.979-5.278,5.278C26.657,336.934,28.636,338.255,31.936,338.255z"/>
	</g>
	<g>
		<path fill="#333333" d="M29.296,414.145c3.3,0,4.621-1.32,4.621-4.62s-1.321-4.621-4.621-4.621c-3.299,0-4.617,1.321-4.617,4.621
			S25.997,414.145,29.296,414.145z"/>
	</g>
	<g>
		<path fill="#333333" d="M43.816,452.418c3.299,0,4.617-1.978,4.617-5.277l-1.318-3.3c-1.321-0.657-1.981-1.321-3.299-1.321
			c-3.3,0-4.621,1.321-4.621,4.621S40.516,452.418,43.816,452.418z"/>
	</g>
	<g>
		<path fill="#333333" d="M84.729,179.876c3.299,0,4.621-1.321,4.621-4.621l-1.321-3.299l-3.299-1.979
			c-3.3,0-4.618,1.979-4.618,5.278S81.429,179.876,84.729,179.876z"/>
	</g>
	<g>
		<path fill="#D96038" d="M204.834,61.749l-26.397,3.3c-18.476,4.621-32.335,13.198-40.916,25.739
			c14.519,1.979,31.017-2.643,46.854-13.198L204.834,61.749z"/>
	</g>
	<g>
		<path d="M204.834,59.771l-27.057,3.3c-19.137,4.621-32.996,13.198-42.234,26.396c-0.661,0.664-0.661,1.321-0.661,1.979
			l2.639,1.321c15.18,1.978,31.017-1.979,47.515-11.877l21.119-17.155l0.657-2.642L204.834,59.771z M198.234,64.392
			c-19.137,16.498-36.956,25.075-56.092,24.412c7.26-7.914,17.158-14.513,29.696-19.134
			C180.416,67.034,188.996,65.049,198.234,64.392z"/>
	</g>
	<g>
		<path fill="#FFE000" d="M37.217,74.29c5.938,6.599,13.859,12.541,23.097,17.813c19.797,10.563,38.274,12.541,55.432,7.263
			c-13.198-11.877-30.356-19.797-50.814-23.097L37.217,74.29z"/>
	</g>
	<g>
		<path d="M36.556,72.305l-1.979,1.985l0.657,1.979c7.26,6.599,15.18,13.198,25.079,17.819
			c19.797,10.556,38.274,13.198,56.093,7.256l1.979-1.314l-0.661-2.642C103.869,84.846,86.71,76.932,65.592,73.633L36.556,72.305z
			 M72.191,79.568c14.519,3.299,27.717,9.898,38.277,18.476c-13.198,2.642-27.057,1.321-41.577-5.278
			c-9.898-3.3-18.476-8.578-26.396-15.834L72.191,79.568z"/>
	</g>
	<g>
		<path fill="#D96038" d="M81.429,39.974c-0.657,6.599,0.661,13.862,2.643,21.775c4.617,16.498,15.837,29.039,31.674,37.616
			c-0.661-17.819-5.938-32.995-17.158-46.193L81.429,39.974z"/>
	</g>
	<g>
		<path d="M80.111,37.995L78.79,39.31c0,7.263,0.66,15.183,3.299,23.761c5.281,16.498,16.498,29.696,32.996,38.273h1.982
			l1.318-1.979c-0.661-18.476-6.599-34.316-18.477-47.515L82.089,37.995H80.111z M88.688,67.034
			c-3.299-7.263-5.278-15.183-5.278-23.097c6.599,3.957,11.877,9.235,16.498,15.834c7.917,9.899,11.877,21.776,13.198,34.974
			C101.887,88.146,93.309,78.247,88.688,67.034z"/>
	</g>
	<g>
		<path fill="#D96038" d="M94.627,119.827l15.18-11.884l-23.097-0.657c-12.538,7.256-18.479,17.155-17.819,29.696
			c0,5.278,1.321,10.556,3.3,15.176C75.49,140.938,83.411,130.383,94.627,119.827z"/>
	</g>
	<g>
		<path d="M112.446,107.286l-1.978-1.321l-23.758-1.321l-1.321,0.657c-13.198,7.927-19.797,18.483-19.137,31.023
			c0,5.936,1.321,12.535,3.96,17.155l1.979,1.315l2.639-1.315c2.643-11.22,9.899-21.118,20.458-31.681l16.498-11.871
			L112.446,107.286z M72.191,146.223l-1.979-10.563c0-9.899,5.938-19.134,16.498-26.396l16.498,0.664
			C88.028,120.484,78.129,133.025,72.191,146.223z"/>
	</g>
	<g>
		<path fill="#D96038" d="M62.292,57.792c2.639,7.256,6.599,14.513,13.198,21.776c11.88,13.862,27.057,21.118,45.533,21.775
			c-8.578-15.84-21.115-28.375-36.952-36.295C75.49,61.092,68.891,58.45,62.292,57.792z"/>
	</g>
	<g>
		<path d="M60.313,56.471c-0.661,1.321-0.661,1.321,0,2.636c1.979,7.263,6.599,14.526,13.198,21.782
			c13.198,15.177,28.375,22.439,47.512,23.097l1.982-1.321v-1.979c-8.581-16.498-21.119-29.039-37.616-37.616
			c-7.917-3.3-15.837-5.936-23.097-6.599C61.631,55.808,60.313,55.808,60.313,56.471z M116.406,98.044
			c-13.198-0.657-25.079-6.599-34.978-15.84c-6.599-5.936-11.877-12.535-15.837-21.112c7.92,1.979,15.837,5.278,23.097,9.899
			C99.908,77.59,109.146,86.831,116.406,98.044z"/>
	</g>
	<g>
		<path fill="#FFE000" d="M117.067,34.695c-3.96,5.278-7.26,13.198-9.242,21.112c-3.299,17.161,0.661,32.338,13.198,45.536
			c5.281-17.155,7.26-33.653,3.3-48.836C123.005,44.594,119.706,38.652,117.067,34.695z"/>
	</g>
	<g>
		<path d="M115.085,33.374c-3.96,5.936-7.26,13.198-9.238,22.434c-0.66,3.963,0.661,7.263,2.639,10.563
			c0.661-8.578,3.3-17.819,8.581-27.061c4.617,9.899,7.256,20.461,7.256,31.681c0,6.599-1.318,15.176-4.618,25.075
			c-6.599-8.578-9.898-17.819-9.898-27.06c-3.3,12.541,0,23.761,9.238,33.659l2.639,1.321l1.321-1.321
			c5.938-17.819,7.26-34.974,3.299-50.157c-1.321-7.914-3.96-14.513-7.26-19.134l-1.978-1.321L115.085,33.374z"/>
	</g>
	<g>
		<path fill="#D96038" d="M152.701,28.096c-7.26,4.614-13.198,11.877-19.797,20.455c-11.88,17.819-16.498,35.638-13.198,53.451
			c14.516-11.213,23.758-27.711,29.036-47.509C152.041,44.594,152.701,35.353,152.701,28.096z"/>
	</g>
	<g>
		<path d="M151.38,56.471c2.639-10.563,3.96-19.797,3.96-28.375l-1.321-1.985h-2.639c-6.599,5.285-13.859,12.541-19.797,21.782
			c-13.198,17.813-17.159,36.295-13.859,54.771l1.321,1.321h2.639C135.543,92.103,145.441,76.269,151.38,56.471z M150.063,33.374
			c-0.661,9.235-1.982,18.477-5.281,27.718c-5.278,14.513-13.198,26.396-23.097,35.638l-0.661-5.941
			C121.023,70.333,130.922,51.193,150.063,33.374z"/>
	</g>
	<g>
		<path fill="#FFE000" d="M30.618,102.665l30.356,6.599c23.097,2.636,42.234-1.321,57.411-11.877
			c-16.498-7.92-36.295-9.899-58.732-4.621C48.433,94.745,39.195,98.044,30.618,102.665z"/>
	</g>
	<g>
		<path d="M60.313,89.467c-11.22,2.636-21.779,6.599-31.017,10.563l-0.661,2.636l0.661,1.321c9.899,3.957,21.119,6.599,32.335,7.914
			c23.097,1.985,42.237-1.972,58.074-12.535l0.661-1.978l-0.661-1.985C102.547,87.488,83.411,84.846,60.313,89.467z M37.217,102.001
			c9.898-4.614,20.458-7.257,31.674-7.914c16.498-2.642,31.017-1.321,43.555,3.957C91.988,109.264,66.913,110.585,37.217,102.001z"
			/>
	</g>
	<g>
		<path fill="#FFE000" d="M188.336,42.609c-9.899,2.642-20.458,7.926-31.674,15.183c-21.779,13.198-35.638,28.375-40.255,46.194
			c17.815-4.621,34.974-15.841,52.132-34.317L188.336,42.609z"/>
	</g>
	<g>
		<path d="M169.199,71.648c11.216-11.877,18.477-21.112,21.115-28.375c1.321-0.664,1.321-1.321,0-1.979l-2.639-1.321
			c-10.56,3.963-22.437,8.577-32.996,15.834c-21.776,13.862-35.635,29.039-40.913,46.857c-0.661,1.321-0.661,1.979,0.657,1.979
			l1.982,1.321C134.882,101.344,152.041,90.788,169.199,71.648z M150.72,64.392c9.898-6.599,20.458-13.198,31.678-17.155
			c-18.479,27.711-39.595,45.53-62.031,52.129C125.644,86.831,136.204,74.947,150.72,64.392z"/>
	</g>
	<g>
		<path fill="#858585" d="M148.081,134.339c-1.979-3.957-2.639-11.213-3.299-23.097l-0.661-15.177
			c-5.938-0.664-11.217,0.664-14.516,3.299l-4.621,4.621l-13.198-1.321l-9.238,1.979c2.639,5.942,5.278,9.898,9.238,13.855
			l18.479,17.162c7.917,7.92,15.837,30.36,25.736,67.313l12.538,54.107c3.299-5.271,3.96-13.855,4.621-24.412l-0.661-15.183
			C161.279,174.592,152.701,146.88,148.081,134.339z"/>
	</g>
	<g>
		<path d="M146.102,96.066l-1.981-3.299c-9.238,0-15.837,2.636-19.797,7.92l-22.437,1.979c-0.661,0-1.318,0-1.979,1.321v1.979
			l7.26,11.22l21.115,20.455c7.26,7.256,15.837,29.039,25.736,65.991l11.88,54.114c0,1.321,1.318,1.979,2.639,1.979
			c0.661,0,1.979-0.657,2.639-1.314c3.299-5.942,3.96-13.862,4.621-25.082l-0.661-15.84c-10.559-41.567-19.137-69.948-25.075-83.804
			C148.081,127.083,146.102,114.542,146.102,96.066z M141.481,98.702c0,17.162,0.661,29.039,3.96,36.295
			c4.621,12.541,13.198,40.258,24.418,83.152l-0.661,27.718c-4.621-21.782-9.899-42.237-14.52-60.713
			c-8.578-27.718-15.837-44.873-23.097-51.472l-9.238-9.241c-7.26-6.599-12.538-12.541-15.837-17.813l17.159-0.664l2.639,0.664
			l1.318-1.328l3.3-3.299C133.564,100.029,136.864,99.365,141.481,98.702z"/>
	</g>
	<g>
		<path fill="#858585" d="M227.271,482.114c-15.838-5.277-34.975-8.577-55.433-9.898c-42.233-4.621-75.89,0-100.308,14.52
			l1.321,11.877c1.979,7.92,3.96,12.534,7.26,14.52l16.498,0.657c5.278,5.284,7.917,9.241,7.26,12.541l-5.942,9.241
			c-3.3,4.614-5.938,7.914-5.938,9.898c0,3.3,3.299,8.571,9.898,13.198l36.295-1.327l19.797,3.3c4.621,0.663,7.92,0,9.898-1.973
			c4.621-9.241,9.899-13.861,14.52-14.525c3.299,0,6.599,1.327,9.898,3.3l9.898,4.627c5.278,1.972,11.878,1.972,19.137-1.328
			c3.961-1.972,6.6-7.256,8.578-16.497C233.209,521.709,231.891,504.548,227.271,482.114z"/>
	</g>
	<g>
		<path d="M227.931,479.479c-17.158-4.627-36.956-8.584-58.071-10.563c-41.577-3.299-74.572,1.321-99.647,15.834l-1.321,1.985
			l1.321,14.513c1.979,7.927,4.617,12.541,8.578,14.525h12.538h3.299c3.96,4.614,6.599,8.571,6.599,9.899l-3.957,5.271
			c-5.281,7.263-7.26,11.884-7.26,14.525c0,5.271,3.299,9.898,9.898,15.171l7.26,1.327l30.354-1.985l25.079,3.3
			c3.299,0,5.938-1.314,6.599-3.3l1.318-1.314c4.621-7.263,7.92-11.226,11.88-11.226c3.299-0.658,7.26,1.327,12.537,3.963l5.939,3.3
			c5.938,2.636,13.198,1.321,22.436-1.979c4.621-1.985,7.921-8.584,9.899-18.482c1.981-13.856,1.32-31.011-3.3-52.13
			L227.931,479.479z M165.239,474.194c21.776,1.321,41.574,4.62,59.392,10.556c3.3,11.884,3.96,23.098,3.96,32.996
			s-0.66,17.825-3.96,24.424l-3.96,5.936c-7.26,3.3-12.538,3.964-17.158,1.321l-5.938-2.643c-5.938-3.956-10.56-5.277-15.177-4.614
			c-5.281,0-10.56,5.272-16.498,13.198l-0.661,1.973l-27.057-2.636l-34.974,1.321c-5.281-3.957-7.92-7.257-7.92-10.557
			c0-1.984,1.982-5.284,6.599-11.226l4.621-7.257c0.661-3.957-1.981-9.241-8.581-15.177l-7.917-0.664
			c-4.621,0.664-7.26,0.664-8.581,0c-4.617-1.972-6.599-9.898-6.599-22.433C97.27,476.179,127.623,471.552,165.239,474.194z"/>
	</g>
	<g>
		<path d="M198.234,486.735c-11.22,14.513-29.696,27.711-54.114,40.909l-34.313,14.525c-1.321,0.658-1.321,1.973-1.321,2.637
			c0.661,1.32,1.321,1.32,3.3,1.32c11.22-3.957,23.097-9.241,35.634-15.84c24.418-12.541,42.895-26.396,54.114-40.91v-2.642
			C200.213,485.414,198.896,485.414,198.234,486.735z"/>
	</g>
	<g>
		<path d="M157.319,520.388l-37.613,3.957c-1.321,0-1.981,1.328-1.321,1.985c0,1.314,0,1.979,1.981,1.314l36.953-3.3l1.321-1.972
			L157.319,520.388z"/>
	</g>
	<g>
		<path d="M157.319,547.442l17.819-34.968l-0.661-2.643c-0.661-0.657-1.979,0-2.639,1.314l-5.938,11.884
			c-3.96,9.241-8.581,16.498-11.88,21.776c-1.318,0.663-1.318,1.32,0,2.636H157.319z"/>
	</g>
	<g>
		<path d="M199.556,500.591c-5.941,18.482-11.22,30.354-13.859,33.653c-0.661,0.663-0.661,1.327,0.661,1.984
			c1.318,1.314,1.979,1.314,2.639,0c3.3-3.957,8.578-15.183,14.517-34.316c0.66-0.664,0-1.979-1.318-2.636
			C200.874,498.612,200.213,499.276,199.556,500.591z"/>
	</g>
	<g>
		<path fill="#858585" d="M308.441,228.048c-4.621,3.299-7.921,6.599-8.581,10.563c-3.3,11.213-5.278,19.133-5.278,24.412
			c0.661,5.942-2.639,11.22-9.898,16.498c-2.639,2.643-7.92,1.321-17.158-1.978c-20.458,16.497-32.335,35.631-33.656,56.093
			c-1.979,19.133,3.3,31.017,16.498,36.295c9.238,3.299,20.458,3.963,32.335,2.636l15.18-3.957
			c13.858-1.979,34.313-9.898,62.031-25.075l3.3-42.895c-11.22,3.3-19.137,3.3-22.437,0c-1.321-2.636-1.981-6.6-1.321-14.52
			l2.639-13.855c0.661-1.321,0-4.621-2.639-9.898l-13.198-27.718c-3.96-6.599-6.599-9.898-8.577-9.898
			C315.697,224.749,312.398,226.07,308.441,228.048z"/>
	</g>
	<g>
		<path d="M307.12,226.07c-5.278,3.3-8.577,7.256-9.898,11.877c-3.3,13.198-4.621,21.118-4.621,25.075
			c0,4.621-2.639,9.241-9.238,14.52c-1.979,1.321-6.599,0.664-13.858-3.3l-3.3,0.664c-13.855,11.213-23.754,24.412-29.696,38.931
			c-5.277,11.22-6.599,23.097-5.277,32.995c2.639,13.199,8.577,21.776,17.818,25.733l50.151-1.973
			c13.198-1.327,33.656-9.898,61.373-24.424l1.318-2.636l4.62-42.23l-1.32-2.643h-1.979h-19.798
			c-2.639-2.643-2.639-11.22,1.321-25.739c0.657-2.642-0.66-7.256-4.621-13.855l-11.877-25.739
			c-4.62-7.256-7.92-10.556-10.559-11.213C315.04,221.449,311.08,222.771,307.12,226.07z M310.42,230.027
			c3.299-1.979,5.938-3.3,6.599-2.642l7.26,8.584l15.837,36.295c-4.62,15.177-4.62,25.075-0.66,29.696
			c3.3,4.614,10.56,5.278,21.118,2.642l-3.96,37.61c-29.035,14.52-48.833,22.439-58.731,23.754l-15.837,3.964
			c-11.881,1.321-21.779,0.663-31.018-2.636c-7.26-3.3-12.537-9.899-13.858-20.462l-0.661-7.263c0-9.234,1.982-19.134,7.26-28.368
			c5.281-11.227,13.859-21.125,24.418-31.023c9.238,3.963,15.177,3.963,19.137,1.327c6.6-5.941,10.56-12.541,9.899-18.482
			c0-5.278,1.979-13.198,5.277-23.754C303.82,235.969,305.799,232.669,310.42,230.027z"/>
	</g>
	<g>
		<path d="M314.38,243.882c-1.321,0-1.981,0.664-1.321,1.985c1.321,21.776,0.66,38.273-3.3,48.836l-11.877,19.134
			c-7.92,11.877-13.858,22.434-18.479,30.359c-7.917,13.856-12.537,28.369-15.837,42.895c-0.661,1.314,0,2.636,0.66,2.636
			c1.979,0,2.64,0,2.64-1.979c3.299-13.855,8.58-27.717,15.837-41.579l30.356-50.151c3.3-7.256,3.96-17.155,3.96-30.353
			l-0.66-19.797L314.38,243.882z"/>
	</g>
	<g>
		<path d="M363.213,319.772c0.66-0.657,1.32-1.973,0.66-2.636c-0.66-1.321-1.981-1.979-2.639-1.321
			c-37.616,17.155-65.334,27.054-82.489,31.017c-1.321,0-1.321,0.664-1.321,2.637l1.979,0.663
			C297.222,346.832,324.278,336.271,363.213,319.772z"/>
	</g>
	<g>
		<path d="M331.538,316.473l-0.66-2.636c-0.661-0.664-1.321-0.664-1.982,0c-9.237,9.898-15.177,17.161-18.476,23.097v3.3
			l3.299-0.664c1.979-3.957,5.939-8.571,10.56-15.17L331.538,316.473z"/>
	</g>
	<g>
		<path d="M330.878,268.964c-10.56,13.198-19.798,24.412-25.079,32.996c-1.317,1.314-0.657,1.979,0.661,2.642l2.639-0.663
			l25.078-32.996l-0.66-1.978H330.878z"/>
	</g>
	<g>
		<path d="M282.702,297.339l-1.979-1.979c-1.321,0-2.639,1.315-2.639,1.979l1.317,15.834c1.321,9.899,3.96,17.162,7.26,20.462
			c0.66,0.663,1.981,0.663,3.3,0c0.66-0.664,0.66-1.979,0-2.637C284.684,326.371,282.702,315.158,282.702,297.339z"/>
	</g>
	<g>
		<path d="M258.947,310.537h-1.981l11.881,58.071l1.979,1.321c1.979,0,2.639-0.664,1.979-2.636l-11.878-58.078L258.947,310.537z"/>
	</g>
	<g>
		<path fill="#858585" d="M342.755,72.969c2.639-5.935,3.3-13.198,0.66-21.118c-3.3-8.578-5.938-11.213-9.898-9.241
			c-1.979,0.664-5.938,3.299-11.22,6.599l-11.877,6.599c-2.64,0.664-5.278,0.664-7.921,0l-9.237-3.957
			c-2.64-0.657-5.939,1.321-7.918,5.284l-3.96,7.914c-1.981,3.957-7.26,5.942-13.858,5.942l-6.6-4.621l-5.938-7.92
			c-1.32-1.979-3.96-1.315-5.281,1.321l-6.599,7.92c-2.639,3.3-4.617,7.914-3.957,13.855c0,3.3,0.657,5.942,1.318,8.584
			c0,22.433,4.62,40.91,13.858,55.429c7.92,11.877,15.177,17.819,22.437,18.476l13.858,4.621c6.6,3.3,10.56,3.963,13.859,3.3
			c6.599,0,15.837-5.278,28.375-15.177c2.639-2.643,3.299-5.942,1.32-9.899l-3.96-9.241l-9.898-0.657
			c-5.278,0-7.26-1.321-5.938-4.621c1.979-2.636,5.278-5.278,11.217-8.578l11.22-5.285c3.299-1.972,5.277-5.271,5.938-9.898
			c0.66-4.614,0-7.257-2.64-7.257c-7.259,0-10.559-2.642-10.559-8.577c0-1.979,0.66-4.621,3.96-7.92L342.755,72.969z"/>
	</g>
	<g>
		<path d="M345.394,74.29c1.321-3.299,1.981-7.256,1.981-11.883c0-9.235-1.981-15.834-6.599-20.455
			c-2.64-2.642-5.281-3.299-7.92-1.978l-23.098,13.198l-9.238-1.321l-6.599-2.642c-5.938-0.658-9.898,3.299-13.198,11.883
			l-1.321,3.3l-4.617,1.979l-7.26,1.321l-10.56-11.22l-5.277-1.979c-1.321,0.657-3.961,2.642-6.6,6.599l-3.96,5.278
			c-3.3,3.299-4.621,7.92-4.621,14.519l1.321,9.899c0,22.439,4.621,41.573,15.177,56.75c7.92,12.541,15.18,19.14,23.097,19.14
			l13.198,3.957c7.26,3.299,12.541,4.621,15.181,4.621c7.917-1.321,17.815-6.599,29.695-16.498c3.3-2.636,3.96-6.6,2.64-11.877
			c-0.661-3.299-2.64-7.256-4.621-10.556c-1.317-1.985-4.617-2.642-9.898-2.642h-5.278c1.979-2.642,6.6-5.942,13.859-9.241
			l7.917-3.957l4.62-5.942l2.64-8.577l-0.661-2.636c-0.657-2.642-2.639-3.963-5.278-3.963c-5.938,0-7.92-1.978-7.92-6.599
			c0-1.979,1.321-3.963,3.96-6.6L345.394,74.29z M342.094,57.792c0.661,5.278,0,9.898-1.979,13.198l-7.92,11.213
			c-3.3,3.963-5.278,7.263-5.278,10.563c0,7.92,3.961,11.22,13.198,11.22c0.661,0,0.661,0.657,0,1.979l-0.66,6.599l-3.3,3.3
			l-7.26,3.3c-9.237,4.621-15.177,8.577-16.497,11.877c-1.318,2.642-1.979,4.621-0.658,5.942c1.318,1.314,4.618,1.978,10.557,1.978
			l5.941,0.664l3.957,7.914c0.661,3.3,0.661,5.942-1.317,6.599c-11.881,9.899-21.119,15.183-27.058,15.841
			c-1.979,0-6.599-1.321-13.198-3.3c-5.938-3.299-10.559-4.621-13.858-4.621c-5.938-1.321-12.538-6.599-19.137-17.162
			c-9.899-14.513-14.52-32.332-14.52-54.765v-0.664c-1.318-1.979-1.318-4.621-1.318-8.578c0-4.621,1.318-8.584,2.64-11.22
			l8.577-9.899l0.661,0.664l3.299,4.614c3.3,5.942,7.26,7.92,10.56,7.92l9.898-1.321c3.3-1.315,5.278-3.3,6.6-4.614l1.32-3.963
			c2.64-5.936,5.278-8.578,7.257-8.578l5.281,1.979l13.858,1.321l23.098-13.198l1.979,1.314
			C339.455,47.894,340.776,51.851,342.094,57.792z"/>
	</g>
	<g>
		<path d="M329.557,57.792l-27.058,27.711c-19.797,21.782-34.313,40.922-42.894,58.078c-1.318,0.657-1.318,1.979,0.66,3.299
			c0.66,0,1.981,0,2.639-1.321c8.581-17.162,23.098-36.295,42.237-57.414c9.238-10.556,18.477-19.797,27.054-27.054
			c0.661-1.321,0.661-1.985,0-3.299C330.878,56.471,330.217,56.471,329.557,57.792z"/>
	</g>
	<g>
		<path d="M295.243,64.392c-1.981,10.556-3.3,21.775-2.643,32.996l1.981,1.978l1.979-1.978c-0.66-11.22,0.661-21.119,2.64-32.338
			l-1.979-1.979C296.561,63.07,295.9,63.07,295.243,64.392z"/>
	</g>
	<g>
		<path d="M257.627,77.59c-1.321,0-2.64,0.657-2.64,1.979l1.979,20.461c1.321,15.834,3.3,28.369,5.938,38.931l1.982,1.321
			c1.317,0,1.979-1.321,1.317-2.642c-1.979-10.556-4.617-23.097-5.278-38.274l-1.32-19.797L257.627,77.59z"/>
	</g>
	<g>
		<path d="M276.103,82.868c0-1.321,0-1.979-1.979-1.979c-0.66-0.657-1.32,0-1.978,1.315c-4.621,17.825-9.242,29.696-12.541,35.638
			c-1.318,1.321-0.658,1.985,0.66,2.642l2.639-0.657C266.204,113.885,270.825,101.344,276.103,82.868z"/>
	</g>
	<g>
		<path d="M320.979,108.601c-20.458,9.241-36.295,14.525-48.175,15.183c-1.318,0-1.979,0-1.979,1.978
			c0,1.321,0.66,1.321,1.979,1.321c12.54,0,29.695-5.284,50.153-14.52c0.661-1.321,1.321-1.978,0.661-3.299
			C323.618,108.601,322.957,107.943,320.979,108.601z"/>
	</g>
	<g>
		<path d="M317.019,88.146l-28.375,13.198c-1.321,0.658-1.321,1.321-1.321,2.643c0.661,1.979,1.979,1.979,2.64,1.314l29.696-13.855
			l0.66-1.979C319.658,88.146,318.997,87.488,317.019,88.146z"/>
	</g>
	<g>
		<path d="M317.019,146.88l-46.193-2.642c-1.321,0-2.64,0-2.64,1.321c0,1.978,0.661,2.636,1.979,3.299l47.516,1.979
			c1.979,0,1.979-0.657,1.979-1.979S318.997,146.88,317.019,146.88z"/>
	</g>
	<g>
		<path fill="#858585" d="M93.309,237.947c-3.299-1.321-5.281-1.979-6.599-3.3l-6.599-10.563c-3.299-5.936-6.599-7.914-9.898-8.571
			l-14.52-5.284l-12.538-1.315c-1.979,1.315-2.639,4.614-1.979,11.213c1.318,7.92,1.318,12.541,0,15.183
			c-1.321,4.614-0.661,10.556,2.639,17.813c3.299,7.92,6.599,12.541,9.898,14.52l9.238,5.278c2.639,1.321,3.96,3.957,3.96,6.599
			c0,3.957-1.321,7.257-2.639,9.242c-1.982,2.643-3.96,3.957-6.599,2.643l-5.942-0.664c-1.318,0-3.3,1.321-4.618,3.299
			c-3.96,5.278-6.599,9.235-6.599,12.535c0,1.984,1.979,3.963,5.938,6.599l11.22,3.3l21.115-3.957
			c1.321,0.657,1.981,1.985,2.639,4.621c0,3.299-0.657,5.936-2.639,7.263l-11.877,10.556c-5.281,5.942-7.92,9.241-7.92,11.214
			c0,1.984,3.299,4.627,9.898,7.263c7.92,3.3,14.52,3.963,21.119,3.3l25.075-7.263c11.88-3.957,21.119-5.272,29.036-3.3
			l12.541-31.668c7.917-23.761,10.556-42.237,7.256-55.436c-9.899,0.657-18.477,3.3-24.415,5.278c-3.96,1.321-6.599,0-6.599-4.621
			v-18.476c0-6.599-2.639-13.198-7.92-19.797c-5.939-5.278-9.899-7.263-13.859-5.278c-2.639,1.314-3.957,5.278-5.938,11.213
			c-0.661,5.941-1.979,9.241-3.96,9.898L93.309,237.947z"/>
	</g>
	<g>
		<path d="M99.908,234.647H93.97l-5.281-1.979l-3.299-4.621c-5.278-9.899-10.56-15.177-15.177-15.177l-8.581-3.299
			c-10.556-3.3-17.155-4.621-19.797-2.643c-3.299,2.643-4.617,7.257-2.639,15.183v12.535c-1.979,4.621-0.661,11.22,2.639,19.797
			c3.3,7.92,6.599,13.198,10.56,15.834l10.559,5.942l0.661,3.299c0,4.621-0.661,7.92-2.639,9.242h-2.642l-7.256-0.658l-5.942,4.615
			c-4.618,4.62-6.599,9.241-7.256,12.541c-0.661,1.979,0.657,4.614,2.639,6.599l7.917,5.278l9.899,1.321l19.797-3.3l0.661,2.642
			l-1.979,4.614l-9.899,9.242c-7.26,7.256-11.22,11.877-11.22,14.513l3.3,4.627c2.639,2.636,7.259,5.271,13.198,6.599l18.479,2.637
			l17.815-5.936c15.837-5.285,27.057-7.264,34.317-5.285l3.299-1.979c4.618-6.599,8.578-17.818,13.198-32.995
			c7.917-23.097,9.899-41.573,7.26-55.429c-0.661-1.985-1.321-2.642-2.642-1.985l-25.736,5.942h-1.979
			c-1.321,0-1.321-4.621-0.661-11.22v-9.899c0-5.278-1.321-9.899-4.621-15.177c-3.3-4.621-6.599-8.584-10.556-11.22
			c-3.96-1.979-7.26-1.979-10.559-0.664c-2.639,1.985-4.621,5.941-6.599,13.862L99.908,234.647z M70.212,218.149
			c1.979,0,5.938,4.621,11.216,13.198l3.3,4.621l7.92,3.957l9.238-0.657c2.639-0.657,4.621-3.957,5.938-9.898
			c1.982-6.599,3.3-9.899,4.621-11.22l5.278,1.321c3.299,1.979,6.599,5.278,8.581,9.241c2.639,3.957,3.96,8.571,3.96,12.535v9.235
			c-0.661,9.241,0.657,14.526,2.639,15.84l7.917,0.658c4.621-1.972,11.88-3.957,21.119-4.614l0.661,8.577
			c0,19.134-6.599,42.895-20.458,72.591c-7.92-1.979-20.458,0-35.635,5.936l-16.498,4.627l-19.137-2.643l-9.242-5.284
			c0-1.314,1.982-4.614,7.26-9.235l11.22-10.563c3.3-2.636,4.618-5.936,3.3-9.898c0-3.3-1.321-5.936-3.96-6.599l-22.436,3.963
			l-5.938-1.321l-6.599-3.957l-1.321-1.984c0.661-2.636,2.639-5.936,5.938-10.557l3.3-2.642l4.621,0.663l6.599-0.663
			c3.96-2.636,5.278-7.257,5.278-13.856c0-2.642-0.661-5.278-1.979-7.256c-1.321-0.657-3.299-1.985-6.599-3.299l-4.621-3.3
			c-3.299-1.321-6.599-6.599-9.238-13.198c-2.639-6.599-3.96-12.541-2.639-16.498v-14.52c-0.661-6.599,0-9.898,0.661-9.898
			c1.318-1.321,6.599,0,14.516,3.299L70.212,218.149z"/>
	</g>
	<g>
		<path d="M58.332,227.385c-1.318,0.664-1.979,1.985-1.318,2.642l26.396,34.317c22.436,26.396,44.873,48.172,68.63,65.327
			l2.639-0.657c0.661-1.314,0.661-1.979,0-2.643c-23.097-17.155-46.194-38.268-67.97-64.006l-26.396-34.317
			C59.653,226.727,58.993,226.07,58.332,227.385z"/>
	</g>
	<g>
		<path d="M115.746,240.583l2.639,59.392c-0.661,1.328,0,1.985,1.321,1.985l1.979-1.321c1.321-10.563,1.321-24.418,0-39.595
			l-1.979-21.119c0-1.978-0.661-1.978-1.981-1.978C116.406,237.947,115.746,239.268,115.746,240.583z"/>
	</g>
	<g>
		<path d="M121.684,277.542l-15.177-23.761c-0.661-1.315-1.321-1.315-3.299-1.315c-0.661,0.657-1.321,1.979-0.661,3.3l4.621,8.578
			l11.877,15.834l2.639,0.664C123.005,279.52,123.005,278.863,121.684,277.542z"/>
	</g>
	<g>
		<path d="M86.71,262.365l-29.696-14.52h-3.3c-0.661,1.321,0,1.979,1.318,3.3l8.581,4.621l21.776,10.556l2.639-1.314
			C88.688,264.344,88.028,263.022,86.71,262.365z"/>
	</g>
	<g>
		<path d="M76.812,300.639l34.974-7.263c1.321-0.657,1.321-1.972,1.321-2.636c-0.661-1.321-1.321-1.979-3.299-1.321l-32.996,7.92
			c-1.982,0-1.982,0.664-1.982,1.979L76.812,300.639z"/>
	</g>
	<g>
		<path d="M145.441,323.735c1.321-0.663,1.979-1.979,1.321-3.3c-0.661-0.663-1.321-0.663-2.642-0.663L78.79,341.555
			c-0.661,0-1.318,1.314-0.661,1.979l1.981,1.321L145.441,323.735z"/>
	</g>
	<g>
		<path d="M96.609,320.436c-1.321,0-1.982,0.664-1.982,2.637l1.982,1.327h9.898c6.599,0.657,11.877,2.636,15.177,6.599
			c0.661,0.658,1.321,0.658,2.639,0c0.661-0.663,0.661-1.327,0-3.299c-3.957-3.964-9.238-5.942-17.155-7.264H96.609z"/>
	</g>
	<g>
		<path fill="#FFE000" d="M344.076,422.723c-0.661-11.22-17.159-13.198-48.833-5.278c-31.018,7.914-47.516,15.177-48.836,21.776
			c-1.979,6.599,14.519,7.92,48.836,5.277C328.896,441.856,345.394,434.6,344.076,422.723z"/>
	</g>
	<g>
		<path d="M244.429,438.557c-0.661,1.327,0,3.3,1.979,3.963c5.281,4.621,19.14,5.936,40.915,4.621
			c23.098-0.657,39.595-4.621,49.494-10.557c6.599-3.299,9.898-7.263,9.898-12.54v-1.321c-0.66-7.263-6.6-11.22-19.137-11.877
			c-13.198-0.658-30.356,2.642-50.814,9.241C256.306,427.343,245.089,433.285,244.429,438.557z M279.402,424.044
			c21.118-7.257,37.616-9.899,49.493-8.584c7.921,0.663,12.541,3.299,13.198,7.263c0.661,5.936-4.617,9.898-15.177,13.198
			c-13.198,4.62-29.035,7.263-48.832,7.263c-17.819,0-27.718-1.327-29.696-3.963C249.706,435.257,260.266,429.985,279.402,424.044z"
			/>
	</g>
	<g>
		<path fill="#FFE000" d="M154.019,403.589c-5.278,10.556,7.92,20.455,39.595,29.696c30.356,9.234,48.175,10.556,52.793,5.936
			c4.62-5.278-8.578-15.177-39.595-29.696C175.798,394.348,158.64,393.026,154.019,403.589z"/>
	</g>
	<g>
		<path d="M166.56,395.005c-7.92,0-12.541,2.643-15.18,7.92c-0.661,0.664-0.661,2.636-0.661,3.964
			c0,5.936,3.299,10.556,11.22,15.834c10.559,6.599,27.057,12.534,48.833,17.161c21.118,3.957,33.656,4.614,36.955,0.657
			l0.661-5.284c-3.3-5.936-13.859-14.513-33.656-24.411C194.935,400.289,178.437,395.005,166.56,395.005z M155.34,404.246
			c2.639-4.621,9.238-5.284,19.797-3.957c13.198,2.636,29.035,9.235,45.533,19.134c15.837,9.235,23.758,15.177,23.758,18.477
			l-34.317-2.643c-21.775-4.614-36.952-10.556-47.511-17.813C156.001,412.824,154.019,408.203,155.34,404.246z"/>
	</g>
	<g>
		<path fill="#FFE000" d="M270.825,443.841c16.497-1.984,25.075-7.92,26.396-15.841c0.66-8.577-7.26-9.898-24.418-5.277
			c-16.498,4.62-25.076,9.898-25.736,15.834C246.407,444.498,254.327,445.819,270.825,443.841z"/>
	</g>
	<g>
		<path d="M262.247,424.044c-11.22,4.614-17.818,9.241-17.818,14.513c0,1.327,0.66,3.3,2.639,4.627
			c3.3,2.636,8.581,3.957,17.158,3.3c7.921,0,15.177-1.328,21.776-3.964c7.92-3.963,12.541-8.577,13.198-13.861v-1.973
			c0-4.627-3.3-7.263-9.238-7.927C282.045,417.444,273.464,419.423,262.247,424.044z M249.706,439.884l-1.317-1.327
			c0.66-2.636,5.938-6.6,15.837-10.557c9.898-4.614,18.477-5.941,25.075-5.277c3.961,0.663,5.281,2.636,5.281,4.62
			c-0.66,4.614-3.96,7.914-10.559,10.557c-5.938,2.642-12.538,3.957-19.798,4.62C256.966,442.52,251.688,441.856,249.706,439.884z"
			/>
	</g>
	<g>
		<path fill="#FFE000" d="M258.287,488.714c8.578,0,9.898-7.263,5.278-24.418c-5.938-17.155-11.217-25.075-17.158-25.739
			c-5.938,0-7.257,7.263-4.618,23.761C245.089,478.814,250.367,488.05,258.287,488.714z"/>
	</g>
	<g>
		<path d="M247.067,435.921c-2.639,0-3.96,0.663-5.938,3.3c-1.321,1.978-2.639,6.599-2.639,12.534
			c0,9.898,2.639,17.825,5.938,26.396c3.299,7.263,8.577,11.884,13.858,12.541c5.938,0,9.238-3.3,9.238-9.899
			c0.66-7.913-0.66-16.497-5.938-27.711C256.966,442.52,251.688,436.584,247.067,435.921z M245.089,441.856l1.318-1.315
			c3.299,0.657,7.26,5.278,11.22,15.177c3.96,9.899,6.599,17.819,5.938,24.418c0,3.957-1.979,5.942-4.618,5.942
			c-4.62-0.664-7.92-3.964-10.559-9.899c-2.639-5.941-3.96-12.54-4.621-20.461C243.107,449.119,243.768,443.841,245.089,441.856z"/>
	</g>
	<g>
		<path fill="#FFE000" d="M223.971,484.75c5.938,5.285,12.537,0.664,19.137-15.834c6.599-16.498,7.92-26.396,3.3-30.359
			c-4.618-4.614-10.557,0.664-18.477,15.183C219.354,468.916,218.032,478.814,223.971,484.75z"/>
	</g>
	<g>
		<path d="M247.728,436.584c-0.66-1.327-3.299-1.327-5.277-0.663c-3.96,0.663-7.921,4.62-13.198,11.22
			c-4.621,6.599-7.921,13.198-9.241,19.797l-1.979,8.578c0,4.62,1.979,7.92,3.96,10.563c4.617,3.957,9.238,3.299,13.858-1.328
			c5.278-5.271,9.238-13.198,12.538-25.068C251.688,447.798,251.688,439.884,247.728,436.584z M243.768,439.884h1.321
			c2.639,2.636,1.979,9.235-0.66,19.134c-3.3,9.898-7.26,17.819-11.878,22.434c-2.642,3.299-4.62,3.299-7.259,1.327
			c-1.982-2.643-3.3-7.263-1.321-13.862c1.321-6.599,4.62-12.534,9.238-19.134C237.169,443.841,240.469,440.541,243.768,439.884z"/>
	</g>
	<g>
		<path fill="#FFE000" d="M195.596,446.483c-0.661,8.571,6.599,10.556,24.415,6.599c16.497-3.963,25.739-8.584,27.057-14.525
			c0.66-5.936-7.26-8.571-23.758-6.6C206.155,433.285,197.574,438.557,195.596,446.483z"/>
	</g>
	<g>
		<path d="M193.614,446.483v1.972c0,3.963,3.299,7.263,8.58,7.927c7.917,1.314,16.498,0,28.375-3.964
			c11.22-3.963,17.158-9.234,17.819-13.197c0.66-2.637,0-4.621-1.981-5.936c-2.64-2.643-8.578-3.964-17.155-3.964
			c-7.921,0-15.18,1.321-21.779,3.964C198.896,435.921,194.935,440.541,193.614,446.483z M243.768,436.584l0.661,1.315
			c0,3.299-5.938,6.599-15.838,10.556c-10.559,3.3-18.479,4.627-25.078,3.963c-4.617-0.663-5.938-2.636-5.278-5.277
			c0.661-3.957,3.96-7.257,10.56-9.898c5.938-1.985,12.537-3.3,20.458-3.3C236.508,433.942,241.129,435.257,243.768,436.584z"/>
	</g>
	<g>
		<path fill="#FFE000" d="M252.349,393.026c-1.981-31.675-7.26-48.83-14.52-50.814c-7.92-1.979-9.898,12.541-5.938,44.216
			c4.617,32.331,9.238,49.493,15.177,50.814C252.349,439.221,254.327,424.044,252.349,393.026z"/>
	</g>
	<g>
		<path d="M250.367,362.667c-2.64-13.856-6.6-21.112-12.538-22.434c-3.96-0.664-6.599,1.321-8.577,6.599
			c-2.643,9.235-1.981,26.396,1.979,51.473c3.96,25.739,9.238,39.595,15.177,40.916l3.96-0.664c3.3-2.636,4.62-13.198,4.62-29.696
			C254.987,391.048,253.667,375.865,250.367,362.667z M233.869,346.832c0.66-1.978,1.981-2.636,3.3-2.636
			c3.96,1.973,7.92,10.557,10.559,28.369c2.64,13.862,3.3,27.06,2.64,40.922c0,13.198-1.318,20.455-3.3,21.77
			c-3.3-1.972-6.599-14.513-11.217-38.268C231.23,372.565,231.23,356.067,233.869,346.832z"/>
	</g>
	<g>
		<path fill="#D96038" d="M214.732,397.647c-7.26,3.299-5.278,11.213,6.599,24.411c11.22,12.541,19.798,17.825,25.736,16.498
			c5.281-1.973,3.3-9.898-5.938-23.755C231.23,400.289,222.652,395.005,214.732,397.647z"/>
	</g>
	<g>
		<path d="M231.891,401.604c-5.938-5.277-11.88-7.913-17.158-5.941c-3.96,1.327-6.6,3.963-6.6,7.927l1.321,5.271
			c2.64,6.6,8.578,13.862,17.816,21.782c9.237,8.578,15.837,11.877,20.457,9.898c1.979-0.657,3.3-1.984,3.3-4.62
			c0.661-3.964-0.66-9.899-4.62-16.498C242.45,412.16,237.829,406.225,231.891,401.604z M215.393,399.625
			c3.961-0.663,8.578,0.664,13.859,5.278c5.277,4.621,9.238,9.241,12.537,15.841c3.961,6.599,5.278,11.213,4.618,14.513
			l-0.657,0.664c-2.643,1.321-7.921-1.979-16.498-9.235c-7.921-7.263-13.198-13.861-15.18-19.797
			C212.754,402.925,213.411,400.946,215.393,399.625z"/>
	</g>
	<g>
		<path fill="#D96038" d="M270.825,473.537c21.775,19.797,37.616,27.054,46.854,21.112c9.898-6.6,1.979-18.471-23.758-35.632
			c-26.396-17.161-42.233-23.761-47.515-20.461C241.129,442.52,249.049,453.739,270.825,473.537z"/>
	</g>
	<g>
		<path d="M245.089,436.584c-3.3,1.973-1.981,6.6,2.639,13.856c7.26,11.877,18.477,23.754,32.996,34.974
			c17.158,12.534,30.356,15.834,38.935,10.563c2.639-1.327,3.96-3.963,3.96-7.263l-2.64-8.578
			c-5.281-8.584-18.479-19.797-38.276-31.017C262.904,437.242,250.367,433.285,245.089,436.584z M256.306,454.396
			c-5.938-7.913-8.578-11.877-8.578-14.513c3.3-1.327,14.52,3.3,32.996,13.855c19.797,11.214,32.335,21.112,36.956,29.696
			c2.639,4.614,1.979,7.257-0.661,8.578c-7.26,5.277-19.797,0.663-36.955-13.199C270.825,470.895,262.904,462.98,256.306,454.396z"
			/>
	</g>
	<g>
		<path fill="#FFE000" d="M246.407,439.884c-5.938,1.973-1.318,16.498,15.84,44.866c17.155,27.725,29.696,39.595,38.935,34.98
			c9.238-3.957,3.96-18.482-15.838-44.215C266.204,450.44,253.006,438.557,246.407,439.884z"/>
	</g>
	<g>
		<path d="M245.75,437.899c-1.321,0-2.643,1.321-2.643,3.299c-1.979,5.942,2.643,17.819,13.198,36.953
			c9.898,18.482,19.797,31.681,29.038,39.595c6.6,4.627,11.878,6.599,17.155,4.627c3.3-1.327,4.621-4.627,4.621-9.241l-1.321-7.921
			c-4.617-11.877-13.855-26.396-29.035-43.558C260.926,444.498,251.027,436.584,245.75,437.899z M256.306,468.253
			c-7.917-15.171-10.556-23.755-8.578-25.733c3.3-0.663,12.538,6.6,26.396,23.098c15.177,17.161,24.419,31.017,27.718,42.23
			c1.979,5.284,1.318,8.584-1.321,9.898c-4.62,1.984-11.22-1.973-19.137-10.557C272.804,497.291,264.226,484.75,256.306,468.253z"/>
	</g>
	<g>
		<path fill="#FFE000" d="M287.322,465.617c30.357,12.534,48.833,13.861,53.454,4.62c5.278-9.241-8.581-17.819-40.256-26.396
			c-32.335-7.92-49.493-9.898-53.453-4.62C243.107,443.841,256.306,452.418,287.322,465.617z"/>
	</g>
	<g>
		<path d="M244.429,437.242c-0.661,1.979-0.661,3.299,0,5.277c3.299,5.278,13.858,12.535,33.656,21.119
			c19.797,9.241,35.634,13.855,48.172,14.513c8.581,0,13.858-1.973,16.498-6.6l1.321-4.614c0-4.62-3.3-7.92-8.581-11.883
			c-11.217-6.6-27.715-12.535-50.812-17.155C261.587,433.285,248.389,433.285,244.429,437.242z M284.684,442.52
			c23.097,4.621,39.595,10.563,49.493,17.162c5.278,3.957,5.938,6.599,4.618,9.234c-1.979,4.621-9.899,5.936-21.776,3.3
			c-13.858-2.636-29.035-7.263-44.872-15.834c-15.181-7.263-23.098-13.198-23.758-16.498L284.684,442.52z"/>
	</g>
	<g>
		<path fill="#D96038" d="M287.322,409.524c23.098-24.418,30.357-39.595,23.098-46.857c-7.921-6.6-21.119,2.642-40.256,28.381
			c-19.137,25.075-26.396,40.909-23.097,46.194C250.367,443.184,263.565,433.285,287.322,409.524z"/>
	</g>
	<g>
		<path d="M257.627,405.561c-11.22,17.162-15.838,28.382-13.198,33.66c0.66,0.663,2.639,1.32,5.277,1.32
			c6.6-0.657,17.819-8.584,34.317-24.418c16.497-16.498,26.396-30.359,29.695-41.573l1.321-5.284c0-3.3-1.321-5.936-3.3-8.571
			c-5.28-3.963-12.54-2.642-21.778,5.936C279.402,374.55,268.186,387.748,257.627,405.561z M248.389,435.921
			c-1.321-3.3,2.639-13.198,13.858-29.696c11.877-17.161,21.776-30.359,32.335-38.273c5.938-4.621,11.217-6.6,14.517-3.3
			c1.981,1.979,1.321,7.914-1.979,15.177c-6.6,11.22-17.158,23.761-32.335,37.616C260.926,430.643,251.688,436.584,248.389,435.921z
			"/>
	</g>
	<g>
		<path fill="#FFE000" d="M247.067,387.091c-5.938,29.696-5.938,46.194,0,50.151c5.281,3.299,13.198-8.584,23.758-38.28
			c9.898-29.032,9.898-45.53,0-49.493C260.266,344.854,252.349,357.395,247.067,387.091z"/>
	</g>
	<g>
		<path d="M254.327,356.731c-5.938,11.22-9.898,26.396-12.538,46.857c-1.981,20.455-0.66,32.332,3.3,35.632
			c1.979,0.663,3.3,0.663,5.938,0c4.621-3.3,10.56-13.199,17.819-29.696c7.917-17.819,11.217-32.996,11.217-44.873v-1.984
			c-0.661-8.571-3.3-13.198-9.238-15.835C264.887,344.196,258.947,347.496,254.327,356.731z M261.587,414.145
			c-6.6,13.855-10.56,21.112-13.859,21.112c-2.639-1.972-3.299-12.534-0.66-31.668c1.981-20.461,5.938-35.638,11.22-45.536
			c3.3-5.285,7.26-7.921,11.217-7.257c5.281,2.636,7.26,9.898,5.281,22.433C273.464,385.764,268.847,399.625,261.587,414.145z"/>
	</g>
	<g>
		<path fill="#D96038" d="M278.085,453.082c25.735,5.271,40.912,2.636,44.212-6.599c3.96-9.899-7.917-14.526-34.313-16.498
			c-27.058-0.664-41.576,1.314-44.216,6.599C240.469,442.52,251.688,448.455,278.085,453.082z"/>
	</g>
	<g>
		<path d="M241.129,435.921c0,1.321,0,3.3,0.66,4.62c3.3,4.614,11.878,8.578,25.736,12.541c15.177,3.957,27.718,5.271,38.935,3.957
			c9.898-0.657,15.837-3.957,17.818-9.898l1.318-3.957c0-3.963-2.64-7.263-8.578-9.898c-9.238-3.964-23.097-5.942-42.895-5.285
			C254.327,428.658,243.768,431.3,241.129,435.921z M258.287,445.819c-7.92-3.3-11.88-5.936-12.537-7.92
			c1.978-2.643,11.216-4.614,28.374-5.278c18.477-0.664,32.336,0.664,40.916,5.278c5.278,1.984,7.257,4.62,5.278,7.92
			c-2.639,6.599-13.198,9.235-32.335,6.599L258.287,445.819z"/>
	</g>
	<g>
		<path fill="#D96038" d="M243.768,437.242c-6.599-1.321-5.938,14.513,1.321,46.193c7.917,31.011,16.498,45.536,28.375,44.209
			c11.22-1.972,11.22-16.498-0.66-46.193C260.266,452.418,251.027,438.557,243.768,437.242z"/>
	</g>
	<g>
		<path d="M240.469,437.242c-3.3,5.277-3.3,16.497,0,35.638c3.96,19.134,8.58,34.968,15.837,45.53
			c5.281,8.577,11.22,12.534,17.818,11.22c6.6-0.658,9.899-5.285,9.899-13.856v-0.663c0-11.877-5.938-28.375-16.498-48.83
			c-9.898-20.461-17.819-30.359-23.097-31.023C242.45,434.6,241.129,435.921,240.469,437.242z M255.648,507.848
			c-5.281-11.871-9.241-25.733-11.22-42.23c-2.64-15.835-2.64-24.419,0-26.396c3.299,0.663,9.898,10.562,19.797,29.695
			c9.898,19.798,15.177,35.632,15.177,46.857c0,5.936-1.979,9.235-5.938,9.899C267.525,526.33,260.926,520.388,255.648,507.848z"/>
	</g>
	<g>
		<path fill="#FFE000" d="M248.389,548.77c10.559,3.3,13.858-14.525,9.898-52.136c-3.3-37.616-7.92-57.413-14.52-59.392
			c-5.938-1.985-9.238,15.176-9.898,52.135C233.209,526.33,237.829,546.127,248.389,548.77z"/>
	</g>
	<g>
		<path d="M244.429,435.257l-3.96,0.664c-2.64,2.636-5.278,9.898-6.6,21.118c-1.979,11.877-2.639,24.412-2.639,37.61
			c0,14.525,0.66,27.06,3.299,36.295c3.3,11.884,7.26,18.482,13.198,19.797c5.278,1.985,9.238-1.314,11.878-8.571
			c3.96-11.883,3.299-32.338-0.658-60.719C254.987,452.418,250.367,437.242,244.429,435.257z M237.169,469.58
			c1.321-18.482,3.96-29.039,6.599-30.359c3.3,2.636,7.26,17.161,10.56,44.215c4.62,29.039,4.62,48.172,0,58.734
			c-0.66,3.3-3.3,4.614-5.938,4.614c-4.621-1.314-8.581-9.241-10.56-24.411C235.19,506.532,235.19,489.377,237.169,469.58z"/>
	</g>
	<g>
		<path fill="#FFE000" d="M212.754,539.528c9.898,3.3,18.477-11.884,27.054-45.537c7.92-33.652,9.241-51.472,4.621-56.092
			c-5.278-4.614-14.52,11.22-27.058,46.193C204.173,519.073,202.855,537.543,212.754,539.528z"/>
	</g>
	<g>
		<path d="M243.768,435.257l-2.639,0.664c-5.938,3.3-13.198,15.834-22.437,37.616c-9.898,22.439-13.858,40.909-13.858,54.107v3.3
			c0.66,6.599,3.299,9.898,7.26,11.226c6.599,1.973,12.537-2.642,18.476-13.198c6.6-13.198,11.22-30.359,15.181-53.456
			c3.956-23.098,3.956-36.295-0.661-39.595L243.768,435.257z M223.971,473.537c9.238-21.119,15.837-32.996,19.137-33.653
			c1.981,2.636,1.321,15.171-1.979,36.953c-3.96,23.097-9.898,40.909-16.498,52.135c-3.96,6.6-7.26,9.899-11.22,8.571
			c-2.639-0.657-4.617-4.614-4.617-11.213C209.454,513.789,214.732,495.977,223.971,473.537z"/>
	</g>
	<g>
		<path fill="#FFE000" d="M163.261,509.175c1.978,7.257,17.155-0.664,43.552-25.082c26.396-24.411,38.276-38.938,36.955-44.872
			c-1.979-5.936-15.837,2.636-43.555,24.418C172.499,486.078,160.618,501.248,163.261,509.175z"/>
	</g>
	<g>
		<path d="M211.433,452.418c-15.837,11.221-28.375,23.098-38.934,33.66c-7.92,9.234-11.88,16.497-11.88,21.111l0.661,2.643
			c1.321,3.3,4.621,4.614,9.899,3.3c9.898-3.3,25.078-15.184,46.193-34.98c20.458-21.112,30.356-34.311,29.036-39.595l-3.3-2.636
			C237.829,434.6,227.931,439.884,211.433,452.418z M217.371,453.739c13.859-9.898,21.779-14.519,24.418-13.855
			c0.661,3.957-9.238,15.834-29.035,35.632c-20.458,19.797-34.977,31.017-44.215,33.659l-3.3-0.664
			c-1.321-3.963,3.3-11.877,14.52-23.097C190.314,474.852,202.855,463.639,217.371,453.739z"/>
	</g>
	<g>
		<path fill="#FFE000" d="M295.243,427.343c31.014-13.198,44.872-24.418,40.912-34.98c-4.617-10.556-20.458-7.256-48.833,9.899
			c-27.717,16.497-41.572,28.381-40.255,34.98C247.728,443.841,264.226,440.541,295.243,427.343z"/>
	</g>
	<g>
		<path d="M244.429,437.899c0,1.321,0.66,2.642,3.299,3.957c6.6,1.327,19.798-1.315,40.256-9.235
			c21.775-7.92,36.295-16.498,44.873-25.732c3.96-3.3,5.938-7.264,5.938-11.227l-1.318-4.614c-1.981-6.599-8.581-7.92-20.458-5.284
			c-12.537,3.3-27.718,11.226-46.193,24.424C252.349,423.386,243.768,432.621,244.429,437.899z M320.318,389.727
			c7.26-1.979,11.877-0.663,13.198,3.3c1.979,4.621-1.321,9.898-10.56,17.161c-11.217,7.914-25.735,15.171-44.212,21.112
			c-17.819,5.284-27.718,7.921-30.356,5.284c0-3.299,9.238-11.226,26.396-23.76C293.262,399.625,308.441,392.362,320.318,389.727z"
			/>
	</g>
	<g>
		<path fill="#D96038" d="M231.891,516.432c9.898,3.956,16.498-7.257,19.798-32.339c3.96-25.075,2.639-39.595-2.64-43.552
			c-5.281-3.299-11.88,7.914-19.797,32.996C221.331,499.276,222.652,513.132,231.891,516.432z"/>
	</g>
	<g>
		<path d="M256.306,468.916c0.66-17.161-1.979-27.06-5.938-29.695h-5.278c-4.62,3.299-9.898,11.22-14.52,24.418
			c-5.938,14.513-8.577,26.396-8.577,36.295v4.614c1.317,7.927,4.617,12.541,9.238,14.525c6.599,1.973,11.877-1.327,16.497-9.898
			C252.349,499.276,254.987,486.078,256.306,468.916z M237.829,457.696c4.621-9.241,7.921-14.513,9.898-15.177
			c3.3,1.979,3.961,10.563,3.3,26.396c-0.66,16.498-3.3,29.696-7.26,38.273c-3.299,5.942-6.599,8.584-10.559,7.257
			c-5.938-1.972-7.917-10.556-5.278-25.069C229.909,478.814,233.209,468.916,237.829,457.696z"/>
	</g>
	<g>
		<path fill="#FFE000" d="M192.957,515.773c7.917,9.899,18.476,1.315,32.995-27.06c14.517-27.718,19.798-44.873,15.177-50.157
			c-3.3-5.936-14.52,3.963-32.335,27.061C190.975,489.377,185.036,505.875,192.957,515.773z"/>
	</g>
	<g>
		<path d="M234.529,475.516c9.238-21.119,12.538-33.659,9.238-38.273c-1.979-1.321-3.299-1.985-5.277-1.321
			c-4.621,0-13.198,6.599-23.098,17.818c-10.559,12.541-18.479,24.412-23.757,34.975c-2.64,7.263-3.96,13.198-3.96,17.161
			c0,4.614,1.32,8.571,3.96,11.871c3.96,5.284,9.898,5.284,15.837,0.664C216.711,511.811,225.292,497.948,234.529,475.516z
			 M205.494,473.537c6.6-9.898,13.859-17.819,21.776-24.418c6.599-6.6,10.559-9.898,12.537-9.235
			c1.981,3.3-1.317,15.171-9.238,34.968c-9.238,21.125-18.476,34.323-26.396,40.259l-9.238-0.664
			c-3.299-3.3-3.299-9.235-1.32-15.834C195.596,491.35,199.556,482.778,205.494,473.537z"/>
	</g>
	<g>
		<path fill="#FFE000" d="M259.605,445.155c1.981-2.636,2.642-5.271,1.981-8.571c0-2.642-1.321-4.627-4.621-6.599L246.407,428
			c-3.3,0.658-6.6,1.985-9.238,4.621c-2.64,3.3-3.3,5.936-2.64,8.577c0,2.643,1.979,5.285,5.278,7.257l9.898,1.327
			C253.667,449.119,256.966,447.798,259.605,445.155z"/>
	</g>
	<g>
		<path d="M264.226,436.584c0-3.963-2.639-6.599-5.938-8.584c-3.96-1.979-7.92-2.642-11.88-1.979c-5.278,0.664-9.238,3.3-11.878,6.6
			c-2.639,2.636-3.299,5.936-2.639,9.235c0.66,3.299,2.639,5.284,5.278,7.263c3.96,3.299,8.581,3.963,13.198,3.299
			c3.96-0.663,7.26-3.299,10.559-5.935C264.226,443.184,264.887,439.884,264.226,436.584z M236.508,440.541
			c0-1.32,0.661-3.957,1.321-5.284c1.979-2.636,5.278-4.614,9.238-5.271l7.92,1.972c2.64,0.664,4.618,3.3,5.278,5.285v1.314
			l-3.3,5.284c-2.639,1.979-4.617,3.3-7.26,3.957c-4.617,0.657-7.917-0.657-9.898-1.979
			C237.829,444.498,237.169,442.52,236.508,440.541z"/>
	</g>
	<g>
		<path fill="#9260C7" d="M276.764,253.124c7.92-54.771,11.22-102.943,8.58-143.859l-115.484-6.599
			c1.318,40.916-3.96,89.088-13.859,143.202C134.882,354.096,95.288,439.221,37.217,501.912l130,11.22
			C223.31,449.119,259.605,362.009,276.764,253.124z"/>
	</g>
	<g>
		<path d="M279.402,255.766c8.581-55.436,11.22-103.608,9.241-146.502c-0.66-2.636-1.321-3.299-3.3-3.299l-114.827-6.6l-2.639,0.664
			c-0.661,0.657-1.318,1.314-1.318,2.636c1.318,42.23-3.96,90.409-14.52,143.859C130.922,354.096,91.988,438.557,34.578,499.276
			c-0.661,1.314-0.661,1.972-0.661,3.957l2.639,1.978l130.661,11.221l2.643-0.658C225.292,451.098,261.587,364.651,279.402,255.766z
			 M282.045,112.563l0.657,20.461c0,56.75-5.938,111.521-18.477,166.292c-19.797,87.11-52.793,156.4-98.326,210.515L43.816,499.276
			c52.793-58.735,89.749-136.609,111.524-234.933c11.877-54.771,17.819-107.564,17.819-157.058v-1.321L282.045,112.563z"/>
	</g>
</g>
</svg>
