<?xml version="1.0" encoding="utf-8"?>
<!-- Generator: Adobe Illustrator 13.0.0, SVG Export Plug-In . SVG Version: 6.00 Build 14948)  -->
<!DOCTYPE svg PUBLIC "-//W3C//DTD SVG 1.1//EN" "http://www.w3.org/Graphics/SVG/1.1/DTD/svg11.dtd">
<svg version="1.1" id="圖層_1" xmlns="http://www.w3.org/2000/svg" xmlns:xlink="http://www.w3.org/1999/xlink" x="0px" y="0px"
	 width="372px" height="587px" viewBox="0 0 372 587" enable-background="new 0 0 372 587" xml:space="preserve">
<g>
	<g>
		<rect width="372" height="587" fill="#FFFFFF" fill-opacity="1.0"/>
	</g>
	<path id="PATH1" fill="#7CC4AA" stroke="#000000" stroke-width="4" d="M-6,346.5c253.5,1.5,111.5-96,387.5-94.5L381,594.5H-5.5
		L-6,346.5z"/>
	<path id="PATH2" fill="none" stroke="#000000" stroke-width="4" stroke-miterlimit="100" d="M-1.5,412.5
		c0,0,64.439,44.95,108.5,59.5c42.279,13.96,73,18.31,117.5,17c35.16-1.04,58.79-5.479,92.5-15.5c22.36-6.64,58-22.5,58-22.5"/>
	<path id="PATH3" fill="none" stroke="#000000" stroke-width="4" stroke-miterlimit="100" d="M372,371.5c0,0-50.23,39.77-86,51
		c-50.46,15.84-89.37,7.98-141-3.5c-19.689-4.38-33.57-6.26-51.5-15.5C70.34,391.56,41,358,41,358"/>
	<path id="PATH4" fill="#327830" stroke="#000000" stroke-width="4" d="M367.67,455c4.33,4.67-4.67,6.33-14.67,10.33
		c-7,3-6.33,7.33-35.33,9.33c-7.67,0-43.67-14-52.67-14c-14.33,0-21.67,17.33-40.67,17.33c-20-1-21.67-9-34-10.33
		c-14.67-1.67-21.67,7.67-39.01,8.14c-24.65,0.19-42.99-0.81-46.32-6.47c-6-11,16-21,24-25c6.33-3,0.33-13,10.67-21.33
		c12.33-10.33,29,2,35.67-3c8.33-6,7.641-18.86,15-19c9.78-0.36,37,8.67,59,10.33c19.33,1.33,33.65-4.51,42.67-4.67
		c34-1.67,69.33,42.33,75.67,48.33L367.67,455z"/>
	<path id="PATH5" fill="none" stroke="#000000" stroke-width="4" stroke-miterlimit="100" d="M362.5,250c0,0,7,60.37-12,87.5
		c-12.59,17.971-26.61,26.24-46.5,35.5c-22.83,10.64-40.859,10.86-66,12.5c-42.92,2.8-74.109,0.78-113.5-16.5
		c-21.91-9.609-39-19-47.5-28"/>
	<path id="PATH6" fill="none" stroke="#000000" stroke-width="4" stroke-miterlimit="100" d="M-1,517c0,0,50.65,27.32,83.5,37
		c40.96,12.06,70.3,13.46,113,14c37.63,0.479,62.98-1.729,100-8.5c31.32-5.729,82-22,82-22"/>
	<path id="PATH7" fill="none" stroke="#000000" stroke-width="4" stroke-miterlimit="100" d="M164.33,469.33
		c0,0,10.59-12.13,19.33-13.67c9.73-1.71,16.27,3.7,25,8.33c3.369,1.79,5.05,4.12,8.67,5.33c7.3,2.46,13.09-0.36,20.33-3
		c7.17-2.62,10.561-7.141,17.33-10.67c3.07-1.601,5.01-3.021,8.33-4c7.709-2.271,13.76-0.7,21.33,2
		c4.109,1.46,10.329,5.329,10.329,5.329"/>
	<path id="PATH8" fill="none" stroke="#000000" stroke-width="4" stroke-miterlimit="100" d="M272.33,457.33c0,0,6.13,4,10.33,4.67
		c5.13,0.82,8.78-0.56,13.67-2.33c3.57-1.3,5.2-4.54,9-4.67c5.37-0.18,6.89,5.87,11.67,8.33c4.25,2.189,7.23,4.7,12,4.33
		c6.23-0.48,7.82-7.061,13.33-10c2.42-1.29,6.67-3,6.67-3"/>
	<path id="PATH9" fill="none" stroke="#000000" stroke-width="4" stroke-miterlimit="100" d="M145,447.33c0,0,13.33-2.49,20.67,0
		c4.99,1.7,12,7.33,12,7.33"/>
	<path id="PATH10" fill="none" stroke="#000000" stroke-width="4" stroke-miterlimit="100" d="M190,426.33c0,0,2.88-1.05,4.67-1
		c4.87,0.14,6.221,5.22,9.67,8.67c5.96,5.96,14.33,17.33,14.33,17.33"/>
	<path id="PATH11" fill="none" stroke="#000000" stroke-width="4" stroke-miterlimit="100" d="M152.33,430
		c0,0,7.779,2.69,12.33,1.67c6.061-1.36,12.67-10.67,12.67-10.67"/>
	<path id="PATH12" fill="#327830" stroke="#000000" stroke-width="4" d="M137.67,125.67c7.67-2.67,20.33,8,33,10
		c14.33,2.33,19-10.67,30.33-4c19.33,10.33,6.67,25,20,40.67c2,2,20.33-3.33,20.67,15.67c-0.33,9-11,15.33-14.67,23.33
		c-5,10.67,2.33,14.67-3.33,22.67c-8.33,10.33-28.67-7.33-35.33-1.33c-18.33,3-30,21-36.67,20.67c-5-0.67-17.33-19.67-32.67-24.33
		c-18-5-37,7-42-2.669c-4.67-9.67,10.33-14.67,14-29.33c6.67-24.33-12-18.33-2.33-38c4.33-9.67,12-0.67,25.67-12
		c10.67-9.33,10.67-17.67,23.33-21.33V125.67z"/>
	<path id="PATH13" fill="#F35ABD" stroke="#000000" stroke-width="4" d="M130.67,106.67c27,10,33.67-4.33,47.67,14.33
		c4.67,7,4,19.67-11,19.67C156.34,140.67,131.67,129.67,130.67,106.67z"/>
	<path id="PATH14" fill="#F35ABD" stroke="#000000" stroke-width="4" d="M208.83,311.18c4.49,21.62,11.09,26.42-3.301,56.34
		c-23.799,7.49-28.819-0.75-30.579-18.549C181.63,323.99,181.391,342.63,208.83,311.18z"/>
	<path id="PATH15" fill="#F35ABD" stroke="#000000" stroke-width="4" d="M47.98,347.82c21.569,6.949,23.479-11.16,43.67,12.22
		c8.47,9.819,0.72,28.06-13.01,28.64C61.2,389.32,41.77,379.1,47.98,347.82z"/>
	<path id="PATH16" fill="#F35ABD" stroke="#000000" stroke-width="4" d="M83.67,321.439c-27.49,21.101-17.93,29.42,2.04,41.41
		c18.21,10.94,40.319,4.51,35.14-16.459c-6.32-24.781-15.359-16.44-37.17-24.94L83.67,321.439z"/>
	<path id="PATH17" fill="#F35ABD" stroke="#000000" stroke-width="4" d="M86.9,306.57c0.8,11.779,3.05,24.859,5.31,30.17
		c2.99,7.68,7.46,5.449,21.22,19.85c24.95-0.23,27.18-9.619,23.35-27.09C116.65,299.73,108.74,316.93,86.9,306.57L86.9,306.57z"/>
	<path id="PATH18" fill="#F35ABD" stroke="#000000" stroke-width="4" d="M150.24,298.141c4.279,18.1,17.06,24.939,10.14,48.359
		c-3.909,13.38-24.87,15.279-30.93,3.84c-4.88-8.439-12.44-20.359-8.22-22.8C135.13,316.83,132.721,308.35,150.24,298.141z"/>
	<path id="PATH19" fill="#F35ABD" stroke="#000000" stroke-width="4" d="M183.88,301.311c4.49,21.619,11.091,26.42-3.3,56.34
		c-23.801,7.49-35.02,0.41-29.53-16.41c5.07-14.98,12.82-19.75,32.841-39.93H183.88z"/>
	<path id="PATH20" fill="#FF9CDC" stroke="#000000" stroke-width="4" d="M145.67,385.67c-15.46,2.45-29.17-2.99-30.62-12.15
		s9.91-18.569,25.37-21.02s29.17,2.99,30.62,12.15S161.13,383.22,145.67,385.67z"/>
	<path id="PATH21" fill="#F35ABD" stroke="#000000" stroke-width="4" d="M217.529,345.95c4.49,21.62,11.091,26.42-3.299,56.34
		c-23.801,7.49-28.82-0.75-30.58-18.55C190.33,358.76,190.09,377.4,217.529,345.95z"/>
	<path id="PATH22" fill="#F35ABD" stroke="#000000" stroke-width="4" d="M43.25,366.65c19.68,10.17,26.141-9.461,46.33,13.93
		c8.47,9.82,0.72,28.06-13.01,28.64C59.13,409.86,37.04,397.94,43.25,366.65L43.25,366.65z"/>
	<path id="PATH23" fill="#F35ABD" stroke="#000000" stroke-width="4" d="M85.07,362.15c2.01,29.449,3.59,26.01,26.529,50.02
		c24.95-0.229,27.18-9.62,23.351-27.09C114.82,355.311,106.91,372.51,85.07,362.15z"/>
	<path id="PATH24" fill="#F35ABD" stroke="#000000" stroke-width="4" d="M185.05,348.971c4.49,21.619,11.091,26.42-3.3,56.339
		c-23.8,7.49-28.82-0.75-30.58-18.55C157.85,361.779,157.609,380.42,185.05,348.971z"/>
	<path id="PATH25" fill="#F35ABD" stroke="#000000" stroke-width="4" d="M227.561,375.73c-8.971,30.659,2.41,21.939-13.33,46.76
		c-23.801,7.49-29.701,0.45-25.5-16.69C205.04,374.51,206.76,385.4,227.561,375.73z"/>
	<path id="PATH26" fill="#F35ABD" stroke="#000000" stroke-width="4" d="M199.91,379.04c-8.971,30.66,5.83,26.72-11.439,48.59
		c-23.801,7.49-29.941-1.1-31.701-18.899C169.75,373.18,194.18,383.14,199.91,379.04z"/>
	<path id="PATH27" fill="#F35ABD" stroke="#000000" stroke-width="4" d="M42.939,394.87c19.69,10.17,26.25-12.13,46.44,11.25
		c8.47,9.82,0.72,28.06-13.01,28.64C58.93,435.4,43.311,424.05,42.939,394.87z"/>
	<path id="PATH28" fill="#F35ABD" stroke="#000000" stroke-width="4" d="M82.02,386.55c19.69,10.17,21.811-6.64,41.99,16.74
		c8.471,9.82-2.41,31.75-16.14,32.33C90.43,436.26,75.41,415.25,82.02,386.55z"/>
	<path id="PATH29" fill="#F35ABD" stroke="#000000" stroke-width="4" d="M146.471,380.6c8.09,24.23,25.449,23.08,18.529,46.5
		c-3.73,13.351-36.21,16.37-45.8,6.19C111.73,396.2,135.561,405.71,146.471,380.6z"/>
	<path id="PATH30" fill="none" stroke="#000000" stroke-width="4" stroke-miterlimit="100" d="M162.45,346.17l-3.341,7.971"/>
	<path id="PATH31" fill="none" stroke="#000000" stroke-width="4" stroke-miterlimit="100" d="M169.721,351.75l-3.271,6.189"/>
	<path id="PATH32" fill="none" stroke="#000000" stroke-width="4" stroke-miterlimit="100" d="M112.29,358.37l6.92,5.64"/>
	<path id="PATH33" fill="none" stroke="#000000" stroke-width="4" stroke-miterlimit="100" d="M140.38,343.29l1.479,9.33"/>
	<path id="PATH34" fill="none" stroke="#000000" stroke-width="4" stroke-miterlimit="100" d="M130.74,347.3l3.33,7.62"/>
	<path id="PATH35" fill="none" stroke="#000000" stroke-width="4" stroke-miterlimit="100" d="M119.88,352.561l5.3,6.6"/>
	<path id="PATH36" fill="none" stroke="#000000" stroke-width="4" stroke-miterlimit="100" d="M151.13,344.07l-0.601,9.66"/>
	<path id="PATH37" fill="#F35ABD" stroke="#000000" stroke-width="4" d="M278.311,55.34c0.699,14.7,4.549,18.55-8.051,36.75
		c-16.449,2.45-18.9-3.5-18.199-15.4C259.061,60.94,256.96,73.19,278.311,55.34z"/>
	<path id="PATH38" fill="#F35ABD" stroke="#000000" stroke-width="4" d="M168.58,62.69c13.48,6.83,16.63-4.9,27.48,12.6
		c4.549,7.35-2.451,18.55-11.551,17.5C172.96,91.39,161.23,82.64,168.58,62.69L168.58,62.69z"/>
	<path id="PATH39" fill="#F35ABD" stroke="#000000" stroke-width="4" d="M194.83,49.04c-20.301,11.03-14.88,17.5-2.98,27.48
		c10.851,9.1,26.08,7.18,24.851-7.18c-1.58-16.98-8.4-12.43-21.88-20.3H194.83z"/>
	<path id="PATH40" fill="#F35ABD" stroke="#000000" stroke-width="4" d="M198.5,39.59c-0.7,7.84-0.58,16.68,0.35,20.42
		c1.17,5.37,4.34,4.36,11.9,15.28c16.45,2.45,18.9-3.5,18.2-15.4C218.8,38.19,211.8,48.69,198.5,39.59z"/>
	<path id="PATH41" fill="#F35ABD" stroke="#000000" stroke-width="4" d="M241.09,40.64c0.93,12.37,8.631,18.2,1.631,32.9
		c-3.971,8.4-17.971,7.47-20.771-0.7c-2.33-6.07-6.07-14.7-3.03-15.87C229.189,51.37,228.49,45.54,241.09,40.64z"/>
	<path id="PATH42" fill="#F35ABD" stroke="#000000" stroke-width="4" d="M262.91,46.24c0.699,14.7,4.55,18.55-8.051,36.75
		c-16.449,2.45-23.1-3.38-17.729-13.88c4.899-9.33,10.5-11.67,25.79-22.87H262.91z"/>
	<path id="PATH43" fill="#FF9CDC" stroke="#000000" stroke-width="4" d="M228.96,97.81c-10.44,0-18.89-5.01-18.89-11.19
		c0-6.18,8.459-11.19,18.89-11.19c10.44,0,18.89,5.01,18.89,11.19C247.85,92.8,239.391,97.81,228.96,97.81z"/>
	<path id="PATH44" fill="#F35ABD" stroke="#000000" stroke-width="4" d="M280.41,79.15c0.699,14.7,4.55,18.55-8.051,36.75
		c-16.449,2.45-18.899-3.5-18.199-15.4C261.16,84.75,259.061,97,280.41,79.15z"/>
	<path id="PATH45" fill="#F35ABD" stroke="#000000" stroke-width="4" d="M163.5,74.59c11.9,8.75,18.2-3.5,29.05,14
		c4.55,7.35-2.45,18.55-11.55,17.5C169.45,104.69,156.15,94.54,163.5,74.59z"/>
	<path id="PATH46" fill="#F35ABD" stroke="#000000" stroke-width="4" d="M191.5,76c-1.75,19.6-0.35,17.5,12.25,35.7
		c16.45,2.45,18.9-3.5,18.2-15.4C211.8,74.6,204.8,85.1,191.5,76z"/>
	<path id="PATH47" fill="#F35ABD" stroke="#000000" stroke-width="4" d="M258.71,77.75c0.7,14.7,4.55,18.55-8.05,36.75
		c-16.45,2.45-18.9-3.5-18.2-15.4C239.46,83.35,237.359,95.6,258.71,77.75L258.71,77.75z"/>
	<path id="PATH48" fill="#F35ABD" stroke="#000000" stroke-width="4" d="M283.91,99.8c-9.1,19.25-0.7,14.7-13.65,29.4
		c-16.449,2.45-19.6-2.8-15.05-13.65C269.21,96.65,269.21,104,283.91,99.8L283.91,99.8z"/>
	<path id="PATH49" fill="#F35ABD" stroke="#000000" stroke-width="4" d="M265.359,99.1c-9.1,19.25,1.051,18.2-12.6,30.8
		c-16.449,2.45-19.6-3.85-18.9-15.75C246.109,92.1,261.16,101.2,265.359,99.1z"/>
	<path id="PATH50" fill="#F35ABD" stroke="#000000" stroke-width="4" d="M160.35,93.15c11.9,8.75,18.551-5.25,29.4,12.25
		c4.55,7.35-2.45,18.55-11.55,17.5C166.65,121.5,157.55,112.4,160.35,93.15L160.35,93.15z"/>
	<path id="PATH51" fill="#F35ABD" stroke="#000000" stroke-width="4" d="M186.95,91.75c11.899,8.75,15.05-2.1,25.899,15.4
		c4.551,7.35-4.899,20.65-14,19.6C187.3,125.35,179.6,109.95,186.95,91.75z"/>
	<path id="PATH52" fill="#F35ABD" stroke="#000000" stroke-width="4" d="M230.01,94.55c2.801,16.8,14.35,17.85,7.35,32.55
		c-3.85,8.4-25.549,7-30.799-0.7C205.51,101.2,220.21,109.95,230.01,94.55z"/>
	<path id="PATH53" fill="none" stroke="#000000" stroke-width="4" stroke-miterlimit="100" d="M244.12,73.54l-3.03,4.9"/>
	<path id="PATH54" fill="none" stroke="#000000" stroke-width="4" stroke-miterlimit="100" d="M248.32,77.98l-2.801,3.73"/>
	<path id="PATH55" fill="none" stroke="#000000" stroke-width="4" stroke-miterlimit="100" d="M209.82,76.35l3.97,4.43"/>
	<path id="PATH56" fill="none" stroke="#000000" stroke-width="4" stroke-miterlimit="100" d="M229.891,69.34v6.3"/>
	<path id="PATH57" fill="none" stroke="#000000" stroke-width="4" stroke-miterlimit="100" d="M223.12,70.98l1.399,5.37"/>
	<path id="PATH58" fill="none" stroke="#000000" stroke-width="4" stroke-miterlimit="100" d="M215.42,73.31l2.801,4.9"/>
	<path id="PATH59" fill="none" stroke="#000000" stroke-width="4" stroke-miterlimit="100" d="M236.891,70.98l-1.4,6.3"/>
	<path id="PATH60" fill="#F35ABD" stroke="#000000" stroke-width="4" d="M169.35,111.15c11.9,8.75,18.551-5.25,29.4,12.25
		c4.55,7.35-2.45,18.55-11.55,17.5C175.65,139.5,166.55,130.4,169.35,111.15L169.35,111.15z"/>
	<path id="PATH61" fill="#F35ABD" stroke="#000000" stroke-width="4" d="M287.91,117.8c-9.1,19.25-0.7,14.7-13.65,29.4
		c-16.449,2.45-19.6-2.8-15.05-13.65C273.21,114.65,273.21,122,287.91,117.8L287.91,117.8z"/>
	<path id="PATH62" fill="#F35ABD" stroke="#000000" stroke-width="4" d="M269.359,118.1c-9.1,19.25,1.051,18.2-12.6,30.8
		c-16.449,2.45-19.6-3.85-18.9-15.75C250.109,111.1,265.16,120.2,269.359,118.1z"/>
	<path id="PATH63" fill="#F35ABD" stroke="#000000" stroke-width="4" d="M248.359,115.1c-9.1,19.25,1.051,18.2-12.6,30.8
		c-16.449,2.45-19.6-3.85-18.9-15.75C229.109,108.1,244.16,117.2,248.359,115.1z"/>
	<path id="PATH64" fill="#F35ABD" stroke="#000000" stroke-width="4" d="M193.95,107.75c11.899,8.75,15.05-2.1,25.899,15.4
		c4.551,7.35-4.899,20.65-14,19.6C194.3,141.35,186.6,125.95,193.95,107.75z"/>
	<path id="PATH65" fill="none" stroke="#000000" stroke-width="4" stroke-miterlimit="100" d="M99,202c0,0,19.391-4.25,30-0.5
		c8.49,3,11.23,10.45,19.5,14c7.91,3.39,14,5.83,22.5,4.5c7.7-1.21,13.41-3.59,18.5-9.5c2.41-2.8,2.721-5.59,5-8.5
		c4.12-5.26,8.359-7.43,14-11c2.55-1.62,7-4,7-4"/>
	<path id="PATH66" fill="none" stroke="#000000" stroke-width="4" stroke-miterlimit="100" d="M153,195c0,0-6.189-15.48-12.5-23
		c-5.91-7.04-19-15.5-19-15.5"/>
	<path id="PATH67" fill="none" stroke="#000000" stroke-width="4" stroke-miterlimit="100" d="M175,187c0,0-0.4-12.85,2-20
		c2.061-6.13,8.5-15,8.5-15"/>
	<path id="PATH68" fill="#327830" stroke="#000000" stroke-width="4" d="M230,214.5c14-7,13.5,7.5,41-0.5c23-7,27.5-16.5,39.5-16.5
		c14-0.5,10,15,46,25c9,2.5,24.5-10,25.5,3c1,9-5.5,19-4,29.5s11,6,6,21c-3.5,11-24.5,8-33.5,17c-15.5,15.5,2.5,19-23.5,38.5
		c-20,15-48.5,1.5-59,1c-16-1.5-26,16-37,11.5c-15-6.5-15-24-22.5-32.5c-7-7.5-15.5-19-16.5-23c-3-13,12-25,17.5-37.5
		C216,237,216.5,221,230,214.5z"/>
	<path id="PATH69" fill="none" stroke="#000000" stroke-width="4" stroke-miterlimit="100" d="M264,293.5c0,0-4.7-2.01-6-4.5
		c-1.38-2.66,0.9-5.141,0-8c-1.52-4.811-5.859-6.109-10-9c-4.33-3.02-8.13-3.54-12.5-6.5c-2.98-2.02-5.3-3.141-7.5-6
		c-1.43-1.859-3-5.5-3-5.5"/>
	<path id="PATH70" fill="none" stroke="#000000" stroke-width="4" stroke-miterlimit="100" d="M271.5,281.5c0,0,0.12-10.96-0.5-17.5
		c-0.57-6.05-1.93-9.95-2.5-16c-0.27-2.811,0.92-5.061-0.5-7.5c-1.279-2.2-5.5-4-5.5-4"/>
	<path id="PATH71" fill="none" stroke="#000000" stroke-width="4" stroke-miterlimit="100" d="M283.5,279c0,0,3.439-6.109,5-10
		c2.1-5.24,1.62-9.391,4-14.5c3.22-6.9,7.13-10.609,12.5-16c4.13-4.15,12-10,12-10"/>
	<path id="PATH72" fill="none" stroke="#000000" stroke-width="4" stroke-miterlimit="100" d="M287,307.5c0,0,8.03-7.609,12.5-12.5
		c4.13-4.52,6-8.35,10.5-12.5c4.25-3.91,7.89-5.51,12.5-9c7.54-5.71,19.5-16,19.5-16"/>
	<path id="PATH73" fill="none" stroke="#000000" stroke-width="4" stroke-miterlimit="100" d="M221.5,309c0,0,3.67-4.811,6.5-7
		c3.92-3.029,7.061-5.2,12-5.5c6.37-0.38,11.96,1.7,15.5,7c2.45,3.67,0.5,7.57,2.5,11.5c0.92,1.811,1.62,3.01,3,4.5
		c5.65,6.09,13.8,3.77,22,2.5c6.98-1.08,11.91-2.68,17.5-7c5.85-4.52,8.66-9.18,11.5-16c0.91-2.189,1.1-3.8,2-6
		c1.36-3.34,3.47-5.04,4.5-8.5c0.86-2.9,1-8,1-8"/>
</g>
<path id="PATH77" fill="none" stroke="#000000" stroke-width="3" stroke-miterlimit="100" d="M370.59,585.26H3.92V2.74h366.67
	V585.26L370.59,585.26z"/>
</svg>
