<?xml version="1.0" encoding="utf-8"?>
<!-- Generator: Adobe Illustrator 13.0.0, SVG Export Plug-In . SVG Version: 6.00 Build 14948)  -->
<!DOCTYPE svg PUBLIC "-//W3C//DTD SVG 1.1//EN" "http://www.w3.org/Graphics/SVG/1.1/DTD/svg11.dtd">
<svg version="1.1" id="圖層_1" xmlns="http://www.w3.org/2000/svg" xmlns:xlink="http://www.w3.org/1999/xlink" x="0px" y="0px"
	 width="372px" height="587px" viewBox="0 0 372 587" enable-background="new 0 0 372 587" xml:space="preserve">
<g>
	<g>
		<g>
			<path fill="#333333" d="M65.993,299.938c0-3.257-1.953-5.204-5.21-5.204c-2.605,0-4.562,1.947-4.562,5.204
				c0,3.258,1.957,4.568,4.562,4.568C64.04,304.506,65.993,303.195,65.993,299.938z"/>
		</g>
	</g>
	<g>
		<g>
			<path fill="#333333" d="M54.268,331.216c0-3.258-1.304-4.563-4.562-4.563c-1.301,0-1.953,0-3.257,1.305l-1.954,3.258
				c0,2.608,1.954,4.555,5.211,4.555C52.963,335.771,54.268,333.824,54.268,331.216z"/>
		</g>
	</g>
	<g>
		<g>
			<path fill="#333333" d="M36.675,346.854l-1.301-3.258c-0.652-0.655-1.957-1.311-3.258-1.311c-3.257,0-5.214,1.311-5.214,4.568
				c0,3.257,1.957,5.204,5.214,5.204l3.258-1.298L36.675,346.854z"/>
		</g>
	</g>
	<g>
		<g>
			<path fill="#333333" d="M36.675,271.275l-0.652-3.258l-3.907-1.953c-1.304,0-1.956,0.648-3.257,1.953l-1.957,3.258
				c0,2.602,1.957,4.562,5.214,4.562C35.375,275.837,36.675,273.877,36.675,271.275z"/>
		</g>
	</g>
	<g>
		<g>
			<path fill="#333333" d="M37.98,245.215c0-3.257-1.305-5.21-4.562-5.21s-4.559,1.953-4.559,5.21c0,2.603,1.301,4.562,4.559,4.562
				S37.98,247.817,37.98,245.215z"/>
		</g>
	</g>
	<g>
		<g>
			<path fill="#333333" d="M36.675,320.794l-0.652-3.258l-3.907-1.311c-1.304,0-1.956,0.655-3.257,1.311l-1.957,3.258l1.957,3.258
				c1.301,1.298,1.953,1.946,3.257,1.946l3.907-1.946L36.675,320.794z"/>
		</g>
	</g>
	<g>
		<g>
			<path fill="#333333" d="M36.675,417.209c0-2.602-1.301-4.555-4.559-4.555c-3.257,0-5.214,1.953-5.214,4.555l1.957,3.913
				c1.301,0.655,1.953,0.655,3.257,0.655l3.907-0.655L36.675,417.209z"/>
		</g>
	</g>
	<g>
		<g>
			<path fill="#333333" d="M51.662,260.847c0-2.602-1.957-4.555-5.214-4.555c-3.258,0-4.559,1.953-4.559,4.555l1.301,3.913
				c1.304,0.655,2.605,1.304,3.258,1.304l3.91-1.304L51.662,260.847z"/>
		</g>
	</g>
	<g>
		<g>
			<path fill="#333333" d="M70.555,346.854c0-3.258-1.304-4.568-4.562-4.568c-3.257,0-4.559,1.311-4.559,4.568
				c0,2.602,1.301,4.555,4.559,4.555C69.251,351.409,70.555,349.456,70.555,346.854z"/>
		</g>
	</g>
	<g>
		<g>
			<path fill="#333333" d="M52.963,360.533c0-3.258-1.954-4.562-5.211-4.562c-3.258,0-4.562,1.304-4.562,4.562
				c0,2.608,1.304,4.556,4.562,4.556C51.01,365.089,52.963,363.142,52.963,360.533z"/>
		</g>
	</g>
	<g>
		<g>
			<path fill="#333333" d="M54.268,402.881c0-2.608-1.304-4.562-4.562-4.562c-3.257,0-4.559,1.953-4.559,4.562
				c0,3.258,1.301,5.211,4.559,5.211c1.304,0,2.605,0,3.258-1.304L54.268,402.881z"/>
		</g>
	</g>
	<g>
		<g>
			<path fill="#333333" d="M43.19,225.67l-1.953-3.258l-3.257-1.304c-3.258,0-4.562,1.304-4.562,4.562
				c0,3.257,1.304,4.562,4.562,4.562C41.237,230.231,43.19,228.927,43.19,225.67z"/>
		</g>
	</g>
	<g>
		<g>
			<path fill="#333333" d="M43.19,296.031l-1.953-3.258l-3.257-1.953c-3.258,0-4.562,1.953-4.562,5.211s1.304,4.562,4.562,4.562
				l3.257-0.655L43.19,296.031z"/>
		</g>
	</g>
	<g>
		<g>
			<path fill="#333333" d="M39.281,441.323c0-3.258-1.301-4.568-4.559-4.568c-3.257,0-4.562,1.311-4.562,4.568
				c0,3.257,1.304,5.204,4.562,5.204C37.98,446.527,39.281,444.58,39.281,441.323z"/>
		</g>
	</g>
	<g>
		<g>
			<path fill="#333333" d="M137.659,36.077l-1.953-3.258l-3.258-1.298c-1.304,0-1.956,0-3.257,1.298l-1.304,3.258
				c0,2.608,1.304,4.568,4.562,4.568C135.706,40.645,137.659,38.686,137.659,36.077z"/>
		</g>
	</g>
	<g>
		<g>
			<path fill="#333333" d="M111.599,47.809l-1.301-3.257l-3.91-1.959c-2.605,0-4.562,1.959-4.562,5.217
				c0,2.609,1.957,3.907,4.562,3.907C109.646,51.716,111.599,50.418,111.599,47.809z"/>
		</g>
	</g>
	<g>
		<g>
			<path fill="#333333" d="M187.174,32.17c0-3.257-1.304-5.21-3.909-5.21c-1.953,0-2.605,1.304-3.257,1.953
				c-1.301,0.649-1.953,1.959-1.953,3.257l1.953,3.258l3.257,1.304C185.87,36.732,187.174,35.428,187.174,32.17z"/>
		</g>
	</g>
	<g>
		<g>
			<path fill="#333333" d="M164.372,47.809c0-3.257-1.304-5.217-3.91-5.217c-1.953,0-2.605,0.655-3.257,1.959
				c-1.301,0.649-1.953,1.298-1.953,3.257c0,2.609,1.953,3.907,5.21,3.907C163.067,51.716,164.372,50.418,164.372,47.809z"/>
		</g>
	</g>
	<g>
		<g>
			<path fill="#333333" d="M45.147,32.17l-1.304-3.257c-0.652-0.649-2.605-1.953-3.91-1.953c-0.652,0-1.953,1.304-3.258,1.953
				c-0.652,0.649-1.301,1.959-1.301,3.257l1.301,3.258c1.305,1.304,2.605,1.304,3.258,1.304l3.91-1.304L45.147,32.17z"/>
		</g>
	</g>
	<g>
		<g>
			<path fill="#333333" d="M39.281,58.88c0-3.258-1.301-4.556-4.559-4.556c-3.257,0-4.562,1.298-4.562,4.556
				c0,2.608,1.304,4.568,4.562,4.568C37.98,63.448,39.281,61.488,39.281,58.88z"/>
		</g>
	</g>
	<g>
		<g>
			<path fill="#333333" d="M39.281,131.201c0-3.258-1.301-5.211-4.559-5.211c-3.257,0-4.562,1.953-4.562,5.211
				c0,3.257,1.304,4.562,4.562,4.562C37.98,135.763,39.281,134.458,39.281,131.201z"/>
		</g>
	</g>
	<g>
		<g>
			<path fill="#333333" d="M37.98,178.111c0-3.257-1.305-5.217-4.562-5.217s-4.559,1.96-4.559,5.217
				c0,2.609,1.301,3.907,4.559,3.907S37.98,180.72,37.98,178.111z"/>
		</g>
	</g>
	<g>
		<g>
			<path fill="#333333" d="M44.495,198.305l-1.304-3.258l-3.91-1.298c-1.301,0-2.605,0.649-3.257,1.298l-1.301,3.258
				c0,3.257,1.301,4.562,4.559,4.562C42.539,202.867,44.495,201.563,44.495,198.305z"/>
		</g>
	</g>
	<g>
		<g>
			<path fill="#333333" d="M73.813,261.503c0-3.258-1.956-5.211-4.562-5.211c-3.258,0-5.211,1.953-5.211,5.211
				c0,3.257,1.953,4.562,5.211,4.562C71.856,266.064,73.813,264.76,73.813,261.503z"/>
		</g>
	</g>
	<g>
		<g>
			<path fill="#333333" d="M43.19,376.172c0-3.258-1.953-4.568-5.21-4.568c-1.305,0-1.957,0.655-3.258,1.311
				c-0.652,0.649-1.304,1.947-1.304,3.258c0,2.603,1.304,4.556,4.562,4.556C41.237,380.728,43.19,378.774,43.19,376.172z"/>
		</g>
	</g>
	<g>
		<g>
			<path fill="#333333" d="M36.675,395.062c0-3.257-1.953-5.21-4.559-5.21c-1.304,0-1.956,1.298-3.257,1.953l-1.957,3.257
				l1.957,3.258c1.301,1.305,1.953,1.305,3.257,1.305C34.722,399.624,36.675,398.319,36.675,395.062z"/>
		</g>
	</g>
	<g>
		<g>
			<path fill="#333333" d="M37.328,484.319c0-2.608-1.304-4.562-4.562-4.562c-3.257,0-4.559,1.953-4.559,4.562l1.301,3.907
				c0.652,1.304,1.957,1.304,3.257,1.304C36.023,489.53,37.328,487.577,37.328,484.319z"/>
		</g>
	</g>
	<g>
		<g>
			<path fill="#333333" d="M44.495,546.213l-1.304-3.258l-3.91-1.304c-1.301,0-2.605,0.655-3.257,1.304l-1.301,3.258
				c0,3.258,1.301,4.556,4.559,4.556C42.539,550.769,44.495,549.471,44.495,546.213z"/>
		</g>
	</g>
	<g>
		<g>
			<path fill="#333333" d="M62.083,529.926c0-2.609-1.301-3.907-4.559-3.907c-3.257,0-4.562,1.298-4.562,3.907
				c0,3.257,1.304,5.21,4.562,5.21C60.783,535.136,62.083,533.183,62.083,529.926z"/>
		</g>
	</g>
	<g>
		<g>
			<path fill="#333333" d="M35.375,516.896c0-3.258-1.957-4.563-4.562-4.563c-3.257,0-4.562,1.305-4.562,4.563l1.305,3.257
				c1.304,1.299,1.953,1.299,3.257,1.299C33.418,521.451,35.375,520.152,35.375,516.896z"/>
		</g>
	</g>
	<g>
		<g>
			<path fill="#333333" d="M67.298,557.283l-1.305-3.257c-1.301-1.298-2.605-1.947-3.91-1.947c-2.605,0-4.559,1.947-4.559,5.204
				c0,3.258,1.954,4.568,4.559,4.568l3.91-1.311L67.298,557.283z"/>
		</g>
	</g>
	<g>
		<g>
			<path fill="#333333" d="M132.448,552.729c0-2.609-1.304-3.907-4.562-3.907c-3.258,0-5.211,1.298-5.211,3.907
				c0,3.257,1.953,5.211,5.211,5.211C131.144,557.939,132.448,555.985,132.448,552.729z"/>
		</g>
	</g>
	<g>
		<g>
			<path fill="#333333" d="M101.826,557.283l-0.652-3.257c-1.301-1.298-2.605-1.947-3.907-1.947c-1.304,0-1.957,0.649-3.257,1.947
				l-1.957,3.257l1.957,3.258c1.301,1.311,1.953,1.311,3.257,1.311l3.907-1.311L101.826,557.283z"/>
		</g>
	</g>
	<g>
		<g>
			<path fill="#333333" d="M150.689,557.283c0-3.257-1.953-5.204-4.559-5.204c-1.304,0-1.957,0.649-3.258,1.947l-1.304,3.257
				l1.304,3.258c1.301,1.311,1.954,1.311,3.258,1.311C148.736,561.852,150.689,560.541,150.689,557.283z"/>
		</g>
	</g>
	<g>
		<g>
			<path fill="#333333" d="M183.265,560.541l-1.301-3.258l-3.91-1.946c-0.652,0-1.957,0.648-3.258,1.946
				c-0.652,1.312-1.304,1.96-1.304,3.258l1.304,3.258l3.258,1.311l3.91-1.311L183.265,560.541z"/>
		</g>
	</g>
	<g>
		<g>
			<path fill="#333333" d="M216.492,28.913c0-3.258-1.953-4.556-5.211-4.556c-2.608,0-4.562,1.298-4.562,4.556
				c0,3.257,1.953,4.562,4.562,4.562C214.539,33.475,216.492,32.17,216.492,28.913z"/>
		</g>
	</g>
	<g>
		<g>
			<path fill="#333333" d="M153.947,30.217c0-3.257-1.953-4.562-5.21-4.562c-3.258,0-4.562,1.305-4.562,4.562l1.304,3.257
				l3.258,1.305C151.994,34.779,153.947,33.475,153.947,30.217z"/>
		</g>
	</g>
	<g>
		<g>
			<path fill="#333333" d="M64.04,31.521c0-3.257-1.304-5.217-4.562-5.217c-1.301,0-1.954,0.656-3.258,1.96l-1.953,3.257
				c0,3.258,1.953,4.556,5.211,4.556C62.736,36.077,64.04,34.779,64.04,31.521z"/>
		</g>
	</g>
	<g>
		<g>
			<path fill="#333333" d="M255.583,32.819l-1.305-3.257c-1.301-0.649-2.605-1.298-3.906-1.298c-1.305,0-1.956,0.649-3.258,1.298
				l-1.304,3.257l1.304,3.913c1.302,1.304,1.953,1.304,3.258,1.304c1.301,0,2.605,0,3.906-1.304L255.583,32.819z"/>
		</g>
	</g>
	<g>
		<g>
			<path fill="#333333" d="M232.78,36.077c0-3.258-1.305-4.556-3.91-4.556c-1.953,0-2.605,0-3.257,1.298
				c-1.302,0.655-1.954,1.96-1.954,3.258c0,2.608,1.954,4.568,5.211,4.568C231.476,40.645,232.78,38.686,232.78,36.077z"/>
		</g>
	</g>
	<g>
		<g>
			<path fill="#333333" d="M337.021,32.17c0-3.257-1.953-5.21-4.562-5.21c-1.953,0-2.605,1.304-3.258,1.953
				c-1.301,0.649-1.953,1.959-1.953,3.257l1.953,3.258l3.258,1.304C335.068,36.732,337.021,35.428,337.021,32.17z"/>
		</g>
	</g>
	<g>
		<g>
			<path fill="#333333" d="M314.219,36.077c0-3.258-1.953-4.556-4.562-4.556c-1.954,0-2.605,0-3.258,1.298
				c-1.301,0.655-1.953,1.96-1.953,3.258c0,2.608,1.953,4.568,5.211,4.568C312.266,40.645,314.219,38.686,314.219,36.077z"/>
		</g>
	</g>
	<g>
		<g>
			<path fill="#333333" d="M282.295,28.264c0-3.258-1.304-4.562-3.909-4.562c-3.258,0-5.211,1.304-5.211,4.562
				c0,3.257,1.953,4.555,5.211,4.555C280.991,32.819,282.295,31.521,282.295,28.264z"/>
		</g>
	</g>
	<g>
		<g>
			<path fill="#333333" d="M264.051,44.552c-1.953,0-2.604,0.649-3.257,1.298c-1.302,1.311-1.953,1.959-1.953,3.258
				c0,3.257,1.953,5.217,5.21,5.217c2.609,0,4.563-1.959,4.563-5.217C268.613,45.85,266.66,44.552,264.051,44.552z"/>
		</g>
	</g>
	<g>
		<g>
			<path fill="#333333" d="M94.659,32.17c0-3.257-1.953-5.21-4.559-5.21c-1.304,0-2.605,1.304-3.258,1.953
				c-1.304,0.649-1.957,1.959-1.957,3.257l1.957,3.258c0.652,1.304,1.954,1.304,3.258,1.304
				C92.706,36.732,94.659,35.428,94.659,32.17z"/>
		</g>
	</g>
	<g>
		<g>
			<path fill="#333333" d="M131.144,56.277c0-3.257-1.301-5.21-3.91-5.21c-3.257,0-5.21,1.953-5.21,5.21
				c0,3.258,1.953,4.562,5.21,4.562C129.843,60.839,131.144,59.535,131.144,56.277z"/>
		</g>
	</g>
	<g>
		<g>
			<path d="M70.555,72.565c0-1.304-1.304-1.954-3.257-1.304c-1.305,0-1.957,1.304-1.957,2.608
				c7.167,28.014,16.94,56.027,28.669,85.345c24.104,57.986,50.164,99.03,77.529,121.833l34.528,26.061
				c38.438,28.662,65.804,53.425,84.696,75.579c30.622,35.832,57.983,84.04,80.786,142.021c0,1.311,1.305,1.96,3.258,1.311
				c1.305,0,1.305-1.311,1.305-3.257c-22.803-59.291-49.516-106.851-81.438-143.987c-18.894-21.499-46.91-46.261-85.349-75.579
				l-34.529-26.709c-26.712-22.154-52.772-62.542-76.228-121.178C86.191,125.99,77.07,98.625,70.555,72.565z"/>
		</g>
	</g>
	<g>
		<g>
			<path fill="#D96038" d="M64.04,47.809c-3.257,0.649-5.863,1.954-6.515,3.258c-1.957,3.257-1.957,7.813-0.652,14.328
				c0.652,5.866,3.91,11.083,8.468,14.99l5.214,3.906l4.559-5.866c1.957-5.204,3.258-11.07,1.957-16.937
				c-1.304-6.515-3.258-10.421-5.214-13.03L64.04,47.809z"/>
		</g>
	</g>
	<g>
		<g>
			<path d="M79.676,60.839c-1.304-6.515-3.258-11.732-5.863-14.334c-2.605-1.304-6.515-1.953-10.424-1.304s-6.515,2.608-7.82,4.562
				c-2.605,3.257-2.605,8.468-1.301,16.288c1.953,10.428,7.167,17.592,15.635,20.85l2.605-0.649l4.562-7.17
				C80.328,73.87,80.98,67.354,79.676,60.839z M75.114,67.354c0,5.211-1.953,9.772-4.559,13.679
				c-6.515-3.258-9.772-8.468-11.077-16.288l-0.652-7.164c0-1.96,0-3.907,0.652-5.217c1.304-0.649,2.605-1.298,4.562-1.947
				l6.515,0.649c1.301,1.298,3.257,5.21,3.91,11.07L75.114,67.354z"/>
		</g>
	</g>
	<g>
		<g>
			<path d="M95.311,103.188c-1.301,0-2.605,0-3.257,1.953l-8.468,22.803c-0.652,1.304,0,3.258,1.301,3.258
				c1.957,0.655,3.258,0,3.258-1.304l8.472-23.452C97.917,105.141,97.268,103.836,95.311,103.188z"/>
		</g>
	</g>
	<g>
		<g>
			<path fill="#D96038" d="M114.204,76.478c-0.649-2.608-2.605-3.913-5.863-5.217l-7.816-0.649
				c-2.609,1.954-5.214,5.211-7.819,11.726c-2.605,5.211-2.605,11.077-0.652,16.943l2.605,6.515l7.167-2.608
				c4.562-3.258,7.819-7.819,9.773-13.03C114.856,83.642,114.856,79.081,114.204,76.478z"/>
		</g>
	</g>
	<g>
		<g>
			<path d="M116.813,75.823c-0.652-3.257-3.91-5.211-7.167-6.515l-9.772-0.655c-3.257,1.959-6.515,5.866-9.772,12.381
				c-1.957,6.515-2.605,12.381-1.304,18.896l3.257,7.164c1.304,1.305,1.957,1.305,3.257,1.305
				c8.472-1.954,14.987-7.17,19.545-17.592C117.462,84.291,118.114,79.081,116.813,75.823z M107.689,73.87
				c3.257,1.298,4.562,3.257,4.562,5.211l-2.605,9.772c-3.257,7.819-7.819,11.726-13.682,14.334
				c-1.304-3.907-2.605-7.164-2.605-10.422c0-2.608,0.652-5.866,1.953-9.124c2.605-5.866,4.562-9.772,6.515-10.421L107.689,73.87z"
				/>
		</g>
	</g>
	<g>
		<g>
			<path d="M111.599,140.318c-1.954-1.298-3.258-0.649-3.91,1.311l-11.074,22.147c-0.652,1.304,0,3.258,1.301,3.258
				c1.957,1.304,2.609,0.655,3.91-1.305l10.425-21.498C112.903,142.278,112.903,140.974,111.599,140.318z"/>
		</g>
	</g>
	<g>
		<g>
			<path fill="#D96038" d="M132.448,114.913c-0.652-1.953-2.605-3.257-5.214-5.21c-3.257-1.304-5.863-1.959-7.816-1.304
				c-3.258,1.304-5.863,4.562-8.472,11.077c-3.257,5.211-4.559,11.071-3.257,16.288c0.652,3.258,1.304,5.211,1.956,7.164
				l7.816-1.953c5.214-2.602,8.472-6.515,11.729-12.375C131.796,122.733,133.101,118.171,132.448,114.913z"/>
		</g>
	</g>
	<g>
		<g>
			<path d="M135.054,114.913c-0.652-3.257-2.605-5.21-7.167-7.819l-9.772-0.649c-3.258,1.954-6.515,5.211-9.773,11.726
				c-3.257,5.86-3.91,11.726-3.257,17.592l2.605,8.469c0.652,1.304,1.956,1.304,2.608,1.304l7.816-2.609
				c5.863-2.608,9.772-7.164,13.03-13.03C134.402,123.382,135.706,118.171,135.054,114.913z M112.903,120.124
				c2.605-5.211,5.211-8.468,7.167-9.124l5.863,0.655l4.559,5.211l-3.907,10.421c-3.257,6.515-8.471,10.428-14.986,12.381
				l-1.954-7.813C109.646,127.943,110.947,124.031,112.903,120.124z"/>
		</g>
	</g>
	<g>
		<g>
			<path d="M127.887,182.018c-0.652-0.649-1.953,0-3.258,1.959l-7.167,23.452c0,1.953,0,3.258,1.957,3.258
				c1.301,0,2.605,0,3.257-1.305l7.167-24.107C131.144,183.977,130.492,182.667,127.887,182.018z"/>
		</g>
	</g>
	<g>
		<g>
			<path fill="#D96038" d="M145.479,154.004c-0.652-1.953-2.605-3.258-5.863-4.562c-3.257-0.649-5.866-0.649-7.167,0
				c-3.257,1.304-5.214,5.866-7.819,11.732c-1.953,5.86-1.953,11.07,0,16.937l3.258,6.515l6.515-3.257
				c4.562-3.258,7.819-7.819,9.772-13.03C146.78,161.823,146.78,157.261,145.479,154.004z"/>
		</g>
	</g>
	<g>
		<g>
			<path d="M148.084,154.004c-0.652-3.258-3.257-5.211-7.167-6.515h-0.652h-9.772c-3.258,1.304-5.863,6.515-8.468,13.03
				c-2.605,6.515-2.605,12.375-0.652,18.241l4.562,7.819l1.953,0.655c9.121-2.608,15.636-8.475,18.893-18.247
				C148.736,161.823,150.037,157.261,148.084,154.004z M138.312,152.051c3.91,1.298,5.863,3.257,5.863,5.866l-2.605,9.118
				c-2.605,7.17-7.167,11.726-13.03,14.334c-1.953-3.258-2.605-7.164-2.605-11.077c0-3.257,0-5.86,1.301-8.468
				c1.957-5.217,3.91-9.124,5.866-9.772H138.312z"/>
		</g>
	</g>
	<g>
		<g>
			<path d="M150.037,219.81c-1.953-0.655-3.257,0.649-3.257,1.947l-5.211,24.113c-0.652,1.298,0,2.603,1.954,3.258l2.608-1.959
				l5.211-24.101C151.994,221.108,151.342,220.459,150.037,219.81z"/>
		</g>
	</g>
	<g>
		<g>
			<path fill="#DA8E55" d="M164.372,190.492c-0.652-1.959-3.257-3.258-6.515-3.913h-7.819c-1.953,1.954-4.559,6.515-5.863,13.03
				c-1.953,5.86-1.301,11.077,0.652,16.288l3.91,6.515l6.515-3.257c4.559-3.913,7.816-8.468,9.12-14.983
				C165.676,197.656,166.325,193.094,164.372,190.492z"/>
		</g>
	</g>
	<g>
		<g>
			<path d="M166.977,189.837c-1.953-3.258-3.91-5.211-8.468-6.515l-9.772,1.304c-3.258,2.608-5.214,7.164-7.167,14.328
				c-1.304,6.515-0.652,12.381,1.304,18.247c1.301,3.258,2.605,5.211,4.559,7.164l2.605,0.649l7.167-4.556
				c4.562-3.907,7.819-9.124,9.772-15.639C168.281,197.656,168.281,193.094,166.977,189.837z M146.78,199.609
				c1.304-5.211,3.257-8.468,4.562-10.428l5.863-0.649l3.91,1.959l1.953,5.205l-1.301,7.826c-1.957,7.813-5.863,13.03-11.729,15.632
				c-2.605-3.258-4.559-7.819-4.559-13.03L146.78,199.609z"/>
		</g>
	</g>
	<g>
		<g>
			<path d="M71.856,120.773l-3.258,0.655c-1.301,1.305-1.301,1.954,0,3.258l18.244,16.288h4.559
				c0.652-1.953,0.652-3.257-0.649-4.562L71.856,120.773z"/>
		</g>
	</g>
	<g>
		<g>
			<path fill="#D96038" d="M49.054,94.064l-6.515,3.906c-2.605,2.609-3.258,5.217-3.258,7.17c0.652,3.258,3.258,7.17,8.472,11.077
				c4.559,4.555,9.772,6.515,14.983,7.164l7.819-0.649l-0.652-7.164c-1.304-5.866-3.91-10.428-9.12-14.99
				C56.221,96.672,52.311,94.064,49.054,94.064z"/>
		</g>
	</g>
	<g>
		<g>
			<path d="M49.706,92.11c-3.257-0.655-6.515,1.305-9.121,4.562c-2.605,3.257-3.91,6.515-3.91,9.124
				c0.652,3.907,3.258,7.813,9.121,12.375c5.214,4.562,10.425,7.17,16.94,7.819l7.819-0.649l1.953-1.959v-8.469
				c-1.301-6.515-4.559-11.726-9.772-16.288C57.525,94.064,52.963,92.11,49.706,92.11z M44.495,99.93
				c1.954-1.959,3.258-3.257,4.559-3.257c1.956,0,5.866,1.953,10.425,6.515c5.863,4.556,7.819,10.421,7.819,16.937
				c-5.863,1.304-11.729-0.649-18.244-5.211c-4.559-5.21-7.164-8.468-7.164-10.428C41.89,103.188,43.19,101.883,44.495,99.93z"/>
		</g>
	</g>
	<g>
		<g>
			<path d="M82.281,161.174c-1.301-0.655-1.954-0.655-3.258,1.298c-0.652,1.304-0.652,2.608,1.304,3.257l22.151,11.077
				c1.304,0.655,2.605,0,3.257-1.304c0.652-1.953,0.652-2.609-0.652-3.258L82.281,161.174z"/>
		</g>
	</g>
	<g>
		<g>
			<path fill="#D96038" d="M53.615,141.629c-2.605,0.649-3.91,2.603-5.863,5.205c-1.304,2.608-1.304,5.217-0.652,7.17
				c0.652,3.257,4.562,6.515,10.425,9.117l24.104,0.655l-2.605-6.515c-1.953-5.21-6.515-9.772-11.726-12.375
				C60.783,142.278,56.221,140.974,53.615,141.629z"/>
		</g>
	</g>
	<g>
		<g>
			<path d="M68.599,142.278c-6.515-3.257-11.726-4.562-15.635-3.257c-2.605,0-5.211,2.608-7.167,6.515
				c-1.953,3.906-2.605,7.164-1.301,9.772c1.954,3.907,5.211,7.164,11.726,10.421c6.515,2.609,12.378,3.907,18.893,2.609
				l7.167-2.609l1.304-1.953C82.933,154.004,77.723,147.489,68.599,142.278z M54.268,144.231c1.953-1.305,6.515,0,11.726,3.257
				c6.515,3.257,10.425,7.819,12.378,14.334l-19.545-1.304c-6.515-3.258-9.772-6.515-9.772-8.468l1.304-3.907
				C51.662,145.536,52.963,144.231,54.268,144.231z"/>
		</g>
	</g>
	<g>
		<g>
			<path d="M91.401,197.007c-1.301,0-2.605,0.649-2.605,2.602c0,1.304,0,2.602,1.956,2.602l24.756,1.96l2.605-2.609
				c0-1.298-0.652-1.953-1.954-1.953L91.401,197.007z"/>
		</g>
	</g>
	<g>
		<g>
			<path fill="#D96038" d="M57.525,188.533c-1.304,1.304-3.257,3.257-3.257,7.164c0,3.913,0,5.866,1.953,7.17
				c1.304,2.602,5.863,4.562,13.03,4.562c9.772,1.298,16.94-1.304,22.15-7.819l-4.559-5.211c-4.562-4.562-9.772-6.515-15.635-7.164
				L57.525,188.533z"/>
		</g>
	</g>
	<g>
		<g>
			<path d="M93.358,200.914v-2.608c-3.91-8.468-11.077-13.03-21.501-13.679c-7.816-0.649-12.378,0-15.636,1.953
				c-2.605,1.304-3.91,4.562-4.559,8.468c-0.652,4.562,0.649,7.82,2.605,9.773c1.953,3.257,7.167,4.562,14.331,5.866
				c7.167,0,13.03-1.305,18.244-4.562L93.358,200.914z M70.555,189.837c8.468,1.304,13.682,3.913,17.589,9.772
				c-4.559,4.562-11.074,6.515-18.893,5.211c-8.468-0.649-13.03-3.258-13.03-7.164l0.652-1.304c0.652-3.258,0.652-4.562,2.605-5.211
				L70.555,189.837z"/>
		</g>
	</g>
	<g>
		<g>
			<path d="M116.161,236.747c-1.957-0.649-3.257,0-3.257,1.953c0,1.305,0.652,2.603,1.953,3.258l24.759,3.257
				c1.953,0.655,2.605,0,2.605-1.953c0.652-1.304,0-2.608-1.304-3.257L116.161,236.747z"/>
		</g>
	</g>
	<g>
		<g>
			<path fill="#D96038" d="M82.281,225.67c-1.301,1.304-2.605,3.257-3.258,6.515c-0.652,3.257,0,5.859,1.304,7.819
				c1.954,1.953,5.863,3.906,13.03,5.21l16.288-1.953l5.863-4.562l-3.91-5.21c-3.91-4.562-8.469-7.819-14.983-8.475L82.281,225.67z"
				/>
		</g>
	</g>
	<g>
		<g>
			<path d="M81.629,223.716c-2.605,1.298-4.559,3.907-5.211,8.469c-0.652,3.913,0,7.819,1.954,9.772
				c1.956,2.602,7.167,4.562,13.682,5.86c7.167,1.311,13.03,0.655,18.893-2.603l6.515-4.562l0.652-2.609
				c-3.258-8.462-10.425-13.679-20.847-15.632L81.629,223.716z M81.629,232.84c0.652-2.609,1.304-3.913,2.608-5.217h12.378
				c7.167,1.304,13.03,4.562,16.288,11.077c-5.214,3.913-11.729,5.211-19.545,4.562c-7.819-1.959-11.729-4.562-11.729-7.819V232.84z
				"/>
		</g>
	</g>
	<g>
		<g>
			<path fill="#858585" d="M182.613,219.155l-8.468,7.17c-5.863,6.515-7.819,13.679-8.468,20.194c0,7.813,2.605,14.328,8.468,19.545
				l7.819,6.516l8.468-6.516c5.211-5.217,7.819-11.077,7.819-18.896c0-7.164-2.608-14.328-7.819-20.843L182.613,219.155z"/>
		</g>
	</g>
	<g>
		<g>
			<path d="M183.917,217.201c-1.304-1.304-2.605-1.304-3.257,0l-9.121,7.813c-5.214,7.17-7.819,13.685-8.472,21.505
				c0,8.468,3.258,14.983,8.472,21.498c2.605,3.258,5.863,5.211,9.121,6.516c0.652,1.304,1.953,1.304,2.605,0l9.121-6.516
				c5.214-6.515,8.471-13.03,8.471-20.849c0-7.813-3.257-14.983-8.471-21.499L183.917,217.201z M195.643,247.168
				c0,9.772-4.559,17.592-13.679,22.154c-9.124-4.562-13.683-12.381-13.683-22.154v-0.649c0-9.773,5.211-17.592,14.332-24.107
				c8.471,7.17,13.03,14.983,13.03,24.107V247.168z"/>
		</g>
	</g>
	<g>
		<g>
			<path d="M184.569,272.58c0-1.305-0.652-2.609-3.258-2.609c-1.304,0-1.957,1.305-1.957,2.609l0.652,13.029
				c0,1.953,0.652,2.609,2.605,2.609c1.304,0,1.957-0.656,1.957-2.609V272.58z"/>
		</g>
	</g>
	<g>
		<g>
			<path fill="#858585" d="M92.054,279.095l7.819,7.813c6.515,4.568,14.331,7.17,21.499,6.515
				c7.167-1.298,13.03-4.556,18.244-10.422l5.211-8.468l-6.515-7.171c-5.863-4.555-12.378-7.164-20.197-6.515
				c-7.167,0.656-13.683,3.913-19.545,9.773C95.311,273.229,93.358,276.486,92.054,279.095z"/>
		</g>
	</g>
	<g>
		<g>
			<path d="M118.114,258.245c-7.816,0.655-14.984,4.562-21.499,10.429c-3.258,2.602-5.214,5.859-7.167,9.117l0.652,3.257
				c0.652,1.953,3.91,4.562,8.468,7.819c7.819,5.211,14.986,7.813,22.803,6.516c7.819-0.649,14.334-3.906,20.197-9.773l6.515-9.772
				l-0.652-2.608l-7.816-8.468C133.101,259.549,125.934,257.59,118.114,258.245z M121.372,290.82
				c-9.772,0.656-18.893-3.258-26.061-11.726c6.515-9.772,14.334-14.99,22.803-15.639c9.772-0.649,17.592,2.608,24.107,11.077
				l-5.863,8.468C132.448,287.563,127.234,290.165,121.372,290.82z"/>
		</g>
	</g>
	<g>
		<g>
			<path d="M168.281,271.931c0-1.96-0.652-2.608-3.257-2.608l-20.197,3.258c-1.304,0-2.605,0.648-2.605,2.607
				c0.652,1.299,1.953,2.604,3.257,1.947l20.847-2.602C167.629,274.533,168.281,273.229,168.281,271.931z"/>
		</g>
	</g>
	<g>
		<g>
			<path fill="#858585" d="M225.613,235.442l-9.121,6.515c-6.515,6.515-9.772,13.03-10.425,20.201
				c-0.652,7.164,0.652,13.679,5.863,20.193l7.819,6.516l8.469-4.562c5.865-5.211,9.123-11.726,10.424-18.89
				c0.652-7.17-1.301-14.341-5.862-21.505L225.613,235.442z"/>
		</g>
	</g>
	<g>
		<g>
			<path d="M226.917,233.489h-3.258l-9.772,7.164c-5.862,6.515-9.772,13.03-10.425,20.85c-0.651,7.819,1.305,14.983,6.516,22.147
				l8.468,7.826h1.957c3.257-0.656,6.515-3.258,9.772-5.867c5.863-5.865,9.772-12.381,11.073-19.545
				c0.652-7.819-1.301-15.639-5.862-22.803L226.917,233.489z M236.038,262.807v2.608c-0.652,5.86-3.258,10.421-7.168,14.977
				l-9.12,5.866c-7.167-5.211-11.077-12.382-11.077-21.499v-2.602c1.305-9.124,6.516-16.288,16.288-23.458
				C232.78,246.52,236.038,254.333,236.038,262.807z"/>
		</g>
	</g>
	<g>
		<g>
			<path d="M219.75,286.259c-1.953,0-3.258,1.304-3.258,2.608l-0.652,20.844c0,1.311,0.652,2.608,2.605,2.608
				c1.305,0.648,2.609-0.649,2.609-1.953l1.301-20.851C222.355,287.563,221.703,286.908,219.75,286.259z"/>
		</g>
	</g>
	<g>
		<g>
			<path fill="#858585" d="M135.706,316.881l9.121,5.859c7.167,3.913,14.983,4.568,22.15,3.258
				c7.167-1.946,12.378-5.859,16.94-13.03l3.257-9.117l-7.167-6.515c-7.167-3.913-13.682-5.211-21.499-3.258
				c-6.515,1.305-13.03,5.859-17.592,13.03C138.312,310.366,136.358,313.623,135.706,316.881z"/>
		</g>
	</g>
	<g>
		<g>
			<path d="M133.101,316.226l0.649,1.96l10.425,7.164c7.819,3.906,15.636,4.562,23.455,2.608c7.167-1.96,13.03-6.516,18.241-13.68
				c2.608-3.912,4.562-7.825,4.562-10.428l-0.651-1.953l-9.121-7.164c-7.167-3.913-14.983-5.218-22.803-3.257
				c-7.167,1.946-13.682,6.515-18.893,13.679C136.358,308.412,134.402,312.319,133.101,316.226z M159.81,296.681
				c9.772-2.603,17.592,0.655,24.759,7.825c-3.258,9.772-9.121,16.288-18.244,18.89c-9.121,1.954-18.241-0.655-28.014-7.17
				C143.522,305.155,150.689,298.64,159.81,296.681z"/>
		</g>
	</g>
	<g>
		<g>
			<path d="M202.811,299.289c0-1.953-1.954-1.953-3.258-1.953l-12.379,3.912c-1.953,0-2.604,1.947-1.953,3.258
				c0.649,1.947,1.953,1.947,3.257,1.947l12.378-3.906C202.811,301.248,203.462,300.593,202.811,299.289z"/>
		</g>
	</g>
	<g>
		<g>
			<path fill="#858585" d="M226.265,338.38l-7.167-7.164c-6.515-4.563-13.03-6.516-20.197-4.563
				c-7.816,0.655-13.679,4.563-18.893,11.077c-3.257,2.608-5.211,5.866-6.515,9.124l9.121,6.515
				c7.167,4.556,14.334,5.859,20.849,5.204c7.168-1.298,13.03-5.204,18.241-11.07L226.265,338.38z"/>
		</g>
	</g>
	<g>
		<g>
			<path d="M228.87,336.426c-2.605-2.602-5.211-5.21-8.468-7.17c-7.167-5.204-14.335-6.516-22.151-5.86
				c-7.819,1.305-14.334,5.86-20.197,12.375c-3.258,3.258-5.214,6.516-7.167,9.772c0,0.656,0,1.96,0.652,3.258l9.772,7.171
				c7.816,4.562,15.636,6.515,22.803,4.562c7.816-1.305,14.331-4.562,18.894-11.077l5.862-10.428V336.426z M223.659,339.028
				c-3.909,9.772-10.424,14.99-20.197,16.943c-9.772,1.304-18.893-1.953-26.712-9.772c5.863-9.773,13.03-15.633,22.803-16.943
				C208.673,327.309,216.492,330.566,223.659,339.028z"/>
		</g>
	</g>
	<g>
		<g>
			<path d="M247.764,333.824c-0.649-1.311-1.953-2.608-3.258-1.96l-18.241,3.906c-1.953,0.655-2.605,1.311-2.605,3.258
				c0.652,1.311,1.954,1.96,3.258,1.311l18.894-3.913C247.114,336.426,247.764,335.771,247.764,333.824z"/>
		</g>
	</g>
	<g>
		<g>
			<path fill="#858585" d="M215.84,380.078l7.819,7.813c6.516,4.568,13.683,7.17,21.499,7.17c7.167,0,13.03-3.257,18.893-9.117
				l5.215-7.825l-6.516-8.462c-5.214-4.568-11.729-7.171-19.545-7.171c-7.167,0-13.683,3.258-20.197,9.117L215.84,380.078z"/>
		</g>
	</g>
	<g>
		<g>
			<path d="M213.235,378.774l0.651,2.602c0.652,1.96,3.258,4.568,9.121,8.476c6.515,5.21,13.682,8.468,22.15,7.813
				c7.167,0,14.334-3.258,20.197-9.117l6.516-9.772v-2.603l-7.168-8.475c-6.515-5.211-13.682-8.469-21.498-7.813
				c-7.819,0-14.986,3.258-21.502,9.118L213.235,378.774z M243.205,365.089c9.772,0,17.589,3.913,23.455,13.03
				c-5.214,9.123-12.382,13.686-22.154,14.341c-8.468,0-17.589-3.913-25.408-13.03C226.265,370.306,234.733,365.744,243.205,365.089
				z"/>
		</g>
	</g>
	<g>
		<g>
			<path d="M288.158,372.914l-18.893,2.603c-1.305,0-1.957,0.655-1.957,2.603l2.608,1.959l18.894-1.304
				c1.953,0,2.605-1.305,2.605-3.258L288.158,372.914z"/>
		</g>
	</g>
	<g>
		<g>
			<path fill="#858585" d="M247.114,422.427l8.469,7.813c6.515,4.568,13.683,7.171,20.85,6.516c7.816,0,13.679-3.258,18.893-9.117
				l5.863-9.118l-7.167-7.17c-5.863-5.211-12.378-7.171-19.546-6.515c-7.815,0-14.331,3.257-20.197,9.772
				C251.021,417.209,249.067,419.818,247.114,422.427z"/>
		</g>
	</g>
	<g>
		<g>
			<path d="M245.158,424.38l9.12,7.819c7.168,5.211,14.335,7.813,22.803,7.164c7.819-0.649,14.335-3.906,20.198-10.422l5.862-9.123
				v-2.609l-7.816-8.462c-6.515-4.568-13.682-7.17-21.501-7.17c-7.816,0.655-14.983,3.913-21.499,10.428
				c-3.258,2.603-5.862,5.859-7.167,9.117V424.38z M259.492,430.239c-3.909-2.602-6.515-5.204-8.471-7.813
				c5.865-9.772,14.334-14.335,23.454-14.99c10.425-1.298,17.593,3.258,23.455,11.083c-4.562,9.773-12.378,14.978-21.498,15.633
				C270.566,434.152,265.355,433.497,259.492,430.239z"/>
		</g>
	</g>
	<g>
		<g>
			<path d="M322.038,415.911c0-1.304-1.305-1.959-2.608-1.959l-18.894,1.959c-1.953,0-2.605,1.298-2.605,3.258l3.258,1.953
				l18.894-2.603C321.386,418.52,322.687,417.864,322.038,415.911z"/>
		</g>
	</g>
	<g>
		<g>
			<path fill="#858585" d="M356.566,382.031c-3.257,0.656-6.515,2.603-9.772,5.211c-6.515,5.218-10.425,11.077-12.378,18.248
				c-1.305,7.164-0.652,13.679,3.258,20.843l6.515,7.819l9.772-3.913c6.516-4.556,10.425-10.421,12.378-17.585
				c1.305-7.164,0-14.335-3.257-21.505L356.566,382.031z"/>
		</g>
	</g>
	<g>
		<g>
			<path d="M358.52,380.078c-0.648-1.304-1.953-1.304-3.257-0.648c-1.953,0-5.211,1.946-9.772,5.859
				c-7.164,5.86-11.727,12.375-13.03,19.546c-1.953,7.819-1.302,15.632,3.257,22.803l7.168,8.468l2.605,0.649
				c3.257-1.298,6.515-2.603,9.772-5.205c7.167-3.912,11.729-10.428,13.03-18.247c1.956-7.813,1.304-14.983-3.258-23.451
				L358.52,380.078z M364.386,406.139l-0.651,5.866c-1.957,9.772-8.472,16.288-18.244,18.89c-5.863-5.859-9.121-12.375-9.121-19.545
				l0.652-5.211c2.605-9.772,8.469-16.287,18.893-20.85C361.777,391.805,364.386,398.975,364.386,406.139z"/>
		</g>
	</g>
	<g>
		<g>
			<path d="M345.49,431.55c-1.954-0.655-3.258,0-3.258,1.947l-3.258,18.247c-0.648,1.953,0,3.258,1.956,3.258l2.605-1.96
				l3.258-18.89C347.446,432.848,346.794,431.55,345.49,431.55z"/>
		</g>
	</g>
	<g>
		<g>
			<path fill="#858585" d="M288.811,460.213c4.559,7.17,9.12,12.375,16.288,14.334c6.515,3.258,13.682,2.609,21.498,0l8.472-5.217
				l-2.608-9.772c-3.258-6.516-8.469-11.72-14.983-14.978c-7.168-2.608-14.335-2.608-22.803,0l-9.773,5.205L288.811,460.213z"/>
		</g>
	</g>
	<g>
		<g>
			<path d="M282.295,450.44l4.56,11.076c4.562,7.813,10.425,13.03,17.592,15.64c7.167,3.257,14.983,2.602,22.803,0
				c3.258-1.312,6.515-3.913,9.772-5.866l0.652-1.96c-0.652-3.906-1.305-7.813-3.258-11.07c-3.909-7.819-8.472-13.03-16.288-16.288
				c-7.167-2.608-14.986-2.608-23.454,0c-5.863,1.953-9.773,3.906-11.077,5.211C282.295,447.838,282.295,449.136,282.295,450.44z
				 M316.172,447.183c5.214,2.603,9.772,5.859,13.03,11.077c1.305,3.257,2.608,6.515,3.258,9.772
				c-8.469,6.515-17.589,8.468-26.061,4.556c-9.12-3.258-14.983-11.071-18.241-22.147
				C297.931,445.229,307.703,443.925,316.172,447.183z"/>
		</g>
	</g>
	<g>
		<g>
			<path d="M335.717,466.728c-1.953,0-2.605,0-3.257,1.953c0,1.305,0,2.609,1.304,3.258l18.241,5.866
				c1.305,1.298,3.258,0,3.258-1.305c0.651-1.953,0-2.602-1.953-3.257L335.717,466.728z"/>
		</g>
	</g>
	<g>
		<g>
			<path fill="#858585" d="M329.854,342.941c-3.258,1.304-6.516,3.258-9.772,5.859c-6.516,4.568-11.074,11.083-12.379,17.599
				c-1.953,7.164-0.651,14.328,3.258,21.492l5.863,7.825l9.772-3.912c6.515-4.563,10.425-9.773,12.378-16.943
				c1.305-7.164,0.652-14.978-3.258-22.147L329.854,342.941z"/>
		</g>
	</g>
	<g>
		<g>
			<path d="M340.931,375.517c2.605-7.819,1.302-15.633-2.604-23.458l-7.168-10.422l-1.956-0.648
				c-3.906,1.298-7.816,3.257-11.074,5.866c-7.167,5.859-11.729,12.374-13.682,19.545c-1.305,7.164-0.652,14.977,3.257,22.147
				l7.168,9.117l2.605,0.655c2.605,0,5.862-1.953,10.425-5.211C334.416,388.547,339.627,382.688,340.931,375.517z M337.021,368.347
				l-0.652,5.217c-2.605,9.772-9.12,16.288-18.893,18.896c-5.863-6.516-8.469-13.03-8.469-19.546l0.649-5.866
				c1.956-8.475,8.471-15.639,19.545-20.849C334.416,353.369,337.021,360.533,337.021,368.347z"/>
		</g>
	</g>
	<g>
		<g>
			<path d="M317.477,393.108c-1.305-0.648-3.258,0-3.258,1.953l-2.605,13.03c0,1.953,0.652,3.258,2.605,3.258
				c1.305,0,2.605-0.655,2.605-2.603l2.605-13.03C320.082,394.406,319.43,393.108,317.477,393.108z"/>
		</g>
	</g>
	<g>
		<g>
			<path fill="#858585" d="M330.507,300.593l-10.425-1.953c-8.469-0.648-15.636,1.953-21.499,5.866
				c-5.863,3.906-9.772,10.422-10.425,18.234v10.429l9.772,2.602c7.168,0.655,14.335-1.298,20.197-5.859
				c5.863-3.913,9.773-9.772,11.727-18.241L330.507,300.593z"/>
		</g>
	</g>
	<g>
		<g>
			<path d="M333.764,300.593l-1.953-2.602l-11.729-2.608c-9.121,0-16.288,1.953-22.803,6.515
				c-5.863,5.211-9.773,11.726-11.727,19.545l-0.652,11.727l1.954,1.953l11.076,2.608c8.469,1.298,15.636-0.649,22.151-5.217
				c5.862-4.556,10.425-11.071,12.378-19.546L333.764,300.593z M300.536,306.453c7.167-5.86,16.94-6.516,27.365-3.906
				c0,11.076-3.91,20.193-11.077,25.411c-8.469,5.866-16.94,7.164-26.713,2.608v-2.608
				C290.111,318.834,293.369,311.021,300.536,306.453z"/>
		</g>
	</g>
	<g>
		<g>
			<path d="M289.463,334.473c1.301-1.304,1.301-1.959,0.648-3.906h-3.906l-10.425,8.462c-1.305,1.311-1.305,2.608-0.652,3.913h3.91
				L289.463,334.473z"/>
		</g>
	</g>
	<g>
		<g>
			<path fill="#858585" d="M348.747,260.198c-1.953-1.953-5.211-3.257-9.12-5.21l-22.15-1.305
				c-7.168,2.609-13.03,6.515-16.288,13.679c-1.953,3.258-3.258,6.515-3.258,9.124l8.469,5.865
				c6.515,3.907,13.683,4.557,20.85,1.954c6.515-1.954,13.03-6.515,16.939-13.686L348.747,260.198z"/>
		</g>
	</g>
	<g>
		<g>
			<path d="M305.099,285.609l22.803,1.299c11.726-3.907,19.545-12.375,23.454-25.405l-0.651-3.258
				c-1.957-1.953-5.214-3.257-10.425-5.86l-23.455-1.311c-7.816,1.959-13.03,7.17-17.589,14.99
				c-1.956,3.258-3.91,6.516-4.562,10.422l1.304,2.608C297.279,280.393,299.884,282.352,305.099,285.609z M304.446,266.064
				c3.257-4.562,8.468-7.819,13.682-9.772c9.121-3.258,18.241-1.304,28.014,5.211c-3.909,11.077-10.425,17.592-19.545,20.849
				c-9.12,2.609-16.939,0.649-26.061-6.515C301.188,272.58,302.493,269.322,304.446,266.064z"/>
		</g>
	</g>
	<g>
		<g>
			<path d="M300.536,275.837c-1.301-1.304-2.605-1.96-3.257-1.304l-13.03,4.562c-1.954,0-1.954,1.953-1.954,3.257
				c1.302,1.954,2.605,1.954,3.91,1.954l12.378-5.211C300.536,279.095,300.536,277.791,300.536,275.837z"/>
		</g>
	</g>
	<g>
		<g>
			<path fill="#858585" d="M229.522,279.095l-0.652,11.726c0.652,7.819,3.258,14.983,7.819,20.201
				c5.211,5.204,11.727,8.462,19.546,8.462l9.772-1.298l1.953-10.422c0-7.171-2.605-13.686-7.167-19.545
				c-5.211-5.218-11.727-8.475-20.847-9.124H229.522z"/>
		</g>
	</g>
	<g>
		<g>
			<path d="M268.613,319.483l1.953-11.72c0-7.826-2.605-15.639-8.469-20.855c-5.211-5.86-12.378-9.117-20.85-10.422H228.87
				c-0.651,0.648-1.953,1.305-2.605,2.608v11.726c0,9.117,3.258,16.288,9.121,22.147c5.214,5.218,12.378,8.475,20.197,9.124
				l11.726-1.298L268.613,319.483z M264.703,316.226c-11.073,1.96-19.545,0-26.061-7.164c-5.21-5.211-7.167-12.381-7.167-21.499
				v-5.859c11.077-0.655,20.85,1.947,27.365,9.117c3.909,3.913,6.515,9.772,6.515,16.943L264.703,316.226z"/>
		</g>
	</g>
	<g>
		<g>
			<path d="M264.703,316.881c-1.953,0.655-1.953,2.603,0,3.258l9.772,9.117c0.652,1.311,1.957,1.311,3.258,0
				c1.305-1.298,1.305-2.603,0-3.258l-9.12-9.117C266.66,315.576,265.355,315.576,264.703,316.881z"/>
		</g>
	</g>
	<g>
		<g>
			<path fill="#858585" d="M277.081,273.229l4.563-8.468c1.953-7.819,1.953-14.983-1.953-21.499
				c-3.91-6.515-9.124-11.077-16.94-14.334l-10.425-3.257l-3.258,11.077c-2.604,7.813-1.304,14.983,1.954,21.499
				c3.257,6.515,8.471,11.077,16.287,13.686L277.081,273.229z"/>
		</g>
	</g>
	<g>
		<g>
			<path d="M284.249,264.76c2.605-8.468,1.304-15.632-2.605-22.803c-3.258-6.515-9.121-11.726-16.94-14.983l-12.378-3.258
				c-0.652-0.649-1.953,0-2.605,0.649c-1.304,1.96-2.605,5.866-3.909,11.732c-1.305,9.117-0.652,16.937,3.257,23.452
				c3.258,6.515,9.121,11.726,16.94,14.984l11.073,1.304l1.957-0.649L284.249,264.76z M280.339,255.643
				c0,5.204-1.953,10.421-4.559,15.632c-10.425-1.305-18.244-5.86-22.803-14.334c-1.305-3.258-2.605-7.164-2.605-12.381
				c0-4.555,1.301-9.772,3.258-15.632l11.726,3.913c5.211,2.602,9.772,7.164,12.378,11.719
				C279.038,248.473,280.339,251.73,280.339,255.643z"/>
		</g>
	</g>
	<g>
		<g>
			<path d="M279.038,272.58c-0.652-1.96-1.305-2.609-3.258-1.305c-1.305,0.655-1.956,1.953-0.652,3.258l6.516,11.726
				c0.651,1.96,1.953,1.96,3.257,1.304c1.954-1.304,1.954-1.953,0.652-3.912L279.038,272.58z"/>
		</g>
	</g>
	<g>
		<g>
			<path d="M298.583,80.385c-0.652-1.96-1.956-2.609-3.909-1.304c-1.305,0-1.305,1.304-0.652,3.257l7.819,22.803
				c6.515,20.85,11.073,42.348,13.03,67.104c2.605,17.592,1.301,32.576-3.258,47.565c-2.605,9.117-7.819,20.194-16.288,35.833
				c-8.471,15.632-14.986,29.966-18.244,41.693c-5.862,18.89-5.21,38.435,1.305,58.636c3.258,10.428,7.819,19.545,13.03,26.716
				c0.652,1.946,1.953,1.946,3.258,0.648c1.304-1.305,1.953-1.96,0.651-3.906c-3.909-6.516-7.819-14.341-11.076-24.113
				c-6.516-19.546-7.168-39.091-2.605-57.325c3.257-9.772,9.12-22.804,18.24-39.746c8.472-16.288,14.335-28.014,16.94-37.786
				c3.909-14.334,5.862-30.622,3.909-48.863c-3.257-24.762-7.167-47.565-13.03-67.759L298.583,80.385z"/>
		</g>
	</g>
	<g>
		<g>
			<path fill="#D96038" d="M292.068,83.642c2.605,1.954,4.559,3.258,6.515,3.258l3.258-6.515c2.605-5.217,2.605-11.077,0.652-16.288
				c-1.957-6.515-4.563-11.077-7.168-12.381l-7.167-0.649c-3.258,1.298-5.863,3.257-6.515,5.21
				c-1.305,2.603-0.652,7.171,0.651,13.03C284.249,75.823,287.506,80.385,292.068,83.642z"/>
		</g>
	</g>
	<g>
		<g>
			<path d="M287.506,48.458c-4.559,1.305-7.167,3.258-8.468,5.866c-1.305,3.258-1.305,9.124,1.301,16.288
				c1.305,6.515,5.214,11.726,10.425,14.984l7.167,3.913l2.605-0.655c6.516-7.17,7.167-16.288,3.91-26.061
				c-1.953-6.515-4.563-11.726-7.167-13.685L287.506,48.458z M294.674,54.324c1.953,0.649,3.257,4.556,5.21,9.773l1.305,7.813
				c0,3.913-1.305,8.475-3.258,11.732c-6.515-1.959-10.425-6.515-13.03-14.334c-0.651-3.913-1.304-6.515-1.304-9.117l0.652-3.913
				c0.651-0.655,1.956-1.953,3.909-1.953C291.416,53.02,293.369,53.02,294.674,54.324z"/>
		</g>
	</g>
	<g>
		<g>
			<path d="M319.43,97.97c-1.953-1.298-2.605-0.649-3.258,1.959l-8.469,22.803c-0.651,1.298-0.651,2.608,0.652,3.257
				c1.953,0,3.258,0,3.91-1.304l8.468-23.458L319.43,97.97z"/>
		</g>
	</g>
	<g>
		<g>
			<path fill="#D96038" d="M338.326,70.612l-5.866-4.562l-7.816-0.655c-2.605,1.311-5.214,5.217-7.819,11.732
				c-2.605,5.211-2.605,11.071-1.301,16.288l2.604,6.515c8.469-1.304,14.332-6.515,18.241-15.639
				C338.326,78.425,339.627,73.87,338.326,70.612z"/>
		</g>
	</g>
	<g>
		<g>
			<path d="M323.339,62.792c-3.257,1.954-5.862,6.515-9.12,13.03c-2.605,6.515-3.258,12.375-1.305,18.241l3.91,7.819
				c0,1.304,0.652,1.304,1.956,1.304c9.121-1.959,15.636-7.819,19.546-17.592c2.604-6.515,3.906-11.726,2.604-14.984
				c-0.651-3.257-3.909-5.866-7.167-7.164L323.339,62.792z M325.944,67.354l5.214,0.649c3.258,1.304,5.211,3.258,5.211,5.866
				l-2.605,9.772c-3.257,7.164-7.819,11.726-13.682,13.679c-1.954-3.906-2.605-7.164-2.605-10.421c0-2.609,0-5.866,1.953-9.124
				C321.386,72.565,323.339,69.308,325.944,67.354z"/>
		</g>
	</g>
	<g>
		<g>
			<path d="M293.369,111.656l-3.906,0.655c-1.305,1.298-1.305,2.602,0.648,3.907l19.546,14.983h1.304l1.953-0.655
				c1.305-1.298,1.305-2.603,0-3.907L293.369,111.656z"/>
		</g>
	</g>
	<g>
		<g>
			<path fill="#D96038" d="M291.416,113.609l-0.652-7.164c-1.953-5.217-4.559-9.772-9.12-14.334
				c-5.863-3.913-9.772-5.859-13.03-5.21c-1.953,0-3.91,0.649-6.516,3.906c-1.953,2.609-2.605,4.562-2.605,7.164
				c0.652,2.609,3.258,6.515,9.121,10.428c4.562,4.562,9.772,6.515,15.636,6.515L291.416,113.609z"/>
		</g>
	</g>
	<g>
		<g>
			<path d="M294.021,114.258l-0.652-8.462c-1.953-5.866-5.211-11.083-10.422-15.639c-5.214-3.906-10.425-6.515-14.334-6.515
				c-2.605,0-5.211,1.954-7.819,5.211l0,0c-3.258,3.257-4.559,6.515-3.258,9.772c0.652,3.258,3.91,7.819,9.124,11.726
				c8.468,7.164,16.937,9.124,25.408,5.866L294.021,114.258z M269.266,88.853c2.605,0,5.862,1.953,10.425,5.86
				c5.862,5.217,9.12,10.428,9.12,16.943c-6.516,1.304-13.03,0-18.894-5.211c-4.562-3.906-7.819-7.164-7.819-9.772l2.605-4.562
				C266.008,90.157,267.961,88.853,269.266,88.853z"/>
		</g>
	</g>
	<g>
		<g>
			<path d="M296.627,152.7c-1.953-0.649-2.605-0.649-3.907,1.304c-1.304,1.304-0.651,1.953,1.302,3.257l22.15,11.077
				c1.305,1.298,1.956,0.649,3.258-1.304c0.652-1.305,0.652-1.954-1.302-3.258L296.627,152.7z"/>
		</g>
	</g>
	<g>
		<g>
			<path fill="#D96038" d="M295.325,155.308l-1.956-7.164c-2.605-5.217-6.515-9.124-11.726-12.381
				c-6.516-3.257-10.425-4.562-13.683-3.257c-2.605,0-3.91,1.953-5.863,5.211c-1.304,2.602-1.304,5.21-0.651,7.17
				c0.651,2.602,3.909,5.859,10.425,9.117L295.325,155.308z"/>
		</g>
	</g>
	<g>
		<g>
			<path d="M297.931,154.659l-2.605-7.826c-2.605-5.86-7.167-10.422-13.03-13.679c-5.862-3.257-11.076-3.907-14.334-3.907
				c-3.258,0.649-5.863,3.258-7.816,6.515c-1.956,3.907-1.956,7.164-1.304,10.422c1.304,3.257,5.21,6.515,11.726,9.772l26.061,1.304
				L297.931,154.659z M268.613,134.458c2.605,0,6.515,0.655,11.726,3.258c7.167,3.913,11.077,9.117,11.729,15.632
				c-5.214,2.608-11.729,1.959-19.546-1.298c-5.862-3.258-9.12-6.515-9.12-9.773l1.301-3.257
				C266.008,136.412,267.309,134.458,268.613,134.458z"/>
		</g>
	</g>
	<g>
		<g>
			<path d="M333.111,137.716c-1.953-1.305-3.257-1.305-3.909,0l-14.983,19.545c-0.652,1.304-0.652,3.258,0,4.562l3.909-1.304
				l14.983-19.545C333.764,139.669,333.764,139.021,333.111,137.716z"/>
		</g>
	</g>
	<g>
		<g>
			<path fill="#D96038" d="M358.52,116.867c0-1.954-1.953-3.907-4.559-6.515c-2.605-1.953-5.214-3.258-7.167-2.608
				c-3.258,0.655-6.515,3.913-10.425,8.475c-3.909,5.21-5.862,10.421-5.862,16.288c0,3.257,0,5.211,0.651,7.164l7.168-0.649
				c5.21-1.304,10.421-4.562,13.679-9.773C356.566,124.031,358.52,119.475,358.52,116.867z"/>
		</g>
	</g>
	<g>
		<g>
			<path d="M328.553,140.974l1.954,1.304l9.12-1.304c5.863-1.304,10.425-5.211,14.986-9.772c3.906-5.86,6.516-11.077,6.516-14.334
				c0-3.258-1.957-5.211-5.866-8.468c-3.258-2.603-6.516-3.258-9.121-3.258c-3.257,1.304-7.815,4.562-12.378,9.772
				c-3.909,5.211-5.862,11.077-6.515,17.592C327.249,135.763,327.901,138.372,328.553,140.974z M333.111,137.061v-3.907
				c0-5.211,1.305-10.421,5.215-14.983c3.906-4.562,6.515-7.17,8.468-7.819s3.258,0,5.863,1.959l2.605,4.556
				c0,2.608-1.302,6.515-5.211,11.077C346.142,133.154,340.279,136.412,333.111,137.061z"/>
		</g>
	</g>
	<g>
		<g>
			<path d="M337.021,177.462l-3.258,0.649l-16.939,16.937c-1.953,1.305-1.953,2.609,0,4.562l3.258-0.655l16.939-17.585
				C338.326,180.064,338.326,178.111,337.021,177.462z"/>
		</g>
	</g>
	<g>
		<g>
			<path fill="#D96038" d="M365.035,159.864c0-2.603-0.649-4.556-3.258-7.164c-2.605-1.954-5.211-3.258-6.515-3.258
				c-3.258,0.649-7.164,2.609-11.727,7.819c-4.562,4.562-7.167,9.773-7.819,14.983v7.164h7.168
				c5.862-0.649,10.425-3.257,14.986-7.813C363.082,167.034,365.035,162.472,365.035,159.864z"/>
		</g>
	</g>
	<g>
		<g>
			<path d="M367.644,160.519c0.649-3.258-1.305-6.515-4.562-9.118c-2.605-2.608-5.863-4.568-8.469-3.913
				c-3.909,0-8.472,2.602-13.683,7.819c-4.562,5.211-7.167,9.772-7.819,16.288v8.468l1.305,1.954h9.12
				c5.863-0.649,11.077-3.907,16.288-8.468C365.035,168.338,367.644,163.776,367.644,160.519z M344.841,158.565
				c3.906-3.906,7.164-5.866,10.422-6.515c1.304,0,2.608,0.649,4.562,3.257l2.605,3.907c0,2.608-2.605,5.866-6.516,11.077
				c-5.862,5.211-11.726,7.819-18.24,6.515v-1.304C337.674,168.987,340.279,163.776,344.841,158.565z"/>
		</g>
	</g>
	<g>
		<g>
			<path d="M331.811,220.459c-0.652-1.304-1.956-1.959-3.909-1.304l-20.198,13.03c-1.953,1.304-2.604,1.953-1.304,3.913
				c1.304,1.298,1.956,1.298,3.909,0.649l20.85-13.03C333.111,222.412,333.111,221.108,331.811,220.459z"/>
		</g>
	</g>
	<g>
		<g>
			<path fill="#D96038" d="M363.082,210.687c1.304-2.609,0-4.562-1.305-7.819c-1.953-3.258-3.258-5.211-5.863-5.211
				c-2.604-0.649-7.167,0.649-13.029,3.906c-5.863,3.258-9.121,7.819-11.727,13.03l-1.304,7.164l7.167,1.959
				c5.863,0,11.077-1.304,16.288-3.906C359.172,215.897,362.43,213.295,363.082,210.687z"/>
		</g>
	</g>
	<g>
		<g>
			<path d="M364.386,201.563c-2.608-3.906-5.214-5.866-7.819-6.515c-3.909-0.649-9.12,1.305-15.636,4.562
				c-5.214,3.913-9.772,8.468-11.729,14.334c-1.301,2.608-1.953,5.211-1.953,7.813l1.304,1.959c1.302,1.298,3.907,1.954,7.816,2.609
				c6.516,0.649,12.378-0.655,18.244-3.913c6.516-3.913,10.422-7.819,11.074-11.077C366.339,208.078,366.339,204.82,364.386,201.563
				z M359.824,204.171l1.305,3.906c0,2.609-2.609,5.866-9.124,9.124c-6.515,3.907-13.03,5.211-19.545,3.258
				c1.304-7.164,5.214-12.381,11.729-16.288c5.211-3.258,9.121-4.562,11.074-3.907L359.824,204.171z"/>
		</g>
	</g>
	<g>
		<g>
			<path d="M298.583,206.125h-3.909c-0.652,0-1.305,1.304,0,3.257l14.983,19.545h3.909c0.652-1.304,0.652-1.953,0-3.257
				L298.583,206.125z"/>
		</g>
	</g>
	<g>
		<g>
			<path fill="#D96038" d="M296.627,207.429l1.304-6.515c-0.651-5.866-2.605-11.077-6.515-16.288
				c-3.91-5.217-7.819-7.819-11.077-8.475c-1.953-0.649-4.559,0.655-7.164,2.608c-2.608,2.609-3.909,4.562-3.909,6.515
				c-0.652,2.608,1.953,7.164,5.862,12.381C281.644,204.82,288.158,208.727,296.627,207.429z"/>
		</g>
	</g>
	<g>
		<g>
			<path d="M293.369,183.322c-4.559-5.86-8.469-9.117-12.378-9.772c-2.605-0.656-5.863,0-9.12,3.257
				c-3.258,3.257-5.211,5.211-5.211,8.468c-0.652,3.258,1.953,8.475,6.515,14.334c7.164,7.819,14.983,11.726,24.104,11.077
				l1.304-1.96C301.841,199.609,300.536,191.141,293.369,183.322z M277.081,196.352c-3.257-5.211-5.21-8.469-5.21-11.077
				c0-1.298,0.651-3.257,3.257-4.555c1.953-1.96,3.258-2.609,5.211-1.96c1.956,0,5.214,2.609,8.472,7.819
				c3.909,4.562,5.863,9.118,5.863,14.334v3.907C288.158,204.82,281.644,202.211,277.081,196.352z"/>
		</g>
	</g>
	<g>
		<g>
			<path fill="#858585" d="M236.689,559.893l-0.651,11.076c12.378,3.913,22.803,2.603,31.923-5.21
				c5.863-3.907,9.12-10.422,10.425-18.248l-0.652-9.772c-2.605-1.947-5.862-1.947-9.772-2.603
				c-7.816-0.655-14.983,0.655-20.197,5.86C242.553,545.564,238.643,552.079,236.689,559.893z"/>
		</g>
	</g>
	<g>
		<g>
			<path d="M234.733,573.571l12.381,1.311c8.469,0.649,16.288-1.959,22.151-6.515c6.515-5.218,9.772-11.732,11.726-19.546
				c0.652-5.866,0.652-9.772-0.652-11.731l-1.301-1.954l-11.077-2.602c-8.469-1.311-15.636,1.298-22.15,6.515
				c-5.863,4.556-9.772,11.07-11.727,19.546l-1.304,12.374C232.78,571.624,233.433,572.923,234.733,573.571z M238.643,569.016
				c0-11.732,3.258-20.194,10.425-26.709c7.168-5.217,16.288-6.516,26.061-3.258l0.652,3.906c0,9.124-3.258,15.64-9.772,20.844
				C258.841,569.665,249.72,571.624,238.643,569.016z"/>
		</g>
	</g>
	<g>
		<g>
			<path d="M277.733,539.698h1.305l11.073-7.819c1.305-0.655,1.305-2.603,0.652-3.913h-3.258l-11.073,7.825
				c-1.305,0.649-1.305,1.947-0.652,3.258L277.733,539.698z"/>
		</g>
	</g>
	<g>
		<g>
			<path fill="#858585" d="M279.038,580.086l-1.957,11.084l10.425,3.258c7.819,0.648,15.636,0,22.151-3.913
				c5.866-3.913,9.772-9.117,11.729-16.943l1.301-9.772c-2.604-1.947-5.862-3.258-9.12-3.906
				c-7.816-1.298-14.983-0.649-21.498,2.608C286.205,566.407,281.644,572.273,279.038,580.086z"/>
		</g>
	</g>
	<g>
		<g>
			<path d="M313.566,557.283c-8.468-1.946-15.636-1.298-22.15,3.258c-7.167,3.913-11.726,9.772-14.335,18.247
				c-1.953,4.556-2.605,8.469-2.605,12.382l0.652,1.946l12.378,3.258c9.121,1.311,16.288,0,23.455-3.258
				c6.516-4.555,10.425-10.421,13.03-18.234l1.305-11.732l-1.305-1.953C320.733,559.243,317.477,557.939,313.566,557.283z
				 M294.021,565.109c7.167-4.568,16.287-4.568,26.061,0c0,10.422-3.91,18.234-12.379,22.803l-28.665,1.947
				C280.991,578.14,285.553,569.665,294.021,565.109z"/>
		</g>
	</g>
	<g>
		<g>
			<path d="M337.021,555.337c-0.652-1.311-2.605-1.311-3.91-0.655l-11.726,6.515c-1.304,0.655-1.956,1.953-0.652,3.913
				c0.652,0.649,1.953,1.298,3.258,0.649l11.726-6.516C337.021,558.595,337.674,557.283,337.021,555.337z"/>
		</g>
	</g>
	<g>
		<g>
			<path fill="#858585" d="M325.944,486.929l-9.772-4.568l-5.863,9.772c-3.257,7.17-3.909,14.341-2.605,21.505
				c2.605,7.164,6.516,12.381,13.683,16.288l9.121,3.906l6.515-7.813c3.258-7.17,3.909-14.341,2.605-20.855
				C337.021,497.999,333.111,492.133,325.944,486.929z"/>
		</g>
	</g>
	<g>
		<g>
			<path d="M316.824,479.758l-2.605,0.655l-6.516,10.422c-3.257,8.468-3.909,16.288-1.953,24.101
				c1.953,7.171,7.164,13.03,14.332,17.599l10.425,3.906l1.953-0.649c1.956-1.311,4.562-3.912,7.167-9.123
				c3.909-7.164,4.562-14.99,2.605-22.803c-2.605-7.164-7.164-13.68-14.983-18.247L316.824,479.758z M337.021,505.163l0.652,7.17
				c0,7.819-2.605,13.686-7.819,18.891c-2.605-1.298-5.863-1.947-9.121-4.556c-5.21-3.906-8.468-8.475-9.772-13.68l-1.304-6.515
				c0-7.171,1.956-13.686,7.167-20.855C327.249,489.53,333.764,496.701,337.021,505.163z"/>
		</g>
	</g>
	<g>
		<g>
			<path d="M333.111,533.183c0-1.959-1.953-1.959-3.257-1.959c-1.953,0.655-1.953,1.959-1.953,3.257l8.468,26.061
				c0.652,1.96,1.305,2.608,3.258,1.96c1.304-0.649,2.605-1.305,1.956-3.258L333.111,533.183z"/>
		</g>
	</g>
	<g>
		<g>
			<path fill="#858585" d="M260.145,480.413c-1.304,8.462-1.304,16.288,2.605,22.147c3.258,5.86,9.121,10.428,16.288,13.686
				l9.772,1.298l4.559-9.123c1.956-7.813,1.305-14.978-1.953-21.492c-3.258-5.866-9.121-10.429-16.94-13.686l-10.425-3.258
				L260.145,480.413z"/>
		</g>
	</g>
	<g>
		<g>
			<path d="M264.051,467.383c-1.301,0-1.953,0.649-2.604,1.947l-3.91,11.083c-1.953,9.117-0.649,16.288,3.258,23.452
				c3.909,6.515,9.772,11.726,17.592,14.328l11.077,1.959c1.301,0,1.953-0.648,1.953-0.648l4.562-11.083
				c1.953-8.462,1.302-15.633-1.956-22.147c-3.91-7.171-9.772-12.375-18.241-15.633L264.051,467.383z M262.098,488.875
				c0-5.859,0.652-11.07,3.258-15.632c11.726,1.953,19.545,7.17,23.455,15.632l3.258,11.084c0,5.204-1.305,9.772-3.91,14.977
				c-11.077-1.298-18.893-5.204-22.803-13.679C262.75,497.35,262.098,493.443,262.098,488.875z"/>
		</g>
	</g>
	<g>
		<g>
			<path d="M291.416,516.246c-0.652-1.311-1.305-1.311-3.258-1.311c-1.304,1.311-2.605,1.96-1.304,3.913l9.123,16.942
				c1.302,1.299,1.953,1.947,3.258,0.649c1.953-0.649,1.953-1.96,1.301-3.906L291.416,516.246z"/>
		</g>
	</g>
	<g>
		<g>
			<path d="M191.084,495.391c-40.395-5.86-75.575-4.556-104.241,4.568c-1.304,0-1.957,1.298-1.304,3.257
				c0,1.947,1.304,1.947,3.258,1.298c28.017-8.468,62.545-10.421,102.288-3.906c80.135,12.381,152.452,54.074,216.951,126.396h3.91
				c1.304-0.655,1.304-1.96,0-3.258C346.794,550.769,272.522,507.123,191.084,495.391z"/>
		</g>
	</g>
	<g>
		<g>
			<path fill="#D96038" d="M51.01,502.561c0,3.258,0.652,5.86,1.954,7.171c2.605,1.946,6.515,3.257,13.682,3.257
				c5.863,0,11.726-1.959,16.288-5.865l5.211-5.218l-5.863-5.204c-3.91-3.258-9.773-4.568-15.636-4.568
				c-7.167,0-11.077,0.655-13.682,3.258C51.01,496.701,51.01,498.647,51.01,502.561z"/>
		</g>
	</g>
	<g>
		<g>
			<path d="M90.101,500.607l-5.863-5.866c-5.214-3.906-10.425-5.211-17.592-5.211s-12.378,1.305-14.983,3.258
				c-1.957,2.603-3.91,5.859-3.91,9.772s1.953,7.171,3.91,9.117c2.605,2.609,7.816,3.258,14.983,3.258s12.378-1.947,17.592-5.204
				l5.863-6.516V500.607z M55.568,496.701c1.957-1.311,5.214-1.96,11.077-2.608c8.468,0,13.682,2.608,18.241,7.813
				c-4.559,5.218-11.074,7.826-18.241,7.826l-11.726-1.96c-0.652-1.298-1.956-2.608-1.956-5.211v-0.655
				C52.963,499.959,54.268,497.35,55.568,496.701z"/>
		</g>
	</g>
	<g>
		<g>
			<path d="M112.903,482.36c-1.304,0-3.258,0-3.258,1.311c-1.304,1.947-0.652,2.603,1.301,3.258l22.803,9.772
				c1.304,1.298,2.609,0.648,3.258-0.655c0.652-1.953,0-3.258-1.301-3.913L112.903,482.36z"/>
		</g>
	</g>
	<g>
		<g>
			<path fill="#D96038" d="M83.585,463.471c-2.605,0.655-4.562,3.257-5.863,6.515c-1.305,2.603-1.957,5.211-0.652,7.171
				c1.301,2.602,5.211,5.859,11.074,8.462l23.455-0.649l-1.954-7.164c-3.257-4.562-7.819-8.475-13.03-11.077
				C90.101,463.471,86.191,462.814,83.585,463.471z"/>
		</g>
	</g>
	<g>
		<g>
			<path d="M75.766,468.032c-1.954,4.556-1.954,7.813-0.652,10.422c1.304,3.906,5.214,6.515,11.729,9.123l26.061-0.648
				c1.301-0.655,1.953-1.311,1.301-2.609c-1.301-8.475-6.515-15.639-16.288-20.193c-6.515-2.609-11.726-3.913-15.635-2.609
				C79.676,462.166,77.07,464.126,75.766,468.032z M84.237,466.728c2.605-0.655,5.863,0,11.074,2.603
				c6.515,2.608,11.077,7.17,13.03,13.686H88.796c-6.515-3.258-9.773-5.859-9.773-8.469l1.304-3.906
				C81.629,468.032,82.281,466.728,84.237,466.728z"/>
		</g>
	</g>
	<g>
		<g>
			<path d="M159.81,479.103c-1.954-1.298-2.605-1.298-3.258,0.655c-1.301,0.655-1.301,2.603,0,3.258l19.545,15.632l3.91-1.298
				c0.652-0.648,0.652-1.959-0.652-3.257L159.81,479.103z"/>
		</g>
	</g>
	<g>
		<g>
			<path fill="#D96038" d="M135.706,453.697c-2.605,0-4.562,1.305-6.515,4.563c-1.957,2.608-3.257,5.211-3.257,7.164
				c1.301,2.608,3.91,6.515,9.12,11.076c7.819,5.86,15.636,7.171,22.803,4.563v-7.164c-1.953-5.866-5.21-10.428-9.772-13.686
				C142.221,455.651,138.312,453.697,135.706,453.697z"/>
		</g>
	</g>
	<g>
		<g>
			<path d="M159.81,473.243c-1.954-6.516-5.211-11.077-10.422-15.633c-5.214-3.913-10.425-6.515-13.682-6.515
				c-3.258,0-6.515,1.946-8.472,5.859c-2.605,3.258-3.906,6.516-3.257,9.117c0.652,3.913,3.91,7.826,9.772,11.732
				c7.819,7.164,16.94,8.469,25.412,5.866l1.953-2.608L159.81,473.243z M135.706,456.955c1.953,0,5.863,1.305,10.425,5.211
				c5.863,4.562,9.121,10.422,9.121,16.937c-6.515,1.311-13.03,0-18.244-5.204c-5.863-3.913-7.816-7.171-7.816-9.772
				c0-1.312,0-2.609,1.953-3.913C132.448,457.61,134.402,456.955,135.706,456.955z"/>
		</g>
	</g>
	<g>
		<g>
			<path d="M202.158,479.758c-0.649-1.953-1.953-2.602-3.258-1.304c-1.953,1.304-1.953,1.959-1.301,3.906l12.378,20.855l3.909,0.649
				c1.953-0.649,1.953-1.96,1.302-3.258L202.158,479.758z"/>
		</g>
	</g>
	<g>
		<g>
			<path fill="#D96038" d="M189.128,447.183c-1.954-0.655-4.559,0-7.816,1.305c-2.605,1.953-4.562,3.257-4.562,5.21
				c-0.652,3.258,0.652,7.819,3.91,13.686c3.257,5.86,7.167,9.117,12.377,11.72l7.168,1.311l1.953-6.515
				c0.652-5.866-0.649-11.084-3.258-16.943C194.994,451.096,192.386,447.838,189.128,447.183z"/>
		</g>
	</g>
	<g>
		<g>
			<path d="M200.856,456.3c-3.909-6.515-7.167-10.422-10.425-11.72c-3.258-0.655-6.515-0.655-9.772,1.947
				c-3.91,1.96-6.515,4.568-6.515,7.17c-0.652,3.913,0.652,9.117,3.91,14.983c3.257,5.866,8.468,10.422,14.332,12.382l7.819,1.953
				l2.605-0.655l1.956-8.462C205.415,467.383,204.114,461.517,200.856,456.3z M188.479,449.785c1.953,0.655,5.211,3.912,7.816,8.475
				c2.605,4.555,3.258,8.468,3.258,12.381l-1.302,7.164c-6.515-1.305-11.729-5.217-14.986-11.732
				c-2.605-4.556-3.91-7.813-3.91-9.772c0-2.603,1.305-4.556,3.91-5.859L188.479,449.785z"/>
		</g>
	</g>
	<g>
		<g>
			<path d="M245.811,490.186c0-1.311-1.305-1.959-3.258-0.655c-1.305,0.655-1.953,1.305-1.305,3.258l11.077,22.147
				c0,1.311,1.305,1.311,3.258,1.311c1.304-1.311,1.953-1.959,0.652-3.258L245.811,490.186z"/>
		</g>
	</g>
	<g>
		<g>
			<path fill="#D96038" d="M236.038,456.955l-7.819,0.655c-2.605,1.298-5.211,2.603-5.211,5.204c-1.305,3.258,0,7.171,2.605,13.686
				c2.605,5.86,6.515,9.773,11.076,12.375l6.516,2.608l2.605-7.164c1.953-5.217,0.652-11.076-1.305-16.937
				C241.248,461.517,238.643,457.61,236.038,456.955z"/>
		</g>
	</g>
	<g>
		<g>
			<path d="M226.917,455.002c-3.909,1.953-5.862,4.556-7.167,7.813c-0.652,3.258,0,7.826,3.258,14.342
				c3.257,6.515,7.167,11.07,13.03,13.679c2.604,1.953,5.21,2.608,7.167,3.258c1.301,0,1.953-0.649,2.605-1.305
				c5.211-7.17,5.211-16.288,0.652-26.061c-3.258-6.515-5.863-10.428-9.773-12.375L226.917,455.002z M228.219,475.845
				c-1.954-4.555-3.258-7.813-3.258-10.421c0-1.953,1.304-3.907,4.562-5.211l5.863-0.655c1.956,0.655,3.909,3.913,6.515,9.772
				l2.605,10.428l-1.953,9.117C236.038,486.273,230.827,482.36,228.219,475.845z"/>
		</g>
	</g>
	<g>
		<g>
			<path d="M122.676,494.093c-0.652-1.305-1.957-1.305-3.257,0l-17.592,17.585c-0.652,1.311-0.652,2.609,0,3.913l3.91-0.655
				l16.94-17.586C124.629,496.701,124.629,495.391,122.676,494.093z"/>
		</g>
	</g>
	<g>
		<g>
			<path fill="#D96038" d="M79.023,540.996c1.957,1.959,4.562,3.258,6.515,3.258c3.258-0.649,6.515-3.258,11.077-8.463
				c4.559-4.567,6.515-9.772,7.816-14.989v-7.164h-7.816c-5.214,1.298-10.425,3.906-14.334,8.469
				c-5.211,4.562-7.167,9.117-7.167,11.726C75.114,535.791,75.766,538.394,79.023,540.996z"/>
		</g>
	</g>
	<g>
		<g>
			<path d="M106.388,512.988l-1.957-1.959l-7.816,0.648c-6.515,0.655-11.729,3.258-16.288,8.475
				c-5.214,5.211-7.819,9.773-7.819,13.03c0,3.258,1.304,6.516,4.562,9.124c3.257,3.258,6.515,4.556,9.121,3.906
				c3.91,0,7.819-3.258,12.378-8.475c4.562-4.556,7.819-10.422,8.472-16.287L106.388,512.988z M101.826,516.246v1.947
				c0,6.515-1.953,11.083-6.515,16.287c-4.559,4.568-7.816,6.516-9.772,6.516l-5.211-1.947c-1.956-2.608-3.257-3.913-3.257-4.568
				c0-2.602,2.605-6.515,6.515-11.07C88.796,518.193,95.311,516.246,101.826,516.246z"/>
		</g>
	</g>
	<g>
		<g>
			<path d="M172.84,494.093l-3.906-0.649l-20.197,14.978c-0.652,0-1.304,1.311-0.652,3.257c1.953,1.311,3.258,1.311,3.91,0.655
				l20.197-14.983C173.492,496.701,173.492,495.391,172.84,494.093z"/>
		</g>
	</g>
	<g>
		<g>
			<path fill="#D96038" d="M121.372,532.534c1.304,2.602,3.257,3.906,5.863,3.906c3.258,0.649,7.167-1.305,13.03-5.217
				c4.562-3.258,7.819-8.462,9.772-14.328l0.652-7.164l-7.167-0.655c-5.863,0-11.074,1.953-15.636,5.859
				c-5.863,3.258-8.468,7.171-9.772,9.772C118.114,527.316,118.766,529.276,121.372,532.534z"/>
		</g>
	</g>
	<g>
		<g>
			<path d="M125.934,512.988c-5.863,3.907-9.121,7.813-9.773,11.72c-1.304,2.608,0,5.866,2.605,9.772
				c2.605,3.258,5.863,4.568,8.468,5.218c3.91,0,8.472-1.96,14.334-6.516c5.863-3.906,9.121-9.123,10.425-14.989l1.301-8.462
				l-1.953-1.96l-7.819-1.298C137.007,506.474,131.144,508.421,125.934,512.988z M122.676,531.224l-1.304-4.556
				c0-1.96,2.605-5.866,7.819-10.422c5.211-3.913,12.378-5.866,18.893-4.568c-0.652,7.171-3.91,13.03-9.772,17.599
				c-4.562,3.258-8.468,5.204-10.425,5.204C125.934,534.48,124.629,533.183,122.676,531.224z"/>
		</g>
	</g>
	<g>
		<g>
			<path d="M215.188,499.959h-4.559l-19.546,14.328c-1.304,0.648-1.304,1.959-0.652,3.906c1.305,1.311,2.605,1.311,3.258,0
				l20.197-14.328C215.188,503.216,215.84,501.905,215.188,499.959z"/>
		</g>
	</g>
	<g>
		<g>
			<path fill="#D96038" d="M163.067,539.049c1.304,1.947,3.91,3.258,5.866,3.906c3.257,0,7.816-1.959,12.378-5.217
				c5.211-3.906,9.12-8.462,10.425-14.328l1.301-7.164l-7.167-1.311c-5.863,0-11.726,1.96-16.288,5.866
				c-5.211,3.906-8.468,7.164-9.121,10.422C160.462,533.183,161.114,535.791,163.067,539.049z"/>
		</g>
	</g>
	<g>
		<g>
			<path d="M193.689,513.638l-8.468-0.649c-5.866,0-11.729,1.947-17.592,5.205c-5.863,4.568-9.121,8.475-9.773,12.381
				c-0.652,2.608,0,5.866,3.258,9.124c1.953,3.906,5.211,5.866,8.468,5.866s7.819-1.96,13.682-6.516
				c5.863-3.258,9.121-8.475,11.077-14.341l1.301-8.462L193.689,513.638z M170.887,522.762c6.515-4.568,12.378-5.866,18.894-4.568
				c0,6.515-3.258,11.732-9.121,16.942c-5.211,3.913-9.121,5.86-11.077,5.211l-4.559-3.257c-1.304-1.299-1.957-2.609-1.957-4.556
				C163.067,529.926,165.024,526.668,170.887,522.762z"/>
		</g>
	</g>
	<g>
		<g>
			<path d="M247.764,509.076l-3.906-0.655l-18.244,16.287c-1.954,1.311-1.954,2.608-0.652,3.913l3.909,0.655l18.244-16.288
				C249.067,511.678,249.067,510.38,247.764,509.076z"/>
		</g>
	</g>
	<g>
		<g>
			<path fill="#D96038" d="M199.553,552.079l6.515,3.258c3.258,0,7.168-1.96,12.378-6.516c4.563-4.567,7.168-9.123,7.819-14.341
				l0.652-7.813h-7.167c-5.863,0-11.077,2.608-15.636,6.515c-4.562,4.556-7.167,9.124-7.819,11.727
				C196.295,547.511,196.947,549.471,199.553,552.079z"/>
		</g>
	</g>
	<g>
		<g>
			<path d="M227.569,524.708l-7.819-0.648c-6.515,0.648-12.378,2.608-16.939,7.164c-5.863,5.217-9.121,9.772-9.121,13.03
				c0,3.257,0.652,6.515,3.258,9.772c3.258,3.257,6.515,4.568,9.12,4.568c3.91-0.655,7.819-3.258,13.683-7.826
				c5.211-4.556,8.469-9.772,9.772-16.288v-7.813L227.569,524.708z M224.312,529.276h0.649c0,6.515-2.605,13.03-8.469,17.586
				c-4.562,3.906-7.819,5.866-10.425,5.866c-1.301,0.648-2.605-0.649-5.211-2.609c-1.304-1.298-1.956-2.608-1.956-4.555
				c0-2.609,1.956-5.866,7.167-9.773C211.281,530.574,217.145,528.621,224.312,529.276z"/>
		</g>
	</g>
	<g>
		<g>
			<path fill="#FF0000" d="M249.72,210.687c9.121-54.729,13.03-103.593,14.331-145.292l-114.014-0.649
				c0,39.09-5.21,84.696-14.331,138.121c-18.893,105.545-50.167,193.499-94.469,263.86l128.998,3.258
				C206.72,406.788,233.433,320.139,249.72,210.687z"/>
		</g>
	</g>
	<g>
		<g>
			<path d="M264.051,62.137l-114.014-0.649c-1.953,0-3.257,1.304-3.257,3.258c-0.649,40.395-5.863,86-15.636,139.425
				C112.903,308.412,81.629,395.717,37.98,464.126v3.257l3.257,2.603l128.998,3.258l3.257-1.305
				c36.485-63.191,62.546-149.198,79.485-259.299c8.469-54.723,13.03-104.241,14.331-147.245l-1.301-2.603
				C265.355,62.792,265.355,62.137,264.051,62.137z M153.295,68.003l107.499,0.649c-1.953,51.472-7.816,103.592-16.288,157.673
				c-16.937,100.983-42.348,181.767-76.225,240.402l-121.833-3.257c40.395-65.807,70.365-147.895,89.258-245.62
				C145.479,164.432,151.342,114.913,153.295,68.003z"/>
		</g>
	</g>
</g>
<path id="PATH77" fill="none" stroke="#000000" stroke-width="3" stroke-miterlimit="100" d="M370.59,585.26H3.92V2.74h366.67
	V585.26L370.59,585.26z"/>
</svg>
