<?xml version="1.0" encoding="utf-8"?>
<!-- Generator: Adobe Illustrator 13.0.0, SVG Export Plug-In . SVG Version: 6.00 Build 14948)  -->
<!DOCTYPE svg PUBLIC "-//W3C//DTD SVG 1.1//EN" "http://www.w3.org/Graphics/SVG/1.1/DTD/svg11.dtd">
<svg version="1.1" id="圖層_1" xmlns="http://www.w3.org/2000/svg" xmlns:xlink="http://www.w3.org/1999/xlink" x="0px" y="0px"
	 width="372px" height="587px" viewBox="0 0 372 587" enable-background="new 0 0 372 587" xml:space="preserve">
<g>
	<rect width="372" height="587" fill="#FFFFFF" fill-opacity="1.0"/>
</g>
<path id="PATH1" fill="#F93419" stroke="#000000" stroke-width="3" d="M284,283.5c0.5,12-1,18-8.5,30c-14,14.5-21.5,50-39,86.5
	L222,383c23-42.5,32-47.5,44-77.5C269.5,292.5,272.5,292,284,283.5z"/>
<path id="PATH2" fill="#F93419" stroke="#000000" stroke-width="3" d="M12,340c54,85,62,148,84,214c-1,17,8,25,10,39H82
	c-5-10,0-20-10-32C56,505,32,436,12,340z"/>
<path id="PATH3" fill="none" stroke="#000000" stroke-width="3" stroke-miterlimit="100" d="M85.9,562.4
	c-7.8,1.8-14.53,1.52-15.03-0.642c-0.5-2.148,5.43-5.358,13.23-7.16c7.8-1.8,14.53-1.52,15.03,0.642
	C99.63,557.39,93.7,560.6,85.9,562.4z"/>
<path id="PATH4" fill="#F93419" stroke="#000000" stroke-width="3" d="M264,626h-36c-2.33-38.67,1.67-58-6-94
	c-4.67-48.67-5.33-79-19-132c-8.33-38-18.67-69.67-35-115c-13.67-46-21.67-85-42-127c-19-53.33-34.67-82.67-55.33-121.33
	C66.67,16,58-3,51-17.66l32-0.33c7.33,15.67,11.67,27.33,24,39c14,44.67,27.33,85,53,129c11.33,44.33,23,83,38,128
	c13.67,42.33,21.33,73.33,37,113c7,57.33,9.33,94.67,18,137c3,39,4,60,11,98V626z"/>
<path id="PATH5" fill="none" stroke="#000000" stroke-width="3" stroke-miterlimit="100" d="M253,533c-2.67,2-32.67,0.67-33.67,0
	c-2-2.67-2.33-7.33-0.33-10.67c1.33-2.67,21.33,3.33,33.33-3.67c2.33,1.33,3,12.67,0.67,14.33V533z"/>
<path id="PATH6" fill="none" stroke="#000000" stroke-width="3" stroke-miterlimit="100" d="M219.83,402.99
	c-8.551,0-18.17,0.01-18.83-4.32c-0.67-5,10.67-6,19-7.33c7.67-1.33,13.67-1.33,13.67,1.33c0,3-5.279,10.32-13.83,10.32H219.83z"/>
<path id="PATH7" fill="none" stroke="#000000" stroke-width="3" stroke-miterlimit="100" d="M91.91,32.83
	C81.58,37,72.53,38.73,71.7,36.68c-0.83-2.05,6.88-7.09,17.21-11.27c10.33-4.17,19.38-5.9,20.21-3.85
	C109.95,23.61,102.24,28.65,91.91,32.83z"/>
<path id="PATH8" fill="none" stroke="#000000" stroke-width="3" stroke-miterlimit="100" d="M144.56,159.18
	c-8.9,3.78-16.81,5.19-17.67,3.16c-0.86-2.03,5.65-6.74,14.55-10.52c8.9-3.78,16.81-5.19,17.67-3.16
	C159.97,150.69,153.46,155.4,144.56,159.18z"/>
<path id="PATH9" fill="none" stroke="#000000" stroke-width="3" stroke-miterlimit="100" d="M184.38,282.029
	c-8.08,3.101-15.19,4.15-15.88,2.351c-0.69-1.799,5.29-5.78,13.37-8.88s15.19-4.15,15.88-2.35
	C198.439,274.95,192.46,278.93,184.38,282.029z"/>
<path id="PATH10" fill="#F93419" stroke="#000000" stroke-width="3" d="M396,632.5h-37c1-47.5,2-75.5-3.89-130.5
	c1.89-50.5,0.89-76-3.9-130.96C351.99,298,350.49,271,345.14,167C343,81.5,343.5,58.5,340.06-3.52L339.49-22.5h40.5l0.438,17.97
	C380.49,52.5,379.49,116,384.57,164.98c-2.08,69.01-0.58,132.01,4.92,205.51c-4,50-1.5,87,3.25,130.979
	c-2.25,52.021-1.25,90.521,3.25,131.021L396,632.5z"/>
<path id="PATH11" fill="none" stroke="#000000" stroke-width="3" stroke-miterlimit="100" d="M365.25,171.99
	c-11.18,0-20.24-1.79-20.24-3.99s9.062-3.99,20.24-3.99s20.24,1.79,20.24,3.99S376.43,171.99,365.25,171.99z"/>
<path id="PATH12" fill="none" stroke="#000000" stroke-width="3" stroke-miterlimit="100" d="M371.5,372.49
	c-11.04,0-19.99-1.9-19.99-4.24s8.95-4.24,19.99-4.24s19.99,1.9,19.99,4.24S382.54,372.49,371.5,372.49z"/>
<path id="PATH13" fill="none" stroke="#000000" stroke-width="3" stroke-miterlimit="100" d="M375,508.99
	c-10.76,0-19.49-1.79-19.49-3.99s8.73-3.99,19.49-3.99s19.49,1.79,19.49,3.99S385.76,508.99,375,508.99z"/>
<path id="PATH14" fill="#427E41" stroke="#000000" stroke-width="3" d="M25.5,118c-15,30-25.5,45.5-64,61.5c3-30,9.5-53,32-81.5
	c22-27.5,28-22.5,57.5-58C49,76.5,38.5,92.5,25.5,118z"/>
<path id="PATH15" fill="#427E41" stroke="#000000" stroke-width="3" d="M36,230c-24,22-37,20-83.5,22.5c30.5-29.5,32-28,61.5-48.5
	c35-24.5,26-33.5,75.5-48.5C67,186.5,64.5,203.5,36,230z"/>
<path id="PATH16" fill="#427E41" stroke="#000000" stroke-width="3" d="M108.5,285.5c-4,29.5-10,46.5-35.5,78
	c-15.5-30.5-23-48-16.5-83c7.5-40.5,14.5-47,37-96C105.5,218.5,113.5,247,108.5,285.5z"/>
<path id="PATH17" fill="#427E41" stroke="#000000" stroke-width="3" d="M108.5,285.5c-4,29.5-10,46.5-35.5,78
	c-15.5-30.5-23-48-16.5-83c7.5-40.5,14.5-47,37-96C105.5,218.5,113.5,247,108.5,285.5z"/>
<path id="PATH18" fill="#427E41" stroke="#000000" stroke-width="3" d="M48.5,324.5c3.5,21,12.5,39,8,75C25,378,18,356.5,13.5,337
	c-5.5-24.5-7.5-49.5,3-77.5C28.5,293.5,42.5,286.5,48.5,324.5z"/>
<path id="PATH19" fill="#427E41" stroke="#000000" stroke-width="3" d="M44.5,519.5c3.5,21,12.5,39,8,75C21,573,14,551.5,9.5,532
	c-5.5-24.5-10-53.5,0.5-81.5C30.5,483,38.5,481.5,44.5,519.5z"/>
<path id="PATH20" fill="#427E41" stroke="#000000" stroke-width="3" d="M164,33c-30.5-10-55-28-68.5-51.5c3-30,47-5.5,78,12.5
	c35.5,20.5,36,25.5,60.5,45C195,41,180.5,38.5,164,33z"/>
<path id="PATH21" fill="#427E41" stroke="#000000" stroke-width="3" d="M169.5,66.5C143,61.5,143,62,113,43c26-4.5,34.5-5.5,63-2.5
	c38,4.5,33.5,5,62,21C202,67.5,190.5,70.5,169.5,66.5z"/>
<path id="PATH22" fill="#B35443" stroke="#000000" stroke-width="3" d="M284,414.5c-11.5-11.5-16-30-21-68
	c31.5,16.5,30.5,29,44.5,45.5c15.5,18.5,20,30.5,26,55C314.5,437,294,424.5,284,414.5z"/>
<path id="PATH23" fill="#B35443" stroke="#000000" stroke-width="3" d="M277.5,469.5c-11.5-11.5-21-22-26.5-48
	c25,6.5,28.5,13,43,24.5c18,14.5,26,18.5,31,45C306,481,287.5,479.5,277.5,469.5z"/>
<path id="PATH24" fill="#B35443" stroke="#000000" stroke-width="3" d="M316,373.5c-0.5-20.5-1.5-35,18.5-72c8,29,15.5,49,15.5,69.5
	c0.5,26,1.5,44.5-14.5,76C315.5,408,317,397,316,373.5z"/>
<path id="PATH25" fill="#B35443" stroke="#000000" stroke-width="3" d="M80,453.5c-0.5-20.5-1.5-35,18.5-72c8,29,15.5,49,15.5,69.5
	c0.5,26,1.5,44.5-14.5,76C79.5,488,81,477,80,453.5z"/>
<path id="PATH26" fill="#427E41" stroke="#000000" stroke-width="3" d="M226,107.5c-16,21-13,20-19,47.5c24.5-9,26-5.5,43.5-27.5
	C263,112,260,104,262,81.5C238,98.5,237.5,92.5,226,107.5z"/>
<path id="PATH27" fill="#427E41" stroke="#000000" stroke-width="3" d="M249.5,148.5c-15.5,7.5-17,13-34,27c26,2,16.5,4.5,44-4
	c19-5.5,13.5-10,29.5-28C268,143.5,262,142.5,249.5,148.5z"/>
<path id="PATH28" fill="#427E41" stroke="#000000" stroke-width="3" d="M291-16.5C275.5-9,270,0,268.5,22c26-8,14.5-0.5,38-16.5
	C326-8,324-11,331.5-28C310.5-28,303.5-22.5,291-16.5z"/>
<path id="PATH29" fill="none" stroke="#000000" stroke-width="3" stroke-miterlimit="100" d="M97.5,558c0,0,2.01-19.03,2.5-30.5
	c1.16-27.01-3.08-44.97-3.5-72c-0.39-25.12-2.02-42.05,1-67c0.34-2.82,1-7.5,1-7.5"/>
<path id="PATH30" fill="none" stroke="#000000" stroke-width="3" stroke-miterlimit="100" d="M55.5,602c0,0-12.57-30.69-19-49.5
	C29.48,531.95,25.4,518.03,20,497c-4.49-17.49-10.5-47-10.5-47"/>
<path id="PATH31" fill="none" stroke="#000000" stroke-width="3" stroke-miterlimit="100" d="M218.5,533c0,0-16.891-6.93-22.5-15.5
	c-3.18-4.87-4.32-8.81-5.5-14.5c-0.88-4.24-1-11.5-1-11.5"/>
<path id="PATH32" fill="none" stroke="#000000" stroke-width="3" stroke-miterlimit="100" d="M218.5,521.5c0,0-20.85-18.33-30-32
	c-8.3-12.41-10.279-22.67-17-36c-5.92-11.76-7.38-21.5-16.5-31c-16.76-17.471-44.51-1.27-62-18c-8.72-8.34-13.91-15.48-17.5-27
	c-3.02-9.689-1.85-16.85-2-27c-0.38-25.93,5.41-42.891,9.5-68.5c3.39-21.25,8.11-35.07,10-56.5c1.38-15.69,1-42,1-42"/>
<path id="PATH33" fill="none" stroke="#000000" stroke-width="3" stroke-miterlimit="100" d="M18.5,263c0,0,2.42,32.471,6.5,51.5
	c6.13,28.59,11.59,48.061,26,73.5c4.61,8.15,6.18,15.16,13.5,21c12.51,9.98,42.5,4,42.5,4"/>
<path id="PATH34" fill="none" stroke="#000000" stroke-width="3" stroke-miterlimit="100" d="M126,161.5c0,0-9.8-13.98-18.5-14
	c-5.22-0.01-8.25,2.83-13,5c-19.53,8.91-28.46,21.74-44.5,36c-18.33,16.3-25.48,33.36-46.5,46c-16.77,10.09-49,18-49,18"/>
<path id="PATH35" fill="none" stroke="#000000" stroke-width="3" stroke-miterlimit="100" d="M-38,178.5c0,0,16.59-20.36,26-33
	c13.05-17.52,21.69-29.31,33-48C33.38,77.05,50.5,41,50.5,41"/>
<path id="PATH36" fill="none" stroke="#000000" stroke-width="3" stroke-miterlimit="100" d="M284.5,284c0,0,16.63-12.359,26-20.5
	c16.22-14.09,40-41,40-41"/>
<path id="PATH37" fill="none" stroke="#000000" stroke-width="3" stroke-miterlimit="100" d="M282,284c0,0-0.91-14.49,0.5-23
	c0.95-5.74,2.189-9.47,4-15c1.18-3.61,2.391-5.87,3.5-9.5c3.221-10.5,1.91-18.22,4-29c1.279-6.61,2.359-10.97,4-17.5
	c2.33-9.27,5.43-15.07,7-24.5c1.02-6.13-0.66-10.67,1.5-16.5c2.06-5.56,5.74-8.05,9-13c6.7-10.18,7.91-19.36,16.5-28
	c4.81-4.84,14.5-11,14.5-11"/>
<path id="PATH38" fill="none" stroke="#000000" stroke-width="3" stroke-miterlimit="100" d="M304.5,148.5c0,0-4.88-13.8-8-22
	c-6.58-17.28-10.029-29.33-19-45.5c-5.52-9.96-8.779-17.13-16.5-25.5c-5.96-6.46-10.061-11.24-18-15c-6.95-3.29-12.51-2.77-20-4.5
	c-18.43-4.25-31.189-5.63-49-12c-18.64-6.66-32.26-10.37-47.5-23c-11.17-9.25-25-29.5-25-29.5"/>
<path id="PATH39" fill="none" stroke="#000000" stroke-width="3" stroke-miterlimit="100" d="M106-30c0,0,25.94,14.06,41.5,22.5
	c15.19,8.24,25.32,13.73,40.5,22c16.141,8.79,43,23.5,43,23.5"/>
<path id="PATH40" fill="none" stroke="#000000" stroke-width="3" stroke-miterlimit="100" d="M331.5-27.5c0,0-15.61,15.46-26,23.5
	c-9.62,7.45-18.17,9.62-27,18c-6.18,5.87-11.5,9.52-14.5,17.5c-3.23,8.6,0,24.5,0,24.5"/>
<path id="PATH41" fill="none" stroke="#000000" stroke-width="3" stroke-miterlimit="100" d="M111.5,44c0,0,26.17,4.91,42,7
	c14.94,1.98,25.04,2.16,40,4c15.42,1.89,25.5,4.91,41,6c10.85,0.76,29,0.5,29,0.5"/>
<path id="PATH42" fill="none" stroke="#000000" stroke-width="3" stroke-miterlimit="100" d="M207.5,154.5c0,0,11.23-11.3,17.5-18.5
	c8.42-9.67,13.77-16.4,21-27c6.779-9.93,6.98-20.15,16.5-27.5c3.59-2.77,10.5-6,10.5-6"/>
<path id="PATH43" fill="none" stroke="#000000" stroke-width="3" stroke-miterlimit="100" d="M216.5,176c0,0,12.891-4.49,20.5-7.5
	c10.08-3.98,16.77-6.73,26.5-11.5c8.811-4.32,13.68-9.43,23-12.5c4.75-1.56,13-3,13-3"/>
<path id="PATH44" fill="none" stroke="#000000" stroke-width="3" stroke-miterlimit="100" d="M353.5,507c0,0-18.46-9.3-28.5-16.5
	c-14.55-10.43-21.37-20.83-34.5-33c-14.029-12.99-38-34-38-34"/>
<path id="PATH45" fill="none" stroke="#000000" stroke-width="3" stroke-miterlimit="100" d="M353,497.5c0,0-7.07-32.47-18-48.5
	c-9.49-13.92-21.23-18.48-32.5-31c-11.99-13.32-21.68-21.641-29-38c-4.391-9.8-8-27.5-8-27.5"/>
<path id="PATH46" fill="none" stroke="#000000" stroke-width="3" stroke-miterlimit="100" d="M269,353.5c0,0,13.63,21.24,22.5,33.5
	c9.63,13.311,17.46,21.12,27,34.5c6.67,9.36,17,25.5,17,25.5"/>
<path id="PATH47" fill="none" stroke="#000000" stroke-width="3" stroke-miterlimit="100" d="M335.5,301.5c0,0-4.27,34.311-4.5,55
	c-0.26,22.74,3.49,37.77,4,60.5c0.26,11.62,0,31,0,31"/>
<g>
	<g>
		<path fill="#FF0000" d="M122.346,90.02c3.028,38.172,0.604,82.398-6.06,132.079c-14.54,100.568-46.651,180.543-97.543,239.914
			l119.958,4.854c47.865-61.804,77.551-142.984,88.453-242.95c4.85-50.886,5.451-95.118,1.213-133.286L122.346,90.02z"/>
	</g>
</g>
<g>
	<g>
		<path d="M119.315,90.629c3.028,38.771,0.606,83.003-6.665,132.677c-14.541,98.758-46.046,178.124-96.33,237.5
			c-0.605,0.604-0.605,1.812-0.605,3.029l3.027,1.207l119.958,4.853c0.606,0,1.819,0,2.426-1.219
			c47.86-61.794,77.547-142.374,88.451-243.547c5.455-50.291,6.06-95.119,1.819-134.5c0-1.815-0.606-3.029-2.422-3.029
			l-106.63-0.609l-1.82,0.609L119.315,90.629z M225.945,93.659c1.209,15.146,2.422,32.713,2.422,52.71
			c0,52.1-6.059,101.781-16.357,149.035C196.863,363.261,172.022,419,137.49,463.836l-112.688-4.249
			c39.38-48.466,67.856-111.473,84.819-187.204c11.51-49.679,16.963-100.574,16.963-153.278l-0.604-26.057L225.945,93.659z"/>
	</g>
</g>
<g>
	<g>
		<path fill="#333333" d="M26.266,41.761c0-3.402-1.364-4.761-4.766-4.761c-3.404,0-5.445,1.359-5.445,4.761
			c0,2.721,2.042,4.765,5.445,4.765S26.266,44.482,26.266,41.761z"/>
	</g>
</g>
<path id="PATH77" fill="none" stroke="#000000" stroke-width="3" stroke-miterlimit="100" d="M370.59,585.26H3.92V2.74h366.67
	V585.26L370.59,585.26z"/>
<g>
	<g>
		<path fill="#333333" d="M76.266,112.235c0-3.402-1.363-4.761-4.766-4.761c-3.404,0-5.445,1.359-5.445,4.761
			c0,2.721,2.042,4.765,5.445,4.765C74.902,117,76.266,114.956,76.266,112.235z"/>
	</g>
</g>
<g>
	<g>
		<path fill="#333333" d="M38.5,21c0-3.402-1.363-4.761-4.766-4.761c-3.404,0-5.445,1.359-5.445,4.761
			c0,2.721,2.042,4.765,5.445,4.765C37.137,25.765,38.5,23.721,38.5,21z"/>
	</g>
</g>
<g>
	<g>
		<path fill="#333333" d="M73.266,79.235c0-3.402-1.363-4.761-4.766-4.761c-3.404,0-5.445,1.359-5.445,4.761
			c0,2.721,2.042,4.765,5.445,4.765C71.903,84,73.266,81.956,73.266,79.235z"/>
	</g>
</g>
<g>
	<g>
		<path fill="#333333" d="M60.266,99.761c0-3.402-1.363-4.761-4.766-4.761c-3.404,0-5.445,1.359-5.445,4.761
			c0,2.721,2.042,4.765,5.445,4.765C58.902,104.526,60.266,102.482,60.266,99.761z"/>
	</g>
</g>
<g>
	<g>
		<path fill="#333333" d="M93.266,115.235c0-3.402-1.363-4.761-4.766-4.761c-3.404,0-5.445,1.359-5.445,4.761
			c0,2.721,2.042,4.765,5.445,4.765C91.902,120,93.266,117.956,93.266,115.235z"/>
	</g>
</g>
<g>
	<g>
		<path fill="#333333" d="M77.266,139.235c0-3.402-1.363-4.761-4.766-4.761c-3.404,0-5.445,1.359-5.445,4.761
			c0,2.721,2.042,4.765,5.445,4.765C75.902,144,77.266,141.956,77.266,139.235z"/>
	</g>
</g>
<g>
	<g>
		<path fill="#333333" d="M56.711,128c-0.147-3.399-1.568-4.697-4.968-4.55c-3.4,0.147-5.381,1.593-5.233,4.992
			c0.118,2.719,2.246,4.672,5.646,4.525C55.554,132.82,56.829,130.719,56.711,128z"/>
	</g>
</g>
<g>
	<g>
		<path fill="#333333" d="M44.266,152.761c0-3.402-1.363-4.761-4.766-4.761c-3.404,0-5.445,1.359-5.445,4.761
			c0,2.721,2.042,4.765,5.445,4.765C42.902,157.526,44.266,155.482,44.266,152.761z"/>
	</g>
</g>
<g>
	<g>
		<path fill="#333333" d="M55.266,241.761c0-3.402-1.363-4.761-4.766-4.761c-3.404,0-5.445,1.359-5.445,4.761
			c0,2.721,2.042,4.765,5.445,4.765C53.902,246.526,55.266,244.482,55.266,241.761z"/>
	</g>
</g>
<g>
	<g>
		<path fill="#333333" d="M45.5,258c0-3.402-1.363-4.761-4.766-4.761c-3.404,0-5.445,1.359-5.445,4.761
			c0,2.721,2.042,4.765,5.445,4.765C44.136,262.765,45.5,260.721,45.5,258z"/>
	</g>
</g>
<g>
	<g>
		<path fill="#333333" d="M252.266,230.235c0-3.402-1.363-4.761-4.766-4.761c-3.404,0-5.445,1.359-5.445,4.761
			c0,2.721,2.043,4.765,5.445,4.765S252.266,232.956,252.266,230.235z"/>
	</g>
</g>
<g>
	<g>
		<path fill="#333333" d="M253.266,255.709c0-3.402-1.363-4.761-4.766-4.761c-3.404,0-5.445,1.359-5.445,4.761
			c0,2.721,2.043,4.765,5.445,4.765S253.266,258.43,253.266,255.709z"/>
	</g>
</g>
<g>
	<g>
		<path fill="#333333" d="M246.266,286.234c0-3.401-1.363-4.76-4.766-4.76c-3.404,0-5.445,1.359-5.445,4.76
			c0,2.722,2.043,4.766,5.445,4.766S246.266,288.956,246.266,286.234z"/>
	</g>
</g>
<g>
	<g>
		<path fill="#333333" d="M264.266,273.761c0-3.402-1.363-4.761-4.766-4.761c-3.404,0-5.445,1.359-5.445,4.761
			c0,2.721,2.043,4.765,5.445,4.765S264.266,276.482,264.266,273.761z"/>
	</g>
</g>
<g>
	<g>
		<path fill="#333333" d="M268.5,242c0-3.402-1.363-4.761-4.766-4.761c-3.404,0-5.445,1.359-5.445,4.761
			c0,2.721,2.042,4.765,5.445,4.765C267.137,246.765,268.5,244.721,268.5,242z"/>
	</g>
</g>
<g>
	<g>
		<path fill="#333333" d="M265.267,208.761c0-3.402-1.363-4.761-4.767-4.761c-3.404,0-5.445,1.359-5.445,4.761
			c0,2.721,2.042,4.765,5.445,4.765C263.901,213.526,265.267,211.482,265.267,208.761z"/>
	</g>
</g>
<g>
	<g>
		<path fill="#333333" d="M323.711,190c0-3.402-1.363-4.761-4.766-4.761c-3.404,0-5.445,1.359-5.445,4.761
			c0,2.721,2.042,4.765,5.445,4.765C322.348,194.765,323.711,192.721,323.711,190z"/>
	</g>
</g>
<g>
	<g>
		<path fill="#333333" d="M330.266,169.235c0-3.402-1.362-4.761-4.766-4.761c-3.404,0-5.445,1.359-5.445,4.761
			c0,2.721,2.042,4.765,5.445,4.765C328.902,174,330.266,171.956,330.266,169.235z"/>
	</g>
</g>
<g>
	<g>
		<path fill="#333333" d="M317.266,217.235c0-3.402-1.362-4.761-4.766-4.761c-3.404,0-5.445,1.359-5.445,4.761
			c0,2.721,2.042,4.765,5.445,4.765C315.902,222,317.266,219.956,317.266,217.235z"/>
	</g>
</g>
<g>
	<g>
		<path fill="#333333" d="M333.711,206c0-3.402-1.362-4.761-4.766-4.761c-3.404,0-5.445,1.359-5.445,4.761
			c0,2.721,2.042,4.765,5.445,4.765C332.348,210.765,333.711,208.721,333.711,206z"/>
	</g>
</g>
<g>
	<g>
		<path fill="#333333" d="M314.266,93.235c0-3.402-1.362-4.761-4.766-4.761c-3.404,0-5.445,1.359-5.445,4.761
			c0,2.721,2.042,4.765,5.445,4.765C312.902,98,314.266,95.956,314.266,93.235z"/>
	</g>
</g>
<g>
	<g>
		<path fill="#333333" d="M299.5,73c0-3.402-1.363-4.761-4.766-4.761c-3.404,0-5.445,1.359-5.445,4.761
			c0,2.721,2.042,4.765,5.445,4.765C298.137,77.765,299.5,75.721,299.5,73z"/>
	</g>
</g>
<g>
	<g>
		<path fill="#333333" d="M314.266,62.761c0-3.402-1.362-4.761-4.766-4.761c-3.404,0-5.445,1.359-5.445,4.761
			c0,2.721,2.042,4.765,5.445,4.765C312.902,67.526,314.266,65.482,314.266,62.761z"/>
	</g>
</g>
<g>
	<g>
		<path fill="#333333" d="M328.266,78.235c0-3.402-1.362-4.761-4.766-4.761c-3.404,0-5.445,1.359-5.445,4.761
			c0,2.721,2.042,4.765,5.445,4.765C326.902,83,328.266,80.956,328.266,78.235z"/>
	</g>
</g>
<g>
	<g>
		<path fill="#333333" d="M324.266,49.761c0-3.402-1.362-4.761-4.766-4.761c-3.404,0-5.445,1.359-5.445,4.761
			c0,2.721,2.042,4.765,5.445,4.765C322.902,54.526,324.266,52.482,324.266,49.761z"/>
	</g>
</g>
<g>
	<g>
		<path fill="#333333" d="M298.266,46.235c0-3.402-1.363-4.761-4.766-4.761c-3.404,0-5.445,1.359-5.445,4.761
			c0,2.721,2.043,4.765,5.445,4.765S298.266,48.956,298.266,46.235z"/>
	</g>
</g>
<g>
	<g>
		<path fill="#333333" d="M314.266,31.235c0-3.402-1.362-4.761-4.766-4.761c-3.404,0-5.445,1.359-5.445,4.761
			c0,2.721,2.042,4.765,5.445,4.765C312.902,36,314.266,33.956,314.266,31.235z"/>
	</g>
</g>
<g>
	<g>
		<path fill="#333333" d="M235.266,15.235c0-3.402-1.363-4.761-4.766-4.761c-3.404,0-5.445,1.359-5.445,4.761
			c0,2.721,2.043,4.765,5.445,4.765S235.266,17.956,235.266,15.235z"/>
	</g>
</g>
<g>
	<g>
		<path fill="#333333" d="M254.266,22.235c0-3.402-1.363-4.761-4.766-4.761c-3.404,0-5.445,1.359-5.445,4.761
			c0,2.721,2.043,4.765,5.445,4.765S254.266,24.956,254.266,22.235z"/>
	</g>
</g>
<g>
	<g>
		<path fill="#333333" d="M304.711,317c0-3.402-1.363-4.762-4.766-4.762c-3.404,0-5.445,1.359-5.445,4.762
			c0,2.721,2.042,4.766,5.445,4.766C303.348,321.766,304.711,319.721,304.711,317z"/>
	</g>
</g>
<g>
	<g>
		<path fill="#333333" d="M305.5,336c0-3.401-1.362-4.76-4.766-4.76c-3.404,0-5.445,1.357-5.445,4.76
			c0,2.722,2.043,4.766,5.445,4.766S305.5,338.722,305.5,336z"/>
	</g>
</g>
<g>
	<g>
		<path fill="#333333" d="M317.5,306c0-3.401-1.362-4.76-4.766-4.76c-3.404,0-5.445,1.358-5.445,4.76
			c0,2.722,2.042,4.766,5.445,4.766C316.137,310.766,317.5,308.722,317.5,306z"/>
	</g>
</g>
<g>
	<g>
		<path fill="#333333" d="M291.5,522c0-3.402-1.363-4.762-4.766-4.762c-3.404,0-5.445,1.358-5.445,4.762
			c0,2.721,2.043,4.765,5.445,4.765S291.5,524.721,291.5,522z"/>
	</g>
</g>
<g>
	<g>
		<path fill="#333333" d="M107.266,171.235c0-3.402-1.363-4.761-4.766-4.761c-3.404,0-5.445,1.359-5.445,4.761
			c0,2.721,2.042,4.765,5.445,4.765C105.902,176,107.266,173.956,107.266,171.235z"/>
	</g>
</g>
<g>
	<g>
		<path fill="#333333" d="M328.266,525.235c0-3.402-1.362-4.762-4.766-4.762c-3.404,0-5.445,1.358-5.445,4.762
			c0,2.721,2.042,4.765,5.445,4.765C326.902,530,328.266,527.956,328.266,525.235z"/>
	</g>
</g>
<g>
	<g>
		<path fill="#333333" d="M314.266,534.235c0-3.402-1.362-4.762-4.766-4.762c-3.404,0-5.445,1.358-5.445,4.762
			c0,2.721,2.043,4.765,5.445,4.765S314.266,536.956,314.266,534.235z"/>
	</g>
</g>
<g>
	<g>
		<path fill="#333333" d="M283.266,498.235c0-3.402-1.363-4.762-4.766-4.762c-3.404,0-5.445,1.358-5.445,4.762
			c0,2.721,2.043,4.765,5.445,4.765S283.266,500.956,283.266,498.235z"/>
	</g>
</g>
<g>
	<g>
		<path fill="#333333" d="M297.266,548.235c0-3.402-1.363-4.762-4.766-4.762c-3.404,0-5.445,1.358-5.445,4.762
			c0,2.721,2.043,4.765,5.445,4.765S297.266,550.956,297.266,548.235z"/>
	</g>
</g>
<g>
	<g>
		<path fill="#333333" d="M322.711,559c0-3.402-1.362-4.762-4.766-4.762c-3.404,0-5.445,1.358-5.445,4.762
			c0,2.721,2.042,4.765,5.445,4.765C321.348,563.765,322.711,561.721,322.711,559z"/>
	</g>
</g>
<g>
	<g>
		<path fill="#333333" d="M194.266,434.762c0-3.401-1.363-4.762-4.766-4.762c-3.404,0-5.445,1.359-5.445,4.762
			c0,2.722,2.042,4.765,5.445,4.765C192.902,439.525,194.266,437.482,194.266,434.762z"/>
	</g>
</g>
<g>
	<g>
		<path fill="#333333" d="M190.266,453.235c0-3.402-1.363-4.762-4.766-4.762c-3.404,0-5.445,1.358-5.445,4.762
			c0,2.721,2.042,4.765,5.445,4.765C188.902,458,190.266,455.956,190.266,453.235z"/>
	</g>
</g>
<g>
	<g>
		<path fill="#333333" d="M206.266,467.235c0-3.402-1.363-4.762-4.766-4.762c-3.404,0-5.445,1.358-5.445,4.762
			c0,2.721,2.043,4.765,5.445,4.765S206.266,469.956,206.266,467.235z"/>
	</g>
</g>
<g>
	<g>
		<path fill="#333333" d="M140.711,499c0-3.402-1.363-4.762-4.766-4.762c-3.404,0-5.445,1.358-5.445,4.762
			c0,2.721,2.042,4.765,5.445,4.765C139.347,503.765,140.711,501.721,140.711,499z"/>
	</g>
</g>
<g>
	<g>
		<path fill="#333333" d="M166.711,494c0-3.402-1.363-4.762-4.766-4.762c-3.404,0-5.445,1.358-5.445,4.762
			c0,2.721,2.042,4.765,5.445,4.765C165.348,498.765,166.711,496.721,166.711,494z"/>
	</g>
</g>
<g>
	<g>
		<path fill="#333333" d="M156.5,514c0-3.402-1.363-4.762-4.766-4.762c-3.404,0-5.445,1.358-5.445,4.762
			c0,2.721,2.042,4.765,5.445,4.765C155.136,518.765,156.5,516.721,156.5,514z"/>
	</g>
</g>
<g>
	<g>
		<path fill="#333333" d="M142.711,529c0-3.402-1.363-4.762-4.766-4.762c-3.404,0-5.445,1.358-5.445,4.762
			c0,2.721,2.042,4.765,5.445,4.765C141.347,533.765,142.711,531.721,142.711,529z"/>
	</g>
</g>
<g>
	<g>
		<path fill="#333333" d="M166.266,534.235c0-3.402-1.363-4.762-4.766-4.762c-3.404,0-5.445,1.358-5.445,4.762
			c0,2.721,2.042,4.765,5.445,4.765C164.902,539,166.266,536.956,166.266,534.235z"/>
	</g>
</g>
<g>
	<g>
		<path fill="#333333" d="M182.266,546.235c0-3.402-1.363-4.762-4.766-4.762c-3.404,0-5.445,1.358-5.445,4.762
			c0,2.721,2.042,4.765,5.445,4.765C180.902,551,182.266,548.956,182.266,546.235z"/>
	</g>
</g>
<g>
	<g>
		<path fill="#333333" d="M152.5,551c0-3.402-1.363-4.762-4.766-4.762c-3.404,0-5.445,1.358-5.445,4.762
			c0,2.721,2.042,4.765,5.445,4.765C151.137,555.765,152.5,553.721,152.5,551z"/>
	</g>
</g>
<g>
	<g>
		<path fill="#333333" d="M131.032,561.471c0-3.402-1.363-4.762-4.766-4.762c-3.404,0-5.445,1.358-5.445,4.762
			c0,2.721,2.042,4.765,5.445,4.765C129.668,566.235,131.032,564.191,131.032,561.471z"/>
	</g>
</g>
<g>
	<g>
		<path fill="#333333" d="M168.266,565.762c0-3.402-1.363-4.762-4.766-4.762c-3.404,0-5.445,1.358-5.445,4.762
			c0,2.721,2.042,4.765,5.445,4.765C166.902,570.526,168.266,568.482,168.266,565.762z"/>
	</g>
</g>
<g>
	<g>
		<path fill="#333333" d="M197.711,560c0-3.402-1.363-4.762-4.766-4.762c-3.404,0-5.445,1.358-5.445,4.762
			c0,2.721,2.043,4.765,5.445,4.765S197.711,562.721,197.711,560z"/>
	</g>
</g>
</svg>
