<?xml version="1.0" encoding="utf-8"?>
<!-- Generator: Adobe Illustrator 13.0.0, SVG Export Plug-In . SVG Version: 6.00 Build 14948)  -->
<!DOCTYPE svg PUBLIC "-//W3C//DTD SVG 1.1//EN" "http://www.w3.org/Graphics/SVG/1.1/DTD/svg11.dtd">
<svg version="1.1" id="圖層_1" xmlns="http://www.w3.org/2000/svg" xmlns:xlink="http://www.w3.org/1999/xlink" x="0px" y="0px"
	 width="372px" height="587px" viewBox="0 0 372 587" enable-background="new 0 0 372 587" xml:space="preserve">
<g>
	<g>
		<path fill="#D96038" d="M317.129,246.489c-6.609,16.524-17.187,30.409-30.406,42.964c-13.219,11.896-29.082,20.494-46.93,26.438
			c-32.389,9.916-64.775,7.275-94.52-8.591c-30.406-15.867-50.897-40.318-61.47-72.708c-5.29-17.848-7.271-36.354-4.628-54.202
			c2.643-17.848,8.591-34.373,18.506-49.574c-27.098,16.524-46.269,40.982-57.504,70.727c-11.238,30.403-11.899,61.47-2.643,91.879
			c11.235,38.33,35.031,66.1,70.062,84.6c35.034,17.854,71.388,21.158,109.063,9.914c31.067-9.914,56.184-28.414,74.692-54.854
			C309.857,307.301,317.791,278.214,317.129,246.489z"/>
	</g>
	<g>
		<path d="M319.772,246.489c0-1.982-0.662-2.64-2.645-3.305c-0.661,0-1.98,1.323-2.644,1.982
			c-6.609,15.866-17.187,30.402-30.405,42.305c-13.22,11.896-28.421,21.146-45.606,25.781c-15.205,5.28-31.068,6.609-46.932,5.28
			c-16.524-1.976-31.067-5.945-45.607-13.22c-29.745-15.859-49.574-40.318-59.489-72.043c-5.29-16.525-6.61-34.373-4.628-51.556
			c2.644-17.848,7.933-34.373,17.848-49.574c0.662-1.323,0-2.646-0.662-3.305h-3.305c-27.101,17.183-46.93,41.641-58.165,72.708
			c-11.238,30.403-11.9,61.47-1.985,93.196c11.238,38.342,35.692,66.757,70.727,85.27c35.692,19.172,72.708,22.477,111.706,9.915
			c31.067-9.257,56.185-27.763,75.353-54.202C311.843,308.617,320.434,278.873,319.772,246.489z M33.567,251.117
			c0-21.153,5.287-42.306,15.202-62.135c9.253-19.83,23.134-36.354,40.982-49.574c-9.915,19.171-14.542,37.678-14.542,57.507
			c0,13.219,2.643,25.116,5.948,37.677c5.29,16.524,13.22,31.061,23.796,43.622c11.238,13.219,23.796,23.793,38.997,31.068
			c14.543,7.933,30.406,13.22,47.592,14.543c16.524,1.981,33.049-0.658,48.912-5.293c32.388-9.915,56.846-30.403,73.37-62.129
			c-0.662,29.744-9.915,56.184-28.422,79.984c-17.848,23.791-40.981,39.657-69.402,48.907
			c-37.016,11.238-72.708,7.935-107.081-9.914c-33.71-17.849-56.845-45.604-68.742-82.623
			C35.549,279.538,33.567,265.653,33.567,251.117z"/>
	</g>
	<g>
		<path d="M309.196,253.099c1.322,0,1.983-1.982,1.322-3.305c0-1.981-1.322-1.981-3.306-1.981
			c-13.22,3.963-27.763,11.896-43.625,23.134c-31.727,23.134-53.541,54.196-65.438,92.538c-3.967,11.896-5.947,23.793-5.947,35.031
			c0,6.609,0.661,15.859,2.643,26.438l1.323,17.848c-0.661,5.952-2.646,11.231-5.951,15.866l-15.201,12.555l-16.525,6.61
			c-6.61,1.98-11.896,3.97-14.543,5.945c-5.286,2.646-9.253,6.608-11.234,10.579c-4.628,10.579-4.628,20.493,0.662,30.408
			c6.61,13.221,17.844,20.488,34.369,23.136c6.61,0.657,12.558-1.33,17.848-6.61l8.591-13.22c1.323-4.635,2.645-9.914,1.323-14.549
			c-0.661-6.61-3.305-11.231-8.595-13.879c-7.269-3.306-14.54-2.646-21.812,1.987c-3.305,1.977-5.948,4.622-5.948,7.27
			c0,4.622,1.982,8.592,5.948,12.562c1.323,0.658,2.644,0.658,3.305,0c1.981-1.33,1.981-2.646,0-3.305
			c-2.644-3.97-3.967-6.61-3.305-7.939l2.644-4.622c5.948-3.305,11.238-3.305,16.524-0.657c3.966,1.315,5.948,4.62,6.61,9.25
			c0.661,7.933-1.981,15.858-9.253,22.469c-3.967,4.635-7.933,6.609-13.22,5.293c-14.543-1.987-24.458-8.598-30.406-19.829
			c-4.625-8.598-5.287-17.183-0.662-25.122c1.985-3.306,4.628-6.61,9.256-9.25l31.064-11.896c6.61-3.965,12.558-7.935,16.524-13.878
			c3.967-5.952,6.609-11.245,7.271-17.854l-1.323-19.83c-1.981-10.572-2.644-19.164-2.644-25.109
			c0-10.578,1.322-22.476,5.289-33.713c11.896-37.679,33.05-68.08,63.453-89.898C281.438,264.336,295.977,256.403,309.196,253.099z"
			/>
	</g>
	<g>
		<path d="M342.245,286.147c12.562-34.372,24.458-62.793,36.354-84.604c0.661-1.323,0-2.646-1.319-3.305
			c-1.985-1.323-2.645-1.323-3.968,0.658c-11.237,22.476-23.135,50.897-36.354,85.928c-25.778,70.062-42.965,138.147-52.218,205.563
			c0,1.33,0.662,1.988,2.644,2.646c1.323,0,2.644-0.658,2.644-1.981C299.281,424.289,316.468,356.216,342.245,286.147z"/>
	</g>
	<g>
		<path fill="#9260C7" d="M279.451,525.425c7.934,1.982,11.9-3.305,11.238-15.866l-3.306-19.171l-11.237,15.866
			C270.198,516.827,270.859,523.437,279.451,525.425z"/>
	</g>
	<g>
		<path d="M293.333,504.938l-3.306-15.209l-1.981-1.98c-0.661,0-1.983,0-2.644,0.664c-2.646,3.306-5.951,7.269-9.256,13.22
			c-5.287,8.586-7.931,14.537-5.948,19.83c1.323,3.305,3.967,5.28,8.595,6.609c4.625,0.659,7.93,0,11.234-2.646
			C293.333,521.462,293.994,514.852,293.333,504.938z M280.113,522.778c-2.645-0.658-3.967-1.316-5.286-3.306v-1.98
			c0-5.287,3.966-12.556,11.233-21.153l1.984,15.208c0,5.28-0.661,8.585-1.984,9.915L280.113,522.778z"/>
	</g>
	<g>
		<path fill="#9260C7" d="M262.927,434.204c-7.93-9.25-13.878-10.573-18.506-4.622c-4.628,6.61-1.323,11.896,9.915,15.866
			l17.848,4.622L262.927,434.204z"/>
	</g>
	<g>
		<path d="M242.439,428.259c-2.646,3.971-3.307,7.275-1.985,10.58c1.985,3.963,7.271,7.927,16.524,10.573l14.543,3.305l2.644-1.323
			v-2.64c-7.933-15.866-15.863-24.465-22.474-25.123C247.727,422.973,244.421,424.954,242.439,428.259z M251.029,428.924
			c5.287,0,9.916,5.945,16.525,17.842c-13.22-2.646-20.49-5.95-22.474-9.915v-1.98l1.319-3.305
			C247.727,428.924,249.707,428.259,251.029,428.924z"/>
	</g>
	<g>
		<path d="M270.859,452.059l19.168,13.878h3.306c0.661-1.322,0.661-2.646,0-3.963l-19.829-13.885h-3.307
			C268.879,450.07,269.537,451.394,270.859,452.059z"/>
	</g>
	<g>
		<path fill="#9260C7" d="M312.501,458.004l17.848-1.323c11.896-1.981,15.863-7.269,12.559-14.537
			c-3.966-6.608-9.914-6.608-18.506,1.977C320.434,448.089,315.806,452.059,312.501,458.004z"/>
	</g>
	<g>
		<path d="M336.959,434.869c-7.271,0-16.525,6.608-27.102,21.151v2.646l1.984,1.976l15.201-1.315
			c9.915-0.659,15.862-3.307,18.506-7.27c1.323-3.305,1.323-6.609,0-10.58C343.568,437.509,340.264,434.869,336.959,434.869z
			 M317.129,454.698c8.592-9.914,15.201-15.201,19.168-14.543c1.323,0,3.305,1.322,3.967,3.964l0.661,3.305l-0.661,1.33
			C338.282,452.717,330.349,454.698,317.129,454.698z"/>
	</g>
	<g>
		<path d="M310.52,455.363l-20.49,10.572c-1.982,1.316-2.645,1.981-1.982,3.306c1.32,1.98,2.645,2.646,3.967,1.98l21.149-11.236
			c1.323-1.317,1.985-1.981,1.323-3.306C313.824,454.698,312.501,454.698,310.52,455.363z"/>
	</g>
	<g>
		<path fill="#9260C7" d="M256.979,388.602c-5.947,5.943-3.305,11.896,6.61,17.188c5.29,3.306,10.576,5.944,17.187,7.269
			l-6.609-17.184C268.217,385.96,262.27,383.313,256.979,388.602z"/>
	</g>
	<g>
		<path d="M264.912,383.313c-3.967-0.658-7.271,0.658-10.576,3.965c-2.645,2.646-3.967,5.951-3.307,9.914
			c1.982,4.629,6.611,8.599,15.203,13.22l13.881,5.293l2.644-0.665l0.661-2.641l-5.947-13.885
			C274.165,389.924,269.537,385.295,264.912,383.313z M256.316,395.21c0-1.981,0.662-3.306,1.984-3.97
			c1.982-1.977,3.307-2.641,5.287-2.641c3.967,1.323,8.596,7.934,13.221,20.494c-12.56-3.97-19.168-8.599-20.492-13.22V395.21z"/>
	</g>
	<g>
		<path d="M278.793,411.734c-1.322,0.664-1.322,2.641,0,3.305l17.184,16.525c1.323,1.98,2.646,1.98,3.967,0
			c0.662-0.665,0.662-1.982,0-3.307l-17.187-16.523C281.438,410.411,280.773,410.411,278.793,411.734z"/>
	</g>
	<g>
		<path fill="#9260C7" d="M321.757,415.704l18.507,1.317c11.896-0.66,16.524-4.623,13.881-11.896
			c-1.983-7.934-8.595-8.592-18.509-1.98C330.349,406.448,326.382,411.068,321.757,415.704z"/>
	</g>
	<g>
		<path d="M356.788,404.46c-1.323-5.28-3.967-7.927-7.271-7.927c-5.285-1.323-10.575,1.316-18.506,6.609l-11.237,11.231
			c-0.662,0.664-0.662,1.329,0,1.987l1.322,1.981c17.846,3.306,29.082,1.323,34.369-3.97
			C358.111,411.734,358.111,408.43,356.788,404.46z M352.16,405.79c0.661,2.64,0,3.963-0.658,5.278
			c-3.306,3.971-11.238,3.971-24.458,2.646c9.915-8.591,16.524-13.22,21.152-11.896C350.178,401.82,351.502,403.145,352.16,405.79z"
			/>
	</g>
	<g>
		<path d="M321.096,413.059l-23.135,7.926c-1.322,0.666-1.322,1.331-1.322,3.306c0.661,1.33,1.322,1.988,3.305,1.33l23.135-7.274
			l1.323-3.306C323.739,413.059,323.077,412.398,321.096,413.059z"/>
	</g>
	<g>
		<path fill="#9260C7" d="M284.08,342.996l15.201,11.23l-1.981-18.506c-3.306-11.238-7.934-15.201-14.543-11.238
			C275.488,328.445,276.146,335.057,284.08,342.996z"/>
	</g>
	<g>
		<path d="M291.352,321.837l-10.576,0.665c-3.305,1.98-5.947,4.628-5.947,8.591c0,4.63,3.305,10.573,10.576,16.525l11.896,8.598
			h3.306l0.66-1.987C301.266,336.387,297.961,325.807,291.352,321.837z M289.366,325.807c3.967,2.641,5.95,9.916,7.271,23.135
			c-10.576-6.609-15.863-13.219-15.863-17.849c0-1.981,0.662-2.646,3.307-4.62L289.366,325.807z"/>
	</g>
	<g>
		<path d="M297.961,352.246c-1.322,0.665-1.984,1.98-1.322,3.305l11.898,20.494c1.32,1.977,1.981,2.641,3.964,1.977l0.661-3.963
			l-11.896-21.146C300.604,351.581,299.281,350.923,297.961,352.246z"/>
	</g>
	<g>
		<path fill="#9260C7" d="M333.653,377.361l17.849,5.951c11.234,2.646,17.183,0,16.524-7.933c0-7.935-5.952-9.915-17.85-6.61
			L333.653,377.361z"/>
	</g>
	<g>
		<path d="M365.38,365.466c-3.964-1.981-10.573-0.665-19.168,2.64l-13.882,7.275l-1.319,2.641l1.981,1.33l13.881,5.943h19.83
			c2.643-2.641,4.628-5.943,3.966-9.914C370.008,371.411,368.685,368.105,365.38,365.466z M363.397,380.667
			c-3.967,1.987-11.896,1.323-23.797-3.963c11.9-5.952,19.168-7.935,23.136-5.952c1.983,0.659,2.644,1.988,2.644,4.629
			S364.721,379.352,363.397,380.667z"/>
	</g>
	<g>
		<path d="M333.653,374.716l-23.796,1.329c-1.981,0-2.645,1.316-2.645,2.641c0,1.981,0.662,3.306,3.306,3.306l23.135-1.981
			l1.981-0.658l0.661-1.987C336.297,375.381,335.636,374.716,333.653,374.716z"/>
	</g>
	<g>
		<path fill="#9260C7" d="M327.044,264.995c-0.662-6.609-1.323-12.561-3.305-18.506c-3.307-11.238-7.935-14.543-14.543-9.915
			c-7.27,3.97-5.948,9.915,2.646,17.848L327.044,264.995z"/>
	</g>
	<g>
		<path d="M317.791,233.269c-2.645-1.982-6.61-1.982-10.577,0.665c-3.305,2.64-5.286,5.28-5.286,9.25
			c0.658,7.275,7.931,15.202,23.793,24.458h2.646c1.319-0.659,1.319-1.323,1.319-2.647l-2.644-15.201
			C325.721,241.202,322.416,235.25,317.791,233.269z M310.52,237.897h5.286c3.968,1.982,6.61,9.256,7.935,21.812
			c-10.577-6.61-16.525-12.555-16.525-16.525v-0.665C307.214,241.202,307.876,239.879,310.52,237.897z"/>
	</g>
	<g>
		<path d="M325.721,263.013c-1.98,1.323-1.98,1.981-1.319,3.305l12.559,20.494c0.661,1.975,2.643,1.975,3.966,0.658
			c1.32-0.658,1.981-1.323,0.662-3.305l-12.562-20.488C327.705,262.348,327.044,261.69,325.721,263.013z"/>
	</g>
	<g>
		<path fill="#9260C7" d="M361.416,289.453l17.184,5.943c11.899,1.988,17.849-0.657,16.524-8.584c0-7.939-5.948-9.915-17.184-5.952
			L361.416,289.453z"/>
	</g>
	<g>
		<path d="M393.143,277.556c-4.629-2.646-11.237-1.323-19.829,1.981c-5.286,1.982-9.915,4.628-13.221,7.275l-1.323,2.641l1.323,1.98
			c16.524,7.934,27.764,9.256,34.373,4.629c2.644-1.982,3.963-5.288,3.963-9.25C397.771,281.52,396.447,278.873,393.143,277.556z
			 M390.499,282.178c1.32,0.665,2.644,2.646,2.644,4.635c0,2.641-0.661,3.963-1.981,5.28c-3.966,3.306-11.899,1.329-23.796-3.306
			C378.6,282.178,386.532,280.203,390.499,282.178z"/>
	</g>
	<g>
		<path d="M361.416,286.147l-24.457,1.323c-1.323,0-1.982,1.316-1.982,2.646c0,1.976,1.32,2.641,2.645,2.641l24.454-0.665
			l1.984-3.306C364.06,286.813,363.397,286.147,361.416,286.147z"/>
	</g>
	<g>
		<path fill="#9260C7" d="M342.906,227.982c0.662-5.952,0-12.562-0.661-17.848c-1.981-11.896-6.609-16.524-14.54-12.555
			c-6.609,3.963-6.609,9.25,1.32,18.5L342.906,227.982z"/>
	</g>
	<g>
		<path d="M340.925,230.629l2.645,0.658l1.98-2.646c1.323-18.506-1.98-29.086-7.93-33.708c-3.305-1.323-6.609-1.323-10.576,0
			c-3.967,1.982-6.61,5.287-6.61,8.591C319.772,211.458,327.044,220.049,340.925,230.629z M325.721,204.848v-0.659
			c0-1.988,1.323-2.646,3.968-3.97c1.983-1.323,3.966-1.323,4.628,0c3.967,1.981,5.947,9.915,5.947,23.134
			C330.349,215.421,325.721,209.47,325.721,204.848z"/>
	</g>
	<g>
		<path d="M342.245,225.994c-1.981,0.665-2.645,1.988-1.981,3.97l10.576,21.153c1.32,1.982,1.981,1.982,3.967,1.317
			c1.319-1.317,1.981-1.975,0.658-3.963l-9.915-21.146C344.23,225.336,343.568,225.336,342.245,225.994z"/>
	</g>
	<g>
		<path fill="#9260C7" d="M312.501,305.313l-3.305-18.5c-3.307-10.58-8.593-14.549-15.202-10.58
			c-6.609,4.628-5.948,10.58,3.306,18.506L312.501,305.313z"/>
	</g>
	<g>
		<path d="M303.248,272.928l-10.577,1.323c-3.305,2.647-5.286,5.287-5.286,9.257c0,7.268,8.592,15.859,23.796,23.793h2.645
			l1.323-1.988l-1.985-15.194C310.52,280.861,307.214,275.568,303.248,272.928z M295.316,278.873l5.287-1.317
			c3.968,2.646,7.271,9.915,8.593,22.476c-11.235-6.61-16.525-12.562-16.525-17.189C292.671,281.52,293.333,280.203,295.316,278.873
			z"/>
	</g>
	<g>
		<path d="M311.181,302.672c-1.322,1.323-1.983,2.641-0.661,3.971l13.221,19.83c0.661,1.975,1.98,1.975,3.305,0.657
			c1.981-0.657,1.981-1.323,0.661-3.305l-13.22-19.83C313.824,302.672,313.162,302.008,311.181,302.672z"/>
	</g>
	<g>
		<path fill="#9260C7" d="M348.196,327.788l17.184,5.952c11.899,2.646,17.848,0,16.524-7.934c0-7.934-5.948-9.916-17.185-6.609
			L348.196,327.788z"/>
	</g>
	<g>
		<path d="M379.923,316.557c-4.629-2.646-11.238-1.328-19.83,1.977c-5.286,1.988-9.915,4.635-13.22,7.273l-1.323,2.641l1.323,1.988
			c16.524,7.926,27.763,9.256,34.373,5.287c2.643-2.642,3.963-5.945,3.963-9.916C384.551,320.521,383.228,317.874,379.923,316.557z
			 M377.94,331.093c-3.967,2.647-11.899,1.324-23.797-3.963c11.235-5.95,19.169-7.933,23.136-5.95
			c1.319,0.657,2.644,1.987,2.644,4.627C379.923,328.447,379.261,329.775,377.94,331.093z"/>
	</g>
	<g>
		<path d="M347.535,325.143l-23.796,1.33l-1.323,1.315l-0.659,1.323c0,1.98,1.32,3.306,2.645,3.306l23.796-1.981
			c1.98,0,2.644-1.324,2.644-2.646C350.84,325.807,350.178,325.143,347.535,325.143z"/>
	</g>
	<g>
		<path d="M182.289-26.497c-17.848-23.134-31.729-42.964-40.321-60.812l-3.966-1.323c-1.32,1.323-1.982,2.646-0.662,3.963
			c8.595,17.854,21.814,38.342,40.982,61.477c36.354,44.945,79.979,81.3,130.215,109.062c1.981,0.659,2.644,0,3.964-1.323
			c0.661-1.981,0.661-3.305-1.32-3.305C261.607,54.139,218.643,17.784,182.289-26.497z"/>
	</g>
	<g>
		<path fill="#858585" d="M301.928,62.078c9.915,2.64,18.506-0.665,27.099-11.903c-9.915-8.592-19.829-10.573-28.421-5.952
			l-11.238,10.58L301.928,62.078z"/>
	</g>
	<g>
		<path d="M287.385,52.822c-0.662,1.317-0.662,1.981,0,3.305l6.609,5.287c5.287,3.305,9.915,4.628,15.202,4.628
			c7.933-0.659,15.204-4.628,21.813-13.878c1.319-1.33,1.319-2.646-0.662-3.97c-7.271-6.61-15.862-9.915-23.796-8.591
			c-5.287,0.658-9.915,3.305-13.882,7.268C289.366,49.517,287.385,52.163,287.385,52.822z M324.4,50.833
			c-4.628,5.952-10.576,9.256-15.204,9.256c-5.948,0.658-11.235-1.981-15.863-5.951c3.967-5.945,8.595-8.585,13.881-9.25
			C313.162,44.224,319.11,46.212,324.4,50.833z"/>
	</g>
	<g>
		<path d="M291.352,52.822l-1.984-1.323l-22.473,1.981c-1.981,0.659-2.645,1.323-2.645,3.305c0,1.988,1.323,2.646,3.307,2.646
			l22.473-2.646c1.322,0,2.643-0.659,1.984-2.646L291.352,52.822z"/>
	</g>
	<g>
		<path fill="#858585" d="M250.369,26.382l10.576,9.915c9.914,3.963,19.168,1.982,29.082-6.61
			c-9.254-10.573-18.506-14.543-27.76-11.238L250.369,26.382z"/>
	</g>
	<g>
		<path d="M291.352,31.004c1.981-0.658,1.981-1.975,0-3.305c-6.609-7.927-13.881-12.555-21.813-13.22
			c-5.287,0-9.915,1.988-15.201,5.293l-6.61,5.287c-0.66,1.323-0.66,1.981,0,3.305l5.948,5.945c3.968,3.97,9.253,5.951,13.882,6.61
			C275.488,41.583,283.418,38.943,291.352,31.004z M268.217,35.639c-4.628-0.665-9.915-3.305-14.543-8.598
			c5.29-4.622,10.576-7.268,15.863-7.268c5.29,0.658,10.576,3.305,15.865,9.256C280.113,33.65,274.165,36.297,268.217,35.639z"/>
	</g>
	<g>
		<path d="M224.591,25.059c0,1.981,0.662,2.64,2.644,2.64l22.474,1.988c1.985,0,3.306-1.323,3.306-2.646
			c0-1.981-1.32-3.305-2.644-3.305l-22.474-0.659C225.914,23.077,224.591,23.077,224.591,25.059z"/>
	</g>
	<g>
		<path fill="#858585" d="M232.523-15.265L221.948-5.35l12.558,7.275c9.915,3.305,19.168-0.665,27.102-11.896
			C251.029-18.57,241.116-19.887,232.523-15.265z"/>
	</g>
	<g>
		<path d="M263.589-8.655c1.323-1.316,1.323-1.975,0-3.305c-8.592-6.61-16.524-9.915-25.116-7.927
			c-4.627,0.659-9.252,3.305-13.882,7.269l-4.628,5.951c-0.658,1.317-0.658,2.646,0.662,3.305l5.947,4.622
			c4.629,3.305,10.576,4.635,15.205,3.97C250.369,5.229,257.641,0.602,263.589-8.655z M239.793-15.265
			c5.289-0.659,11.236,1.33,17.848,5.951c-5.947,5.952-10.576,9.256-16.523,9.256c-5.287,0.659-10.577-1.323-15.863-5.952
			C229.878-10.63,234.506-13.935,239.793-15.265z"/>
	</g>
	<g>
		<path d="M221.286-7.99l-21.812,2.64c-1.984,0-2.646,1.33-1.984,3.305c0,1.988,0.662,1.988,2.644,1.988l21.813-2.646
			c2.644,0,2.644-0.658,2.644-2.646C224.591-7.325,223.93-7.99,221.286-7.99z"/>
	</g>
	<g>
		<path fill="#858585" d="M197.49-31.79c9.253,5.293,19.168,3.97,29.083-4.622c-7.931-11.238-16.525-15.208-26.439-12.562
			l-12.559,7.269L197.49-31.79z"/>
	</g>
	<g>
		<path d="M191.542-48.314l-6.61,4.634c-0.662,1.317-0.662,1.976,0,3.305l5.287,5.945c3.967,4.628,8.596,7.275,13.883,7.933
			c7.271,1.317,15.861-1.323,23.795-7.933c1.981-1.323,1.981-1.981,0.662-3.305c-5.949-8.592-13.221-13.885-21.152-14.543
			C202.118-52.277,196.829-51.619,191.542-48.314z M206.743-46.984c5.29,0.658,11.237,3.963,15.866,10.573
			c-6.609,3.963-12.563,5.951-17.849,4.622c-5.948-0.658-9.915-3.963-13.881-9.915C196.17-45.667,201.457-47.649,206.743-46.984z"/>
	</g>
	<g>
		<path d="M162.459-45.009c-0.662,1.988,0,2.646,1.981,2.646l22.473,3.305c1.323,0,2.646-0.659,3.305-2.646l-2.644-2.64
			l-22.473-3.305C163.779-47.649,162.459-46.984,162.459-45.009z"/>
	</g>
	<g>
		<path fill="#858585" d="M276.809,95.786c-0.662,10.573,4.629,18.506,17.187,23.793c5.948-11.896,5.948-21.812-1.323-29.745
			l-11.896-7.268L276.809,95.786z"/>
	</g>
	<g>
		<path d="M299.281,95.127c-1.981-4.634-5.287-8.598-10.573-11.903l-7.271-3.963c-1.323,0-1.985,0-3.306,1.317l-3.305,7.275
			c-1.323,5.945-1.323,11.238-0.662,15.86c2.644,7.274,8.592,13.884,18.506,18.513c1.323,0,3.306,0,3.968-1.323
			C301.266,110.987,302.586,102.396,299.281,95.127z M278.793,97.103c0-2.64,1.32-7.269,2.645-11.232
			c5.947,1.982,10.576,5.952,12.558,11.232l1.981,7.274l-3.306,11.238c-6.608-3.305-11.896-7.933-13.22-13.22L278.793,97.103z"/>
	</g>
	<g>
		<path d="M272.842,58.108c-1.98,0.665-2.644,1.981-1.98,3.305l7.271,21.153c0.661,1.981,1.981,2.646,3.306,1.981
			c1.98,0,2.644-1.981,1.98-3.305l-7.271-21.153C274.827,58.108,274.165,58.108,272.842,58.108z"/>
	</g>
	<g>
		<path fill="#858585" d="M225.253,65.383c-3.967,9.25-1.323,19.165,7.931,28.415c10.575-9.25,13.219-17.841,9.914-27.756
			l-8.592-11.903L225.253,65.383z"/>
	</g>
	<g>
		<path d="M233.184,51.499l-5.949,5.945c-3.305,4.635-5.947,9.256-5.947,14.549c-1.323,7.927,1.98,15.86,9.915,23.793
			c1.323,1.317,2.644,1.317,3.305,0c8.593-7.268,12.56-14.543,12.56-23.134c-0.662-4.628-2.645-9.915-5.948-14.543l-4.63-5.945
			L233.184,51.499z M225.914,72.651c0.659-5.952,3.307-10.573,8.592-14.543c4.628,3.97,6.61,8.591,6.61,14.543v0.658
			c0,5.293-2.644,10.573-7.935,15.866c-5.285-5.952-7.269-11.238-7.269-15.208L225.914,72.651L225.914,72.651z"/>
	</g>
	<g>
		<path d="M232.523,31.004l-0.662,23.135c0,1.988,0.662,2.646,2.645,2.646s2.645-0.659,2.645-2.646l0.66-22.47
			c0-1.982-0.66-2.64-2.643-2.64C233.846,29.029,232.523,29.687,232.523,31.004z"/>
	</g>
	<g>
		<path fill="#858585" d="M191.542,36.297c-5.287,9.256-3.967,18.506,3.967,29.745c11.896-7.933,15.862-16.525,13.22-26.439
			l-6.609-13.22C198.152,28.364,194.848,32.333,191.542,36.297z"/>
	</g>
	<g>
		<path d="M212.033,46.212c1.32-4.628,0-9.915-3.305-15.208l-3.967-6.61l-3.306-0.658l-6.61,5.293
			c-3.966,3.963-7.271,8.585-7.933,13.878c-1.982,7.927,0.661,16.525,7.271,24.451l3.306,0.665
			C206.743,61.413,211.371,54.803,212.033,46.212z M207.404,44.224v1.988c-0.661,5.287-4.625,9.915-10.575,15.201
			c-3.964-5.287-5.287-9.915-5.287-13.884v-3.963c1.323-5.287,4.628-9.915,9.915-13.878
			C205.424,34.309,207.404,39.602,207.404,44.224z"/>
	</g>
	<g>
		<path d="M203.438,3.906l-3.305,22.476c-0.658,1.317,0,1.981,1.984,2.646l2.645-1.988l3.967-22.476c0-1.316-0.662-2.64-1.985-3.305
			C204.762,1.26,204.102,1.925,203.438,3.906z"/>
	</g>
	<g>
		<path fill="#858585" d="M158.493-16.582c-4.628,0-9.253,0.658-13.881,3.305c-9.253,4.622-13.219,13.22-11.896,27.098
			c13.22-0.658,21.811-5.951,25.116-15.866L158.493-16.582z"/>
	</g>
	<g>
		<path d="M161.136-16.582l-2.644-2.646c-8.591-0.659-16.524,2.646-21.811,7.933c-5.29,5.945-7.271,14.543-6.61,25.116
			c0,1.323,1.32,2.646,2.644,2.646c11.234-0.658,19.167-3.963,23.796-9.915C161.798-0.057,163.121-7.99,161.136-16.582z
			 M140.645-7.325c3.966-4.635,9.256-5.952,15.866-5.952v1.982c0,5.945-1.323,10.58-4.628,14.543
			c-3.305,3.963-8.591,6.609-17.186,7.268V8.534C134.697,1.925,137.34-3.362,140.645-7.325z"/>
	</g>
	<g>
		<path d="M171.712-35.094L157.169-18.57c-1.32,1.988-1.32,3.305,0,3.97h3.967l13.881-17.189c1.323-1.317,1.323-2.64,0-3.963
			L171.712-35.094z"/>
	</g>
	<g>
		<path fill="#858585" d="M314.485,97.103c5.947,8.598,15.862,11.244,28.421,8.598c-2.644-13.22-8.591-21.153-18.506-23.134
			l-14.543,0.658L314.485,97.103z"/>
	</g>
	<g>
		<path d="M332.33,82.566c-4.625-2.646-9.253-3.305-15.201-3.305l-7.933,1.982l-1.982,1.981l1.982,7.933
			c1.322,5.287,4.628,9.915,8.595,13.22c6.609,4.628,15.862,5.945,25.777,3.305c1.98,0,2.644-1.323,1.98-2.64
			C343.568,94.462,339.602,86.529,332.33,82.566z M313.162,85.212l16.524,1.975c4.629,2.646,7.934,8.598,9.914,15.866
			c-7.93,1.323-13.881,0-18.506-3.305C317.129,96.444,313.824,91.822,313.162,85.212z"/>
	</g>
	<g>
		<path fill="#FCCE00" d="M213.354,276.898l-74.689,29.081l4.628,5.943c2.644,3.971,3.963,8.6,1.982,11.903l-9.253,15.2
			c-4.628,5.945-6.61,11.238-6.61,15.859c1.32,7.275,7.93,13.221,18.506,15.208l33.711-0.657
			c20.491-5.951,41.64-14.551,62.793-27.104c21.812-13.22,32.388-23.799,32.388-32.384l-35.691,5.279
			c-25.116,4.635-37.678,5.293-39.659,0.664c-1.323-5.943,0-13.22,3.967-24.458L213.354,276.898z"/>
	</g>
	<g>
		<path d="M280.113,309.947l-1.981-3.307l-7.934-0.664l-20.491,3.971c-29.082,5.943-44.283,7.927-44.945,4.621
			c-2.644-7.269,1.323-18.506,11.238-36.354c1.318-0.658,1.318-1.981,0-3.305c-1.322-1.982-1.984-1.982-3.967-0.659l-74.031,28.421
			c-1.32,0-1.982,1.323-1.982,2.642l0.662,3.305l3.963,3.97c1.985,3.97,2.646,7.274,1.323,10.58l-5.948,9.914
			c-6.61,9.25-9.915,16.524-9.915,22.47c1.32,5.287,4.625,9.915,9.253,13.221c5.287,3.305,12.558,5.287,21.153,5.944l25.778-2.641
			c21.148-5.286,42.302-13.884,63.455-26.439C268.217,331.752,280.113,319.861,280.113,309.947z M149.24,320.521
			c0-4.629-1.323-8.6-4.628-13.221l61.474-24.458c-5.29,11.237-8.595,20.494-8.595,27.763c0,1.981,0.661,3.963,0.661,5.951
			c1.981,3.965,6.609,5.945,16.524,5.945l58.165-9.915c-1.98,7.274-13.22,16.524-32.388,28.421
			c-19.829,11.238-39.659,19.83-59.488,25.123l-23.135,2.641c-8.591-0.666-14.54-2.641-19.167-5.945
			c-3.305-2.646-5.287-5.293-5.948-7.939v-1.975c0-3.305,3.305-8.6,8.591-15.866l7.271-11.903L149.24,320.521z"/>
	</g>
	<g>
		<path d="M263.589,312.587c0.661-0.665,1.323-1.981,0.661-3.305c-1.323-0.665-1.98-0.665-3.305,0l-25.116,18.506
			c-20.491,12.562-38.339,21.153-54.863,24.458c-0.662,0.665-1.982,1.322-1.982,2.641c0.662,1.329,1.982,1.987,2.644,1.329
			c17.187-3.305,35.692-11.903,56.183-25.122L263.589,312.587z"/>
	</g>
	<g>
		<path d="M233.846,318.532c0.66-1.317,1.322-1.976,0.66-2.642c-0.66-1.322-1.322-1.98-3.305-0.664
			c-19.168,11.244-35.692,19.83-49.574,23.135c-0.662,0.664-1.323,0.664-1.323,1.988c0,1.98,1.323,1.98,1.985,1.98
			C197.49,338.361,214.016,330.436,233.846,318.532z"/>
	</g>
	<g>
		<path d="M204.762,319.861l0.662-2.646c-0.662-1.322-1.322-1.322-1.984-1.322L177,326.473c-1.981,0-1.981,0.657-1.981,2.639
			l2.643,0.666L204.762,319.861z"/>
	</g>
	<g>
		<path d="M182.951,311.264c-1.323,0.658-1.323,1.323-1.323,2.646c0,1.316,1.323,1.98,2.643,1.316l17.848-7.269
			c-1.323,0.658-1.984,0-2.643-1.317c-0.662-0.664-0.662-1.328,0.657-1.986L182.951,311.264z"/>
	</g>
	<g>
		<path fill="#FCCE00" d="M306.553,130.151c-7.93,5.952-16.523,13.885-26.438,22.476c-19.169,17.848-33.05,35.696-42.964,52.221
			l-19.83,3.305c-17.187,3.963-35.692,11.231-55.521,21.811l-43.625,21.153c-15.202,7.927-25.778,13.22-30.406,17.183
			c-4.625,4.628-7.93,9.256-9.915,15.208l-1.32,7.926l-12.558,10.574c-8.595,9.256-13.881,18.514-15.866,28.428
			c13.881-11.902,26.439-19.172,35.696-21.152l11.234,1.98c9.915,1.323,21.153,1.323,34.373-0.658
			c42.964-4.627,75.352-17.184,97.824-36.354c10.576-9.915,17.187-23.134,19.83-37.677v-19.83
			c36.354-10.58,63.455-22.469,80.641-35.031l-23.796-13.22L306.553,130.151z"/>
	</g>
	<g>
		<path d="M303.909,127.512c-5.286,3.305-13.882,11.238-26.438,23.134c-18.507,17.848-33.05,34.373-42.303,50.897
			c-20.491,0.658-45.607,9.915-74.693,25.116l-37.013,18.506c-20.491,9.915-33.711,17.183-37.677,20.488
			c-7.933,6.61-12.558,14.549-12.558,23.8c-4.628,3.305-9.915,7.933-14.543,13.219c-7.271,9.25-12.558,17.85-13.881,27.104v0.658
			c0,1.317,0.662,1.982,1.323,2.646l3.967-0.664c13.22-10.58,25.116-17.85,33.711-19.83l45.607,1.323
			c44.946-5.293,77.995-17.849,99.147-37.677c15.2-13.22,22.473-29.744,22.473-49.574l-0.661-7.275
			c37.017-11.89,63.455-23.792,79.318-35.024l1.322-2.646l-1.322-3.305l-22.475-12.562l2.645-35.696l-1.981-2.64h-3.968V127.512z
			 M300.604,168.494l1.981,1.982l18.51,11.238c-17.848,11.896-42.964,21.811-75.352,31.726c-1.323,1.323-1.985,1.981-1.985,3.305
			v1.323l0.662,8.592c0,17.848-6.609,33.049-19.83,44.287c-21.152,19.171-52.878,31.726-95.181,36.354
			c-12.558,1.981-23.796,1.981-33.049,1.316l-13.22-2.641c-7.933,1.323-17.848,6.609-28.424,14.543
			c3.305-6.609,7.933-12.562,15.205-18.513l8.591-7.928l1.323-2.646v-1.316c0-7.274,3.305-13.884,9.915-19.171
			c4.625-3.305,16.525-9.915,36.354-19.83l37.674-18.513c18.51-10.573,36.354-17.183,52.879-21.146l20.491-3.305
			c0.66,0,1.983-0.658,2.644-1.323c13.22-22.47,33.711-45.604,62.793-69.403L300.604,168.494z"/>
	</g>
	<g>
		<path d="M108.257,272.263c-4.625,0.665-8.591,1.988-12.558,5.293c-2.643,1.981-3.966,3.305-3.966,3.963
			c-1.32,2.646-0.662,3.963,0.662,4.628c1.981,1.323,2.643,0.665,3.966-0.665l3.305-3.305c2.643-1.975,5.287-2.64,8.591-3.305
			c2.644,0,3.305-1.317,3.305-3.305C111.563,272.928,110.901,272.263,108.257,272.263z"/>
	</g>
	<g>
		<path d="M74.546,290.775v8.592c0.662,5.945,3.967,9.915,7.933,11.896c1.982,1.322,2.644,0.657,3.967-1.316
			c0.662-1.33,0-2.646-1.323-3.307c-3.305-1.328-4.625-4.634-5.287-9.256v-5.293c0-2.64-1.323-3.306-2.643-3.306
			C75.208,288.787,74.546,289.453,74.546,290.775z"/>
	</g>
	<g>
		<path d="M306.553,150.646c0.661,0,0.661-1.323,0-2.64l-2.644-0.665c-22.474,18.506-40.982,37.019-56.185,56.184
			c-1.322,0.665-1.322,1.324,0,1.982h2.645C266.232,187,284.08,169.152,306.553,150.646z"/>
	</g>
	<g>
		<path d="M311.843,171.14l-41.645,21.805c-1.981,0.665-1.981,1.33-0.661,2.647c0,1.323,1.322,1.323,1.984,0.658l41.641-21.146
			l-2.644-1.323C310.52,172.457,310.52,171.799,311.843,171.14z"/>
	</g>
	<g>
		<path d="M151.221,249.793l-12.558,5.287c-0.662,1.323-0.662,1.988-0.662,2.646c0.662,1.317,1.323,1.982,2.643,1.317l11.899-5.945
			c1.982-0.665,2.644-1.982,1.32-3.305C153.865,248.47,152.544,248.47,151.221,249.793z"/>
	</g>
	<g>
		<path d="M158.493,260.373l-13.881,4.622c-1.32,0-1.981,1.324-0.662,2.647c0,0.658,1.324,1.316,1.985,0.658l13.219-3.963
			c1.982-0.658,1.982-1.323,1.982-3.305C160.475,260.373,159.154,259.708,158.493,260.373z"/>
	</g>
	<g>
		<path d="M164.441,272.928l-12.558,3.305c-0.662,0.665-1.323,1.323-0.662,3.305c0,1.323,0.662,1.323,1.985,1.323l12.558-4.628
			c1.32,0,1.982-1.323,1.32-1.982C167.084,272.928,165.764,272.928,164.441,272.928z"/>
	</g>
	<g>
		<path d="M165.103,284.166l-9.253,2.646c-0.662,0.658-1.323,1.975-0.662,2.641c0,1.322,0.662,1.322,2.643,1.322l9.253-3.305
			c1.323-0.658,1.323-1.323,0.662-2.646C167.746,283.508,166.426,282.843,165.103,284.166z"/>
	</g>
	<g>
		<path d="M184.932,233.934l-13.22,5.945c-0.662,1.323-0.662,1.981-0.662,3.305c0.662,0.665,1.323,1.323,2.644,0.665l13.22-5.952
			c0.661-0.658,1.322-1.323,0.661-3.305C186.914,233.934,185.594,233.269,184.932,233.934z"/>
	</g>
	<g>
		<path d="M190.219,244.507l-9.915,3.963c-1.982,0.659-1.982,1.323-1.982,2.646c0.662,1.317,1.982,1.982,3.305,1.317l9.915-4.622
			c1.323,0,1.981-1.323,1.323-2.646C192.204,244.507,191.542,243.849,190.219,244.507z"/>
	</g>
	<g>
		<path d="M192.865,256.403l-8.595,4.628c-1.32,0-1.981,1.316-1.32,1.981c0.658,1.323,1.981,1.323,2.643,1.323l9.253-4.628
			l0.662-1.982C194.848,256.403,194.186,255.738,192.865,256.403z"/>
	</g>
	<g>
		<path d="M196.829,266.983l-5.948,2.64c-1.32,0-1.982,1.323-1.32,1.981c0.658,1.323,1.32,1.988,2.645,1.323l5.947-1.981
			c1.324-0.658,1.981-1.323,1.324-3.305C198.813,266.318,198.152,266.318,196.829,266.983z"/>
	</g>
	<g>
		<path d="M221.948,220.714l-15.205,5.28c-1.981,0.665-1.981,1.33-1.981,2.646c0.662,1.323,1.981,1.323,2.645,1.323l15.861-5.287
			l1.323-2.646C224.591,220.714,223.268,220.049,221.948,220.714z"/>
	</g>
	<g>
		<path d="M225.253,233.269l-11.899,3.97c-1.981,0.658-1.981,1.317-1.981,2.64c0.662,1.323,1.981,1.323,3.306,1.323l11.896-4.628
			c1.322,0,1.322-0.665,1.322-1.981C227.896,233.269,226.573,233.269,225.253,233.269z"/>
	</g>
	<g>
		<path d="M225.253,244.507l-7.271,2.646c-1.323,0.659-1.323,1.317-1.323,2.64c0.661,1.323,1.323,1.323,2.646,1.323l7.27-3.305
			c1.322,0,1.322-0.659,1.322-1.988C227.896,244.507,226.573,244.507,225.253,244.507z"/>
	</g>
	<g>
		<path fill="#FCCE00" d="M225.253,109.664c-21.151,1.323-35.034,3.305-42.964,6.61c-13.881,7.933-29.745,19.171-46.269,35.696
			c-19.168,17.841-27.763,31.726-27.101,40.317c0.662,4.628,6.61,9.256,18.506,12.562c11.238,3.963,17.848,6.609,18.51,9.915
			c1.981,6.61-1.985,17.183-11.238,33.049l74.032-33.049l-0.662-12.562c-1.322-8.591-4.627-13.878-9.914-17.183l-14.542-3.305
			c-5.287-1.323-8.591-3.963-10.573-7.933c-1.985-4.628,8.592-15.201,31.727-31.726c22.473-16.525,38.996-27.098,50.896-31.732
			C246.402,109.664,236.486,109.664,225.253,109.664z"/>
	</g>
	<g>
		<path d="M224.591,106.359c-21.812,1.323-36.354,3.305-43.625,7.268c-15.202,7.275-30.406,19.171-47.589,35.696
			c-19.83,19.171-29.086,33.049-27.763,42.964c0.662,4.628,3.305,7.933,8.591,11.238c2.646,1.324,7.271,3.305,14.543,5.287
			c9.253,2.646,13.22,5.293,13.881,6.61c1.981,5.952-1.985,15.866-11.238,29.745c-0.662,1.988-0.662,3.305,1.323,4.628
			c1.981,1.323,3.305,1.323,4.625-0.665c9.915-15.86,13.881-27.756,11.238-35.689c-0.662-3.305-6.61-7.275-17.848-11.238
			c-11.896-3.305-17.845-6.609-18.506-10.573c-0.662-7.933,7.271-20.488,25.778-37.678c16.524-15.201,31.729-27.104,45.607-34.372
			c9.916-5.287,29.085-7.269,58.832-6.61c-13.883,7.933-28.426,17.848-43.627,29.086c-16.523,12.561-26.438,21.811-28.423,27.756
			v5.293c1.323,3.305,3.967,5.952,7.271,7.269l19.168,5.951c5.951,3.305,8.595,11.896,8.595,24.451v1.988
			c0,1.981,1.319,3.305,3.306,3.305c2.643,0,3.305-1.323,3.305-3.305l-0.662-13.878c-1.98-9.256-5.947-15.866-11.896-18.513
			l-19.17-5.287l-4.625-4.628c0.662-3.963,11.235-13.878,32.387-29.086c20.49-15.859,37.016-25.774,48.912-30.402
			c1.322,0,1.984-0.659,1.984-3.305c-0.662-1.981-1.322-2.646-3.305-2.646C245.082,106.359,235.168,106.359,224.591,106.359z"/>
	</g>
	<g>
		<path d="M204.762,109.664c-19.168,11.903-42.964,31.067-72.046,58.83c-0.662,0.659-0.662,1.317,0,1.982l3.305,0.665
			c28.421-27.104,52.217-46.934,71.385-58.171l0.66-3.305L204.762,109.664L204.762,109.664z"/>
	</g>
	<g>
		<path d="M224.591,108.347c-7.271,3.963-21.151,14.537-40.982,31.72l-29.744,25.123c-1.32,0.658-1.32,1.981,0,3.305
			c0.662,0.659,1.323,0.659,2.646,0l28.421-24.458c20.492-17.848,34.373-28.421,42.302-32.384l0.662-2.646L224.591,108.347z"/>
	</g>
	<g>
		<path d="M175.679,162.542L151.883,187c-1.323,0.665-1.323,1.323,0,1.982l2.644,0.658l23.796-24.451
			c1.982-0.659,1.982-1.323,0-2.646C177.661,161.884,176.999,161.884,175.679,162.542z"/>
	</g>
	<g>
		<path d="M162.459,194.933c-0.662,0.659-0.662,1.317,0.662,1.982c1.32,1.323,1.981,1.323,2.643,0l15.863-15.202h-2.644
			c-0.662-0.658-0.662-1.323,0-1.988L162.459,194.933z"/>
	</g>
	<g>
		<path d="M194.848,183.695l-23.797,21.153c-0.662,1.316-1.32,1.981,0,3.305h2.644l24.458-21.818l-3.305-0.658
			C194.186,185.019,194.186,184.36,194.848,183.695z"/>
	</g>
	<g>
		<path d="M188.898-128.291c-1.323-0.658-2.644,0-3.306,1.988c-3.966,19.165-12.558,41.634-25.119,68.073
			C134.697-6.667,101.647,38.279,59.345,75.956c-1.323,1.317-1.323,2.646-0.662,3.963c1.323,1.323,2.644,1.323,4.628,0
			c42.302-38.336,76.013-83.281,101.791-136.16c13.22-26.439,21.812-49.574,25.778-68.745
			C191.542-126.967,190.881-128.291,188.898-128.291z"/>
	</g>
	<g>
		<path fill="#858585" d="M34.888,50.175c10.576,9.256,20.491,10.573,29.086,5.293l10.573-10.58
			c-3.305-3.305-7.93-5.287-12.558-7.275C52.074,35.639,42.821,39.602,34.888,50.175z"/>
	</g>
	<g>
		<path d="M76.532,46.212c0.662-0.659,0.662-1.988,0-2.646c-6.61-6.61-13.881-9.256-21.814-8.592
			c-7.93,0-15.863,5.287-21.812,14.543c-0.662,0.659-0.662,1.982,0.662,3.305c7.93,6.61,16.525,9.256,24.455,7.926
			C65.955,59.432,71.903,54.803,76.532,46.212z M56.702,55.468c-5.29,0.658-11.238-0.665-17.848-5.293
			c5.29-6.61,9.915-9.915,15.863-9.915c5.29-0.658,10.576,1.323,16.524,5.952C65.955,51.499,61.327,54.803,56.702,55.468z"/>
	</g>
	<g>
		<path d="M96.361,39.602l-22.473,3.305c-1.985,0-1.985,0.659-1.985,2.646c0,1.976,1.323,2.64,2.643,1.976l22.476-2.64l2.644-3.305
			L96.361,39.602z"/>
	</g>
	<g>
		<path fill="#858585" d="M65.293-1.38C74.546,9.2,83.141,13.163,93.056,9.858c5.287-1.988,9.915-4.628,12.558-8.598
			c-2.644-3.963-5.948-7.269-10.577-9.25C85.123-12.618,75.208-9.972,65.293-1.38z"/>
	</g>
	<g>
		<path d="M63.974-3.362c-0.662,1.316-1.323,2.646-0.662,3.963c7.271,7.933,15.201,12.561,23.134,12.561
			c8.591,0,15.201-3.305,21.149-9.915v-3.305c-4.624-7.932-11.234-11.902-19.167-12.56C79.836-13.277,71.903-9.972,63.974-3.362z
			 M101.647,1.26c-5.287,4.635-9.915,6.61-15.201,6.61c-5.29,0-11.238-3.305-16.524-8.585c6.61-5.293,11.896-7.275,17.844-6.61
			C92.395-6.667,97.681-4.021,101.647,1.26z"/>
	</g>
	<g>
		<path d="M102.971,1.26l0.662,1.988l1.32,0.658l23.134,1.323l2.644-1.981c0-1.988-1.32-3.305-2.644-3.305L105.614-1.38
			C104.291-1.38,102.971-0.715,102.971,1.26z"/>
	</g>
	<g>
		<path fill="#858585" d="M87.766-17.24c11.238,7.269,21.153,7.927,29.745,2.64c3.966-3.305,7.271-7.274,9.256-11.238
			c-3.967-3.305-8.595-5.287-13.22-5.952C102.971-33.106,95.038-29.143,87.766-17.24z"/>
	</g>
	<g>
		<path d="M85.785-18.57c-0.662,1.988-0.662,2.646,0.662,3.305c8.591,5.951,17.845,8.598,25.116,5.951
			c7.933-1.981,13.881-7.268,17.848-15.201c0-1.323,0-1.982-1.323-3.305c-6.61-5.287-13.881-7.933-21.811-6.61
			C97.681-33.106,91.071-27.82,85.785-18.57z M106.938-29.143c5.948-0.658,11.235,0,15.863,3.963
			c-2.643,5.952-6.61,9.256-12.558,10.58c-5.29,1.982-11.238,0.665-18.509-3.305C96.361-25.18,101.647-28.484,106.938-29.143z"/>
	</g>
	<g>
		<path d="M148.578-33.106l-22.473,4.622c-1.323,0-1.985,1.988-1.985,3.305c0.662,1.988,1.985,1.988,3.305,1.988l21.814-5.293
			c1.981,0,2.643-1.317,1.981-2.64C151.221-33.106,149.901-33.106,148.578-33.106z"/>
	</g>
	<g>
		<path fill="#858585" d="M114.867-57.564c12.558,5.945,21.814,5.287,29.744-1.982c3.305-3.305,5.948-7.268,7.271-12.561
			c-3.966-2.646-9.253-3.963-13.881-3.963C128.087-76.07,119.496-69.46,114.867-57.564z"/>
	</g>
	<g>
		<path d="M112.224-58.887c-0.662,1.988,0,3.305,1.323,3.963c9.915,4.635,18.506,5.293,25.778,1.988
			c7.93-3.305,12.558-9.257,15.201-18.513c0.662-0.658,0-1.316-1.32-2.64c-7.933-4.628-15.204-5.287-23.134-3.305
			C122.8-74.753,116.19-68.802,112.224-58.887z M118.172-58.887c4.628-7.268,8.595-11.896,13.22-13.22l17.186,1.323
			c-2.643,6.61-6.61,11.238-11.238,12.555L118.172-58.887z"/>
	</g>
	<g>
		<path d="M171.712-82.68l-20.491,8.592c-1.981,0-2.643,1.323-1.981,3.305c0.662,1.323,1.981,1.982,3.305,1.323l21.15-7.933
			c1.985-0.665,2.646-1.981,1.323-3.305C175.018-82.68,173.694-82.68,171.712-82.68z"/>
	</g>
	<g>
		<path fill="#858585" d="M85.123,109.664c10.576-8.591,14.543-17.183,11.238-27.098L89.09,70.004l-9.915,11.238
			C74.546,89.834,76.532,99.09,85.123,109.664z"/>
	</g>
	<g>
		<path d="M91.071,68.023h-3.305l-5.948,5.287c-3.966,4.628-6.609,9.256-7.271,13.878c-1.32,7.939,1.324,15.866,8.595,24.464
			l3.305,0.658c8.591-6.61,13.22-14.543,13.881-22.476c0.658-5.287-1.323-10.573-3.967-15.201L91.071,68.023z M95.038,89.834
			c0,5.293-3.305,10.573-9.915,15.866c-3.967-5.951-5.948-10.573-5.948-14.543l0.662-3.305c0.662-4.628,3.305-9.915,8.591-14.543
			c4.628,5.293,6.61,9.915,6.61,15.866V89.834z"/>
	</g>
	<g>
		<path d="M89.089,47.529l-2.643,22.476l2.643,2.647c1.982,0,2.644,0,2.644-1.988l2.643-22.47c0-1.981-0.658-3.305-2.643-3.305
			C89.751,44.889,89.089,46.212,89.089,47.529z"/>
	</g>
	<g>
		<path fill="#858585" d="M138.002,70.663c7.271-11.231,7.271-21.146,1.323-29.744l-11.238-8.585L122.8,46.212
			C121.477,56.126,126.105,64.718,138.002,70.663z"/>
	</g>
	<g>
		<path d="M137.34,72.651c0.662,1.316,1.985,0.658,3.305-0.659c5.29-9.256,7.271-17.189,4.628-25.123
			c-1.324-5.287-4.628-9.256-9.253-13.22c-3.305-2.646-5.948-3.963-7.271-3.963c-0.662-0.658-1.981,0-2.643,0.659l-4.628,7.268
			c-1.981,5.293-1.981,10.58-1.32,15.866C121.477,61.413,127.425,68.023,137.34,72.651z M140.645,48.193l0.662,5.287
			c0,3.963-1.981,7.933-3.966,13.22c-6.61-3.963-11.235-8.591-12.558-13.878v-4.628c0-3.305,1.323-7.274,3.966-12.555
			C134.697,39.602,138.664,43.565,140.645,48.193z"/>
	</g>
	<g>
		<path d="M121.477,7.87c-1.981,0.665-1.981,1.988-1.981,3.305l5.948,21.818c0.662,1.317,1.323,1.981,2.643,1.981
			c1.985-0.665,2.644-1.981,2.644-3.305l-5.948-21.812C124.121,7.87,122.8,7.211,121.477,7.87z"/>
	</g>
	<g>
		<path fill="#858585" d="M178.322-15.265l-13.881,2.646l5.948,13.22c7.271,7.933,16.525,9.256,29.085,4.628
			C195.509-7.325,188.236-14.6,178.322-15.265z"/>
	</g>
	<g>
		<path d="M162.459-15.265l-0.662,3.305l2.643,7.275c1.985,5.287,5.948,9.25,9.915,11.896c7.271,3.963,15.863,3.963,26.439,0.659
			c1.323-0.659,1.323-1.317,1.323-3.305c-3.305-10.573-8.596-17.183-15.863-20.488l-15.205-1.317L162.459-15.265z M167.084-11.295
			c7.271-1.982,12.561-1.982,17.186,0c4.628,2.64,7.934,7.274,11.238,14.543H177.66C172.374-0.057,168.408-4.685,167.084-11.295z"/>
	</g>
	<g>
		<path d="M141.968-23.85c-1.323,1.317-0.662,2.64,0.662,3.963l19.83,9.915c1.981,0.658,2.643,0,3.966-1.323
			c1.32-1.982,0.659-2.64-1.323-3.97l-19.829-9.915C143.292-25.838,141.968-25.18,141.968-23.85z"/>
	</g>
	<g>
		<path fill="#858585" d="M178.322-33.106l-9.915-11.238l-7.271,11.896c-3.305,9.915,0,19.171,10.576,27.763
			C180.304-14.6,182.289-23.85,178.322-33.106z"/>
	</g>
	<g>
		<path d="M161.798-39.716c-3.305,4.622-4.628,9.915-4.628,14.537c0,8.598,3.967,15.866,12.562,22.476h3.963
			c7.271-8.591,10.576-16.524,9.256-23.793c-0.662-5.293-2.646-9.915-7.271-14.543l-5.29-5.287c-1.32-1.323-1.981-1.323-3.305,0
			L161.798-39.716z M161.798-25.18c0-5.945,2.643-11.231,7.271-15.86c5.287,4.628,7.93,9.25,8.591,14.543v1.982
			c0,5.287-2.643,9.915-6.61,15.859C165.103-14.6,161.798-19.887,161.798-25.18z"/>
	</g>
	<g>
		<path d="M167.084-69.46l-2.644,3.305l1.323,21.812c0,1.981,1.32,2.64,2.644,2.64c1.981,0,3.305-1.317,3.305-2.64l-1.981-22.47
			C169.731-68.802,168.408-69.46,167.084-69.46z"/>
	</g>
	<g>
		<path fill="#858585" d="M33.567,107.017c13.881,0,22.473-4.622,26.439-14.537l1.32-14.543l-14.54,2.64
			C36.873,84.547,32.906,93.139,33.567,107.017z"/>
	</g>
	<g>
		<path d="M61.327,75.298l-7.93,0.658c-5.948,0.658-11.238,3.305-14.543,6.61c-5.287,5.287-7.93,13.878-7.271,25.116
			c0,1.323,0.662,1.981,1.985,1.981c11.235,0,19.83-3.305,24.455-9.256c3.305-3.963,5.29-9.25,5.952-14.537l-0.662-7.933
			L61.327,75.298z M36.873,104.377c0-7.933,1.981-13.884,5.287-17.848c4.628-3.963,9.915-5.952,16.524-5.952v1.988
			c0,5.952-1.981,10.573-4.625,14.537C50.754,101.072,44.802,103.054,36.873,104.377z"/>
	</g>
</g>
<path id="PATH77" fill="none" stroke="#000000" stroke-width="3" stroke-miterlimit="100" d="M370.59,585.26H3.92V2.74h366.67
	V585.26L370.59,585.26z"/>
</svg>
