<?xml version="1.0" encoding="utf-8"?>
<!-- Generator: Adobe Illustrator 13.0.0, SVG Export Plug-In . SVG Version: 6.00 Build 14948)  -->
<!DOCTYPE svg PUBLIC "-//W3C//DTD SVG 1.1//EN" "http://www.w3.org/Graphics/SVG/1.1/DTD/svg11.dtd">
<svg version="1.1" id="圖層_1" xmlns="http://www.w3.org/2000/svg" xmlns:xlink="http://www.w3.org/1999/xlink" x="0px" y="0px"
	 width="372px" height="587px" viewBox="0 0 372 587" enable-background="new 0 0 372 587" xml:space="preserve">
<g>
	<g>
		<g>
			<g>
				<path fill="#858585" d="M187.711,285.413c-37.754,0-74.185,6.624-109.293,19.212c-33.117,12.58-63.588,30.466-91.406,54.31
					v262.298h400.075V358.935c-27.158-23.844-57.628-41.729-91.407-54.31C261.235,292.037,224.805,285.413,187.711,285.413z"/>
			</g>
		</g>
		<g>
			<g>
				<path d="M187.711,282.101c-37.094,0-73.524,5.964-107.966,19.212c-35.108,12.581-66.238,31.127-94.722,54.97l-1.323,0.666
					v267.597h406.698V356.948l-0.662-0.666c-27.818-23.843-59.614-42.389-94.72-54.97
					C260.572,288.064,224.142,282.101,187.711,282.101z M82.395,307.27c33.78-12.58,68.885-18.545,105.316-18.545
					c35.768,0,70.213,5.965,103.994,18.545c34.441,12.582,64.912,29.808,92.07,52.99v257.661H-9.676V360.26
					C18.142,337.077,48.611,319.852,82.395,307.27z"/>
			</g>
		</g>
		<g>
			<g>
				<path d="M194.997,586.135c-7.949,13.248-13.247,25.163-15.896,35.098l4.635-9.269c3.975-8.609,8.612-17.227,13.91-25.17
					c15.896-25.175,37.094-47.692,65.575-66.896c25.835-17.226,54.315-29.808,86.108-36.432l27.822-4.644l9.935-2.646l-39.08,4.638
					c-31.133,5.963-60.276,17.878-87.435,35.771C232.092,535.79,210.895,558.974,194.997,586.135z"/>
			</g>
		</g>
		<g>
			<g>
				<path d="M233.415,594.737c-5.298,6.624-8.61,12.589-11.923,18.552c-1.985,5.298-2.648,7.943-1.325,7.943
					c2.651-6.623,7.95-15.227,15.236-25.162c14.57-19.211,32.456-34.451,54.313-46.366c21.197-12.588,44.38-19.871,67.563-22.523
					l21.856-1.993l7.95-1.318l-7.95-0.66l-21.856,0.66c-24.509,2.651-47.692,9.936-69.55,22.523
					C264.547,558.974,246.662,574.866,233.415,594.737z"/>
			</g>
		</g>
		<g>
			<g>
				<path d="M42.65,540.428c22.521-7.283,47.693-10.595,73.524-9.275c25.169,0.66,49.016,5.304,72.862,14.573
					c11.921,3.979,21.857,7.95,29.144,11.262l-7.286-3.972l-20.535-9.936c-23.843-9.936-48.352-14.579-74.185-15.899
					c-26.495-0.66-51.004,2.652-74.187,10.596c-7.947,1.991-14.57,5.304-21.193,8.616l-7.288,3.972l7.948-3.312L42.65,540.428z"/>
			</g>
		</g>
		<g>
			<g>
				<path d="M30.066,556.987c19.871-1.993,41.066,0,60.938,5.298c19.87,4.638,38.42,13.914,55.641,25.829l15.234,10.603l5.96,3.978
					l-5.297-4.645l-13.911-12.581c-17.222-12.581-35.767-21.857-56.965-27.161c-21.857-5.292-42.391-6.625-61.6-3.972
					c-11.262,0.658-19.208,2.651-25.172,5.963L30.066,556.987z"/>
			</g>
		</g>
		<g>
			<g>
				<path d="M196.983,468.886c-31.13,4.645-58.288,16.56-80.809,34.452c-7.949,6.623-14.573,13.248-18.548,19.871l20.534-17.892
					c22.521-16.56,49.678-27.815,79.485-32.454c29.144-5.956,57.629-3.978,86.772,4.639c8.609,1.986,16.559,5.298,24.509,9.275
					l8.609,3.972c-7.286-5.304-17.886-11.261-33.118-15.898C256.598,465.574,227.454,462.929,196.983,468.886z"/>
			</g>
		</g>
		<g>
			<g>
				<path d="M234.74,450.348l-15.896,12.581l-5.301,5.298c5.301-4.632,13.247-9.275,23.184-15.233
					c18.549-12.582,38.42-21.857,59.613-29.141c19.872-7.291,41.069-13.248,64.252-15.9l26.495-4.638l-27.158,1.986
					c-21.856,1.326-43.055,6.623-65.574,14.573C274.482,427.164,254.612,437.1,234.74,450.348z"/>
			</g>
		</g>
		<g>
			<g>
				<path d="M157.904,474.19l-17.223-9.936c-19.207-8.616-39.742-13.907-63.586-15.24c-22.523-1.319-43.717,1.333-64.915,8.616
					l-18.546,6.624l-6.623,3.312l25.833-7.283c20.534-5.964,41.728-7.957,63.589-7.29c23.182,0.666,44.377,5.958,62.925,13.914
					c9.937,4.631,18.546,9.27,23.847,12.581L157.904,474.19z"/>
			</g>
		</g>
		<g>
			<g>
				<path d="M186.388,472.863c-4.638-7.289-11.925-15.232-21.859-23.849c-19.208-18.539-41.729-31.786-67.562-41.063
					c-25.172-8.616-51.004-11.928-78.162-11.261l-31.793,4.638l8.609-0.66l23.184-0.666c27.82,0,53.654,3.978,76.836,12.581
					c24.51,7.957,46.367,20.538,66.901,37.764l17.882,15.893L186.388,472.863z"/>
			</g>
		</g>
		<g>
			<g>
				<path d="M206.26,380.132c-13.911,7.289-25.172,15.893-34.445,25.169c-7.95,7.949-13.91,15.24-17.885,22.523
					c5.3-7.283,11.924-13.908,19.871-20.531c21.196-19.872,49.018-33.785,82.797-43.055c31.133-7.956,61.603-9.275,93.396-3.979
					c15.896,3.313,28.484,6.624,37.094,10.603c0.663-0.667-2.648-2.652-9.272-4.645l-27.158-8.604l-95.381,2.646
					C238.053,364.897,221.492,371.522,206.26,380.132z"/>
			</g>
		</g>
		<g>
			<g>
				<path d="M228.117,371.522c0-0.66-2.649-1.327-7.288-3.313l-20.534-5.304l-71.535-2.646c-24.51,3.313-47.029,9.936-67.563,21.198
					c-6.624,3.972-12.585,7.943-17.882,11.921l-5.961,5.299c5.961-4.632,14.57-9.276,25.169-14.568
					c20.534-10.602,43.718-17.226,66.901-20.537l69.55,2.646l21.193,3.978L228.117,371.522z"/>
			</g>
		</g>
		<g>
			<g>
				<path d="M227.454,404.641c-16.56-0.66-33.119,1.32-48.353,5.964l-13.911,4.632l-3.975,2.651l19.208-4.638l47.03-4.638
					c16.559,0.66,32.455,2.652,47.028,7.949l18.546,5.958l-4.635-2.646l-13.911-5.958
					C259.909,407.952,244.676,404.641,227.454,404.641z"/>
			</g>
		</g>
		<g>
			<g>
				<path d="M204.271,390.067l-14.57,3.312c-3.975,1.327-5.301,2.646-4.638,2.646l5.297-1.318l14.574-1.993
					c13.91-2.646,29.807-1.979,47.692,0.666c16.559,1.985,31.793,6.624,46.367,13.248l18.544,7.949
					c-3.975-3.312-9.935-7.283-17.223-10.596c-13.91-7.289-29.807-12.588-47.028-14.579
					C236.727,386.755,220.167,386.755,204.271,390.067z"/>
			</g>
		</g>
		<g>
			<g>
				<path d="M238.053,371.522l-16.561,2.651h16.561l39.08,5.292c13.246,3.312,25.832,7.289,36.43,11.927l15.237,5.965
					c0.659-0.666-4.639-3.312-13.911-8.616c-11.262-5.964-23.847-10.596-37.094-13.247L238.053,371.522z"/>
			</g>
		</g>
		<g>
			<g>
				<path d="M88.354,333.765c-19.87-3.312-39.743-3.312-57.625,0.666l-17.223,5.292l-5.301,3.312
					c5.301-2.646,13.249-4.632,23.184-5.957c17.222-3.313,36.43-2.646,56.965,0.666c17.886,2.646,36.431,7.284,55.639,13.907
					l22.523,8.609c0.66-0.666-6.623-3.978-21.196-10.602C126.773,341.715,108.226,337.077,88.354,333.765z"/>
			</g>
		</g>
		<g>
			<g>
				<path d="M58.548,313.894l19.208-1.985l45.043,5.297c19.209,4.639,34.441,9.937,45.04,13.914l17.887,5.958l-17.222-8.609
					c-10.6-5.305-25.834-10.596-44.381-14.574l-46.367-4.638l-14.571,1.992C59.874,312.567,58.548,313.228,58.548,313.894z"/>
			</g>
		</g>
		<g>
			<g>
				<path d="M114.85,294.023l-5.298,1.326l20.534,1.984c17.219,2.646,32.456,6.625,47.689,12.582
					c20.534,7.289,35.107,13.914,45.703,18.552l18.549,8.609c0-0.666-5.301-3.979-17.223-10.602
					c-11.262-6.624-26.495-13.248-45.703-21.191c-16.56-5.304-32.457-9.276-48.355-11.261H114.85z"/>
			</g>
		</g>
		<g>
			<g>
				<path d="M274.482,325.815l-13.91-8.61c-7.286-4.638-19.208-10.602-36.431-17.885c-15.896-5.964-28.481-9.937-38.416-11.922
					l-16.56-1.325l15.896,3.971l37.756,13.249l36.432,16.559C269.845,323.83,274.482,326.476,274.482,325.815z"/>
			</g>
		</g>
		<g>
			<g>
				<path d="M247.987,503.997c-18.544-4.638-39.742-6.623-62.262-4.638c-22.521,1.326-43.056,7.29-59.614,15.894
					c-6.623,2.651-11.262,5.963-16.56,9.276l-4.638,4.638l5.96-3.313c5.301-2.646,10.601-5.957,16.56-8.61
					c17.223-7.283,37.095-12.587,58.954-13.906l61.6,3.312l25.169,5.291l-6.623-3.312L247.987,503.997z"/>
			</g>
		</g>
		<g>
			<g>
				<path d="M142.67,488.758l-5.301-3.313l-16.559-5.957c-17.221-6.625-35.768-9.937-56.302-9.27
					c-19.872,0.66-39.079,3.972-56.303,9.936l-15.896,7.283l-5.299,3.312l5.961-1.991L8.869,482.8
					c17.885-5.298,36.432-7.949,55.64-8.609c18.548,0,37.093,2.652,55.642,7.943L142.67,488.758z"/>
			</g>
		</g>
	</g>
	<g>
		<g>
			<g>
				<path fill="#FCCE00" d="M88.354,197.978c6.624,1.327,17.223,4.637,33.12,11.921l31.131-25.17
					c-7.949-5.297-21.859-8.608-41.731-10.601c-11.921-1.319-23.843,0.667-35.767,3.978l-13.248,4.638l19.209,3.972h0.662h-0.662
					c-7.947-1.32-16.56,0-25.834,4.638l-10.598,7.951l27.158-3.313L88.354,197.978z"/>
			</g>
		</g>
		<g>
			<g>
				<path d="M119.488,212.551h3.311l31.793-25.835l1.327-2.652l-1.327-2.645c-9.271-5.298-23.846-8.609-43.054-10.602
					c-13.249-1.32-25.169,0.666-36.431,3.978c-7.288,1.326-11.923,3.312-15.233,5.298l-1.326,2.651v0.66l2.648,2.651
					c-7.283,1.987-13.247,6.625-19.208,11.256l-0.664,1.993l0.664,1.985c0,1.325,1.326,1.985,3.313,1.325l37.756-1.992l5.298,0.667
					C94.979,202.615,104.914,205.928,119.488,212.551z M84.38,188.042l0.663-1.327c0-1.32-0.663-1.986-2.648-2.652l-7.951-2.645
					c11.926-3.313,23.846-5.298,36.431-3.979c13.911,0.667,25.173,3.313,35.108,7.29l-25.172,21.198
					c-16.561-6.623-27.154-9.936-31.793-11.262l-4.638-0.667l-22.521-1.319c6.625-2.651,12.584-3.312,18.549-2.651
					C83.057,190.688,84.38,190.029,84.38,188.042z"/>
			</g>
		</g>
		<g>
			<g>
				<path fill="#FCCE00" d="M125.449,219.176l7.949,0.658h25.169l29.144,8.617c21.197,7.943,35.768,17.219,43.718,29.141
					l-0.663-11.922c-1.985-9.936-5.961-17.885-11.922-23.184l5.298,2.653l10.599,11.914c0-5.957-1.325-11.254-5.96-17.878
					c-7.951-13.248-23.184-21.198-43.718-24.51l9.272-7.29c5.96-6.623,10.599-14.566,13.248-22.516
					c-7.288,4.637-14.571,7.95-20.535,8.609c4.638-2.652,7.287-6.624,7.287-11.922l-29.807,7.95
					c-13.911,4.632-24.507,9.936-31.793,15.233c-7.95,5.958-12.585,13.249-14.574,21.858c-15.897,9.275-25.832,14.572-30.47,16.559
					l-11.922-0.66l-10.599,0.66c-3.312,1.327-5.297,3.973-6.623,7.95l-1.986,5.298c-2.648,1.992-4.638,5.305-7.286,9.275
					c-1.986,5.299-3.313,9.275-3.975,13.248l7.285-4.639c5.299-3.977,9.273-6.623,11.923-6.623l10.599-0.666
					c4.638-0.66,7.949-1.32,11.262-4.631c3.311-3.313,9.936-7.95,18.545-13.249C114.187,223.146,120.811,219.834,125.449,219.176z"
					/>
			</g>
		</g>
		<g>
			<g>
				<path fill="#D96038" d="M87.691,223.146l-11.922-0.66l-10.599,0.66c-3.312,1.327-5.297,3.973-6.623,7.95l-1.986,5.298
					c-2.648,1.992-4.638,5.305-7.286,9.275c-1.986,5.299-3.313,9.275-3.975,13.248l7.285-4.639
					c5.299-3.977,9.273-6.623,11.923-6.623l10.599-0.666c4.638-0.66,7.949-1.32,11.262-4.631l1.985-1.993
					c4.638-7.283,6.624-13.907,7.95-21.19L87.691,223.146z"/>
			</g>
		</g>
		<g>
			<g>
				<path d="M196.323,159.561l-2.651-1.325l-29.808,8.61c-14.569,4.638-25.831,9.276-33.118,15.899
					c-7.947,5.298-13.248,13.248-15.896,21.857c-13.91,8.609-23.184,13.248-28.48,15.232l-9.273-0.658l-13.911,0.658
					c-4.637,2.652-7.95,7.951-9.935,14.575l-7.287,11.261c-1.986,4.633-3.313,9.275-3.975,13.248l1.988,3.313h3.973l17.222-11.928
					h5.962l8.612-0.66c3.312-0.66,6.624-1.986,8.609-4.632c3.312-3.978,9.935-7.957,17.886-12.588
					c8.609-5.964,15.234-9.276,19.209-9.937l33.118,0.66l29.144,9.276c19.872,7.283,33.781,16.56,41.069,27.155l3.975,1.325
					c1.985-0.666,1.985-1.985,1.985-3.312l0.663-1.326l-3.312-17.219c1.323,1.319,2.648,1.986,3.975,1.319
					c1.986-0.66,1.986-1.319,1.986-3.313c0-5.957-1.986-11.254-5.961-17.878c-7.95-13.248-21.197-21.198-39.743-26.496
					c9.273-6.625,15.234-15.9,18.546-26.495v-1.325l-1.986-2.646c-0.663-0.667-1.988-0.667-3.975,0l-8.61,4.632l1.323-5.298l0,0
					L196.323,159.561z M75.77,225.8c5.961,1.319,10.6,1.319,12.585,0c4.638-1.326,15.896-6.624,31.134-15.9l1.986-1.985
					c1.324-8.609,5.959-15.234,13.246-19.872c6.623-5.957,17.223-10.603,30.47-15.233l23.847-6.625l-3.975,5.298
					c-0.663,0-1.326,1.327-1.326,1.986v1.326c0.663,1.985,1.326,2.645,3.312,1.985l13.91-3.97
					c-4.635,7.943-10.599,14.566-17.222,18.544c-1.323,1.326-1.986,1.985-1.986,3.312l0,0c0,1.986,0.663,3.313,2.649,3.313
					c17.886,3.312,29.807,9.936,35.107,21.198h1.322l7.288,5.298c-1.327-2.646-3.976-4.64-8.61-5.298l-2.652,0.658l-1.322,2.652
					c0,0.66,0.663,1.32,1.322,1.987c5.301,5.297,8.613,13.246,11.263,23.849c-9.937-9.275-24.51-17.226-43.055-23.849l-26.495-7.95
					l0,0h-24.509l-7.947-0.66h-1.326c-5.297,0.66-12.585,3.971-21.857,10.596c-8.613,5.304-14.573,9.936-19.208,13.907
					c-1.989,1.993-6.624,3.312-12.587,3.312l-7.948,0.666c-1.988,0-6.623,1.986-11.925,6.625c1.99-5.299,3.975-9.936,7.288-11.922
					l1.326-1.993c1.322-5.957,3.311-9.269,6.624-11.254C68.484,225.14,71.133,225.14,75.77,225.8z M220.829,219.176h-1.322
					c4.635,0.658,7.283,2.651,8.61,5.298L220.829,219.176z"/>
			</g>
		</g>
		<g>
			<g>
				<path d="M173.141,193.339c-8.612,1.993-16.56,6.624-21.861,13.249c-1.322,1.326-0.662,1.992,0,2.651
					c0.664,1.319,1.326,1.319,2.65,0c5.3-5.964,11.924-9.935,19.871-11.927l11.262-0.66l1.985-1.986c0-1.326,0-1.985-1.985-1.985
					L173.141,193.339z"/>
			</g>
		</g>
		<g>
			<g>
				<path d="M73.785,234.409c-0.664-1.986-1.99-3.313-3.977-3.313c-1.989,0-2.648,1.326-1.989,3.979
					c0,2.644,0.665,3.311,3.313,3.311C73.121,238.387,74.443,237.054,73.785,234.409z"/>
			</g>
		</g>
		<g>
			<g>
				<path fill="#FCCE00" d="M151.943,46.958c-1.986-1.993-5.299-3.313-9.936-5.304c-8.609-3.972-19.209-5.958-30.47-7.943
					l-36.431,1.319l-13.248,4.644c6.625,0.66,13.248,2.646,19.209,5.292c-7.947-2.646-16.56-1.32-26.496,3.312l-11.258,7.29
					l27.818-2.646l16.559,3.972c5.965,0.66,16.559,5.298,31.797,13.248L151.943,46.958z"/>
			</g>
		</g>
		<g>
			<g>
				<path d="M155.254,46.958l-1.324-3.313c-8.609-5.963-22.521-9.935-42.392-13.248c-19.872-2.651-36.431,0-51.664,6.624
					c-1.326,0-1.326,0.66-1.326,2.652v0.66c0,0.66,0,1.32,1.988,1.986c-5.302,1.326-9.276,3.312-13.911,5.958l-5.301,4.644
					l-1.322,2.646v1.326c0.664,1.986,1.986,1.986,3.975,1.986c12.585-3.312,24.508-3.312,37.754,0l4.639,1.327
					c5.96,0.659,16.559,5.297,31.129,13.248l3.313-0.66l33.119-23.849L155.254,46.958z M88.354,53.581l-5.298-1.326l-22.521-2.646
					l19.209-1.333c1.985,0,3.312-0.66,3.975-2.646l0.66-0.666l-2.649-3.312l-7.287-2.646l36.431-1.986
					c13.911,1.986,25.173,5.298,34.446,9.936l-26.496,19.211C102.264,58.878,91.666,54.241,88.354,53.581z"/>
			</g>
		</g>
		<g>
			<g>
				<path fill="#FCCE00" d="M187.048,37.682c4.638-2.652,7.949-6.624,7.949-11.256l-30.469,5.958
					c-13.911,3.312-25.17,7.95-32.456,13.247c-7.949,5.298-13.911,12.582-15.897,21.198c-16.56,8.61-26.495,13.248-31.795,14.567
					l-11.259-1.32H61.859c-2.649,1.32-5.298,3.312-6.625,7.283l-1.984,5.305c-3.313,1.319-5.301,4.631-7.949,9.27
					c-1.986,4.638-3.977,8.609-4.635,13.247l7.283-5.297c5.301-3.312,9.936-5.964,11.925-5.964h11.259
					c3.975,0,7.949-0.66,10.598-3.312c4.639-3.972,11.262-7.284,19.871-11.921c9.272-5.298,16.56-8.61,21.197-8.61l7.947,1.32
					l24.508,1.333l29.146,10.595c20.534,8.61,34.444,19.212,42.391,31.126v-12.58c-1.985-9.936-5.298-17.886-10.595-23.85
					l4.634,3.978l10.6,11.921c0-5.298-1.326-11.255-5.961-17.879c-7.287-13.248-21.197-22.523-41.731-27.162l9.936-6.624
					c6.623-6.624,11.262-13.914,13.911-21.857C200.295,35.029,193.012,37.682,187.048,37.682z"/>
			</g>
		</g>
		<g>
			<g>
				<path fill="#D96038" d="M47.949,109.883c5.301-3.312,9.936-5.964,11.925-5.964h11.259c3.975,0,7.949-0.66,10.598-3.312
					l3.313-1.986c4.637-6.624,6.623-13.248,7.949-21.197l-8.612,3.972l-11.259-1.32H61.859c-2.649,1.32-5.298,3.312-6.625,7.283
					l-1.984,5.305c-3.313,1.319-5.301,4.631-7.949,9.27c-1.986,4.638-3.977,8.609-4.635,13.247L47.949,109.883z"/>
			</g>
		</g>
		<g>
			<g>
				<path d="M210.895,31.058v-0.66l-0.663-2.651l-4.635-0.66l-8.613,4.632l1.326-5.292l-1.326-2.651l-2.648-0.66l-30.471,5.958
					c-14.569,3.978-25.831,8.61-33.778,14.573c-7.949,5.298-13.911,11.922-16.56,20.532L83.72,78.083l-9.276-1.319
					c-5.959-1.326-10.595-1.326-13.247,0c-5.962,2.652-9.272,7.284-11.259,13.908c-3.313,2.652-5.301,5.964-7.949,10.595
					c-1.986,3.978-3.975,8.616-4.635,13.247v0.667c0,1.326,0.66,1.986,1.322,2.646l3.975-0.66
					c8.609-5.963,13.911-9.276,17.886-9.936h5.962c7.945,1.326,13.247-0.66,17.882-3.972l18.548-11.928
					c8.61-4.631,15.233-7.943,19.871-7.943l32.455,2.652l29.146,10.596c19.208,8.609,32.455,18.544,39.742,29.807
					c0.663,0.66,1.326,1.32,3.313,0.66l2.648-1.986v-4.637l-1.985-13.908l3.975,0.66l2.648-3.312l0,0
					c0-6.624-2.648-12.588-6.623-19.871c-6.625-11.922-19.209-20.531-36.432-26.495C200.958,50.929,207.583,42.319,210.895,31.058z
					 M189.7,30.397l-4.638,4.632c-0.663,0.667-1.326,1.992-1.326,2.652v1.326c0.663,1.986,1.326,2.646,3.312,1.986l13.91-3.312
					l-12.584,13.248l-6.624,4.638c-0.662,0.667-1.326,1.326-1.326,3.312l0,0c0,1.327,0.664,2.646,1.989,3.313
					c17.882,3.978,29.145,11.921,34.441,23.183h1.326l6.624,6.624c-0.663-3.312-3.976-5.297-7.95-6.624l-2.648,0.667l-1.323,1.979
					l1.323,1.992c4.638,6.624,7.949,14.567,9.272,25.168c-9.272-9.935-23.184-19.204-41.065-26.494
					c-11.261-5.298-20.534-8.61-25.832-9.27h-1.327l-23.845-1.333l-7.286-1.319h-1.324c-5.301,0-13.247,3.312-23.184,8.609
					c-8.611,4.638-15.235,9.27-19.87,13.248c-2.649,1.986-6.624,3.313-13.247,1.986h-6.624c-3.313,0-7.288,2.652-13.249,5.964
					c2.65-5.304,5.299-9.276,7.947-11.262l1.327-1.986c1.985-5.304,3.975-8.616,7.285-9.936h9.937l11.922,0.66
					c5.301-0.66,16.559-5.298,32.455-13.908l1.99-1.992c1.986-7.943,6.623-14.567,14.57-19.872
					c7.285-4.632,17.885-9.27,31.132-12.581L189.7,30.397z M218.181,85.374h-1.326c3.975,1.327,7.287,3.313,7.95,6.624
					L218.181,85.374z"/>
			</g>
		</g>
		<g>
			<g>
				<path d="M171.814,56.893c-9.272,1.32-16.561,5.298-23.184,11.922c0,1.326,0,1.986,0,3.312l3.313-0.666
					c5.961-5.958,12.585-9.269,20.535-11.255h11.258c0.663,0.659,1.326,0,1.989-1.327l-1.326-1.986H171.814z"/>
			</g>
		</g>
		<g>
			<g>
				<path d="M70.473,91.998c-0.664-2.646-1.988-3.978-3.975-3.978c-1.327,0.667-2.649,1.992-2.649,3.978s1.322,3.312,3.312,3.312
					C69.809,95.31,70.473,93.983,70.473,91.998z"/>
			</g>
		</g>
		<g>
			<g>
				<path fill="#FCCE00" d="M264.547,80.076c-11.261-3.312-23.183-4.638-35.104-3.312l-14.574,1.986
					c6.623,1.326,13.248,4.638,18.546,7.95l-26.495-1.327l-12.585,5.298l27.82,2.652c4.635,0.66,9.937,3.312,15.897,5.297
					c5.96,1.986,15.896,7.95,29.144,18.545l36.431-18.545C297.003,91.998,283.756,85.374,264.547,80.076z"/>
			</g>
		</g>
		<g>
			<g>
				<path d="M306.939,99.288l-0.663-2.652c-7.947-7.95-21.857-13.907-40.403-19.872c-11.924-3.312-24.509-4.638-36.43-3.972
					l-15.237,2.646c-1.986,0-2.648,1.326-2.648,3.312c0,1.326,0.662,1.986,2.648,1.986c-5.298,1.326-9.936,2.652-15.232,4.638
					l-6.625,3.313l-1.326,1.986l0.663,1.326c0,1.986,1.326,2.646,3.312,1.986l22.521,1.326l13.911,4.638l5.961,1.986
					c4.638,1.985,13.909,7.95,27.82,17.885h3.313l36.431-17.885L306.939,99.288z M267.859,113.195
					c-13.247-9.936-22.521-15.24-28.481-17.219l-4.638-1.993c-7.286-3.312-13.911-5.297-20.534-5.297l-1.323-0.667l1.323,0.667
					l17.223,1.326c1.986,0,3.312,0,4.638-1.992l0.66-1.319l-1.986-3.313l-7.286-3.312c13.247-1.326,24.509,0,36.431,3.312
					c14.573,3.972,25.832,9.276,33.781,15.233L267.859,113.195z"/>
			</g>
		</g>
		<g>
			<g>
				<path fill="#FCCE00" d="M301.642,135.052l26.495,14.574c19.207,11.921,32.455,24.502,37.753,37.09l1.326-11.921
					c0-9.935-1.986-18.545-6.624-25.169l3.975,3.972l8.609,13.906c0.663-5.957,0.663-11.914-2.648-19.205
					c-5.298-13.914-17.886-25.168-37.093-33.119l9.935-5.297c7.287-4.638,13.911-11.262,17.223-19.211
					c-7.95,3.972-15.233,5.304-21.197,4.638c5.301-1.986,8.612-5.298,9.936-9.936L317.537,86.7
					c-13.91,1.319-25.169,3.972-33.118,8.609c-9.272,3.978-15.896,9.936-19.872,18.545l-33.118,9.276l-10.6-2.652l-10.598-1.986
					c-3.312,1.326-5.961,3.312-8.609,6.624l-3.313,4.639c-2.649,1.319-5.961,3.971-8.609,7.943
					c-2.652,3.977-5.301,7.29-5.964,11.928l7.949-3.972c5.961-2.653,9.937-3.979,12.585-3.979l9.936,1.986l11.925-1.986
					c5.298-2.645,11.922-5.957,21.193-9.269c9.937-3.978,17.223-5.964,22.521-5.304l7.95,2.652L301.642,135.052z"/>
			</g>
		</g>
		<g>
			<g>
				<path fill="#D96038" d="M183.736,149.626l7.949-3.972c5.961-2.653,9.937-3.979,12.585-3.979l9.936,1.986l11.925-1.986
					l3.313-1.985c5.297-5.304,8.609-11.928,11.921-19.211l-9.936,2.652l-10.6-2.652l-10.598-1.986
					c-3.312,1.326-5.961,3.312-8.609,6.624l-3.313,4.639c-2.649,1.319-5.961,3.971-8.609,7.943
					C187.048,141.675,184.399,144.988,183.736,149.626z"/>
			</g>
		</g>
		<g>
			<g>
				<path d="M317.537,83.388c-14.572,1.986-26.495,4.632-35.768,8.61c-7.95,4.638-14.573,10.602-18.548,18.545l-31.793,9.276
					l-9.273-2.652c-5.301-1.986-9.936-3.312-13.247-1.986c-5.301,1.326-9.935,5.299-13.248,11.922
					c-3.312,2.652-5.96,5.304-8.612,9.276l-6.624,12.587v0.66c0,0.659,0,1.985,0.664,2.651l3.975,0.66
					c9.272-5.304,15.896-7.95,19.208-7.95l5.301,1.326l18.546-1.326c3.975-3.313,10.598-5.957,19.87-9.27l20.535-5.304
					c6.624,2.651,17.223,5.964,32.455,7.951l26.496,14.573c18.545,11.256,29.807,23.184,35.104,35.105l3.312,1.986l3.312-1.986
					l1.326-13.914l-0.663-5.958l0.663,1.326c0.663,0.66,1.986,1.986,3.312,1.32l2.649-2.646l0.664-4.637
					c0-7.284-1.986-15.234-6.625-21.858c-5.961-10.601-15.896-19.205-29.807-26.495c10.6-5.297,18.546-13.247,23.184-22.516v-1.992
					v-1.986l-4.638-0.667l-9.273,2.652l1.989-4.632l0.659-0.667l-1.321-1.986l-2.65-1.326L317.537,83.388z M332.111,111.87
					c-1.326,1.325-1.989,1.985-1.989,3.311l0,0c0,1.986,0.663,3.313,1.326,3.313c16.559,6.624,27.158,16.559,30.47,28.481
					c0.66-0.66,0.66-0.66,0.66,0l6.623,7.283c-0.659-2.646-3.312-5.958-7.283-7.283c-1.326-0.66-1.989-0.66-2.651,0l-1.986,2.652
					l0.663,1.985c3.975,6.624,5.961,13.915,5.961,22.517v2.651c-7.95-10.595-19.872-21.856-36.431-31.792
					c-10.6-6.623-19.209-11.262-24.509-13.248h-0.66l-23.847-5.298l-7.287-2.653h-1.326c-5.298-0.659-13.247,1.327-24.506,5.965
					c-8.612,3.311-15.236,6.624-20.534,9.276l-13.247,0.659l-7.287-1.325l-13.911,4.637c3.313-5.303,6.624-9.276,9.936-10.595
					l1.327-1.993c2.648-5.298,5.961-7.943,9.272-8.61l9.272,1.327c3.975,2.651,7.95,3.312,11.262,3.312
					c5.961-0.66,16.559-3.972,34.444-9.936l1.986-1.326c6.623-14.573,23.183-22.516,50.341-25.168l25.169-1.326l-5.96,3.978
					c-0.663,0.66-1.326,1.319-1.326,2.646v0.667c0,1.979,1.326,2.645,2.651,2.645l13.907-1.326
					c-3.312,4.638-7.946,8.616-13.247,11.261L332.111,111.87z M362.578,146.974c0-0.66,0-0.66-0.66,0
					c3.972,1.325,6.624,4.637,7.283,7.283L362.578,146.974z"/>
			</g>
		</g>
		<g>
			<g>
				<path d="M321.512,111.87c-8.612,0-17.222,3.311-24.509,8.609c-0.663,1.325-0.663,1.992,0,2.652h2.648
					c6.625-4.638,13.911-6.625,21.86-7.285l11.26,1.32c0.663,0.66,1.325,0,1.988-0.66c0-1.326,0-2.651-0.663-3.312L321.512,111.87z"
					/>
			</g>
		</g>
		<g>
			<g>
				<path d="M215.532,131.74c0.663-2.646,0-4.638-1.989-4.638c-1.985,0-3.312,1.326-3.972,3.312
					c-0.663,2.651,0.66,3.972,2.648,3.972C214.869,135.052,215.532,133.726,215.532,131.74z"/>
			</g>
		</g>
	</g>
</g>
<path id="PATH77" fill="none" stroke="#000000" stroke-width="3" stroke-miterlimit="100" d="M370.59,585.26H3.92V2.74h366.67
	V585.26L370.59,585.26z"/>
</svg>
