<?xml version="1.0" encoding="utf-8"?>
<!-- Generator: Adobe Illustrator 13.0.0, SVG Export Plug-In . SVG Version: 6.00 Build 14948)  -->
<!DOCTYPE svg PUBLIC "-//W3C//DTD SVG 1.1//EN" "http://www.w3.org/Graphics/SVG/1.1/DTD/svg11.dtd">
<svg version="1.1" id="圖層_1" xmlns="http://www.w3.org/2000/svg" xmlns:xlink="http://www.w3.org/1999/xlink" x="0px" y="0px"
	 width="372px" height="587px" viewBox="0 0 372 587" enable-background="new 0 0 372 587" xml:space="preserve">
<g>
	<path id="PATH1" fill="#427E41" stroke="#000000" stroke-width="3" d="M12.75,314c9.75,18.5,17.75,34,35.75,52.5c0.5,7-2.5,7,2,18
		c-24-16-42-37.5-52-48L12.75,314z"/>
	<path id="PATH2" fill="#FFFF00" stroke="#000000" stroke-width="5" d="M65.83,312.33c0-1.67,4.67-7.33,8.33-9.67
		c6,0,14.33,8.67,23.67,5.33c8.67,0,21.33-7.67,29-28.67c0.67-1.67-0.33-12.331-9.67-12c-13,0.67-16.67,8.33-24.33,12.67
		c-5.67,3-14.67,5.67-20.33,5.33c-4.33,0-4.67-3-9.33-5.33c-4.67,2-0.33,4-12.67,3.67c-4.67-0.33-6.67-6.33-6.33-8
		c0.92-4.32,1-4.67,3-9.33c4.67-3.33,4.67-6.67,5.33-14.33c2.14-3.86,9-4,11.33-7.33c9.67-10.67,2.67-17,7.67-26.67
		c0.67-1.33,1.61-2.38,4.47-2.89c1.82-0.32-9.47-4.77-6.47-4.77c3.83-0.04,3.33-8.67,15-8c8-0.33,5.67,0.67,13,6
		c7-3.33,3-6.33,16.33-5.67c10.33-0.33,10.67,4.67,15.67,5.67c6,1,10.33-11.33,16-10.33c2.95,0.26,2.33,1.67,6,4
		c4.67-3.33,10.67-5,14,3c2,5,3.67,11.67-13,19.67c24.33,9,17.67,23.67,40.67,18.33c2.33-0.33,6-3,6.33-12.67
		c-21.67-7-10.67-12.33-12.67-17c-1.33-3.33-1.33-4.33-2.33-7.33c-8.67,1-5-14.67-5-17.33c0-11.33-2.33-32.33,0-50
		c1.67-11.67,19.67-25.67,13-36.67c-9.33-16-28.33-7-37.33-8.33c-5.67-1.33,0-5-9.67-8.33c-11-4-22.33,0-32.5-7.83
		c-17.17-13.17,2.05-25.5,5-25.5c2.32,0,5.5,6.67,29.5,19c5.33,1,10,2.33,16.67,1.67c7-1,13.28,4.9,18.67,5.33
		c21.67,2.33,30.67-4.33,49,8.67c45,26.33,38,13.67,75,78c17,30,6,35,15.67,59c5.67,9.67-1.33,26.67,3,49
		c0.48,2.89-11.33,13.33-8,32.33c0.67,8-7.33,15.33-9,28c-2.16,5.2,3,29.33,6.67,51c0.67,6,15.67,8,17.67,34.33
		c1,18-3.67,27.33-2.67,37.67c0,6.672,5.33,4.672,6.67,15.672c0,6.328-2.328,12.67-1.67,18.67c-0.33,17,21.33,10,25.67,29.33
		c2.672,12.329-5.67,20.329-12.328,21.67c-2,7.67-1,9-6.33,11c0,0-15,3-21.33-9c-2.67,8.33-8,12-14.67,11.33
		c-9.67-2-12-3.33-14.33-14.671c-2.67-10.671-1.33-11.329-0.67-14.671c1-6.67,4.67-16.329,3-24c-2.291-10.948-11.67-25-14.67-36
		c-2.44-8.93,1.67-16.67-0.672-25c-1.5-5.52-7-8.67-8.67-13.67c-1.869-5.3,1.67-7.33,0-12c-2.22-6.25-9.33-8.67-12.33-13.33
		c-4-7-1.328-17.67-6-16.67c-16-2-19,0.67-36.83-3.67c-1.83-0.33,12.5,20.33,10.17,32c-3,12.67-11.33,27-18.67,33.33
		c-10.67,8.67-20.669-0.33-24-0.67c-3-0.33-19.669-12.33-19.669-19.33c0-6.67,16.33-16.33,18.33-26.33
		c3-20-12.33-49.67-18.669-50.33c-6.33-0.33-12.33-1.67-15-3.33c-7.33-4-14.33-23.67-26.33-23c-15,0-39.67,2.33-49.33,1
		c-2.33-0.67-8-6-6-12L65.83,312.33z"/>
	<path id="PATH3" fill="#550B00" d="M60.38,262.24c-5.17,0-9.37-2.01-9.37-4.49s4.19-4.49,9.37-4.49c5.17,0,9.36,2.01,9.36,4.49
		S65.55,262.24,60.38,262.24z"/>
	<path id="PATH4" fill="#F93419" stroke="#000000" stroke-width="5" d="M13.5,455h-43c-27.26-28.99,4-69.5,6.5-105
		c3-44,23.5-83.5,15-131c17-32.5,22.5-60,26-103l48,1.5c-19.5,43-30.5,68-29.5,104C21,271,18.5,304,19.5,355
		C21.5,392.5,16.5,416,13.5,455z"/>
	<path id="PATH5" fill="none" stroke="#000000" stroke-width="4" stroke-miterlimit="100" d="M10.5,226.99
		c-14.63,0-26.49-2.46-26.49-5.49s11.86-5.49,26.49-5.49s26.49,2.46,26.49,5.49C36.99,224.529,46.463,226.99,10.5,226.99z"/>
	<path id="PATH6" fill="#427E41" stroke="#000000" stroke-width="3" d="M164.5,489C149,470,148,457,109,446.5c5,30.5,15,41,32,58.5
		c15.5,16,30,28,55.5,37.5C193.5,520,171,497,164.5,489z"/>
	<path id="PATH7" fill="#427E41" stroke="#000000" stroke-width="3" d="M67,581c0.5-13,2-28.5-1.5-61.5c-29,25-31,37-31.5,58.5
		c-0.5,12.5,3,34,20.5,55.5C51.5,611,66.5,597.5,67,581z"/>
	<path id="PATH8" fill="#427E41" stroke="#000000" stroke-width="3" d="M120,577.5c-3-12.5-16.5-31.5-35-45
		c-2.5,34,3.5,44.5,12.5,63.5c5.5,11.5,14,19,31.5,40.5C130,607,125,595.5,120,577.5z"/>
	<path id="PATH9" fill="#427E41" stroke="#000000" stroke-width="3" d="M169.5,575c-8.5-9.5-21.5-26.5-44.5-39.5c-1.5,34,9,44,23,58
		c9,9,21,17,45,34.5C186,594.5,182,589,169.5,575z"/>
	<path id="PATH10" fill="#B35443" stroke="#000000" stroke-width="3" d="M323,16.5c-13.5,24-24,53-36.5,83.5
		c39-27.5,45.5-42,60.5-62.5c18-24.5,26.5-42,31-70C339.5-28.5,333.5-2,323,16.5z"/>
	<path id="PATH11" fill="#B35443" stroke="#000000" stroke-width="3" d="M286.5-5.5c-20.5,18-36,32-58,59.5c43.5-16,61-23,71.5-32
		c23-19.5,26-34.5,48-52C309.5-26,303-20,286.5-5.5z"/>
	<path id="PATH12" fill="#B35443" stroke="#000000" stroke-width="3" d="M263.5-13c-24,12.5-21.5,15.5-35,30c21.5-3,32-5.5,42.5-14
		c12-9.5,26.5-20.5,42-33C289-26,285-24.5,263.5-13z"/>
	<path id="PATH14" fill="#B35443" stroke="#000000" stroke-width="3" d="M208.5,610.5c-13-13-13.5-21.5-23-45.5
		c27,13,28.5,19.5,42,28.5c14,9.5,19,18,33.5,36C220.5,626,219,621,208.5,610.5z"/>
	<path id="PATH15" fill="#B35443" stroke="#000000" stroke-width="3" d="M252,611.5c-22.5-12.5-29.5-23-44.5-45.5
		c34,3,41,10,56,17.5c31,15.5,20,17.5,58,39C277.5,624.5,267,619.5,252,611.5z"/>
	<path id="PATH16" fill="none" stroke="#000000" stroke-width="4" stroke-miterlimit="100" d="M64.5,279.33c0,0-5.21,4.38-9,4.67
		c-3.82,0.29-7.28-0.33-9.67-3.33c-2.06-2.59-2.25-5.41-1.67-8.67c0.71-3.96,4.57-5.05,6.33-8.67c1.97-4.06,0.07-8.23,3-11.67
		c2.32-2.73,5.68-2.26,8.33-4.67c2.8-2.54,4.2-4.85,5.67-8.33c1.48-3.52,1.41-6.22,2-10c0.48-3.11-0.29-5.46,1-8.33
		c1.31-2.91,2.8-4.95,5.67-6.33c2.71-1.31,8-0.67,8-0.67"/>
	<path id="PATH17" fill="none" stroke="#000000" stroke-width="4" stroke-miterlimit="100" d="M190.83,154.33
		c0,0-4.13,16.08-0.67,24.67c0.9,2.23,2.07,3.45,3,5.67c1.561,3.69,1.109,6.65,2.67,10.33c1.109,2.63,2.67,3.99,3.67,6.67
		c2.09,5.63,0.609,10,0.67,16c0.051,5.63,1.061,9.55-0.33,15c-0.63,2.45-0.84,4.29-2.33,6.33c-2.21,3.03-4.99,4.27-8.67,5
		c-3.71,0.74-6.39-0.2-10-1.33c-7.64-2.4-9.72-9.35-16.67-13.33c-3.25-1.86-5.26-4.23-9-4.33c-0.25-0.01-0.42,0.05-0.67,0
		c-0.88-0.18,1.26-0.82,2-1.33c2.2-1.52,3.52-2.73,5.67-4.33c1.86-1.39,3.64-1.78,5-3.67c2.2-3.06,2.59-6.58,1-10
		c-1.55-3.33-4.33-5.41-8-5.67c-3.85-0.27-5.77,2.88-9,5c-4.01,2.64-6.22,5.04-10,8c-1.12,0.88-1.73,1.69-3,2.33
		c-0.6,0.3-1,0.55-1.67,0.67c-2.88,0.52-2.83-4.04-5-6c-3.78-3.41-7.04-5.2-12-6.33c-4.75-1.09-8.33-1.08-13,0.33
		c-2.94,0.89-4.58,5.04-7.33,3.67c-0.72-0.36-1.02-0.87-1.67-1.33c-4.97-3.54-10.12-4.64-16-3c-3.02,0.84-5.06,1.85-7.33,4
		c-0.26,0.24-0.37,0.47-0.67,0.67c-1.18,0.8-3.29-2.38-3.67-1c-0.17,0.61,0.13,1.06,0.33,1.67c1.18,3.45,9,3.67,9,3.67"/>
	<path id="PATH18" fill="none" stroke="#000000" stroke-width="4" stroke-miterlimit="100" d="M130.5,208.33c0,0,3.93-1.81,6-3.33
		c2.42-1.78,2.88-4.55,5.67-5.67c1.76-0.71,3.16-1.1,5-0.67c2.17,0.51,3.08,2.11,4.67,3.67c0.13,0.12,0.33,0.33,0.33,0.33"/>
	<path id="PATH19" fill="none" stroke="#000000" stroke-width="4" stroke-miterlimit="100" d="M111.5,72.5c0,0,5.51,6.49,10,8.5
		c2.82,1.26,4.98,1.32,8,2c6.5,1.46,11.69-0.24,17.5,3c3.71,2.07,4.54,5.95,8.5,7.5c4.19,1.64,7.5-0.08,12,0
		c5.07,0.09,8.721-1.17,13.5,0.5c5.779,2.02,11.811,4.42,12.5,10.5c0.21,1.87-0.18,3.14-0.5,5c-1.34,7.85-6.061,11.82-9.5,19
		c-1.52,3.18-2.891,5.16-4,8.5c-2.96,8.9,0,15.63,0,25c0,14.06-1.391,23.51,0,37.5c0.17,1.69-0.12,2.92,0.5,4.5
		c0.96,2.47,3.859,2.6,5,5c0.82,1.73,0.77,3.1,1,5c0.359,2.98-1.34,5.32,0,8c0.95,1.9,2.311,2.72,4,4c3.08,2.34,9.5,4,9.5,4"/>
	<path id="PATH20" fill="none" stroke="#000000" stroke-width="4" stroke-miterlimit="100" d="M119.5,54c0,0,10.07,7.26,16.5,11
		c5.29,3.08,8.59,5.91,14.5,7.5c5.44,1.47,9.46-0.06,15,1c4.02,0.77,6.52,2.04,10.5,3c5.01,1.2,8.359,2.17,13.5,2.5
		c5.63,0.36,9.359-1.16,15-1c5.859,0.17,9.91,0.25,15.5,2c6.33,1.98,9.8,5.11,15.5,8.5c5.95,3.54,9.641,6.32,15.5,10
		c7.98,5.01,14.58,6.61,21.5,13c6.5,6.01,9.061,11.65,14,19c7.029,10.46,10.93,17.95,17,29c5.09,9.26,9.75,14.95,13,25
		c3.55,10.98,0.85,19.4,4,30.5c0.97,3.42,2.11,5.56,3,9c3.11,11.98,0.2,20.63,0.5,33c0.16,6.38,2.55,10.96,0.5,17
		c-1.19,3.5-3.48,5.13-5,8.5c-4.42,9.8,0.14,18.221-3,28.5c-2.42,7.939-4.41,13.439-9.5,20"/>
	<path id="PATH21" fill="none" stroke="#000000" stroke-width="4" stroke-miterlimit="100" d="M296,505c0,0-8.07,24.04-3,37
		c1.311,3.36,1.8,6.11,4.5,8.5c3.61,3.2,7.8,4.05,12.5,3c3.7-0.83,6.49-2.28,8.5-5.5c2.79-4.46-0.25-8.79-1-14
		c-0.65-4.55-2.5-12-2.5-12"/>
	<path id="PATH22" fill="none" stroke="#000000" stroke-width="4" stroke-miterlimit="100" d="M335.5,511.5c0,0,6.15,7.67,8.5,13
		c2.64,5.99,5.17,10.56,4,17c-0.91,5.04-1.8,9.979-6.5,12c-3.64,1.56-6.79,0.38-10.5-1c-4.5-1.67-10-8-10-8"/>
	<path id="PATH23" fill="none" stroke="#000000" stroke-width="4" stroke-miterlimit="100" d="M308.5,333c0,0,1.67,18.82,3.5,30
		c1.39,8.49,1.09,14.6,4.5,22.5c3.15,7.311,8.77,10.23,12,17.5c3.51,7.9,4.46,13.87,5,22.5c0.65,10.38-4.07,17.12-3.5,27.5
		c0.11,2.07-0.06,3.51,0.5,5.5c0.99,3.5,4.26,4.58,5.5,8c1.16,3.19,0.83,5.61,1,9c0.36,7.14-3.02,12.021-1.5,19
		c0.16,0.76,0.24,1.271,0.5,2c1.65,4.71,7.09,4.39,11,7.5c4.88,3.88,9.4,5.84,12,11.5c2.28,4.97,3.19,9.3,1.5,14.5
		c-1.6,4.93-4.08,8.86-9,10.5c-0.73,0.24-2,0.5-2,0.5"/>
	<path id="PATH24" fill="none" stroke="#000000" stroke-width="4" stroke-miterlimit="100" d="M216.5,381c0,0,11.779,2.88,19,3.5
		c6.35,0.54,10.9-1.85,17,0c0.57,0.17,0.98,0.21,1.5,0.5c2.3,1.29-0.02,4.42,0.5,7c1.23,6.09,4.49,9.38,8,14.5
		c2.71,3.96,6.88,5.33,8,10c0.609,2.55-0.33,4.4,0,7c0.76,5.91,5,8.73,6.5,14.5c1.33,5.11,1.029,8.74,1.5,14
		c0.46,5.06-0.25,8.58,1,13.5c1.16,4.56,2.99,7.25,5,11.5c2.26,4.771,4.6,7.57,6.5,12.5c2.359,6.11,4,17,4,17"/>
	<path id="PATH25" fill="none" stroke="#000000" stroke-width="4" stroke-miterlimit="100" d="M74,256.5c0,0-7.44,2.28-10.5,5.5
		c-1.97,2.07-3.41,3.7-4,6.5c-0.59,2.78-0.11,4.89,1,7.5c1.56,3.66,4,5.609,7.5,7.5c6.11,3.3,11.79,1.29,18.5-0.5
		c6.57-1.75,10.13-5.08,16-8.5c4.58-2.67,6.7-7.28,12-7.5c2.68-0.11,4.68,0.15,7,1.5c4.43,2.57,5.95,7.4,5.5,12.5
		c-0.38,4.26-3.05,6.49-5.5,10c-4.47,6.42-7.88,11.26-15,14.5c-6.86,3.13-12.56,3.189-20,2c-5.09-0.811-8.33-6.68-13-4.5
		c-3.02,1.41-3.48,4.35-5.5,7c-1.14,1.49-2.45,2.21-3,4c-1.26,4.13,3.01,6.96,6.5,9.5c5.91,4.3,12.19,0.41,19.5,0.5
		c6.37,0.08,10.63,0,17,0c6.19,0,10.68-2.09,16.5,0c6.01,2.16,8.52,6.45,13,11c4.11,4.17,5.06,8.85,10,12
		c5.06,3.23,10.55,0.6,15.5,4c3.5,2.41,5.23,4.91,7.5,8.5c2.79,4.42,3.16,8.109,5,13c2.109,5.609,4.641,9.07,5.5,15
		c0.939,6.52,1.5,11.641-1.5,17.5c-2.24,4.37-5.721,5.85-9,9.5c-2.49,2.77-5.41,3.939-6.5,7.5c-1.05,3.43-0.18,6.12,1,9.5
		c2.49,7.15,8.43,9.74,15,13.5c6.33,3.62,11.38,7.59,18.5,6c4.77-1.06,7.4-3.69,11-7c5.09-4.69,6.99-9.27,10-15.5
		c2.68-5.55,4.96-9.359,5.5-15.5c0.689-7.88-1.859-13.24-5-20.5c-1.971-4.55-6.5-11.5-6.5-11.5"/>
	<path id="PATH26" fill="none" stroke="#000000" stroke-width="4" stroke-miterlimit="100" d="M181,419.5c0,0-2.18,4.58-4,7
		c-2.471,3.28-8,7.5-8,7.5"/>
	<path id="PATH27" fill="none" stroke="#000000" stroke-width="4" stroke-miterlimit="100" d="M202,415.5c0,0-1.76,8.72-4,13.5
		c-3.45,7.37-13.5,17-13.5,17"/>
	<path id="PATH28" d="M231.75,231c-14.5,0-10.75,2.75-22,3.75C221.25,228.5,225.5,226,232,226c11.75,0,12.75,1.25,16.75,4
		C250.25,231.75,246.25,231,231.75,231z"/>
	<path id="PATH29" d="M237,202.5c-16,0.75-10-0.25-14.75,2.25c2.75-5.75,3.25-6.25,10-8c3.5-0.75-0.25-3.75,8-3.75
		c5.5,0,9.25,5.25,13.25,8.25C248.5,201.25,251,202,237,202.5z"/>
	<path id="PATH30" d="M241,174.5c-6.25,0.75-11.5-0.5-16.25,2c8.25-5.25,9.25-7,17.5-7c5.5,0,10.25,1.75,14.75,8
		C248.5,177,248.25,173.75,241,174.5z"/>
	<path id="PATH31" d="M240,152.5c-6.25,0.75-6.75,1-11.5,3.5c4.25-4.25,2.5-8.25,6.25-8.25c10.25,0,13.5-2.75,17,7.25
		C240.75,152.25,247.25,151.75,240,152.5z"/>
	<path id="PATH32" d="M205.25,141c-7,0.75-3.75,5.5-12.5,4.75c4.25-4.25,4-6,7.25-9c2.189,0,7.5,0.5,8.25-5.25
		c11.75-0.25,16.5-2,21.75-9.25c8-0.5,19.5,1,29.75,8.75c-10.75-1.25-12,0.5-28.5-0.25c-10.25,4.25,0.25,6-17.75,5.75
		C210.5,136.5,207.75,139.75,205.25,141z"/>
	<path id="PATH33" d="M233.75,114c-6.25,0-13.5,0.75-23,5.75c-0.25-4.5,0.5-6.75,3-7.25c2,0,7,0.5,10-2.25s6-3.75,11-3.5
		c8.25,0.5,23.5,2,26.75,13C249,112.5,241.25,113.75,233.75,114z"/>
	<path id="PATH34" d="M210.5,99c-6.25,0-7.5,4-16.75,10.75c-0.25-4.5,0.5-6.75,3-7.25c2,0,1.75-2,4.75-4.75s7.75-5.5,12.75-5.25
		c8.25,0.5,10.75-2.25,19.25,8.25C218,95.5,218,98.75,210.5,99z"/>
	<path id="PATH35" d="M145.75,79.5c-4.25,4.25-3.5-0.5-13,5.5c-0.75-8,2-6,3.25-8.25c0.75-1.5,6.5-2.25,13.5-4.5
		C145.5,76.75,147.5,77.75,145.75,79.5z"/>
	<path id="PATH36" d="M187.75,83.75c-6,2.25-3.75-1-15,2.25c-0.75-8,1.5-6.25,2.75-8.5c0.75-1.5,12,1.75,19-0.5
		C190.5,81.5,190,83,187.75,83.75z"/>
	<path id="PATH37" d="M204,161.5c-6.25,0-6,1.5-13,7c3.75-8,2.25-12,8.25-11.5c15.5,1.25,7.75-5.25,17.5-5
		C216.25,159.75,215.25,161.25,204,161.5z"/>
	<path id="PATH38" d="M207.25,182.25c-4.5,0.5-1,8.75-13.75,2.75c12.5-6,1.5-9,11.25-9c10.75,0,2.5-3,11.75-3
		C214.5,179.75,213.25,181.5,207.25,182.25z"/>
	<path id="PATH39" d="M208.13,207.63c-2.88,2.5-3.75,9.25-8.5,2.5c3-3.13,3.63-3.5,5.88-4.38c2.631-1.13-1.75-4.25,6.5-4.75
		C212.641,208.75,208.88,207,208.13,207.63z"/>
	<path id="PATH40" d="M214.83,250.33c-2-1.67-0.83-5-6-5c-3.67,0-8.5,3.17-15.67-5c15.83,1.17,19.33-0.67,22.5,0.83
		c1.83,0.83,0.17,3.5,2.5,5.5c11,0.33,13.83,6.33,11.83,9.83c-8.5,0.17-5.17-3.67-8.83-4.67c-3.17-0.83-4.5,0.17-6.33-1.5V250.33z"
		/>
	<path id="PATH41" d="M214,270.67c-2.17-1-9.17-11.5-14-13.83c-3.33-1.67-1.67-4.33-8.83-12.5c18.33,8.17,21.67,13.67,24.67,15.17
		c2,1,13.33,12.17,13.33,22.5c6.33-4.17,5.83,35.5-1.83,30c-9.17,0.17-3-6.33-1.5-6.17c-1-8.17,2-19.5-1.83-21.33
		c-2.67-1.5-5.83-12-10-13.83L214,270.67z"/>
	<path id="PATH42" d="M128.5,247.5c-8.33,0.5-4.17,7-16.5,9c4.17-13.83,8.33-8.83,9.5-10.33c1-1.33,1.4-5.07,2.5-5
		c5.17-0.17-0.67-10,7.33-14.17C133.5,233.83,133.83,247.17,128.5,247.5z"/>
	<path id="PATH43" d="M146.33,252.67c-3.5-0.5-2.33,4.17-14.33,9.83c3.67-7.33,4.17-11.67,8.25-11.5c1.08,0-2.25-12.5,3.58-12.67
		c2.83,1.33,3.5,14.5,2.5,14.33V252.67z"/>
	<path id="PATH44" d="M156.83,266.17c-8.17,1-0.67,7.83-14.17,6.33c-0.83-7.67,3.83-7.5,8-7.17c1,0-0.5-19.5,5.17-19.83
		C158.66,246.83,157.66,265.83,156.83,266.17z"/>
	<path id="PATH45" d="M165,301.83c-4.17,0.33-6-1.5-8.83,0.17s-4.63,5.26-11.5,4.5c-0.83-7.67,2.67-6.33,6.67-6.17
		c0.32,0,1.83-2.83,5.83-4.67c1.5-0.67,6,0.83,7.67,0c2.33-1-0.5-3.67,1.67-4.67c2.49-1.051,3.5-1,6.33-1.33c0.67-0.33,0-2,1-3
		c0-0.33,4.33,0.17,6.83-1.17c2.33-1.17,1.801-3.87,0.5-5c-0.96-0.881-4.17,0.33-8.17-0.17c-0.641-0.08-2,2.33-3.17,3.83
		c-1.83,1.67-3.83-0.17-5.17-0.17c-2.5-0.33-0.68-6.5-0.33-7.17c0.33-0.83,16.359-1.02,16.62-1.85c0.239-0.8,0.38-1.59,0.38-2.32
		c0-0.67-9.33-0.17-9.83-0.67c-1-1-0.67-3.67,1.33-4.67c0.67-0.5,5,0.33,7-0.17c2.33-0.5,1.699-2.92,1.17-4.33
		c-0.33-1.33-9.17,0-9.67-1.5c-1.17-3.83,0.57-10.58,1.5-10.5c1,0,7.83,4.67,8.83,4.67c3,0.5,8.21,13.38,8.83,15.17
		c0.449,1.24,0.5,3.83,0.17,5.5c-0.33,0.83,14-0.17,12.67,0.5c-0.04,0.07,1,2.33-0.33,5.671c-0.17,0.829-7.33,1-8.17,1.5
		c-0.5,0.329,0,1,1.33,1.17c-0.67,1.5,6.83-0.5,6.17,1.33c-1.5,3.329,1.67,2,0.17,5.5c-1.67,4.329-3.33-2.33-5,1
		c-0.63,1.259,0,5.5-1.67,8.829c-0.63,1.271-3.17,0.83-3.83,2.33c-0.83,1.83,0.12,5.761-0.67,7.33c-0.62,1.271-2.67-0.33-3.5,1.17
		c-1,2-0.82,7.06-1.67,8c-2.17,2.33-3.23,1.351-3.5,1.33c-0.15,0.29-2.17-3.33-1.17-7.67c0.5-2,3.17-5.83,3.67-8.33
		c0.67-2.5,1.5-6.67,2.17-9.33c0.67-2.83,3.17,1.5,3.67-0.83c0.83-3.5,2.17-9,0.83-9.17c-2-0.5-7.33,0.341-7.17,0.33
		c0.59,0.24,0,3.5-2.17,4.83c-1.33,0.83-4.131-0.2-5,0.67c-1,1-0.33,4-1.67,5c-1.33,1.17-5.67-0.33-7,0.67
		c-2.83,1.67-1.83,4-3.83,3.83L165,301.83z"/>
	<path id="PATH46" fill="none" stroke="#000000" stroke-width="4" stroke-miterlimit="100" d="M81.5,283c5.25,4.13,8.75,6.88,14,11"
		/>
	<path id="PATH47" fill="none" stroke="#000000" stroke-width="4" stroke-miterlimit="100" d="M96,281
		c-0.19,4.311-0.31,7.189-0.5,11.5"/>
	<path id="PATH48" fill="none" stroke="#000000" stroke-width="4" stroke-miterlimit="100" d="M49,284.5
		c2.06,4.311,3.44,7.189,5.5,11.5"/>
	<path id="PATH49" fill="none" stroke="#000000" stroke-width="4" stroke-miterlimit="100" d="M60,284.5
		c-1.88,4.689-3.13,7.811-5,12.5"/>
	<path id="PATH50" fill="none" stroke="#000000" stroke-width="4" stroke-miterlimit="100" d="M73.5,277.5c0,2.061,0,3.439,0,5.5"/>
	<path id="PATH51" fill="none" stroke="#000000" stroke-width="4" stroke-miterlimit="100" d="M89.5,268c0,0-0.3,6.28-2,9.5
		c-1.24,2.359-4.5,5.5-4.5,5.5"/>
	<path id="PATH52" fill="#FF0000" d="M106.26,242.5c-5.67,0-10.26-4.35-10.26-9.72c0-5.37,4.59-9.72,10.26-9.72
		c5.67,0,10.26,4.35,10.26,9.72C116.52,238.15,111.93,242.5,106.26,242.5z"/>
	<path id="PATH54" d="M269.5,250c-9.5-10.5-10.5-13.5-18.75-16.25c11.5-6.25,20.75,1.75,24.75,6.25c8,8.5,9.5,16.5,15,27
		C292,268.5,278.5,260,269.5,250z"/>
	<path id="PATH55" d="M260.5,281c-9.5-10.5-16-9.5-16.5-22.5c13,11,19.83,13.5,22.83,18.17S279.5,295,278.5,300.5
		c-2,10-3,27.17-13.5,28.5c0.87,0.87,3-12,2-24.5C266.5,295,264.279,285.2,260.5,281z"/>
	<path id="PATH56" d="M248.83,327.67c2.33,0.67,5.67-15.67-0.67-15c-1.67,11-11.67,7.33-5.67,16c-6,4.33-14,12-15.33,21.33
		c1.07,1.07,10.67-3,16.67-10C247.16,336,247.5,327,248.83,327.67z"/>
	<path id="PATH57" d="M156.67,318.67c-1.83-6,1.17-9.5-4-10.33c8.33-2.83,5.83-1,14.17-1c5.33,0-6,1.17-5.5,19.5
		C156.34,324.67,157.17,320.84,156.67,318.67z"/>
	<path id="PATH58" fill="none" stroke="#000000" stroke-width="4" stroke-miterlimit="100" d="M126.83,322.33
		c0,0,1.94-2.77,3.67-3.67c1.85-0.96,5.5-0.83,5.5-0.83"/>
	<path id="PATH59" fill="none" stroke="#000000" stroke-width="4" stroke-miterlimit="100" d="M149.5,331.83
		c0.13,4,0.21,6.67,0.33,10.67"/>
	<path id="PATH60" fill="none" stroke="#000000" stroke-width="4" stroke-miterlimit="100" d="M160,333.83c0,0,0.34,4-0.5,6.17
		c-0.95,2.439-4.5,5.33-4.5,5.33"/>
	<path id="PATH61" fill="none" stroke="#000000" stroke-width="4" stroke-miterlimit="100" d="M165.33,344
		c-0.5,2.38-0.83,3.96-1.33,6.33"/>
	<path id="PATH62" fill="none" stroke="#000000" stroke-width="4" stroke-miterlimit="100" d="M203.83,357.67
		c0,0,3.15,4.34,5.17,6.83c1.34,1.65,2.57,2.51,3.67,4.33c2.02,3.359,2.5,10.17,2.5,10.17"/>
	<path id="PATH63" fill="none" stroke="#000000" stroke-width="4" stroke-miterlimit="100" d="M224.17,363.33c0,0,4.38,5.939,7,9.5
		c2.63,3.561,7,9.5,7,9.5"/>
	<path id="PATH64" fill="none" stroke="#000000" stroke-width="4" stroke-miterlimit="100" d="M199.17,367.33
		c-2.061,3.061-3.439,5.1-5.5,8.17"/>
	<path id="PATH65" fill="none" stroke="#000000" stroke-width="4" stroke-miterlimit="100" d="M176.5,348.5
		c0,0,2.65-4.311,4.83-3.67c1.96,0.58,1.859,2.9,2.5,4.83c1.4,4.21-2.051,7.74-0.33,11.83c1.18,2.83,2.92,4.25,5.17,6.33
		c3.65,3.398,6.66,5.49,11.5,6.67c2.141,0.52,3.88-0.35,5.83,0.67c1.77,0.92,3.67,3.83,3.67,3.83"/>
	<path id="PATH66" fill="none" stroke="#000000" stroke-width="4" stroke-miterlimit="100" d="M186.83,344.17
		c0,0,2.65-2.68,4.67-2.67c3.811,0.02,2.641,5.891,3.17,9.67c0.471,3.34-0.17,9-0.17,9"/>
	<path id="PATH67" d="M289.83,316c4-3,2.33-22.33,3.67-38.67c9.67,10,7,34.67,5,37.67c-6,9-6.33,12.67-15.33,21.33
		c0-9.67,2-16.67,6.67-20.33H289.83z"/>
	<path id="PATH68" d="M289.17,230c-16.33-20.33-18.67-9-27.33-21c11.67-6.33,27.33,10.67,31.67,15c24.67,23.67,11.33,26.33,17,37
		c-9.67-18.33-13.67-20.67-21.33-31H289.17z"/>
	<path id="PATH69" d="M291.83,206c-20.67-17.33-20.33-9-29-21c10.33-1.67,28.33,8,33,12.67C310.16,211,310.16,223,316.16,234
		C297.49,216.67,304.16,216.33,291.83,206z"/>
	<path id="PATH70" d="M290.83,174c-20.67-17.33-14.33-8.33-29-18c14,0.33,18.67-4.33,31.67,11c12.67,15,14.67,19,20.67,30
		c-18.33-17.67-11-12.67-23.33-23H290.83z"/>
	<path id="PATH71" d="M267.5,136c-3.83-1.83-1.33-2.33-6-4c3.33-1.83,6.83-1.83,8.5,1.33c1.67,3.17,0.33,3,2.17,8.67
		C267.84,139.17,269.17,136.83,267.5,136z"/>
	<path id="PATH72" d="M313,274.67c-1.83-3.17,1.5-3.17-1.5-7.67c3.33-1.83,6.5,0.5,6.83,6.33c0.17,3.5-0.17,4.5-0.17,10.83
		c-4.33-3-4.33-8.17-5.17-9.5L313,274.67z"/>
	<path id="PATH73" d="M265.5,381.67c-14.33,0-6.83-0.92-18.08,0.08c-0.92-6.42,8.08-5.42,14.42-5.42c21.33-14.33,10.33-19,20.67-18
		c0.67,5.67-2,15.67-17,23.33L265.5,381.67z"/>
	<path id="PATH74" d="M304.17,339c-11.67,8-13.17,10.75-24.42,11.75c5.08-7.08,4.75-8.75,9.75-9.42c11-1.33,12.67-17.67,22.33-24.67
		c1.33,2-2,18-7.67,22.33L304.17,339z"/>
	<path id="PATH75" d="M302.5,405.33c-6,4.33-12.33,4-19.75,5.42c2.75-7.08,14.75-8.42,19.42-13.75c4-8,9.67-11,14-13.67
		C317.84,385,314.84,396.33,302.5,405.33z"/>
	<path id="PATH76" d="M294.5,442.33c-7.33,0-10.33-1-17.75,0.42c3.42-9.75,14.42-2.08,18.75-7.08c2-3.67,5.67-2.67,9.67-1.67
		C299.84,439.33,302.84,441.33,294.5,442.33z"/>
	<path id="PATH77_1_" d="M323.17,465.67c-4.33,1,1.33,6-14,5.33c8.33-8,9-7.33,13.33-12.33c2-3.67,5.67-2.67,9.67-1.67
		C326.84,462.33,324.5,465.33,323.17,465.67z"/>
	<path id="PATH78" d="M186.5,396.33c-8,0-2.33-3.33-5.75-5.58c3.42-9.75,2.08,0.92,8.75,0.92c3.67,0,10,0.67,8.67,7
		c-3.33,1.33-3.67-3.33-11.67-2.33V396.33z"/>
	<path id="PATH79" fill="none" stroke="#550B00" stroke-width="4" stroke-miterlimit="100" d="M143,220.5c0,0,2.72-7.42,6.5-9.5
		c2.51-1.38,4.7-2.12,7.5-1.5c2.39,0.53,5.5,3.5,5.5,3.5"/>
	<path id="PATH80" fill="none" stroke="#000000" stroke-width="4" stroke-miterlimit="100" d="M50.5,386c0,0,11.43,6.859,17.5,12
		c5.97,5.061,9.24,9.2,14.5,15c9.85,10.87,15.58,18.85,24.5,30.5c6.52,8.52,10.53,14.44,17,23c11.35,15.021,17.84,26.04,31,39.5
		c9.57,9.79,17.09,15.11,27.5,24c4.85,4.15,13,11,13,11"/>
	<path id="PATH81" fill="none" stroke="#000000" stroke-width="4" stroke-miterlimit="100" d="M22,364.5c0,0,9.07,22.18,14.5,35.5
		c9.02,22.12,14.34,37.15,24,59c5.77,13.04,11.29,21.04,16,34.5c5.77,16.49,4.43,28.94,10,45.5c4.23,12.58,8.55,20.4,14,32.5
		c5.95,13.229,10.71,21.7,16.5,35c4.77,10.95,12,29.5,12,29.5"/>
	<path id="PATH82" fill="none" stroke="#000000" stroke-width="4" stroke-miterlimit="100" d="M54,632.5c0,0-4.72-11.96-5-19.5
		c-0.34-9.229,4.39-14.83,5.5-24c1.29-10.61-1.07-17.87,0-28.5c1.17-11.64,2.86-19.39,6.5-30.5c2.2-6.72,4.04-11.08,7-17.5
		c2.57-5.56,6.82-8.42,7.5-14.5c0.46-4.14-1.5-11-1.5-11"/>
	<path id="PATH83" fill="none" stroke="#000000" stroke-width="4" stroke-miterlimit="100" d="M193,628.5c0,0-17.57-23.94-28.5-38
		c-8.84-11.37-14.45-19.21-24-30c-5.45-6.16-9.52-9.86-15-16c-8.42-9.44-12.77-16.85-21.5-26c-9.07-9.51-26-23.5-26-23.5"/>
	<path id="PATH84" fill="none" stroke="#000000" stroke-width="4" stroke-miterlimit="100" d="M322,624c0,0-22.65-4.2-35-10
		c-13.99-6.57-20.471-15.68-33.5-24c-15.35-9.8-27.279-13.5-42.5-23.5c-7.311-4.8-11.51-8.99-19-13.5c-4.74-2.86-8.13-4.36-13-7
		c-9.59-5.2-15.9-8.83-25.5-14c-10.26-5.53-17.46-8.58-27.5-14.5c-11.65-6.87-19.05-12.07-30-20c-6.29-4.55-10.23-7.92-16.5-12.5
		c-3.91-2.85-7.51-3.7-10.5-7.5c-0.84-1.06-2-3-2-3"/>
	<path id="PATH85" fill="none" stroke="#000000" stroke-width="4" stroke-miterlimit="100" d="M261,630c0,0-24.05-9.16-35.5-19
		c-8.37-7.2-11.8-14.13-19-22.5c-7.971-9.271-13.311-15.43-21.5-24.5c-4.09-4.53-9.3-6.14-11-12c-0.84-2.89-0.5-8-0.5-8"/>
	<path id="PATH88" fill="none" stroke="#000000" stroke-width="4" stroke-miterlimit="100" d="M286,101.5c0,0,17.22-19.92,26-33
		c5.02-7.48,7.96-12.73,12.5-20.5c7.96-13.62,11.06-24.01,20-37c6.43-9.33,12.01-14.58,19-23.5c7.27-9.26,19-25,19-25"/>
	<path id="PATH89" fill="none" stroke="#000000" stroke-width="4" stroke-miterlimit="100" d="M224.5,55.5c0,0,19.48-11.25,30.5-19
		c8.311-5.84,13.25-10.57,21.5-16.5c9.33-6.71,16.46-9.91,25.5-17c10.75-8.43,14.87-17.82,26.5-25c9.16-5.65,16.32-7.53,26.5-11
		c3.54-1.21,9.5-3,9.5-3"/>
	<path id="PATH90" fill="none" stroke="#000000" stroke-width="4" stroke-miterlimit="100" d="M228.5,17.5c0,0,13.23-7.33,21-12
		c10.7-6.43,17.2-11.74,28-18c8.63-5.01,14.439-8.32,23.5-12.5c7.71-3.56,21-8.5,21-8.5"/>
	<path id="PATH91" fill="#427E41" stroke="#000000" stroke-width="3" d="M113,487c-7.5-13-12-30.5-31-57.5c-0.5,35-6,46,3,68.5
		c8,19.5,14.5,30,39,51.5C121,527,121,501.5,113,487z"/>
	<path id="PATH92" fill="none" stroke="#000000" stroke-width="4" stroke-miterlimit="100" d="M122.5,550c0,0-9.95-31.49-17-50
		c-4.76-12.49-9.37-20.28-13.5-33c-4.52-13.93-6.35-23.6-9-38c-1.3-7.09,1.39-13.279-3-19c-2.19-2.859-7.5-6-7.5-6"/>
	<path id="PATH93" fill="#427E41" stroke="#000000" stroke-width="3" d="M177.5,443C157,428,151,419.5,106,415.5
		c32.5,26,36.5,42.5,57,56.5c31.5,21.5,38,27,80.5,37.5C223,499.5,228.5,480.5,177.5,443z"/>
	<path id="PATH94" fill="none" stroke="#000000" stroke-width="4" stroke-miterlimit="100" d="M245,509.5c0,0-24.92-13.08-38.5-23
		c-12.66-9.25-19.25-17.71-31.5-27.5c-18.73-14.97-31.04-25.81-52.5-36.5c-8.04-4.01-13.47-6.67-22-9.5
		c-8.42-2.79-15.23-1.221-23-5.5c-6.63-3.65-15-13.5-15-13.5"/>
	<path id="PATH95" fill="#D96038" stroke="#000000" stroke-width="5" d="M101.5,93C90.97,98.98,76,98,65,89c9.5,27.5,0,40.5-6.5,50
		c-4.5,6.5-11,10.5-19,11C24.5,150.5,9,140-3,107.5l-0.5-130H226c5.5,19-12.5,45-25,53.5c-10.5,7-38,15-66,6
		C137.5,65,123,80.5,101.5,93z"/>
	<path id="PATH96" fill="none" stroke="#000000" stroke-width="4" stroke-miterlimit="100" d="M69,95.5c0,0-10.45-11.63-10-20
		c0.44-8.16,5.65-12.8,11.5-18.5c7.75-7.55,15.52-15.19,26-12.5c3.01,0.77,5.52,1.11,7.5,3.5c3.52,4.25,0.13,9.65-2.5,14.5
		c-3.12,5.74-13.5,11-13.5,11"/>
	<path id="PATH97" fill="none" stroke="#000000" stroke-width="4" stroke-miterlimit="100" d="M50.5,85.5c0,0-5.91-18.75-1.5-28.5
		c4.29-9.47,12.9-11.66,21.5-17.5c8.19-5.57,13.15-11.98,23-13c7.42-0.77,14.14-1.19,19.5,4c4.43,4.29,5.5,15.5,5.5,15.5"/>
	<path id="PATH98" fill="none" stroke="#000000" stroke-width="4" stroke-miterlimit="100" d="M36,25.5c0,0,6.79-10.9,13.5-13
		s14.16-2.53,18.5,3c2.84,3.62,3.45,7.5,2.5,12c-1.61,7.64-10.02,8.5-17,12c-8.38,4.2-14.86,9.07-24,7c-5.99-1.35-10.64-3.36-14-8.5
		c-4.41-6.75-2.48-14.01,0.5-21.5c3-7.52,8.31-10.78,14.5-16C34.2-2.62,41-7,41-7"/>
	<path id="PATH99" fill="none" stroke="#000000" stroke-width="4" stroke-miterlimit="100" d="M142,41c0,0-9.54-8.95-8.5-15.5
		c0.76-4.78,3.66-7.56,7.5-10.5c4.52-3.46,8.84-3.86,14.5-4.5C166.48,9.25,184,18,184,18"/>
	<path id="PATH100" fill="none" stroke="#000000" stroke-width="4" stroke-miterlimit="100" d="M8.5,112c0,0,6.84-14.35,14.5-19
		c3.45-2.1,5.96-4.08,10-4c5.67,0.11,9.53,3.67,12.5,8.5c3.45,5.6,3.96,11.63,1,17.5c-2.16,4.27-4.73,8.25-9.5,8.5
		c-4.47,0.23-10-6.5-10-6.5"/>
	<path id="PATH101" fill="none" stroke="#000000" stroke-width="4" stroke-miterlimit="100" d="M95,5c0,0,6.67,3.45,11,3.5
		c6.96,0.08,12.29-2.96,16.5-8.5c2.23-2.94,4-9,4-9"/>
	<g>
		<g>
			<path d="M118.478,232.405v-2.633c-0.663-2.64-1.977-5.279-5.273-7.256c-2.64-1.977-5.28-2.633-9.233-2.633
				c-3.296,0.657-5.936,2.633-7.25,5.93c-1.983,2.633-3.296,5.273-1.983,9.227c0.663,3.296,1.983,5.279,5.279,7.256l9.226,1.977
				c3.296-1.313,5.937-2.64,7.256-5.272L118.478,232.405z M105.292,225.813l4.616,0.664l3.297,4.609c0,1.982,0,3.953-0.664,4.615
				l-4.616,3.297l-5.273-0.663c-1.32-1.313-2.633-2.634-2.633-4.61c-0.663-1.982,0-3.953,0.657-5.279
				C101.996,226.478,103.316,225.813,105.292,225.813z"/>
		</g>
	</g>
	<line fill="none" stroke="#000000" x1="73.5" y1="303" x2="75.5" y2="293"/>
	<line fill="none" stroke="#000000" x1="80.5" y1="305" x2="75.5" y2="293"/>
	<path id="PATH13" fill="#B35443" stroke="#000000" stroke-width="3" d="M290,580.5c-26-7.5-39-25.5-68.5-35.5
		c30.5-10.5,47.5-2,72.5,0c34.5,3.5,20.5,27,68.5,40C321,589.5,306.5,585.5,290,580.5z"/>
	<path id="PATH86" fill="none" stroke="#000000" stroke-width="4" stroke-miterlimit="100" d="M363,585c0,0-30.78-2.92-48.5-8
		c-13.12-3.76-21.08-8.59-34-13c-11.51-3.93-19.46-5.67-31-9.5c-9.63-3.19-15.48-7.45-25.5-9c-6.859-1.06-11.59-1.1-18.5-0.5
		c-3.779,0.33-7.141-0.99-10,1.5c-1.65,1.43-3,5-3,5"/>
	<path id="PATH87" fill="none" stroke="#000000" stroke-width="4" stroke-miterlimit="100" d="M226.5,543.5c0,0,8.76,0.53,14,1
		c9.41,0.83,15.75,1.09,25,3c11.96,2.47,19.721,5.31,31,10c9.68,4.021,15.66,7.75,25,12.5c6.58,3.34,10.8,5.91,17.5,9
		c4.81,2.21,7.82,4.41,13,5.5c1.12,0.229,3,0.5,3,0.5"/>
</g>
<path id="PATH77" fill="none" stroke="#000000" stroke-width="4" stroke-miterlimit="100" d="M369.59,584.26H2.92V1.74h366.67
	V584.26L369.59,584.26z"/>
</svg>
