<?xml version="1.0" encoding="utf-8"?>
<!-- Generator: Adobe Illustrator 13.0.0, SVG Export Plug-In . SVG Version: 6.00 Build 14948)  -->
<!DOCTYPE svg PUBLIC "-//W3C//DTD SVG 1.1//EN" "http://www.w3.org/Graphics/SVG/1.1/DTD/svg11.dtd">
<svg version="1.1" id="圖層_1" xmlns="http://www.w3.org/2000/svg" xmlns:xlink="http://www.w3.org/1999/xlink" x="0px" y="0px"
	 width="372px" height="587px" viewBox="0 0 372 587" enable-background="new 0 0 372 587" xml:space="preserve">
<g>
	<g>
		<g>
			<path d="M162.876,590.309c1.321,1.314,2.642,1.972,3.299,0.657c60.048-25.079,111.513-65.325,154.402-120.09
				c21.116-27.714,36.948-52.786,46.188-75.88c0.657-1.979,0-3.3-1.321-3.3c-1.32-0.663-1.978-0.663-3.299,0.664
				c-9.897,23.094-25.072,48.159-46.188,75.217c-42.225,54.106-92.376,93.696-151.096,119.433
				C162.876,587.01,162.219,588.324,162.876,590.309z"/>
		</g>
	</g>
	<g>
		<g>
			<path d="M331.132,424.688c-1.314,0-2.635,0.664-2.635,2.636l-0.664,24.422c0,1.972,1.321,2.635,2.642,2.635
				c1.979,0,3.3-0.663,3.3-2.635v-24.422C333.774,425.352,333.117,424.688,331.132,424.688z"/>
		</g>
	</g>
	<g>
		<g>
			<path fill="#D96038" d="M330.475,389.062c-3.299,0-5.94,1.314-6.598,2.635c-2.643,2.636-3.3,7.262-3.3,13.86
				c0,5.935,1.979,11.869,5.277,15.832l5.277,5.935l5.284-5.935c3.299-3.963,4.613-9.897,4.613-16.495
				c0-6.599-0.657-10.562-3.299-13.197C337.073,389.719,334.432,389.062,330.475,389.062z"/>
		</g>
	</g>
	<g>
		<g>
			<path d="M330.475,386.419c-3.956,0-7.255,1.979-9.24,3.957c-1.978,2.642-3.956,7.919-3.956,15.181
				c0.657,10.555,4.62,19.131,12.539,23.751h2.636c7.919-4.62,11.219-13.196,11.219-24.414c0-6.599-0.657-11.876-3.3-15.175
				C338.395,387.733,335.095,386.419,330.475,386.419z M330.475,391.696c3.3,0,5.277,0.664,5.941,1.979
				c1.314,1.321,2.636,5.283,2.636,11.219v0.663c0,6.599-2.636,13.196-7.92,18.468c-5.277-5.271-7.912-11.212-7.912-18.468v-0.663
				c0-5.936,0.657-9.897,1.978-11.219L330.475,391.696z"/>
		</g>
	</g>
	<g>
		<g>
			<path d="M302.761,462.3c-1.979,0-2.636,1.314-2.636,2.642l-1.984,25.065c0,1.327,1.321,2.642,2.642,2.642
				c1.979,0,2.643-0.657,2.643-1.978l1.314-25.729C304.739,463.614,304.082,462.3,302.761,462.3z"/>
		</g>
	</g>
	<g>
		<g>
			<path fill="#D96038" d="M304.082,427.323c-3.957,0-6.599,0.664-7.92,1.984c-1.978,2.643-3.299,7.256-3.299,13.854
				c-0.657,5.94,1.321,11.882,4.62,16.495l5.277,5.284l4.62-4.627c3.956-4.613,5.941-9.897,6.599-15.832
				c0-7.262-0.657-11.875-3.3-13.86C310.022,428.65,307.381,427.987,304.082,427.323z"/>
		</g>
	</g>
	<g>
		<g>
			<path d="M313.322,428.65c-1.985-2.642-5.284-3.963-9.24-3.963c-4.62,0-7.256,0.664-9.897,3.3
				c-2.642,3.299-3.957,7.919-3.957,15.175c-0.663,7.255,1.315,12.539,4.614,17.816l5.94,6.599h3.3
				c7.255-5.277,11.875-12.533,12.539-23.095C316.621,437.221,315.957,431.286,313.322,428.65z M304.082,429.965
				c2.642,0.657,3.956,0.657,5.277,1.321c1.32,1.979,1.32,5.277,1.32,9.897v2.636c0,7.262-2.642,13.86-7.919,17.823
				c-5.277-3.963-7.919-9.897-7.919-17.16v-1.32c0.663-5.941,1.984-9.897,3.299-11.876L304.082,429.965z"/>
		</g>
	</g>
	<g>
		<g>
			<path d="M277.688,488.692c-0.657-1.321-1.32-1.984-3.299-1.984s-2.642,0.663-2.642,3.299l3.299,24.422
				c0,1.972,1.321,1.972,3.299,1.972l2.643-2.636L277.688,488.692z"/>
		</g>
	</g>
	<g>
		<g>
			<path fill="#D96038" d="M269.112,451.745c-3.299,0.657-5.277,1.972-7.262,3.299c-1.314,2.636-1.314,7.256-0.657,14.511
				c0.657,5.941,3.299,11.219,7.255,15.182l5.941,4.613l4.62-5.94c2.636-5.271,3.956-10.555,2.636-16.496
				c-0.657-7.256-2.636-11.869-4.614-13.196C275.047,451.745,272.411,451.081,269.112,451.745z"/>
		</g>
	</g>
	<g>
		<g>
			<path d="M258.551,470.212c1.321,6.599,3.3,11.882,8.583,16.496l6.599,4.626h2.636l4.62-6.598
				c3.299-5.941,3.956-11.882,3.299-19.138c-0.657-6.599-3.299-11.219-5.941-14.518c-1.978-1.979-5.277-2.636-9.897-1.979
				c-3.956,1.314-7.255,2.643-8.576,5.277C257.894,457.68,257.894,462.3,258.551,470.212z M265.149,456.358
				c1.321-1.314,2.642-1.314,4.62-1.979l5.277,0.664c1.984,1.972,3.299,5.935,4.62,11.869v3.963c0,5.935-1.979,10.561-5.277,15.175
				c-6.599-4.614-9.897-9.897-10.555-17.153l-0.664-6.598C263.171,459.657,263.835,457.68,265.149,456.358z"/>
		</g>
	</g>
	<g>
		<g>
			<path d="M353.569,450.417c-1.321-1.972-1.979-2.635-3.3-1.972l-24.415,6.599c-1.978,0.657-2.635,1.972-1.978,3.299
				c0.657,1.972,1.978,2.636,3.299,2.636l24.415-7.262C352.912,453.06,353.569,451.745,353.569,450.417z"/>
		</g>
	</g>
	<g>
		<g>
			<path fill="#D96038" d="M386.561,439.205c-1.321-3.299-2.643-4.62-4.62-5.94l-13.854,1.32c-5.94,1.321-10.561,4.62-14.517,9.897
				l-3.3,6.599l6.599,3.299c5.94,1.979,11.876,1.979,17.816,0c5.935-1.978,10.555-3.963,11.876-7.262
				C387.881,445.146,387.881,442.505,386.561,439.205z"/>
		</g>
	</g>
	<g>
		<g>
			<path d="M388.538,438.548c-0.657-3.963-3.299-6.598-5.935-7.262l-15.838,0.664c-5.941,1.972-11.219,5.935-14.518,10.555
				c-1.979,2.642-3.299,5.277-4.62,7.912l1.321,1.985l7.262,4.613h19.131c6.599-2.636,11.219-5.271,13.196-8.57
				c1.321-2.642,1.979-5.94,0.664-9.897H388.538z M383.918,440.52l0.664,3.3c0,3.299-3.299,5.283-11.219,7.926
				c-7.919,2.635-14.517,1.972-19.794-1.985c3.299-5.94,8.576-10.555,15.175-12.539l11.875-1.972
				C381.94,435.906,383.261,437.885,383.918,440.52z"/>
		</g>
	</g>
	<g>
		<g>
			<path d="M323.877,486.708c-1.321-1.972-2.643-2.636-3.3-1.972l-24.415,7.255c-1.978,0-2.635,1.979-1.978,3.3
				c0.657,1.978,1.978,2.642,3.299,1.978l23.751-7.262C323.22,490.007,323.877,488.035,323.877,486.708z"/>
		</g>
	</g>
	<g>
		<g>
			<path fill="#D96038" d="M356.868,476.153c-1.321-3.299-2.642-5.277-4.62-5.941l-14.518,0.664
				c-5.277,1.979-10.555,5.277-13.854,9.897l-3.3,6.598l6.599,3.3h17.153c6.598-1.979,11.218-3.963,12.539-6.599
				C358.189,482.094,358.189,479.452,356.868,476.153z"/>
		</g>
	</g>
	<g>
		<g>
			<path d="M358.847,485.394c1.32-2.643,1.32-5.941,0-10.555c-0.657-3.963-3.3-6.599-5.935-7.262l-15.839,0.663
				c-5.941,2.636-11.219,5.935-14.518,11.212c-1.979,2.642-3.299,4.62-4.62,7.256c0,0.663,0,1.984,1.321,2.642l7.262,3.956
				c6.599,1.985,12.533,1.985,19.131,0C352.248,490.671,356.868,488.035,358.847,485.394z M339.052,473.512l11.875-1.314l3.3,4.613
				l0.663,3.299c0,3.3-3.299,5.941-11.218,7.926c-7.256,2.636-13.854,2.636-19.795-1.327
				C326.519,480.109,331.132,475.496,339.052,473.512z"/>
		</g>
	</g>
	<g>
		<g>
			<path d="M300.782,517.728c0-1.327-0.657-2.642-2.642-2.642l-25.072,1.314c-1.978,0-2.635,0.663-2.635,1.984
				c0,1.979,0.657,2.642,3.299,2.642h24.408C300.125,521.026,300.782,519.699,300.782,517.728z"/>
		</g>
	</g>
	<g>
		<g>
			<path fill="#D96038" d="M335.752,516.4c0-3.3-1.32-5.935-2.635-7.256c-2.643-1.979-6.599-2.642-13.86-2.642
				c-5.935,0-11.876,1.984-15.832,5.94l-5.284,5.284l5.284,5.271c4.613,3.3,10.555,4.627,16.495,4.627l13.854-3.299
				C335.752,522.341,336.416,519.699,335.752,516.4z"/>
		</g>
	</g>
	<g>
		<g>
			<path d="M334.432,506.503c-3.3-1.972-7.913-3.3-15.175-2.636c-6.599,0.664-12.533,2.636-17.817,6.599l-5.277,5.935v3.299
				l5.941,5.284c5.277,3.956,11.219,5.94,18.474,5.277c6.599-0.664,11.876-1.979,15.175-3.963c1.979-1.972,3.3-5.271,2.643-9.897
				C337.73,511.786,337.073,508.487,334.432,506.503z M331.132,522.341c-1.978,1.985-5.277,1.985-11.212,2.643
				c-7.919,0-13.86-1.985-18.48-7.256c3.963-5.284,9.897-7.926,17.817-8.583l11.875,1.984c1.321,0.657,1.985,2.636,1.985,5.271
				v1.327L331.132,522.341z"/>
		</g>
	</g>
	<g>
		<g>
			<path fill="#858585" d="M246.019,481.437l-7.92-7.262l-8.576,7.262c-5.277,5.935-7.919,13.197-8.576,20.452
				c0,7.913,2.635,14.512,7.912,19.795l8.583,6.599l7.913-6.599c5.941-5.283,8.583-11.882,8.583-18.48
				C254.595,495.291,251.296,488.035,246.019,481.437z"/>
		</g>
	</g>
	<g>
		<g>
			<path d="M236.778,471.539l-9.234,8.57c-5.94,6.599-9.239,13.86-9.239,21.779c0,7.913,2.642,15.175,8.576,21.109l8.576,7.926
				c1.321,0.657,1.984,0.657,2.642,0l9.24-7.262c5.935-5.935,9.234-12.533,9.234-20.459c0.663-8.569-1.979-15.832-7.92-22.43
				l-9.233-9.234H236.778z M251.296,501.889v0.657c0,10.555-4.62,17.817-13.854,22.438c-9.24-5.284-13.86-13.197-13.86-22.438
				v-0.657c0.664-9.24,4.62-17.816,14.518-24.414C247.339,484.072,251.296,492.648,251.296,501.889z"/>
		</g>
	</g>
	<g>
		<g>
			<path d="M237.441,525.641c-1.984,0-2.642,0.657-2.642,2.642l-1.321,21.109c0,1.327,0.664,1.984,1.979,2.642l2.642-2.642
				l1.979-21.109C240.077,526.961,238.756,526.298,237.441,525.641z"/>
		</g>
	</g>
	<g>
		<g>
			<path fill="#858585" d="M210.385,516.4l-5.935-9.234l-9.897,5.277c-7.262,5.284-11.882,11.219-13.196,18.48
				c-1.985,6.599-0.664,13.854,3.299,20.452l6.598,8.576l9.233-3.962c6.599-4.614,11.219-9.897,12.54-17.811
				C215.005,531.581,213.685,524.326,210.385,516.4z"/>
		</g>
	</g>
	<g>
		<g>
			<path d="M213.027,515.743l-7.263-10.555l-2.635-0.657l-10.562,5.935c-7.255,5.935-11.875,11.875-13.854,19.131
				c-1.978,7.926-0.657,15.182,3.299,23.094l7.256,9.24l2.642,0.657c3.299-1.314,6.599-2.636,9.897-5.271
				c7.256-4.627,11.876-10.562,13.854-17.823C217.646,531.581,216.983,523.662,213.027,515.743z M211.706,531.581l-0.657,5.941
				c-2.642,9.897-9.24,16.495-19.138,19.795c-5.941-5.941-9.24-12.539-9.24-19.795l1.321-6.599
				c1.979-9.24,8.577-16.495,19.795-21.122C208.407,517.063,211.706,524.326,211.706,531.581z"/>
		</g>
	</g>
	<g>
		<g>
			<path d="M191.911,557.317c-1.979,0-3.299,0-3.299,1.972l-6.599,19.795c0,1.327,0.657,3.299,2.642,3.299
				c1.314,1.327,2.635,0,3.299-1.972l5.935-19.795C193.89,559.289,193.232,557.317,191.911,557.317z"/>
		</g>
	</g>
	<g>
		<g>
			<path fill="#858585" d="M253.273,555.99l6.599,8.582c5.277,5.941,11.876,7.913,19.795,7.913c7.262,0,13.86-1.972,20.458-7.913
				l7.256-8.582l-7.256-7.913c-6.598-5.284-13.196-8.583-21.115-8.583c-7.262,0-13.86,3.299-19.138,8.583
				C256.573,550.719,254.595,554.018,253.273,555.99z"/>
		</g>
	</g>
	<g>
		<g>
			<path d="M251.296,557.317l6.598,9.897c6.599,5.271,13.197,8.569,21.773,8.569c7.919,0,14.518-3.299,21.772-8.569l8.583-9.897
				v-2.643l-8.583-8.582c-7.255-5.935-14.511-8.57-22.43-8.57s-14.518,2.636-21.116,8.57c-3.299,3.299-5.94,6.598-6.598,9.239
				V557.317z M304.082,555.99c-7.256,9.896-15.839,14.523-24.415,14.523c-9.233,0-17.153-4.627-23.094-14.523
				c4.62-8.57,11.875-13.197,22.437-13.197C289.564,542.793,297.483,547.42,304.082,555.99z"/>
		</g>
	</g>
	<g>
		<g>
			<path d="M226.881,552.69c-1.979,0-2.636,1.327-2.636,3.3c0,1.327,0.657,1.984,2.636,1.984l26.393,1.314
				c1.321,0,2.643-1.314,2.643-2.636c0-1.979-1.321-2.636-2.643-2.636L226.881,552.69z"/>
		</g>
	</g>
	<g>
		<g>
			<path d="M294.185,247.855c0-1.321-1.321-2.642-3.3-1.321c-1.32,0-1.32,1.321-1.32,2.636l2.642,13.86
				c1.321,11.876,1.321,23.094,0,34.313c-4.62,36.29-21.772,65.325-52.129,87.756l-34.97,24.414
				c-45.53,31.671-77.858,58.064-96.332,78.522c-32.334,34.963-52.786,74.553-61.369,118.77c-0.657,1.972,0,3.299,1.985,3.299
				l3.299-1.984c7.913-44.204,28.372-83.136,59.385-116.785c19.131-19.795,50.801-45.53,96.333-77.207l34.969-25.065
				c31.014-23.095,49.487-53.45,54.107-91.062c1.321-11.876,1.321-23.752,0-34.97L294.185,247.855z"/>
		</g>
	</g>
	<g>
		<g>
			<path fill="#D96038" d="M294.185,212.879c-1.979-1.314-3.957-1.972-7.919-1.314c-3.3,0-5.277,1.978-6.599,3.299
				c-1.979,2.642-1.979,7.256-1.321,13.854c1.321,6.598,3.3,11.218,7.92,15.838l5.94,3.957l4.62-5.941
				c2.636-4.614,3.299-10.555,2.636-17.153C298.141,218.82,296.162,214.864,294.185,212.879z"/>
		</g>
	</g>
	<g>
		<g>
			<path d="M285.608,208.923c-3.963,0-6.599,1.985-7.92,4.62c-1.978,1.321-2.642,4.62-2.642,8.577l0.664,7.255
				c1.32,7.262,3.956,12.54,8.576,17.159l6.598,4.62l3.3-0.657c6.598-5.941,9.24-14.524,7.255-25.079
				c-0.657-7.255-3.299-13.196-6.598-15.175C292.863,208.266,289.564,208.266,285.608,208.923z M281.646,216.179l5.283-2.636
				l4.614,1.321c2.642,0.657,3.962,5.277,5.283,11.212v3.963c0,6.599-1.984,11.218-5.283,15.175
				c-5.277-3.299-9.234-8.576-10.555-16.496l-0.657-6.598L281.646,216.179z"/>
		</g>
	</g>
	<g>
		<g>
			<path d="M310.022,269.629c-1.984-0.664-2.642,0-3.299,1.32l-13.196,21.109c-1.321,0.664-0.664,1.984,0.657,3.963
				c1.32,0.664,2.642,0,3.299-1.321l13.196-21.108C312.001,271.606,311.337,270.949,310.022,269.629z"/>
		</g>
	</g>
	<g>
		<g>
			<path fill="#D96038" d="M327.833,239.936c-3.299-1.978-5.277-1.978-7.256-1.978c-3.299,1.314-6.598,5.277-9.897,10.555
				c-3.299,5.284-3.956,11.218-3.956,16.495l1.979,7.256l7.255-1.314c5.277-2.642,9.897-6.598,12.54-11.882
				c3.956-5.935,5.277-10.555,4.62-13.197C333.117,243.235,330.475,241.257,327.833,239.936z"/>
		</g>
	</g>
	<g>
		<g>
			<path d="M329.817,237.958c-3.963-2.642-7.262-3.299-9.897-1.985c-3.963,0.664-7.262,4.626-11.882,10.561
				c-5.277,9.897-5.935,18.474-1.314,26.394l1.979,1.979c9.233-0.658,16.495-5.277,21.772-14.512
				c3.957-5.941,5.941-11.225,5.277-15.181C335.752,242.572,333.117,239.936,329.817,237.958z M330.475,247.198
				c0,2.635-1.32,5.935-3.956,10.555c-3.299,6.599-9.24,9.897-15.839,11.876c-0.657-1.979-1.32-3.963-1.32-7.263
				c0-4.613,1.32-9.233,3.963-12.533c2.635-5.277,5.277-8.577,7.255-8.577l5.941,0.658
				C329.154,243.235,330.475,244.556,330.475,247.198z"/>
		</g>
	</g>
	<g>
		<g>
			<path d="M307.381,315.152h-3.956l-19.138,15.839c-1.321,1.321-1.321,2.642-0.657,3.956h3.956l19.138-15.832
				C307.381,318.452,308.038,316.48,307.381,315.152z"/>
		</g>
	</g>
	<g>
		<g>
			<path fill="#D96038" d="M333.774,292.723c-2.643-3.3-4.62-3.963-6.599-3.963c-3.299,0-7.919,1.984-13.196,6.598
				c-4.62,3.963-7.256,8.583-9.24,13.86v7.263c7.919,2.635,15.838,0.657,23.094-5.941c5.284-3.956,8.583-7.919,8.583-11.219
				C337.073,297.343,335.752,295.357,333.774,292.723z"/>
		</g>
	</g>
	<g>
		<g>
			<path d="M302.761,309.218l-0.657,7.92l1.979,1.978c9.24,3.3,17.152,0.664,25.735-6.598c5.935-4.62,8.577-8.577,9.234-12.533
				c0.663-2.642-0.657-5.941-3.3-9.897c-3.299-3.3-5.935-4.626-9.233-3.963c-3.299,0-8.583,1.979-13.86,6.599
				S304.082,302.62,302.761,309.218z M326.519,290.744c1.314,0,3.299,1.314,4.613,3.299l2.643,4.614
				c0,1.984-2.643,5.94-7.256,10.561c-5.941,3.963-11.882,6.599-19.138,5.935c0-7.255,3.299-13.196,8.576-18.467
				C320.577,292.723,323.877,290.744,326.519,290.744z"/>
		</g>
	</g>
	<g>
		<g>
			<path d="M263.171,365.967c0,2.636,1.321,2.636,3.3,1.972l23.757-6.598c1.315-0.657,2.636-1.972,1.315-3.3
				c0-1.972-1.315-2.635-3.3-1.972l-23.751,6.599C263.171,363.325,262.514,364.64,263.171,365.967z"/>
		</g>
	</g>
	<g>
		<g>
			<path fill="#D96038" d="M306.724,342.209c-5.941,1.321-10.562,4.62-13.86,9.897c-1.979,2.636-2.636,4.62-3.299,6.599l6.598,3.299
				h17.16c6.598-1.978,10.555-3.963,11.875-6.598c1.321-1.979,1.321-4.62,0.657-7.92c-1.32-3.299-2.635-5.277-5.277-5.94
				L306.724,342.209z"/>
		</g>
	</g>
	<g>
		<g>
			<path d="M327.176,356.727c1.979-2.642,1.979-5.94,0.657-9.897c-1.314-4.62-3.299-7.255-6.599-7.919l-15.175,0.664
				c-6.598,1.972-11.875,5.935-15.175,10.555c-2.642,3.956-3.956,5.94-3.956,7.912c0,0.664,0,1.328,0.657,2.643l7.256,3.956
				c5.94,1.984,12.539,1.984,19.138,0C320.577,362.004,325.197,359.369,327.176,356.727z M319.92,343.53
				c0.657,0,1.979,1.979,3.3,4.613l0.657,3.3c0,3.299-3.957,5.94-11.219,7.926c-7.919,2.635-14.518,1.972-19.795-1.985
				c1.979-5.94,7.262-10.555,14.518-12.539L319.92,343.53z"/>
		</g>
	</g>
	<g>
		<g>
			<path d="M243.376,389.719l24.415-0.657c1.979-0.664,2.643-1.328,2.643-3.3c0-1.327-0.664-2.642-2.643-1.984l-25.072,1.321
				c-1.32,0-2.642,0.663-2.642,2.635C240.077,389.062,241.398,389.719,243.376,389.719z"/>
		</g>
	</g>
	<g>
		<g>
			<path fill="#D96038" d="M305.402,384.435c-0.663-3.956-1.32-5.935-2.642-7.913c-2.636-1.32-7.256-1.984-14.518-1.984
				c-5.935,0.664-11.212,2.642-15.175,6.599l-5.277,5.283l5.941,5.277c4.613,2.636,9.897,3.963,16.495,3.3
				c6.599,0,10.555-1.321,13.197-3.3C304.739,389.719,306.06,387.733,305.402,384.435z"/>
		</g>
	</g>
	<g>
		<g>
			<path d="M265.149,385.099c-0.657,0.663-0.657,1.32,0,2.635l6.599,5.284c5.283,3.956,11.218,5.277,18.479,5.277
				c7.256-0.664,12.533-2.636,14.512-5.277c2.642-1.321,3.299-4.62,3.299-9.24c-0.657-4.613-1.979-7.913-3.956-9.24
				c-3.3-2.636-7.92-2.636-15.839-2.636c-7.255,0-12.532,2.636-17.152,6.599L265.149,385.099z M288.243,377.179l12.539,1.321
				c0.657,1.321,1.979,3.299,1.979,5.935v1.327l-1.979,4.614l-11.218,1.984c-7.919,0.657-13.196-1.327-18.474-6.599
				C275.047,380.479,280.988,377.836,288.243,377.179z"/>
		</g>
	</g>
	<g>
		<g>
			<path d="M283.63,279.525h-3.299c-1.985,0-2.643,1.321-1.321,3.299l12.533,21.116c1.32,1.979,2.642,1.979,3.962,1.314
				c1.979-1.314,1.979-2.635,1.321-3.956L283.63,279.525z"/>
		</g>
	</g>
	<g>
		<g>
			<path fill="#D96038" d="M274.39,279.525l6.599,1.321l1.978-6.599c0.664-5.94-1.32-11.218-4.62-16.495
				c-3.299-5.941-6.598-9.24-9.897-9.897c-1.314-0.657-3.956,0-7.255,1.978c-3.3,1.321-4.62,3.299-4.62,5.278
				c-0.657,3.299,0.663,7.919,4.62,13.196C264.492,274.248,268.448,277.547,274.39,279.525z"/>
		</g>
	</g>
	<g>
		<g>
			<path d="M283.63,282.824c3.956-8.576,3.299-17.816-2.642-26.393c-3.957-6.598-7.256-9.897-11.219-11.218
				c-2.636-0.657-5.935-0.657-9.897,1.985c-3.299,2.635-5.935,5.271-5.935,7.913c-0.664,3.956,0.657,9.24,4.613,15.181
				c5.941,9.233,13.197,13.854,22.438,13.854C282.966,284.146,283.63,283.488,283.63,282.824z M280.331,272.264l-0.664,5.941
				c-7.256-0.658-12.533-4.613-16.496-10.555c-2.635-4.62-4.62-7.92-4.62-11.219c0-1.979,1.985-3.299,3.963-4.62l5.277-1.978
				c2.643,1.321,5.277,4.62,8.577,9.234C279.01,263.03,280.331,267.65,280.331,272.264z"/>
		</g>
	</g>
	<g>
		<g>
			<path d="M267.791,316.48c-1.32,1.314-1.32,2.635-0.657,3.956l13.197,21.772c0.657,1.321,1.978,1.321,3.299,0
				c1.314,0,1.979-1.978,0.657-3.299l-13.196-21.772C270.434,315.816,269.112,315.816,267.791,316.48z"/>
		</g>
	</g>
	<g>
		<g>
			<path fill="#D96038" d="M249.317,286.787c-2.642,1.973-4.62,3.957-4.62,5.936c-0.657,3.299,0.657,7.919,3.956,13.196
				c3.3,5.935,7.92,9.233,13.197,11.219l7.262,1.978l1.979-7.262c0-5.935-0.657-11.212-3.957-16.496
				c-3.963-5.935-7.262-9.233-10.561-9.896C254.595,284.803,251.953,285.461,249.317,286.787z"/>
		</g>
	</g>
	<g>
		<g>
			<path d="M271.748,319.779l1.984-7.926c0.657-5.935-1.321-12.533-5.284-18.468c-3.299-5.94-7.255-9.239-10.555-10.562
				c-3.299-1.32-6.598,0-9.897,1.979c-3.299,1.984-5.277,4.62-6.598,7.256c-0.657,3.963,0.657,8.583,5.277,15.839
				c3.963,5.283,7.919,9.24,14.518,11.882l7.919,1.972L271.748,319.779z M256.573,287.445c1.978,1.314,4.62,4.613,7.919,9.24
				c2.642,3.956,3.956,9.233,3.956,13.196l-0.657,5.935c-7.255,0-12.539-3.963-16.495-10.562c-3.3-5.271-4.62-8.569-4.62-11.212
				l0.663-0.657l3.3-3.963C253.273,287.445,254.595,287.445,256.573,287.445z"/>
		</g>
	</g>
	<g>
		<g>
			<path d="M249.975,348.808c-0.657-1.979-1.979-2.636-3.299-1.321c-1.979,0.657-1.979,1.985-1.321,3.957l11.882,21.122
				c0.657,1.972,2.636,2.636,3.957,1.972c1.32-1.314,1.978-2.636,0.657-3.956L249.975,348.808z"/>
		</g>
	</g>
	<g>
		<g>
			<path fill="#D96038" d="M236.778,315.816c-1.979-0.664-5.277,0-7.92,1.321c-3.299,1.978-4.613,3.299-4.613,5.277
				c-0.664,3.299,0.657,7.919,3.956,13.859c2.643,5.935,6.599,9.234,12.54,11.869l7.255,1.328l1.979-6.599
				c0.664-5.941-1.321-11.225-3.956-17.159C242.719,319.779,239.42,316.48,236.778,315.816z"/>
		</g>
	</g>
	<g>
		<g>
			<path d="M228.201,315.152c-3.956,1.328-6.598,3.963-6.598,6.599l-0.657,2.642c0,3.3,1.314,7.92,4.613,13.196
				c5.941,9.24,12.539,14.518,22.437,14.518l1.979-0.663c4.62-8.57,3.963-17.153-1.979-26.394
				c-3.299-6.598-6.598-10.555-9.897-11.869C234.8,312.518,231.501,312.518,228.201,315.152z M230.18,319.115l5.941-0.663
				l7.919,8.583c1.979,4.613,3.299,8.576,3.299,12.539l-1.32,7.255c-6.599-1.32-11.876-5.283-15.839-11.882
				c-2.636-4.613-3.956-8.57-3.956-10.555l0.657-1.314L230.18,319.115z"/>
		</g>
	</g>
	<g>
		<g>
			<path d="M219.625,375.864c-0.663-1.327-1.32-1.984-3.299-1.327c-1.321,0-1.979,0.664-1.979,2.642l3.957,24.415
				c0.657,1.979,1.978,2.636,3.299,2.636c1.978-0.657,2.642-1.972,2.642-3.299L219.625,375.864z"/>
		</g>
	</g>
	<g>
		<g>
			<path fill="#D96038" d="M217.646,340.889l-7.919-1.314c-3.963,0.657-5.94,2.635-7.262,3.956c-1.314,2.642-1.314,7.913,0,14.511
				c1.321,5.941,3.963,10.562,8.583,14.524l5.935,3.956l3.963-5.283c2.635-5.935,3.299-11.212,1.978-17.811
				C221.604,346.829,220.282,342.873,217.646,340.889z"/>
		</g>
	</g>
	<g>
		<g>
			<path d="M225.56,352.771c-1.314-6.599-3.299-11.225-6.598-13.86c-1.979-1.979-5.277-2.636-9.897-1.979
				c-3.957,1.315-6.599,2.643-7.913,5.277c-1.984,1.321-2.642,3.963-2.642,7.263l1.32,9.233c1.979,9.897,7.92,17.159,15.832,20.459
				l2.643-0.664C225.56,372.565,228.201,363.982,225.56,352.771z M205.107,356.727l-0.657-7.255l0.657-4.627
				c0.657-1.314,2.643-1.972,5.277-2.636l5.277,0.664c2.643,1.972,3.963,5.271,5.284,11.212v5.284c0,5.271-1.984,9.897-4.62,13.854
				C210.385,369.924,207.086,364.64,205.107,356.727z"/>
		</g>
	</g>
	<g>
		<g>
			<path fill="#858585" d="M255.252,440.52l8.583-7.255l-6.599-8.577c-5.94-6.598-12.539-9.897-19.795-10.561
				c-7.919-1.314-14.518,0.663-20.458,5.94l-7.919,7.92l5.94,8.576c5.277,5.941,11.219,9.24,19.138,9.897
				C241.398,447.782,247.996,445.146,255.252,440.52z"/>
		</g>
	</g>
	<g>
		<g>
			<path d="M256.573,443.162l9.24-8.577l0.657-2.635l-7.92-9.897c-6.598-6.599-13.854-9.897-21.109-10.562
				c-8.583-0.663-15.838,1.321-22.437,6.599c-3.299,2.635-5.94,5.277-7.255,7.919c-0.664,1.314-0.664,1.979-0.664,2.642l6.599,9.897
				c5.277,5.935,11.875,9.897,19.794,10.555C241.398,450.417,248.653,447.782,256.573,443.162z M236.778,416.111
				c9.24,1.314,17.159,6.599,23.758,16.496c-7.92,8.576-16.496,12.539-26.394,11.212c-9.897-1.314-17.159-5.935-21.779-15.832
				l7.919-7.263C224.902,417.426,230.844,415.454,236.778,416.111z"/>
		</g>
	</g>
	<g>
		<g>
			<path d="M189.27,422.053c-1.314,0-3.299,0.657-3.299,2.635c0,1.321,0.664,2.636,2.642,2.636l20.452,3.299
				c1.984,0,2.642-0.657,2.642-2.635c0.657-1.979,0-2.636-1.979-3.3L189.27,422.053z"/>
		</g>
	</g>
	<g>
		<g>
			<path fill="#858585" d="M211.706,479.452l9.24-5.94l-5.941-9.897c-4.62-6.599-11.218-11.212-18.474-12.533
				c-7.262-1.979-13.86-0.664-21.116,3.299l-7.256,6.599l3.957,9.897c3.957,6.599,9.897,9.897,17.153,11.875
				C196.531,484.072,204.45,483.409,211.706,479.452z"/>
		</g>
	</g>
	<g>
		<g>
			<path d="M197.188,448.445c-7.919-1.327-15.175-0.663-22.43,3.3l-9.24,7.255v2.643c0,2.635,1.321,5.935,4.62,10.555
				c4.62,6.598,11.218,11.875,18.474,13.196c7.919,1.978,15.838,0.657,23.751-3.3l9.897-7.255l1.32-2.642l-6.598-10.555
				C211.706,454.38,205.107,450.417,197.188,448.445z M179.372,455.044c5.941-2.642,11.218-3.299,16.496-1.327
				c9.897,1.984,16.496,7.926,21.779,18.48c-9.896,7.912-19.137,9.896-27.714,8.576c-9.24-2.636-15.838-9.234-19.137-19.131
				C172.773,459,175.416,457.016,179.372,455.044z"/>
		</g>
	</g>
	<g>
		<g>
			<path d="M148.365,453.06c-1.985-0.657-2.642,0.657-3.299,1.984c-0.664,1.972,0,2.636,1.314,2.636l21.116,5.935l2.642-1.972
				c0.657-1.328,0-2.643-1.321-3.3L148.365,453.06z"/>
		</g>
	</g>
	<g>
		<g>
			<path fill="#858585" d="M167.496,516.4l7.919-7.256l-6.599-9.24c-5.941-5.935-12.539-9.233-19.794-9.897
				c-7.256,0-13.854,1.327-20.452,6.599l-6.598,7.926l5.277,8.569c5.277,5.941,11.219,9.24,18.474,9.897
				C152.979,523.662,160.898,521.684,167.496,516.4z"/>
		</g>
	</g>
	<g>
		<g>
			<path d="M127.249,493.97l-7.919,9.233v1.985c0,1.978,1.978,5.277,5.941,9.897c5.935,5.94,12.533,9.24,20.452,10.555
				c7.919,0.657,15.838-1.314,23.094-6.599l9.24-7.913v-3.299c-0.664-2.642-3.299-5.941-7.262-9.897
				c-6.598-6.599-13.197-9.897-21.773-10.562C141.103,486.708,133.848,488.692,127.249,493.97z M149.022,492.648
				c5.277,0.657,10.555,2.643,15.838,7.256l7.255,8.583c-7.255,8.576-15.838,12.539-25.736,11.876
				c-8.577-0.664-16.496-5.935-21.773-15.832C131.206,495.948,139.125,491.991,149.022,492.648z"/>
		</g>
	</g>
	<g>
		<g>
			<path d="M101.513,498.59c-1.978,0-2.635,0.657-3.299,2.642c0,1.972,0.664,2.636,1.978,3.3l21.116,1.972
				c1.979,0.663,2.642,0,3.299-1.972c0-1.328-1.321-2.643-2.635-3.3L101.513,498.59z"/>
		</g>
	</g>
	<g>
		<g>
			<path fill="#858585" d="M135.168,555.332l7.255-9.239l-9.24-7.256c-6.599-4.613-14.511-5.941-21.109-5.277
				c-7.262,0.664-13.86,4.62-18.48,10.561l-5.277,9.234l7.262,7.262c6.599,4.613,13.197,6.599,20.452,5.271
				C123.287,565.229,129.885,561.273,135.168,555.332z"/>
		</g>
	</g>
	<g>
		<g>
			<path d="M134.505,536.195c-7.919-4.614-15.175-6.599-23.094-5.271c-7.919,0.657-14.517,5.271-19.794,11.869
				c-3.957,4.627-5.935,7.926-5.935,9.897v1.984l8.576,7.913c7.255,5.284,14.518,7.262,22.43,6.599
				c7.262-1.314,14.518-5.271,20.458-11.869l7.256-9.897v-3.3L134.505,536.195z M90.958,552.69
				c5.935-9.897,12.533-15.168,21.116-16.495c9.897-1.314,18.474,1.984,26.393,9.897c-5.284,10.561-13.197,16.495-23.094,17.822
				C105.476,564.572,97.557,560.616,90.958,552.69z"/>
		</g>
	</g>
	<g>
		<g>
			<path d="M90.295,552.69c0-1.972-0.657-1.972-2.635-1.972l-20.458,1.972c-1.979,0-3.299,1.327-2.636,2.642
				c0,1.985,1.321,2.643,2.636,1.985l21.116-1.327C90.295,555.99,90.958,554.675,90.295,552.69z"/>
		</g>
	</g>
	<g>
		<g>
			<path fill="#858585" d="M185.97,358.705l-7.913-7.262l-7.919,7.262c-5.277,6.599-7.919,13.86-7.919,21.116
				c0,7.912,2.642,14.511,8.577,19.795c2.642,2.642,5.277,5.277,7.919,5.94l8.577-6.599c4.62-5.283,7.919-11.882,7.919-19.137
				C194.553,371.901,191.911,365.304,185.97,358.705z"/>
		</g>
	</g>
	<g>
		<g>
			<path d="M179.372,348.808c-0.657-0.664-1.314-0.664-2.635,0l-8.577,9.233c-5.941,6.599-9.24,13.86-9.24,21.78
				c0.657,8.576,3.299,15.175,9.24,21.772l9.234,6.599h1.978l9.241-7.262c5.94-5.935,9.24-13.197,9.24-21.109
				c-0.664-7.92-3.3-15.182-9.24-22.438L179.372,348.808z M191.911,379.821c0,5.94-1.321,11.212-5.277,15.838l-7.919,6.599
				c-9.24-4.627-13.854-12.539-13.854-22.437c0-9.24,3.956-17.817,13.196-25.079C187.291,362.004,191.911,369.924,191.911,379.821z"
				/>
		</g>
	</g>
	<g>
		<g>
			<path d="M178.714,402.915c-1.321,0-2.642,1.314-2.642,2.642l-0.657,26.394c0,1.972,0.657,2.635,2.642,2.635l2.636-1.978
				l0.664-27.051C181.356,404.229,180.693,402.915,178.714,402.915z"/>
		</g>
	</g>
	<g>
		<g>
			<path fill="#858585" d="M144.402,392.36l-9.234-7.262l-7.262,8.576c-4.62,7.256-6.599,14.518-5.935,21.779
				c0,7.256,3.299,13.196,9.897,19.131c2.636,2.636,5.935,3.963,8.577,5.277l7.919-7.255c4.613-6.599,6.598-13.197,5.935-20.452
				C153.643,404.894,150.343,398.295,144.402,392.36z"/>
		</g>
	</g>
	<g>
		<g>
			<path d="M156.941,412.155c-1.321-7.926-4.62-15.182-10.561-21.122l-9.897-7.913h-3.299l-7.913,9.24
				c-5.284,7.913-7.262,15.832-6.598,23.094c1.314,8.57,4.614,15.168,11.212,20.452c3.299,2.642,6.598,5.277,9.24,5.941h2.642
				l8.577-7.926C155.621,427.323,157.599,420.067,156.941,412.155z M151.664,412.155v2.635c0,9.234-3.963,16.496-11.882,21.773
				l-7.913-5.941c-4.62-4.613-6.598-9.233-7.262-15.832l-0.657-1.978c0-7.919,3.957-16.496,11.218-24.415
				C145.723,394.996,151,402.915,151.664,412.155z"/>
		</g>
	</g>
	<g>
		<g>
			<path d="M143.081,439.205l-3.299-1.984c-0.657,0-1.314,0.664-1.314,0.664l-0.664,1.978l0.664,21.116
				c0,1.321,1.314,2.636,3.299,2.636c1.314,0,2.636-1.314,2.636-2.636L143.081,439.205z"/>
		</g>
	</g>
	<g>
		<g>
			<path fill="#858585" d="M105.476,441.848l-7.262-7.263l-9.234,6.599c-5.284,6.599-8.583,13.196-8.583,20.459
				c0,7.912,1.985,14.511,7.262,20.451l7.919,6.599c3.299-1.321,5.935-3.299,8.577-5.941c5.935-5.276,8.577-11.875,9.234-19.137
				C113.389,455.701,111.411,449.103,105.476,441.848z"/>
		</g>
	</g>
	<g>
		<g>
			<path d="M99.535,431.95c-0.657-0.664-1.978-0.664-2.642,0l-9.897,8.569c-5.935,6.599-8.577,13.86-9.234,21.123
				c-0.664,8.569,1.978,15.832,7.919,21.767l8.576,7.262l2.636,0.663l9.24-7.262c5.941-5.935,9.24-12.533,9.24-20.458
				c0.657-7.913-1.984-15.832-7.262-22.431L99.535,431.95z M83.04,463.614V462.3c0.657-9.897,5.277-17.817,15.175-24.415
				c7.919,7.919,11.875,16.495,11.875,24.415v1.314c0,10.561-4.614,17.159-14.511,21.779
				C86.996,479.452,83.04,472.197,83.04,463.614z"/>
		</g>
	</g>
	<g>
		<g>
			<path d="M95.579,486.051c-1.984,0-2.642,1.32-2.642,2.642l-1.321,21.109c-0.658,1.327,0,1.984,1.978,2.642l3.299-2.642
				l1.321-21.109C98.214,487.371,97.557,486.708,95.579,486.051z"/>
		</g>
	</g>
	<g>
		<g>
			<path fill="#858585" d="M58.625,493.97l-9.897-6.599l-6.598,9.897c-3.957,7.263-5.277,14.518-3.299,21.773
				c1.321,7.256,5.277,13.196,11.876,17.153l9.24,4.626l7.256-7.926c3.963-6.598,5.284-13.196,3.299-21.109
				C69.186,505.188,65.223,498.59,58.625,493.97z"/>
		</g>
	</g>
	<g>
		<g>
			<path d="M46.749,485.394l-7.255,10.555c-3.299,8.583-5.284,15.838-3.299,23.751c1.314,7.926,5.935,13.86,13.197,18.48
				c4.613,3.299,7.913,5.277,9.897,5.277l2.636-0.664l7.262-8.569c4.614-7.263,5.935-14.524,4.614-23.095
				c-1.978-7.262-6.598-13.86-13.196-19.795c-5.277-3.963-8.577-5.94-11.212-5.94H46.749z M40.808,518.385v-5.284
				c0-7.912,3.299-15.168,8.583-22.43c10.554,5.277,16.496,12.532,19.131,22.43l0.664,4.627c0,8.57-3.299,15.168-9.897,19.795
				C49.391,534.881,43.45,528.282,40.808,518.385z"/>
		</g>
	</g>
	<g>
		<g>
			<path d="M61.924,538.837l-2.636-0.657c-1.321,0-1.984,1.314-1.984,3.299l3.299,20.452c0.664,1.984,1.984,2.642,3.299,1.984
				c1.985,0,2.642-1.327,1.985-2.642l-3.299-20.452L61.924,538.837z"/>
		</g>
	</g>
	<g>
		<g>
			<path d="M228.201,79.599c-1.32,0-2.642,0.657-2.642,1.979c0,19.794-1.979,40.911-7.255,65.319
				c-9.24,48.173-25.736,86.441-48.83,114.155c-10.555,13.196-28.372,29.035-52.787,48.83
				c-29.028,23.751-50.144,44.86-63.341,62.684c-21.773,30.35-38.269,69.282-48.83,118.105c0,1.32,0.664,2.635,1.984,2.635
				l3.299-1.972c9.897-46.852,26.393-85.777,47.502-115.47c13.196-17.823,34.313-38.933,62.684-62.026
				c24.415-18.48,42.231-35.633,54.107-49.486c23.094-28.378,40.253-67.304,49.487-116.127c4.62-25.079,7.263-46.852,7.263-66.646
				C230.844,80.256,230.18,79.599,228.201,79.599z"/>
		</g>
	</g>
	<g>
		<g>
			<path fill="#D96038" d="M237.441,58.483c-1.32-1.978-3.299-2.635-7.262-3.299c-3.299,0-5.935,0.664-7.919,1.978
				c-1.979,2.642-3.299,6.598-3.956,13.854c0,5.941,1.32,11.882,4.619,16.496l5.277,5.284l5.277-4.62
				c3.963-4.62,5.277-9.897,5.941-15.832C240.077,65.082,238.756,60.462,237.441,58.483z"/>
		</g>
	</g>
	<g>
		<g>
			<path d="M230.18,53.206c-3.299-0.657-6.599,0-9.233,1.979c-2.642,2.635-4.62,7.919-5.284,15.174
				c0,7.256,1.321,13.197,5.284,18.48l5.277,5.935l2.635,0.664l6.599-5.941c3.963-4.62,5.941-9.897,6.599-17.153
				c0.663-7.926-0.657-13.197-3.3-15.838C236.778,53.863,234.143,53.206,230.18,53.206z M221.604,73.001v-1.984
				c0-5.935,0.657-9.897,3.299-11.87l5.277-0.664c1.979,0,3.963,0,4.62,1.321c1.979,1.978,2.642,4.613,2.642,8.576l-0.663,3.299
				c0,8.576-3.3,14.518-8.577,17.816C223.581,85.541,221.604,79.599,221.604,73.001z"/>
		</g>
	</g>
	<g>
		<g>
			<path d="M212.363,118.532c-0.657-1.985-1.314-1.985-3.299-0.664c-1.314,0-1.979,1.321-0.657,3.299l11.218,21.773
				c1.321,1.321,1.979,2.642,3.956,1.321c1.321-1.321,1.321-1.979,0.664-3.299L212.363,118.532z"/>
		</g>
	</g>
	<g>
		<g>
			<path fill="#D96038" d="M191.911,86.855c-3.299,1.321-4.62,3.299-5.277,5.941c-0.664,2.642,0.657,7.255,3.956,13.196
				c3.3,5.277,7.263,9.897,12.54,11.876l7.255,1.978l1.979-7.255c1.321-5.941-0.657-11.219-3.299-16.496
				c-3.3-5.941-6.599-9.897-9.897-10.554C197.853,84.876,195.21,84.876,191.911,86.855z"/>
		</g>
	</g>
	<g>
		<g>
			<path d="M201.151,82.898c-3.299-1.321-6.599-0.657-9.897,1.978c-3.963,1.979-5.941,4.62-6.598,7.919
				c-0.664,3.299,0.657,8.576,3.957,14.511c3.299,5.941,7.255,10.562,13.196,12.54l8.576,2.642l1.979-1.321
				c4.62-8.576,4.62-16.496-0.657-26.393C207.75,88.176,204.45,84.876,201.151,82.898z M193.232,89.497l5.277-1.321
				c2.642,1.321,5.277,3.963,8.576,8.577c1.979,4.62,3.299,7.919,3.299,12.539l-1.978,7.255
				c-6.599-0.657-11.219-5.277-15.839-11.875c-1.979-4.62-3.299-7.919-3.299-9.897C189.27,92.796,190.59,90.811,193.232,89.497z"/>
		</g>
	</g>
	<g>
		<g>
			<path d="M201.809,157.458c-1.321-1.321-2.642-1.321-3.956,0c-1.985,0.664-1.985,1.321-0.664,3.299l13.86,21.116
				c0.657,1.314,1.979,1.978,3.956,0.657c0.657-1.314,1.321-2.642,0-3.957L201.809,157.458z"/>
		</g>
	</g>
	<g>
		<g>
			<path fill="#D96038" d="M178.057,127.766c-2.642,1.978-3.963,4.62-4.62,6.598c-0.664,3.299,1.321,7.919,5.277,13.196
				c3.299,4.62,7.919,8.577,13.197,10.562l7.256,1.314l1.984-7.256c0-5.941-1.984-11.218-5.284-16.496
				c-3.956-5.941-7.255-9.24-10.554-9.897C183.334,125.787,181.356,126.444,178.057,127.766z"/>
		</g>
	</g>
	<g>
		<g>
			<path d="M198.51,134.364c-4.62-6.598-7.92-9.897-11.876-11.218c-2.642-0.657-5.941,0-9.897,2.642
				c-3.963,2.642-5.277,5.277-5.941,8.577c0,3.299,1.321,8.576,5.277,14.518c6.598,8.576,14.517,13.196,23.094,13.196l2.642-1.321
				C205.107,152.18,204.45,142.94,198.51,134.364z M176.073,135.685c0-1.984,1.321-3.299,3.299-5.284
				c2.642-1.314,4.62-1.972,5.941-1.314c2.642,0,5.277,3.299,8.577,7.913c2.642,3.963,4.62,8.583,4.62,13.86l-0.657,5.277
				c-7.263-0.657-12.54-3.957-17.16-10.555C178.057,140.962,176.073,137.663,176.073,135.685z"/>
		</g>
	</g>
	<g>
		<g>
			<path d="M187.291,201.667c0-1.985-1.978-2.642-3.299-1.321c-1.978,0-1.978,1.321-1.321,3.299l10.562,23.094
				c1.32,1.321,1.978,1.978,3.956,1.321c1.321-1.321,1.321-2.642,1.321-3.957L187.291,201.667z"/>
		</g>
	</g>
	<g>
		<g>
			<path fill="#D96038" d="M168.817,168.676c-3.299,1.979-5.277,3.299-5.941,5.277c-0.657,3.299,0,7.919,3.299,13.86
				c2.642,5.935,6.598,9.897,11.882,12.533l7.256,1.978l2.642-6.598c0.657-5.277,0-11.876-2.642-17.153
				c-3.299-5.941-6.599-9.897-9.24-11.218L168.817,168.676z"/>
		</g>
	</g>
	<g>
		<g>
			<path d="M187.291,177.252c-3.299-5.935-6.598-9.897-9.897-11.875l-9.897,0.657c-4.62,2.642-6.598,4.62-7.255,7.919
				c-1.321,3.299,0.657,8.577,3.957,15.175c2.642,5.941,7.262,10.555,12.539,13.197l7.919,2.642c0.657,0,1.978,0,2.635-1.321
				C191.911,195.727,191.911,187.15,187.291,177.252z M175.416,170.654c2.642,0.664,4.62,3.299,7.255,9.233
				c1.985,3.963,2.642,7.262,2.642,11.225l-1.321,8.57c-7.255-1.972-11.875-5.935-15.175-12.533
				c-2.642-5.277-3.299-8.577-3.299-10.561c0-1.972,0.657-3.957,3.957-5.271L175.416,170.654z"/>
		</g>
	</g>
	<g>
		<g>
			<path d="M165.518,237.958c0-1.321-1.321-1.985-3.299-1.321c-1.321,0-1.978,1.321-1.321,3.299l7.919,23.094
				c0.658,1.978,2.642,1.978,3.957,1.978c1.985-0.656,2.642-1.978,1.321-3.956L165.518,237.958z"/>
		</g>
	</g>
	<g>
		<g>
			<path fill="#D96038" d="M149.68,203.646c-3.299,1.321-4.614,3.299-5.277,4.62c-1.979,3.299-1.321,7.913,1.321,13.854
				s5.941,11.218,10.555,13.854l6.598,2.642l3.299-6.598c1.984-5.277,1.984-11.212-0.657-17.153
				c-2.642-5.941-4.62-9.897-7.255-11.218H149.68z"/>
		</g>
	</g>
	<g>
		<g>
			<path d="M168.16,214.207c-2.642-7.262-5.941-11.225-9.24-12.539l-9.897-0.657c-3.957,1.314-6.599,3.957-7.256,7.255
				c-1.984,3.299-0.664,8.577,1.314,15.175c2.642,6.598,6.599,11.218,11.882,14.518l7.913,3.299l2.642-0.657l3.299-7.262
				C170.795,226.74,170.138,220.141,168.16,214.207z M156.278,205.624c2.642,1.321,4.62,4.62,6.598,9.897l1.985,9.24
				c0,3.957-0.664,7.256-2.642,10.555c-6.598-1.978-10.555-6.598-13.854-13.854c-1.985-3.957-2.642-7.256-2.642-9.897
				c0-2.642,1.978-4.62,5.277-5.941H156.278z"/>
		</g>
	</g>
	<g>
		<g>
			<path d="M238.756,131.728c-1.314-1.984-2.635-1.984-3.956,0l-16.495,19.131c-1.321,1.321-0.658,1.978,0,3.299h3.299
				l17.152-18.474C240.077,134.364,240.077,133.043,238.756,131.728z"/>
		</g>
	</g>
	<g>
		<g>
			<path fill="#D96038" d="M261.851,105.335c-2.636-2.642-4.614-3.299-7.256-2.642c-3.299,0-6.599,3.299-11.219,7.913
				c-4.62,4.626-6.598,9.897-6.598,15.838c-0.657,2.642,0,5.284,0,7.256l7.262-0.657c5.935-0.657,10.555-3.957,14.511-8.577
				c4.62-5.277,6.599-9.234,6.599-12.533C265.149,109.292,264.492,107.971,261.851,105.335z"/>
		</g>
	</g>
	<g>
		<g>
			<path d="M263.835,103.351c-3.299-3.299-6.599-3.957-9.897-3.957c-3.299,0.657-7.262,3.957-12.539,9.897
				c-4.62,4.614-7.256,10.555-7.256,16.496c-0.664,5.277-0.664,7.256,0.657,8.577l1.979,1.978l7.919-0.657
				c6.599-1.321,11.876-4.62,16.496-9.897c4.62-5.284,6.598-9.897,6.598-13.196C268.448,109.292,267.134,105.992,263.835,103.351z
				 M245.354,112.591c3.963-4.62,7.262-7.256,9.24-7.919c1.979,0,3.299,1.321,5.277,2.635l3.299,5.284
				c0,1.978-1.978,5.277-5.935,9.897c-5.283,5.941-11.218,8.576-18.48,8.576v-3.299
				C238.756,122.488,241.398,117.204,245.354,112.591z"/>
		</g>
	</g>
	<g>
		<g>
			<path d="M233.479,175.274c-1.32-1.321-1.978-1.985-3.956-1.321l-21.115,14.518c-1.321,0.657-1.321,1.979-0.657,3.299
				c0.657,1.978,1.978,1.978,3.956,0.657l20.452-13.854C234.143,177.252,234.143,175.932,233.479,175.274z"/>
		</g>
	</g>
	<g>
		<g>
			<path fill="#D96038" d="M261.851,155.479l-5.935-4.62c-2.643,0-7.92,1.321-13.197,4.62c-4.62,3.957-8.576,8.577-10.561,13.854
				l-1.314,7.255l7.255,1.327c5.941,0.657,11.219-0.664,16.496-4.626c5.941-3.956,9.24-7.255,9.897-10.555
				C264.492,160.757,263.835,158.779,261.851,155.479z"/>
		</g>
	</g>
	<g>
		<g>
			<path d="M264.492,154.159c-2.642-3.299-5.941-5.277-8.576-5.935c-3.963-0.664-8.577,1.314-14.518,5.935
				c-5.941,3.299-9.897,7.919-11.219,14.517l-1.979,7.913l1.979,1.984l7.919,1.979c6.599,0,12.54-1.321,17.817-5.277
				c5.935-3.957,9.897-7.919,11.218-11.218C267.791,160.757,267.134,157.458,264.492,154.159z M255.252,153.495
				c1.984,0,2.642,0.664,4.62,3.299l1.979,4.626c0,2.636-3.3,5.935-8.577,9.234c-6.598,4.62-13.196,5.935-19.131,3.963
				c0.657-6.599,3.956-12.54,10.555-16.496C249.317,154.822,253.273,152.837,255.252,153.495z"/>
		</g>
	</g>
	<g>
		<g>
			<path d="M226.224,212.222c-0.664-1.979-1.321-1.979-3.3-1.979l-24.414,5.277c-1.321,0-2.643,1.321-1.979,3.299l2.636,1.985
				l25.078-5.284C225.56,214.864,226.224,214.207,226.224,212.222z"/>
		</g>
	</g>
	<g>
		<g>
			<path fill="#D96038" d="M260.536,204.309c-1.321-3.299-2.643-5.941-3.963-6.598c-3.3-1.984-7.92-1.984-14.518,0
				c-5.935,1.314-10.555,4.614-14.512,9.234c-1.984,1.978-3.299,3.963-3.963,5.935l6.599,3.963l16.496,1.321
				c7.262-1.321,11.218-3.299,13.196-5.941C261.193,210.244,261.193,208.266,260.536,204.309z"/>
		</g>
	</g>
	<g>
		<g>
			<path d="M257.236,195.069c-3.299-1.321-9.24-1.321-15.838,0c-6.599,1.978-11.876,5.277-16.496,9.897l-3.956,7.255l0.657,2.642
				l6.598,4.614l19.138,1.328c7.256-1.985,11.876-3.963,13.854-7.262c1.978-1.978,2.642-5.277,1.978-9.897
				C261.851,199.025,259.872,197.047,257.236,195.069z M257.894,208.266c0,3.299-3.956,5.277-11.875,7.255
				c-7.263,1.985-13.86,1.321-19.138-3.299c2.642-6.598,7.919-10.555,15.838-11.875h11.876l3.299,4.62V208.266z"/>
		</g>
	</g>
	<g>
		<g>
			<path d="M201.809,250.497c-0.657-1.984-1.979-2.642-3.299-1.984l-24.416,7.255c-1.978,0.664-1.978,1.985-1.978,3.3
				c0.657,1.984,1.978,2.642,3.299,1.984l24.415-7.255C201.809,253.133,201.809,251.812,201.809,250.497z"/>
		</g>
	</g>
	<g>
		<g>
			<path fill="#D96038" d="M234.8,239.936c-0.657-3.299-2.642-5.277-4.62-6.598l-13.854,1.321
				c-5.941,1.979-10.562,5.277-14.518,9.897l-3.299,6.598l6.598,3.299h17.153c6.598-1.32,11.218-3.956,12.539-6.598
				C235.457,245.871,235.457,243.235,234.8,239.936z"/>
		</g>
	</g>
	<g>
		<g>
			<path d="M237.441,238.615c-1.32-3.957-3.299-6.598-5.94-7.255l-15.839,0.657c-6.598,2.642-11.212,5.941-15.175,11.218
				l-3.956,7.262l0.657,2.636l7.919,3.963l18.474,0.657c6.599-2.642,11.219-5.284,13.197-8.583c1.32-2.636,1.978-5.935,0.663-9.897
				V238.615z M228.858,235.973l3.3,4.626l1.32,3.957c0,2.642-3.956,5.277-11.875,7.255c-6.599,2.642-13.196,1.985-19.795-1.978
				c3.299-5.935,8.576-9.897,15.175-12.533L228.858,235.973z"/>
		</g>
	</g>
	<g>
		<g>
			<path fill="#858585" d="M139.782,240.6l-7.913-7.262l-8.583,7.919c-5.277,6.599-7.913,13.196-7.913,20.452
				c0,7.92,3.299,13.854,8.577,19.138l7.919,6.599l8.577-6.599c5.277-5.94,8.577-12.539,7.919-19.795
				C148.365,253.797,145.723,246.534,139.782,240.6z"/>
		</g>
	</g>
	<g>
		<g>
			<path d="M129.885,231.36l-8.577,8.576c-5.935,6.598-8.576,13.861-8.576,21.773c0.657,7.92,3.299,15.182,9.24,21.115l9.233,6.599
				c0.664,1.321,1.979,1.321,1.979,0l9.24-6.599c5.941-6.598,9.24-13.195,8.577-21.772c0-7.919-3.299-14.518-8.577-21.779
				l-9.24-8.57L129.885,231.36z M131.869,284.146c-8.583-4.621-13.196-12.54-13.86-22.438v-0.657c0-9.24,4.62-17.153,13.86-24.415
				c9.234,6.598,13.854,14.517,13.854,24.415v0.657C145.723,270.949,141.103,278.205,131.869,284.146z"/>
		</g>
	</g>
	<g>
		<g>
			<path d="M131.869,284.803c-1.321,0-1.984,1.321-1.984,2.643l-0.657,13.196c0,1.979,0.657,2.642,2.642,2.642
				c1.315,0,2.636-0.663,2.636-2.642l0.664-13.196C135.168,286.124,133.848,284.803,131.869,284.803z"/>
		</g>
	</g>
	<g>
		<g>
			<path fill="#858585" d="M208.407,299.984l7.255-7.926l-7.912-7.912c-6.599-5.941-13.197-7.92-21.116-7.92
				c-7.262,0-13.86,3.299-19.138,9.234c-2.635,3.299-5.277,5.283-5.935,7.925l6.598,8.57c5.935,4.627,12.533,7.262,19.795,7.262
				C195.21,309.218,201.809,305.919,208.407,299.984z"/>
		</g>
	</g>
	<g>
		<g>
			<path d="M166.175,303.94c6.598,5.277,13.86,8.577,21.78,7.913c7.912,0,15.175-3.299,22.43-9.233l7.92-9.897v-2.636l-9.24-8.583
				c-7.256-5.277-14.512-8.576-22.431-7.912c-7.919,0.656-14.518,3.955-21.116,9.232c-2.642,3.3-4.62,6.599-6.598,9.898v2.635
				L166.175,303.94z M164.861,293.386c4.614-9.239,12.533-13.86,22.43-14.523c9.897-0.657,17.816,3.962,25.072,13.196l-7.913,7.926
				c-5.94,3.956-10.561,5.935-16.495,6.599C178.714,306.583,170.795,302.62,164.861,293.386z"/>
		</g>
	</g>
	<g>
		<g>
			<path d="M140.446,290.744c-1.978,0-2.642,1.314-2.642,2.642c0,1.972,0.664,2.636,2.642,2.636h21.116
				c1.314,0,2.636-0.664,2.636-2.636c0-1.327-1.321-2.642-2.636-2.642H140.446z"/>
		</g>
	</g>
	<g>
		<g>
			<path fill="#858585" d="M94.915,258.41l-9.897-5.277l-5.935,8.576c-3.963,7.92-5.284,15.838-3.299,22.438
				c1.314,7.912,5.935,13.196,12.533,17.81c3.299,1.984,6.598,3.299,9.24,3.963l6.598-8.576c3.957-6.599,4.62-13.196,3.299-21.116
				C105.476,269.629,101.513,263.03,94.915,258.41z"/>
		</g>
	</g>
	<g>
		<g>
			<path d="M85.682,250.497c-0.664-0.664-1.985-0.664-2.642,0.657c-1.321,0.657-3.957,3.957-7.255,9.897
				c-3.299,8.577-4.62,16.495-3.299,23.751c2.635,7.92,6.598,14.518,13.854,18.48c4.62,3.3,8.576,5.271,10.555,5.271l1.984-0.657
				l7.913-9.24c3.963-7.256,5.284-14.511,3.299-22.431c-1.978-7.919-6.598-14.518-13.196-19.795
				C91.616,252.469,87.66,250.497,85.682,250.497z M77.099,277.547c0-7.255,3.299-14.517,8.583-21.115
				c10.554,4.62,16.496,11.219,19.131,21.115l0.664,5.277c0,7.263-3.299,13.861-8.583,19.796
				c-9.897-2.636-16.496-9.234-18.474-18.474L77.099,277.547z"/>
		</g>
	</g>
	<g>
		<g>
			<path d="M100.192,305.255c0-1.972-1.314-2.635-3.299-1.972c-1.315,0-1.979,1.314-1.979,2.636l3.963,20.458
				c0,1.973,1.314,2.636,2.635,2.636c1.979,0,1.979-1.32,1.979-3.299L100.192,305.255z"/>
		</g>
	</g>
	<g>
		<g>
			<path fill="#858585" d="M149.68,315.152c-6.599-1.972-13.854-1.314-21.109,3.3l-7.919,5.94l4.62,9.24
				c3.957,7.256,9.897,11.876,17.153,13.196c6.599,1.979,13.854,0.657,21.773-3.299l9.24-5.941l-5.277-9.896
				C162.876,320.437,157.599,316.48,149.68,315.152z"/>
		</g>
	</g>
	<g>
		<g>
			<path d="M151,312.518c-8.577-2.636-15.832-1.321-23.094,3.299l-9.234,6.599l-0.664,2.635l5.277,10.562
				c3.962,6.598,9.897,11.218,18.48,13.196c7.256,2.636,15.175,1.321,23.094-2.636l10.555-6.598l0.657-2.643l-5.935-11.218
				C164.861,319.115,158.263,313.838,151,312.518z M132.526,319.115l16.496-1.978c9.897,2.642,16.496,9.239,21.773,19.794
				c-9.897,6.599-19.131,9.24-28.372,7.256c-9.24-1.979-15.838-8.576-19.137-18.474C125.928,322.415,128.57,320.437,132.526,319.115
				z"/>
		</g>
	</g>
	<g>
		<g>
			<path d="M108.775,318.452c-1.985-0.657-3.299,0-3.299,1.327c-0.664,1.972,0,2.636,1.314,3.299l13.197,3.957
				c1.985,0,3.299,0,3.299-1.321c0-1.979,0-3.299-1.979-3.299L108.775,318.452z"/>
		</g>
	</g>
	<g>
		<g>
			<path fill="#858585" d="M128.57,369.267l6.598-8.583l-8.583-7.913c-6.598-4.627-13.854-6.599-21.109-5.941
				c-7.262,0.657-13.86,3.957-18.48,9.897c-3.299,2.643-4.614,5.277-5.935,8.577l7.255,7.262c5.941,5.271,12.539,7.256,19.795,6.599
				C115.374,378.5,121.972,375.201,128.57,369.267z"/>
		</g>
	</g>
	<g>
		<g>
			<path d="M137.804,362.004c0.664-0.663,0.664-1.978-0.657-3.299l-8.576-7.919c-7.919-5.277-15.181-7.256-23.094-6.599
				c-8.583,0.657-15.181,3.956-20.458,10.555c-3.299,3.299-5.935,6.599-6.598,9.897l0.664,1.984l7.913,8.577
				c6.598,5.277,13.196,7.262,21.779,6.598c7.913,0,14.511-3.963,21.109-9.897L137.804,362.004z M105.476,349.472
				c9.897-0.664,19.131,2.635,26.393,11.869c-6.598,9.897-14.517,14.523-23.757,15.181c-10.555,1.314-18.474-3.299-24.415-11.218
				c1.985-3.3,3.299-6.599,6.598-9.234C94.258,352.106,99.535,349.472,105.476,349.472z"/>
		</g>
	</g>
	<g>
		<g>
			<path d="M83.697,365.304l-3.299-2.636H61.924c-1.321,0.657-2.636,1.972-2.636,3.299c0,1.972,1.315,2.636,2.636,2.636
				l19.138-0.664C82.382,367.938,83.697,366.624,83.697,365.304z"/>
		</g>
	</g>
	<g>
		<g>
			<path fill="#858585" d="M102.177,410.828l6.598-9.234l-7.919-7.262c-7.262-5.271-13.86-7.256-21.773-6.599
				c-7.262,0.664-13.196,3.963-18.48,9.897c-3.299,3.3-4.614,5.284-5.935,8.583l7.256,7.913c5.941,4.626,12.539,7.262,20.458,6.598
				C88.98,419.41,95.579,416.111,102.177,410.828z"/>
		</g>
	</g>
	<g>
		<g>
			<path d="M102.177,391.696c-7.262-5.277-15.181-7.262-23.094-6.598c-7.919,0.663-15.181,3.963-20.458,9.897
				c-2.635,3.962-5.277,7.262-5.935,9.897v2.635l7.913,8.583c6.598,5.277,13.196,7.913,21.779,6.599
				c7.913-0.657,14.511-3.957,21.109-10.555l7.919-9.24v-3.299L102.177,391.696z M79.083,390.376
				c9.897-1.314,19.131,2.642,26.393,11.218c-6.598,9.897-13.86,15.832-23.757,16.496c-9.897,0-17.817-3.3-23.751-12.533
				c1.321-2.642,3.299-5.94,5.935-7.926C68.522,393.018,73.799,391.033,79.083,390.376z"/>
		</g>
	</g>
	<g>
		<g>
			<path d="M57.304,405.557c0-1.327-1.314-1.984-2.636-1.984l-19.137,0.657c-1.321,0-2.636,0.664-2.636,2.642l3.299,1.984h18.474
				C55.989,408.855,57.304,408.192,57.304,405.557z"/>
		</g>
	</g>
	<g>
		<g>
			<path fill="#858585" d="M73.799,450.417l3.299-11.212c-3.299-1.32-6.599-2.642-10.555-3.956
				c-7.919-1.327-15.838-0.664-22.437,2.636c-6.598,3.299-11.212,9.233-13.196,16.495l-1.979,9.897l9.897,4.62l20.458-1.32
				C65.887,463.614,70.5,457.68,73.799,450.417z"/>
		</g>
	</g>
	<g>
		<g>
			<path d="M67.201,432.607c-9.234-1.321-17.153-0.657-24.409,2.642c-6.598,3.956-11.882,9.897-14.518,17.811
				c-1.321,4.62-1.978,7.919-1.978,11.218l1.314,2.636l9.897,4.626c8.583,2.636,16.496,1.973,23.094-1.984
				c6.598-3.956,11.882-9.24,15.838-17.81l3.299-12.54l-1.321-1.984L67.201,432.607z M31.574,463.614
				c1.321-11.212,5.935-19.132,13.854-23.095c8.576-4.613,18.474-4.613,28.371,0.664c0,3.299-1.314,7.262-3.299,11.219
				c-3.299,5.277-7.255,9.897-11.875,12.539C50.048,468.897,40.808,468.24,31.574,463.614z"/>
		</g>
	</g>
	<g>
		<g>
			<path d="M31.574,463.614c-0.664-1.972-1.978-1.972-3.963-1.314l-17.153,7.912c-1.321,0.664-1.978,1.985-1.321,3.963
				c0.664,1.321,1.978,1.321,3.963,0.664l16.496-7.926C31.574,466.913,32.231,464.941,31.574,463.614z"/>
		</g>
	</g>
	<g>
		<g>
			<path fill="#858585" d="M54.004,299.32l-9.897-3.963l-4.613,9.897c-3.299,7.926-3.299,15.182-0.664,21.78
				c2.642,7.255,7.262,11.875,15.175,15.838l9.897,2.636l5.284-8.577c2.636-7.919,3.299-14.517,0-21.115
				C67.201,308.555,61.924,303.283,54.004,299.32z"/>
		</g>
	</g>
	<g>
		<g>
			<path d="M44.107,292.723c-0.657-0.664-1.314,0-1.978,0.663l-5.935,11.212c-2.642,8.583-2.642,16.496,0,23.752
				c3.299,7.262,8.577,13.196,16.496,16.495c3.299,1.984,6.598,3.299,10.555,3.963l2.642-1.321l5.935-9.897
				c3.299-7.912,3.299-15.174,0.664-23.094c-3.299-7.255-8.583-13.196-16.496-17.81C50.706,294.043,46.749,292.723,44.107,292.723z
				 M45.428,298c10.561,2.642,18.474,9.24,21.773,18.48l1.984,9.233c0,5.277-1.984,11.218-6.598,17.159
				c-10.561-1.984-17.816-7.262-21.116-16.496c-1.321-3.299-1.978-6.598-1.978-9.896C39.494,311.196,41.472,305.255,45.428,298z"/>
		</g>
	</g>
	<g>
		<g>
			<path d="M65.887,344.845c0-1.972-1.985-1.972-3.299-1.972c-1.984,0.657-1.984,1.972-1.984,3.299l5.284,13.197
				c0,1.972,1.314,1.972,3.299,1.972c1.314-0.657,1.314-1.972,1.314-3.3L65.887,344.845z"/>
		</g>
	</g>
	<g>
		<g>
			<path fill="#858585" d="M22.998,340.231l-10.561-3.957L8.48,346.829c-2.642,8.577-1.979,15.175,0.657,22.438
				c3.299,6.598,8.576,11.869,15.838,14.511l9.897,2.642l4.62-9.24c3.299-7.912,2.635-14.511,0-21.109
				C36.194,348.808,30.911,343.53,22.998,340.231z"/>
		</g>
	</g>
	<g>
		<g>
			<path d="M13.101,333.633c-1.321,0-1.985,0.657-3.299,1.979l-3.963,10.561c-2.635,9.234-2.635,17.153,0.664,24.409
				c3.299,7.255,9.234,12.539,16.496,15.838l11.212,2.643l2.642-0.664l5.277-10.562c3.299-8.569,2.642-15.832-0.657-23.094
				c-2.642-7.256-8.577-12.533-16.496-16.495L13.101,333.633z M9.138,357.384c0-5.277,1.978-11.212,4.62-17.81
				c11.875,3.299,19.137,9.233,23.094,17.152l1.978,9.897c0,6.599-1.321,11.876-5.277,16.496
				c-10.555-0.657-17.816-5.941-21.773-14.518C9.801,365.304,9.138,361.341,9.138,357.384z"/>
		</g>
	</g>
	<g>
		<g>
			<path d="M37.509,385.099c-0.657-1.321-1.978-1.979-3.299-1.321c-1.978,0.657-1.978,1.984-1.978,3.956l5.277,11.883
				c0,1.978,1.985,2.642,3.299,1.978c1.984-1.32,1.984-2.636,1.321-3.299L37.509,385.099z"/>
		</g>
	</g>
</g>
<path id="PATH77" fill="none" stroke="#000000" stroke-width="3" stroke-miterlimit="100" d="M370.59,585.26H3.92V2.74h366.67
	V585.26L370.59,585.26z"/>
</svg>
