<?xml version="1.0" encoding="UTF-8" standalone="no"?>
<!-- Generator: Adobe Illustrator 13.0.0, SVG Export Plug-In . SVG Version: 6.00 Build 14948)  -->

<svg
   xmlns:dc="http://purl.org/dc/elements/1.1/"
   xmlns:cc="http://creativecommons.org/ns#"
   xmlns:rdf="http://www.w3.org/1999/02/22-rdf-syntax-ns#"
   xmlns:svg="http://www.w3.org/2000/svg"
   xmlns="http://www.w3.org/2000/svg"
   xmlns:sodipodi="http://sodipodi.sourceforge.net/DTD/sodipodi-0.dtd"
   xmlns:inkscape="http://www.inkscape.org/namespaces/inkscape"
   version="1.1"
   id="圖層_1"
   x="0px"
   y="0px"
   width="372px"
   height="587px"
   viewBox="0 0 372 587"
   enable-background="new 0 0 372 587"
   xml:space="preserve"
   sodipodi:docname="Hanafuda_koi.svg"
   inkscape:version="0.92.4 (5da689c313, 2019-01-14)"><metadata
   id="metadata4233"><rdf:RDF><cc:Work
       rdf:about=""><dc:format>image/svg+xml</dc:format><dc:type
         rdf:resource="http://purl.org/dc/dcmitype/StillImage" /></cc:Work></rdf:RDF></metadata><defs
   id="defs4231" /><sodipodi:namedview
   pagecolor="#ffffff"
   bordercolor="#666666"
   borderopacity="1"
   objecttolerance="10"
   gridtolerance="10"
   guidetolerance="10"
   inkscape:pageopacity="0"
   inkscape:pageshadow="2"
   inkscape:window-width="1278"
   inkscape:window-height="1327"
   id="namedview4229"
   showgrid="false"
   inkscape:zoom="1.9454855"
   inkscape:cx="189.26406"
   inkscape:cy="295.08365"
   inkscape:window-x="0"
   inkscape:window-y="33"
   inkscape:window-maximized="0"
   inkscape:current-layer="圖層_1" />

<path
   id="PATH77"
   fill="none"
   stroke="#000000"
   stroke-width="3"
   stroke-miterlimit="100"
   d="M370.59,585.26H3.92V2.74h366.67  V585.26L370.59,585.26z" />
<g
   id="g4731"
   transform="matrix(0.70625161,0,0,0.70625161,13.202123,69.87922)"><path
     id="path2"
     d="m 358.37883,434.66947 c -19.348,34.972 -135.297,26.94 -137.125,63.251 -1.935,38.42 75.442,12.591 75.442,12.591 0,0 -36.555,41.222 16.249,41.222 50.914,0 60.805,-87.839 83.17,-110.403 z"
     style="fill:#f75534"
     inkscape:connector-curvature="0" /><path
     id="path4"
     d="m 244.66783,494.61247 c 0.433,-8.591 19.505,-21.935 49.998,-31.313 -35.589,7.86 -72.388,14.29 -73.412,34.621 -1.318,26.157 34.123,22.533 56.884,17.555 -14.011,-0.81 -34.222,-5.93 -33.47,-20.863 z"
     style="fill:#bd391e"
     inkscape:connector-curvature="0" /><path
     id="path6"
     d="m 130.95683,198.59347 c 19.348,-34.972 135.297,-26.94 137.125,-63.251 1.935,-38.419997 -75.442,-12.591 -75.442,-12.591 0,0 36.555,-41.221997 -16.249,-41.221997 -50.914,0 -60.805,87.838997 -83.170001,110.402997 z"
     style="fill:#f75534"
     inkscape:connector-curvature="0" /><path
     id="path8"
     d="m 120.49683,191.93247 c 20.532,-20.715 30.556,-96.434997 71.455,-108.706997 -4.011,-1.078 -9.116,-1.696 -15.561,-1.696 -50.914,0 -60.805,87.838997 -83.170001,110.402997 l 37.734001,6.661 c 0.833,-1.506 1.857,-2.927 3.031,-4.28 z"
     style="fill:#bd391e"
     inkscape:connector-curvature="0" /><g
     id="g22"
     transform="translate(-11.331173,60.631473)"><path
       inkscape:connector-curvature="0"
       id="path10"
       d="m 446.726,88.676 c 0,0 39.143,16.786 53.737,13.247 14.594,-3.539 -15.021,-46.256 -70.57,-33.953 -10e-4,0.001 -6.567,14.482 16.833,20.706 z"
       style="fill:#f75534" /><path
       inkscape:connector-curvature="0"
       id="path12"
       d="m 353.882,144.258 c 0,0 4.15,42.388 -3.639,55.227 -7.789,12.839 -39.538,-28.318 -11,-77.539 0,0 15.789,-1.876 14.639,22.312 z"
       style="fill:#f75534" /><path
       inkscape:connector-curvature="0"
       id="path14"
       d="m 65.273,423.324 c 0,0 -39.143,-16.786 -53.737,-13.247 -14.594,3.539 15.021,46.256 70.57,33.953 0,-10e-4 6.567,-14.482 -16.833,-20.706 z"
       style="fill:#f75534" /><path
       inkscape:connector-curvature="0"
       id="path16"
       d="m 158.116,367.742 c 0,0 -4.15,-42.388 3.639,-55.227 7.79,-12.839 39.538,28.318 11,77.539 0,0 -15.788,1.876 -14.639,-22.312 z"
       style="fill:#f75534" /><path
       inkscape:connector-curvature="0"
       id="path18"
       d="m 203.975,483.849 c -10.522,7.469 -24.784,8.023 -37.138,6.674 C 118.839,485.278 78.832,447.958 55.941,408.856 -23.065,273.897 72.501,120.032 203.975,62.123 110.057,141.438 86.183,267.801 158.339,370.717 c 16.124,22.996 69.953,80.416 45.636,113.132 z"
       style="fill:#f75534" /><path
       inkscape:connector-curvature="0"
       id="path20"
       d="m 141.371,342.798 c -1.076,3.365 -2.581,6.029 -5.402,6.708 -9.895,2.372 -20.522,-18.484 -30.344,-16.363 -9.916,2.142 -4.42,25.444 -13.531,28.151 -10.397,3.093 -21.065,-22.132 -31.535,-19.55 -10.156,2.508 -4.493,28.683 -12.33,31.338 -3.25,1.097 -7.022,-1.599 -10.992,-5.496 -11.985,-36.437 -12.696,-73.396 -4.723,-108.735 6.447,-6.875 11.63,-24.18 20.47,-22.863 10.313,1.546 10.971,26.625 20.396,26.928 8.829,0.293 15.308,-23.543 25.621,-22.299 8.798,1.055 10.23,19.771 18.348,23.135 2.8,26.694 10.689,53.371 24.022,79.046 z"
       style="fill:#f75534" /></g><path
     id="path24"
     d="m 46.564826,306.96547 c 0.877,-0.935 1.729,-2.067 2.573,-3.314 -1.916,-3.683 -4.214,-6.543 -7.485,-7.033 -8.84,-1.317 -14.023,15.987 -20.47,22.862 -7.973,35.339 -7.262,72.299 4.723,108.735 3.971,3.897 7.743,6.593 10.992,5.496 7.374,-2.497 2.799,-25.812 10.692,-30.648 -8.328,-32.312 -8.077,-64.839 -1.025,-96.098 z"
     style="fill:#bd391e"
     inkscape:connector-curvature="0" /><g
     id="g32"
     transform="translate(-11.331173,60.631473)"><path
       inkscape:connector-curvature="0"
       id="path26"
       d="m 98.762,250.398 c 2.456,0.081 4.73,-1.707 6.955,-4.3 -1.784,-2.934 -3.862,-5.142 -6.717,-5.484 -2.66,-0.321 -5.065,1.034 -7.322,3.207 1.854,3.716 3.998,6.478 7.084,6.577 z"
       style="fill:#f75534" /><path
       inkscape:connector-curvature="0"
       id="path28"
       d="m 85.941,329.228 c -7.144,1.764 -6.465,15.229 -8.158,23.991 4.797,5.028 9.582,9.481 14.31,8.075 6.847,-2.033 5.446,-15.696 8.534,-23.272 -4.906,-5.182 -9.817,-9.995 -14.686,-8.794 z"
       style="fill:#f75534" /><path
       inkscape:connector-curvature="0"
       id="path30"
       d="m 131.008,320.628 c -7.205,1.556 -6.277,14.276 -8.724,22.158 4.616,4.138 9.224,7.789 13.685,6.72 2.821,-0.679 4.326,-3.344 5.402,-6.708 -3.806,-7.329 -7.153,-14.741 -10.08,-22.21 -0.094,0.015 -0.188,0.019 -0.283,0.04 z"
       style="fill:#f75534" /></g><path
     id="path34"
     d="m 21.181826,319.47947 c 19.112,-84.638 88.054004,-159.988 171.458004,-196.728 -62.934,53.155 -94.417001,127.439 -86.622,201.629 -8.119001,-3.365 -9.550001,-22.08 -18.348004,-23.135 -10.313,-1.243 -16.792,22.592 -25.621,22.299 -9.425,-0.303 -10.083,-25.382 -20.396,-26.928 -8.841,-1.317 -14.024,15.988 -20.471,22.863 z"
     style="fill:#f7ede3"
     inkscape:connector-curvature="0" /><path
     d="m 192.63983,544.48347 c -10.522,7.471 -24.785,8.025 -37.136,6.666 -47.992,-5.245 -88.001004,-42.56 -110.895004,-81.661 -7.962,-13.605 -14.158,-27.398 -18.704,-41.275 3.971,3.897 7.743,6.593 10.992,5.496 7.837,-2.654 2.173,-28.83 12.33,-31.338 10.47,-2.581 21.138,22.644 31.535,19.55 9.112003,-2.706 3.615,-26.009 13.531003,-28.151 9.822001,-2.121 20.449001,18.735 30.344001,16.363 2.821,-0.679 4.326,-3.344 5.402,-6.708 4.911,9.456 10.564,18.777 16.969,27.921 16.124,23.002 69.957,80.42 45.632,113.137 z"
     style="fill:#f7ede3"
     id="SVGCleanerId_0"
     inkscape:connector-curvature="0" /><g
     id="g38"
     transform="translate(-11.331173,60.631473)"><path
       inkscape:connector-curvature="0"
       d="m 203.971,483.852 c -10.522,7.471 -24.785,8.025 -37.136,6.666 -47.992,-5.245 -88.001,-42.56 -110.895,-81.661 -7.962,-13.605 -14.158,-27.398 -18.704,-41.275 3.971,3.897 7.743,6.593 10.992,5.496 7.837,-2.654 2.173,-28.83 12.33,-31.338 10.47,-2.581 21.138,22.644 31.535,19.55 9.112,-2.706 3.615,-26.009 13.531,-28.151 9.822,-2.121 20.449,18.735 30.344,16.363 2.821,-0.679 4.326,-3.344 5.402,-6.708 4.911,9.456 10.564,18.777 16.969,27.921 16.124,23.002 69.957,80.42 45.632,113.137 z"
       style="fill:#f7ede3"
       id="SVGCleanerId_0_1_" /></g><path
     id="path40"
     d="m 183.69083,544.19447 c -51.891,-6.708 -95.149004,-54.423 -119.902004,-104.425 -6.071,-12.269 -11.173,-24.659 -15.388,-37.12 -9.013,3.71 -3.889,28.482 -11.502,31.061 -3.25,1.097 -7.022,-1.599 -10.992,-5.496 4.545,13.876 10.742,27.67 18.704,41.275 22.894,39.101 62.903004,76.415 110.895004,81.661 12.113,1.332 26.058,0.808 36.517,-6.261 -2.828,-0.099 -5.623,-0.343 -8.332,-0.695 z"
     style="fill:#dbd2ca"
     inkscape:connector-curvature="0" /><g
     id="g46"
     transform="translate(-11.331173,60.631473)"><path
       inkscape:connector-curvature="0"
       id="path42"
       d="m 308.024,28.151 c 10.522,-7.469 24.784,-8.023 37.138,-6.674 47.998,5.245 88.005,42.565 110.896,81.667 79.006,134.959 -16.56,288.824 -148.034,346.733 C 401.941,370.562 425.816,244.199 353.66,141.283 337.536,118.287 283.707,60.867 308.024,28.151 Z"
       style="fill:#f75534" /><path
       inkscape:connector-curvature="0"
       id="path44"
       d="m 370.628,169.202 c 1.076,-3.365 2.581,-6.029 5.402,-6.708 9.895,-2.372 20.522,18.484 30.344,16.363 9.916,-2.142 4.42,-25.444 13.531,-28.151 10.397,-3.093 21.065,22.132 31.535,19.55 10.156,-2.508 4.493,-28.683 12.33,-31.338 3.25,-1.097 7.022,1.599 10.992,5.496 11.985,36.437 12.696,73.396 4.723,108.735 -6.447,6.875 -11.63,24.18 -20.47,22.863 -10.313,-1.546 -10.971,-26.625 -20.396,-26.928 -8.829,-0.293 -15.308,23.543 -25.621,22.299 -8.798,-1.055 -10.23,-19.771 -18.348,-23.135 -2.8,-26.694 -10.689,-53.371 -24.022,-79.046 z"
       style="fill:#f75534" /></g><path
     id="path48"
     d="m 398.33083,237.50047 c -0.859,0.987 -1.924,1.694 -3.288,1.988 -9.822,2.121 -20.449,-18.735 -30.344,-16.363 -2.821,0.679 -4.326,3.344 -5.402,6.708 13.333,25.674 21.222,52.35 24.022,79.049 8.119,3.365 9.55,22.08 18.348,23.135 5.097,0.614 9.257,-4.893 13.227,-10.589 -1.344,-8.225 -8.647,-60.16 -16.563,-83.928 z"
     style="fill:#bd391e"
     inkscape:connector-curvature="0" /><g
     id="g54"
     transform="translate(-11.331173,60.631473)"><path
       inkscape:connector-curvature="0"
       id="path50"
       d="M 479.485,253.152 C 460.374,337.79 391.432,413.14 308.028,449.88 c 62.934,-53.155 94.417,-127.439 86.622,-201.629 8.119,3.365 9.55,22.08 18.348,23.135 10.313,1.243 16.792,-22.592 25.621,-22.299 9.425,0.303 10.083,25.382 20.396,26.928 8.841,1.317 14.023,-15.988 20.47,-22.863 z"
       style="fill:#f7ede3" /><path
       inkscape:connector-curvature="0"
       id="path52"
       d="m 308.028,28.149 c 10.522,-7.471 24.785,-8.025 37.136,-6.666 47.992,5.245 88.001,42.56 110.895,81.661 7.962,13.605 14.158,27.398 18.704,41.275 -3.971,-3.897 -7.743,-6.593 -10.992,-5.496 -7.837,2.654 -2.173,28.83 -12.33,31.338 -10.47,2.581 -21.138,-22.644 -31.535,-19.55 -9.112,2.706 -3.615,26.009 -13.531,28.151 -9.822,2.121 -20.449,-18.735 -30.344,-16.363 -2.821,0.679 -4.326,3.344 -5.402,6.708 C 365.718,159.751 360.065,150.43 353.66,141.286 337.536,118.284 283.703,60.865 308.028,28.149 Z"
       style="fill:#f7ede3" /></g><path
     id="path56"
     d="m 377.42483,207.24447 c -18.25,-24.788 -75.7,-84.26 -60.663,-125.367997 -7.197,0.736 -14.211,2.747 -20.065,6.905 -24.325,32.716997 29.508,90.134997 45.631,113.133997 6.405,9.143 12.058,18.463 16.969,27.921 1.076,-3.365 2.581,-6.029 5.402,-6.708 9.895,-2.372 20.522,18.484 30.344,16.363 0.971,-0.21 1.789,-0.627 2.492,-1.203 -5.993,-10.599 -12.693,-20.963 -20.11,-31.044 z"
     style="fill:#dbd2ca"
     inkscape:connector-curvature="0" /><circle
     id="circle58"
     r="7.8369999"
     cy="514.71246"
     cx="145.68483" /><circle
     id="circle60"
     r="7.8369999"
     cy="122.75047"
     cx="351.48785" /><path
     id="path62"
     d="m 9.1318264,387.07747 c 0.048,0.478 0.097,0.955 0.149,1.432 0.059,0.537 0.122,1.074 0.185,1.611 0.096,0.83 0.195,1.659 0.303,2.487 0.003,0.024 0.006,0.047 0.009,0.071 3.3899996,26.219 11.8369996,51.598 25.2669996,75.849 -12.694,-4.089 -27.6399996,-7.625 -36.6929991,-5.427 -7.248,1.753 -11.0459999,8.437 -9.2359999,16.253 3.3289999,14.376 26.634999,35.349 62.163999,35.348 5.327,0 10.934,-0.482 16.784,-1.517 5.642,5.779 11.567,11.142 17.72,15.993 21.736004,17.138 44.907004,27.157 68.867004,29.775 3.757,0.411 7.356,0.615 10.794,0.615 12.947,0 23.591,-2.909 31.732,-8.689 0.671,-0.476 1.263,-1.055 1.753,-1.716 21.443,-28.85 -6.015,-70.348 -28.086,-99.446 20.437,-39.991 5.619,-75.962 -8.851,-84.52 -6.897,-4.077 -14.409,-2.477 -18.268,3.885 -4.311,7.097 -5.696,20.039 -5.908,32.214 -33.76,-64.16 -32.86,-136.535 0.003,-198.979 0.055,-0.093 0.121,-0.18 0.172,-0.276 7.913,-13.466 38.799,-20.182 66.062,-26.11 36.307,-7.894 70.602,-15.351 71.857,-40.205 0.6,-11.926 -4.865,-18.675 -9.556,-22.238 -13.449,-10.212 -38.631,-7.364 -56.469,-3.505 2.823,-6.797 4.243,-14.550997 1.115,-21.505997 -4.417,-9.819 -16.061,-14.798 -34.611,-14.798 -39.021,0 -56.207,42.180997 -70.015,76.073997 -6.181,15.171 -12.018001,29.5 -18.279004,36.189 l -0.567,0.588 c -0.112,0.118 -0.21,0.242 -0.313,0.366 -7.723,7.932 -15.006,16.217 -21.761,24.807 -2.676,3.402 -2.088,8.329 1.314,11.005 3.401,2.675 8.329,2.087 11.005,-1.314 7.811,-9.931 16.361003,-19.434 25.507004,-28.424 -20.994004,27.588 -33.072004,55.652 -35.331004,82.587 -0.362,4.313 2.841,8.103 7.154,8.465 0.223,0.019 0.444,0.028 0.664,0.028 4.032,0 7.457,-3.093 7.801,-7.183 2.826,-33.702 22.463004,-64.612 44.606004,-89.335 -1.118,1.952 -2.204,3.917 -3.264,5.892 -0.204,0.326 -0.417,0.648 -0.607,0.981 -0.217,0.38 -0.392,0.782 -0.544,1.192 -11.861,22.608 -20.008,46.664 -23.954001,71.361 -1.632,10.211 -2.541,20.403 -2.771,30.546 -2.213,-2.096 -4.934,-3.624 -8.430003,-4.043 -10.113,-1.227 -16.365,7.789 -21.385,15.028 -1.269,1.831 -3.164,4.563 -4.622,6.18 -1.045,-1.854 -2.26,-4.857 -3.074,-6.868 -3.155,-7.794 -7.081,-17.494 -16.722,-18.939 -1.467,-0.218 -2.849,-0.213 -4.159,-0.028 5.503,-13.963 12.507,-27.854 21.011,-41.579 2.28,-3.679 1.145,-8.51 -2.534,-10.79 -3.68,-2.28 -8.51,-1.144 -10.79,2.534 -15.468,24.964 -26.494,51.481 -32.616,78.14 -0.064,0.204 -0.135,0.404 -0.182,0.613 -5.0239996,22.265 -6.5849996,44.342 -4.7099996,66.029 0.014,0.156 0.027,0.311 0.041,0.467 0.082,0.947 0.171,1.889 0.269,2.83 z m 247.7490036,-261.1 c 1.717,1.304 3.652,3.501 3.377,8.962 -0.65,12.874 -31.933,19.676 -59.533,25.677 -15.166,3.298 -30.572,6.65 -43.789,11.343 11.152,-15.041 24.378,-29.228 39.635,-42.255 18.341,-5.878 49.688,-11.801 60.31,-3.727 z m -80.488,-36.619997 c 16.524,0 19.726,4.246 20.314,5.547 2.08,4.605 -3.579,14.934997 -8.897,21.423997 -23.813,10.661 -46.671,24.569 -67.568,40.943 0.217,-0.533 0.433,-1.062 0.652,-1.6 12.662,-31.083 27.016,-66.313997 55.499,-66.313997 z M 13.742826,487.25047 c -4.5879996,-3.551 -7.2079996,-6.93 -8.4669996,-9.224 9.8889996,0.055 29.9179996,6.625 43.5729996,12.292 2.122,2.936 4.315,5.804 6.572,8.606 -22.054,1.236 -36.104,-7.36 -41.678,-11.674 z m 173.324004,51.545 c -7.071,4.491 -17.392,6.032 -30.714,4.577 -28.104,-3.071 -55.95,-18.528 -79.043004,-43.006 -0.482,-0.73 -1.084,-1.371 -1.775,-1.904 -5.228,-5.706 -10.196,-11.885 -14.858,-18.487 -0.213,-0.362 -0.453,-0.706 -0.724,-1.031 -2.995,-4.3 -5.867,-8.766 -8.586,-13.411 -4.672,-7.98 -8.746,-16.092 -12.24,-24.314 0.093,-0.029 0.184,-0.05 0.277,-0.082 8.369,-2.834 9.449,-12.385 10.403,-20.813 0.317,-2.794 0.863,-7.628 1.721,-9.906 2.069,1.235 5.491,4.865 7.662,7.169 6.209,6.588 13.936,14.788 23.799,11.852 9.195003,-2.73 10.760003,-12.782 11.903003,-20.123 0.353,-2.272 0.906,-5.815 1.59,-7.592 1.969,0.936 5.403001,4.056 7.573001,6.028 5.966,5.421 13.394,12.166 22.413,10.006 0.754,-0.182 1.444,-0.429 2.101,-0.707 3.571,6.149 7.439,12.217 11.604,18.192 0.037,0.056 0.075,0.111 0.114,0.166 0.102,0.146 0.2,0.295 0.302,0.441 2.642,3.768 6.128,8.26 10.166,13.461 1.437,1.852 2.946,3.796 4.499,5.815 0.036,0.047 0.072,0.094 0.108,0.14 19.374,25.194 45.812,62.253 31.705,83.529 z m -31.213,-158.588 c 1.8,1.887 4.22,5.391 6.212,10.809 2.485,6.762 6.571,23.344 -2.024,44.692 -2.047,-2.651 -3.88,-5.058 -5.424,-7.186 l 0.016,-0.345 -0.055,-0.563 c -1.44,-14.751 -1.814,-37.493 1.275,-47.407 z m -115.267004,-75.514 c 1.433,1.649 3.331,6.338 4.404,8.99 3.135,7.743 7.035,17.379 16.79,17.693 8.452,0.259 13.69,-7.282 18.315,-13.954 1.709,-2.465 4.745,-6.843 6.564,-8.128 1.159,1.346 2.768003,4.77 3.781003,6.925 2.072,4.407 4.354,9.248 8.103,12.573 2.965001,24.628 10.098001,48.746 21.297001,71.864 -1.816,-1.388 -3.874,-3.256 -5.249,-4.504 -6.161,-5.598 -13.141,-11.942 -21.961001,-10.037 -10.339003,2.234 -12.079003,13.401 -13.230003,20.789 -0.318,2.035 -0.799,5.132 -1.38,6.947 -2.067,-1.326 -5.333,-4.793 -7.427,-7.014 -6.066,-6.436 -13.614,-14.45 -23.254,-12.07 -10.716,2.646 -12.1,14.869 -13.109,23.793 -0.191,1.685 -0.457,4.035 -0.793,5.951 -0.217,-0.184 -0.451,-0.389 -0.702,-0.614 -10.326,-32.484 -11.782,-66.385 -4.331,-100.822 2.125,-2.683 3.989,-5.895 5.802,-9.022 1.632,-2.809 4.526,-7.794 6.38,-9.36 z"
     inkscape:connector-curvature="0" /><path
     id="path64"
     d="m 292.76483,503.55747 c -18.339,5.878 -49.686,11.8 -60.309,3.728 -1.717,-1.304 -3.652,-3.501 -3.377,-8.963 0.356,-7.079 10.436,-13.262 30.815,-18.901 4.171,-1.155 6.617,-5.472 5.463,-9.643 -1.154,-4.171 -5.47,-6.616 -9.643,-5.463 -19.177,5.307 -41.315,13.879 -42.289,33.22 -0.6,11.926 4.865,18.675 9.556,22.238 13.448,10.212 38.63,7.363 56.469,3.505 -2.823,6.797 -4.243,14.551 -1.115,21.506 4.417,9.819 16.061,14.798 34.611,14.798 39.022,0 56.205,-42.176 70.012,-76.065 6.194,-15.203 12.045,-29.562 18.345,-36.261 l 0.52,-0.541 c 0.275,-0.292 0.513,-0.602 0.735,-0.921 30.994,-32.089 54.693,-69.815 67.525,-109.444 2.234,-6.899 4.115,-13.799 5.68,-20.691 0.013,-0.05 0.032,-0.098 0.044,-0.148 0.057,-0.253 0.109,-0.506 0.165,-0.759 0.183,-0.821 0.362,-1.643 0.535,-2.464 0.154,-0.726 0.298,-1.452 0.444,-2.178 0.303,-1.507 0.591,-3.013 0.862,-4.519 0.094,-0.521 0.187,-1.043 0.277,-1.563 0.549,-3.169 1.025,-6.336 1.433,-9.498 0.07,-0.542 0.136,-1.085 0.202,-1.626 0.183,-1.511 0.349,-3.021 0.499,-4.53 0.069,-0.686 0.139,-1.374 0.201,-2.061 0.078,-0.867 0.15,-1.735 0.218,-2.601 0.069,-0.885 0.13,-1.769 0.187,-2.653 0.071,-1.084 0.134,-2.166 0.188,-3.248 0.048,-0.958 0.091,-1.916 0.126,-2.875 0.025,-0.682 0.05,-1.364 0.068,-2.045 0.039,-1.423 0.064,-2.845 0.073,-4.266 0.003,-0.555 0,-1.109 -10e-4,-1.663 -0.002,-1.171 -0.014,-2.341 -0.034,-3.51 -0.009,-0.48 -0.014,-0.96 -0.026,-1.44 -0.038,-1.509 -0.096,-3.017 -0.167,-4.522 -0.024,-0.505 -0.051,-1.008 -0.079,-1.513 -0.075,-1.382 -0.163,-2.764 -0.266,-4.143 -0.027,-0.366 -0.054,-0.732 -0.084,-1.098 -0.114,-1.413 -0.245,-2.824 -0.388,-4.234 -0.053,-0.526 -0.107,-1.05 -0.164,-1.575 -0.161,-1.474 -0.333,-2.948 -0.526,-4.418 -0.066,-0.507 -0.141,-1.012 -0.211,-1.519 -0.15,-1.088 -0.31,-2.173 -0.479,-3.259 -0.095,-0.611 -0.187,-1.224 -0.287,-1.834 -0.222,-1.347 -0.457,-2.692 -0.705,-4.034 -0.135,-0.731 -0.278,-1.461 -0.421,-2.191 -0.159,-0.808 -0.323,-1.614 -0.491,-2.42 -0.262,-1.259 -0.538,-2.517 -0.824,-3.772 -0.159,-0.697 -0.317,-1.393 -0.484,-2.089 -0.217,-0.912 -0.442,-1.822 -0.673,-2.732 -0.123,-0.488 -0.253,-0.975 -0.38,-1.462 -0.433,-1.66 -0.887,-3.315 -1.363,-4.968 -0.117,-0.406 -0.233,-0.814 -0.353,-1.22 -4.446,-15.119 -10.638,-29.923 -18.592,-44.291 10.033,3.227 21.473,6.116 30.281,6.115 2.352,0 4.518,-0.207 6.418,-0.668 7.248,-1.753 11.047,-8.439 9.236,-16.257 -3.831,-16.534 -34.083,-41.793 -78.958,-33.838 -6.007,-6.15 -12.333,-11.829 -18.919,-16.927 -3.423,-2.65 -8.346,-2.023 -10.994,1.4 -2.65,3.423 -2.023,8.345 1.4,10.994 6.962,5.39 13.618,11.493 19.874,18.168 0.053,0.062 0.111,0.118 0.165,0.178 9.443,10.102 17.963,21.519 25.182,33.851 4.662,7.964 8.735,16.081 12.221,24.325 -0.087,0.027 -0.171,0.041 -0.259,0.07 -8.369,2.834 -9.449,12.385 -10.403,20.813 -0.317,2.794 -0.863,7.628 -1.721,9.906 -2.069,-1.235 -5.491,-4.865 -7.662,-7.169 -6.209,-6.587 -13.934,-14.785 -23.799,-11.852 -9.195,2.73 -10.76,12.782 -11.903,20.123 -0.353,2.272 -0.906,5.815 -1.59,7.592 -1.969,-0.936 -5.403,-4.056 -7.573,-6.028 -5.967,-5.422 -13.398,-12.168 -22.413,-10.006 -0.754,0.182 -1.444,0.429 -2.101,0.707 -3.571,-6.149 -7.439,-12.217 -11.604,-18.192 -0.037,-0.056 -0.075,-0.111 -0.114,-0.166 -0.102,-0.146 -0.2,-0.295 -0.302,-0.441 -2.642,-3.768 -6.128,-8.26 -10.166,-13.461 -1.437,-1.852 -2.946,-3.796 -4.499,-5.815 -0.036,-0.047 -0.072,-0.094 -0.108,-0.14 -19.376,-25.191 -45.814,-62.251 -31.706,-83.527997 7.071,-4.492 17.394,-6.03 30.714,-4.577 8.906,0.973 17.874,3.195 26.653,6.604 4.033,1.566 8.575,-0.435 10.142,-4.47 1.566,-4.034 -0.435,-8.575 -4.47,-10.142 -10.054,-3.904 -20.358,-6.452 -30.624,-7.573 -17.915,-1.959 -32.224,0.759 -42.527,8.074 -0.671,0.476 -1.263,1.055 -1.753,1.716 -21.443,28.849997 6.015,70.347997 28.086,99.445997 -20.437,39.991 -5.619,75.963 8.851,84.521 2.553,1.509 5.19,2.241 7.696,2.241 4.262,0 8.143,-2.118 10.573,-6.126 4.311,-7.097 5.696,-20.039 5.908,-32.214 33.74,64.122 32.861,136.45 0.055,198.869 -0.047,0.076 -0.099,0.147 -0.144,0.226 -7.673,13.424 -39.175,20.354 -60.021,24.94 -4.228,0.93 -6.901,5.111 -5.971,9.337 0.806,3.66 4.047,6.154 7.647,6.154 0.558,0 1.124,-0.06 1.692,-0.185 13.702,-3.015 26.548,-6.074 37.594,-9.964 -11.148,15.021 -24.364,29.194 -39.606,42.208 z m 20.179,40.348 c -16.524,0 -19.726,-4.246 -20.314,-5.547 -2.082,-4.608 3.589,-14.952 8.912,-21.44 24.13,-10.801 46.879,-24.683 67.551,-40.917 -0.217,0.533 -0.433,1.062 -0.652,1.599 -12.662,31.078 -27.014,66.305 -55.497,66.305 z m 162.648,-397.897 c 4.588,3.551 7.208,6.93 8.468,9.224 -9.868,-0.069 -29.899,-6.631 -43.565,-12.287 -2.124,-2.939 -4.322,-5.809 -6.58,-8.612 22.053,-1.238 36.102,7.361 41.677,11.675 z m -100.85,91.101 c 6.161,5.598 13.144,11.943 21.961,10.037 10.339,-2.234 12.079,-13.401 13.23,-20.789 0.318,-2.035 0.799,-5.131 1.38,-6.946 2.067,1.326 5.333,4.793 7.427,7.014 6.066,6.436 13.614,14.448 23.254,12.07 10.716,-2.646 12.1,-14.869 13.109,-23.793 0.191,-1.685 0.457,-4.035 0.793,-5.951 0.205,0.173 0.428,0.369 0.662,0.58 0.168,0.531 0.343,1.061 0.507,1.591 0.208,0.674 0.406,1.348 0.607,2.023 0.363,1.223 0.723,2.445 1.061,3.672 0.053,0.192 0.1,0.385 0.153,0.577 1.782,6.56 3.214,13.18 4.285,19.852 0,0.003 10e-4,0.006 10e-4,0.008 1.368,8.525 2.155,17.134 2.358,25.803 10e-4,0.033 0.002,0.067 0.003,0.1 0.038,1.634 0.051,3.272 0.047,4.91 -0.001,0.228 -0.003,0.457 -0.004,0.684 -0.009,1.572 -0.034,3.144 -0.081,4.72 -0.006,0.191 -0.016,0.382 -0.022,0.574 -0.144,4.359 -0.446,8.732 -0.883,13.113 -0.097,0.971 -0.191,1.941 -0.303,2.913 -0.101,0.887 -0.217,1.774 -0.33,2.662 -0.149,1.165 -0.306,2.33 -0.476,3.496 -0.112,0.767 -0.227,1.534 -0.347,2.301 -0.217,1.38 -0.451,2.762 -0.698,4.145 -0.103,0.581 -0.201,1.162 -0.309,1.743 -0.371,1.987 -0.765,3.977 -1.196,5.968 -2.125,2.683 -3.989,5.895 -5.802,9.022 -1.631,2.811 -4.523,7.795 -6.378,9.36 -1.433,-1.649 -3.331,-6.338 -4.405,-8.99 -3.135,-7.743 -7.035,-17.379 -16.79,-17.693 -0.153,-0.004 -0.304,-0.007 -0.455,-0.007 -8.182,0 -13.319,7.409 -17.861,13.961 -1.709,2.465 -4.745,6.843 -6.564,8.128 -1.159,-1.346 -2.768,-4.77 -3.781,-6.925 -2.072,-4.407 -4.354,-9.248 -8.103,-12.573 -2.965,-24.628 -10.098,-48.746 -21.297,-71.864 1.815,1.388 3.873,3.256 5.247,4.504 z m -41.259,15.946 c -1.8,-1.887 -4.22,-5.391 -6.212,-10.809 -2.485,-6.762 -6.571,-23.344 2.024,-44.692 2.046,2.651 3.879,5.058 5.424,7.186 l -0.016,0.345 0.055,0.563 c 1.439,14.751 1.813,37.493 -1.275,47.407 z m 56.05,113.245 c 1.632,-10.211 2.541,-20.403 2.771,-30.546 2.213,2.096 4.934,3.624 8.43,4.043 10.107,1.224 16.365,-7.789 21.385,-15.028 1.268,-1.831 3.164,-4.563 4.622,-6.18 1.045,1.854 2.26,4.857 3.074,6.868 3.155,7.794 7.081,17.494 16.721,18.939 0.764,0.114 1.504,0.168 2.224,0.168 0.605,0 1.194,-0.04 1.77,-0.114 -13.623,34.836 -36.023,67.753 -64.432,95.778 20.967,-27.57 33.029,-55.614 35.286,-82.529 0.362,-4.313 -2.841,-8.103 -7.154,-8.465 -4.318,-0.36 -8.103,2.842 -8.465,7.154 -2.826,33.704 -22.465,64.614 -44.608,89.338 1.118,-1.953 2.205,-3.918 3.267,-5.894 0.206,-0.331 0.418,-0.659 0.611,-0.998 0.217,-0.38 0.39,-0.772 0.537,-1.17 11.864,-22.607 20.013,-46.665 23.961,-71.364 z"
     inkscape:connector-curvature="0" /><g
     id="g66"
     transform="translate(-11.331173,60.631473)" /><g
     id="g68"
     transform="translate(-11.331173,60.631473)" /><g
     id="g70"
     transform="translate(-11.331173,60.631473)" /><g
     id="g72"
     transform="translate(-11.331173,60.631473)" /><g
     id="g74"
     transform="translate(-11.331173,60.631473)" /><g
     id="g76"
     transform="translate(-11.331173,60.631473)" /><g
     id="g78"
     transform="translate(-11.331173,60.631473)" /><g
     id="g80"
     transform="translate(-11.331173,60.631473)" /><g
     id="g82"
     transform="translate(-11.331173,60.631473)" /><g
     id="g84"
     transform="translate(-11.331173,60.631473)" /><g
     id="g86"
     transform="translate(-11.331173,60.631473)" /><g
     id="g88"
     transform="translate(-11.331173,60.631473)" /><g
     id="g90"
     transform="translate(-11.331173,60.631473)" /><g
     id="g92"
     transform="translate(-11.331173,60.631473)" /><g
     id="g94"
     transform="translate(-11.331173,60.631473)" /></g><path
   style="stroke-width:0.51401049"
   d="m 5.8994967,494.77059 c 0.028074,-72.49754 0.1540456,-88.41794 0.6863324,-86.73927 2.4185038,7.62722 9.8352209,14.84031 20.1681239,19.6144 6.57949,3.03992 12.678697,4.35608 21.517026,4.64323 4.240586,0.13777 9.097986,0.0238 10.79422,-0.25325 l 3.084063,-0.50373 3.91161,3.73511 c 19.261644,18.39255 43.204868,29.04839 65.270498,29.04839 8.23606,0 17.93207,-2.69197 22.11509,-6.13996 4.34535,-3.58181 7.59166,-13.46791 6.91456,-21.05711 -1.11912,-12.54342 -7.70869,-26.70729 -20.81846,-44.74795 l -4.20554,-5.78734 2.0335,-5.00728 c 3.73176,-9.18911 4.44371,-12.92225 4.41428,-23.14652 -0.0298,-10.33151 -0.79171,-14.10078 -4.3066,-21.30369 -7.07091,-14.49009 -19.66406,-16.35425 -23.68463,-3.50602 -0.59864,1.91305 -1.32314,5.56001 -1.61,8.10436 -0.28685,2.54436 -0.6796,5.66697 -0.87278,6.93915 l -0.35122,2.31304 -3.1802,-7.19614 c -6.18502,-13.99548 -9.837808,-26.25209 -12.041649,-40.40474 -1.545594,-9.9255 -1.687486,-31.25752 -0.271439,-40.80892 2.441756,-16.46994 7.562828,-33.14668 14.351568,-46.73577 2.76425,-5.53322 3.67852,-6.65743 7.57269,-9.31157 5.88104,-4.00834 15.70644,-7.4013 32.39751,-11.18772 4.38194,-0.99405 12.2463,-2.77666 17.47636,-3.96134 13.25869,-3.00328 20.40327,-5.24092 27.04217,-8.46945 7.12841,-3.46658 10.80102,-6.66646 13.16676,-11.47196 1.50421,-3.05548 1.6824,-3.88364 1.67793,-7.79841 -0.006,-5.65426 -1.12982,-8.92706 -4.25872,-12.40714 -2.93117,-3.26017 -7.8676,-5.76385 -13.10674,-6.64754 -4.66645,-0.7871 -19.14183,-0.33459 -24.48646,0.76546 -2.10107,0.43245 -3.90737,0.69903 -4.014,0.59241 -0.10662,-0.10663 0.19497,-1.5314 0.6702,-3.16614 1.23408,-4.2451 0.8136,-9.02455 -1.10392,-12.54766 -3.40902,-6.26351 -11.04313,-9.32596 -23.28966,-9.34276 -9.05452,-0.0124 -15.18044,2.00882 -22.3411,7.37138 -9.54056,7.14486 -16.72441,18.89538 -27.595392,45.13738 -7.052928,17.02541 -9.94615,22.56906 -14.389554,27.57159 -10.089723,11.35932 -14.080367,16.00486 -14.950788,17.40433 -1.174031,1.88762 -1.247359,5.2763 -0.148138,6.84567 0.780957,1.11496 0.688096,1.34793 -2.235673,5.60875 l -3.050476,4.44547 -2.775925,-0.0998 c -1.657724,-0.0596 -3.12404,0.17243 -3.64012,0.57608 -2.64498,2.06876 -12.28884,20.47666 -17.017713,32.4829 -16.857832,42.80071 -15.370372,86.55624 4.273166,125.70055 1.411789,2.81332 2.46476,5.11513 2.339935,5.11513 -0.124825,0 -2.960417,-0.71625 -6.301315,-1.59165 -7.775486,-2.03739 -16.445827,-2.602 -19.870824,-1.29398 -2.7077382,1.03409 -4.302184,2.63927 -5.2431803,5.27844 C 6.0157759,403.10922 5.9068551,373.51422 5.887673,203.84064 L 5.8651116,4.2760653 H 187.31082 368.75653 V 293.92099 583.56591 H 187.31082 5.8651116 Z M 242.56695,463.54685 c 1.97894,-0.41293 5.7905,-1.83304 8.47013,-3.15581 4.13646,-2.04194 5.61837,-3.14953 9.8152,-7.33598 2.92508,-2.91784 6.25421,-6.92447 8.15451,-9.81402 4.23541,-6.44023 10.12439,-18.55238 16.21565,-33.35155 7.74009,-18.80509 8.85238,-20.76132 16.69255,-29.35773 17.08161,-18.72927 29.85788,-38.03485 38.60904,-58.3402 3.44552,-7.99467 8.24766,-22.5699 9.90711,-30.06961 2.93282,-13.25459 3.61778,-19.77493 3.61778,-34.4387 0,-11.55442 -0.17447,-14.74388 -1.14977,-21.01953 -2.3555,-15.1566 -7.12641,-30.4605 -13.71578,-43.99678 -1.78743,-3.67187 -3.18688,-6.73912 -3.10987,-6.81613 0.077,-0.077 1.09816,0.19804 2.26925,0.61123 8.06618,2.84591 21.23445,4.03955 24.56993,2.22715 7.35922,-3.99878 6.60999,-13.39666 -1.74482,-21.88586 -10.08065,-10.24282 -26.85282,-15.72663 -43.12552,-14.10029 l -5.98982,0.59864 -4.41616,-4.00604 c -8.37352,-7.59588 -10.10646,-8.80679 -12.6034,-8.80679 -1.40315,0 -2.66995,0.35132 -3.40082,0.94313 -1.15218,0.93298 -1.20976,0.915 -5.34968,-1.67053 -2.30172,-1.43752 -5.62831,-3.29637 -7.3924,-4.13079 -2.77556,-1.31284 -3.19445,-1.69351 -3.11093,-2.82706 0.31923,-4.33235 -1.01908,-5.62478 -8.2197,-7.93793 -17.42103,-5.5964 -34.67357,-5.33466 -45.10056,0.68422 -4.30846,2.48702 -7.33233,8.08031 -8.52869,15.7756 -1.8957,12.1936 5.72208,31.19038 20.52623,51.1872 1.94401,2.62588 3.7146,5.07023 3.93466,5.43189 0.23439,0.38525 -0.37256,2.45649 -1.4656,5.00133 -1.02611,2.38906 -2.47502,6.6036 -3.21978,9.36563 -1.21073,4.49013 -1.35755,5.97436 -1.38653,14.01706 -0.0376,10.4327 0.52666,13.31656 4.09686,20.93852 2.45541,5.24201 6.28599,9.80857 9.68035,11.54024 1.22449,0.62468 3.06174,1.02707 4.75915,1.04232 3.96517,0.0356 6.4899,-1.7377 8.44191,-5.92946 1.50341,-3.22842 3.01723,-10.37377 3.11016,-14.68018 0.11435,-5.29882 0.55027,-5.26516 3.13524,0.24207 19.57223,41.69838 18.97656,89.16328 -1.63442,130.23544 -3.42954,6.83417 -6.31606,9.26581 -15.43034,12.9987 -5.50811,2.25593 -12.54724,4.32499 -22.35946,6.57228 -3.67517,0.84172 -7.2223,1.80979 -7.88251,2.15125 -1.4057,0.72706 -2.6547,2.91831 -2.6547,4.65744 0,1.15234 -0.40498,1.31458 -6.89737,2.76318 l -6.89738,1.53895 -0.53349,-1.17089 c -0.81433,-1.78726 -3.45085,-2.93107 -5.96263,-2.58679 -3.07775,0.42185 -11.2567,3.25247 -15.43286,5.34109 -11.21173,5.60731 -15.85587,12.30325 -14.98696,21.60825 1.3459,14.41291 16.00388,20.32839 40.32975,16.27577 2.89946,-0.48304 5.36148,-0.78852 5.47115,-0.67885 0.10968,0.10968 -0.12858,1.46386 -0.52947,3.00929 -2.86065,11.02811 2.96959,19.02698 15.52071,21.29383 5.3384,0.96417 12.4384,0.98761 16.9041,0.0558 z"
   id="path4733"
   inkscape:connector-curvature="0" /></svg>