<?xml version="1.0" encoding="UTF-8" standalone="no"?>
<!-- Generator: Adobe Illustrator 13.0.0, SVG Export Plug-In . SVG Version: 6.00 Build 14948)  -->

<svg
   xmlns:dc="http://purl.org/dc/elements/1.1/"
   xmlns:cc="http://creativecommons.org/ns#"
   xmlns:rdf="http://www.w3.org/1999/02/22-rdf-syntax-ns#"
   xmlns:svg="http://www.w3.org/2000/svg"
   xmlns="http://www.w3.org/2000/svg"
   xmlns:sodipodi="http://sodipodi.sourceforge.net/DTD/sodipodi-0.dtd"
   xmlns:inkscape="http://www.inkscape.org/namespaces/inkscape"
   version="1.1"
   id="圖層_1"
   x="0px"
   y="0px"
   width="372px"
   height="587px"
   viewBox="0 0 372 587"
   enable-background="new 0 0 372 587"
   xml:space="preserve"
   sodipodi:docname="Hanafuda_tengu-demon-1-trans (copy 1).svg"
   inkscape:version="0.92.4 (5da689c313, 2019-01-14)"><metadata
   id="metadata4233"><rdf:RDF><cc:Work
       rdf:about=""><dc:format>image/svg+xml</dc:format><dc:type
         rdf:resource="http://purl.org/dc/dcmitype/StillImage" /><dc:title /></cc:Work></rdf:RDF></metadata><defs
   id="defs4231" /><sodipodi:namedview
   pagecolor="#ffffff"
   bordercolor="#666666"
   borderopacity="1"
   objecttolerance="10"
   gridtolerance="10"
   guidetolerance="10"
   inkscape:pageopacity="0"
   inkscape:pageshadow="2"
   inkscape:window-width="1278"
   inkscape:window-height="1327"
   id="namedview4229"
   showgrid="false"
   inkscape:zoom="1.9454855"
   inkscape:cx="183.09347"
   inkscape:cy="293.02761"
   inkscape:window-x="1280"
   inkscape:window-y="33"
   inkscape:window-maximized="0"
   inkscape:current-layer="圖層_1" />

<path
   id="PATH77"
   stroke-miterlimit="100"
   d="M 370.59,585.26 H 3.92 V 2.74 h 366.67 z"
   inkscape:connector-curvature="0"
   style="display:inline;fill:none;stroke:#000000;stroke-width:3;stroke-miterlimit:100" />
<g
   id="g138"
   transform="translate(-2.1278495,-28.270577)"><path
     id="path2"
     d="m 317.64185,402.03258 c -47.438,65.474 4.039,138.716 -47.662,146.926 -50.343,7.999 -33.97,28.812 -81.852,28.812 -47.882,0 -31.509,-20.813 -81.853,-28.812 -51.699001,-8.21 -0.224,-81.451 -47.661001,-146.926 -47.425,-65.476 -68.857,-336.262005 129.514001,-336.262005 198.371,0 176.939,270.786005 129.514,336.262005 z"
     style="fill:#f75534"
     inkscape:connector-curvature="0" /><path
     id="path4"
     d="m 125.67685,548.95758 c -51.699001,-8.209 -0.224,-81.451 -47.661001,-146.926 -46.636,-64.386 -68.1330002,-327.316005 119.813001,-336.033005 -3.175,-0.148 -6.405,-0.228 -9.701,-0.228 -198.371001,0 -176.939001,270.786005 -129.514001,336.262005 47.437001,65.474 -4.039,138.716 47.661001,146.926 50.344,7.999 33.972,28.812 81.853,28.812 3.577,0 6.787,-0.118 9.701,-0.336 -36.1,-2.704 -25.568,-21.075 -72.152,-28.477 z"
     style="fill:#bd391e"
     inkscape:connector-curvature="0" /><g
     id="g14"
     transform="translate(-67.872151,65.770575)"><path
       inkscape:connector-curvature="0"
       id="path6"
       d="m 127.757,176.656 c 14.319,-0.324 62.551,1.407 95.265,36.678 0.957,1.031 1.377,2.491 1.025,3.854 -6.415,24.842 -100.653,71.615 -100.493,-36.221 0.003,-2.338 1.868,-4.259 4.203,-4.311 z"
       style="fill:#362928" /><path
       inkscape:connector-curvature="0"
       id="path8"
       d="m 147.159,73.345 c 0,0 3.226,41.56 67.173,69.538 7.191,3.146 13.187,8.675 16.44,15.833 3.496,7.693 2.775,15.407 -17.692,11.706 -27.378,-4.95 -95.743,-62.136 -65.921,-97.077 z"
       style="fill:#362928" /><path
       inkscape:connector-curvature="0"
       id="path10"
       d="m 384.077,176.656 c -14.319,-0.324 -62.551,1.407 -95.265,36.678 -0.957,1.031 -1.377,2.491 -1.025,3.854 6.415,24.842 100.653,71.615 100.493,-36.221 -0.003,-2.338 -1.868,-4.259 -4.203,-4.311 z"
       style="fill:#362928" /><path
       inkscape:connector-curvature="0"
       id="path12"
       d="m 364.675,73.345 c 0,0 -3.226,41.56 -67.173,69.538 -7.191,3.146 -13.187,8.675 -16.44,15.833 -3.496,7.693 -2.775,15.407 17.692,11.706 27.376,-4.95 95.743,-62.136 65.921,-97.077 z"
       style="fill:#362928" /></g><path
     id="path16"
     d="m 272.99985,506.21258 c 1.376,4.589 -2.508,9.044 -7.234,8.26 -13.691,-2.271 -41.581,-5.896 -80.042,-5.896 -38.189,0 -64.836,3.575 -77.918,5.848 -4.656,0.809 -8.542001,-3.488 -7.337,-8.057 5.107,-19.369 23.246,-60.42 85.256,-60.42 61.844,-0.001 81.447,40.833 87.275,60.265 z"
     style="fill:#ffe8d1"
     inkscape:connector-curvature="0" /><path
     id="path18"
     d="m 185.72385,480.31958 c -37.354,0 -63.647,3.419 -77.023,5.696 -4.285,7.597 -6.795,14.884 -8.246,20.4 -1.197001,4.552 2.715,8.815 7.352,8.009 13.083,-2.273 39.729,-5.848 77.917,-5.848 38.461,0 66.349,3.626 80.04,5.896 4.708,0.781 8.616,-3.647 7.247,-8.218 -1.651,-5.515 -4.414,-12.762 -8.941,-20.314 -14.222,-2.277 -41.402,-5.621 -78.346,-5.621 z"
     style="fill:#dbd2ca"
     inkscape:connector-curvature="0" /><g
     id="g24"
     transform="translate(-67.872151,65.770575)"><path
       inkscape:connector-curvature="0"
       id="path20"
       d="m 277.344,334.954 c 16.693,-2.531 74.898,-8.211 112.977,27.705 2.633,2.484 1.226,6.911 -2.358,7.417 -25.421,3.588 -101.503,10.753 -114.107,-29.64 -0.779,-2.496 0.903,-5.091 3.488,-5.482 z"
       style="fill:#362928" /><path
       inkscape:connector-curvature="0"
       id="path22"
       d="m 234.656,334.954 c -16.693,-2.531 -74.898,-8.211 -112.977,27.705 -2.633,2.484 -1.226,6.911 2.358,7.417 25.421,3.588 101.503,10.753 114.107,-29.64 0.779,-2.496 -0.903,-5.091 -3.488,-5.482 z"
       style="fill:#362928" /></g><path
     id="path26"
     d="m 219.91485,455.65558 c -0.237,0.852 -0.507,1.692 -0.787,2.49 -13.334,38.373 -48.667,38.373 -62,0 -13.344,-38.373 3.427,-140.708 3.427,-140.708 h 55.146 c 0,0 16.082,98.099 4.214,138.218 z"
     style="fill:#f75534"
     inkscape:connector-curvature="0" /><path
     id="path28"
     d="m 174.79285,458.14558 c -10.07,-28.957 -2.99,-94.336 1.091,-124.679 1.141,-8.487 -5.458,-16.029 -14.02,-16.029 v 0 c -0.754,0 -1.396,0.543 -1.513,1.288 -1.877,11.936 -15.686,103.579 -3.222,139.42 8.294,23.872 25.103,32.884 39.833,27.055 -8.949,-3.542 -17.131,-12.554 -22.169,-27.055 z"
     style="fill:#bd391e"
     inkscape:connector-curvature="0" /><ellipse
     id="ellipse30"
     ry="34.082001"
     rx="30.158001"
     cy="452.84256"
     cx="188.12785"
     style="fill:#e64524" /><g
     id="g32"
     transform="translate(-67.872151,65.770575)" /><g
     id="g34"
     transform="translate(-67.872151,65.770575)" /><g
     id="g36"
     transform="translate(-67.872151,65.770575)" /><g
     id="g38"
     transform="translate(-67.872151,65.770575)" /><g
     id="g40"
     transform="translate(-67.872151,65.770575)" /><g
     id="g42"
     transform="translate(-67.872151,65.770575)" /><g
     id="g44"
     transform="translate(-67.872151,65.770575)" /><g
     id="g46"
     transform="translate(-67.872151,65.770575)" /><g
     id="g48"
     transform="translate(-67.872151,65.770575)" /><g
     id="g50"
     transform="translate(-67.872151,65.770575)" /><g
     id="g52"
     transform="translate(-67.872151,65.770575)" /><g
     id="g54"
     transform="translate(-67.872151,65.770575)" /><g
     id="g56"
     transform="translate(-67.872151,65.770575)" /><g
     id="g58"
     transform="translate(-67.872151,65.770575)" /><g
     id="g60"
     transform="translate(-67.872151,65.770575)" /></g></svg>