<?xml version="1.0" encoding="utf-8"?>
<!-- Generator: Adobe Illustrator 13.0.0, SVG Export Plug-In . SVG Version: 6.00 Build 14948)  -->
<!DOCTYPE svg PUBLIC "-//W3C//DTD SVG 1.1//EN" "http://www.w3.org/Graphics/SVG/1.1/DTD/svg11.dtd">
<svg version="1.1" id="圖層_1" xmlns="http://www.w3.org/2000/svg" xmlns:xlink="http://www.w3.org/1999/xlink" x="0px" y="0px"
	 width="372px" height="587px" viewBox="0 0 372 587" enable-background="new 0 0 372 587" xml:space="preserve">
<g>
	<g>
		<path fill="#333333" d="M141.31,505.218c3.293,0,4.605-1.968,4.605-5.261s-1.313-4.617-4.605-4.617
			c-1.318,0-2.637,0.662-3.293,1.324l-1.981,3.293C136.036,503.25,138.017,505.218,141.31,505.218z"/>
	</g>
	<g>
		<path fill="#333333" d="M85.329,521.027l1.312-3.949c0-2.636-1.312-3.948-4.605-3.948s-4.611,1.313-4.611,3.948
			c0,3.294,1.318,5.268,4.611,5.268L85.329,521.027z"/>
	</g>
	<g>
		<path fill="#333333" d="M136.036,542.767c3.293,0,5.274-1.323,5.274-4.617l-1.318-3.293l-3.956-1.313
			c-2.631,0-4.605,1.313-4.605,4.604C131.431,541.442,133.405,542.767,136.036,542.767z"/>
	</g>
	<g>
		<path fill="#333333" d="M213.096,538.148c3.291,0,4.61-1.969,4.61-5.262c0-2.638-1.319-4.618-4.61-4.618
			c-3.294,0-5.269,1.98-5.269,4.618l1.975,3.949C211.12,538.148,211.775,538.148,213.096,538.148z"/>
	</g>
	<g>
		<path fill="#333333" d="M340.204,349.79c2.638,0,4.612-1.976,4.612-4.604c0-3.293-1.976-4.619-4.612-4.619
			c-1.312,0-1.974,0.662-3.292,1.326l-1.313,3.293C335.6,347.814,336.912,349.79,340.204,349.79z"/>
	</g>
	<g>
		<path fill="#333333" d="M326.376,386.668c3.293,0,5.268-1.968,5.268-4.604l-1.975-3.293l-3.293-1.318
			c-3.292,0-4.611,1.318-4.611,4.611C321.765,384.7,323.084,386.668,326.376,386.668z"/>
	</g>
	<g>
		<path fill="#333333" d="M338.23,429.479c3.293,0,4.61-1.97,4.61-5.262c0-3.293-1.317-4.618-4.61-4.618
			c-3.295,0-5.269,1.325-5.269,4.618C332.963,427.51,334.938,429.479,338.23,429.479z"/>
	</g>
	<g>
		<path fill="#333333" d="M323.084,416.307c3.292,0,5.268-1.969,5.268-4.605c0-3.292-1.976-4.61-5.268-4.61
			c-3.293,0-4.612,1.318-4.612,4.61C318.472,414.338,319.791,416.307,323.084,416.307z"/>
	</g>
	<g>
		<path fill="#333333" d="M344.816,403.134c2.637,0,4.611-1.969,4.611-5.261c0-3.293-1.976-4.618-4.611-4.618
			c-1.976,0-2.632,0.663-3.293,1.325c-1.319,0.654-1.976,1.968-1.976,3.293l1.976,3.292L344.816,403.134z"/>
	</g>
	<g>
		<path fill="#333333" d="M325.059,318.84c3.293,0,4.61-1.324,4.61-3.955l-1.317-3.294l-3.293-1.974
			c-3.294,0-5.268,1.974-5.268,5.268C319.791,317.516,321.765,318.84,325.059,318.84z"/>
	</g>
	<g>
		<path fill="#333333" d="M340.204,457.147c3.294,0,5.273-1.324,5.273-4.617c0-2.631-1.979-4.605-5.273-4.605
			c-2.63,0-3.948,1.976-3.948,4.605C336.256,455.823,337.574,457.147,340.204,457.147z"/>
	</g>
	<g>
		<path fill="#333333" d="M328.352,544.735c2.638,0,4.611-1.313,4.611-4.605s-1.975-4.612-4.611-4.612
			c-3.293,0-5.268,1.319-5.268,4.612l1.975,3.293L328.352,544.735z"/>
	</g>
	<g>
		<path fill="#333333" d="M264.465,545.397l1.98,3.954l3.293,0.657c2.631,0,3.949-1.318,3.949-4.611
			c0-2.632-1.318-4.612-3.949-4.612C266.445,540.785,264.465,542.767,264.465,545.397z"/>
	</g>
	<g>
		<path fill="#333333" d="M155.794,530.907c2.637,0,4.611-1.313,4.611-4.605s-1.975-4.618-4.611-4.618
			c-3.293,0-4.605,1.325-4.605,4.618S152.501,530.907,155.794,530.907z"/>
	</g>
	<g>
		<path fill="#333333" d="M256.566,532.888l1.313-3.293c0-3.293-1.313-4.617-4.605-4.617c-3.291,0-5.273,1.324-5.273,4.617
			s1.98,5.262,5.273,5.262L256.566,532.888z"/>
	</g>
	<g>
		<path fill="#333333" d="M244.051,546.06l1.318-3.293l-1.318-3.292c-0.656-1.325-2.637-1.325-3.294-1.325
			c-3.293,0-4.61,1.325-4.61,4.617c0,3.293,1.317,5.263,4.61,5.263L244.051,546.06z"/>
	</g>
	<g>
		<path fill="#333333" d="M223.637,567.786c3.293,0,4.604-1.969,4.604-5.261l-1.313-3.293l-3.293-1.325
			c-3.292,0-5.273,1.325-5.273,4.618C218.361,565.817,220.344,567.786,223.637,567.786z"/>
	</g>
	<g>
		<path fill="#333333" d="M169.629,540.785c-2.637,0-4.611,1.98-4.611,4.612c0,3.293,1.974,4.611,4.611,4.611
			c3.293,0,5.268-1.318,5.268-4.611C174.896,542.767,172.922,540.785,169.629,540.785z"/>
	</g>
	<g>
		<path fill="#333333" d="M109.692,505.881l1.981-3.955l-1.981-2.631c-0.656-1.319-1.975-1.975-3.293-1.975
			c-1.313,0-1.975,0.654-3.293,1.975l-1.312,2.631l1.312,3.955c1.319,0.662,1.981,1.318,3.293,1.318L109.692,505.881z"/>
	</g>
	<g>
		<path fill="#333333" d="M71.494,556.595c3.293,0,5.268-1.98,5.268-4.61l-1.313-3.294l-3.956-1.975
			c-2.631,0-4.612,1.975-4.612,5.269C66.882,554.613,68.863,556.595,71.494,556.595z"/>
	</g>
	<g>
		<path fill="#333333" d="M50.417,499.957c3.293,0,5.274-1.981,5.274-4.617l-1.98-3.294l-3.293-1.968
			c-3.293,0-4.605,1.968-4.605,5.262C45.812,497.976,47.124,499.957,50.417,499.957z"/>
	</g>
	<g>
		<path fill="#333333" d="M36.589,455.823c3.293,0,5.268-1.969,5.268-5.263c0-3.292-1.975-4.617-5.268-4.617
			c-2.637,0-4.612,1.325-4.612,4.617C31.977,453.854,33.952,455.823,36.589,455.823z"/>
	</g>
	<g>
		<path fill="#333333" d="M33.952,477.563c2.637,0,4.611-1.319,4.611-4.612s-1.974-5.269-4.611-5.269
			c-3.292,0-5.268,1.976-5.268,5.269l1.975,3.293C31.321,476.905,32.64,477.563,33.952,477.563z"/>
	</g>
	<g>
		<path fill="#333333" d="M39.226,538.148l1.312-3.294c0-3.293-1.312-4.604-4.605-4.604s-4.611,1.313-4.611,4.604
			c0,3.293,1.318,4.619,4.611,4.619L39.226,538.148z"/>
	</g>
	<g>
		<path fill="#333333" d="M58.322,530.25c2.637,0,3.956-1.979,3.956-4.61c0-3.294-1.319-5.268-3.956-5.268
			c-3.293,0-5.268,1.974-5.268,5.268C53.054,528.271,55.029,530.25,58.322,530.25z"/>
	</g>
	<g>
		<path fill="#333333" d="M58.984,546.06l-1.981-3.293c-0.656-1.323-1.974-1.323-3.292-1.323c-1.313,0-1.975,0-3.293,1.323
			l-1.312,3.293c0,3.293,1.312,4.605,4.605,4.605C57.003,550.665,58.984,549.353,58.984,546.06z"/>
	</g>
	<g>
		<path fill="#333333" d="M35.933,565.155c3.293,0,4.605-1.976,4.605-5.269s-1.312-4.609-4.605-4.609
			c-0.662,0-1.981,0.662-3.293,1.316c-0.663,1.313-1.318,2.639-1.318,3.293l1.318,3.949
			C33.952,564.493,35.271,565.155,35.933,565.155z"/>
	</g>
	<g>
		<path fill="#333333" d="M106.399,557.907c3.293,0,5.274-1.969,5.274-5.263l-1.981-3.293c-0.656-0.661-1.975-1.323-3.293-1.323
			c-1.313,0-1.975,0.662-3.293,1.323l-1.312,3.293C101.793,555.939,103.105,557.907,106.399,557.907z"/>
	</g>
	<g>
		<path fill="#333333" d="M114.966,534.854l1.312-3.293c0-3.293-1.312-5.261-4.605-5.261s-5.274,1.968-5.274,5.261l1.981,3.293
			c1.312,1.325,1.974,1.325,3.293,1.325L114.966,534.854z"/>
	</g>
	<g>
		<path fill="#333333" d="M93.889,546.716c2.63,0,4.611-1.979,4.611-5.272c0-2.633-1.981-4.605-4.611-4.605
			c-3.293,0-5.268,1.974-5.268,4.605C88.622,544.735,90.596,546.716,93.889,546.716z"/>
	</g>
	<g>
		<path fill="#333333" d="M143.285,569.111c3.293,0,5.268-1.981,5.268-4.618l-1.318-3.293c-1.318-1.313-2.631-1.968-3.949-1.968
			c-1.318,0-1.975,0.654-3.293,1.968l-1.975,3.293C138.017,567.13,139.992,569.111,143.285,569.111z"/>
	</g>
	<g>
		<path fill="#333333" d="M177.534,526.302c2.63,0,3.949-1.324,3.949-4.618c0-3.293-1.318-4.604-3.949-4.604
			c-3.293,0-5.274,1.313-5.274,4.604C172.259,524.978,174.24,526.302,177.534,526.302z"/>
	</g>
	<g>
		<path fill="#333333" d="M200.585,557.907c3.293,0,4.604-1.969,4.604-5.263c0-3.293-1.313-4.616-4.604-4.616
			c-1.317,0-2.637,0.662-3.293,1.323l-1.981,3.293l1.981,3.949C197.948,557.907,199.268,557.907,200.585,557.907z"/>
	</g>
	<g>
		<path fill="#333333" d="M180.164,567.786c3.293,0,4.611-1.969,4.611-4.605c0-3.293-1.318-5.272-4.611-5.272
			c-2.63,0-4.611,1.979-4.611,5.272C175.553,565.817,177.534,567.786,180.164,567.786z"/>
	</g>
	<g>
		<path fill="#333333" d="M317.153,564.493c3.293,0,5.273-1.313,5.273-4.605s-1.98-5.273-5.273-5.273
			c-0.656,0-1.976,1.326-3.292,1.98c-0.657,1.313-1.313,1.976-1.313,3.293l1.313,3.293L317.153,564.493z"/>
	</g>
	<g>
		<path fill="#333333" d="M255.904,564.493l1.316-3.293l-1.316-3.293c-1.318-1.313-2.631-1.969-3.95-1.969
			c-1.317,0-1.974,0.655-3.292,1.969l-1.318,3.293l1.318,3.293c1.318,1.324,1.975,1.324,3.292,1.324
			C253.273,565.817,254.586,565.817,255.904,564.493z"/>
	</g>
	<g>
		<path fill="#333333" d="M300.032,548.028c3.294,0,5.268-1.97,5.268-5.263c0-3.292-1.974-4.617-5.268-4.617
			c-2.638,0-3.949,1.325-3.949,4.617C296.083,546.06,297.395,548.028,300.032,548.028z"/>
	</g>
	<g>
		<path fill="#333333" d="M282.911,563.837c3.293,0,4.604-1.312,4.604-4.604s-1.313-4.619-4.604-4.619s-5.274,1.326-5.274,4.619
			S279.618,563.837,282.911,563.837z"/>
	</g>
	<g>
		<path fill="#333333" d="M344.161,565.817l1.316-3.955c0-2.63-1.979-4.611-5.273-4.611c-2.63,0-3.948,1.981-3.948,4.611
			c0,3.293,1.318,4.611,3.948,4.611L344.161,565.817z"/>
	</g>
	<g>
		<path fill="#333333" d="M342.842,529.595l1.976-3.293c0-3.293-1.976-4.618-5.269-4.618s-4.611,1.325-4.611,4.618l1.318,3.293
			c0.656,0.655,1.976,1.313,3.293,1.313L342.842,529.595z"/>
	</g>
	<g>
		<path fill="#333333" d="M128.138,477.563l1.313-3.294c0-3.294-1.975-4.611-5.268-4.611c-2.631,0-4.612,1.317-4.612,4.611
			s1.981,5.269,4.612,5.269L128.138,477.563z"/>
	</g>
	<g>
		<path fill="#333333" d="M128.138,557.907l1.313-3.294l-1.313-3.293l-3.955-1.969c-2.631,0-4.612,1.969-4.612,5.262
			c0,3.294,1.981,4.618,4.612,4.618L128.138,557.907z"/>
	</g>
	<g>
		<path fill="#333333" d="M84.666,567.786c2.637,0,3.956-1.969,3.956-4.605c0-3.293-1.319-5.272-3.956-5.272
			c-3.292,0-5.268,1.979-5.268,5.272C79.398,565.817,81.373,567.786,84.666,567.786z"/>
	</g>
	<g>
		<path d="M304.644,148.258l-7.903,54.664c-5.932,42.809-9.223,84.957-9.223,125.135c0,1.975,1.316,3.293,2.637,3.293
			c1.974,0,2.638-1.318,2.638-3.293c0.655-39.517,3.292-81.664,9.216-125.135l7.904-53.352c0-1.312,0-2.63-2.637-3.292
			C305.962,145.621,305.3,146.939,304.644,148.258z"/>
	</g>
	<g>
		<path fill="#9260C7" d="M299.376,345.186l-9.224-17.129l-5.93,19.096c-1.975,11.861,0.662,17.129,9.223,17.129
			C301.351,363.618,303.326,357.031,299.376,345.186z"/>
	</g>
	<g>
		<path d="M290.152,325.426c-1.318,0-1.975,0.656-2.637,1.969c-1.976,3.955-3.949,8.566-4.604,14.498
			c-2.638,9.879-2.638,16.465,0,20.414c2.63,3.291,5.923,4.604,10.534,4.604c3.949-0.655,7.243-2.631,9.224-5.924
			c1.975-3.955,0.657-11.196-2.637-19.758l-7.241-14.49L290.152,325.426z M298.714,355.063l-0.655,3.295
			c-0.664,1.969-1.976,2.631-5.268,2.631l-5.932-1.319l-0.655-5.93c0-5.261,1.313-11.847,3.948-19.759
			C296.083,343.203,298.714,350.445,298.714,355.063z"/>
	</g>
	<g>
		<path fill="#9260C7" d="M319.791,273.393c-3.95,5.268-6.587,9.88-9.88,15.811l18.439-3.955
			c10.542-4.613,13.834-9.881,9.224-15.804C332.963,263.515,327.032,264.17,319.791,273.393z"/>
	</g>
	<g>
		<path d="M307.938,291.17c0.656,0.663,1.318,1.325,1.975,0.663c18.439-1.976,28.981-6.585,31.612-13.173
			c1.317-3.293,0.661-6.585-1.976-10.541c-2.637-3.949-5.93-5.261-9.223-4.604c-4.605,0-9.88,3.948-15.147,11.853
			c-3.293,4.613-5.923,9.881-7.903,13.173C307.274,289.203,307.274,290.516,307.938,291.17z M315.179,286.565
			c5.269-11.86,11.197-17.783,15.147-17.783c1.979-0.663,3.293,0,5.272,1.974l1.313,3.949l-0.656,1.982
			C334.938,279.98,327.695,283.272,315.179,286.565z"/>
	</g>
	<g>
		<path d="M308.594,287.223l-19.097,14.49c-1.979,0.662-1.979,1.975-0.663,3.292l3.293,0.663l19.759-13.835
			c1.318-1.317,1.318-2.63,0.663-3.293L308.594,287.223z"/>
	</g>
	<g>
		<path fill="#9260C7" d="M326.376,227.291c-3.948,4.605-7.904,9.223-11.197,15.147l17.784-1.975
			c11.854-2.637,15.81-7.905,11.854-14.49C341.523,219.386,334.938,219.386,326.376,227.291z"/>
	</g>
	<g>
		<path d="M346.791,224.654c-1.975-3.949-4.605-5.93-7.897-5.93c-7.25-0.656-15.81,7.249-26.345,21.739
			c-0.663,0.656-0.663,1.975,0,2.637c0.655,0.656,1.313,1.312,2.63,1.312c17.784,0.656,28.319-2.636,32.274-8.56
			C349.429,232.558,349.429,228.603,346.791,224.654z M338.23,223.998c1.317,0,3.293,0.656,4.61,3.293l0.656,3.293l-0.656,1.974
			c-1.975,3.956-9.879,6.586-23.051,6.586C327.695,229.265,333.619,223.998,338.23,223.998z"/>
	</g>
	<g>
		<path d="M313.204,239.807l-20.413,11.191c-1.982,0.656-1.982,1.318-1.318,3.293c1.318,1.318,1.975,2.636,3.948,1.318
			l21.076-11.198c0.656-0.655,1.319-1.974,0.656-3.949C316.497,239.144,315.179,239.144,313.204,239.807z"/>
	</g>
	<g>
		<path fill="#9260C7" d="M325.721,186.456c-3.956,4.612-6.587,9.879-9.224,16.466l17.122-5.268c11.197-3.95,14.49-9.88,9.223-15.81
			C338.23,175.258,332.307,177.239,325.721,186.456z"/>
	</g>
	<g>
		<path d="M347.453,191.067c1.318-3.949,0.656-7.905-1.976-11.197c-2.637-3.293-5.93-4.612-9.879-4.612
			c-4.61,1.319-9.224,5.274-14.49,13.172l-7.247,13.172c-0.657,1.319-0.657,1.319,0,2.637c0.662,0.656,1.979,1.313,2.636,0.656
			C334.281,202.921,344.816,197.654,347.453,191.067z M342.842,187.774v0.656c-1.975,4.611-9.223,7.905-22.396,10.535
			c6.586-11.191,11.859-17.777,15.81-17.777c1.976,0,3.293,0.656,5.269,1.975L342.842,187.774z"/>
	</g>
	<g>
		<path d="M314.523,200.946l-18.44,13.828c-1.981,1.318-1.981,2.637-0.662,3.95c1.318,1.981,1.974,1.981,3.293,0.662l19.104-14.491
			c1.316-1.312,1.316-2.637,0.654-3.949H314.523z"/>
	</g>
	<g>
		<path fill="#9260C7" d="M249.318,256.928c-5.924,5.268-3.295,10.535,7.248,16.465c4.604,3.295,10.535,5.268,17.121,6.588
			l-7.242-16.466C260.516,252.979,254.586,250.998,249.318,256.928z"/>
	</g>
	<g>
		<path d="M273.031,282.617l2.631-0.662l0.662-2.633c-6.586-17.127-13.172-27.006-19.104-28.324
			c-3.947-0.656-7.24,1.318-9.878,3.949c-3.293,3.293-3.948,6.586-3.293,9.879C246.023,272.075,255.904,278.66,273.031,282.617z
			 M249.318,262.195l1.317-3.292c1.976-1.975,3.294-3.293,5.269-2.63c4.611,0.655,8.561,7.242,13.834,19.758
			c-12.518-3.955-19.758-8.567-20.42-12.516V262.195L249.318,262.195z"/>
	</g>
	<g>
		<path d="M271.714,278.66c-1.319,1.32-1.319,1.975,0.655,3.295l17.128,16.465c0.655,1.316,2.63,1.316,3.294,0
			c0.654-1.975,0.654-3.295,0-3.957l-17.129-15.803C274.344,276.688,273.031,276.688,271.714,278.66z"/>
	</g>
	<g>
		<path fill="#9260C7" d="M281.592,225.973l-3.293-18.44c-3.955-11.198-8.561-14.491-15.146-9.879
			c-6.586,3.949-5.932,9.879,3.293,17.777L281.592,225.973z"/>
	</g>
	<g>
		<path d="M280.273,227.947h2.638l1.313-1.974c-1.313-18.44-5.269-28.319-11.854-31.612c-3.293-1.981-7.242-1.319-11.197,0.656
			c-3.293,2.637-4.604,5.93-4.604,9.223c0,5.268,3.949,9.879,10.535,15.81C273.031,223.998,276.98,227.291,280.273,227.947z
			 M269.738,198.309c3.949,2.637,6.586,9.88,8.561,22.396c-11.197-6.586-17.127-11.861-17.127-16.466l0,0
			c0-1.981,1.316-3.293,3.293-4.611C266.445,198.309,267.757,198.309,269.738,198.309z"/>
	</g>
	<g>
		<path d="M280.273,223.998c-1.976,0.656-1.976,1.975-0.655,3.293l12.509,20.415c1.318,1.319,1.975,1.319,3.956,0.656
			c1.312-1.312,1.312-1.968,0.656-3.949l-13.173-19.758C282.911,222.679,281.592,222.679,280.273,223.998z"/>
	</g>
	<g>
		<path d="M62.933,138.379c-1.319,0-2.637,1.312-1.975,3.292l14.491,90.887c7.898,73.11,7.898,142.918,0,210.092
			c0,1.324,1.313,2.638,3.293,2.638l1.312-0.656l1.319-1.318c7.249-67.181,7.249-137.646-0.656-211.417l-14.491-91.542
			C65.57,138.379,64.908,137.723,62.933,138.379z"/>
	</g>
	<g>
		<path fill="#9260C7" d="M85.329,460.44l-6.586-17.79l-8.567,17.79c-3.293,11.848-0.656,17.776,7.905,18.433
			C85.984,478.873,88.622,472.95,85.329,460.44z"/>
	</g>
	<g>
		<path d="M80.717,441.338l-1.975-1.316c-0.662,0-1.98,0-1.98,1.316c-3.293,4.605-5.268,8.563-7.243,14.485
			c-3.949,9.223-3.949,16.465-1.318,20.42c1.975,3.294,5.268,4.612,9.879,4.612c4.611,0,7.904-1.318,9.879-4.612
			c1.974-3.955,1.974-10.541-0.656-19.758L80.717,441.338z M84.666,468.995l-1.318,4.617c-1.313,1.969-2.631,2.631-5.268,2.631
			c-2.631,0-3.95-0.662-5.924-2.631v-3.955c0-5.269,1.974-12.51,6.586-21.077C82.035,457.147,84.666,463.734,84.666,468.995z"/>
	</g>
	<g>
		<path fill="#9260C7" d="M116.278,391.846L103.105,406.7l18.446,0.786c11.854-1.572,16.465-7.041,13.172-15.641H116.278
			L116.278,391.846z"/>
	</g>
	<g>
		<path d="M136.036,404.459c2.637-3.294,2.637-6.586,1.318-10.541c-1.975-3.956-4.611-6.587-7.904-7.25
			c-4.605-0.654-10.535,1.982-17.777,7.912l-10.542,11.189v2.639l1.974,1.975C120.889,412.357,131.431,410.383,136.036,404.459z
			 M132.743,395.893l-0.656,5.272c-2.637,3.294-10.535,5.263-23.707,3.95c9.217-9.881,15.803-13.828,19.758-13.174L132.743,395.893z
			"/>
	</g>
	<g>
		<path d="M101.793,405.115l-21.739,8.561c-1.312,1.318-1.974,2.631-1.312,3.956c0,1.968,1.312,2.63,3.293,1.312l22.389-8.561
			l1.318-3.955C105.086,404.459,103.768,403.797,101.793,405.115z"/>
	</g>
	<g>
		<path fill="#9260C7" d="M45.149,399.841l17.128,5.274l-7.905-16.465c-6.586-9.881-12.516-11.198-17.784-5.274
			C31.977,389.307,33.952,394.58,45.149,399.841z"/>
	</g>
	<g>
		<path d="M65.57,404.459c-6.586-17.128-13.172-26.344-21.077-27.007c-3.956-0.662-7.249,0.663-9.879,3.955
			c-2.637,2.631-3.293,6.587-2.637,9.88c2.637,7.242,12.517,12.51,30.3,16.465c0.656,0,1.312,0,2.63-0.662L65.57,404.459z
			 M37.245,388.65l1.981-3.95c1.312-1.98,2.63-2.638,4.604-2.638c4.612,1.313,9.224,7.898,14.491,19.103
			c-12.51-3.292-19.096-7.247-21.077-11.203L37.245,388.65L37.245,388.65z"/>
	</g>
	<g>
		<path d="M60.296,403.797c-1.313,0.662-1.313,2.631,0.662,3.293l17.784,15.803c1.312,0.662,3.293,0.662,3.949,0
			c0.656-1.968,0.656-2.631-0.656-4.604l-17.784-15.153L60.296,403.797z"/>
	</g>
	<g>
		<path fill="#9260C7" d="M114.966,343.859c-3.956,3.955-7.249,9.224-10.542,14.496l17.784-2.637
			c11.854-2.637,15.146-7.904,11.197-14.49C129.45,334.643,122.864,335.305,114.966,343.859z"/>
	</g>
	<g>
		<path d="M126.819,333.98c-4.611,0-9.879,3.955-15.809,10.541l-9.217,13.172v2.632c1.312,0.661,1.312,0.661,2.631,0.661
			l15.146-1.975c8.567-1.318,14.491-4.611,16.465-8.566c1.981-2.631,1.981-6.586,0-11.19
			C133.405,335.961,130.769,333.98,126.819,333.98z M132.743,345.84l-1.312,1.977c-1.981,3.955-9.223,6.584-21.739,7.246
			c6.586-10.539,13.172-15.808,17.127-15.808l4.612,3.293L132.743,345.84z"/>
	</g>
	<g>
		<path d="M103.105,356.375l-21.07,11.859c-1.318,0.656-1.981,2.631-0.662,3.949c0.662,1.976,1.975,1.976,3.956,1.313l19.758-12.511
			c1.975-0.661,2.63-2.631,1.313-3.293C105.743,355.721,104.424,355.063,103.105,356.375z"/>
	</g>
	<g>
		<path fill="#9260C7" d="M45.149,359.014l18.44,3.293c-3.293-5.274-6.586-11.199-10.535-15.154
			c-7.905-9.217-13.828-9.879-18.44-3.293C30.659,350.445,33.952,355.063,45.149,359.014z"/>
	</g>
	<g>
		<path d="M63.589,364.941c0.662,0,1.981-0.662,1.981-1.323v-2.632c-8.567-15.803-16.465-23.713-23.714-23.713
			c-3.949,0-6.586,1.324-9.217,5.273c-1.98,3.292-3.293,7.242-1.318,9.879C35.271,359.668,45.812,363.618,63.589,364.941z
			 M41.856,341.893c3.955,0.655,9.879,5.924,16.465,17.121c-12.51-1.981-19.759-4.613-22.389-8.568v-1.967l1.312-3.293
			L41.856,341.893z"/>
	</g>
	<g>
		<path d="M61.614,360.986c-1.318,0.662-1.318,2.632,0.663,3.293l19.758,13.173c1.313,0.663,2.63,0.663,3.293-0.662
			c1.312-1.968,1.312-2.631,0-3.949l-20.421-12.516C63.589,359.014,62.277,359.014,61.614,360.986z"/>
	</g>
	<g>
		<path fill="#9260C7" d="M107.061,291.17c-2.637,5.275-5.268,10.543-6.586,17.128l17.122-7.248
			c9.879-5.925,11.854-11.847,6.586-17.777C118.259,278.66,112.984,280.635,107.061,291.17z"/>
	</g>
	<g>
		<path d="M125.501,281.955c-2.637-3.295-6.586-4.612-10.535-3.295c-3.956,1.32-8.567,6.588-11.86,14.492
			c-1.974,5.268-3.949,9.223-5.268,14.483l0.663,2.637l2.631,0.656l13.834-5.924c8.561-3.955,13.172-8.561,14.484-13.172
			C130.112,288.54,128.794,285.248,125.501,281.955z M124.183,289.203v1.313c-1.318,4.609-7.905,8.566-19.758,13.827
			c3.956-12.51,7.904-19.095,12.516-21.07c1.318,0,3.293,0.655,4.611,1.976L124.183,289.203z"/>
	</g>
	<g>
		<path d="M98.5,306.323L82.035,324.1c-0.662,1.325-0.662,2.639,0,3.957c1.313,0.662,3.293,0.662,3.949,0l15.809-17.785
			c1.312-1.313,1.312-1.975,0-3.948C101.131,305.668,99.813,305.668,98.5,306.323z"/>
	</g>
	<g>
		<path fill="#9260C7" d="M42.519,324.102l19.095-1.969c-4.611-4.617-9.216-8.566-14.49-11.859c-9.879-5.93-15.803-5.93-18.44,1.317
			C26.054,319.495,31.321,323.445,42.519,324.102z"/>
	</g>
	<g>
		<path d="M63.589,320.809c-13.172-13.172-23.051-19.096-29.638-17.121c-3.292,0.655-5.924,2.637-7.898,7.903
			c-1.318,3.956-0.663,7.249,1.974,9.88c3.293,3.955,9.217,5.924,18.44,5.269l15.146-1.976c1.319,0,1.975-0.662,1.975-1.975
			L63.589,320.809L63.589,320.809z M31.321,312.91c0.656-1.98,1.318-3.95,3.293-4.612c4.612-0.661,11.854,3.293,21.077,12.511
			c-13.172,1.324-21.077,0.662-23.714-2.631C30.659,317.516,30.659,314.885,31.321,312.91z"/>
	</g>
	<g>
		<path d="M62.277,319.495c-1.981,0-3.293,0-3.293,1.976c-0.662,1.318,0,3.293,1.313,3.293l23.051,7.25c1.318,0,2.637,0,3.293-1.326
			c0.662-1.967,0-3.293-1.975-3.293L62.277,319.495z"/>
	</g>
	<g>
		<path fill="#9260C7" d="M102.449,198.309l-7.242,17.122l17.121-7.242c10.536-5.268,12.516-10.535,7.242-16.466
			C114.303,186.456,108.38,188.43,102.449,198.309z"/>
	</g>
	<g>
		<path d="M124.845,199.628c1.312-3.293,0-6.586-3.293-9.879c-3.293-3.293-6.586-4.612-9.879-3.293
			c-5.274,1.318-9.224,5.924-13.172,14.491l-5.93,13.828l0.656,2.637l2.637,0.656l14.49-5.268
			C118.259,208.844,123.526,204.239,124.845,199.628z M117.597,193.704l1.974,3.95v0.655c-1.312,4.612-7.898,9.224-19.758,13.172
			c3.955-11.854,8.567-18.44,13.171-20.414C114.966,191.067,116.278,191.723,117.597,193.704z"/>
	</g>
	<g>
		<path d="M93.227,214.119l-17.121,16.465c-0.656,0.656-0.656,1.974,0,3.292h3.949l16.465-16.465
			c1.981-1.319,1.981-2.637,0.662-3.293C95.208,212.8,94.545,212.8,93.227,214.119z"/>
	</g>
	<g>
		<path fill="#9260C7" d="M37.245,231.896l18.446-1.312c-3.956-5.274-8.567-9.224-13.834-12.516
			c-9.879-6.586-15.803-5.93-18.44,1.318C21.442,227.291,26.054,231.24,37.245,231.896z"/>
	</g>
	<g>
		<path d="M21.442,219.386c-1.974,3.955-1.318,7.249,1.318,9.879c3.293,3.956,9.217,5.268,18.44,5.268l15.146-1.975l1.975-1.974
			v-2.637c-13.172-12.516-23.051-18.44-29.638-16.465C25.391,211.481,22.76,214.119,21.442,219.386z M26.054,225.973
			c-0.663-1.319-0.663-3.293,0-5.268c0.656-2.637,1.974-3.95,3.293-4.612c4.605-0.662,11.854,3.293,21.07,11.854
			C37.245,229.928,29.347,229.265,26.054,225.973z"/>
	</g>
	<g>
		<path d="M53.71,229.265c-0.656,1.319,0,3.293,1.318,3.293l23.051,7.249c1.318,0.656,2.637,0,3.293-1.981
			c0.662-1.312,0-2.637-1.975-3.293l-22.395-7.242C55.029,227.291,53.71,227.291,53.71,229.265z"/>
	</g>
	<g>
		<path fill="#9260C7" d="M91.252,156.818c-2.63,5.268-3.293,11.854-4.611,17.785c6.586-2.637,11.86-5.931,16.465-9.88
			c8.567-6.586,9.879-13.172,3.293-17.784C100.475,142.328,95.208,145.621,91.252,156.818z"/>
	</g>
	<g>
		<path d="M112.984,154.844c0.663-3.949-1.312-7.242-4.604-9.879c-3.293-2.637-6.586-3.293-10.542-1.318
			c-6.586,2.63-11.197,13.171-13.172,30.956l0.663,2.636h3.293C104.424,169.328,112.984,161.43,112.984,154.844z M99.813,148.258
			l5.273,0.656c1.975,1.318,3.293,2.636,3.293,4.611l0,0c-0.663,4.611-6.586,9.879-17.784,16.465
			C93.227,156.818,96.52,150.232,99.813,148.258z"/>
	</g>
	<g>
		<path d="M85.329,173.284l-13.835,19.758c-1.318,1.319-1.318,1.975,0.663,3.293h3.293l13.828-19.758
			c0.656-1.974,0.656-3.293-0.656-3.293H85.329z"/>
	</g>
	<g>
		<path fill="#9260C7" d="M106.399,241.119c-2.631,4.611-5.268,10.535-7.242,16.465l17.121-6.586
			c10.542-5.268,13.172-10.535,7.905-16.465C118.915,229.265,112.984,230.584,106.399,241.119z"/>
	</g>
	<g>
		<path d="M126.157,232.558c-3.292-2.63-6.586-3.955-9.879-3.293c-4.605,0.663-9.217,5.268-13.172,13.835l-6.586,13.828
			c0,0.657,0,1.975,0.662,2.637l2.631,0.656c17.784-4.611,27.006-9.878,29.637-17.783
			C130.112,239.144,129.45,235.852,126.157,232.558z M122.208,235.852l1.975,4.611v0.656c-1.318,4.611-8.561,9.223-21.077,12.516
			c5.274-12.516,9.879-18.446,14.491-19.759C118.915,233.876,120.889,234.533,122.208,235.852z"/>
	</g>
	<g>
		<path d="M97.838,255.61l-17.784,16.465c-1.312,1.317-1.312,2.63,0,3.292l3.293,0.663l17.784-16.465
			c1.318-0.662,1.318-2.637,0-3.955C99.813,254.947,98.5,254.947,97.838,255.61z"/>
	</g>
	<g>
		<path fill="#9260C7" d="M40.538,272.737l18.446-1.981c-3.955-4.604-8.567-8.561-13.834-11.853
			c-9.879-6.586-15.803-5.924-18.44,1.318C24.735,268.119,29.347,272.075,40.538,272.737z"/>
	</g>
	<g>
		<path d="M60.296,273.393l1.981-1.317l-0.663-3.293c-13.172-12.51-23.051-18.44-29.637-16.466c-3.293,0-5.923,3.293-7.242,7.904
			c-1.975,3.95-0.663,7.242,1.318,9.879c3.293,3.95,9.217,5.268,18.44,5.268L60.296,273.393z M29.347,261.533
			c0.656-2.63,1.975-3.949,3.293-4.605c4.605-0.655,11.854,3.293,21.071,11.854c-13.172,1.974-21.071,1.317-23.708-1.975
			C28.684,265.488,28.684,264.17,29.347,261.533z"/>
	</g>
	<g>
		<path d="M57.003,270.1c-0.656,1.976,0,3.293,1.981,3.293l22.389,7.242c1.975,0,2.637,0,3.292-1.975
			c0.663-1.317,0-2.63-1.974-3.293l-22.395-6.585C58.322,268.119,57.003,268.782,57.003,270.1z"/>
	</g>
	<g>
		<path d="M98.5-77.65l-2.637,2.637C98.5-31.548,91.252,17.192,73.468,72.518c-9.879,27-19.096,50.708-29.638,69.81
			c0,1.319,0,2.637,1.981,3.293c1.313,1.318,2.631,1.318,3.293-0.656c9.879-19.758,19.758-42.81,28.975-71.135
			C96.52,17.848,104.424-31.548,101.131-75.013C101.131-76.987,99.813-77.65,98.5-77.65z"/>
	</g>
	<g>
		<path fill="#858585" d="M55.029-7.833c13.834,0.662,21.733-3.956,26.344-13.835l1.975-14.484l-14.485,1.974
			C58.984-29.567,55.029-21.006,55.029-7.833z"/>
	</g>
	<g>
		<path d="M60.958-32.204c-5.93,5.274-8.561,13.172-8.561,24.37c0,1.318,1.313,2.63,2.631,2.63c10.542,0,19.102-2.63,23.713-8.554
			c5.923-5.93,7.898-13.835,6.586-22.395l-1.981-2.637C74.787-39.446,66.882-37.471,60.958-32.204z M57.666-10.465
			c0.656-8.567,2.631-13.834,6.586-17.79c3.949-3.293,9.217-4.605,15.803-4.605l0,0c0,6.586-1.312,11.854-4.605,15.81
			C71.494-13.101,65.57-11.127,57.666-10.465z"/>
	</g>
	<g>
		<path d="M96.52-53.937L81.373-37.471c-1.319,1.319-1.319,2.63,0,3.293c0.662,1.318,1.975,1.318,3.292,0l15.81-15.146
			c1.318-1.981,1.318-3.293,0-4.612C99.813-54.599,98.5-54.599,96.52-53.937z"/>
	</g>
	<g>
		<path fill="#858585" d="M47.124,36.294c13.172,1.313,22.395-2.637,27.006-11.86L76.762,9.95l-14.484,1.312
			C53.054,14.555,47.787,23.122,47.124,36.294z"/>
	</g>
	<g>
		<path d="M72.156,32.345c5.268-5.93,7.898-13.172,7.242-22.395c0-1.319-0.656-1.981-1.974-1.981
			c-8.561-1.313-16.465-0.656-22.395,4.618c-6.586,4.605-9.879,12.51-10.535,23.707c0,1.313,0.656,2.637,2.63,3.293
			C57.666,40.243,65.57,37.606,72.156,32.345z M68.201,28.39c-4.611,4.612-9.879,5.924-17.784,5.268
			c0.662-7.898,3.293-13.828,7.905-17.121c3.956-3.293,9.879-4.612,15.809-3.293C74.13,19.173,72.156,24.434,68.201,28.39z"/>
	</g>
	<g>
		<path d="M95.208-2.566c1.312-0.656,1.312-2.637,0.656-3.949c-0.656-0.656-2.637-0.656-3.95,0L75.449,7.969
			c-1.319,1.325-1.981,2.637-0.663,3.955c0.663,1.318,1.975,1.318,3.956,0L95.208-2.566z"/>
	</g>
	<g>
		<path fill="#858585" d="M37.245,90.958c13.172,0.663,22.396-3.293,26.345-13.172l2.637-14.491l-14.491,1.981
			C42.519,69.225,37.245,77.123,37.245,90.958z"/>
	</g>
	<g>
		<path d="M66.882,61.32h-7.898c-6.586,0-11.197,1.974-15.153,5.268c-6.586,5.93-9.216,13.172-9.216,24.37
			c0,1.319,1.318,1.974,2.63,1.974c11.198,1.319,19.102-1.974,24.37-7.242c3.956-3.293,5.931-8.567,7.249-14.491v-7.905
			L66.882,61.32z M47.124,71.199c3.955-3.293,9.223-5.268,16.465-5.268c0,6.586-1.975,11.854-5.268,16.465
			c-4.611,3.949-9.879,5.93-17.784,5.93C40.538,79.76,43.175,74.493,47.124,71.199z"/>
	</g>
	<g>
		<path d="M80.717,46.173L64.251,61.32c-0.662,1.318-0.662,3.292,0,3.955l3.949,0.656l16.465-15.809
			c0.663-0.656,0.663-2.637,0-3.949H80.717z"/>
	</g>
	<g>
		<path fill="#858585" d="M12.881,123.888c13.172,4.611,22.389,3.293,28.975-5.268l5.93-13.172
			c-3.956-1.318-9.224-2.636-13.835-1.981C23.417,104.129,16.174,111.378,12.881,123.888z"/>
	</g>
	<g>
		<path d="M50.417,106.104l-1.312-2.637l-7.905-2.63l-15.146,1.975c-7.249,2.636-13.172,9.879-15.81,21.076
			c-0.656,1.319,0,2.631,1.975,3.293l25.025-1.318c4.612-2.637,8.567-6.586,11.198-11.854L50.417,106.104z M35.271,121.257
			l-19.096,0.656c3.293-7.242,6.586-11.86,11.854-14.491h17.122C43.175,114.009,39.882,118.62,35.271,121.257z"/>
	</g>
	<g>
		<path d="M66.882,92.932l-20.414,10.535c-1.318,0.663-1.974,1.981-0.656,3.956c0.656,1.318,1.313,1.318,3.293,0.662l19.758-10.541
			c1.313-0.663,2.631-1.975,1.313-3.293L66.882,92.932z"/>
	</g>
	<g>
		<path fill="#858585" d="M134.062-15.082c2.637-13.172,0-22.389-9.217-28.313l-13.172-4.618l-0.663,14.497
			C112.984-22.98,120.233-17.713,134.062-15.082z"/>
	</g>
	<g>
		<path d="M111.673-50.644l-2.637,1.975c-0.656,0.656-0.656,3.293-1.319,7.242c0,5.93,0.663,11.86,3.293,15.81
			c3.956,6.585,11.854,11.197,21.733,13.172c1.981,0,3.293-0.656,3.293-1.975c2.637-10.542,1.318-18.44-3.293-25.682
			c-3.293-3.955-7.898-7.249-13.172-9.223L111.673-50.644z M115.622-28.254c-1.974-3.293-2.637-6.586-2.637-10.535l0.663-6.586
			c5.923,1.319,11.197,3.949,14.49,8.567c2.631,3.949,3.949,7.242,3.949,12.509l-0.656,5.924
			C122.864-21.006,118.259-24.299,115.622-28.254z"/>
	</g>
	<g>
		<path d="M97.838-69.083c-1.318,1.312-1.974,1.975-1.318,3.949l13.172,19.103c0.662,0.656,1.981,1.313,3.292,0
			c1.981-1.319,1.981-2.637,0.663-3.293l-12.516-19.103L97.838-69.083z"/>
	</g>
	<g>
		<path fill="#858585" d="M122.864,43.537c4.611-12.516,3.292-22.396-4.605-28.981L105.087,7.97l-2.637,14.497
			C103.105,33.001,109.692,39.587,122.864,43.537z"/>
	</g>
	<g>
		<path d="M124.845,18.51c-1.98-3.955-6.586-7.904-11.86-10.541l-7.898-2.631c-0.662,0-1.981,0-1.981,1.318
			c-1.312,2.637-1.974,5.268-2.63,7.898c-0.662,5.93-0.662,11.204,1.318,15.809c3.293,7.242,9.879,12.516,20.415,15.809
			c1.975,0,2.637,0,3.293-1.981C129.45,34.313,128.794,25.759,124.845,18.51z M105.086,20.485c0-3.293,0.656-5.93,1.313-9.224
			c7.249,2.637,11.86,5.93,13.834,9.879c1.318,3.293,2.631,5.93,2.631,9.879l-1.313,8.567c-7.249-2.637-12.516-6.586-15.153-11.198
			C105.743,26.415,105.086,23.122,105.086,20.485z"/>
	</g>
	<g>
		<path d="M93.889-14.42c-1.975,1.319-1.975,1.975-1.319,3.955l10.535,19.759c0.663,1.312,1.981,1.968,3.293,1.312
			c1.981-0.656,1.981-1.975,1.318-3.949L97.182-13.101C96.52-14.42,95.208-15.082,93.889-14.42z"/>
	</g>
	<g>
		<path fill="#858585" d="M118.259,92.932c3.293-12.516,0-21.732-7.905-28.319L96.52,60.001l-1.312,14.491
			C97.838,84.372,105.086,90.958,118.259,92.932z"/>
	</g>
	<g>
		<path d="M117.597,67.906c-2.631-3.956-7.243-6.586-12.51-8.561l-8.567-1.981l-1.975,1.981l-1.975,7.243
			c-0.656,5.93,0.656,11.197,3.293,15.809c3.949,6.586,11.197,11.854,22.395,13.172l2.63-1.318
			C123.526,83.709,122.864,75.155,117.597,67.906z M100.475,79.76c-1.975-3.293-2.637-6.586-2.637-10.535l0.663-6.586
			c6.586,1.974,11.191,4.605,14.484,8.561c2.637,3.956,3.956,7.905,3.956,12.51l-0.663,5.93
			C108.38,87.664,103.105,84.372,100.475,79.76z"/>
	</g>
	<g>
		<path d="M82.691,39.587c-1.318,0.656-1.318,1.312-0.656,3.293l12.51,18.44c0.663,1.318,1.975,1.974,3.956,1.318
			c1.313-1.318,1.313-3.293,0-3.949l-11.86-19.103L82.691,39.587L82.691,39.587z"/>
	</g>
	<g>
		<path fill="#858585" d="M106.399,133.767c3.293-12.509,0-21.732-7.898-27.663l-13.835-5.268l-1.318,14.491
			C85.329,125.207,93.227,131.792,106.399,133.767z"/>
	</g>
	<g>
		<path d="M82.035,100.174l-1.318,7.911c-0.663,5.924,0.656,11.191,2.631,15.803c4.611,6.586,11.86,11.198,22.395,13.172
			c1.974,0,2.637-0.662,3.293-1.975c2.637-11.198,1.318-19.758-3.949-25.688c-2.637-3.949-6.586-7.242-12.516-9.223l-7.905-1.313
			C83.348,98.862,82.035,98.862,82.035,100.174z M86.641,104.129c6.586,1.318,11.197,3.956,14.491,7.905
			c1.974,3.293,3.955,7.242,3.955,13.172l-0.662,5.268c-7.905-1.975-13.172-5.268-15.803-9.879c-1.981-2.631-3.293-5.924-3.293-9.88
			C85.329,108.085,85.984,105.448,86.641,104.129z"/>
	</g>
	<g>
		<path d="M70.838,79.76c-1.975,1.318-1.975,2.636-0.663,3.949l11.86,18.446c1.313,1.974,2.63,1.974,3.949,1.312
			c1.975-1.312,1.975-2.63,0.656-3.949l-11.854-18.44C73.468,79.104,72.156,79.104,70.838,79.76z"/>
	</g>
	<g>
		<path fill="#858585" d="M18.149,171.309c13.172,0.656,21.733-3.293,25.682-13.172l2.637-14.49l-13.828,1.318
			C22.76,148.914,18.149,157.481,18.149,171.309z"/>
	</g>
	<g>
		<path d="M47.124,141.015h-7.898c-5.931,0.656-10.542,2.631-14.491,5.924c-6.586,4.611-9.224,13.172-9.224,24.37
			c0,0.656,0.663,1.975,1.975,1.975c11.197,1.319,19.102-1.975,25.032-7.905c3.292-3.293,5.923-8.561,6.586-13.829v-7.904
			L47.124,141.015z M28.028,150.895c3.949-3.956,9.217-5.274,15.803-4.618c0,5.93-1.312,11.86-5.268,15.809
			c-4.611,4.612-9.879,5.93-17.784,5.93C21.442,160.111,23.417,154.844,28.028,150.895z"/>
	</g>
	<g>
		<path d="M362.6-108.6l-3.293,0.656c-9.878,17.121-19.103,39.516-27.663,67.841c-18.438,55.982-25.024,112.62-19.758,168.601
			c0,1.975,1.318,2.637,2.639,2.637c1.974-0.662,2.63-1.325,2.63-2.637c-4.604-55.981,1.317-111.963,19.103-166.633
			c8.562-27.656,17.783-50.052,27.663-66.517C364.574-106.625,364.574-107.943,362.6-108.6z"/>
	</g>
	<g>
		<path fill="#858585" d="M327.695,110.053c2.631,10.542,11.197,15.153,24.369,16.465c1.975-13.828-1.98-22.389-10.541-27.657
			l-14.491-3.293L327.695,110.053z"/>
	</g>
	<g>
		<path d="M334.938,94.25l-7.904-1.319c-1.313,0-1.975,1.319-1.975,1.981c-1.318,1.313-1.318,3.949-1.318,7.899
			c0,5.93,1.98,11.197,5.273,15.152c3.949,5.924,12.511,10.535,23.052,11.191c1.975,0,2.632-0.656,2.632-1.975
			c1.316-10.542,0-19.096-5.925-25.025C345.479,97.544,340.204,95.569,334.938,94.25z M332.963,115.328
			c-2.637-3.293-3.294-7.905-3.294-13.172v-3.293c6.587,0,11.854,2.637,15.147,6.586c3.955,3.949,5.268,8.561,5.268,15.147
			l-0.655,2.63C341.523,121.914,336.256,119.276,332.963,115.328z"/>
	</g>
	<g>
		<path d="M311.886,75.811c-1.975,1.313-1.975,2.637-0.655,3.95l13.828,17.784h3.955c1.313-1.319,1.313-1.975,0.655-3.293
			l-14.49-17.784L311.886,75.811z"/>
	</g>
	<g>
		<path fill="#858585" d="M329.014,61.32c1.313,10.541,9.218,16.465,22.39,19.096c3.294-12.51,0-22.389-7.904-28.313l-13.829-5.274
			L329.014,61.32z"/>
	</g>
	<g>
		<path d="M350.746,55.396c-3.293-4.618-7.904-7.249-13.172-9.223l-7.905-1.981c-0.655,0-1.974,0.663-2.637,1.981
			c-0.656,0.656-0.656,3.293-1.313,7.898c0,5.93,0.655,11.204,3.293,15.153c3.949,7.242,11.19,11.853,21.732,13.171l3.293-1.318
			C356.67,69.881,355.358,61.32,350.746,55.396z M346.135,58.027c2.638,3.293,3.294,7.905,3.294,12.51v5.93
			c-7.904-1.974-13.173-5.268-16.466-9.879c-1.319-1.975-1.975-5.268-1.975-9.879l0.654-6.586
			C338.894,51.441,342.842,54.072,346.135,58.027z"/>
	</g>
	<g>
		<path d="M316.497,26.415c-1.974,0-2.636,1.312-1.318,3.293l11.854,18.44c1.98,1.975,2.637,1.975,3.956,1.318
			c1.975-1.318,1.975-2.637,1.317-3.949l-12.516-19.103L316.497,26.415L316.497,26.415z"/>
	</g>
	<g>
		<path fill="#858585" d="M336.912,23.122c2.637,9.879,9.879,15.809,23.052,17.777c2.636-12.51,0.662-22.389-8.562-27.657
			L338.23,7.969L336.912,23.122z"/>
	</g>
	<g>
		<path d="M359.307,16.536c-3.293-4.612-7.903-7.242-13.172-9.223l-7.903-1.975L335.6,7.313c-0.662,0.656-0.662,3.293-1.317,7.905
			c-0.662,5.923,0.655,11.197,3.293,15.146c3.949,7.242,11.197,11.197,21.731,13.172l3.293-1.975
			C364.574,31.021,363.919,22.466,359.307,16.536z M339.549,11.262c6.586,0.663,11.854,3.956,15.147,8.567
			c2.636,3.293,3.955,7.242,3.955,11.854l-0.663,5.924c-7.904-1.313-13.172-4.605-15.804-9.879c-1.98-2.63-2.637-5.923-2.637-10.535
			L339.549,11.262L339.549,11.262z"/>
	</g>
	<g>
		<path d="M323.739-12.445c-1.313,1.318-1.313,2.637-0.655,3.293L336.256,9.95l3.293,0.656c1.318-1.312,1.976-2.637,0.655-3.949
			l-12.509-18.446L323.739-12.445z"/>
	</g>
	<g>
		<path fill="#858585" d="M348.109-28.254c0.662,10.542,7.249,17.79,19.758,21.739c5.268-12.517,3.294-22.396-3.948-28.981
			l-12.517-6.586L348.109-28.254z"/>
	</g>
	<g>
		<path d="M351.402-44.72c-0.656-0.656-1.975,0-2.631,1.325l-2.638,7.898c-0.656,5.93-0.656,10.535,1.318,15.809
			c3.293,7.242,9.879,12.516,20.414,15.809c1.318,0.656,2.637,0,3.294-1.981c3.293-9.879,3.293-18.44,0-25.688
			c-2.631-3.949-6.587-7.898-11.854-10.535L351.402-44.72z M352.721-38.79c6.586,1.318,10.535,5.274,13.173,9.879l2.638,9.223
			l-1.981,9.879c-7.242-3.292-12.51-7.242-13.828-12.516c-1.317-1.975-1.975-3.949-1.975-7.242L352.721-38.79z"/>
	</g>
	<g>
		<path d="M340.204-65.134c-1.312,1.319-1.974,2.637-0.655,3.949l9.224,19.758c0.656,1.981,1.975,2.637,3.948,1.981
			c1.318-1.318,1.318-1.981,1.318-3.293l-10.541-21.077C342.842-65.134,342.186-65.79,340.204-65.134z"/>
	</g>
	<g>
		<path fill="#858585" d="M275.662,135.085c13.172-1.319,21.076-6.586,23.714-17.122v-14.497c-5.274,0-9.224,1.326-13.835,3.956
			C276.98,112.69,273.031,121.914,275.662,135.085z"/>
	</g>
	<g>
		<path d="M299.376,100.836c-9.224,0-15.81,3.293-21.739,9.879c-4.604,5.268-6.586,13.835-4.604,24.37l2.631,2.637
			c11.196-1.325,18.438-5.274,23.052-11.86c4.612-6.586,5.269-13.829,3.293-23.051L299.376,100.836z M282.249,114.009
			c3.292-4.612,7.903-6.586,14.489-7.905l0.656,4.611c0,4.612-0.656,8.561-3.293,11.854c-2.631,4.611-7.897,7.905-16.466,9.223
			l-0.655-3.949C276.98,121.914,278.956,117.302,282.249,114.009z"/>
	</g>
	<g>
		<path d="M310.567,84.372l-13.173,17.784c-0.656,0.656-0.656,1.974,0,3.292h3.955l13.828-17.784
			c1.318-1.974,0.662-3.292-0.654-3.955L310.567,84.372z"/>
	</g>
	<g>
		<path fill="#858585" d="M297.395,49.466l-14.482-1.318c-9.88,1.975-16.465,9.216-19.104,22.389
			c12.517,3.956,22.396,0.663,28.318-7.242C295.421,59.345,296.739,54.734,297.395,49.466z"/>
	</g>
	<g>
		<path d="M298.714,46.829l-23.708,1.319c-7.249,3.956-11.854,11.197-14.49,21.733c0,1.318,0.656,2.637,2.639,2.637
			c10.535,3.293,19.096,1.975,25.681-2.637c6.587-3.949,10.542-11.191,11.198-20.415L298.714,46.829z M276.98,52.759l17.121-1.318
			c-1.312,6.586-4.604,11.854-8.562,14.491c-4.61,3.293-11.197,3.949-18.438,1.975C269.738,60.001,273.031,54.734,276.98,52.759z"/>
	</g>
	<g>
		<path d="M315.179,35.638l-19.096,11.848c-1.981,0.663-1.981,1.981-0.662,3.293l3.293,0.663l19.104-11.198
			c1.975-0.656,1.975-2.637,1.316-3.949C317.816,34.976,316.497,34.313,315.179,35.638z"/>
	</g>
	<g>
		<path fill="#858585" d="M276.324,39.587c13.828,0.656,22.39-3.293,27.002-11.86c2.636-4.605,3.292-9.217,3.292-14.484
			l-14.491,1.313C282.249,17.192,276.98,25.759,276.324,39.587z"/>
	</g>
	<g>
		<path d="M309.256,13.243c0-1.318-0.662-1.981-2.638-2.637c-8.56-1.312-16.466,0-23.052,4.612
			c-5.93,5.268-9.224,13.172-9.879,24.37c0,1.312,0.655,1.974,2.637,1.974c10.535,1.319,19.097-0.662,24.364-6.586
			C306.618,29.708,309.911,21.804,309.256,13.243z M279.618,36.95c0.655-7.898,3.293-13.828,7.241-17.121
			c4.611-3.293,9.88-4.611,16.467-3.949c0,7.242-2.638,11.847-5.932,15.141C293.445,35.638,286.859,36.95,279.618,36.95z"/>
	</g>
	<g>
		<path d="M325.721-3.222h-3.956l-17.121,14.484l-1.316,1.981l0.655,1.975h3.955l17.121-14.491
			C326.376-0.585,326.376-1.91,325.721-3.222z"/>
	</g>
	<g>
		<path fill="#858585" d="M305.962-32.204c-9.879,3.293-14.489,11.86-15.153,25.688c13.835,0.656,22.396-3.293,26.346-13.172
			c2.638-4.612,3.293-9.223,2.638-14.491L305.962-32.204z"/>
	</g>
	<g>
		<path d="M298.059-30.885c-5.932,5.268-9.225,13.172-9.225,24.37c0,1.312,0.663,1.974,1.975,1.974
			c11.198,1.319,19.104-1.974,25.032-7.248c5.269-5.924,7.898-13.172,7.243-22.389c0-1.318-0.656-1.974-2.638-1.974
			C311.886-38.134,303.981-36.152,298.059-30.885z M294.102-9.809c0.664-7.904,2.639-13.172,7.249-16.465
			c4.611-3.949,9.88-5.93,15.804-5.274c0,6.586-1.313,11.86-5.269,15.81C307.274-11.127,302.007-9.152,294.102-9.809z"/>
	</g>
	<g>
		<path d="M334.938-51.306l-16.466,15.809c-1.317,1.318-1.317,2.637,0,3.293c0.662,1.319,1.976,1.319,3.956,0l16.466-15.147
			c0.655-0.662,0.655-1.974,0-3.293L334.938-51.306z"/>
	</g>
	<g>
		<path fill="#858585" d="M305.962,140.353c-3.955,9.216-1.318,18.44,7.899,27.663c9.878-9.223,12.515-18.447,9.223-27.663
			l-8.561-11.854L305.962,140.353z"/>
	</g>
	<g>
		<path d="M313.204,125.863l-5.93,5.93c-3.948,5.268-5.269,9.879-5.925,15.146c-0.661,7.249,2.632,15.147,11.198,23.051
			c0.655,1.319,2.63,1.319,3.292,0c7.898-7.249,11.854-15.146,11.191-23.051c0-5.268-1.313-9.879-5.269-15.146l-5.268-5.93
			C315.179,125.207,313.861,125.207,313.204,125.863z M306.618,148.258v-1.319c0-5.268,3.293-10.541,7.905-15.146
			c5.268,5.268,7.24,9.879,7.903,15.146v1.319c0,4.605-2.637,9.879-8.565,15.146C309.256,158.137,306.618,152.863,306.618,148.258z"
			/>
	</g>
	<g>
		<path d="M124.183-80.281c-1.318,1.318-1.318,2.63,0.662,3.293c28.975,19.096,54.001,61.905,77.051,130.403
			c11.86,34.249,19.758,67.18,25.689,98.135l0.655,1.975h2.638l1.316-1.319l0.658-1.974c-6.588-32.931-15.147-67.18-26.346-100.766
			c-23.051-67.842-48.733-111.307-79.033-130.41C126.157-82.255,124.845-82.255,124.183-80.281z"/>
	</g>
	<g>
		<path fill="#858585" d="M239.438,131.792c4.612,8.561,13.836,12.516,27.008,11.191c-0.662-13.828-5.93-21.726-15.809-25.02
			l-13.828-0.662L239.438,131.792z"/>
	</g>
	<g>
		<path d="M258.541,119.276c-3.955-3.293-8.561-5.268-14.49-5.268l-7.904,0.663c-1.976,0.656-1.976,1.312-1.976,2.63
			c-0.655,0.662-0.655,3.293,0,7.905c1.976,5.268,3.95,9.879,7.243,13.828c5.93,5.931,14.49,7.905,25.688,6.586l1.976-3.293
			C268.421,131.792,264.465,123.888,258.541,119.276z M263.809,140.353c-7.904,0-13.828-1.319-17.783-5.268
			c-4.61-3.949-6.586-9.223-6.586-15.809c6.586-0.656,11.854,1.319,16.465,4.611C259.859,127.181,262.489,132.448,263.809,140.353z"
			/>
	</g>
	<g>
		<path d="M217.051,100.836c-0.664,1.319-0.664,3.293,0.655,3.956l16.465,14.484l3.95-0.656c1.316-1.318,1.316-2.637,0-3.292
			l-17.122-14.491L217.051,100.836L217.051,100.836z"/>
	</g>
	<g>
		<path fill="#858585" d="M225.611,82.396c4.609,9.224,13.826,13.172,27,11.191c-1.319-13.828-5.926-21.727-15.803-24.363
			l-14.49-1.319L225.611,82.396z"/>
	</g>
	<g>
		<path d="M244.051,69.881c-3.294-3.293-8.563-4.605-14.49-5.268l-7.906,1.319c-1.311,0-1.973,0.656-1.973,1.975
			c-0.656,1.319,0,3.293,0.662,7.904c1.311,5.931,3.948,10.535,7.242,13.829c6.585,5.93,15.146,7.905,25.688,6.586
			c1.313,0,1.976-0.656,1.976-2.637C254.586,82.396,250.637,74.493,244.051,69.881z M224.948,70.537
			c6.586-0.656,12.516,0.663,16.466,3.956c4.609,3.292,6.585,8.56,7.904,16.465c-7.904,0.663-13.172-1.318-17.784-5.268
			C227.586,81.741,224.948,76.467,224.948,70.537z"/>
	</g>
	<g>
		<path d="M203.216,52.104c-1.319,1.312-1.319,2.63,0,3.949l17.128,13.828h3.948c0.656-1.312,0.656-2.637,0-3.949l-17.783-14.491
			L203.216,52.104z"/>
	</g>
	<g>
		<path fill="#858585" d="M215.068,42.88c6.586,8.561,15.811,11.191,28.981,7.898c-2.637-13.172-9.224-21.07-19.103-22.389
			l-14.484,1.318L215.068,42.88z"/>
	</g>
	<g>
		<path d="M232.854,28.39c-4.611-1.975-9.217-3.293-15.146-3.293c-3.949,0.662-6.586,1.318-7.904,1.975
			c-1.318,0-1.975,1.318-1.975,2.637l1.975,7.898c1.975,5.274,4.611,9.223,9.223,12.516c6.588,4.611,15.146,5.93,25.683,2.637
			c1.979,0,2.638-1.318,1.979-2.637C244.051,39.587,240.102,31.683,232.854,28.39z M213.757,31.021l17.122,1.981
			c3.948,2.636,7.242,7.898,9.878,15.146c-7.903,1.318-13.827,0.662-18.438-1.975C217.706,42.88,214.413,37.606,213.757,31.021z"/>
	</g>
	<g>
		<path d="M189.389,15.88c-1.32,1.312-0.664,2.63,0.654,3.949l19.104,11.854c1.975,1.319,2.631,0.663,3.949-1.318
			c0.661-0.656,0.661-2.637-1.318-3.293l-18.44-11.854L189.389,15.88z"/>
	</g>
	<g>
		<path fill="#858585" d="M200.585-9.809c7.897,6.586,17.121,6.586,28.976,0c-5.924-12.516-14.49-17.784-24.369-16.465l-13.83,4.605
			L200.585-9.809z"/>
	</g>
	<g>
		<path d="M190.043-22.98c-1.318,0-1.318,1.312-1.318,2.637l4.611,7.243c3.293,4.604,7.249,7.898,11.854,9.879
			c7.904,1.975,15.81,0.656,25.688-4.611c1.976-0.663,1.976-1.975,0.655-3.956c-4.605-9.879-11.19-15.141-18.439-17.122
			l-15.803,1.981L190.043-22.98z M211.775-22.98c5.274,0.656,9.224,4.605,13.836,11.854c-7.25,3.293-12.518,4.612-17.784,2.63
			c-5.931-1.968-9.879-5.923-13.173-11.847C200.585-23.636,206.509-24.961,211.775-22.98z"/>
	</g>
	<g>
		<path d="M167.655-28.254c-0.663,1.981,0,2.637,1.312,3.293l22.395,5.93c1.32,0.656,2.639,0,2.639-1.974
			c0.656-1.319,0-1.975-1.98-2.63l-21.07-6.586C168.967-30.885,168.311-29.567,167.655-28.254z"/>
	</g>
	<g>
		<path fill="#858585" d="M180.164-49.325c8.561,3.949,18.439,1.312,28.318-7.243c-8.561-10.541-17.776-13.834-27-10.541
			l-12.516,7.905L180.164-49.325z"/>
	</g>
	<g>
		<path d="M166.992-61.185c-1.318,1.325-1.318,1.981,0,3.293l5.268,5.93c4.612,3.949,9.223,5.93,14.491,6.586
			c7.905,1.319,15.146-1.975,23.714-9.223c0.656-1.312,0.656-2.63,0-3.949c-6.586-7.898-13.835-12.516-22.396-12.516
			c-4.61,0-9.877,1.981-14.489,5.274L166.992-61.185z M187.412-50.644c-6.585-0.662-11.859-3.956-15.153-8.56
			c5.274-4.612,10.542-6.586,15.81-6.586s10.535,3.293,16.466,9.223C197.948-51.962,192.018-49.325,187.412-50.644z"/>
	</g>
	<g>
		<path d="M143.94-61.185c0,1.981,0.663,2.637,1.975,2.637l22.395,1.98c2.637,0,3.293-1.324,3.293-2.636
			c0-1.981-0.656-2.637-2.637-2.637l-22.389-1.975C145.259-63.815,143.94-62.497,143.94-61.185z"/>
	</g>
	<g>
		<path fill="#858585" d="M151.845-17.713c-5.268-0.663-9.879,1.318-13.828,3.293c-9.223,5.268-13.172,14.491-11.198,27.663
			c13.828-1.318,21.733-6.586,24.37-16.465L151.845-17.713z"/>
	</g>
	<g>
		<path d="M154.482-18.375l-2.637-1.968c-9.223-0.662-15.809,2.631-21.733,8.555c-5.268,5.93-7.248,14.497-5.93,25.032
			c0,1.975,0.662,2.637,2.637,2.637c11.198-1.325,18.44-5.274,23.708-11.204C155.138-1.91,156.457-9.809,154.482-18.375z
			 M134.062-7.833c3.956-4.612,9.223-7.249,15.146-7.249v3.955c0,4.612-0.656,9.217-3.292,12.51
			c-3.293,4.618-8.561,7.249-16.465,8.567l-0.656-3.293C128.794,0.727,130.769-4.541,134.062-7.833z"/>
	</g>
	<g>
		<path d="M163.699-36.809l-14.491,17.121c-0.656,1.312-0.656,3.293,0.663,3.949c1.975,1.318,2.631,0.656,3.949-0.656l13.835-17.121
			c1.312-1.325,1.312-2.637,0-3.956L163.699-36.809z"/>
	</g>
	<g>
		<path fill="#858585" d="M113.647-45.376c-8.561,4.612-12.516,13.828-11.854,27c13.828-0.656,22.389-5.924,25.682-15.803
			l0.662-14.491C122.864-48.669,118.259-47.351,113.647-45.376z"/>
	</g>
	<g>
		<path d="M130.769-48.669l-2.631-2.637c-8.567,0-16.465,2.637-21.739,8.567c-5.924,5.268-7.898,13.828-6.586,25.026
			c0,1.318,1.318,1.975,1.98,1.975c11.191-0.656,19.096-3.949,24.363-10.535C130.769-32.204,132.743-39.446,130.769-48.669z
			 M125.501-45.376l0.656,2.637c0,5.268-1.312,9.879-4.605,13.828c-3.293,3.949-8.567,6.586-16.465,7.242l-0.662-1.312
			c0-6.586,1.975-11.86,5.268-16.465C114.303-43.395,119.571-45.376,125.501-45.376z"/>
	</g>
	<g>
		<path d="M140.647-67.108l-14.491,17.127c-1.312,1.312-1.312,2.63,0,3.949c1.319,0.656,2.637,0.656,3.293,0l15.153-17.784v-3.956
			L140.647-67.108z"/>
	</g>
	<g>
		<path fill="#858585" d="M192.018,120.595c-7.897,6.585-10.535,16.465-6.585,28.974c12.517-2.63,20.421-9.216,22.396-19.095
			l-1.975-15.146C201.241,115.983,196.629,117.964,192.018,120.595z"/>
	</g>
	<g>
		<path d="M197.948,115.328c-5.931,1.974-9.88,5.268-12.517,9.223c-3.949,5.924-5.268,14.484-2.63,25.682
			c1.318,1.318,1.974,1.974,3.293,1.974c10.535-1.974,17.784-7.242,21.733-13.828c1.975-4.612,3.293-9.88,2.637-15.81l-1.979-7.898
			c-0.656-1.325-1.976-1.981-3.293-1.981L197.948,115.328z M188.068,145.621l-1.318-6.586c0-3.949,0.662-7.898,3.293-11.854
			c2.639-4.611,7.905-7.904,14.491-8.561l0.655,7.243l-1.975,9.223C200.585,140.353,195.311,143.646,188.068,145.621z"/>
	</g>
	<g>
		<path d="M215.068,94.913l-11.19,19.096c-1.317,1.319-0.662,3.293,0.656,3.955c1.975,0.656,3.293,0.656,3.293-0.662l11.854-19.758
			c1.317-1.319,1.317-1.975-0.656-3.293L215.068,94.913z"/>
	</g>
	<g>
		<path fill="#858585" d="M181.482,75.811c-6.586,6.586-7.904,16.466-2.637,28.982c12.516-5.274,19.103-12.516,19.103-22.396
			l-3.294-14.49C190.043,69.225,185.432,71.861,181.482,75.811z"/>
	</g>
	<g>
		<path d="M196.629,66.588c-0.654-0.656-1.975-1.313-2.63-0.656c-1.981,0-3.956,0.656-7.905,3.293
			c-4.612,2.636-8.561,6.585-11.198,10.535c-3.293,7.904-2.637,16.465,1.975,25.688c0.663,1.975,1.319,2.637,3.293,1.975
			c10.542-3.956,16.465-9.879,19.104-17.784c1.975-4.605,1.975-9.879,0-15.146L196.629,66.588z M194.654,88.327
			c-2.637,5.261-6.586,9.217-13.828,12.51c-1.981-4.611-2.637-7.905-2.637-10.541l1.974-7.899
			c1.975-4.611,6.586-8.567,12.517-11.197c1.975,3.956,2.631,7.249,2.631,11.197L194.654,88.327z"/>
	</g>
	<g>
		<path d="M200.585,46.173l-9.224,21.07c0,1.981,0,2.637,1.975,3.293c1.318,0.663,1.975,0.663,3.293-1.312l8.563-21.077
			c1.317-1.319,0-1.975-1.313-3.293C201.896,44.192,201.241,44.855,200.585,46.173z"/>
	</g>
	<g>
		<path fill="#858585" d="M168.311,38.269c-7.242,7.904-7.905,17.784-1.975,29.637c11.854-5.268,18.439-13.172,18.439-23.714
			l-3.949-13.828C175.553,31.683,171.604,34.313,168.311,38.269z"/>
	</g>
	<g>
		<path d="M185.432,36.294l-3.293-6.586c0-1.981-0.656-1.981-2.631-1.981l-7.249,3.956c-4.604,2.631-8.56,6.586-10.535,11.198
			c-3.293,7.898-2.637,16.465,2.637,26.345c0,0.656,1.312,1.312,3.293,0.656c9.879-3.949,15.803-9.879,18.439-17.122
			C188.068,47.485,187.412,42.224,185.432,36.294z M167.655,63.951c-1.981-4.605-2.637-7.898-2.637-11.191l1.974-7.904
			c1.975-4.612,5.931-8.561,11.854-11.198c1.981,4.612,2.637,7.904,2.637,11.198l-0.656,5.923
			C178.846,56.053,174.896,60.001,167.655,63.951z"/>
	</g>
	<g>
		<path d="M186.094,8.631l-7.904,21.077c-0.656,1.313,0,3.293,1.318,3.293c1.975,0.656,2.631,0,3.293-1.319l8.561-21.077
			c0-1.975,0-3.293-1.975-3.293C188.068,6.657,186.75,6.657,186.094,8.631z"/>
	</g>
	<g>
		<path fill="#858585" d="M227.586,165.379c0,9.879,6.585,17.784,19.758,21.077c5.268-11.853,3.293-21.733-3.949-28.975
			l-13.172-6.586L227.586,165.379z"/>
	</g>
	<g>
		<path d="M227.586,150.232l-2.638,7.249c-0.656,5.923-0.656,10.535,1.317,15.803c3.293,7.249,10.543,12.509,20.42,15.803
			c1.313,0.663,2.633,0,3.295-1.313c3.949-10.535,3.949-19.102,0-26.344c-2.638-3.949-6.586-7.905-11.859-9.88l-7.242-3.292
			C229.561,148.258,228.241,148.258,227.586,150.232z M246.023,183.163c-7.902-3.292-12.508-6.586-15.146-11.854l-0.657-7.905
			c0-2.63,0.657-5.923,1.313-9.217c5.93,1.968,11.196,5.262,13.172,10.535c1.979,1.975,2.638,5.268,2.638,8.561L246.023,183.163z"/>
	</g>
	<g>
		<path fill="#FF0000" d="M122.864,92.932c-1.975,48.083-0.656,100.772,4.611,158.066c10.542,115.912,36.224,199.563,75.083,250.928
			l130.403-5.262c-42.81-54.014-72.446-138.309-86.276-250.934c-6.584-56.644-9.877-107.352-8.564-153.454L122.864,92.932z"/>
	</g>
	<g>
		<path d="M240.757,89.639l-2.636-0.656l-115.257,0.656c-1.975,0-3.293,1.318-3.293,3.292c-1.974,48.74-0.656,102.085,5.274,160.704
			c10.535,115.256,36.224,198.896,75.078,250.272c0.662,1.311,1.318,1.311,2.638,1.311l130.402-5.261l3.293-1.324l-0.656-3.293
			c-42.809-54.002-71.135-136.982-84.963-248.291c-7.242-56.638-9.88-108.015-9.223-154.772L240.757,89.639z M234.827,95.569v11.854
			c0,59.275,5.274,116.575,14.491,173.212c14.49,93.524,40.834,164.653,77.058,213.394l-121.842,4.604
			c-30.956-40.828-52.689-102.74-65.861-185.723c-9.223-54.007-13.172-113.282-13.172-177.168l0.656-39.517L234.827,95.569z"/>
	</g>
</g>
<path id="PATH77" fill="none" stroke="#000000" stroke-width="3" stroke-miterlimit="100" d="M370.59,585.26H3.92V2.74h366.67
	V585.26L370.59,585.26z"/>
</svg>
