<?xml version="1.0" encoding="utf-8"?>
<!-- Generator: Adobe Illustrator 13.0.0, SVG Export Plug-In . SVG Version: 6.00 Build 14948)  -->
<!DOCTYPE svg PUBLIC "-//W3C//DTD SVG 1.1//EN" "http://www.w3.org/Graphics/SVG/1.1/DTD/svg11.dtd">
<svg version="1.1" id="圖層_1" xmlns="http://www.w3.org/2000/svg" xmlns:xlink="http://www.w3.org/1999/xlink" x="0px" y="0px"
	 width="372px" height="587px" viewBox="0 0 372 587" enable-background="new 0 0 372 587" xml:space="preserve">
<path id="PATH77" fill="none" stroke="#000000" stroke-width="3" stroke-miterlimit="100" d="M370.59,585.26H3.92V2.74h366.67
	V585.26L370.59,585.26z"/>
<g>
	<g>
		<path d="M61.65,165.646c0-1.984-1.983-1.984-3.308-1.984c-1.984,0.659-1.984,1.984-1.984,3.967l15.879,56.242
			c8.601,42.35,9.263,77.416,0.663,105.208c0,1.983,0,3.308,1.983,3.308c1.325,1.318,3.309,0,3.309-1.324
			c7.941-29.109,7.941-64.842,0-107.191L61.65,165.646z"/>
	</g>
	<g>
		<path fill="#9260C7" d="M64.296,180.204l0.663-19.85c-0.663-13.233-5.292-17.866-13.233-14.558
			c-8.601,2.643-8.601,9.259-1.321,19.85L64.296,180.204z"/>
	</g>
	<g>
		<path d="M61.65,143.812c-3.308-1.99-6.617-2.649-10.587-1.324c-5.292,1.983-7.938,4.633-7.938,8.6
			c-1.324,4.633,1.322,11.25,7.938,19.191l11.25,11.909l2.646,0.666l1.325-1.99C68.929,161.013,67.604,149.104,61.65,143.812z
			 M52.387,147.78l5.955,0.659c3.308,1.99,4.633,7.282,4.633,16.542l-1.325,9.266c-9.263-9.266-13.896-16.542-13.896-21.168
			l0.662-0.666C48.417,150.429,49.741,149.104,52.387,147.78z"/>
	</g>
	<g>
		<path fill="#9260C7" d="M61.65,212.628l-10.587-17.207c-7.938-9.925-14.555-11.25-19.85-4.633
			c-4.63,7.275-1.321,12.574,10.587,17.201L61.65,212.628z"/>
	</g>
	<g>
		<path d="M55.033,196.746c-5.292-7.941-10.587-12.574-15.879-12.574c-3.971-0.659-7.279,1.325-9.925,5.298
			c-2.646,3.967-3.971,7.276-1.984,11.243c3.968,7.941,14.555,12.574,33.743,14.558l1.987-1.325l0.663-1.984L55.033,196.746z
			 M31.875,198.729v-1.983l1.325-4.633c1.984-1.984,3.308-2.643,5.292-2.643c4.633,0.659,11.25,6.617,17.866,19.185
			C41.8,206.67,34.521,203.362,31.875,198.729z"/>
	</g>
	<g>
		<path d="M62.975,210.638c-1.325-0.659-2.646-0.659-3.308,0c-1.325,1.325-1.325,2.649,0,3.968l14.555,13.899h3.308
			c1.325-1.325,1.325-1.984,0-3.309L62.975,210.638z"/>
	</g>
	<g>
		<path fill="#9260C7" d="M86.133,231.147c-1.324,5.958-1.324,12.574,0,19.85l13.896-14.552c7.938-9.925,7.938-16.542,0-19.85
			C92.087,213.287,87.455,218.579,86.133,231.147z"/>
	</g>
	<g>
		<path d="M101.35,213.946l-11.909,1.325c-3.309,3.308-5.955,9.925-6.617,19.85c0,6.617,0,11.909,0.662,16.542l1.322,1.984
			l2.646-0.659l11.912-11.25c6.617-7.941,9.925-13.899,8.601-18.525C107.967,219.245,105.321,216.596,101.35,213.946z
			 M103.337,223.212v0.659c0,5.958-5.295,12.574-15.22,21.175v-5.292c0-11.25,1.325-17.866,4.633-20.509
			c1.322-0.666,3.309-0.666,6.617,0L103.337,223.212z"/>
	</g>
	<g>
		<path d="M86.133,248.354c-1.324,0-1.987,0-2.646,1.984l-5.295,19.85c0,1.325,0.662,2.649,2.646,2.649
			c1.325,0.659,2.649,0,3.308-1.325l3.971-19.85C88.779,249.679,88.117,248.354,86.133,248.354z"/>
	</g>
	<g>
		<path fill="#9260C7" d="M66.283,262.912c-1.987-6.617-5.295-13.233-9.263-17.866c-7.279-11.25-13.896-13.233-19.191-6.617
			c-5.955,6.617-2.646,13.233,9.266,17.866C53.05,259.604,59.667,261.587,66.283,262.912z"/>
	</g>
	<g>
		<path d="M46.433,232.478c-3.971-0.666-7.941,0.659-10.587,4.626c-2.646,3.968-3.971,7.941-2.646,11.25
			c2.646,6.617,13.233,12.568,33.083,16.542l1.983-0.666l0.663-2.643C61.65,243.062,54.371,233.796,46.433,232.478z M39.816,240.413
			c1.984-1.984,3.308-2.649,5.292-2.649c5.295,0.666,11.25,7.948,16.542,20.516c-13.896-3.309-21.833-6.617-23.158-11.909
			l-0.662-1.325L39.816,240.413z"/>
	</g>
	<g>
		<path d="M68.267,260.922l-3.308-0.659c-1.984,1.325-1.984,2.649-0.663,3.968l15.221,17.207c1.321,1.325,2.646,1.325,3.308,0
			c1.984-1.325,1.984-1.984,0.662-3.308L68.267,260.922z"/>
	</g>
	<g>
		<path fill="#9260C7" d="M131.125,295.996l-9.263-17.201c-7.279-10.591-13.896-12.574-19.188-5.958
			c-5.295,7.275-1.987,13.233,9.925,17.86L131.125,295.996z"/>
	</g>
	<g>
		<path d="M100.688,271.513c-3.309,3.308-3.968,7.941-2.646,11.25c2.646,5.958,13.233,11.909,33.083,15.882l2.646-0.666v-2.643
			c-7.938-17.872-15.217-27.132-23.158-28.457C106.646,266.221,103.337,268.204,100.688,271.513z M102.675,279.454
			c0-1.324,0.662-3.308,1.983-4.633c2.646-1.983,3.971-3.308,5.295-2.643c4.63,0.659,10.584,7.275,17.201,20.509
			c-14.555-3.308-22.496-7.275-24.479-11.915V279.454z"/>
	</g>
	<g>
		<path d="M199.278,97.496l-3.971,0.659c-11.912,15.882-23.82,36.392-34.408,63.517c-20.512,53.599-26.466,109.841-18.525,167.407
			c0,1.983,1.322,2.649,2.646,2.649l2.646-3.309c-8.601-56.907-2.646-111.824,17.866-164.758
			c10.587-25.808,21.834-46.316,34.404-62.199C200.6,99.479,200.6,98.813,199.278,97.496z"/>
	</g>
	<g>
		<path fill="#9260C7" d="M193.983,106.096l15.221-12.567c8.6-9.266,9.925-15.883,1.983-19.85c-7.279-3.974-12.571,0-15.88,12.568
			C194.646,92.197,193.983,99.479,193.983,106.096z"/>
	</g>
	<g>
		<path d="M192,108.08h2.646l13.233-9.925c7.941-6.617,11.909-12.574,11.25-17.201c0-4.633-1.987-7.276-5.958-9.925h-11.908
			c-6.617,3.967-9.926,15.217-9.926,35.067L192,108.08z M204.57,74.996l5.955,1.325c1.986,1.325,3.308,2.643,3.308,4.633
			c0,4.626-5.954,11.243-17.203,19.85C197.292,86.246,199.938,78.305,204.57,74.996z"/>
	</g>
	<g>
		<path fill="#9260C7" d="M176.779,111.388l3.309-19.85c1.325-12.574-2.646-17.86-11.247-16.542
			c-7.941,1.99-9.925,8.607-3.971,19.85L176.779,111.388z"/>
	</g>
	<g>
		<path d="M178.767,75.655c-1.987-2.643-5.295-3.967-10.587-2.643c-3.971,0.666-7.279,3.308-9.263,6.617
			c-1.987,7.941,2.646,18.525,15.879,33.749l1.983,0.659l1.987-1.325l3.308-16.542C184.059,86.246,182.737,79.629,178.767,75.655z
			 M174.796,79.629c1.983,1.325,2.646,4.633,2.646,8.6l-2.646,17.866c-7.279-9.925-10.587-17.866-10.587-22.493v-2.649
			c0.662-1.325,2.646-2.649,4.633-3.309C172.15,77.646,174.133,77.646,174.796,79.629z"/>
	</g>
	<g>
		<path d="M178.767,111.388l-2.646-1.983c-1.987,0-2.649,0.666-1.987,1.983l0.663,20.509c0,1.99,0.662,2.649,2.646,2.649
			c1.325-0.659,2.646-1.318,2.646-3.309L178.767,111.388z"/>
	</g>
	<g>
		<path fill="#9260C7" d="M152.3,151.747l-2.646-19.85c-3.309-12.568-8.604-15.876-15.883-11.902
			c-7.938,3.968-6.617,10.584,2.649,19.85L152.3,151.747z"/>
	</g>
	<g>
		<path d="M154.283,153.737c0.663,0,0.663-1.325,0.663-1.99l-1.325-15.876c-2.646-9.925-5.954-16.542-9.925-18.525H132.45
			c-4.633,2.649-6.617,5.958-6.617,9.925c0,7.935,8.601,16.542,25.142,26.467H154.283z M141.05,121.313
			c4.633,2.649,7.279,11.25,7.941,25.808c-11.25-8.607-17.866-14.558-17.866-19.85c0-1.99,1.325-3.308,3.309-4.633L141.05,121.313z"
			/>
	</g>
	<g>
		<path d="M154.946,150.429c-0.663-1.325-1.984-1.325-3.309-1.325c-1.983,0.666-2.646,1.984-1.324,3.309l9.266,24.483
			c0.659,1.984,1.984,2.649,3.309,1.984c1.983-0.666,1.983-1.984,1.321-3.309L154.946,150.429z"/>
	</g>
	<g>
		<path fill="#9260C7" d="M201.263,123.699h19.85c13.233-1.656,17.204-7.448,14.558-16.542l-20.512-0.824L201.263,123.699z"/>
	</g>
	<g>
		<path d="M198.616,124.621l2.646,1.99c19.188,2.643,31.1,0.659,36.392-5.958c1.983-3.308,1.983-7.941,0-11.25
			c-1.325-4.633-3.971-7.282-7.941-7.941c-5.292-0.659-11.909,2.649-19.188,9.266l-11.247,11.909
			C197.954,123.303,197.954,123.962,198.616,124.621z M233.021,111.388c1.324,1.99,1.324,3.968,0,5.958
			c-2.646,3.308-11.909,5.292-25.805,3.967c9.263-10.584,17.204-15.217,21.837-13.893
			C231.037,107.42,231.699,108.08,233.021,111.388z"/>
	</g>
	<g>
		<path d="M203.908,123.303c0-1.99-1.983-2.649-3.309-1.99l-21.833,4.633c-1.987,0-2.646,1.325-1.987,3.309
			c0,1.325,1.325,1.983,3.309,1.325l21.837-3.968C203.908,125.946,204.57,124.621,203.908,123.303z"/>
	</g>
	<g>
		<path fill="#9260C7" d="M184.059,157.705l19.85-0.659c12.571-1.99,17.204-6.617,13.896-14.558
			c-3.971-7.941-10.587-7.941-20.512,0.666C192,147.121,188.029,152.413,184.059,157.705z"/>
	</g>
	<g>
		<path d="M181.413,155.721c0,1.325,0,1.984,0,3.309l2.646,1.325c19.188,1.318,30.438-1.325,35.729-7.941
			c1.986-3.309,1.986-6.617,0-11.25c-1.984-3.968-5.292-7.276-8.601-7.276c-4.633,0-11.25,3.308-18.525,9.925
			C188.029,147.78,184.721,151.747,181.413,155.721z M212.512,139.845l2.646,3.967c1.321,1.984,1.321,3.309,0,5.292
			c-3.309,4.633-11.25,6.617-25.805,5.951c9.263-11.243,15.88-16.542,21.172-15.876L212.512,139.845z"/>
	</g>
	<g>
		<path d="M186.704,156.386c-1.321-1.99-1.983-2.649-3.967-1.331l-18.528,8.607c-1.984,0.659-1.984,1.984-0.663,3.309
			c0,1.983,1.325,1.983,3.309,1.983l17.866-8.6C186.704,159.029,187.367,157.705,186.704,156.386z"/>
	</g>
	<g>
		<path fill="#9260C7" d="M160.238,289.244l20.512-0.783c12.571-1.581,17.204-7.075,13.896-16.505h-20.512L160.238,289.244z"/>
	</g>
	<g>
		<path d="M196.63,273.496c-1.984-3.967-4.63-6.617-8.601-7.275c-4.633,0-11.25,2.649-19.188,9.925l-10.587,11.909v2.643
			l1.984,1.331h16.542c9.925-0.666,16.542-3.309,19.851-7.282C197.954,281.438,197.954,278.129,196.63,273.496z M192,276.146
			c1.321,2.649,1.321,4.626,0,5.292c-3.309,4.633-11.25,5.951-26.467,5.292c9.925-10.584,16.542-15.882,21.834-15.217
			C189.354,271.513,191.337,272.837,192,276.146z"/>
	</g>
	<g>
		<path d="M162.887,288.054c-1.325-1.325-1.987-1.984-3.971-1.325l-17.866,7.941c-1.984,1.325-2.646,2.643-1.984,3.974
			c1.321,1.978,2.646,1.978,3.308,1.318l19.188-7.935C162.887,291.363,163.546,290.038,162.887,288.054z"/>
	</g>
	<g>
		<path d="M299.188,121.313c-0.659-1.984-1.983-1.984-3.308-1.984c-1.984,0-2.646,1.325-1.984,3.309
			c2.646,22.493,2.646,47.641-1.324,74.767c-8.601,55.583-30.435,97.266-65.505,126.375c-1.983,0.666-1.983,1.99-0.662,3.974h3.971
			c36.392-29.775,58.888-72.783,66.829-129.025C301.175,170.279,302.496,144.471,299.188,121.313z"/>
	</g>
	<g>
		<path fill="#9260C7" d="M297.204,127.93c2.646-6.617,3.971-13.233,5.292-19.191c1.987-12.568-1.321-18.519-9.925-17.86
			c-8.601,1.318-10.584,7.276-5.292,19.85L297.204,127.93z"/>
	</g>
	<g>
		<path d="M292.571,88.229c-5.292,0.659-8.601,2.649-9.263,6.617c-2.646,4.633-1.321,11.25,3.309,20.509l7.94,13.899
			c0.663,1.325,1.984,1.325,2.646,1.325l1.983-1.325l4.633-15.876c2.646-9.925,1.984-17.207-0.662-20.516
			C301.175,89.554,297.204,87.57,292.571,88.229z M299.188,95.505l1.325,7.282c0,5.292-1.325,11.909-3.971,19.185
			c-5.954-9.26-9.263-17.201-9.263-22.493v-2.643c1.324-1.99,3.309-2.649,5.954-2.649h3.971L299.188,95.505z"/>
	</g>
	<g>
		<path fill="#9260C7" d="M309.775,150.429l15.879-12.574c8.604-9.266,9.266-15.882,1.325-19.85
			c-7.279-3.967-12.571,0-15.218,12.575C310.438,137.195,309.775,143.812,309.775,150.429z"/>
	</g>
	<g>
		<path d="M328.963,116.021l-11.909-0.666c-6.616,3.974-9.925,15.882-9.925,35.073l1.983,1.984h1.987
			c16.542-9.925,24.479-19.85,24.479-27.792C334.92,120.654,332.934,117.346,328.963,116.021z M330.287,124.621v0.659
			c0,5.299-5.954,11.915-17.204,19.85c0-14.551,2.646-22.493,7.279-25.801l5.954,1.325
			C328.963,121.972,330.287,123.303,330.287,124.621z"/>
	</g>
	<g>
		<path d="M311.1,148.438c-0.662-1.318-1.987-1.318-3.309,0.666l-11.911,16.542c-1.322,1.325-1.322,1.983,0.662,3.308
			c1.324,1.325,2.646,1.325,3.308-0.666l12.571-15.876C313.083,151.088,313.083,149.77,311.1,148.438z"/>
	</g>
	<g>
		<path fill="#9260C7" d="M312.421,198.729l18.528-7.941c11.247-5.958,13.233-11.909,7.279-18.525
			c-5.957-5.951-11.912-3.309-18.528,7.941L312.421,198.729z"/>
	</g>
	<g>
		<path d="M343.521,180.863c1.325-3.967,0-7.275-3.308-10.584c-3.309-3.308-7.279-4.633-10.588-3.308
			c-5.292,1.318-9.263,6.617-13.896,15.882l-5.292,15.21v2.649l3.309,0.659C332.271,195.421,342.196,188.804,343.521,180.863z
			 M338.888,178.879v1.325c-1.321,3.967-8.601,9.266-21.834,14.551c3.971-13.893,8.601-21.168,13.896-22.493
			c2.646,0,3.971,0,5.955,1.983L338.888,178.879z"/>
	</g>
	<g>
		<path d="M314.408,197.405c-0.662-1.984-1.987-1.984-3.309-0.659l-20.512,13.233c-1.325,1.983-1.325,3.308,0,3.967
			c0,1.325,1.983,1.99,3.308,1.325l19.851-14.558C315.729,200.054,315.729,198.729,314.408,197.405z"/>
	</g>
	<g>
		<path fill="#9260C7" d="M250.225,174.246c-7.278,5.299-5.954,11.25,4.634,19.191l17.862,9.925l-5.292-19.191
			C262.796,172.263,256.842,168.954,250.225,174.246z"/>
	</g>
	<g>
		<path d="M274.708,203.362c0-5.299-1.324-10.584-3.971-16.542c-2.646-9.266-6.616-15.223-11.25-16.542
			c-3.967-1.99-7.938-1.325-11.246,1.984c-3.971,3.308-5.295,6.617-4.633,9.925c0.662,7.941,10.587,16.542,27.791,23.824
			l2.646-0.666C274.708,205.346,275.37,204.021,274.708,203.362z M250.888,176.236c2.646-1.99,4.633-2.649,6.616-1.331
			c4.633,1.99,8.601,9.266,11.25,23.824c-12.574-6.616-19.191-11.909-20.513-17.207v-0.659
			C248.241,179.545,249.563,177.555,250.888,176.236z"/>
	</g>
	<g>
		<path d="M293.233,220.563c0.662-0.659,0.662-1.984-0.662-3.309l-18.525-15.882l-3.309,0.666c-1.324,0.666-1.324,1.984,0,3.308
			l18.525,15.876L293.233,220.563z"/>
	</g>
	<g>
		<path fill="#9260C7" d="M283.971,155.721c0-6.617-1.324-13.233-3.309-19.85c-3.971-11.909-9.925-15.876-16.541-11.25
			c-7.279,4.633-6.617,11.25,3.308,19.85L283.971,155.721z"/>
	</g>
	<g>
		<path d="M283.971,139.179c-1.983-9.925-5.954-15.217-9.925-17.866c-3.309-1.984-7.279-1.984-11.25,1.325
			c-4.63,2.643-5.954,5.951-5.954,9.925c0.662,4.633,3.971,9.925,12.571,16.542l13.896,8.601h2.646l0.663-1.984L283.971,139.179z
			 M271.399,125.946c4.63,1.984,7.938,10.591,9.263,24.483c-12.57-7.275-18.525-13.233-18.525-18.532v-0.659
			c0-1.318,1.321-3.308,3.309-3.967C267.429,125.28,270.075,124.621,271.399,125.946z"/>
	</g>
	<g>
		<path d="M299.85,172.928c0.663-0.666,0.663-2.649,0-3.974l-13.896-15.217h-3.308c-1.984,1.318-1.984,2.649-0.659,3.967
			l13.893,14.558L299.85,172.928z"/>
	</g>
	<g>
		<path fill="#9260C7" d="M113.262,184.831l-12.574,2.649c5.295,8.607,14.558,17.866,28.454,26.467
			c-6.617,11.25-9.263,25.148-9.263,41.69c12.571-2.649,24.479-9.925,37.05-22.499c3.971,7.276,9.925,13.233,17.867,18.525
			l11.908,4.633l3.309-26.466l-0.659-10.584c6.617-4.639,15.217-12.574,25.143-24.489l-23.159-5.286l-13.233-1.99l-6.617-23.158
			l-3.308-11.243c-8.601,5.951-17.204,15.876-26.467,29.775L113.262,184.831z"/>
	</g>
	<g>
		<path d="M168.841,150.429h-3.308c-7.279,5.292-16.542,15.217-25.146,29.116l-27.788,2.643l-13.233,2.643l-1.325,1.99l-0.662,0.659
			l0.662,1.99c4.633,7.276,13.233,15.876,26.467,25.801c-5.292,11.25-7.938,24.483-7.938,40.365l1.321,2.643l2.646,0.666
			c10.587-2.649,23.159-9.266,35.07-20.516c7.938,9.925,17.863,17.866,29.775,21.175h2.646l1.324-2.649
			c1.983-9.266,3.968-18.525,3.968-28.45l-0.659-7.941c7.275-5.292,15.217-13.233,24.479-23.817l0.662-1.99v-1.318l-2.646-1.324
			c-4.633-1.984-16.542-4.633-34.408-7.941l-5.954-21.168l-3.971-10.59L168.841,150.429z M131.125,211.962
			c-11.246-7.941-19.188-15.217-25.142-21.833l35.729-3.967c1.984,0,2.646-0.666,3.308-1.331
			c6.617-11.243,13.896-19.85,21.175-25.801l8.601,29.109c0,1.99,0.662,2.649,2.646,2.649l10.587,1.325l20.512,4.633l-21.174,19.85
			l-1.322,2.649l0.659,9.26c0,7.941-1.321,15.217-2.646,23.158c-11.909-4.633-19.188-11.25-24.48-19.85l-2.649-1.983
			c-1.321,0-1.983,0.659-2.646,1.318c-9.925,9.266-20.512,16.542-31.096,20.516c1.321-15.876,4.63-27.792,8.601-35.726l0.662-1.99
			L131.125,211.962z"/>
	</g>
	<g>
		<path d="M144.358,212.628l-3.971-0.666c-1.321,1.325-1.321,2.643,0,4.633l8.604,5.292c7.279,2.643,15.879,2.643,24.48,0
			c1.325-0.666,1.987-1.984,1.325-3.309c0-1.983-1.325-1.983-3.309-1.983h-19.85L144.358,212.628z"/>
	</g>
	<g>
		<path d="M147.004,196.086c0-1.331-1.321-1.99-2.646-1.331c-0.662,0-1.984,0.666-1.984,1.99l1.984,8.6l1.325,13.233
			c0,1.325,0.662,1.325,1.984,1.325l1.987-1.325l-1.325-13.899L147.004,196.086z"/>
	</g>
	<g>
		<path d="M160.238,196.746c-1.984,0-1.984,0-1.984,1.318l-4.633,21.84c-0.659,1.318,0,1.984,1.325,2.649l2.646-1.99l3.971-21.834
			C161.563,198.063,161.563,196.746,160.238,196.746z"/>
	</g>
	<g>
		<path d="M173.471,202.038c-1.321-1.325-1.984-1.325-2.646,0c-3.309,3.308-6.617,9.925-9.263,17.866c0,1.984,0,2.649,1.325,3.309
			c1.321,0,1.983,0,2.646-1.325c2.646-8.601,5.292-13.899,8.6-17.208L173.471,202.038z"/>
	</g>
	<g>
		<path fill="#9260C7" d="M299.85,311.213c0.663-7.282,0.663-17.207-0.662-30.441l-3.308-17.86
			c5.295-3.967,13.896-14.558,25.145-31.1l-23.82-1.983h-13.896c-1.984-5.958-4.63-13.233-9.263-23.159l-6.617-14.558
			c-9.263,10.59-16.541,23.158-21.174,37.057l-27.126,3.967l-14.559,3.308c5.955,7.935,13.896,15.883,25.805,23.817
			c-3.309,9.266-6.616,22.5-9.263,41.024c9.263-2.643,23.158-9.924,40.362-21.833c3.309,6.617,10.588,14.552,22.496,21.833
			L299.85,311.213z"/>
	</g>
	<g>
		<path d="M285.295,226.521l-8.604-22.499l-6.616-13.233l-2.646-1.984c-0.662,0-1.983,0-3.308,1.325
			c-8.601,9.925-15.88,21.833-19.851,36.392l-26.467,3.309l-13.896,3.308c-0.662,0.659-1.983,1.318-2.646,2.649v0.659l0.662,1.984
			c5.954,7.941,13.896,15.876,24.479,23.158c-2.646,9.26-5.954,22.493-8.601,39.7l0,0l0.663,2.644l2.646,0.665
			c9.925-2.643,22.496-9.26,39.7-21.174c6.616,11.25,19.188,21.174,37.054,30.434h3.309l1.983-2.643l0.662-9.26
			c0-13.233-1.324-25.808-4.633-37.723c5.958-5.286,14.559-15.876,24.483-30.434l0.662-1.984v-1.325l-1.987-1.983L285.295,226.521z
			 M283.309,233.137h10.587l21.834,1.318c-9.925,13.898-17.863,21.84-21.834,25.807c-0.662,1.325-1.324,1.99-1.324,2.649v0.659
			l1.986,13.233l2.646,25.148v3.309c-17.204-9.266-27.791-18.532-33.083-27.132l-1.984-1.984h-2.649
			c-13.232,9.925-25.142,16.542-34.404,19.851c3.309-16.542,5.954-27.792,8.601-34.409v-1.325l-1.321-1.983l-21.837-19.85
			c13.896-3.974,26.467-5.951,35.729-5.951l3.308-2.649c3.971-11.25,9.925-21.84,17.204-31.1
			c7.279,14.558,11.25,25.142,13.233,31.759C280,231.813,281.324,233.137,283.309,233.137z"/>
	</g>
	<g>
		<path d="M284.633,258.945c-0.662-1.331-1.986-1.99-3.971-1.331c-11.249,5.298-20.512,5.298-27.791,0l-3.309,0.666
			c-1.321,1.325-1.321,1.983,0,3.308l9.925,4.633c7.279,1.318,15.221,0,23.821-3.309
			C284.633,261.587,285.954,260.263,284.633,258.945z"/>
	</g>
	<g>
		<path d="M253.533,241.072c-0.662-1.318-1.983-1.318-2.646-1.318c-1.325,0.659-1.325,1.984-1.325,2.649l2.649,7.935l3.309,12.574
			c0,1.984,0.659,1.984,1.983,1.984l1.983-1.984l-3.308-13.233L253.533,241.072z"/>
	</g>
	<g>
		<path d="M266.767,239.754c-0.662,0-1.983,0.659-2.646,1.984l-0.663,21.833c0,1.325,0.663,2.649,1.325,2.649l2.646-2.649
			l0.663-21.833C268.754,240.413,268.092,239.754,266.767,239.754z"/>
	</g>
	<g>
		<path d="M280.662,243.062c-0.662-0.659-1.983,0-2.646,0.659c-3.309,4.633-4.633,10.584-6.617,19.191l1.984,1.984l1.986-1.325
			c1.321-8.601,3.309-13.893,5.954-17.86C282.646,245.046,281.987,243.721,280.662,243.062z"/>
	</g>
	<g>
		<path fill="#858585" d="M340.875,319.154c1.321-7.276-1.325-13.233-7.279-18.532c-6.616-5.286-15.879-6.616-26.467-3.309
			l-21.834,6.617l-11.911-1.318l-15.218-0.659c-11.249,1.318-18.528,5.951-20.512,13.233c-0.662,3.968,0,7.935,0.662,11.902
			l1.321,6.616c1.324,7.282,3.971,15.224,7.941,24.489c3.309,9.926,9.263,17.201,16.542,20.51l14.558,5.292l4.63,7.941
			c1.324,5.957,3.309,9.925,5.954,12.574c3.309,2.643,5.958,4.626,9.266,5.285l11.247,0.666c5.954,0.665,13.896,5.292,23.158,13.233
			l10.587-23.159c5.292-9.925,5.954-19.184,1.984-26.466c-1.984-2.644-1.984-5.951-1.322-9.926l2.646-10.59
			c0-2.644,0-5.951-1.324-7.936l-5.292-10.584C339.55,333.705,340.213,327.754,340.875,319.154z"/>
	</g>
	<g>
		<path d="M314.408,292.028l-19.851,5.95l-9.263,2.644l-10.587-0.659l-16.542-1.318c-10.587,1.318-17.204,4.627-21.174,10.584
			c-1.984,3.309-2.646,6.617-2.646,10.584l0.662,7.941c0,5.951,3.309,16.542,9.263,31.759c5.292,14.559,15.217,23.158,29.775,26.467
			l3.309,0.659c0.662,0.666,1.983,1.99,2.646,5.958c1.324,5.957,3.971,11.249,7.279,14.558c2.646,2.643,5.292,3.974,8.601,5.292
			l7.94,1.324h5.292c5.296,0.666,12.575,4.634,21.175,11.909l3.309,1.324l1.983-2.643l11.25-22.499
			c5.292-11.25,5.954-21.175,1.324-29.775c-1.324-1.324-1.324-4.633,0.659-9.925l1.325-7.941c0-3.974-0.663-8.601-3.309-11.908
			l-3.309-7.941c-0.662-2.643-0.662-5.951,0-9.925l0.662-12.568c-0.662-4.64-3.97-9.266-8.604-13.899
			C330.287,293.346,323.009,291.363,314.408,292.028z M313.746,298.645c7.278-0.666,13.233,0.659,17.203,4.627
			c5.293,3.967,7.279,7.941,7.279,12.574l-1.324,6.616l-0.662,7.936l0.662,5.957l3.971,8.607l2.646,7.275v1.318l-1.324,7.282
			l-1.983,7.941c0,2.648,0.662,5.292,2.646,6.616l1.324,8.601c0,4.633-0.662,9.925-3.97,14.558l-9.264,19.191
			c-8.604-6.617-15.879-9.926-21.174-10.591h-5.955l-6.616-0.666l-5.954-4.626c-1.987-1.99-3.971-5.299-4.633-11.25
			c-1.984-5.292-3.971-9.259-6.617-9.925l-3.971-1.324l-13.233-5.292c-5.292-3.309-9.263-9.26-12.571-16.542
			c-3.308-9.26-5.954-17.207-7.278-23.158l-1.321-7.282v-1.318l-0.663-5.958c0-1.983,0-4.626,1.984-7.275
			c2.649-3.968,7.941-6.616,15.22-7.275l15.88,0.659l11.908,1.317l11.25-3.308C303.82,301.287,309.775,299.304,313.746,298.645z"/>
	</g>
	<g>
		<path d="M277.354,301.287c-1.325,0-1.984,0-3.309,1.325c0,1.318,0,1.983,1.324,2.649l17.863,17.859
			c12.571,17.866,20.513,41.024,24.483,70.8c0,1.983,1.321,2.643,2.646,1.983l1.983-1.983c-4.629-31.1-13.233-55.576-25.804-73.449
			L277.354,301.287z"/>
	</g>
	<g>
		<path d="M307.129,316.505l-13.896,1.99c-13.233,1.977-22.496,6.616-27.129,13.892c-2.646,3.968-4.63,7.936-3.968,11.243
			c0.659,1.332,1.321,1.99,1.984,1.99l1.983-1.99c0-3.308,1.324-5.95,3.309-9.259c4.633-6.617,12.574-9.925,24.482-11.909
			l13.233-1.99c7.941,0,13.233,3.975,16.542,10.591l3.309,1.324l0.662-2.648C323.671,321.138,317.054,317.164,307.129,316.505z"/>
	</g>
	<g>
		<path d="M315.729,340.322h-9.925c-11.909,1.331-19.851,5.957-25.143,11.915c-1.983,3.309-3.308,6.616-3.308,9.925
			c0,1.318,0,1.983,1.983,1.983l1.324-1.983c0.662-1.99,1.984-4.633,3.971-7.941c4.63-5.292,11.909-8.601,21.834-9.925l9.263-0.666
			c5.295,0.666,9.925,4.64,12.574,10.591c0.659,0.666,1.321,1.325,2.646,0.666c1.322-0.666,1.322-1.331,1.322-2.649
			C328.963,345.62,323.671,340.987,315.729,340.322z"/>
	</g>
	<g>
		<path d="M319.038,364.812h-4.63c-7.941,2.643-13.896,6.616-16.542,13.233c-1.324,3.309-1.324,6.616-1.324,9.26l2.646,1.983
			l1.325-1.983c-0.663-1.984-0.663-3.975,0.662-7.941c2.646-5.292,7.279-8.601,14.555-10.584h3.309l7.278,2.648
			c2.646,1.978,3.971,5.286,4.633,9.926c0.663,1.977,1.984,2.643,2.646,1.977l1.983-1.977c-1.321-5.958-3.308-10.591-7.938-13.233
			C325.654,366.789,323.009,365.471,319.038,364.812z"/>
	</g>
	<g>
		<path fill="#858585" d="M49.741,308.569l-4.633,13.233l-6.617,8.595c-2.646,3.308-4.63,7.282-5.954,10.59
			c-1.325,3.309-1.325,7.941-0.663,13.899c1.325,6.616,1.325,11.902,1.325,13.893l-3.308,9.925
			c-0.663,3.308-0.663,7.935,0.662,12.574c1.321,7.935,6.617,17.859,15.879,29.774c13.233-12.574,22.496-19.85,28.45-23.158
			c3.309-1.331,8.604-3.308,15.879-4.64c6.617-1.977,10.587-3.967,13.896-5.95c4.633-3.309,12.571-11.909,22.496-25.802
			l24.483-35.732l-4.633-15.224c-5.292-9.925-12.571-15.876-22.496-15.876l-17.204,3.308l-12.571,2.644l-13.896-5.951l-19.188,0.665
			C56.358,298.645,52.387,303.271,49.741,308.569z"/>
	</g>
	<g>
		<path d="M44.446,313.855l-2.646,6.616l-4.63,6.617c-3.971,4.64-6.617,8.606-7.941,12.574c-1.325,4.633-1.325,9.925,0,17.2
			l0.663,11.257l-1.987,5.285c-1.983,5.958-2.646,11.915-0.659,18.532c1.322,8.6,7.276,18.525,17.201,31.093
			c0.662,0.666,1.324,1.331,1.987,1.331l2.646-0.665c12.571-12.568,21.833-19.851,27.791-23.159
			c2.646-0.665,7.276-2.643,13.893-3.974l15.22-5.951l14.555-15.217l8.604-11.915l25.804-35.727v-2.643
			c-0.663-7.282-3.309-14.564-7.941-20.516c-5.292-8.6-13.233-13.233-22.496-13.233l-19.85,3.308l-9.925,2.643l-5.292-2.643
			c-5.955-2.643-10.587-3.974-13.233-4.633c-5.954-1.318-11.25-0.659-16.542,2.649c-4.633,2.649-7.941,5.958-10.587,10.584
			L44.446,313.855z M51.063,315.846c1.987-7.941,6.616-13.893,11.912-17.867l12.571-1.324l10.587,3.968l7.938,3.309l11.912-2.644
			l18.525-3.309c7.941,0,13.896,3.975,18.529,11.909c2.646,4.633,4.63,9.267,5.292,15.224l-23.821,34.401
			c-9.263,13.893-16.542,21.841-21.833,25.148c-3.309,1.978-7.941,3.309-13.896,5.286c-7.279,1.99-11.909,3.974-14.558,4.64
			c-6.617,3.308-15.879,10.584-27.126,21.827c-7.941-11.243-12.574-19.185-13.896-25.802l-0.662-6.616l1.983-8.601l1.325-5.299
			l0.662-5.951l-1.324-8.6l-0.663-7.941c0-1.984,0.663-3.975,0.663-5.951l6.617-10.591l5.954-7.282L51.063,315.846z"/>
	</g>
	<g>
		<path d="M103.996,297.979c-1.321-0.665-1.984-1.324-2.646,0l-21.833,22.493c-14.558,20.516-24.483,43.674-31.1,70.807l1.987,2.643
			l2.646-1.983c5.292-26.467,15.879-49.625,29.775-69.476l21.171-21.175V297.979z"/>
	</g>
	<g>
		<path d="M87.455,312.537c-10.584-3.309-19.188-1.99-25.142,3.309c-3.309,2.649-5.955,5.292-7.279,9.266
			c0,0.659,0,1.978,1.325,2.643c1.321,0,1.984,0,2.646-1.324c0.663-2.649,2.646-5.292,5.955-7.935
			c5.954-3.975,12.571-4.64,21.174-1.99l7.938,1.99c5.295,1.977,8.604,4.626,11.912,8.594c3.309,5.298,4.63,11.915,3.309,19.85
			c-0.663,1.331,0,1.99,1.321,1.99c1.325,0,1.987,0,1.987-1.324c1.984-9.26,0.663-16.542-3.308-23.158
			c-3.309-3.975-7.941-7.282-13.896-9.926L87.455,312.537z"/>
	</g>
	<g>
		<path d="M76.208,336.354l-4.633-0.659c-6.617-1.324-13.233,1.318-19.85,5.958c-3.309,2.643-6.617,5.285-8.601,8.594
			c-0.662,0.665-0.662,1.331,0,2.649l3.309-0.659l7.279-7.275c5.955-3.975,11.247-6.617,17.201-5.299
			c3.971,0,7.941,1.324,10.587,4.633c4.633,3.974,5.955,10.591,5.955,19.85c0,1.325,0.662,2.644,1.987,2.644l1.984-2.644
			c0-9.925-1.984-18.525-7.279-23.158C81.5,338.345,78.854,337.014,76.208,336.354z"/>
	</g>
	<g>
		<path d="M71.575,384.661c1.325-7.282,0.662-13.233-1.984-17.207c-1.987-1.983-4.633-3.309-6.617-3.974l-3.971-1.318
			c-4.633-0.659-9.263,0.659-13.233,5.292c-2.646,2.643-5.292,6.617-6.616,10.591c0,1.978,0.662,2.643,1.983,2.643l1.987-0.665
			c1.322-3.309,1.984-5.951,3.309-7.936c3.308-4.633,7.938-6.616,11.909-5.298l3.308,0.665l4.633,2.643
			c1.983,3.309,3.308,7.282,1.983,13.899l1.325,2.643l1.984-0.659V384.661z"/>
	</g>
	<g>
		<path fill="#858585" d="M156.271,309.229c-7.941,0-17.204,2.649-25.808,8.601c-9.925,5.951-15.879,13.233-15.879,22.493
			c-0.663,6.616,0,13.233,1.325,19.85c1.983,5.299,1.983,10.591,1.983,13.899l-3.971,11.249c-1.321,3.968-1.321,9.267-0.659,15.217
			c1.321,5.951,4.629,11.25,9.925,15.877c4.63,3.974,7.938,7.947,7.276,11.256c-0.659,7.275,7.941,22.492,25.145,45.651
			l13.233-6.617l21.171-9.26c3.971-1.331,7.279-4.639,9.925-9.925l7.279-9.925l15.879-5.958c7.279-3.308,11.912-6.616,14.559-10.584
			c1.324-3.308,2.646-7.947,3.308-15.223c0-5.958,1.984-11.243,4.634-13.893l11.908-11.25c3.971-4.633,6.617-11.25,8.601-19.185
			c1.324-7.947,0.662-16.541-4.63-23.158c-3.971-6.616-9.925-9.925-16.542-11.256l-25.804,0.665l-25.808-0.665l-16.542-9.925
			C168.841,311.878,161.563,309.888,156.271,309.229z"/>
	</g>
	<g>
		<path d="M156.271,305.921c-8.604,0-18.529,2.648-28.454,9.266c-9.925,6.616-15.879,15.211-16.542,25.136
			c-0.662,6.616,0,13.898,1.987,21.181l1.321,11.902l-2.646,7.282c-2.646,5.951-2.646,12.567-1.984,20.516
			c1.321,6.616,4.63,12.567,11.247,18.519c4.633,3.309,6.617,5.299,5.954,7.948c-0.659,8.594,7.941,23.817,26.467,47.635
			c0.662,1.324,1.987,1.99,3.971,1.324l12.571-7.282c9.266-4.626,16.542-7.935,20.512-9.259l9.263-5.292l4.633-7.941l4.634-6.617
			l8.6-3.308l13.233-5.293c3.971-1.989,7.279-5.298,9.263-8.606c1.987-3.968,3.309-9.26,3.971-15.876
			c0-5.951,1.325-9.925,3.309-12.567l5.292-3.975l9.925-10.59c3.309-5.286,5.296-11.243,6.617-17.86
			c1.324-8.606,0-17.866-5.292-25.148c-4.634-6.616-10.588-11.902-18.525-13.233c-3.971-0.659-11.25-0.659-23.158,0.666
			c-14.559,0.665-23.821,0.665-27.792-0.666l-10.587-5.951C172.15,310.547,162.887,306.58,156.271,305.921z M156.271,312.537
			c5.292,0.659,13.892,3.968,23.817,10.584L192,330.397l31.096,0.665c11.25-1.324,17.866-1.324,21.175-0.665
			c5.954,0.665,10.588,4.639,15.217,10.59c2.649,3.975,3.971,9.26,3.971,13.899l-0.662,5.951
			c-1.321,6.616-2.646,11.249-5.954,15.876l-8.601,8.606l-5.295,5.292c-2.646,2.643-4.63,7.941-5.292,16.542
			c-0.662,5.292-1.325,9.925-3.309,12.567l-7.279,6.617l-11.246,3.974l-10.587,4.633c-1.987,1.984-3.971,4.627-7.279,9.267
			c-2.646,5.95-5.954,9.259-9.263,9.925c-7.279,2.643-17.204,7.275-31.762,15.21c-15.217-21.168-23.158-34.401-23.158-41.018v-1.325
			c0-3.974-2.646-8.6-7.938-12.567c-5.295-4.64-8.604-9.266-9.263-13.899l-0.662-7.282c0-3.308,0.662-6.616,1.983-9.925l3.309-9.259
			v-3.975l-1.984-9.925c-1.325-5.951-1.987-11.243-1.987-15.21l0.662-3.975c0-8.601,5.295-15.217,14.558-20.516
			C141.05,314.521,148.991,312.537,156.271,312.537z"/>
	</g>
	<g>
		<path d="M200.6,326.43c-0.662-0.659-1.983-0.659-2.646,0.659l-14.558,30.44c-11.909,25.801-21.171,53.599-28.45,84.033
			c0,1.317,0,1.983,1.325,2.649l2.646-1.332c7.279-31.093,16.542-58.884,27.788-84.026l14.559-29.774L200.6,326.43z"/>
	</g>
	<g>
		<path d="M226.404,354.221c5.295,5.292,7.279,13.233,6.617,23.158c-0.659,1.325,0,2.644,1.324,2.644l1.983-1.978
			c1.325-11.256-1.321-20.516-7.938-26.467c-7.941-7.282-20.513-10.591-37.055-9.266c-17.204-9.267-33.083-10.584-46.316-4.633
			l-15.879,13.232c0,0.666,0,1.325,0.662,2.644c1.321,0.665,1.984,0.665,2.646-1.318l15.217-11.25
			c11.912-5.951,26.466-3.308,42.346,5.292l1.324,0.659l13.233-0.659C213.833,347.604,221.112,350.247,226.404,354.221z"/>
	</g>
	<g>
		<path d="M210.525,376.714c3.971,3.974,5.295,10.591,3.971,18.531c0,1.984,0,1.984,1.983,1.984l1.987-1.325
			c1.321-9.266-0.663-17.2-5.296-21.833c-5.954-6.617-16.541-9.926-31.758-9.26l-35.729-0.666c-4.633,3.309-8.604,6.617-11.25,11.25
			c0,1.318,0,1.983,1.324,2.649c0.663,0.659,1.322,0,1.984-0.666c2.646-3.974,5.955-7.282,10.587-9.925
			c8.6-5.292,19.85-4.633,31.759,1.325h1.987C195.308,368.12,205.233,370.763,210.525,376.714z"/>
	</g>
	<g>
		<path d="M193.321,391.278c-5.954-3.309-12.571-4.64-21.171-3.309c-10.587-3.974-19.85-3.309-27.792,2.643
			c-3.971,2.643-7.279,5.951-9.263,9.925c-0.662,0.666,0,1.984,0.662,2.644c1.322,0.665,1.984,0,2.646-1.318
			c1.324-2.649,3.97-5.299,8.6-7.941c6.617-5.292,14.558-5.951,24.483-1.983h1.325l5.955-0.659c4.629,0,8.601,1.318,11.908,3.309
			c5.955,3.967,9.925,11.243,11.25,21.168l1.983,1.324c1.325,0,1.987,0,1.325-1.983
			C203.908,403.846,199.938,396.563,193.321,391.278z"/>
	</g>
	<g>
		<path d="M180.088,420.388c-1.984-3.309-5.292-5.951-9.925-6.617l-5.954-1.324c-8.601-1.983-14.555,0.659-19.188,5.299
			c-2.646,2.643-3.97,5.951-4.633,8.594c-0.659,1.331,0,1.99,1.325,1.99l1.984-1.325c0.662-1.983,1.987-3.974,3.971-6.616
			c3.97-3.974,9.262-5.292,16.542-3.974l4.633,0.665c3.309,1.325,5.955,3.309,8.601,5.292c3.308,3.968,3.971,9.266,2.646,16.542
			c0,1.324,0.662,1.99,1.325,1.99c1.983,0.659,2.646,0,2.646-1.331C185.383,430.979,184.059,424.361,180.088,420.388z"/>
	</g>
</g>
</svg>
