<?xml version="1.0" encoding="utf-8"?>
<!-- Generator: Adobe Illustrator 13.0.0, SVG Export Plug-In . SVG Version: 6.00 Build 14948)  -->
<!DOCTYPE svg PUBLIC "-//W3C//DTD SVG 1.1//EN" "http://www.w3.org/Graphics/SVG/1.1/DTD/svg11.dtd">
<svg version="1.1" id="圖層_1" xmlns="http://www.w3.org/2000/svg" xmlns:xlink="http://www.w3.org/1999/xlink" x="0px" y="0px"
	 width="372px" height="587px" viewBox="0 0 372 587" enable-background="new 0 0 372 587" xml:space="preserve">
<path id="PATH77" fill="none" stroke="#000000" stroke-width="3" stroke-miterlimit="100" d="M370.59,585.26H3.92V2.74h366.67
	V585.26L370.59,585.26z"/>
<g>
	<g>
		<path fill="#D96038" d="M34.923,35.631l20.304,4.732c-2.029-6.768-4.058-13.537-6.768-18.95C42.368,9.906,35.6,8.558,28.154,16
			C21.387,24.117,24.097,30.211,34.923,35.631z"/>
	</g>
	<g>
		<path d="M57.938,39.689l-5.416-14.891C49.137,16,45.074,10.58,39.662,9.232c-4.739-1.355-8.797,0.674-12.859,5.413
			c-4.063,4.739-5.416,8.797-4.063,13.536c2.707,7.449,13.537,12.182,31.813,14.891h2.707L57.938,39.689z M27.48,26.152v-1.354
			c0-2.029,0.674-4.739,3.385-6.769c2.706-3.384,5.412-4.064,7.441-3.384c5.416,1.355,9.478,8.797,12.862,22.333
			C37.633,34.95,29.51,31.565,27.48,26.152z"/>
	</g>
	<g>
		<path d="M53.197,39.015c-1.354,1.349-1.354,2.703,0,4.058l23.689,21.653l4.062-0.674c1.352-0.674,1.352-2.03,0-3.384L57.26,38.333
			L53.197,39.015z"/>
	</g>
	<g>
		<path fill="#858585" d="M306.327,49.841c4.062-10.152,2.032-20.305-7.446-30.457c-11.503,8.797-14.887,18.949-11.503,29.102
			c2.028,4.739,5.413,9.472,8.797,12.856L306.327,49.841z"/>
	</g>
	<g>
		<path d="M300.236,17.349l-3.385-0.674c-8.798,8.124-13.536,16.247-13.536,24.363c0,8.804,3.384,15.572,10.83,22.34h3.384
			c8.12-4.739,12.182-12.188,12.859-20.305C311.744,34.269,308.359,26.152,300.236,17.349z M296.175,57.284
			c-4.735-5.414-6.769-10.827-6.769-16.247c0-6.087,2.707-11.5,8.801-17.594c5.413,6.094,7.442,11.507,7.442,16.246v2.029
			C304.299,48.486,301.592,53.225,296.175,57.284z"/>
	</g>
	<g>
		<path fill="#858585" d="M317.834,66.761c11.504-1.354,18.272-8.804,22.335-23.014c-13.538-4.059-23.689-2.03-31.135,6.094
			l-6.091,14.21L317.834,66.761z"/>
	</g>
	<g>
		<path d="M342.2,45.103c0.673-2.03,0-3.385-1.355-3.385l-27.072,1.355c-4.738,2.71-8.798,6.769-10.829,12.182l-2.707,8.123
			c0,2.029,0,2.71,1.355,3.384l8.119,2.03c6.091,1.355,11.507,0,16.92-2.03C334.077,63.377,339.49,55.935,342.2,45.103z
			 M316.479,47.131l19.627-0.674c-2.707,7.442-6.769,12.862-12.183,15.565h-17.597C307.682,55.254,311.065,50.516,316.479,47.131z"
			/>
	</g>
	<g>
		<path fill="#858585" d="M177.054,29.537c2.034,10.827,10.153,17.594,24.367,20.305c2.706-14.21,0-23.689-8.798-30.457
			l-14.893-5.419C176.381,19.384,175.703,24.117,177.054,29.537z"/>
	</g>
	<g>
		<path d="M186.532,13.291l-8.802-2.029l-2.027,2.029l-2.033,8.123c0,6.768,0.678,11.507,3.384,16.92
			c4.738,6.769,12.186,11.508,23.688,13.537l2.711-2.029c2.706-10.827,2.028-20.305-3.385-27.073
			C197.358,18.71,192.623,16,186.532,13.291z M199.391,39.689l-0.677,6.094c-8.123-2.71-14.215-6.094-16.922-10.833
			c-1.354-3.385-2.704-6.769-2.704-10.833c0-2.703,0-5.406,1.35-7.442c6.77,1.355,12.186,4.739,15.569,9.478
			C198.037,29.537,199.391,34.269,199.391,39.689z"/>
	</g>
	<g>
		<path fill="#858585" d="M26.125,70.82c7.446,12.862,16.243,17.595,27.75,15.572c5.414-0.681,10.152-3.384,13.537-6.769
			C65.38,74.878,61.996,70.82,57.26,68.11C48.459,62.022,38.307,63.377,26.125,70.82z"/>
	</g>
	<g>
		<path d="M24.771,68.791c-2.03,1.355-2.03,2.029-0.674,3.384c6.091,10.152,13.536,15.565,20.978,16.92
			c8.801,1.355,16.922-1.355,24.367-7.449c1.354-1.349,1.354-2.023,0-2.704c-3.385-8.797-10.152-14.217-18.272-16.921
			C42.368,59.994,34.248,62.022,24.771,68.791z M49.814,67.436c6.09,1.355,10.829,5.42,14.213,11.507
			c-6.09,4.065-12.184,5.413-17.598,4.739c-5.413-0.674-10.83-4.739-15.564-11.507C37.633,67.436,44.4,66.088,49.814,67.436z"/>
	</g>
	<g>
		<path fill="#D96038" d="M55.227,237.314l0.678-20.305l-17.598,10.833c-10.152,8.123-10.152,14.891-0.674,20.304
			C47.107,252.886,52.521,249.502,55.227,237.314z"/>
	</g>
	<g>
		<path d="M54.553,214.306l-13.536,8.124c-8.123,6.094-12.862,11.5-12.862,16.246c0,4.732,2.711,8.791,8.123,12.175l14.214,0.68
			c4.062-3.384,6.769-9.472,7.446-18.95l0.674-15.572l-1.352-2.703H54.553z M52.521,221.075l0.676,3.384
			c0,12.181-2.028,20.305-6.09,22.333l-8.123-1.348c-4.062-1.361-5.413-4.065-5.413-6.094v-0.674
			C34.248,233.93,40.34,227.843,52.521,221.075z"/>
	</g>
	<g>
		<path d="M69.441,187.234l-16.244,28.427c-0.676,1.348-0.676,2.71,1.355,3.384l3.385-0.674l16.242-27.754
			c0.678-2.028,0.678-3.383-1.354-4.064C71.473,185.205,70.118,185.879,69.441,187.234z"/>
	</g>
	<g>
		<path fill="#D96038" d="M319.863,114.139c-2.029,6.094-2.706,12.862-2.029,20.304l17.598-10.152
			c9.476-8.123,10.827-14.892,2.03-20.305C327.986,97.892,322.569,101.277,319.863,114.139z"/>
	</g>
	<g>
		<path d="M319.186,136.473l14.214-6.768c7.445-5.414,12.185-11.508,12.859-16.24c0.677-4.065-2.03-8.13-7.442-12.188
			c-4.739-3.385-9.479-4.059-14.214-1.349c-6.091,4.058-9.475,14.885-9.475,34.515l1.352,2.03H319.186z M327.309,104.66
			c2.706-0.674,5.413-0.674,8.798,1.356c3.384,2.028,4.738,4.738,4.738,6.768l0,0c-0.676,5.413-6.768,11.507-20.304,16.92
			C320.541,116.168,323.248,107.371,327.309,104.66z"/>
	</g>
	<g>
		<path d="M315.802,133.088l-17.595,27.073c-1.355,0.68-0.678,2.703,0.674,3.384c1.355,1.354,3.384,0.68,4.063-0.681l17.598-27.073
			c0.677-1.349,0-2.703-1.355-4.058L315.802,133.088z"/>
	</g>
	<g>
		<path fill="#D96038" d="M336.784,232.582l-17.599-8.804l2.032,20.305c3.385,11.514,9.476,14.897,18.272,8.804
			C347.614,246.792,347.614,240.024,336.784,232.582z"/>
	</g>
	<g>
		<path d="M317.157,221.075c-0.678,0.68-0.678,1.355-0.678,2.703c0,18.282,3.384,29.783,10.829,33.841
			c4.062,1.361,8.798,0.681,13.536-2.703c5.414-3.384,7.446-7.449,6.77-12.182c-0.679-8.123-10.152-15.572-27.751-21.659H317.157z
			 M338.138,250.851c-3.383,2.035-6.089,2.709-8.123,1.361c-5.412-2.036-7.445-10.833-8.119-24.369
			c12.859,5.413,19.628,10.152,20.978,15.565v0.674L338.138,250.851z"/>
	</g>
	<g>
		<path d="M298.881,194.683c-2.029,0.673-2.029,2.703-1.352,4.058l18.95,26.398h4.062c1.354-0.681,1.354-1.362,0-3.385
			l-18.276-26.398C300.914,194.002,300.236,194.002,298.881,194.683z"/>
	</g>
	<g>
		<path fill="#858585" d="M183.822,288.756c6.094-12.181,6.094-23.007-1.352-30.457l-12.185-9.471l-4.736,14.885
			C164.195,275.22,170.963,283.343,183.822,288.756z"/>
	</g>
	<g>
		<path d="M189.239,263.038c-2.032-4.739-5.417-8.804-10.83-12.187l-7.446-4.732c-1.352,0-2.028,0-3.384,1.348l-3.384,7.449
			c-2.029,6.087-2.029,11.507-0.678,16.92c2.032,8.124,8.801,14.892,18.953,19.624c1.352,0.681,2.028,0.681,3.385-1.349
			C191.268,279.959,192.623,271.155,189.239,263.038z M170.963,252.212c6.768,3.384,11.508,8.117,13.536,12.856l1.356,7.449
			l-3.385,12.855c-8.123-4.739-12.185-9.471-14.215-14.891l-0.677-5.413C167.579,261.683,168.935,257.619,170.963,252.212z"/>
	</g>
	<g>
		<path fill="#858585" d="M327.309,297.554c0.678-14.21-3.385-23.015-12.858-28.421l-14.892-3.384l0.678,15.559
			C303.62,292.141,313.095,296.879,327.309,297.554z"/>
	</g>
	<g>
		<path d="M322.569,271.835c-4.058-4.065-8.797-6.768-14.888-7.449l-8.123-1.349c-2.029,0-2.707,1.349-2.707,2.03l-0.677,9.471
			c0.677,5.42,2.706,10.833,6.09,14.897c4.739,6.769,13.537,10.152,25.044,10.827c1.355,0,2.706-0.675,2.706-2.036
			C330.693,286.053,327.986,277.923,322.569,271.835z M301.592,271.835v-3.384c7.442,0,12.181,2.704,16.92,6.768
			c4.058,4.065,6.091,10.152,6.091,17.602v2.022c-8.801-1.349-14.892-4.058-18.275-8.791
			C302.943,282.668,301.592,277.923,301.592,271.835z"/>
	</g>
	<g>
		<path fill="#FFCDDE" d="M286.022,45.783l-9.475,1.348l-8.798-6.768l-8.122,12.862l-3.385,6.769h-18.276l0.679,10.152l-8.798,5.413
			c2.707,4.739,8.119,10.152,15.566,15.565c-2.707,8.123-3.385,14.892-2.707,22.34l10.152,0.674l4.738,9.478
			c7.443-0.681,13.537-3.384,18.95-7.449c3.384,4.739,9.475,8.123,17.598,10.152l4.062-10.152l10.152-2.029l-1.355-11.507
			l-3.384-6.768l13.537-10.152l-6.769-8.123l2.706-8.797c-5.413-2.703-10.151-4.065-15.565-4.065l-5.416,0.681
			C292.113,57.284,290.085,50.516,286.022,45.783z"/>
	</g>
	<g>
		<path d="M294.823,61.342c-0.678-4.733-1.355-8.117-4.063-12.856l-2.707-4.738l-2.709-1.349l-8.12,1.349l-7.444-5.414h-4.063
			c-4.062,4.739-8.12,10.152-11.503,17.602l-16.921,0.674c-2.033,0-2.71,1.349-2.71,3.385l0,0l0.677,8.797l-6.768,4.739
			c-0.678,0-2.029,1.349-2.029,2.029l1.352,2.029c2.032,4.739,6.769,9.478,14.214,14.891c-2.029,6.769-2.707,12.181-2.707,18.275
			v3.384c0,2.029,0.678,2.71,3.385,2.71l7.445,0.674l4.735,7.442c0.678,1.355,1.355,2.036,3.384,2.036
			c5.417-0.681,11.509-2.71,18.276-6.768c4.062,4.058,10.151,7.442,16.92,9.472c2.029,0,2.707-0.681,3.384-2.029l3.385-8.804
			l8.798-1.348l2.71-3.384v-2.709l-3.385-14.211l11.504-9.478l0.678-2.029l-0.678-2.029l-6.091-6.768l2.707-8.123l0,0l-2.707-3.384
			C307.682,62.022,300.914,60.667,294.823,61.342z M288.729,64.052v1.355l1.355,2.029l2.706,0.674h4.061l12.183,2.036l-2.03,6.768
			v0.674l0.678,2.71l4.736,5.413l-10.153,6.768l-2.028,3.384l0.678,1.354c2.706,4.733,4.061,9.479,4.061,13.537l-7.445,2.03
			c-1.354,0-2.032,0.681-2.032,1.354l-3.384,7.442c-6.091-2.029-10.152-4.058-12.182-7.442l-2.707-1.354h-2.032
			c-5.412,3.384-10.151,6.087-15.564,6.768l-4.063-6.768c-0.678-1.355-2.029-2.03-2.706-2.03h-6.769
			c0-6.768,0.678-12.862,2.707-18.275v-1.354l-1.353-2.029l-12.185-12.181l5.417-4.059l1.352-2.709l0,0l-0.678-7.443l14.892,0.674
			l3.385-2.71l2.706-5.413l6.091-10.152l6.768,4.739l2.032,0.674l6.77-0.674C286.699,53.225,288.729,58.639,288.729,64.052z"/>
	</g>
	<g>
		<path fill="#FFCDDE" d="M160.811,55.935l-10.151-2.71c-3.384,6.094-4.062,13.536-4.062,20.979l-18.272,6.769l5.413,9.478
			l-6.09,8.797c4.062,3.384,10.152,6.087,19.627,8.797c0,8.124,1.354,15.572,4.738,21.66l10.152-2.029l8.12,6.768
			c5.417-3.383,10.829-8.123,14.213-14.21c4.74,3.384,11.508,4.058,20.305,3.384l0.678-10.833l8.798-5.413l-6.091-10.153
			l-4.735-5.419l8.798-14.211l-8.798-4.732l-1.356-9.478l-14.89,1.349l-6.092,2.035c-2.027-4.058-4.062-8.123-7.445-11.507
			l-4.735-3.384L160.811,55.935z"/>
	</g>
	<g>
		<path d="M205.481,62.703l-3.385-2.709l-19.626,2.709l-7.446-10.833l-4.738-3.384h-2.707l-6.769,4.065l-10.151-2.71
			c-2.029,0-3.384,0-3.384,2.029c-2.029,4.739-3.384,11.507-4.063,20.305l-16.243,6.087c-0.677,0.681-2.028,2.036-2.028,2.711
			l0.678,1.354l4.057,8.123l-4.734,6.768l-0.678,2.03l0.678,2.029c4.063,3.383,10.152,6.094,18.95,9.478
			c0.677,7.442,2.706,14.211,4.738,20.305c1.352,2.029,2.029,2.709,4.736,2.029l7.444-2.029l6.769,5.413l3.384,0.68
			c6.768-2.71,11.508-7.448,14.893-12.862l19.626,2.71l2.707-3.384l0.678-9.478l6.769-3.384l2.028-3.383v-0.675
			c-1.353-4.065-4.735-9.479-9.475-15.572l7.446-12.182v-1.355l-2.029-2.709l-7.446-4.059L205.481,62.703z M160.135,59.319
			l2.709-0.681l6.091-3.384c4.062,3.384,7.446,8.123,8.796,13.537l2.707,1.355h2.711l4.736-2.036l11.506-1.349l0.678,6.769
			l1.353,2.029l6.09,3.384l-6.769,10.833l-0.674,2.022l1.353,2.036l8.123,12.182l-6.091,3.383c-1.356,1.355-2.032,2.03-2.032,3.385
			v8.123c-6.77,0-12.182-1.355-14.214-3.384l-2.708-0.674l-14.213,12.856l-6.091-5.414h-3.385l-6.768,2.029
			c-2.029-5.413-3.384-12.182-3.384-18.276l-2.706-3.384c-7.447-2.029-12.182-4.058-15.566-6.768l4.058-5.413l0.679-2.029
			l-0.679-1.355l-2.706-6.087c4.74-2.71,8.801-4.065,13.537-5.42c1.354,0,2.706-1.348,2.706-3.384c0-6.094,0.678-12.182,2.032-16.92
			L160.135,59.319z"/>
	</g>
	<g>
		<path fill="#FFCDDE" d="M215.635,194.683c-3.384-3.385-7.446-6.769-11.508-8.804l-6.09-2.029
			c3.384-6.769,3.384-13.537,1.354-20.304l-8.8-2.029l-6.092-9.479c-3.384,2.036-7.445,4.739-12.181,8.124l-4.739,5.413
			c-2.706-2.029-6.769-3.384-10.829-5.413l-6.769-2.029l-2.706,10.152l-10.152,2.029c0,5.413,3.383,11.507,8.123,20.304
			c-5.417,6.769-8.802,12.856-11.508,19.624l9.475,4.065l0.679,10.833c6.768,2.022,13.536,2.022,20.304,0
			c1.354,6.087,6.091,10.826,12.858,16.239l7.445-8.123l10.152,2.036c2.707-4.065,3.386-10.152,3.386-18.283l14.891-4.732
			l-2.707-8.804L215.635,194.683z"/>
	</g>
	<g>
		<path d="M133.738,170.313v0.681c0.679,5.406,3.385,11.5,6.768,19.623c-4.062,6.088-7.444,12.182-10.151,18.276v1.348
			c0,1.362,1.355,2.036,2.032,3.385l7.442,3.383l0.677,8.13c0,2.022,1.355,2.703,2.707,3.384l18.953,0.674
			c2.707,5.414,6.769,10.152,12.858,14.885l4.063-0.674l6.768-6.094l8.119,1.362c2.032,0,2.71,0,3.384-1.362
			c2.032-4.058,4.063-9.471,4.063-16.92v-0.674l13.535-4.059l1.354-3.384v-0.674l-2.031-7.449l4.738-6.768v-2.703v-2.036
			c-4.738-5.413-10.151-8.797-16.921-11.5l2.03-9.479l-1.352-8.804c-0.679-1.348-1.354-2.023-2.707-2.703l-7.445-1.355l-4.738-8.116
			c-1.353-2.036-2.707-2.71-4.063-1.362l-16.92,11.514l-16.243-6.093c-2.029,0-3.384,0.674-4.062,2.71l-2.706,8.116l-7.447,2.036
			C134.417,167.61,133.738,168.958,133.738,170.313z M206.837,203.474l2.029,7.449l-11.508,2.704c-2.028,0-2.707,0.68-2.707,3.383
			v3.384l-2.028,10.833l-7.445-0.681l-2.707,0.681l-5.417,5.413c-5.413-4.058-8.119-8.116-9.475-12.181l-0.677-2.029l-2.707-0.675
			c-6.091,1.349-11.504,1.349-16.92,0l-0.678-7.449l-2.706-2.703l-5.413-3.384c2.027-4.745,5.413-10.152,8.797-14.897l1.354-2.704
			l-0.677-2.028c-2.707-4.739-5.414-9.478-7.447-14.891l6.77-2.03l2.706-2.036l2.032-6.768l13.536,5.42
			c2.029,1.348,3.385,1.348,4.062-0.674l4.736-4.064c3.383-2.704,6.09-5.414,9.475-6.769l4.063,6.769l2.031,1.354l6.769,2.029
			l0.674,4.739l-2.707,12.182v1.355l2.707,2.029l4.738,1.355c3.385,2.028,6.77,4.058,9.476,6.768l-4.062,5.413L206.837,203.474z"/>
	</g>
	<g>
		<path fill="#FFCDDE" d="M48.459,110.754c-1.352,6.769-2.029,15.566-0.675,24.363c-3.384,1.355-7.444,3.384-12.861,6.094
			l-6.091,4.058l6.768,9.479l-4.734,10.826c4.058,2.71,12.181,5.42,23.01,7.442c1.352,8.804,4.736,16.92,8.799,23.688l10.151-5.407
			l10.152,6.768c6.769-4.064,11.507-10.833,14.892-17.601c5.412,3.384,13.535,3.384,22.333,0l-1.352-12.181l9.475-6.768
			l-8.123-10.827l-6.091-5.42c3.385-4.732,6.091-10.827,7.445-16.921l-10.152-4.058l-3.383-10.152
			c-5.417,0-11.508,1.349-16.243,3.384l-6.095,4.058c-2.706-4.732-6.091-8.797-10.152-12.182l-6.09-3.383l-8.12,6.768
			L48.459,110.754z"/>
	</g>
	<g>
		<path d="M25.447,145.27l0.678,2.036l5.414,8.116l-4.059,8.124v2.029l0.674,2.71c4.063,2.029,11.508,5.414,23.015,7.442
			c1.353,8.124,4.735,15.572,8.798,22.34c1.354,2.022,2.707,2.022,4.061,1.349l8.798-4.059l8.801,5.413h3.384
			c4.736-3.383,9.475-8.797,14.889-16.239c6.09,2.022,12.857,2.022,21.658-0.681c1.353,0,2.03-1.355,2.03-3.384l0,0l-0.678-10.152
			l7.445-6.087l1.355-2.709v-1.355c-2.034-4.739-6.769-10.152-13.536-15.566l6.768-14.891v-1.356l-2.032-2.709l-9.475-3.383
			l-2.03-9.472c-0.677-2.03-1.354-2.03-3.383-2.03c-8.123,0-14.892,2.03-21.66,6.094l-10.152-10.833
			c-3.384-2.03-4.736-3.385-5.413-3.385l-3.384,0.681l-6.769,5.407l-11.507-1.348c-2.029,0-3.385,0-4.063,2.028
			c-0.674,5.414-1.352,11.508-1.352,16.24v7.449c-5.416,2.029-10.829,5.413-16.242,10.152
			C26.125,143.241,25.447,144.595,25.447,145.27z M51.844,114.139l8.8,2.029l2.706-1.355l6.092-4.732
			c6.09,2.704,10.151,6.768,12.858,12.855l2.71,2.03l2.707-0.674l4.735-2.71c4.062-2.029,8.801-3.384,13.536-4.058l2.033,8.116
			l2.028,2.036l6.769,3.384l-5.414,12.862l-0.677,1.348l1.354,2.71l11.505,12.182l-6.769,6.087l-1.352,2.036l0.674,0.674
			l0.678,8.804l-17.598-0.681h-2.707l-2.029,1.355c-2.706,6.094-6.768,11.5-11.507,15.565l-8.12-5.413h-3.385l-7.445,3.384
			c-3.384-6.768-5.416-12.862-6.768-20.305l-3.385-2.036l-18.952-6.087l3.384-6.769l0.678-2.029l-0.678-1.355l-4.735-6.768
			l14.888-8.123l2.71-3.384v-0.675l-0.678-8.804L51.844,114.139z"/>
	</g>
	<g>
		<path d="M78.916,138.501c-4.059,0-7.443,1.355-9.475,4.059c-3.385,2.709-4.062,5.419-4.062,9.478c0,3.384,0.677,7.442,4.062,9.479
			c2.707,2.709,5.416,4.058,9.475,4.058c3.384,0,6.768-1.349,9.479-4.058c2.029-2.036,3.384-6.094,3.384-9.479
			c0-4.058-1.354-6.768-3.384-9.478C85.684,139.856,82.3,138.501,78.916,138.501z M72.825,146.625
			c2.032-2.029,3.384-2.029,6.091-2.029c2.032,0,4.062,0,5.416,2.029c1.352,1.355,2.029,3.384,2.029,5.413l-2.029,5.42
			c-1.354,2.022-3.384,2.703-5.416,2.703c-2.707,0-4.059-0.681-6.091-2.703c-1.353-1.362-2.029-2.71-2.029-5.42
			C70.796,150.009,71.473,147.979,72.825,146.625z"/>
	</g>
	<g>
		<path d="M72.825,161.516L72.148,176.4l2.031,2.71l3.385-2.71l1.352-14.884c0-1.355-0.674-2.036-2.707-2.71
			C74.18,158.806,72.825,160.161,72.825,161.516z"/>
	</g>
	<g>
		<path d="M87.717,154.748c-1.355,2.029-1.355,2.71,0.678,3.384l14.21,8.117c1.354,0.681,2.71,0.681,3.384-1.349
			c0.678-1.354,0.678-2.709-1.352-4.059l-13.536-7.449C89.746,152.712,88.395,153.393,87.717,154.748z"/>
	</g>
	<g>
		<path d="M64.027,150.009l-12.184,4.064c-1.353,0.675-2.707,1.349-1.353,3.385c0,2.022,1.353,2.022,3.384,2.022l11.505-4.058
			c2.032-0.674,2.71-2.029,2.032-3.384C66.734,150.009,65.38,150.009,64.027,150.009z"/>
	</g>
	<g>
		<path d="M64.705,127.675c-2.031,0.673-2.031,2.029-2.031,4.058l4.738,12.188c0.678,1.348,2.029,2.022,3.384,1.348
			c2.029-0.674,2.029-1.348,2.029-3.384l-4.735-12.181C68.09,127.675,66.057,127.675,64.705,127.675z"/>
	</g>
	<g>
		<path d="M95.162,135.118c-2.032,2.71-5.416,5.419-9.479,6.768c-1.352,1.355-2.706,2.709-1.352,4.058
			c0.678,2.036,2.029,2.036,3.385,1.362c4.735-2.71,8.797-5.42,12.182-8.804c0.677-1.349,0-2.71-0.678-4.059L95.162,135.118z"/>
	</g>
	<g>
		<path fill="#FFCDDE" d="M304.299,139.856l-0.679-6.087l-11.507,1.349l-8.119-7.442c-4.739,2.709-8.802,6.768-12.186,11.5
			l-3.384,6.094c-4.736-3.384-9.475-4.732-14.889-5.413h-7.445l-3.384,9.471l-11.507,4.746c1.354,6.768,5.416,14.211,10.829,22.327
			l-7.445,10.833l-3.384,6.768l10.829,4.739l0.678,12.181l23.688-5.414c5.414,6.769,12.183,12.182,19.628,15.566l6.091-8.797
			l12.186,0.674c3.383-7.442,4.735-14.885,3.383-22.334c6.769-0.68,13.536-4.064,20.305-10.833l-7.445-10.152l4.738-10.827
			c-2.031-2.029-6.094-4.058-12.185-5.413l-7.445-1.355L304.299,139.856z"/>
	</g>
	<g>
		<path d="M286.699,124.965l-4.062-0.674c-6.767,4.058-12.181,10.152-16.243,16.92c-4.061-2.71-8.797-3.384-13.535-4.739h-6.769
			l-2.706,2.029L240,146.625l-10.152,4.739c-1.354,0-2.032,0.674-2.032,2.709v0.675c1.355,6.093,4.739,13.536,10.151,21.652
			c-3.383,4.065-6.767,9.479-9.474,16.247l-0.678,1.355c0,1.354,0.678,2.703,2.032,3.384l8.798,4.064l0.677,9.472
			c0,2.029,0.678,3.384,2.707,3.384l23.012-4.739c5.416,6.094,12.184,11.507,18.953,14.891c2.028,0.681,3.384,0.681,4.735-0.681
			l4.738-8.117l10.152,0.674l3.384-2.029c3.385-6.768,4.74-13.537,4.74-20.985c6.09-2.023,12.18-5.407,18.949-11.501l0.677-2.036
			l-0.677-2.022l-6.091-8.13l3.384-9.471l0.678-1.355l-1.355-2.029c-3.385-3.384-10.151-6.087-18.274-8.123l-1.353-10.826
			l-0.678-4.739c-1.354-2.029-2.705-3.384-4.061-2.704l-9.476,1.349L286.699,124.965z M292.791,138.501l7.445-0.674l2.028,10.826
			v3.384c0,2.71,0.679,3.384,2.71,3.384c6.091,0.674,11.505,2.036,15.566,4.739l-2.707,8.123l-0.677,1.348l0.677,2.036l6.09,7.443
			c-6.767,4.739-11.506,7.442-16.242,8.123l-2.032,0.681l-1.351,2.703h0.676v2.704c0,5.42-1.354,10.833-3.383,16.246l-8.801-0.674
			l-3.385,1.348l-4.735,6.768l-16.246-13.536c-1.352-1.349-2.03-2.023-3.384-1.349l-19.627,5.414v-8.797l-2.707-2.71l-6.769-4.058
			l8.798-14.21l0.678-1.362l-0.678-2.703c-4.736-5.414-7.442-11.507-9.476-17.602l8.801-4.059l2.029-1.348l2.707-7.449
			c6.09-0.681,11.507,1.354,17.597,4.739l3.386,0.674l2.028-2.029l2.71-5.413l9.476-9.478l6.091,6.094L292.791,138.501z"/>
	</g>
	<g>
		<path d="M289.406,183.85c2.033-2.703,3.385-6.087,3.385-9.471c0-4.065-1.352-6.769-3.385-9.479
			c-2.707-2.036-6.091-4.059-9.475-4.059c-4.061,0-6.768,2.023-10.151,4.059c-2.03,2.71-3.386,5.413-3.386,9.479
			c0,3.384,1.355,6.768,3.386,9.471c3.384,2.703,6.091,4.065,10.151,4.065C283.315,187.915,286.699,186.553,289.406,183.85z
			 M273.841,168.958c2.03-2.029,3.384-2.029,6.091-2.029c2.029,0,3.384,0,5.413,2.029c1.354,1.354,2.033,2.709,2.033,5.42
			l-2.033,6.087c-2.029,1.355-3.384,2.029-5.413,2.029c-2.707,0-4.061-0.674-6.091-2.029c-1.355-2.029-2.032-3.384-2.032-6.087
			C271.809,171.668,272.485,170.313,273.841,168.958z"/>
	</g>
	<g>
		<path d="M279.255,182.495c-2.03,1.355-2.707,2.036-2.03,3.384l6.091,13.536c0.679,1.354,2.029,2.036,3.384,1.354
			c2.03-0.681,2.707-2.028,2.03-3.383l-6.092-13.537C281.961,181.82,280.609,181.146,279.255,182.495z"/>
	</g>
	<g>
		<path d="M263.688,181.146l-7.445,8.791c-2.028,0.68-2.707,1.361-1.355,3.384c0.678,1.362,2.033,2.035,4.063,0.681l9.475-9.472
			c0.677-1.361,0.677-2.71-1.352-4.065L263.688,181.146z"/>
	</g>
	<g>
		<path d="M267.073,169.632l-9.476-8.791c-1.354-0.68-2.032-0.68-4.062,0l-0.677,2.704l0.677,1.354l10.152,8.798h3.385
			C269.102,171.668,269.102,170.313,267.073,169.632z"/>
	</g>
	<g>
		<path d="M283.315,152.038l-4.061,11.508c-1.353,1.354-1.353,2.703,0,3.384c1.354,0.681,3.383,0.681,4.061-0.681l6.091-12.856
			c0-2.029-0.677-3.384-2.707-3.384C285.345,150.009,283.994,150.009,283.315,152.038z"/>
	</g>
	<g>
		<path fill="#D96038" d="M133.738,433.591C75.531,421.416,32.894,409.228,5.144,396.366l0.678,90.695
			c27.75,12.863,71.065,24.363,129.272,35.877c73.095,14.21,151.605,23.008,235.531,26.393v-90.017
			C286.699,457.279,208.188,448.489,133.738,433.591z"/>
	</g>
	<g>
		<path fill="#9260C7" d="M5.144,396.366c27.75,12.861,70.388,25.05,128.595,37.225c74.45,14.898,152.961,23.688,236.887,25.724
			V349.67c-79.864,4.738-164.466-3.385-254.484-25.718c-45.345-11.508-82.569-22.341-111.674-34.516L5.144,396.366z"/>
	</g>
	<g>
		<path fill="#858585" d="M5.821,487.062v100.175h364.804v-37.905c-83.926-3.385-162.437-12.183-235.531-26.393
			C76.887,511.425,33.571,499.925,5.821,487.062z"/>
	</g>
	<g>
		<path d="M2.437,286.727c-0.677,1.349-1.354,2.029-0.677,2.709l1.354,297.8c0,2.022,1.353,2.703,2.707,2.703h364.804
			c1.354,0,2.707-0.681,2.707-2.703V349.67l-1.353-2.704l-1.354-0.681c-78.512,5.413-163.114-2.703-252.451-24.369
			c-45.349-11.5-83.251-23.008-113.03-35.189H2.437z M367.919,352.373v232.153H9.205L6.498,293.495
			c35.87,13.536,77.156,25.719,125.212,36.551C215.635,349.67,294.146,356.438,367.919,352.373z"/>
	</g>
	<g>
		<path fill="#FFF000" d="M61.996,284.017l-25.041-8.116v43.313l25.041,7.447V284.017z"/>
	</g>
	<g>
		<path d="M34.923,273.19c0,1.349-0.675,2.029-0.675,2.71v43.313c0,1.354,0.675,2.028,2.029,2.702l25.044,7.449l2.706-0.681
			l0.678-2.023v-42.644l-2.031-2.709l-25.041-8.117H34.923z M39.662,279.285l19.627,6.087v37.226l-19.627-6.088V279.285z"/>
	</g>
	<g>
		<path fill="#FFF000" d="M131.031,302.293l-25.043-7.449v43.319l25.043,6.094V302.293z"/>
	</g>
	<g>
		<path d="M104.637,292.141l-1.355,2.703v43.319c0,1.354,0.678,2.035,1.355,2.035l25.718,6.768l2.707-0.681l0.677-2.028v-41.964
			l-2.028-2.704l-25.044-7.448H104.637z M108.698,298.228l19.627,6.094v36.552l-19.627-4.74V298.228z"/>
	</g>
	<g>
		<path fill="#FFF000" d="M174.348,353.054l26.395,6.087l-0.674-41.957l-25.044-8.123L174.348,353.054z"/>
	</g>
	<g>
		<path d="M173.67,306.357l-1.352,2.703v43.993c0,1.354,0,2.703,2.029,2.703l25.043,5.421l2.706-0.675l0.679-1.362v-41.957
			l-2.033-2.71l-25.039-8.116H173.67z M197.358,319.214l0.679,36.543l-20.307-5.405v-37.907L197.358,319.214z"/>
	</g>
	<g>
		<path fill="#FFF000" d="M244.062,318.532l-0.677,42.646l26.396,2.709l-0.679-41.289L244.062,318.532z"/>
	</g>
	<g>
		<path d="M244.736,315.828h-2.029l-1.355,2.704v42.646c0,2.028,0.678,2.709,2.033,2.709l26.396,2.704l2.028-0.681l0.677-2.023
			l-0.677-41.289l-2.028-3.384L244.736,315.828z M246.769,321.242l19.626,3.384l0.679,36.552l-20.982-2.037L246.769,321.242z"/>
	</g>
	<g>
		<path fill="#FFF000" d="M313.095,325.301l-0.677,40.609l26.398,0.681l-0.679-39.255L313.095,325.301z"/>
	</g>
	<g>
		<path d="M340.845,369.294l0.679-2.703l-0.679-39.255c0-1.355-0.676-2.035-2.707-2.71l-24.365-2.028h-2.707l-0.677,2.703
			l-0.678,40.609c0,1.36,0.678,2.035,2.707,2.035l25.72,2.028L340.845,369.294z M315.802,328.011l19.63,2.035l0.675,33.841
			l-20.305-0.681V328.011z"/>
	</g>
	<g>
		<path fill="#858585" d="M4.467,269.807c29.104,12.181,66.329,23.688,111.674,35.188c90.019,21.666,174.62,30.458,254.484,25.051
			V316.51c-79.864,5.406-164.466-3.384-254.484-25.05c-45.345-11.5-82.569-23.008-111.674-34.516V269.807z"/>
	</g>
	<g>
		<path d="M371.979,314.474l-1.354-0.674c-78.512,5.414-163.114-3.384-252.451-25.044c-45.349-10.833-83.251-22.333-113.03-34.521
			l-2.707,0.681c-0.677,0-0.677,0.681-0.677,2.028v12.863l0.677,2.71c30.457,12.855,69.036,23.688,114.382,35.189
			c90.019,21.659,175.295,29.781,253.807,25.043c1.354,0,2.707-0.681,2.707-2.703V316.51L371.979,314.474z M6.498,268.452v-7.449
			c36.548,14.217,78.512,25.724,125.212,36.551c83.925,18.956,162.436,25.724,236.209,21.66v8.122
			c-75.128,4.732-155.668-3.384-240.949-22.341C80.948,293.495,41.017,281.987,6.498,268.452z"/>
	</g>
	<g>
		<path d="M380.777,462.024c1.354,0,2.707-0.68,2.707-2.71c0-1.354-1.353-2.035-2.707-2.035
			c-96.106-2.021-189.51-13.536-280.202-36.544C55.227,409.228,18.68,397.729-8.393,386.214c-1.352-1.349-2.707,0-4.063,1.36
			c-0.674,2.023,0,2.704,2.033,3.386c27.072,12.174,63.619,23.688,109.643,34.515C190.591,448.489,283.994,460.664,380.777,462.024z
			"/>
	</g>
	<g>
		<path d="M386.193,552.714c2.029,0,2.707-0.68,2.707-2.028l-0.678-2.035l-1.354-1.35c-100.169-2.71-195.601-15.571-287.647-37.898
			c-46.699-11.514-83.248-22.341-109.643-33.167c-2.033-0.674-3.385,0-4.062,2.029c-0.677,1.355,0,2.703,2.028,3.385
			c27.073,10.832,63.624,21.659,110.324,33.159C190.591,537.148,286.699,550.012,386.193,552.714z"/>
	</g>
	<g>
		<path fill="#D96038" d="M279.932,217.69l-3.384-6.768l-10.83,3.384l-9.475-7.449l-11.507,10.152L240,222.43
			c-3.384-1.355-7.445-2.71-14.214-3.384l-8.123,1.348v11.514l-9.475,6.087c0.678,6.088,4.739,11.507,12.185,17.602
			c-4.063,5.407-7.445,10.152-8.801,16.239l9.476,4.739l2.032,11.501c9.475,0.68,16.92-1.349,23.011-5.407
			c3.384,8.117,8.124,13.537,14.892,16.92l8.798-5.419l12.181,2.709l3.384-15.571v-8.791c5.416-0.681,11.507-3.384,18.954-7.449
			l-4.74-10.833l6.091-9.471c-2.706-2.704-7.442-4.739-13.536-6.769l-8.798-3.383C283.315,229.198,281.961,223.778,279.932,217.69z"
			/>
	</g>
	<g>
		<path d="M286.699,231.907l-4.062-16.246l-2.706-6.768c-0.677-1.355-2.707-2.036-4.061-1.355l-9.477,2.703l-7.444-6.087h-4.063
			c-5.413,2.703-10.151,7.449-16.242,14.217l-13.537-2.036l-8.119,0.674c-1.354,0-2.71,0.681-2.71,3.384v10.152l-8.12,4.746
			l-1.355,2.703v1.355c0.678,5.414,4.74,11.501,10.831,16.921c-3.384,4.732-6.091,8.797-7.446,14.21v1.354l1.355,2.704l8.798,4.746
			l1.354,9.471c0,1.355,1.353,2.704,2.707,2.704c8.122,0.681,15.564-1.349,22.334-4.732c4.062,7.443,8.123,12.181,14.892,15.566
			h3.383l6.77-4.065l10.829,2.036c2.706,0.674,3.385,0,4.062-1.355c2.707-6.768,4.059-14.891,4.059-23.688l17.598-7.449l1.354-2.703
			v-2.03l-4.062-8.123l4.739-8.797l0.675-1.355l-1.353-2.704C303.62,238.676,296.852,235.292,286.699,231.907z M300.914,245.444
			l-4.063,6.768l-0.677,2.022v1.362l4.062,7.442l-15.565,6.094c-1.355,0.674-2.71,2.023-2.71,3.384v0.674
			c0,7.442-1.352,13.537-2.706,19.631l-9.475-1.362h-2.707l-6.769,4.065c-4.739-3.384-8.124-8.797-10.83-14.217l-2.706-2.023h-2.032
			c-5.414,3.384-11.505,5.406-18.95,5.406l-1.354-8.79l-2.029-2.036l-6.768-4.058c2.028-4.739,4.061-8.124,6.768-11.507l1.355-2.703
			l-1.355-2.71c-5.413-4.739-8.797-9.478-10.151-13.537l6.767-4.058l2.03-3.385v-8.804c8.123-0.674,14.213,0.674,16.919,2.709h2.711
			l2.029-1.354l4.062-4.739l9.475-8.797l7.445,6.087l2.706,0.681l8.798-3.384l4.739,20.986c0,2.022,0.678,2.703,2.706,2.703
			C290.085,240.698,296.175,242.734,300.914,245.444z"/>
	</g>
	<g>
		<path d="M266.395,244.083c-2.706-2.704-6.09-4.058-10.151-4.058c-3.384,0-6.769,1.354-8.798,4.058
			c-2.709,2.036-4.061,5.419-4.061,8.804c0,4.058,1.352,6.769,4.061,9.478c2.029,2.704,5.414,4.059,8.798,4.059
			c4.062,0,7.445-1.355,10.151-4.059c2.707-2.709,3.386-5.42,3.386-9.478C269.78,249.502,269.102,246.119,266.395,244.083z
			 M256.243,245.444c2.707,0,4.062,0.675,6.091,2.703c1.354,0.681,2.707,2.704,2.707,4.739c0,2.71-1.353,4.732-2.707,5.413
			c-2.029,2.029-3.384,2.704-6.091,2.704c-2.028,0-3.384-0.674-4.738-2.704c-2.03-0.681-2.707-2.703-2.707-5.413
			c0-2.035,0.677-4.058,2.707-4.739C252.859,246.119,254.215,245.444,256.243,245.444z"/>
	</g>
	<g>
		<path d="M259.628,228.523l-2.707,14.21c0,2.029,0.677,3.385,2.707,3.385c2.028,0.673,2.706,0,2.706-2.036l3.384-14.21
			l-0.677-2.029l-2.03-0.681C261.656,226.487,260.305,227.162,259.628,228.523z"/>
	</g>
	<g>
		<path d="M229.848,237.314c-0.677,1.362-0.677,2.71,1.353,4.065l12.861,8.797l4.059-0.674c0.678-1.355,0.678-2.71-1.352-4.058
			l-12.185-8.804L229.848,237.314z"/>
	</g>
	<g>
		<path d="M270.457,256.271l12.181-2.036c1.356,0,2.707-0.674,2.707-2.703s-0.674-2.703-2.707-3.384l-12.857,2.704
			c-2.03,0.68-2.707,2.035-2.707,3.383C268.425,255.596,269.78,256.271,270.457,256.271z"/>
	</g>
	<g>
		<path d="M263.011,260.329c-1.354,0.674-2.028,1.354-1.354,2.709l2.032,12.863c0.678,2.022,2.029,2.703,3.385,2.703
			c2.028-0.681,2.707-2.029,2.707-3.384l-3.386-12.855C266.395,261.003,265.041,259.655,263.011,260.329z"/>
	</g>
	<g>
		<path d="M246.091,256.944c-4.739,1.355-8.797,4.059-12.181,7.443c-1.355,0.681-1.355,2.036,0,4.065
			c1.351,0.681,2.706,0.681,4.057,0c2.711-3.384,6.095-5.414,10.153-6.769c1.354-0.68,2.032-2.028,1.354-3.384
			C249.475,256.271,248.12,255.596,246.091,256.944z"/>
	</g>
	<g>
		<path fill="#D96038" d="M103.281,187.915c-3.383,7.442-5.412,14.885-5.412,23.008c-3.385-0.681-8.123,0.681-13.537,4.065
			l-6.768,4.732l6.09,10.826l-4.738,10.152c3.384,4.065,10.152,6.768,18.953,8.13c-0.678,6.087,0,12.855,0.678,18.942l11.503-1.348
			l6.769,8.797c8.801-4.064,14.892-10.152,17.599-16.92c6.768,5.414,14.213,7.449,20.98,7.449l4.737-9.478l12.184-4.059
			c-1.355-4.065-2.707-9.478-5.416-14.898l-4.059-7.442l12.181-17.595l-10.151-5.42l0.677-11.5l-15.568,1.349l-8.797,1.361
			l-12.181-12.188l-6.095-4.732l-7.442,8.791L103.281,187.915z"/>
	</g>
	<g>
		<path d="M120.202,179.111l-6.091,7.442l-10.152-2.022c-1.354,0-2.706,0.674-3.384,2.022c-2.706,5.42-4.739,12.862-6.091,20.985
			c-3.384,0.681-8.123,2.703-12.858,5.413c-2.71,1.355-5.417,3.384-6.095,4.739l-1.352,2.029l0.678,2.035l4.735,8.791l-4.062,8.804
			v1.349l0.678,2.036c3.384,3.385,9.475,6.094,18.275,8.797v4.739c0,6.768,0,10.826,1.352,12.181c0,1.355,1.355,2.704,3.385,2.704
			l8.801-1.349l6.768,8.116l4.062,0.681c7.442-4.065,12.859-9.472,16.243-15.566c6.768,4.732,13.536,6.094,20.98,6.094l2.707-2.036
			l3.385-8.117l11.504-3.384l2.033-3.384v-0.681c-1.355-6.087-4.74-13.537-8.801-20.985l10.828-16.24l0.679-2.029l-1.355-2.036
			l-8.798-5.406l0.679-9.479c0-2.035-1.355-3.384-3.385-3.384l-23.011,2.71l-12.185-11.514l-5.413-4.732L120.202,179.111z
			 M87.039,230.546l-0.678-2.022l-4.735-7.449c6.769-4.739,12.181-6.769,16.243-6.769l2.029-0.68l1.354-2.704
			c0-6.768,2.028-13.536,4.735-18.95l8.801,1.349l3.385-1.349l5.413-6.094c6.768,4.738,11.507,9.478,14.892,14.891
			c1.351,0.681,2.027,1.355,3.383,0.681l20.305-3.384l-0.678,8.791l2.029,2.71l6.769,4.739l-9.476,13.537l-1.351,2.029l0.675,1.354
			l3.383,6.768l4.738,12.856l-9.475,2.035l-1.354,2.029l-3.385,6.768c-6.768,0-12.182-2.028-17.599-6.087l-2.706-0.681l-2.707,2.028
			l-2.706,4.739c-3.384,3.385-6.769,6.769-10.151,9.472l-5.418-6.769c-1.352-0.674-2.028-1.349-2.706-1.349l-8.797,0.675v-8.117
			v-6.094v-0.674c0-1.362-0.678-2.709-2.032-3.384c-6.769-0.681-12.859-3.384-16.243-6.094l3.384-7.442L87.039,230.546z"/>
	</g>
	<g>
		<path d="M126.293,214.987c-3.384,0-6.769,1.348-9.475,3.384c-2.707,2.703-4.063,6.087-4.063,9.471
			c0,4.064,1.355,7.449,4.063,10.152c2.706,2.704,6.091,3.384,9.475,3.384c4.062,0,6.769-0.681,8.801-3.384
			c3.385-3.383,4.735-6.087,4.735-10.152c0-3.384-1.351-6.768-4.735-9.471C133.062,216.335,130.354,214.987,126.293,214.987z
			 M120.202,222.43c2.032-1.355,3.385-2.036,6.091-2.036c2.032,0,4.062,0.681,5.417,2.036c2.028,2.029,2.028,3.383,2.028,5.413
			c0,2.703,0,4.064-2.028,6.087l-5.417,2.036c-2.706,0-4.059-0.674-6.091-2.036c-1.352-2.023-2.028-3.384-2.028-6.087
			C118.174,225.813,118.851,224.458,120.202,222.43z"/>
	</g>
	<g>
		<path d="M120.202,201.451c-2.028,0.674-2.028,2.704-2.028,4.058l5.413,13.537c0,2.029,1.354,2.709,3.383,2.029
			c1.355-0.681,1.355-2.029,1.355-3.384l-4.738-14.217C122.909,201.451,121.557,201.451,120.202,201.451z"/>
	</g>
	<g>
		<path d="M97.191,227.843l2.707,3.384l14.891,0.681c-1.354-0.681-2.033-0.681-1.354-2.709c0-1.355,0.677-2.71,2.706-2.71
			l-16.242-0.674C97.869,225.14,97.191,225.813,97.191,227.843z"/>
	</g>
	<g>
		<path d="M147.275,210.922l-9.475,8.123c-0.678,2.029-0.678,2.709,0,4.058l4.061,0.674l8.798-8.791c1.354-0.681,1.354-2.71,0-4.065
			H147.275z"/>
	</g>
	<g>
		<path d="M137.123,230.546c-1.352,0.681-1.352,2.036,0,4.065l9.475,9.471c0.678,0.681,2.032,0.681,3.384,0
			c2.032-1.349,2.032-2.704,0.678-4.058l-9.475-9.479C140.506,229.198,138.479,229.198,137.123,230.546z"/>
	</g>
	<g>
		<path d="M121.557,235.966l-3.383,4.732l-3.385,8.13c-0.678,2.023,0,3.384,1.352,3.384l3.384-1.361l3.385-7.443l2.032-3.384
			c1.352-1.349,1.352-2.71,0-4.059H121.557z"/>
	</g>
	<g>
		<path fill="#D96038" d="M166.902,114.813c-2.707,7.443-3.385,15.572-2.707,25.043c-3.385,0.681-6.768,2.029-12.182,5.413
			l-6.768,3.384l6.768,10.826l-6.091,10.152c4.736,2.71,12.858,5.42,23.012,7.449c1.352,9.472,4.062,16.921,8.119,23.688
			l10.831-3.383l9.474,6.768c6.769-4.739,11.508-10.152,14.893-16.92l23.01,0.681l-0.677-11.514l8.801-6.768
			c-0.678-3.384-3.385-6.768-7.446-11.5l-5.414-4.739c4.06-5.413,6.092-11.507,8.121-16.92l-10.152-4.739l-2.707-10.826
			c-6.091,0-11.507,0.674-16.92,3.384l-6.091,3.384c-2.033-4.74-5.417-9.479-10.152-12.862l-5.416-3.384l-8.119,6.094
			L166.902,114.813z"/>
	</g>
	<g>
		<path d="M167.579,111.429c-2.029,0-3.384,0.674-4.062,2.709c-1.352,5.413-2.707,12.182-2.707,20.304v3.385
			c-3.383,0.674-6.768,2.709-10.829,5.413l-6.09,3.384l-2.03,2.029l0.678,2.036l4.736,8.791l-4.063,8.13l-0.674,2.022l1.353,2.036
			c4.738,3.384,12.183,6.094,21.658,8.797c2.029,8.124,4.736,16.24,8.798,22.334c0.677,1.355,2.033,2.036,3.383,1.355l9.477-3.385
			l8.123,6.087c1.354,0.681,2.707,0.681,4.061,0c5.413-3.383,10.153-9.471,14.889-16.24l21.659,0.681l2.707-2.709l-0.679-10.827
			l8.124-6.094l0.678-2.036v-1.348c-1.354-4.739-5.417-10.152-11.508-16.247l6.769-14.21v-1.355L240,133.088l-8.8-3.384
			l-2.029-10.153c0-1.355-1.355-2.029-3.385-2.029c-7.444,0-14.891,2.029-21.659,5.413l-9.476-11.506
			c-3.384-2.03-5.412-3.385-6.09-3.385l-3.384,0.674l-6.769,5.42L167.579,111.429z M165.55,143.241
			c1.353-0.681,2.029-2.029,2.029-3.384v-5.414c0-6.094,0.677-11.507,1.355-15.572l9.475,2.036l2.706-1.355l6.77-4.064
			c5.416,4.064,9.474,8.129,11.506,13.536l2.706,2.036l3.385-0.675l4.739-2.709l12.859-3.384l2.028,8.117l2.032,2.035l7.443,3.385
			l-6.769,13.536l-0.675,2.029l1.353,2.029c4.738,4.739,8.801,8.804,10.829,12.862l-6.768,5.414L231.2,176.4l0.677,8.804
			l-19.626-1.355c-1.355,0-2.03,0-2.707,1.355c-2.707,5.413-7.447,10.152-12.186,14.884l-8.119-6.087h-3.384l-7.446,3.384
			c-2.706-6.769-4.739-13.537-6.091-20.305l-2.707-3.383l-18.952-6.088l4.062-7.449l0.677-0.681l-1.354-2.703l-3.384-6.768
			C155.397,146.625,160.811,143.921,165.55,143.241z"/>
	</g>
	<g>
		<path d="M194.651,144.595c-3.384,0-6.767,0.674-9.474,3.384s-4.063,6.094-4.063,9.479c0,4.058,1.355,6.768,4.063,9.471
			c2.707,2.703,6.09,4.065,9.474,4.065c3.386,0,6.77-1.362,9.476-4.065c2.032-2.704,4.062-5.413,4.062-9.471
			c0-3.385-2.029-6.769-4.062-9.479C201.421,145.27,198.037,144.595,194.651,144.595z M187.207,157.458
			c0-2.036,0.678-4.065,2.032-5.42c1.352-2.029,3.384-2.029,5.412-2.029c2.707,0,4.063,0,6.091,2.029
			c1.354,1.355,2.033,3.384,2.033,5.42l-2.033,6.087l-6.091,2.029c-2.028,0-4.061-0.674-5.412-2.029
			C187.885,161.516,187.207,160.161,187.207,157.458z"/>
	</g>
	<g>
		<path d="M189.239,166.929l-2.032,14.217c0,2.022,0.678,2.703,2.032,3.384l3.384-2.71l2.028-14.21c0-1.361-0.677-2.71-2.706-3.384
			C190.591,164.226,189.239,164.9,189.239,166.929z"/>
	</g>
	<g>
		<path d="M203.453,160.841c-1.356,2.023-0.678,2.704,1.351,3.384l12.859,8.791c1.354,0.681,3.385,0.681,4.062-1.349
			c0.678-1.355,0.678-2.709-0.677-4.058l-13.537-7.449C205.481,158.806,204.127,159.48,203.453,160.841z"/>
	</g>
	<g>
		<path d="M180.438,155.422l-12.858,2.71c-1.352,0.674-2.029,2.029-1.352,3.384c0.675,2.029,1.352,2.709,2.707,2.029l12.181-3.384
			c2.033,0,2.707-0.681,2.707-2.703C183.148,155.422,181.792,154.748,180.438,155.422z"/>
	</g>
	<g>
		<path d="M182.471,133.088c-2.033,0.681-2.706,1.354-2.033,3.384l3.385,12.181c0.677,2.036,2.033,2.71,3.385,2.71
			c2.032-1.355,2.032-2.71,2.032-3.384l-3.384-12.862C184.499,133.088,183.822,133.088,182.471,133.088z"/>
	</g>
	<g>
		<path d="M212.251,141.211l-6.77,5.413l-3.385,1.355c-1.354,1.348-2.028,2.029-1.354,3.384c0.679,2.029,1.354,2.029,3.385,2.029
			l4.739-2.029l7.444-6.094c1.353-0.674,1.353-2.029-0.676-4.058H212.251z"/>
	</g>
	<g>
		<path fill="#D96038" d="M142.539,49.167l-7.445-0.681c-0.677-6.087-2.032-12.181-4.739-17.601l-10.83,2.71l-8.797-6.769
			c-4.739,3.384-8.123,8.124-10.829,13.537l-2.029,6.094c-5.417-2.036-10.152-3.384-16.243-3.384l-6.769,0.675l-2.032,10.152
			l-11.504,6.094c3.384,6.768,8.12,13.536,14.21,20.304c-2.706,4.733-6.09,10.827-8.797,19.63l11.508,4.058l1.351,10.827
			c6.091-0.674,13.537-3.384,23.688-8.117c6.769,6.088,13.537,10.827,20.982,12.855l5.412-9.471l12.186-0.681
			c1.352-5.413,2.03-10.152,2.03-15.565l-1.353-8.124c6.091-0.68,12.858-5.413,18.271-12.855l-8.119-8.804l2.706-10.827
			C152.691,50.516,148.63,49.841,142.539,49.167z"/>
	</g>
	<g>
		<path d="M156.75,63.377l2.031-10.152l0,0c0-2.036,0-2.709-1.354-3.384c-4.062-2.71-10.83-4.739-19.627-4.739
			c-1.356-8.798-2.707-13.537-4.063-15.566c-0.677-1.355-2.028-2.71-4.063-2.036l-9.474,2.036l-7.446-5.42
			c-1.352-1.348-2.706-1.348-4.058,0c-6.094,5.42-10.829,10.833-13.536,18.282c-4.738-2.036-9.479-2.71-14.214-2.71l-6.769,1.348
			c-1.354,0.681-2.031,0.681-2.031,2.036l-2.707,8.797l-10.152,5.414c-0.678,0.674-1.352,1.355-1.352,2.71l0.674,1.348
			c2.032,6.094,6.769,12.862,12.861,19.631L63.35,99.928c0,1.349,0.678,2.703,2.707,2.703l8.801,3.385l2.029,9.471
			c0,2.036,1.355,2.709,3.384,2.709c6.769-0.674,14.214-3.384,22.334-7.442c6.769,5.414,13.536,10.153,20.982,12.181l3.383-1.354
			l4.74-8.116l10.151-0.681l3.385-2.704l2.029-14.217l-0.678-8.123c6.094-2.029,12.184-6.094,17.598-12.862v-2.023l-0.678-2.709
			L156.75,63.377z M135.094,51.87c6.091,0,11.504,0,16.242,2.703l-2.029,8.804v0.674l0.675,2.709l6.769,6.769
			c-5.414,5.413-10.152,8.797-14.889,8.797l-2.032,1.355l-0.674,2.029l0.674,1.354l0.677,8.798l-2.027,10.153l-8.803,0.68
			l-2.706,1.348l-4.061,8.124l-18.272-12.182h-3.384c-4.739,2.71-11.507,5.413-18.275,6.768l-1.352-8.123l-2.71-2.029l-7.443-3.385
			c2.029-6.768,4.736-11.507,6.77-14.891l0.674-2.029l-0.674-2.036c-5.417-5.406-9.479-10.826-12.186-16.24l8.123-5.413l2.029-1.354
			l1.355-8.124c6.09-0.674,12.182-0.674,18.271,2.71h3.385l1.354-2.71l2.706-4.732c1.355-4.065,4.74-8.13,8.123-10.833l6.092,4.739
			l2.706,0.674l8.123-2.028l3.385,13.536C131.71,51.189,132.387,51.87,135.094,51.87z"/>
	</g>
	<g>
		<path d="M111.404,59.994c-3.383,0-6.768,1.348-9.475,4.058c-2.709,2.709-4.061,6.094-4.061,9.478c0,3.384,1.352,6.768,4.061,8.797
			c2.707,3.384,6.092,4.738,9.475,4.738c3.385,0,6.77-1.354,8.798-4.738c3.385-2.029,4.739-5.413,4.739-8.797
			c0-3.384-1.354-6.769-4.739-9.478C118.174,61.342,114.789,59.994,111.404,59.994z M119.524,73.53c0,2.029-1.351,4.058-2.706,5.413
			c-1.352,1.355-3.384,2.03-5.414,2.03c-2.031,0-4.061-0.675-5.416-2.03c-2.029-1.355-2.707-3.384-2.707-5.413
			c0-2.71,0.678-4.059,2.707-6.094c1.355-1.348,3.385-2.029,5.416-2.029c2.03,0,4.063,0.681,5.414,2.029
			C118.174,69.471,119.524,70.82,119.524,73.53z"/>
	</g>
	<g>
		<path d="M112.756,82.327c-1.352,1.355-2.028,2.029-1.352,3.384l8.12,12.181c0.678,2.036,2.032,2.71,4.063,1.355
			c1.354-1.355,1.354-2.03,0-3.384l-7.446-12.855C115.467,80.973,114.111,80.973,112.756,82.327z"/>
	</g>
	<g>
		<path d="M136.444,66.761l-14.888,2.03c1.353,0,2.03,0.68,2.707,2.029c0.678,2.036-0.677,2.71-2.707,3.384l16.244-2.029
			c2.028-0.681,2.705-2.029,2.028-3.384C139.829,66.761,138.479,66.761,136.444,66.761z"/>
	</g>
	<g>
		<path d="M97.869,83.008l-6.769,9.471c-1.354,0.681-2.032,2.029-1.354,3.384c1.354,1.354,2.706,1.354,4.738,0.681l7.445-10.833
			c1.352-1.355,1.352-2.703-0.677-3.384C99.898,80.973,97.869,80.973,97.869,83.008z"/>
	</g>
	<g>
		<path d="M85.01,64.052c-0.678,2.036-0.678,2.709,0.674,4.058l10.83,7.449l3.385-0.681c1.354-1.349,1.354-2.704-0.678-4.059
			l-10.152-7.442L85.01,64.052z"/>
	</g>
	<g>
		<path d="M113.435,51.87c0,3.384-1.353,7.449-3.385,11.507c-0.677,1.349-0.677,2.71,1.354,3.384
			c1.352,0.674,2.707,0.674,3.385-1.354c2.029-4.065,3.385-8.798,4.062-13.537c0-2.029-0.677-2.703-2.71-3.384
			C114.789,48.486,113.435,49.841,113.435,51.87z"/>
	</g>
	<g>
		<path fill="#D96038" d="M209.544,32.246c-2.033,5.407-4.063,10.827-4.063,16.24c0,3.384,0,5.414,0,7.449
			c-4.739,0-10.151,1.349-14.891,4.059l-6.092,3.384l2.033,10.152l-7.444,10.152c5.411,5.413,12.857,8.797,21.654,12.181
			c-1.352,5.414-0.674,12.181,0.679,21.66l10.83-1.355l6.767,8.797c5.414-2.709,10.83-8.797,17.599-16.921l25.04,2.71l0.678-11.507
			l10.83-5.413l-5.414-15.573l-4.062-6.087c5.413-3.384,8.797-10.153,11.504-19.624l-12.182-4.746l-2.028-11.5l-12.862,2.029
			l-7.442,3.384l-8.123-10.152l-3.384-4.064l-8.798,7.449L209.544,32.246z"/>
	</g>
	<g>
		<path d="M274.519,96.544l2.029-2.71V93.16c-1.355-6.768-4.063-13.536-8.123-20.985c4.061-4.739,7.446-10.833,9.478-18.95
			l0.675-0.674l-2.706-3.384l-9.477-4.064l-2.028-8.798l-2.71-3.384c-4.735,0-11.504,0.674-19.627,4.058l-6.769-8.797l-4.061-3.384
			c-1.353-1.355-2.707-1.355-4.736,0l-6.769,6.087l-9.475-2.022c-1.354-0.681-2.71,0.674-4.062,2.022
			c-2.706,5.42-4.063,12.188-4.063,18.957v3.384c-4.738,0-9.474,2.029-14.212,4.059c-2.707,1.355-4.063,2.71-5.414,3.384
			l-1.355,2.71l0,0l1.355,8.797l-6.09,9.472l-0.678,2.036l1.351,2.029c5.417,5.414,12.186,9.472,20.305,12.181l-0.674,4.739
			l1.353,14.892c0,2.029,1.354,3.384,3.384,3.384l9.475-1.355l5.415,7.449c1.353,1.348,2.707,2.022,4.737,0.674
			c4.738-2.71,10.829-8.124,16.919-16.246l24.367,2.709l2.707-3.384l0.677-9.478L274.519,96.544z M219.695,38.333l2.707-1.355
			l6.769-5.413l8.796,11.507c0.679,2.03,1.355,2.71,4.063,2.03c6.769-3.385,11.507-5.414,16.242-5.414l1.356,8.797l2.706,2.704
			l8.123,3.384c-2.707,7.449-5.416,12.862-8.801,14.898l-1.352,2.023v0.681l0.678,2.029l2.706,4.739l5.413,12.856l-8.797,4.746
			c-0.677,0.673-1.354,1.348-1.354,2.703l-0.679,8.124l-20.305-2.711c-2.028-0.674-3.383,0-4.057,1.356l-14.215,14.217l-4.061-6.094
			c-1.355-1.354-2.707-2.036-3.384-1.354l-8.124,0.681l-0.674-10.833l0.674-6.768l-2.706-3.384
			c-6.77-2.029-12.182-5.414-17.599-10.152l5.417-6.768l0.677-2.029v-1.355l-2.031-7.449c4.738-4.059,10.829-5.407,17.597-5.407
			l3.385-1.362v-2.022v-6.094c0-4.059,0.678-8.804,3.385-13.537L219.695,38.333z"/>
	</g>
	<g>
		<path d="M242.029,75.559c0-4.065-1.352-6.768-4.063-10.152c-2.028-2.029-5.412-3.385-8.796-3.385
			c-4.063,0-7.446,1.355-10.153,3.385c-2.707,3.384-3.383,6.087-3.383,10.152c0,3.384,0.676,6.768,3.383,8.797
			c3.385,2.709,6.091,4.739,10.153,4.739c3.384,0,6.768-2.03,8.796-4.739C240.678,82.327,242.029,78.943,242.029,75.559z
			 M229.171,67.436c2.029,0,3.384,0.674,5.413,2.71c1.354,0.674,2.032,2.709,2.032,5.413l-2.032,5.414
			c-2.029,1.354-3.384,2.709-5.413,2.709c-2.707,0-4.063-1.355-6.091-2.709c-1.355-2.03-2.032-3.385-2.032-5.414
			c0-2.704,0.677-4.739,2.032-5.413C225.108,68.11,226.464,67.436,229.171,67.436z"/>
	</g>
	<g>
		<path d="M235.261,80.973c-1.351,2.035-1.351,2.709,0.678,4.058l12.182,8.129l3.385-0.681c1.354-2.029,1.354-2.703-0.676-3.384
			l-12.184-8.797C236.616,79.624,235.938,80.298,235.261,80.973z"/>
	</g>
	<g>
		<path d="M249.475,56.609l-12.858,8.798c-1.355,1.354-1.355,3.384-0.678,4.064c1.355,1.349,2.707,1.349,4.062,0.675l12.859-8.124
			c2.028-1.354,2.028-2.703,0.677-4.064C252.859,56.609,251.505,55.935,249.475,56.609z"/>
	</g>
	<g>
		<path d="M221.725,89.095l-2.707,10.833c-0.676,1.349,0,2.703,1.355,4.058c2.029,0.674,2.707,0,4.059-1.355
			c1.354-3.384,2.032-8.123,2.032-13.536c0-2.03-0.678-2.703-2.032-3.384C222.402,85.711,221.725,87.065,221.725,89.095z"/>
	</g>
	<g>
		<path d="M202.097,76.914c0,2.029,0.679,3.384,2.707,3.384l12.859,2.029c1.354,0,2.032,0,2.71-2.029
			c0.675-2.036-0.678-3.384-2.031-3.384l-12.86-2.036C204.127,74.878,202.097,75.559,202.097,76.914z"/>
	</g>
	<g>
		<path d="M224.432,49.841c-2.029,0.674-2.029,2.029-2.029,3.384c2.029,3.384,2.706,7.442,2.029,12.182
			c0,1.354,0.677,2.703,2.032,2.703c2.029,0.681,2.707-0.674,3.384-2.703c0-4.739-0.677-9.472-2.032-13.537
			C226.464,49.841,225.786,49.841,224.432,49.841z"/>
	</g>
</g>
</svg>
