<?xml version="1.0" encoding="utf-8"?>
<!-- Generator: Adobe Illustrator 13.0.0, SVG Export Plug-In . SVG Version: 6.00 Build 14948)  -->
<!DOCTYPE svg PUBLIC "-//W3C//DTD SVG 1.1//EN" "http://www.w3.org/Graphics/SVG/1.1/DTD/svg11.dtd">
<svg version="1.1" id="圖層_1" xmlns="http://www.w3.org/2000/svg" xmlns:xlink="http://www.w3.org/1999/xlink" x="0px" y="0px"
	 width="372px" height="587px" viewBox="0 0 372 587" enable-background="new 0 0 372 587" xml:space="preserve">
<g>
	<g>
		<path fill="#858585" d="M28.295,275.303l11.492,12.853c10.146,10.818,18.263,22.991,25.707,36.518
			c25.019,41.934,37.198,87.924,37.198,138.648l30.436-22.317c0-18.262-4.062-39.232-12.854-62.224
			C102.692,332.117,72.257,297.62,28.295,275.303z"/>
	</g>
	<g>
		<path d="M29.643,273.269l-2.702,0.68c-1.354,1.354-0.68,2.702,0,3.381l11.5,13.527c9.464,10.145,17.582,22.991,25.019,35.844
			c12.179,20.964,21.644,41.935,27.054,63.578c0-14.2-3.382-28.407-8.791-41.253c-10.819-23.672-23.672-43.963-39.226-62.231
			c34.49,21.65,59.516,52.087,75.07,91.986c7.444,20.97,12.179,41.261,12.179,60.869l-24.352,17.589
			c0-20.97-4.736-41.939-13.527-61.55c5.41,21.644,8.791,43.961,8.791,67.633l1.354,2.028l2.708-0.674l29.755-20.963l1.354-2.709
			c0-18.942-4.736-40.579-13.527-64.251C105.394,329.41,74.285,294.919,29.643,273.269z"/>
	</g>
	<g>
		<path fill="#858585" d="M157.473,314.529c-16.908-94.007-49.371-160.967-97.395-201.547
			c15.561,27.054,29.761,61.544,43.961,104.832c27.054,85.216,36.525,167.73,27.054,246.863l15.561,4.056
			c10.146-0.674,17.583-8.791,20.964-25.019C169.646,405.154,166.264,361.872,157.473,314.529z"/>
	</g>
	<g>
		<path d="M110.803,231.341c-11.493-38.552-25.019-73.723-41.254-105.505c38.553,38.546,66.28,96.708,81.834,174.487
			c9.471,44.642,13.527,89.957,13.527,135.947v6.764c-2.028,11.499-7.437,18.937-14.201,21.644l-16.234-1.354
			c2.034-18.936,2.708-37.198,2.708-55.46c0-18.936-2.708-38.546-8.791-58.162c4.736,39.227,4.736,77.104,0.674,114.977l0.68,2.708
			l7.437,2.702h16.235c8.111-3.383,14.201-12.173,17.583-25.7v-0.673c0.673-40.581-3.382-83.869-11.499-131.213
			c-16.908-94.687-50.045-161.646-98.069-202.227c-1.354-0.674-2.702-0.674-3.382,0c-1.354,1.354-1.354,2.708-0.673,3.382
			c16.228,28.407,30.435,63.578,43.961,106.186c12.173,37.879,20.291,75.752,24.346,112.275
			C126.364,298.975,120.948,265.832,110.803,231.341z"/>
	</g>
	<g>
		<path fill="#858585" d="M185.199,317.23c-4.055-94.688,2.708-175.167,20.29-241.446c-12.172,18.936-23.671,48.017-33.816,88.597
			c-18.936,80.486-20.964,174.5-4.055,282.034l29.761-6.765C191.289,405.834,187.907,365.255,185.199,317.23z"/>
	</g>
	<g>
		<path d="M203.462,74.43c-12.846,20.291-24.345,50.045-33.816,90.625c-19.61,81.841-21.644,175.848-4.736,282.04l1.354,2.021
			l2.027,0.68l29.762-7.443c2.027,0,2.708-1.348,2.027-3.382c-5.409-35.164-9.464-76.418-12.173-123.761
			c-3.382-94.014,3.382-173.146,20.291-238.752c0.674-1.348,0-2.028-1.354-3.381C205.489,72.402,204.816,73.076,203.462,74.43z
			 M173.708,169.117c6.763-29.081,14.874-54.107,25.019-75.077c-10.819,49.378-16.909,106.866-16.909,169.764
			c0,58.843,4.063,116.331,12.853,173.819l-24.345,5.41c-7.444-46.663-10.825-91.306-10.825-135.268
			C159.5,257.721,164.236,211.051,173.708,169.117z"/>
	</g>
	<g>
		<path fill="#858585" d="M245.396,375.399c-10.145,19.609-16.907,37.878-19.616,56.808l33.144-2.701
			c2.027-29.08,14.881-57.488,39.227-85.222c12.172-14.2,24.353-25.693,35.844-33.816
			C295.448,315.21,265.687,337.521,245.396,375.399z"/>
	</g>
	<g>
		<path d="M336.027,311.828l0.675-2.709c0-1.354-1.354-2.034-2.709-1.354c-39.226,4.735-69.661,27.053-90.625,65.606
			c-10.824,19.616-17.589,39.226-19.616,58.161l0.681,2.035l1.347,0.674l33.144-2.035l2.708-2.701
			c0.674-13.527,4.056-27.733,10.818-41.261c-9.471,12.181-14.88,25.032-16.234,38.56l-27.054,2.021
			c4.736-20.291,11.499-39.899,21.645-56.809c17.589-30.435,41.934-50.045,72.369-57.488
			c-14.881,13.526-27.727,27.054-38.553,41.934c-6.763,10.145-10.818,20.291-12.173,31.782c6.765-14.2,15.555-28.4,27.054-41.927
			C311.676,332.117,323.849,321.292,336.027,311.828z"/>
	</g>
	<g>
		<path fill="#858585" d="M309.648,216.46c25.699-30.435,49.371-52.079,73.043-65.606c-72.37,25.026-126.477,77.778-161.641,160.974
			c-18.263,41.254-29.088,80.479-33.144,116.998l36.525,13.526C231.87,353.082,260.277,278.011,309.648,216.46z"/>
	</g>
	<g>
		<path d="M311.676,219.842c24.352-30.435,48.698-52.753,72.37-66.28c1.353-1.354,1.353-2.034,0.673-3.381
			c-0.673-1.354-2.027-2.034-3.382-1.354c-71.688,23.672-125.795,77.779-162.32,160.292c-18.256,41.928-29.08,81.16-33.136,119.032
			c-0.682,1.354,0,2.035,2.026,2.709l35.845,13.526h2.027l1.354-2.034C234.577,355.109,262.305,280.713,311.676,219.842z
			 M360.374,163.034c-30.436,24.346-56.136,53.427-77.779,89.271c-33.817,54.107-54.106,116.331-60.871,185.993l-30.435-12.174
			c4.736-37.197,15.555-75.077,33.144-114.296C255.542,240.132,301.531,190.761,360.374,163.034z"/>
	</g>
	<g>
		<path fill="#FFFFFF" d="M139.89,232.015l2.028,56.142c4.736,46.662,14.881,91.979,29.755,137.288h16.234
			c-5.409-14.874-10.818-33.137-16.908-56.128c-10.819-45.322-16.909-89.958-18.263-131.886L139.89,232.015z"/>
	</g>
	<g>
		<path d="M137.856,229.987l-1.348,1.354l3.381,57.489c4.056,46.669,14.201,92.652,29.755,137.294
			c0.68,0.681,1.354,1.354,2.027,1.354h16.234l2.709-0.674v-2.707c-5.417-14.882-10.826-33.818-16.235-56.142
			c-11.499-45.31-17.582-89.271-19.616-131.206l-1.348-2.027l-12.853-4.736H137.856z M142.592,240.813v-4.743l7.443,2.708
			c0.673,38.552,6.764,78.453,16.228,119.033c5.409,24.352,11.499,45.996,18.262,64.933h-10.145
			c-12.853-37.199-21.644-75.078-27.053-114.298C143.946,284.094,142.592,261.776,142.592,240.813z"/>
	</g>
	<g>
		<path fill="#FFE000" d="M165.59,257.041l-2.028,20.971c-3.381,16.908-8.797,33.136-16.234,48.017l2.708,16.234l16.228-26.38
			c10.825-21.644,18.262-43.288,21.644-62.904L165.59,257.041z"/>
	</g>
	<g>
		<path d="M168.291,317.23c11.499-22.312,18.943-43.282,22.325-63.572l-0.68-2.027l-2.029-1.354l-22.998,4.063
			c-1.348,0.673-2.028,1.347-2.028,2.701l-2.028,20.29c-3.381,16.909-8.791,33.138-16.234,47.344v2.027l2.708,16.234l2.708,2.028
			l2.701-0.68L168.291,317.23z M168.291,259.068l16.234-2.708c-4.735,25.706-16.234,51.405-33.143,79.139l-1.347-8.798
			C160.854,303.703,167.618,280.713,168.291,259.068z"/>
	</g>
	<g>
		<path fill="#6FC7E6" d="M-1.466,438.971v154.884h376.72V438.971H-1.466z"/>
	</g>
	<g>
		<path d="M375.254,596.563c1.354,0,2.027-0.674,2.027-2.708V438.971c0-2.021-0.673-2.701-2.027-2.701H-1.466
			c-1.354,0-2.708,0.68-2.708,2.701v154.884c0,2.034,1.354,2.708,2.708,2.708H375.254z M1.242,591.146V441.679h371.305v149.468
			H1.242z"/>
	</g>
	<g>
		<path fill="#858585" d="M149.355,467.385l33.143-1.361c8.791-92.651,32.462-173.139,72.369-242.8
			c20.291-35.171,38.547-60.19,57.489-76.425c-56.814,33.817-100.777,96.715-132.566,190.722
			C164.236,384.19,154.091,427.479,149.355,467.385z"/>
	</g>
	<g>
		<path d="M313.704,148.827v-4.062c-0.674-1.347-1.348-1.347-3.383-0.674c-56.134,33.817-100.096,97.395-132.559,190.728
			c-15.554,47.344-26.38,91.306-31.109,131.886l0.674,2.702l2.028,0.681l33.143-1.354l2.701-2.028
			c8.799-91.305,32.471-171.11,71.016-240.099C275.831,191.435,295.448,165.735,313.704,148.827z M179.79,463.322l-27.053,0.681
			c4.736-41.26,14.881-83.868,31.115-129.185c27.054-79.132,63.572-136.621,108.888-171.785
			c-23.672,28.401-43.962,62.892-62.224,102.124C204.143,324.674,187.234,390.954,179.79,463.322z"/>
	</g>
	<g>
		<path d="M87.131,474.821c-6.763,0.674-12.173,2.028-18.255,4.056c-10.826,4.056-16.908,9.472-18.263,17.583
			c-0.68,8.123,4.736,14.887,18.263,19.616l21.637,5.415l1.354-0.681l0.681-2.027l-3.382-41.934l-0.68-2.028H87.131z
			 M68.195,483.613c4.736-2.702,10.826-3.382,16.908-4.736l3.382,37.872c-22.991-3.382-33.816-10.145-33.816-18.929v-0.681
			C55.349,491.73,60.078,486.994,68.195,483.613z"/>
	</g>
	<g>
		<path d="M84.43,455.879c-0.68-2.021-1.354-2.021-2.028-2.021l-25.706,9.464c-16.909,8.792-25.02,20.291-25.02,33.817
			c0,12.847,9.465,24.352,28.401,34.497c8.798,5.402,18.943,8.784,29.761,10.818c0.674,0.675,2.028,0,2.708-1.354
			c0-0.681,0-2.027-2.035-2.701c-8.791-1.361-18.256-4.742-27.727-9.472c-18.263-8.798-27.728-19.617-27.053-31.789
			c0.673-12.847,8.117-22.991,23.672-30.436l22.998-8.79L84.43,455.879z"/>
	</g>
	<g>
		<path d="M49.933,447.095c-0.674-0.68-1.348-0.68-3.382-0.68l-16.908,12.846c-11.493,10.826-17.582,24.353-16.909,39.232
			c0,14.874,8.117,28.401,25.026,41.255c8.117,6.089,16.908,10.818,25.699,14.2l2.708-0.674c0.673-1.348,0-2.708-1.354-2.708
			c-8.117-3.383-16.229-8.111-23.672-13.527c-16.228-12.165-24.345-25.019-24.345-38.546c-0.681-14.2,4.735-25.705,15.554-36.523
			l16.235-12.174C49.933,449.796,50.613,449.116,49.933,447.095z"/>
	</g>
	<g>
		<path d="M24.233,436.949L8.005,451.823C-2.14,464.677-7.556,480.231-7.556,497.14c0.68,17.589,8.117,33.137,22.998,48.023
			c8.118,6.764,15.555,12.847,24.345,16.909c1.354,0.674,2.035,0.674,2.035-1.361c1.348-0.674,0.674-2.021,0-2.021
			c-8.117-4.063-15.561-9.472-22.998-16.235c-14.2-14.2-21.644-29.088-22.318-45.315c0-16.229,4.736-30.436,14.881-42.607
			l14.874-14.201c1.354-0.681,2.035-1.36,0.68-2.708C26.941,436.949,25.587,436.27,24.233,436.949z"/>
	</g>
	<g>
		<path d="M177.763,529.603h71.688l18.264-4.729c11.499-3.383,17.588-9.472,18.262-16.909c0.674-4.742,0-8.124-3.382-11.505
			c-5.409-7.438-17.582-12.167-35.171-13.527c-1.354,0-2.028,0.681-2.701,2.034c0,1.348,0.673,2.027,2.027,2.027
			c17.582,2.028,28.408,6.083,33.137,11.499c2.034,2.709,2.708,5.41,2.708,8.111c-1.354,6.763-6.764,11.505-16.908,14.887
			l-16.235,4.056h-71.688c-1.354,0-2.027,0.674-2.027,2.028C175.735,528.929,176.409,529.603,177.763,529.603z"/>
	</g>
	<g>
		<path d="M157.473,549.893h98.742c8.117-1.347,16.234-4.056,26.38-9.472c16.235-8.784,24.345-19.61,24.345-33.136
			c0.681-13.527-8.79-25.026-27.726-34.497l-30.437-11.493c-0.673,0-2.027,0-2.707,2.027l0.68,1.354l1.354,0.674l27.727,10.145
			c18.937,8.798,27.728,19.616,27.055,31.79c0,12.173-7.438,22.317-23.672,29.754c-7.438,4.742-15.555,7.443-23.672,8.798h-98.069
			c-0.673,0-1.354,0.674-1.354,2.028C156.119,549.219,156.799,549.893,157.473,549.893z"/>
	</g>
	<g>
		<path d="M136.509,568.154h116.324c16.909-0.68,30.435-4.735,40.581-10.824c6.089-2.021,12.179-6.764,18.262-12.167
			c11.499-11.505,16.908-25.032,16.908-39.905c-0.674-14.882-8.791-28.408-25.698-40.581l-25.7-14.881c-1.354,0-1.354,0-2.708,1.354
			c0,1.349,0,2.028,1.354,2.028l23.672,14.207c16.234,12.166,24.346,24.346,24.346,37.873c0.681,14.2-4.729,26.379-15.555,36.523
			l-16.229,12.167c-9.471,5.416-22.998,8.798-39.232,10.145H136.509c-0.68,0-2.034,0.681-2.034,2.034
			C134.475,567.475,135.829,568.154,136.509,568.154z"/>
	</g>
	<g>
		<path d="M258.249,583.709c-2.034,0-2.034,0.674-2.034,2.035l2.708,2.021c26.38-4.056,45.989-11.492,57.488-20.963
			c6.091-2.709,10.819-8.111,16.235-14.201c10.818-13.526,16.229-28.407,15.555-45.996c-0.681-16.909-8.118-33.137-22.998-47.344
			l-23.672-16.908c-2.028-0.674-2.701,0-2.701,0.681c-1.354,1.354-0.681,2.701,0.673,2.701l22.318,15.561
			c14.881,14.2,21.644,29.081,22.317,45.31c0,16.908-4.729,30.435-14.2,43.288c-5.409,6.089-10.146,10.818-15.555,14.2
			c-2.708,2.034-7.444,4.742-14.207,8.124C288.685,577.62,274.478,581.002,258.249,583.709z"/>
	</g>
	<g>
		<path fill="#FCCE00" d="M228.488,388.245h-45.316v112.957h45.316V388.245z"/>
	</g>
	<g>
		<path d="M228.488,385.544h-45.316c-2.028,0-2.702,0.681-2.702,2.701v112.957c0,1.347,0.674,2.021,2.702,2.021h45.316
			c2.027,0,2.707-0.674,2.707-2.021V388.245C231.195,386.225,230.516,385.544,228.488,385.544z M185.881,390.279h39.898V497.82
			h-39.898V390.279z"/>
	</g>
	<g>
		<path fill="#DA8E55" d="M205.489,377.427c-6.083,0-10.818,1.354-15.553,2.708c-4.737,2.027-6.764,4.729-6.764,8.11
			c0,2.709,2.027,4.743,6.764,6.764l15.553,3.382l16.234-3.382c4.056-2.021,6.765-4.055,6.765-6.764c0-3.382-2.709-6.083-6.765-8.11
			C217.67,378.781,212.253,377.427,205.489,377.427z"/>
	</g>
	<g>
		<path d="M205.489,400.426c7.444,0,13.527-1.354,18.943-3.383c4.056-2.034,6.763-5.415,6.763-8.798
			c0-4.055-2.707-7.438-6.763-9.464c-5.416-2.702-11.499-4.063-18.943-4.063c-6.763,0-12.846,1.36-17.582,4.063
			c-4.735,2.026-7.437,5.409-7.437,9.464c0,3.383,2.702,6.764,7.437,8.798C192.644,399.071,198.727,400.426,205.489,400.426z
			 M205.489,380.135l14.882,2.708c4.062,2.021,5.408,3.382,5.408,5.402l-5.408,4.063l-14.882,3.382
			c-5.409,0-10.145-1.354-14.2-3.382l-5.408-4.063c0-2.021,2.026-3.382,5.408-5.402C195.345,381.482,200.08,380.135,205.489,380.135
			z"/>
	</g>
	<g>
		<path fill="#FFF000" d="M155.445,532.983l71.689-45.309L-5.522,332.117l-71.015,45.983L155.445,532.983z"/>
	</g>
	<g>
		<path d="M154.091,535.019c0.674,1.347,2.028,1.347,2.708,0l71.689-44.643l0.673-2.701l-0.673-2.708L-3.494,330.084l-2.708-0.674
			l-71.689,45.989c-0.68,0-1.354,1.354-1.354,2.701l1.354,1.36L154.091,535.019z M221.724,487.675l-66.279,42.602L-71.808,378.101
			l66.286-42.602L221.724,487.675z"/>
	</g>
	<g>
		<path d="M189.937,512.694l3.381-0.674c1.354-2.034,1.354-2.709-0.674-4.056L-39.338,352.407l-4.063,0.675
			c-0.673,2.027,0,2.707,1.354,4.055L189.937,512.694z"/>
	</g>
	<g>
		<path fill="#FCCE00" d="M73.604,575.599h45.316V462.643H73.604V575.599z"/>
	</g>
	<g>
		<path d="M73.604,459.941c-2.028,0-3.382,0.68-3.382,2.701v112.956c0,2.021,1.354,2.701,3.382,2.701h45.316
			c1.354,0,2.028-0.68,2.028-2.701V462.643c0-2.021-0.674-2.701-2.028-2.701H73.604z M75.638,465.351h40.581v107.54H75.638V465.351z
			"/>
	</g>
	<g>
		<path fill="#DA8E55" d="M112.157,470.087c4.063-2.028,6.764-4.063,6.764-7.444c0-2.701-2.701-5.403-6.764-7.438
			c-4.735-2.027-9.465-2.707-16.228-2.707c-6.764,0-11.499,0.68-15.561,2.707c-4.73,2.034-6.764,4.736-6.764,7.438
			c0,3.381,2.034,5.416,6.764,7.444l15.561,3.381L112.157,470.087z"/>
	</g>
	<g>
		<path d="M95.929,449.796c-6.764,0-13.527,0.681-18.263,3.382c-4.735,2.701-7.443,6.083-7.443,9.465
			c0,4.062,2.708,7.444,7.443,9.472c4.736,2.034,11.499,4.056,18.263,4.056c6.763,0,13.527-2.021,18.256-4.056
			c4.736-2.027,6.764-5.41,6.764-9.472c0-3.382-2.028-6.764-6.764-9.465C109.456,450.477,102.692,449.796,95.929,449.796z
			 M81.722,457.239l14.207-2.707l14.874,2.707c3.382,2.021,5.417,3.382,5.417,5.403c0,1.36-2.035,3.381-5.417,4.742l-14.874,2.702
			l-14.207-2.702c-4.056-1.361-6.083-3.382-6.083-4.742C75.638,460.621,77.666,459.261,81.722,457.239z"/>
	</g>
	<g>
		<path fill="#FFF000" d="M261.631,393.661L-0.793,569.509l71.016,45.31l262.424-175.848L261.631,393.661z"/>
	</g>
	<g>
		<path d="M262.305,391.628c-0.674-1.349-1.354-1.349-2.708,0L-2.14,567.475l-1.354,2.034l1.354,2.708l71.015,44.636h3.381
			l261.736-175.848l1.354-2.034l-1.354-2.701L262.305,391.628z M3.943,569.509L261.631,396.37l66.279,42.601L70.223,611.437
			L3.943,569.509z"/>
	</g>
	<g>
		<path d="M33.024,589.799c-1.348,1.348-1.348,2.708-0.674,4.056l4.056,0.673L298.83,418.681c1.347-1.348,1.347-2.702,0.673-3.381
			c-0.673-2.022-2.708-2.702-4.055-1.349L33.024,589.799z"/>
	</g>
	<g>
		<path fill="#FCCE00" d="M217.67,601.292h45.309V488.349H217.67V601.292z"/>
	</g>
	<g>
		<path d="M265.687,488.349c0-1.354-0.674-2.709-2.708-2.709H217.67c-2.035,0-2.709,1.354-2.709,2.709v112.943
			c0,1.36,0.674,2.707,2.709,2.707h45.309c2.034,0,2.708-1.347,2.708-2.707V488.349z M260.277,491.057V598.59h-39.906V491.057
			H260.277z"/>
	</g>
	<g>
		<path fill="#DA8E55" d="M256.215,495.111c4.735-1.354,6.764-4.055,6.764-6.763c0-3.382-2.028-5.416-6.764-7.438
			c-4.055-2.034-10.145-3.381-16.228-3.381c-6.09,0-11.499,1.347-15.555,3.381c-4.735,2.021-6.763,4.056-6.763,7.438
			c0,2.708,2.027,5.409,6.763,6.763l15.555,3.382L256.215,495.111z"/>
	</g>
	<g>
		<path d="M265.687,488.349c0-4.056-2.708-6.763-7.438-9.472c-5.416-2.027-10.825-4.056-18.262-4.056
			c-7.443,0-12.854,2.028-18.264,4.056c-4.734,2.709-6.763,5.416-6.763,9.472c0,3.382,2.028,6.763,6.763,8.791
			c5.41,2.701,10.82,4.063,18.264,4.063c7.437,0,12.846-1.361,18.262-4.063C262.979,495.111,265.687,491.73,265.687,488.349z
			 M225.106,483.613l14.881-3.382l14.88,3.382c4.056,1.354,5.41,3.381,5.41,4.735c0,2.027-1.354,3.382-5.41,4.729
			c-4.062,1.36-9.472,2.709-14.88,2.709l-14.881-2.709c-3.383-1.347-4.735-2.701-4.735-4.729
			C220.371,486.994,221.724,484.967,225.106,483.613z"/>
	</g>
	<g>
		<path d="M350.902,454.532l-17.582-17.583c-0.674-0.68-1.354-0.68-2.709,0.674c-0.673,1.348,0,2.027,1.354,2.708l16.235,16.908
			c10.818,14.875,16.908,31.783,17.581,50.726c0,21.638-5.408,39.9-16.228,54.781c-9.472,11.492-18.943,18.936-29.762,22.998
			c-1.354,0-2.027,0.674-1.354,2.021c0,1.36,1.354,2.034,2.028,1.36c12.18-3.381,22.998-11.505,31.789-23.672
			c12.172-16.234,18.263-35.177,16.908-57.488C369.164,487.675,363.081,470.087,350.902,454.532z"/>
	</g>
	<g>
		<path fill="#FFFFFF" d="M219.697,170.471l6.082-18.262l2.709-22.318c-11.499,10.819-20.29,27.054-26.381,50.051
			c-3.381,10.819-4.729,21.638-5.408,31.109h21.644C215.635,199.552,215.635,186.025,219.697,170.471z"/>
	</g>
	<g>
		<path d="M229.842,127.856l-2.708,0.68c-12.173,10.145-20.963,27.053-27.054,49.372c-4.735,14.88-6.082,25.706-6.082,33.143
			l0.673,2.027h2.028h21.644l2.708-0.68l0.673-2.702c-3.381-10.825-2.707-23.671,0.675-37.878l6.09-18.93v-0.68l2.707-21.644
			L229.842,127.856z M225.106,138.682l-1.354,12.173c-6.763,14.88-9.465,29.087-9.465,43.288l1.348,13.527h-16.908
			c2.034-9.472,3.381-19.617,6.763-29.761C210.905,160.999,216.989,148.827,225.106,138.682z"/>
	</g>
	<g>
		<path fill="#9260C7" d="M224.433,156.27l8.111-10.825c6.089-8.792,8.798-16.909,8.116-23.672c0-4.736-2.027-6.764-4.055-8.117
			c-2.028-0.674-4.735,0-6.764,2.708C223.752,123.801,221.724,137.328,224.433,156.27z"/>
	</g>
	<g>
		<path d="M230.516,112.982c-4.056,2.028-6.083,6.764-8.117,13.527c-2.027,8.792-2.027,18.256-0.675,30.436l2.028,2.028l2.027-1.354
			c12.854-12.172,18.264-24.345,17.589-35.844c-0.68-5.409-2.026-8.792-5.409-10.145L230.516,112.982z M226.46,149.507l-0.681-7.444
			c0-12.847,2.709-21.645,8.118-25.026l1.354-0.673l2.708,5.409v1.354C237.959,130.564,234.577,140.036,226.46,149.507z"/>
	</g>
	<g>
		<path fill="#9260C7" d="M190.616,217.814c10.145,13.527,26.373,19.617,48.69,16.909c11.499-0.674,22.324-3.382,31.789-6.763
			l-4.056-31.79c-1.354-12.172-7.443-20.29-18.263-24.352c-10.818-4.056-20.289-2.702-29.761,4.062l-9.465,11.499
			c-9.472,2.027-15.554,6.763-19.615,12.173C186.555,205.635,186.555,211.725,190.616,217.814z"/>
	</g>
	<g>
		<path d="M272.449,230.667l1.354-2.035v-2.027c-1.354-3.382-2.027-10.145-2.708-20.291c0-9.464-2.028-16.908-3.381-21.644
			c-2.702-7.437-8.792-12.853-17.583-15.554c-17.588-6.763-31.789-2.028-42.608,14.881c-12.179,4.055-19.616,10.145-22.998,18.936
			l-0.674,5.409c0,4.056,1.348,8.118,4.056,11.499c10.146,14.881,27.054,20.971,50.726,18.936
			C250.132,238.104,261.631,234.723,272.449,230.667z M248.104,174.526c6.763,2.708,10.818,6.764,13.526,12.854
			c1.348,4.055,2.701,10.145,2.701,18.936c0,7.444,0.681,13.527,2.028,18.937c-11.493,4.735-22.317,6.089-33.138,6.763
			c-18.262,0.674-31.788-4.729-39.905-16.234c-2.701-4.056-3.381-7.438-2.028-11.493c2.709-6.09,8.791-10.145,19.616-13.527
			l1.348-2.034l9.471-10.818C229.161,172.499,237.959,171.145,248.104,174.526z"/>
	</g>
	<g>
		<path d="M272.449,228.633v-2.027l-20.289-18.936c-14.882-11.5-28.408-19.617-41.935-22.999c-1.354,0-2.027,0.674-2.027,1.354
			c-0.675,0-0.675,1.354,0,2.027l12.853,16.909c12.847,11.499,29.081,19.616,49.371,25.025
			C271.776,229.987,272.449,229.307,272.449,228.633z"/>
	</g>
	<g>
		<path fill="#9260C7" d="M116.893,186.025l-4.056,18.262c8.792-6.09,14.874-16.908,18.256-33.143
			c2.035-13.527,1.354-23.672-2.027-29.762c-2.702-4.055-5.41-4.729-8.117-1.347l-3.382,6.089
			C119.601,158.972,119.601,171.818,116.893,186.025z"/>
	</g>
	<g>
		<path d="M124.33,135.3c-3.381,0-6.764,3.381-9.465,10.145l-0.68,1.354c2.708,12.173,2.035,25.02,0,39.227l-4.729,16.908
			c0,1.354,0,2.701,1.347,3.381h3.382c9.471-6.083,15.561-16.908,18.943-33.816c2.701-14.881,2.028-25.7-2.035-32.463
			C129.745,136.654,127.038,135.3,124.33,135.3z M119.601,146.799c2.028-3.381,3.381-6.089,4.729-6.089l2.034,2.034
			c2.028,2.702,2.702,8.111,2.702,14.874c0,14.881-3.382,27.728-11.5,37.199c2.708-10.819,4.063-20.964,4.063-30.435
			L119.601,146.799z"/>
	</g>
	<g>
		<path fill="#9260C7" d="M134.475,225.251c5.416-5.41,5.416-12.173,0-20.29c-4.729-7.437-11.493-10.145-20.29-8.111
			c-0.674-4.062-3.382-7.444-6.763-10.825c-6.764-5.409-16.229-5.409-27.728,0c-10.818,5.409-17.582,14.88-19.616,28.407
			l-3.381,34.49l30.435-2.027C108.775,243.514,124.33,235.396,134.475,225.251z"/>
	</g>
	<g>
		<path d="M116.219,193.469c-2.035-6.089-6.09-10.825-12.18-12.853c-7.437-3.382-15.554-2.708-25.699,2.027
			c-9.465,4.736-15.555,11.499-18.263,20.29c-2.028,4.736-3.381,12.847-4.056,23.672c-0.673,10.145-1.354,17.588-2.708,21.644
			l0.68,3.382c0.674,0.673,1.354,0.673,2.702,0.673l32.469-2.028c21.638-4.735,37.873-12.172,47.344-22.317
			c3.381-3.382,4.729-6.763,4.729-11.499c0.68-4.736-0.673-8.791-3.381-12.173C133.127,196.17,126.364,192.789,116.219,193.469z
			 M126.364,201.58l6.083,6.09c2.028,2.027,2.028,5.409,2.028,7.437l-2.702,8.118c-12.853,14.207-36.524,21.644-71.015,22.318
			l2.028-18.256c0.673-10.825,1.354-17.589,2.708-22.324c2.701-6.764,8.111-12.173,15.555-15.555
			c8.117-4.062,14.88-4.736,20.29-2.701c4.736,2.701,8.118,6.083,10.146,10.819c0.673,2.028,1.354,3.381,4.055,2.708L126.364,201.58
			z"/>
	</g>
	<g>
		<path d="M105.394,218.488c5.409-7.437,9.471-14.201,10.826-20.964v-2.035l-2.035-0.673c-11.493,6.089-25.02,16.235-39.227,31.109
			L55.349,248.25v2.027c0,1.354,1.348,1.354,2.028,1.354C78.34,244.868,93.895,234.049,105.394,218.488z M110.803,201.58
			c-3.381,6.763-7.437,13.526-13.526,20.29c-8.792,9.471-20.291,16.908-33.817,22.998C79.021,224.578,95.249,210.377,110.803,201.58
			z"/>
	</g>
	<g>
		<path fill="#FFFFFF" d="M154.091,175.88l-4.735,5.409c-2.702,4.736-4.056,8.798-2.702,12.853l9.465,37.198l14.207-3.381
			L154.091,175.88z"/>
	</g>
	<g>
		<path d="M154.765,173.179l-2.028,0.673l-5.409,6.764c-3.382,4.729-4.735,9.471-3.382,13.526l9.471,37.198
			c0.674,2.028,1.348,2.708,3.382,2.028l14.2-3.382l2.027-1.354v-2.027c-10.145-29.081-15.554-46.664-16.228-50.725L154.765,173.179
			z M148.682,191.435c0-2.708,1.354-6.089,4.055-10.145l14.207,44.636l-8.798,2.034L148.682,191.435z"/>
	</g>
	<g>
		<path fill="#9260C7" d="M156.119,187.379c2.027,9.471,5.41,18.255,9.471,26.38c-1.354-8.798-2.028-24.353-0.68-46.67
			c1.354-14.2-0.673-19.616-7.437-14.88S150.709,169.117,156.119,187.379z"/>
	</g>
	<g>
		<path d="M164.91,148.146c-2.028-1.348-5.409-0.674-8.11,2.034c-7.444,5.409-9.472,16.908-4.063,35.165
			c2.028,10.825,5.409,20.97,10.145,29.087h0.68c0.674,2.028,1.348,2.028,3.382,2.028l1.347-3.382
			c-2.027-8.791-2.027-22.318-0.673-41.26l0.673-16.229C167.618,152.208,166.944,148.827,164.91,148.146z M162.882,156.944
			l-2.028,36.524c-3.381-10.145-6.089-18.943-6.089-26.38c0-6.763,2.035-10.145,4.736-12.853l3.381-1.348V156.944z"/>
	</g>
	<g>
		<path fill="#9260C7" d="M207.523,217.814c-3.381-12.179-12.179-16.234-25.706-11.499l-18.256,9.465l-19.616-2.702
			c-12.853,1.354-19.616,8.118-20.964,20.29c-0.68,11.499,6.763,22.318,22.318,32.463c8.791,4.736,18.937,10.819,32.463,16.909
			l17.582-24.346C206.844,240.132,210.905,226.605,207.523,217.814z"/>
	</g>
	<g>
		<path d="M129.745,214.433c-5.416,4.056-8.797,10.145-10.145,18.936c-0.68,10.145,4.729,20.29,14.874,29.081
			c6.09,4.736,16.234,10.145,29.762,16.908l11.499,6.089l4.735-0.674l18.256-25.705c11.499-18.256,14.88-32.463,12.179-42.608
			c-2.707-7.444-7.443-12.173-13.526-14.881c-10.145-2.708-20.97,0.674-34.497,10.145
			C148.001,208.343,137.182,209.697,129.745,214.433z M126.364,233.369c1.347-6.763,3.381-10.826,6.764-13.527l29.754-1.354
			l2.708-0.674c4.056-2.708,8.118-4.735,12.847-6.763c6.763-3.382,12.18-4.056,16.234-2.708c4.735,1.354,7.437,4.736,9.472,10.819
			l0.674,5.416c0,12.853-9.472,31.109-27.728,54.107l-10.145-5.416c-12.179-5.403-20.29-10.146-26.379-14.875
			c-9.472-6.763-14.201-14.88-14.201-22.998V233.369z"/>
	</g>
	<g>
		<path d="M163.562,213.759c-1.354,0-2.034,0.673-2.034,1.347l-2.028,19.617c0.68,16.234,6.089,32.463,16.908,49.371l2.028,0.68
			l1.354-2.033v-25.7c-2.027-18.263-6.763-32.463-14.88-42.608C164.236,213.079,164.236,213.079,163.562,213.759z M163.562,231.341
			l0.674-10.145c7.437,13.526,12.172,30.435,12.172,52.752v1.354C167.618,259.742,163.562,244.868,163.562,231.341z"/>
	</g>
	<g>
		<path fill="#D96038" d="M279.214,92.692l26.379,2.028l-5.416,8.117c-2.027,6.763-0.674,12.172,4.735,17.582
			c5.409,4.736,18.263,8.118,38.553,8.798l28.408-0.68V-3.349H2.589v53.427l12.853,15.561
			c11.499,10.819,23.672,15.555,36.525,15.555c13.526,0,25.019-4.736,35.164-14.881l10.826-15.555l11.499,3.382l21.637-2.027
			l16.235-14.201c6.763-7.443,15.554-10.826,24.345-12.179l46.67,1.354c19.616,2.702,29.762,7.444,30.435,13.527l-3.382,18.936
			c-1.353,7.437-1.353,13.527,1.354,19.616C250.806,85.929,261.631,89.984,279.214,92.692z"/>
	</g>
	<g>
		<path d="M375.254-3.349c0-2.028-1.354-3.381-3.381-3.381H2.589c-2.702,0-3.382,1.354-3.382,3.381v53.427v2.035l14.881,16.908
			C25.587,79.166,38.44,84.575,51.967,84.575c20.29,0,35.844-9.465,47.343-29.081c14.201,3.382,25.02,3.382,33.817,0l23.672-20.29
			c4.055-3.382,9.464-5.416,14.874-6.09l47.344,2.035c16.908,2.021,25.706,6.083,26.379,10.818v2.028l-2.707,11.499
			c-1.347,6.09-2.028,10.145-2.028,12.854c0,4.055,1.354,8.11,3.383,12.166c5.408,10.825,23.672,16.234,54.787,17.588
			c-2.035,3.381-2.709,6.763-2.709,10.145c0,5.41,2.028,10.145,6.765,14.881c5.408,5.409,18.262,8.791,37.197,9.471l32.464-0.68
			c1.353,0,2.707-1.354,2.707-3.381V-3.349z M306.939,118.392c-2.701-3.382-4.054-6.763-4.054-10.145
			c0-2.028,0.673-4.736,2.707-8.117l2.701-3.382l0.681-3.381c-0.681-1.348-2.035-2.028-3.382-2.028l-30.435-2.027
			c-14.208-2.708-22.998-6.764-25.707-11.5c-2.027-5.409-2.027-12.172,0-20.29c2.035-6.764,2.709-12.173,2.709-16.908
			c-1.354-8.792-13.527-14.207-37.199-16.909c-15.555-2.028-30.436-2.028-43.961-1.354c-6.763,0.673-13.527,3.382-18.263,6.763
			c-3.381,2.708-7.437,6.09-11.499,10.819l-11.493,8.797l-19.616,2.028L99.31,48.057c-2.034-0.68-3.381,0-4.735,1.348
			c-2.027,5.416-5.41,10.145-10.825,14.88c-8.792,8.792-19.61,13.526-31.782,13.526c-10.826,0-22.325-4.062-32.47-12.846
			C13.414,59.549,8.679,54.14,5.971,48.73V0.033h362.521v125.122C335.348,127.183,315.058,125.155,306.939,118.392z"/>
	</g>
	<g>
		<path d="M317.766,108.247c-0.68,1.354,0,2.028,1.354,2.028l6.084,1.354c3.381,0,6.089-1.354,8.117-3.382
			c2.027-1.354,2.707-4.062,2.707-7.444l-3.381-5.402c-5.416-4.063-14.208-5.416-27.054-2.708c-2.034,0-2.707,0.673-2.034,2.028
			c0,1.354,0.68,2.027,2.708,2.027l11.499-0.673c5.409,0,9.465,0.673,12.173,2.028l2.027,3.381c0,1.354,0,3.382-1.354,4.062
			l-10.818,1.348C318.438,106.219,317.766,106.893,317.766,108.247z"/>
	</g>
	<g>
		<path d="M69.549,61.583c0.674-0.681,1.354-2.034,0.674-2.708l-3.382-0.674l-6.763,2.701l-8.11-2.027
			c-2.035-1.354-2.035-4.055,0-8.118c2.027-4.735,9.464-6.083,20.29-4.735c8.111,1.354,16.908,3.382,25.02,6.763
			c1.354,0.674,2.034,0,2.034-0.673c0.674-1.354,0-2.708-0.68-2.708c-6.763-3.382-14.88-5.41-23.672-7.438
			c-14.88-2.034-22.991,0-26.373,6.763c-3.381,6.09-2.708,10.146,0.674,13.527c2.708,2.028,6.09,2.708,10.819,2.028L69.549,61.583z"
			/>
	</g>
	<g>
		<path d="M89.165-3.349c0,11.499-3.381,20.291-8.797,25.026c-3.382,3.382-7.438,4.056-12.847,3.382
			c-16.908-2.035-32.463-2.035-47.343,0.674L1.242,30.468c-0.68,0.68-1.354,1.354-0.68,2.701c0,1.36,0.68,2.034,2.708,1.36
			l17.582-4.742c14.207-2.702,30.436-3.381,45.99-0.674c6.764,0.674,12.18-0.673,15.561-4.055
			c6.763-6.089,10.146-15.561,10.819-28.408l-2.028-2.028C89.839-5.377,89.165-4.703,89.165-3.349z"/>
	</g>
	<g>
		<path d="M147.328-5.377c-0.674,0-2.028,0-2.708,1.348c-4.729,14.207-12.847,22.999-23.671,26.38
			c-6.764,2.708-14.875,2.708-23.672,0l-10.819-4.729c-0.674-1.36-2.028-0.68-2.708,0.673c-0.674,0.674-0.674,2.028,0,2.708
			l13.527,5.403c8.797,2.708,17.588,2.708,25.706,0c11.493-4.056,20.291-13.527,25.7-28.401
			C149.355-4.029,148.682-4.703,147.328-5.377z"/>
	</g>
	<g>
		<path d="M271.776,29.788c7.438,0,13.526,1.361,19.609,3.382c5.409,2.708,8.791,5.416,8.791,8.797c0,2.708-1.347,5.41-5.409,6.763
			c-5.409,3.382-13.527,5.41-23.672,5.41l-20.29-2.027l-1.354-1.354l-1.347,2.028l-2.709-2.028c0.675,2.028,2.028,3.382,3.382,4.736
			c4.056,2.708,11.5,3.382,22.318,3.382c10.825-0.674,18.937-2.708,25.699-6.09c5.416-2.708,7.443-6.09,7.443-10.819
			c0-4.736-3.381-8.797-10.145-12.179c-6.09-2.702-14.207-4.055-22.317-4.055c-7.444,0-13.527,1.354-18.943,4.055
			c-4.056,2.708-6.763,6.763-6.763,10.826c0,1.354,1.354,2.027,2.707,2.027l2.028-2.027c0-3.382,2.027-6.764,6.764-8.118
			L271.776,29.788z"/>
	</g>
	<g>
		<path d="M279.887,55.494c0.68,2.028,2.034,2.028,2.708,2.028l13.526-1.354c6.09,0.674,9.472,1.354,10.818,3.382
			c2.035,2.034,2.035,4.735,0,8.117c-2.027,4.735-6.763,5.41-14.2,4.062c-0.674-0.68-2.027,0-2.707,1.348
			c0,1.354,1.354,2.708,2.033,2.708l7.438,0.673c5.409-0.673,9.472-2.708,10.818-7.437c2.709-4.736,2.709-8.118,0-11.499
			c-3.382-5.409-13.526-6.764-28.4-4.736C279.887,53.459,279.887,54.14,279.887,55.494z"/>
	</g>
	<g>
		<path d="M372.547,50.758l1.353-2.028l-2.026-1.354c-24.353,3.381-39.227,3.381-45.317-1.354l-2.707-4.056
			c-0.674-4.055,0-7.437,2.707-9.471c2.709-2.708,6.091-4.055,10.146-4.055l2.027-1.354l-2.027-2.027
			c-5.41,0-10.146,1.348-13.527,4.729c-2.708,3.382-3.382,7.443-3.382,12.853c0,2.708,2.028,4.736,3.382,6.764L372.547,50.758z"/>
	</g>
	<g>
		<path d="M338.729,52.112c1.354-1.354,0.68-2.035-0.675-2.708c-1.353-0.674-2.027-0.674-2.707,1.354l-2.701,8.118
			c-2.035,5.409-1.354,10.818,1.347,14.874c4.736,7.444,15.562,10.145,32.47,8.797l2.028-2.708l-2.709-1.347
			c-14.88,1.347-25.024-0.681-28.406-6.763c-2.028-2.708-2.028-7.444-1.349-12.853L338.729,52.112z"/>
	</g>
</g>
<path id="PATH77" fill="none" stroke="#000000" stroke-width="3" stroke-miterlimit="100" d="M370.59,585.26H3.92V2.74h366.67
	V585.26L370.59,585.26z"/>
</svg>
