<?xml version="1.0" encoding="utf-8"?>
<!-- Generator: Adobe Illustrator 13.0.0, SVG Export Plug-In . SVG Version: 6.00 Build 14948)  -->
<!DOCTYPE svg PUBLIC "-//W3C//DTD SVG 1.1//EN" "http://www.w3.org/Graphics/SVG/1.1/DTD/svg11.dtd">
<svg version="1.1" id="圖層_1" xmlns="http://www.w3.org/2000/svg" xmlns:xlink="http://www.w3.org/1999/xlink" x="0px" y="0px"
	 width="372px" height="587px" viewBox="0 0 372 587" enable-background="new 0 0 372 587" xml:space="preserve">
<g>
	<g>
		<g>
			<path fill="#FFFFFF" d="M192.309,325.393l-13.811,1.312l-9.864,87.468c-4.602,68.388-0.655,124.946,11.181,171.635l11.835,0.654
				c-4.603-21.038-7.891-48.666-9.207-81.546C178.498,439.813,181.786,380.628,192.309,325.393z"/>
		</g>
	</g>
	<g>
		<g>
			<path d="M194.283,324.068l-1.975-1.31l-13.812,1.31c-1.971,0.662-1.971,1.324-2.629,1.979l-9.206,88.777
				c-4.604,68.395-0.658,124.947,10.522,171.635c0,0.655,0.658,1.979,2.63,1.979l11.834,0.654l1.316-0.654l0.658-2.634
				c-3.945-21.707-7.234-49.32-8.551-81.547c-4.601-64.444-1.313-123.631,9.863-178.211L194.283,324.068z M180.473,329.336
				l8.546-0.654c-7.233,38.133-10.521,79.567-10.521,124.945c0,47.999,3.288,91.405,9.863,130.2l-6.575-0.655
				c-7.889-33.535-11.835-71.683-11.835-117.054C169.951,416.797,173.239,370.764,180.473,329.336z"/>
		</g>
	</g>
	<g>
		<g>
			<path fill="#FFE000" d="M228.479,308.952l-24.33,11.175c-7.234,24.333-18.416,48.666-34.197,74.314l-0.658,17.75
				c22.357-18.412,38.798-41.428,49.979-68.395L228.479,308.952z"/>
		</g>
	</g>
	<g>
		<g>
			<path d="M229.794,306.975l-1.976-0.654l-24.987,11.836l-0.658,1.316c-7.233,23.017-19.07,48.004-34.194,74.309l-0.658,0.662
				l-0.658,17.095l0.658,2.634h3.288c22.358-18.419,39.458-41.436,50.634-69.05l9.864-36.169L229.794,306.975z M206.119,322.104
				l19.07-8.554c-2.631,12.497-6.576,24.994-12.494,37.485c-9.864,21.045-23.018,39.456-40.115,54.58l0.658-10.52
				C188.361,369.447,199.543,344.46,206.119,322.104z"/>
		</g>
	</g>
	<g>
		<g>
			<path fill="#858585" d="M91.695,586.46l24.988,1.979c-1.972-22.361-8.548-46.033-19.07-70.373
				c-21.045-48.659-51.292-79.568-90.094-91.404l10.522,9.864c9.206,9.203,17.757,19.066,25.646,29.593
				C68.679,501.626,85.119,541.082,91.695,586.46z"/>
		</g>
	</g>
	<g>
		<g>
			<path d="M8.177,424.035c-1.313-0.662-1.972,0-3.288,1.31c0,1.316,0,2.633,1.316,3.288l11.178,10.521
				c8.551,8.554,17.099,18.418,24.991,29.593c24.988,34.857,40.77,74.314,46.691,118.37l2.63,1.979l24.988,1.311h2.63l0.658-2.627
				c-3.288-23.017-9.864-46.694-20.387-71.677C77.885,466.118,47.634,435.864,8.177,424.035z M60.128,486.508
				c-11.836-20.39-25.646-37.491-40.112-52.607c30.906,13.807,55.239,41.422,72.993,80.878
				c10.522,23.017,17.099,46.694,20.387,70.373l-19.729-1.323C88.407,548.981,77.226,516.101,60.128,486.508z"/>
		</g>
	</g>
	<g>
		<g>
			<path fill="#858585" d="M2.917,308.291l14.466,19.066c11.839,17.103,23.017,34.858,33.539,54.588
				c33.539,64.443,55.239,132.832,63.79,205.831l27.618,1.316c-1.972-31.57-9.206-67.74-21.7-107.195
				C94.983,403.645,56.185,345.121,2.917,308.291z"/>
		</g>
	</g>
	<g>
		<g>
			<path d="M48.95,384.578c15.782,29.593,28.276,61.149,38.14,92.721c-1.971-20.384-7.234-40.772-16.44-60.502
				c-15.124-34.852-32.881-65.761-53.268-94.037c43.403,35.514,76.284,87.461,99.3,155.194
				c11.839,37.485,19.729,73.654,23.017,108.506l-23.017-1.31c-3.288-30.916-11.836-61.818-24.988-90.102
				c9.864,30.254,16.44,61.163,19.728,93.39l3.288,1.965l27.618,1.322l1.316-0.661l1.316-1.972
				c-1.975-33.536-9.209-69.705-22.361-109.162C96.955,400.355,57.498,342.488,4.23,305.664l-3.288,0.654
				c-0.655,1.311-1.313,1.973,0,3.289l14.469,19.729C27.247,346.432,38.428,364.188,48.95,384.578z"/>
		</g>
	</g>
	<g>
		<g>
			<path fill="#858585" d="M35.798,94.566c18.412,34.197,36.827,80.885,54.581,139.416
				c34.855,117.055,49.979,234.764,45.375,354.457l30.909,3.288c1.972-50.645-1.316-109.828-11.181-176.9
				C135.753,280.669,96.296,174.796,35.798,94.566z"/>
		</g>
	</g>
	<g>
		<g>
			<path d="M37.77,92.595h-3.288c-0.658,0.655-1.313,1.971-0.658,3.288c18.415,35.514,36.827,82.202,53.925,140.732
				c34.853,116.392,49.321,233.453,45.375,351.823c0,1.966,0,2.627,1.975,2.627l31.564,3.287l1.972-0.66l0.658-1.966
				c1.975-52.608-1.972-112.456-11.836-178.879C137.07,278.698,97.613,172.163,37.77,92.595z M106.161,281.986
				C91.695,224.117,73.28,170.853,52.238,122.187c44.716,69.05,75.625,155.85,94.696,260.413
				c11.836,63.79,17.099,126.926,17.099,189.398v16.44l-26.305-2.634l1.313-38.146C139.042,458.881,127.864,370.104,106.161,281.986
				z"/>
		</g>
	</g>
	<g>
		<g>
			<path fill="#858585" d="M231.766,583.827l27.621-1.965c4.602-57.222,26.963-113.117,68.393-169.015
				c21.045-28.271,41.428-49.978,61.155-66.418C325.148,377.34,280.43,426,252.811,492.423
				C239.658,525.965,232.424,556.213,231.766,583.827z"/>
		</g>
	</g>
	<g>
		<g>
			<path d="M259.387,585.15l2.631-2.634c3.945-56.553,26.305-111.795,67.732-167.036c20.387-27.614,40.773-49.977,60.501-67.071
				c1.972-0.661,1.972-2.634,1.317-3.288c-1.317-1.323-2.635-1.323-3.947-0.661c-63.131,30.254-109.164,78.913-136.127,145.991
				c-13.811,34.189-21.7,65.105-22.357,93.376c0,1.323,0,1.323,0.657,1.979l2.63,0.654L259.387,585.15z M235.055,581.201
				c1.315-28.933,9.863-59.849,23.674-92.066c23.676-57.214,61.815-100.613,113.111-130.205
				c-25.649,24.986-48.008,52.607-66.42,82.855c-28.279,46.033-44.72,92.065-48.008,138.099L235.055,581.201z"/>
		</g>
	</g>
	<g>
		<g>
			<path fill="#858585" d="M383.675,166.904c-29.592,14.469-61.156,43.406-94.036,85.49
				c-65.106,85.49-105.877,195.968-121.004,332.757l36.827,1.965c-0.657-40.768,6.576-88.116,21.045-144.015
				C255.439,331.969,308.05,239.903,383.675,166.904z"/>
		</g>
	</g>
	<g>
		<g>
			<path d="M385.646,164.932c-0.654-1.316-1.973-1.316-3.288-1.316c-30.905,16.44-62.474,46.033-95.354,88.778
				c-9.863,13.152-18.412,28.276-24.33,44.062c30.906-49.321,65.104-88.123,103.901-116.399
				c-65.104,69.711-111.794,154.541-140.07,254.498c-15.127,55.897-23.675,105.874-23.675,150.598l-31.564-2.634
				c12.494-112.449,43.4-207.804,91.408-286.063c-51.296,77.597-84.177,172.951-96.67,288.033l0.658,1.972l1.316,0.655l36.825,3.288
				l1.975-1.311l1.313-1.979c0-41.422,7.234-90.088,21.703-144.675c29.594-110.472,81.544-201.883,155.854-274.22V164.932
				L385.646,164.932z"/>
		</g>
	</g>
	<g>
		<g>
			<path fill="#FFFFFF" d="M140.358,232.665l-24.333,44.716l23.017,7.893c11.181-16.44,16.44-29.593,16.44-37.485
				c0.658-5.26-1.972-9.209-7.89-11.836L140.358,232.665z"/>
		</g>
	</g>
	<g>
		<g>
			<path d="M113.395,276.727c0,0,0,0.655,0,1.972l1.316,1.316l23.675,7.231l2.63-0.655c11.178-17.757,16.44-30.248,17.099-38.802
				c0.655-5.26-1.975-9.209-5.921-13.152c-3.288-1.972-7.89-3.943-11.836-4.598l-2.63,1.31L113.395,276.727z M141.016,235.953
				c7.89,1.316,11.836,5.26,11.836,11.181v0.655c0,6.576-5.26,18.418-15.124,34.197l-17.757-5.915L141.016,235.953z"/>
		</g>
	</g>
	<g>
		<g>
			<path fill="#FFFFFF" d="M239.658,210.31l-11.182-1.323l-2.629,23.678c-1.316,17.757-0.658,34.197,0.657,47.35l11.836-3.288
				C237.027,246.479,237.684,224.117,239.658,210.31z"/>
		</g>
	</g>
	<g>
		<g>
			<path d="M228.479,206.36c-1.973,0-2.631,0-2.631,1.972c-0.658,5.921-1.972,14.469-2.63,24.995
				c-1.315,17.75-0.657,33.536,1.313,46.688l1.316,1.972h1.971L239,278.698l1.973-1.972c-1.313-30.248-0.656-52.609,1.315-65.761
				v-2.633l-1.972-0.655L228.479,206.36z M230.452,211.62l7.231,1.316c-1.973,9.203-2.631,23.017-2.631,42.745l0.658,18.412
				l-6.576,2.633c-0.658-6.576-1.316-14.469-1.316-24.333C227.818,241.213,229.137,227.405,230.452,211.62z"/>
		</g>
	</g>
	<g>
		<g>
			<path fill="#9260C7" d="M187.049,301.715l15.782-5.915c1.315-15.13,0.657-29.592-2.63-44.068
				c-2.631-11.174-6.576-21.039-11.182-28.931c-5.26-8.548-9.206-10.525-12.494-7.237c-3.288,1.978-2.63,8.554,0.658,17.763
				c5.26,13.807,7.889,23.671,9.206,28.931C187.049,270.806,187.707,283.958,187.049,301.715z"/>
		</g>
	</g>
	<g>
		<g>
			<path d="M173.897,213.598c-1.975,2.626-3.288,5.915-1.975,9.864c0,2.626,1.316,7.886,4.604,14.462l6.576,24.995
				c1.972,7.886,1.972,21.038,1.316,38.795l1.313,2.626l2.63,0.662l15.127-6.576l1.972-1.972c1.315-15.786,0.658-30.909-2.63-45.378
				c-2.63-9.209-5.26-17.096-9.206-24.988c-3.946-8.548-7.893-13.152-12.494-14.469C178.498,210.965,176.527,211.62,173.897,213.598
				z M177.843,217.541l1.972-0.655c2.63,0.655,5.917,4.598,9.207,11.174c3.945,6.576,6.576,15.13,8.551,24.333
				c1.972,8.548,2.63,17.757,2.63,28.276l-0.658,13.808l-9.864,3.949V286.59l-0.658-24.333l-7.889-26.305l-4.604-15.124
				L177.843,217.541z"/>
		</g>
	</g>
	<g>
		<g>
			<path fill="#9260C7" d="M113.395,272.122l13.811,6.576c9.864-15.779,17.099-31.564,20.387-48.005
				c3.288-14.469,5.26-24.333,4.602-29.592c0-7.893-1.972-11.842-6.576-11.842c-4.602,0-7.89,3.949-9.864,11.842l-4.602,24.988
				C128.522,238.58,122.601,253.71,113.395,272.122z"/>
		</g>
	</g>
	<g>
		<g>
			<path d="M125.889,280.669l3.288-0.655c10.522-16.44,17.757-32.226,21.045-49.321l3.946-26.304c1.313-6.576,0-11.842-1.975-14.469
				c-1.972-1.971-3.943-3.288-6.576-3.288c-5.26,0-8.548,2.626-10.52,7.893c-1.316,3.288-2.633,9.864-3.946,19.073l-2.63,12.491
				c-2.633,11.181-8.551,26.305-17.099,44.717v1.978l1.313,1.311L125.889,280.669z M117.341,270.806
				c8.548-18.412,13.811-33.536,16.44-44.055l1.972-12.498l3.946-15.785c1.316-3.943,3.288-6.576,5.918-6.576l1.975,1.316
				l1.972,7.893l-3.946,28.938c-3.943,15.779-9.864,30.248-19.07,44.71L117.341,270.806z"/>
		</g>
	</g>
	<g>
		<g>
			<path fill="#9260C7" d="M296.214,291.189c1.972-21.039-2.633-35.507-13.812-44.055c-10.521-7.893-21.045-7.893-30.908,0
				c-5.26,4.598-9.206,9.209-12.494,15.124c-7.234,1.316-13.152,3.95-15.782,7.893c-3.946,4.598-5.918,11.836-3.946,21.039
				c0.658,4.611,3.946,8.554,9.864,11.187l23.017,9.203c11.182,5.914,23.018,12.49,34.854,19.729
				C291.609,317.493,294.896,304.341,296.214,291.189z"/>
		</g>
	</g>
	<g>
		<g>
			<path d="M299.502,290.534c1.972-21.7-3.945-36.824-15.127-46.033c-7.234-5.26-15.124-7.231-22.357-5.26
				c-5.918,0.662-11.182,3.95-17.1,9.203l-8.548,10.526c-13.812,4.604-21.045,12.491-21.045,24.988l0.657,7.893
				c0.658,4.604,3.289,7.893,6.576,11.181c3.289,1.972,7.234,3.942,14.469,5.921l13.809,5.915
				c11.182,4.604,22.361,11.181,34.197,19.729h2.63l2.63-1.973C294.896,318.154,298.186,304.341,299.502,290.534z M293.581,283.303
				c0,12.497-2.63,26.96-8.548,43.4c-9.864-5.922-19.729-12.498-32.223-18.412L239,303.031c-5.918-1.979-9.863-3.943-11.836-5.268
				c-2.633-1.965-4.604-4.598-4.604-7.23l-0.658-6.576c0-5.259,1.315-9.864,4.604-13.152c2.631-1.972,6.576-3.943,13.152-5.921
				l1.972-1.31l6.576-7.893c4.604-5.915,9.864-9.864,14.469-10.526c5.918-1.31,11.836,0.662,17.755,5.266
				C288.979,256.998,293.581,267.518,293.581,283.303z"/>
		</g>
	</g>
	<g>
		<g>
			<path d="M237.027,261.596l1.313,1.978c13.812,6.576,25.646,19.729,35.511,39.457c4.604,9.863,8.551,19.729,11.182,28.938
				l1.972,1.965l1.315-2.625c-1.315-34.197-9.863-56.56-24.332-67.079c-5.26-3.288-11.178-5.26-17.754-5.26l-7.894,1.316
				L237.027,261.596z M244.918,262.919c5.918-0.662,11.182,1.31,17.1,4.598c9.863,7.231,17.099,22.361,20.387,46.688
				C273.854,289.879,260.7,272.122,244.918,262.919z"/>
		</g>
	</g>
	<g>
		<g>
			<path fill="#9260C7" d="M114.711,262.258c-7.893-6.576-15.782-9.203-24.333-7.238c-9.864,1.978-16.44,10.526-20.387,24.995
				c-4.601,13.152-5.259,29.592-3.288,48.667c20.387-6.576,36.827-12.498,51.954-17.103l26.305-7.238
				c5.918-2.626,9.206-5.914,9.864-9.864c0.655-5.914-1.975-11.174-7.893-15.777c-5.918-4.604-13.152-6.576-22.358-6.576
				C121.946,268.834,119.313,265.546,114.711,262.258z"/>
		</g>
	</g>
	<g>
		<g>
			<path d="M126.547,268.834c-11.836-14.469-23.675-19.729-36.827-16.44c-11.177,1.972-19.07,11.836-23.671,27.621
				c-3.946,13.807-4.604,30.249-2.633,49.321l1.975,1.973l1.972,0.66l65.761-21.052l17.757-5.914
				c4.602-2.627,6.576-6.576,7.234-10.526c0.655-5.914-1.975-11.829-7.234-17.095C144.962,272.122,136.412,268.834,126.547,268.834z
				 M131.152,305.003l-61.16,19.729l-1.313-13.152c0-15.124,1.972-26.966,6.576-36.169c3.288-9.864,9.206-15.124,16.44-17.102
				c6.576-1.31,14.465,0.662,21.7,5.921l7.893,9.864l3.288,1.316c9.864,0,16.44,1.971,22.358,7.237
				c3.288,3.943,5.26,7.231,4.604,11.83c0,1.979-1.316,3.949-5.263,5.267L131.152,305.003z"/>
		</g>
	</g>
	<g>
		<g>
			<path d="M124.576,270.15c-19.729-2.633-35.51,5.921-47.35,26.305c-6.576,9.863-9.864,21.038-12.494,32.227l1.316,1.965
				c1.313,0.662,1.972,0,2.63-1.311c7.234-13.809,19.07-27.621,34.852-40.112l21.703-15.13l1.313-1.972L124.576,270.15z
				 M71.967,316.184c10.522-28.938,26.305-42.745,46.033-42.745C98.271,286.591,83.144,301.053,71.967,316.184z"/>
		</g>
	</g>
	<g>
		<g>
			<path fill="#9260C7" d="M206.119,283.958l-19.07,6.576c-3.946-3.288-7.892-5.259-13.81-7.231
				c-9.864-2.633-19.07-0.655-24.988,6.576c-7.234,7.23-5.921,19.073,2.63,35.514c5.918,10.521,16.44,25.645,32.222,42.746
				c8.547-7.238,16.44-15.785,24.988-25.649c16.44-18.419,23.675-34.197,21.046-44.724
				C227.818,286.591,219.93,281.986,206.119,283.958z"/>
		</g>
	</g>
	<g>
		<g>
			<path d="M167.979,279.359c-8.551-0.661-16.44,1.965-22.361,7.886c-7.89,8.554-6.576,21.045,1.316,37.485
				c5.918,11.182,17.099,26.967,32.881,46.033l2.63,0.661l2.629-0.661l26.305-26.967c16.439-19.066,23.018-35.507,21.045-46.688
				c-0.658-7.231-3.945-11.836-9.863-13.809c-8.549-4.604-19.729-3.288-34.854,3.288
				C181.131,282.647,174.555,280.015,167.979,279.359z M185.732,293.167h3.288c13.812-6.576,23.676-7.893,30.252-4.604
				c3.945,1.971,5.918,4.604,6.576,9.864v3.288c0,7.893-4.604,19.066-15.783,32.881l-26.962,28.932
				c-23.674-28.271-36.168-48.659-36.168-61.813c0-3.288,1.316-6.576,3.288-9.864c5.918-6.576,13.152-7.893,22.358-5.26
				C177.185,288.563,181.786,289.879,185.732,293.167z"/>
		</g>
	</g>
	<g>
		<g>
			<path d="M187.707,288.563l-1.975,1.316c-7.234,9.864-9.864,25.648-9.206,47.344c0.658,11.188,1.971,21.707,3.946,31.57
				l2.629,1.311l1.972-1.311c5.921-19.729,8.551-38.146,7.893-56.553l-3.288-22.361L187.707,288.563z M186.391,295.8
				c1.972,7.231,2.63,15.117,2.63,23.017c0,12.492-1.973,25.645-5.918,40.768l-2.629-30.902
				C180.473,314.867,182.445,304.341,186.391,295.8z"/>
		</g>
	</g>
	<g>
		<g>
			<path fill="#9260C7" d="M232.424,187.949l-3.945,21.039l11.181,1.323l9.864-17.102c5.918-12.491,5.26-19.728-1.316-21.7
				C240.973,168.875,235.712,174.796,232.424,187.949z"/>
		</g>
	</g>
	<g>
		<g>
			<path d="M248.863,168.22l-9.205,1.31c-4.604,2.633-8.551,10.526-11.182,21.051c-1.972,7.231-2.629,13.808-2.629,17.75
				c0,1.978,0,2.633,2.629,3.288l11.182,1.316l2.63-1.316c10.522-17.095,15.782-29.593,13.151-36.824
				C254.782,172.163,252.152,170.192,248.863,168.22z M246.893,173.48l3.943,3.288v3.288c0,6.576-3.943,15.779-11.836,27.621
				l-7.893-1.317c0.658-5.915,1.975-11.835,3.945-18.412c1.975-7.231,4.604-12.498,7.234-14.469L246.893,173.48L246.893,173.48z"/>
		</g>
	</g>
	<g>
		<g>
			<path fill="#858585" d="M196.913,587.115l34.853-3.288c2.631-55.897,16.44-105.218,40.115-148.618
				c7.893-13.809,16.439-25.648,24.988-36.824l11.181-11.181l-24.987-5.914c-31.567,23.671-55.242,65.1-71.684,124.285
				C203.488,535.168,198.885,562.134,196.913,587.115z"/>
		</g>
	</g>
	<g>
		<g>
			<path d="M232.424,586.46l1.973-2.633c2.633-54.574,15.785-103.896,40.114-146.641c7.234-13.813,15.128-25.649,23.675-36.169
				l11.836-12.498l0.658-1.978l-1.972-2.627l-24.991-5.259l-1.972,0.654c-32.224,23.672-55.897,64.45-72.338,122.976
				c-7.894,28.931-13.152,57.214-15.124,84.828l0.654,1.979l1.976,0.654L232.424,586.46z M199.543,583.827
				c2.63-28.271,8.548-57.862,17.1-88.116c15.781-52.609,38.799-89.439,67.074-111.795l19.073,4.604
				c-14.47,15.125-27.621,34.854-40.115,58.53c-19.729,40.112-30.251,85.49-33.539,134.813L199.543,583.827z"/>
		</g>
	</g>
	<g>
		<g>
			<path fill="#858585" d="M283.063,381.29c15.123,15.117,26.96,36.823,36.823,67.071c4.604,15.13,7.894,28.281,9.864,40.772
				c5.921-28.932,6.576-55.896,0.658-82.202l-11.836-29.593l-9.864,0.662l-5.918,1.965c-4.604-1.31-8.551-1.31-13.812,0
				L283.063,381.29z"/>
		</g>
	</g>
	<g>
		<g>
			<path d="M281.745,378.657l-1.315,1.971l0.657,2.627c14.47,13.813,26.305,36.169,36.169,65.762
				c4.604,14.476,7.894,28.282,9.864,40.118l2.63,2.627l1.975-2.627c6.576-28.932,7.234-55.896,1.313-82.201
				c-3.943-15.778-7.89-26.306-11.836-31.563l-1.972-1.317c-4.604-0.66-10.522,0-17.1,3.288c-3.945-1.315-8.551-1.315-13.811,0
				L281.745,378.657z M301.474,381.945h1.973c5.921-1.979,10.521-3.288,13.811-2.635c9.864,19.073,14.469,41.437,14.469,67.078
				l-1.975,27.621c-9.206-40.772-23.017-71.027-42.087-91.41L301.474,381.945z"/>
		</g>
	</g>
</g>
<path id="PATH77" fill="none" stroke="#000000" stroke-width="3" stroke-miterlimit="100" d="M370.59,585.26H3.92V2.74h366.67
	V585.26L370.59,585.26z"/>
</svg>
