<?xml version="1.0" encoding="utf-8"?>
<!-- Generator: Adobe Illustrator 13.0.0, SVG Export Plug-In . SVG Version: 6.00 Build 14948)  -->
<!DOCTYPE svg PUBLIC "-//W3C//DTD SVG 1.1//EN" "http://www.w3.org/Graphics/SVG/1.1/DTD/svg11.dtd">
<svg version="1.1" id="圖層_1" xmlns="http://www.w3.org/2000/svg" xmlns:xlink="http://www.w3.org/1999/xlink" x="0px" y="0px"
	 width="372px" height="587px" viewBox="0 0 372 587" enable-background="new 0 0 372 587" xml:space="preserve">
<g>
	<g>
		<g>
			<path fill="#858585" d="M131.509-0.626L93.315-1.938c-1.318,13.827,0.656,29.634,7.241,47.409
				c13.17,34.907,40.831,59.93,81.661,76.394c3.293-5.267,5.93-12.509,7.242-21.73c3.293-19.1,1.316-38.856-6.586-60.586
				C175.632,18.474,158.512,5.303,131.509-0.626z"/>
		</g>
	</g>
	<g>
		<g>
			<path d="M115.045,7.284c-1.319-1.325-2.63-0.663-3.293,1.312c-1.318,1.318-1.318,2.637,0.663,3.293l19.756,19.756
				c16.463,20.412,30.946,47.416,44.116,81.661c1.318,1.974,1.981,2.636,3.293,1.974c1.98-0.663,1.98-1.974,1.98-3.292
				c-13.833-36.22-28.978-63.879-44.786-84.291L115.045,7.284z"/>
		</g>
	</g>
	<g>
		<g>
			<path d="M114.389,7.94c-1.974,0-1.974,0-2.637,1.312c-3.948,11.859-4.611,27.003-1.318,44.786c0,1.312,0.663,1.974,1.981,1.312
				c1.312-0.656,1.974-1.312,1.312-2.63c-1.312-10.541-1.312-20.419-0.656-30.297l2.637-12.508
				C115.708,9.252,115.708,7.94,114.389,7.94z"/>
		</g>
	</g>
	<g>
		<g>
			<path d="M131.509,23.747c-1.318-0.662-2.63,0-2.63,1.313l-1.98,20.412c-1.313,13.833-1.975,25.029-1.313,31.615l1.313,1.975
				h1.318l1.974-1.975c-1.312-6.585-1.312-17.782,0-31.615l2.637-19.756C133.483,25.06,132.827,24.403,131.509,23.747z"/>
		</g>
	</g>
	<g>
		<g>
			<path d="M147.316,45.471c-1.318,0-1.974,0-1.974,1.98c-2.637,19.756-3.955,35.563-3.292,48.072c0,1.318,0.656,1.975,1.974,1.975
				c1.974,0,1.974-0.656,1.974-1.975c-0.656-12.508,0.656-28.315,3.292-48.072C149.29,46.134,149.29,45.471,147.316,45.471z"/>
		</g>
	</g>
	<g>
		<g>
			<path d="M161.805,70.5l-2.637,1.974l-1.318,13.171c-0.656,11.196,0,20.418,1.974,28.971l2.637,1.325l1.319-2.636
				c-1.975-7.904-2.637-17.12-1.975-27.66l1.312-13.171L161.805,70.5z"/>
		</g>
	</g>
	<g>
		<g>
			<path d="M135.464,28.352c-0.663,0-1.981,0-1.981,1.318c-0.656,1.318,0,1.974,1.318,2.63l13.833,5.274
				c10.534,4.604,19.756,9.222,26.341,13.827c0.656,1.318,1.312,1.318,2.63-0.656c1.318,0,0.663-1.318,0-2.637
				c-7.904-4.605-16.463-9.878-27.66-13.827L135.464,28.352z"/>
		</g>
	</g>
	<g>
		<g>
			<path d="M153.901,56.012l-1.974,1.974c-0.662,1.318,0,1.981,0.656,2.637l12.515,3.293c7.896,3.292,13.826,6.585,16.463,8.559
				h3.292l-0.662-3.292c-2.63-1.974-8.56-5.267-17.782-8.56L153.901,56.012z"/>
		</g>
	</g>
	<g>
		<g>
			<path d="M172.995,81.035l-7.241-0.656c-1.318,0-1.974,0.656-1.974,1.975l1.974,1.974l6.585,0.656
				c5.267,0.663,9.878,3.292,14.489,6.585l2.631-0.656c0.661-0.656,0.661-1.974-0.656-2.637
				C184.191,84.327,178.924,82.353,172.995,81.035z"/>
		</g>
	</g>
	<g>
		<g>
			<path fill="#FF0000" d="M102.537,102.109c0.656,41.486,5.923,88.902,15.801,142.904c18.438,107.34,49.39,190.975,90.876,251.555
				l131.052-3.948c-50.707-67.165-85.607-152.12-106.685-255.51c-9.877-51.365-15.802-96.15-15.802-135L102.537,102.109
				L102.537,102.109z"/>
		</g>
	</g>
	<g>
		<g>
			<path d="M221.073,102.109c0-1.974-1.317-3.292-3.294-3.292H102.537c-1.318,0-1.981,0.663-3.293,1.318v1.974
				c1.312,42.805,6.586,91.533,16.463,144.878c19.094,107.996,49.391,190.975,90.877,250.906c0.654,1.313,1.975,1.969,2.629,1.969
				l131.052-3.948l2.639-1.977v-3.291c-49.392-65.854-84.954-150.146-105.366-252.216
				C226.996,187.056,221.729,141.621,221.073,102.109z M105.83,105.401h108.656c1.313,46.098,7.242,95.488,19.095,146.852
				c21.075,94.833,54.001,173.856,100.099,237.073l-122.484,3.948c-38.854-55.978-67.833-134.337-86.926-233.117
				C113.727,206.813,107.804,154.792,105.83,105.401z"/>
		</g>
	</g>
	<g>
		<g>
			<path fill="#858585" d="M49.192,456.398c1.974,4.609,3.955,10.533,5.268,18.442l3.292,19.757
				c1.98,5.262,5.273,9.878,9.878,16.463l13.17,16.465l39.512,65.189h52.682c-6.585-6.585-19.755-25.021-38.193-55.313
				c-17.781-27.667-28.971-46.099-31.608-52.685L95.951,464.3l-6.585-19.094l-7.903-12.516L67.63,413.592
				c-4.605-7.24-16.464-36.22-35.558-87.584l-28.316-74.41l-7.247,108.658L49.192,456.398z"/>
		</g>
	</g>
	<g>
		<g>
			<path d="M7.049,250.279l-3.293-1.974l-3.292,3.292L-6.784,359.6v1.967l53.346,96.15c1.975,4.61,3.949,11.854,5.267,21.73
				l2.631,15.808c1.98,5.929,6.585,13.825,15.151,22.395l9.215,11.846l38.856,64.542c0.656,1.312,1.318,1.974,2.63,1.974h52.682
				l3.293-1.974l-0.656-3.949c-6.585-5.931-19.1-24.374-38.194-54.663l-31.608-52.025l-7.248-22.389l-5.923-16.462l-9.222-15.146
				l-13.17-17.782c-3.949-6.585-15.807-35.559-35.564-86.271L7.049,250.279z M58.414,478.137
				c-1.974-11.203-3.955-19.102-5.93-23.712l-52.683-95.487l6.585-91.53C39.313,356.309,59.07,405.697,65,414.912l13.17,19.094
				l8.56,13.171l5.93,15.81l7.897,23.049l27.66,46.753c16.463,27.666,29.634,46.098,37.538,56.639h-43.461l-38.2-63.224
				l-9.878-12.508c-7.241-8.563-11.19-15.146-13.17-19.759L58.414,478.137z"/>
		</g>
	</g>
	<g>
		<g>
			<path d="M51.166,455.743c-6.585-21.074-17.119-50.046-30.946-85.608L0.464,323.381c0-1.324-0.662-1.98-1.98-0.662
				c-1.312,0-1.312,0.662-1.312,1.975l19.093,47.416c13.833,34.9,23.711,63.224,30.953,84.946c0.656,1.324,1.318,1.324,2.637,1.324
				C51.166,457.718,51.166,457.056,51.166,455.743z"/>
		</g>
	</g>
	<g>
		<g>
			<path d="M52.484,416.889l-25.679-69.803L3.756,285.18c-0.662-1.311-1.318-1.974-3.292-1.311
				c-1.318,0.654-1.318,1.311-0.662,2.629l23.048,60.588l25.686,70.458l9.216,30.296c3.955,13.17,6.585,22.387,9.222,26.341
				c2.637,4.611,8.559,11.854,18.437,21.73l12.515,13.17l55.313,84.298c0,1.969,1.318,1.969,2.637,0.657
				c0.656-0.657,1.318-1.319,0.656-1.981l-55.313-85.608l-12.515-13.17l-17.782-20.411l-9.878-25.688L52.484,416.889z"/>
		</g>
	</g>
	<g>
		<g>
			<path d="M72.903,418.206l-2.637,1.976l-0.656,15.808c0,11.188,2.63,19.1,6.585,25.021c5.923,9.879,13.826,16.464,24.36,20.419
				l2.637-0.663c0.656-1.974,0-2.629-1.319-3.292c-9.215-3.293-17.119-9.878-22.386-18.438c-3.955-5.272-5.273-13.17-5.929-23.704
				l0.656-14.495C74.215,419.523,74.215,418.869,72.903,418.206z"/>
		</g>
	</g>
	<g>
		<g>
			<path d="M101.875,507.77c-0.656-1.323-1.318-1.979-2.63-1.323l-28.322,6.586c-1.312,0.663-1.974,1.325-1.312,2.637l1.974,1.981
				l28.315-7.911L101.875,507.77z"/>
		</g>
	</g>
	<g>
		<g>
			<path d="M110.434,520.94c0-1.324-0.656-1.324-1.974-1.324l-27.66,5.93c-1.312,0.655-1.974,1.317-1.312,2.636
				c0,1.313,1.312,1.313,1.975,1.313l27.66-5.923L110.434,520.94z"/>
		</g>
	</g>
	<g>
		<g>
			<path d="M122.949,540.034l-2.636-1.976l-28.315,4.604c-1.318,0.662-1.975,1.325-1.318,2.637c0,1.98,0,1.98,1.98,1.98
				l28.972-4.617L122.949,540.034z"/>
		</g>
	</g>
	<g>
		<g>
			<path d="M132.171,553.867c-0.663-1.325-1.981-1.98-2.637-1.325l-28.316,6.586c-1.318,0-1.975,0.663-1.318,1.981
				c0,1.312,0.656,1.975,2.637,1.312l27.653-6.586C132.171,555.835,132.171,554.523,132.171,553.867z"/>
		</g>
	</g>
	<g>
		<g>
			<path fill="#858585" d="M85.411,231.842c-3.292-54.664-8.56-96.806-15.145-126.44C59.732,57.33,41.95,20.455,18.239-5.23h-38.194
				l2.637,69.802c5.923,40.83,16.463,86.928,32.264,137.636c30.953,102.071,69.809,177.804,117.225,227.194
				c-6.586-19.756-13.833-42.807-21.075-69.803C95.952,306.917,87.386,264.112,85.411,231.842z"/>
		</g>
	</g>
	<g>
		<g>
			<path d="M7.049,24.403c-0.662-1.981-1.981-2.637-3.293-1.981c-1.98,0.663-2.636,1.981-1.318,3.293l13.827,38.856
				c10.541,30.29,17.782,57.957,21.731,83.635l1.98,10.541c9.216,50.046,17.12,89.558,25.679,119.848
				c14.489,54,33.589,100.098,56.638,138.292c1.312,1.318,2.63,1.981,3.292,1.318c1.975-0.662,2.631-2.631,1.313-3.956
				C103.849,375.4,85.411,329.965,70.922,276.62c-8.56-30.952-17.12-70.464-25.023-118.536l-2.631-11.196
				c-3.955-25.023-11.196-53.339-21.737-84.291L7.049,24.403z"/>
		</g>
	</g>
	<g>
		<g>
			<path d="M53.147,69.845c1.313-0.663,1.974-1.325,1.313-2.637C38.658,42.179,22.194,24.403,3.094,11.889h-2.63
				c-0.662,1.318-0.662,2.637,0.656,3.293c4.611,2.637,10.534,7.241,16.463,13.17c12.515,12.515,23.705,25.686,33.583,40.83
				L53.147,69.845z"/>
		</g>
	</g>
	<g>
		<g>
			<path d="M19.558,59.967c-0.656-0.663-1.318-0.663-2.63,0c-0.663,0.656-0.663,1.968,0,2.63
				c21.068,21.074,36.22,38.85,47.41,54.001l2.637,0.656l0.656-3.292C56.44,98.816,39.976,81.035,19.558,59.967z"/>
		</g>
	</g>
	<g>
		<g>
			<path d="M34.703,110.669c-1.312-0.656-1.974-0.656-2.63,0c-0.662,1.318-0.662,1.98,0,2.637
				c14.489,13.17,28.972,29.634,40.831,49.39c0,1.312,1.312,1.974,2.63,0.656c1.318-0.656,1.974-1.974,0.663-2.636
				C63.681,139.646,49.854,123.184,34.703,110.669z"/>
		</g>
	</g>
	<g>
		<g>
			<path d="M44.581,157.422c-1.313-1.312-1.974-1.312-3.293,0c-1.312,0.663-1.312,1.981,0,2.637l15.152,16.463
				c10.534,13.171,19.093,25.686,25.023,36.22l2.63,1.318c1.318-0.663,1.318-1.974,1.318-3.292
				c-6.585-11.196-15.8-23.049-26.341-36.22L44.581,157.422z"/>
		</g>
	</g>
	<g>
		<g>
			<path d="M51.829,198.915h-2.637c-1.318,0.656-1.318,1.975,0,2.637l13.171,17.12c9.222,13.17,16.463,25.023,21.73,34.901
				c0,1.318,1.318,1.318,1.981,1.318l1.312-3.293c-4.604-9.878-12.508-21.074-21.73-34.907L51.829,198.915z"/>
		</g>
	</g>
	<g>
		<g>
			<path d="M63.681,253.572l-0.656,2.63l-2.637-0.656l34.245,50.708l2.63,0.663l1.318-2.638L63.681,253.572z"/>
		</g>
	</g>
	<g>
		<g>
			<path d="M79.488,308.885l-0.662,2.637l-2.63-0.654l26.341,32.928h3.293v-1.98L79.488,308.885z"/>
		</g>
	</g>
	<g>
		<g>
			<path d="M97.926,358.938c-0.663-0.662-1.975-0.662-2.637,0c-1.318,0.664-1.318,1.318,0,2.631L119,385.279
				c1.312,1.316,1.974,1.316,3.292,0v-2.631L97.926,358.938z"/>
		</g>
	</g>
	<g>
		<g>
			<path d="M8.361,31.645c-1.312,0-1.974,0.656-1.974,1.981c-4.611,60.58-5.923,104.703-3.293,132.362l1.974,1.974l1.981-1.974
				c-1.981-27.66-1.318-71.783,3.293-131.707C10.342,32.3,9.68,31.645,8.361,31.645z"/>
		</g>
	</g>
	<g>
		<g>
			<path d="M32.072,102.771c-1.318-0.663-1.975,0-2.637,1.312l-7.241,34.245c-3.955,27.66-5.267,54.658-3.293,80.999
				c0,1.981,0.656,2.637,1.975,1.981l1.974-1.981c-1.974-26.341-0.656-52.684,3.292-79.681l7.248-34.245
				C33.391,104.083,33.391,103.427,32.072,102.771z"/>
		</g>
	</g>
	<g>
		<g>
			<path d="M42.607,152.817c-1.319,0-1.975,0-2.631,1.974l-5.273,34.246c-2.63,26.997-3.292,52.683-1.312,77.043
				c0,1.325,1.312,1.981,2.631,1.981l1.974-2.637c-2.63-23.705-1.974-49.391,0.662-76.388l5.923-33.583L42.607,152.817z"/>
		</g>
	</g>
	<g>
		<g>
			<path d="M52.484,208.793c-1.318,0-1.974,0-1.974,1.974c-0.656,1.318-1.318,11.196-2.637,30.952
				c-0.656,23.048,0,41.486,1.318,54.657c0,1.317,0.663,1.976,1.974,1.976l1.981-1.976c-1.981-13.833-1.981-31.609-0.663-54.657
				l1.975-30.952C54.459,209.449,54.459,208.793,52.484,208.793z"/>
		</g>
	</g>
	<g>
		<g>
			<path d="M66.317,268.062c-1.98-0.656-2.636,0-2.636,1.312l-0.656,25.028c-0.662,17.119,0,28.979,1.312,36.22
				c0.663,1.313,1.98,1.976,2.637,1.976c1.318-0.662,1.974-1.976,1.318-3.293c-1.975-6.584-1.975-18.438-1.975-35.558l1.313-23.71
				L66.317,268.062z"/>
		</g>
	</g>
	<g>
		<g>
			<path d="M82.781,338.52l1.312-14.481c0-1.315,0-1.979-1.312-1.979l-2.637,1.324l-0.656,15.141
				c-0.662,10.539,0,20.418,2.63,28.979l1.974,1.316c1.318,0,1.981-0.662,1.318-2.629C83.437,358.938,82.781,349.061,82.781,338.52z
				"/>
		</g>
	</g>
	<g>
		<g>
			<path d="M99.244,363.549c-0.662,0-1.98,0-1.98,1.975l-1.312,11.197c0,8.559,0.656,15.807,3.292,21.729
				c0,1.317,1.312,1.975,1.975,1.317c1.318,0,1.318-1.317,1.318-1.979c-1.981-5.923-3.293-12.509-2.637-21.067l0.656-10.535
				C100.556,364.859,100.556,363.549,99.244,363.549z"/>
		</g>
	</g>
	<g>
		<g>
			<path fill="#858585" d="M355.41,87.62c-13.17-44.779-37.537-75.075-71.776-89.558l-36.219,1.312
				c-5.929,18.444-9.224,42.148-10.541,69.808c-2.631,56.638,7.249,108.659,28.315,156.73
				c22.393,47.416,48.076,82.973,77.713,104.054c15.145,11.19,26.997,17.12,37.528,19.095
				c-12.508-15.803-25.021-36.884-37.528-64.537c-25.029-54-35.563-111.293-33.591-170.562l17.126,17.781
				c13.826,11.197,26.996,17.782,38.851,19.756C365.951,131.743,362.658,110.669,355.41,87.62z"/>
		</g>
	</g>
	<g>
		<g>
			<path d="M296.143,224.601c-10.533-30.296-16.463-67.834-18.438-111.295c-1.975-31.615-7.24-58.612-16.463-80.343l-13.17-24.367
				l-3.293-0.656c-1.318,1.312-1.318,3.292-0.655,3.949l13.17,23.048c7.897,21.737,13.171,48.078,14.481,78.369
				c2.638,44.779,9.223,82.317,19.101,113.263c13.827,42.149,36.875,79.686,67.827,109.982c1.319,1.969,3.294,1.969,3.956,0
				c1.313-0.662,1.313-1.98,0-3.293C331.706,302.962,309.313,266.743,296.143,224.601z"/>
		</g>
	</g>
	<g>
		<g>
			<path d="M248.07,11.232c0.656-1.318,0-1.98-0.655-2.637l-2.638,0.656c-1.976,2.637-3.948,7.248-5.93,13.17
				c-3.293,11.859-4.604,26.342-3.947,44.13c0,1.312,0,1.968,1.974,1.968l1.317-1.968c0-17.125,1.975-31.615,5.269-42.805
				L248.07,11.232z"/>
		</g>
	</g>
	<g>
		<g>
			<path d="M263.216,39.548c-1.975-1.318-2.631-0.662-2.631,0.663c-3.292,5.26-5.929,12.508-9.222,21.068
				c-5.93,17.782-9.877,35.563-10.534,52.683c0,1.318,0.657,2.637,1.313,2.637l2.637-2.637c0.656-16.463,4.609-33.583,9.878-51.364
				c3.292-8.56,6.585-15.146,9.222-20.418C264.533,40.867,264.533,39.548,263.216,39.548z"/>
		</g>
	</g>
	<g>
		<g>
			<path d="M273.756,83.015c0.656-1.325,0.656-2.637-1.316-2.637c-1.318,0-1.976,0-2.637,0.656l-8.562,26.341
				c-5.931,21.074-8.56,40.168-8.56,57.293c0,1.318,0.653,1.974,1.975,1.974l1.974-1.974c0-16.463,3.293-35.557,8.562-55.975
				C267.827,98.816,270.464,90.257,273.756,83.015z"/>
		</g>
	</g>
	<g>
		<g>
			<path d="M277.049,135.036c-0.662,0-1.98,0-2.637,1.318c-6.585,21.73-9.879,46.098-9.879,73.095c0,1.318,0.656,2.637,1.976,2.637
				l1.974-2.637c0-16.463,1.981-32.927,5.273-50.046l4.604-21.075C278.359,136.354,278.359,135.698,277.049,135.036z"/>
		</g>
	</g>
	<g>
		<g>
			<path d="M284.945,192.33c-1.313,0-1.975,0-1.975,1.313c-1.318,0.662-1.976,8.565-1.976,21.736
				c-1.318,16.463,0,31.608,3.292,45.441l2.637,1.312c1.313,0,1.313-0.656,1.313-1.975c-3.293-13.833-3.948-28.315-3.948-44.779
				l2.637-21.074C286.926,192.986,286.926,192.33,284.945,192.33z"/>
		</g>
	</g>
	<g>
		<g>
			<path d="M306.683,254.891l-2.637-2.637c-0.655,0-1.316,1.319-1.316,2.637l0.661,17.119c1.313,13.17,3.292,23.705,5.924,30.952
				c0,1.317,1.316,1.976,1.975,1.317c1.979,0,1.979-1.317,1.979-1.979c-2.637-7.897-4.609-17.776-5.929-30.946L306.683,254.891z"/>
		</g>
	</g>
	<g>
		<g>
			<path d="M330.387,297.695c-0.653,0-1.315,0.656-1.974,1.974l0.656,9.879c0,7.247,1.315,13.171,3.954,19.093l1.975,1.325
				l1.318-2.637c-1.981-5.272-3.293-11.196-3.955-18.444v-9.216L330.387,297.695z"/>
		</g>
	</g>
	<g>
		<g>
			<path d="M297.461,73.793c1.974,0,2.636-1.319,1.318-2.637c-7.247-16.463-17.127-30.945-30.297-43.46l-17.774-14.489l-2.638,0.662
				c-0.655,0.656-0.655,1.968,0,2.631l17.119,13.833c13.17,11.846,23.049,26.997,29.635,42.804
				C296.143,73.793,296.805,74.45,297.461,73.793z"/>
		</g>
	</g>
	<g>
		<g>
			<path d="M303.391,113.306c-6.586-17.782-15.152-34.245-25.029-48.734l-12.508-17.12c-1.318-1.318-1.976-1.318-2.638,0
				c-1.319,0.657-1.319,1.313,0,1.975l11.853,17.125c9.223,13.826,17.781,30.29,24.366,48.065c1.319,0.663,1.319,1.981,2.639,1.325
				L303.391,113.306z"/>
		</g>
	</g>
	<g>
		<g>
			<path d="M274.412,91.568c-0.656-1.312-1.318-1.312-2.637-0.656c-0.656,1.318-1.313,1.981-0.656,2.637l11.854,17.775
				c7.902,13.17,13.832,24.374,17.781,33.589c0,1.318,0.655,1.318,2.637,1.318l0.655-2.637c-3.292-9.878-9.222-20.412-17.12-33.583
				L274.412,91.568z"/>
		</g>
	</g>
	<g>
		<g>
			<path d="M278.359,142.939c-0.655-1.318-1.975-0.656-3.293,0.656c0,1.319,0,1.98,1.318,2.637l8.561,8.559
				c7.904,8.56,13.834,17.782,19.101,29.635c0,0.663,1.318,1.318,2.637,0.663c0.656-0.663,1.313-1.325,0.656-2.637
				c-5.268-11.197-11.196-21.737-19.101-29.635L278.359,142.939z"/>
		</g>
	</g>
	<g>
		<g>
			<path d="M284.945,189.037h-2.631c-1.317,0.656-0.662,1.974,0.656,3.292l9.223,7.242c7.239,7.241,12.509,14.489,17.118,23.705
				l2.638,0.662c1.316,0,1.976-1.318,0.656-2.63c-4.611-9.222-10.534-17.126-17.781-24.374L284.945,189.037z"/>
		</g>
	</g>
	<g>
		<g>
			<path d="M302.728,246.987c-1.316,0-1.974,0-2.631,1.318c0,1.312,0,1.974,1.313,2.637l7.901,3.949l17.782,13.827
				c0.655,1.318,1.977,1.318,2.639,0c0.653-0.656,0.653-1.975,0-2.637l-18.444-14.483L302.728,246.987z"/>
		</g>
	</g>
	<g>
		<g>
			<path d="M327.095,292.421c-0.654,0-1.975,0.662-2.637,1.325l1.98,2.631l8.56,2.63c5.923,1.325,11.196,3.955,13.827,7.247
				l2.637,0.663c0.655-0.663,1.317-1.325,0.655-3.292c-3.948-3.293-8.562-6.585-15.146-9.225L327.095,292.421z"/>
		</g>
	</g>
	<g>
		<g>
			<path d="M275.066,13.207l-3.291,0.662c-0.656,1.313-0.656,2.631,0,3.949l34.242,32.927
				c24.367,28.315,40.177,59.268,48.734,90.876c0.656,1.318,1.318,1.974,3.293,1.318c1.317,0,1.977-1.318,1.977-3.293
				c-8.562-32.271-25.688-62.561-50.048-92.195L275.066,13.207z"/>
		</g>
	</g>
	<g>
		<g>
			<path d="M311.949,51.401c-1.318,0-1.976,1.318-1.976,2.637v19.756c0.655,15.145,2.632,29.634,5.925,41.486
				c0.661,1.318,1.316,1.318,2.637,1.318c1.317,0,1.975-1.318,1.316-2.637c-3.292-11.853-5.929-25.023-5.929-40.168V54.038
				C313.925,52.719,313.268,51.401,311.949,51.401z"/>
		</g>
	</g>
	<g>
		<g>
			<path d="M332.361,81.035c-1.318,0-1.977,0.656-1.977,1.98l0.656,17.775c1.318,13.827,2.637,25.686,5.929,35.563
				c0,0.656,0.657,1.312,2.64,1.312c0.654-0.656,1.312-1.312,0.654-2.63c-2.637-9.878-3.947-21.074-5.268-34.245l-0.663-17.775
				L332.361,81.035z"/>
		</g>
	</g>
	<g>
		<g>
			<path d="M310.631,33.625l-16.462-1.981c-1.319,0-2.637,0.656-2.637,2.637c0,0.656,1.317,1.313,2.637,1.313l16.462,1.98
				c12.518,1.974,23.704,5.267,33.583,11.19l3.292-0.656l-0.655-2.637C336.316,39.548,323.802,35.594,310.631,33.625z"/>
		</g>
	</g>
	<g>
		<g>
			<path d="M317.217,57.986c-1.975-0.656-2.637,0-2.637,1.318c-0.655,1.318,0,1.975,1.318,1.975l14.486,4.611
				c10.534,3.292,19.756,6.585,27.66,9.878c0.655,1.318,1.977,0.663,1.977-1.318l-0.657-1.975
				c-7.247-3.955-17.124-7.247-28.321-10.54L317.217,57.986z"/>
		</g>
	</g>
	<g>
		<g>
			<path d="M336.316,85.646c-1.981,0-2.639,0-2.639,1.318c-0.654,1.312,0,1.974,0.655,3.292l9.879,3.292l15.15,8.56
				c0.655,0.663,1.975,0,2.632-1.318c0.662-0.656,0-1.974-0.657-1.974c-3.292-2.63-8.56-5.267-15.145-8.56L336.316,85.646z"/>
		</g>
	</g>
</g>
<path id="PATH77" fill="none" stroke="#000000" stroke-width="3" stroke-miterlimit="100" d="M370.59,585.26H3.92V2.74h366.67
	V585.26L370.59,585.26z"/>
</svg>
