<?xml version="1.0" encoding="utf-8"?>
<!-- Generator: Adobe Illustrator 13.0.0, SVG Export Plug-In . SVG Version: 6.00 Build 14948)  -->
<!DOCTYPE svg PUBLIC "-//W3C//DTD SVG 1.1//EN" "http://www.w3.org/Graphics/SVG/1.1/DTD/svg11.dtd">
<svg version="1.1" id="圖層_1" xmlns="http://www.w3.org/2000/svg" xmlns:xlink="http://www.w3.org/1999/xlink" x="0px" y="0px"
	 width="372px" height="587px" viewBox="0 0 372 587" enable-background="new 0 0 372 587" xml:space="preserve">
<g>
	<g>
		<path fill="#858585" d="M150.419,624.701c21.234-76.69,24.777-142.168,11.797-197.624c-3.537-17.11-9.436-32.446-16.516-44.833
			l-8.849-14.159c-15.929,4.718-33.039,17.698-52.505,38.346c-38.934,40.705-69.02,99.697-89.666,175.794L150.419,624.701z"/>
	</g>
	<g>
		<path d="M138.621,365.723c-0.588-0.588-1.77-1.174-2.95-0.588c-16.518,5.898-35.396,18.878-54.274,39.527
			C42.464,445.955,12.378,504.947-8.27,581.637c-0.591,1.77,0.591,2.952,1.771,3.537c2.355,0.594,2.95,0,4.128-1.769
			c19.469-70.79,46.015-126.245,81.41-166.357c19.466-23.004,38.932-38.346,56.63-46.015c6.487,8.851,12.385,20.648,17.697,35.396
			c8.849,25.958,12.979,55.454,12.979,89.074c0,38.938-5.899,82.002-18.878,128.014v1.182c0,1.181,1.181,2.361,2.362,2.95
			c1.768,0.588,3.537-0.589,3.537-1.77c20.647-77.281,24.778-142.762,12.386-198.215c-3.538-17.105-9.437-33.034-16.516-46.015
			C145.7,373.984,142.158,368.672,138.621,365.723z"/>
	</g>
	<g>
		<path fill="#FFE700" d="M129.771,391.682l11.799-15.335c5.899-10.624,5.312-17.11-1.77-19.474
			c-7.667-1.769-11.798,3.544-11.798,15.93C128.002,379.295,128.59,385.783,129.771,391.682z"/>
	</g>
	<g>
		<path d="M147.469,361.598c-0.588-2.949-2.95-5.313-7.669-6.493c-3.542-1.182-7.08-0.588-10.029,1.769
			c-4.719,5.313-5.899,17.111-1.769,35.396l1.769,2.361l2.362-1.181C144.519,379.884,149.832,368.672,147.469,361.598z
			 M133.309,360.417l5.312-1.181l4.131,3.537l0.588,1.774c0,4.718-3.539,12.386-11.799,21.82l-1.182-12.972
			C130.358,366.317,130.952,362.186,133.309,360.417z"/>
	</g>
	<g>
		<path d="M130.952,389.319c-1.769,0-2.95,0-2.95,1.773c-22.416,66.067-45.425,140.4-67.841,224.757
			c-0.591,1.77,0,2.362,1.181,2.949l2.95-1.768c15.335-54.862,33.033-115.034,53.68-179.926
			c-13.566,58.397-28.315,118.571-44.831,181.106v0.587c0,1.182,0.587,2.362,1.768,2.362c1.769,0,2.358,0,2.949-1.772
			c22.416-83.765,40.701-159.278,54.862-227.119C132.72,391.094,132.133,389.913,130.952,389.319z"/>
	</g>
	<g>
		<path d="M110.306,380.471c-1.77,0-2.362,1.181-2.362,2.362l2.362,10.617c1.769,7.669,5.305,15.931,10.03,23.011
			c0.587,1.769,1.768,1.769,2.949,1.18c1.769-1.18,1.769-1.773,0.588-2.95c-3.537-7.673-7.08-14.748-8.849-22.421l-2.362-9.437
			C112.662,381.064,112.074,380.471,110.306,380.471z"/>
	</g>
	<g>
		<path d="M93.788,394.631c-1.774,0-2.362,0.59-2.362,2.362c1.181,4.126,2.95,10.025,5.899,18.287
			c4.131,12.978,8.261,23.595,12.98,31.265l3.537,0.591c1.181,0,1.768-1.772,1.181-2.949c-4.718-7.674-9.437-17.697-13.567-30.677
			l-5.312-17.697C95.557,394.631,94.964,394.044,93.788,394.631z"/>
	</g>
	<g>
		<path d="M75.497,412.916c-1.768,0.594-2.355,1.774-1.768,2.951l5.899,18.291c5.899,14.154,13.567,27.729,21.829,40.701
			l4.131,0.593c0.587-0.593,1.175-1.77,0.587-3.543c-8.849-11.798-15.929-25.364-21.828-39.52l-6.488-17.11
			C77.859,413.51,76.679,412.916,75.497,412.916z"/>
	</g>
	<g>
		<path d="M57.8,435.925c-1.768,0-1.768,1.182-1.768,2.95l11.21,25.959c8.256,17.698,17.105,32.445,24.772,43.063h3.542
			c1.181-0.594,1.181-1.77,0-2.95c-7.667-10.616-15.929-24.191-24.778-43.063L60.75,437.106
			C60.162,435.925,58.982,435.338,57.8,435.925z"/>
	</g>
	<g>
		<path d="M51.901,487.837c8.849,19.466,18.878,37.164,30.676,51.912l2.95,0.594c1.181-1.181,1.181-2.361,0.591-3.544
			c-11.208-14.748-21.237-31.852-30.086-51.317l-10.618-24.777c0-1.183-1.769-1.77-2.95-1.183c-1.768,0.59-1.768,1.183-1.768,2.951
			L51.901,487.837z"/>
	</g>
	<g>
		<path d="M73.729,570.427l2.95,0.592c1.181-0.592,1.768-1.18,0.591-2.95c-9.44-13.572-20.057-31.271-31.267-52.505l-14.154-28.908
			c-1.181-1.175-1.771-1.769-3.542-1.175c-1.178,0.588-2.355,1.769-1.178,2.951l14.158,29.495
			C53.082,539.749,63.699,557.447,73.729,570.427z"/>
	</g>
	<g>
		<path d="M66.062,598.154l2.95,0.588c1.768-0.588,1.768-2.355,0.588-3.536c-12.387-14.75-24.186-33.628-34.802-56.043
			l-13.57-30.085c0-1.181-1.18-1.774-2.951-1.181c-1.179,0.589-1.771,1.77-1.179,2.95l12.977,30.084
			C41.284,563.939,53.082,583.405,66.062,598.154z"/>
	</g>
	<g>
		<path d="M149.832,392.27c-5.9,8.261-14.749,15.342-25.959,21.83c-1.769,1.181-1.769,1.768-1.181,3.541
			c1.181,1.175,1.77,1.175,3.542,0.589c11.799-6.488,21.235-14.749,27.134-23.009c1.18-1.175,1.18-2.357-0.588-2.951H149.832z"/>
	</g>
	<g>
		<path d="M156.905,412.329c-14.154,14.748-27.134,25.958-40.114,32.445c-1.769,0.589-1.769,1.771-0.587,3.537
			c0,1.182,1.768,1.775,2.949,0.593c12.98-6.493,26.547-18.291,41.295-33.038c1.181-1.176,1.181-2.951,0-3.537H156.905
			L156.905,412.329z"/>
	</g>
	<g>
		<path d="M163.397,438.287c-13.566,12.973-31.264,24.772-53.092,35.395c-1.181,0.589-1.77,1.176-1.181,2.95
			c1.181,1.176,1.768,1.769,2.95,1.176c23.009-11.206,40.707-23.005,54.273-36.572c1.769-0.592,1.769-1.772,0-2.949L163.397,438.287
			L163.397,438.287z"/>
	</g>
	<g>
		<path d="M166.935,466.01c-23.596,19.472-44.832,32.444-64.298,40.706c-1.774,0.587-2.362,1.77-1.181,3.536
			c0.587,1.183,1.769,1.774,2.95,0.594c19.466-7.668,41.295-21.241,65.479-41.295c1.18-0.593,1.18-1.77,0.593-2.95
			C169.296,465.421,168.116,464.834,166.935,466.01z"/>
	</g>
	<g>
		<path d="M168.116,494.33l-21.235,15.922c-17.698,12.394-34.807,22.422-52.505,28.91c-1.769,0.587-1.769,1.769-1.182,3.536
			c1.182,1.182,1.77,1.182,2.951,0.593c17.111-6.493,34.807-16.516,53.093-28.908l21.828-16.518c1.181-0.587,1.181-2.361,0-3.535
			C170.478,493.149,169.296,493.149,168.116,494.33z"/>
	</g>
	<g>
		<path d="M166.935,523.826c-28.903,20.054-56.042,35.982-80.228,46.601c-1.769,0.592-2.361,1.768-1.181,2.949
			c0.591,1.769,1.181,2.361,2.951,1.769c24.778-11.204,51.324-26.545,80.82-47.781c1.769-0.587,1.769-1.768,1.181-3.536
			C169.296,522.646,168.116,522.646,166.935,523.826z"/>
	</g>
	<g>
		<path d="M164.579,548.599l-25.959,18.877c-21.234,14.159-41.295,23.597-58.993,30.678c-1.769,0-2.36,1.18-1.182,2.95
			c0,1.18,1.182,1.769,2.951,1.18c18.291-6.493,38.344-17.11,59.585-31.265l26.546-19.472c1.175-0.588,1.175-1.769,0-2.949
			L164.579,548.599L164.579,548.599z"/>
	</g>
	<g>
		<path fill="#858585" d="M323.857,250.102c-9.441-16.517-19.474-31.265-30.678-42.476l-13.567-12.386
			c-14.16,9.437-28.907,28.315-43.656,54.862C207.047,304.375,192.3,373.984,192.3,460.11l-46.6-2.357v38.933
			c1.769,33.04,8.848,69.023,21.828,106.187h199.393V460.11C366.92,373.984,352.76,304.375,323.857,250.102z"/>
	</g>
	<g>
		<path d="M327.394,250.102c-9.436-17.111-19.467-31.265-30.676-43.064l-15.337-14.159c-1.18-0.589-2.36-0.589-3.543,0
			c-15.334,11.209-30.671,29.494-44.831,56.635c-28.909,53.093-43.657,122.109-43.657,207.06l-18.285-2.36l-25.365,0.591
			c-1.182,0-2.362,1.182-2.95,2.357v40.705c1.768,33.034,9.437,68.429,22.416,106.188c0,1.18,1.181,2.361,2.361,2.361h199.393
			l2.354-1.182l1.182-2.361V460.11C370.457,373.984,355.709,303.782,327.394,250.102z M233.007,262.487
			c14.158-28.902,29.495-49.55,46.605-63.71c17.105,14.16,33.032,34.807,46.601,63.71c25.365,52.505,37.757,117.984,37.757,197.624
			v139.812H169.884c-14.749-43.65-22.416-83.77-22.416-120.342c0-6.492,0.587-12.979,1.18-19.471l43.064,2.95l2.361-1.176
			l1.174-1.773C195.249,380.471,207.642,314.992,233.007,262.487z"/>
	</g>
	<g>
		<path fill="#FFE700" d="M271.939,202.907c1.773,7.08,4.724,12.979,7.674,19.467c3.537-6.488,5.899-12.387,7.668-19.467
			c2.951-12.979,1.182-19.466-7.668-19.466C271.353,183.442,268.99,189.929,271.939,202.907z"/>
	</g>
	<g>
		<path d="M279.612,181.079c-4.724,0-7.674,1.769-9.441,5.313c-2.356,4.13-2.356,11.204,0.592,21.234
			c1.77,5.899,4.126,11.211,7.074,15.929c0,1.181,0.593,1.181,1.773,1.181l1.77-1.181l7.081-15.929
			c3.536-10.031,3.536-17.105,1.176-21.234C287.28,182.848,283.738,181.079,279.612,181.079z M285.513,188.159l1.175,5.899
			c0,5.313-2.95,12.979-7.075,23.01c-4.724-10.031-7.08-17.697-7.08-23.01l1.77-5.899c0.587-1.181,2.951-1.768,5.312-1.768
			C282.563,186.392,284.33,186.979,285.513,188.159z"/>
	</g>
	<g>
		<path fill="#FFE700" d="M143.931,466.603c5.307,4.132,11.799,7.08,18.285,9.437c-1.768-7.08-3.537-13.567-7.081-19.467
			c-6.487-11.798-12.385-14.746-18.877-9.437C129.771,453.036,132.72,459.521,143.931,466.603z"/>
	</g>
	<g>
		<path d="M134.489,445.362c-2.95,2.949-4.131,6.491-3.538,10.622c1.181,7.075,11.799,14.749,30.676,22.415l2.357-0.592l1.181-2.356
			c-5.9-19.467-12.979-30.677-20.647-33.039C141.57,441.236,138.032,442.412,134.489,445.362z M143.931,447.136
			c2.95,1.176,5.9,4.125,8.849,10.025l5.899,14.748c-14.161-5.898-22.421-11.798-23.009-17.105v-0.591
			c0-2.358,0.587-3.539,2.361-5.308C139.801,447.136,141.57,446.544,143.931,447.136z"/>
	</g>
	<g>
		<path d="M281.97,222.374c0-1.769-1.183-1.769-2.357-1.769c-1.774,0-2.36,0-2.36,1.769c-5.313,79.051-7.67,168.127-7.67,266.644
			l1.181,74.328c-22.421-15.922-46.604-35.396-73.151-58.992l-33.626-29.495l-2.95-0.588c-0.588,0.588-1.182,2.361-0.588,3.537
			l31.266,37.17c26.545,29.495,55.452,55.449,86.124,77.277l1.183,1.18h1.181l1.18-1.18c31.265-21.828,60.173-47.781,86.721-77.277
			l30.67-37.17c0.594-1.77,0.594-2.95,0-3.537l-3.536,0.588l-33.628,29.495c-26.546,23.596-50.73,43.07-72.559,58.992l0.59-74.328
			C289.638,390.501,286.688,301.425,281.97,222.374z M274.302,569.839l1.18-2.364l-0.593-78.458
			c0-70.202,1.774-143.348,4.725-220.039c3.537,76.691,4.717,149.837,4.717,220.039l-0.591,78.458l1.773,2.364h1.769
			c24.779-17.697,54.861-41.295,89.67-71.974c-29.496,34.809-61.941,64.304-96.749,90.259
			c-35.983-25.953-68.429-56.043-97.337-90.259c32.445,28.91,61.941,53.095,89.076,71.974H274.302z"/>
	</g>
	<g>
		<path d="M256.017,216.474c-1.774,0-1.774,1.181-1.774,2.95l5.313,10.03c4.132,7.668,10.03,14.747,17.11,21.828
			c1.174,1.18,2.356,1.18,3.537,0c0.587-1.181,0.587-2.362,0-3.542c-6.488-6.487-12.387-13.567-17.11-20.647l-4.126-9.436
			C258.373,215.886,257.192,215.886,256.017,216.474z"/>
	</g>
	<g>
		<path d="M242.443,235.353c-1.77,1.181-2.356,1.769-1.177,3.538l10.619,17.11c8.255,12.387,15.929,22.415,23.003,29.496
			l3.543-0.588c1.181-1.181,1.181-2.361-0.594-2.95c-6.485-7.08-14.747-16.522-22.415-28.908l-10.03-16.518
			C244.805,235.353,243.624,234.766,242.443,235.353z"/>
	</g>
	<g>
		<path d="M231.239,261.899c-0.593-1.769-1.181-2.361-2.949-1.181c-1.183,1.181-1.183,1.77-0.595,3.543l11.799,16.517
			c10.623,13.567,21.829,25.364,34.809,36.575l2.95-0.594c0.586-1.181,0.586-1.768,0-3.536
			c-12.389-10.616-23.598-22.415-34.215-35.395L231.239,261.899z"/>
	</g>
	<g>
		<path d="M237.724,312.629l-18.283-23.003l-2.951-0.593c-1.181,1.182-1.181,2.363-0.593,3.543l18.292,23.003
			c14.153,17.11,27.133,30.09,38.344,38.938c1.771,1.181,2.95,0.588,3.539-0.594c1.181-0.587,1.181-2.354-0.591-3.535
			C264.271,342.127,251.292,329.74,237.724,312.629z"/>
	</g>
	<g>
		<path d="M207.048,317.942c-0.587,1.181-1.175,2.361,0,3.536l17.697,23.597c15.342,17.698,31.271,33.039,47.194,45.426l2.949-0.589
			c1.184-1.181,1.184-1.769,0-3.544c-15.923-11.798-31.263-26.545-46.598-44.243l-17.698-23.598L207.048,317.942z"/>
	</g>
	<g>
		<path d="M199.975,349.8c-1.182,0.589-1.182,1.77,0,2.95l23.003,26.545c18.292,19.469,34.215,34.805,48.376,46.014h3.535
			c0.593-1.18,0.593-2.361-0.587-3.543c-14.159-11.798-30.085-27.134-47.78-46.014l-23.011-25.951L199.975,349.8L199.975,349.8z"/>
	</g>
	<g>
		<path d="M195.844,375.752c-1.182,1.183-1.182,1.771-0.595,3.543l22.423,27.136c18.285,20.646,35.982,37.756,53.681,49.556h2.95
			c0.586-1.773,0.586-2.95-0.59-3.542c-17.109-12.389-34.219-28.315-52.504-48.964l-21.829-27.133
			C198.199,374.571,197.024,374.571,195.844,375.752z"/>
	</g>
	<g>
		<path d="M192.894,404.662c-1.181,0.586-1.181,1.769-0.593,2.949l25.372,31.264c18.872,21.235,36.571,36.576,53.681,46.606
			c1.181,0.588,2.36,0,2.949-1.182c0.588-1.181,0.588-2.361-0.589-3.544c-16.521-8.848-34.219-24.77-53.093-46.011l-24.776-29.497
			C195.249,403.479,194.662,403.479,192.894,404.662z"/>
	</g>
	<g>
		<path d="M191.125,438.875c-1.773,0.589-1.773,2.361-0.593,2.952l22.415,28.907c19.473,20.647,38.345,36.569,58.405,47.194
			c1.18,1.175,2.95,1.175,3.536-0.594c0-1.181,0-2.355-1.176-3.537c-19.471-10.617-38.344-26.547-57.223-46.605l-21.828-27.728
			C194.074,438.287,192.299,437.694,191.125,438.875z"/>
	</g>
	<g>
		<path d="M304.979,219.424c0-1.769,0-2.95-1.18-2.95h-2.363l-0.589,1.181c-4.13,10.03-11.21,20.059-21.234,30.083
			c-1.181,0.594-1.181,2.362,0,3.542c1.175,1.18,1.769,1.18,2.95,0C293.18,240.666,301.436,230.041,304.979,219.424z"/>
	</g>
	<g>
		<path d="M317.958,238.891c1.176-1.77,0.587-2.357-1.182-3.538c-1.181-0.587-2.36,0-2.951,1.181
			c-10.617,19.467-21.239,34.803-33.038,45.425c-1.175,0.588-1.175,1.769,0,2.949l2.951,0.589
			C295.536,274.286,307.335,258.95,317.958,238.891z"/>
	</g>
	<g>
		<path d="M327.982,261.899l-11.798,15.93c-10.025,12.979-21.235,24.778-33.622,35.395c-1.773,1.77-1.773,2.355-0.593,3.536
			l3.543,0.594c20.055-17.696,35.982-35.395,46.013-53.092c1.182-1.775,1.182-2.363-0.592-3.543
			C329.756,259.538,327.982,260.13,327.982,261.899z"/>
	</g>
	<g>
		<path d="M325.033,315.579l18.29-23.003c1.182-1.18,1.182-2.361-0.595-3.543l-2.948,0.593
			c-19.466,26.547-38.345,47.195-56.042,60.761c-1.176,1.181-1.176,2.949-0.588,3.536l3.537,0.594
			C297.899,345.669,310.284,332.689,325.033,315.579z"/>
	</g>
	<g>
		<path d="M348.63,318.527l-17.698,23.598c-15.335,17.698-30.671,32.445-46.602,44.243c-1.18,1.775-1.18,2.363-0.591,3.544
			c1.181,1.77,2.362,1.77,3.542,0.589c16.519-12.387,31.854-27.728,47.195-45.426l17.697-23.597
			c1.181-1.175,1.181-2.355-0.593-3.536C350.403,317.354,349.222,317.354,348.63,318.527z"/>
	</g>
	<g>
		<path d="M359.84,352.75c0.587-1.181,0.587-2.361-0.589-2.95h-3.543c-24.777,30.084-48.374,53.68-70.79,71.965
			c-1.181,1.182-1.181,2.363-0.59,3.543h3.54C310.284,407.017,334.475,382.833,359.84,352.75z"/>
	</g>
	<g>
		<path d="M285.513,452.443c-1.774,0.593-1.774,1.77-0.594,3.543h3.543c17.105-11.799,35.396-28.909,53.092-49.556l21.825-27.136
			c1.18-1.772,1.18-2.36,0-3.543l-3.538,0.595l-21.829,27.133C319.727,424.128,302.616,440.056,285.513,452.443z"/>
	</g>
	<g>
		<path d="M286.101,480.756c-1.771,1.183-2.362,2.363-1.182,3.544c0.594,1.182,1.771,1.77,3.543,1.182
			c16.517-10.03,34.215-25.371,53.68-46.606l24.778-31.264c1.181-1.181,0.588-2.363-0.594-2.949
			c-1.175-1.183-2.355-1.183-2.949,0.586l-24.186,29.497C319.727,455.986,302.028,471.908,286.101,480.756z"/>
	</g>
	<g>
		<path d="M285.513,513.796c-1.183,1.182-1.774,2.356-1.183,3.537c1.183,1.77,2.357,1.77,3.538,0.594
			c19.467-10.625,39.525-26.547,57.813-47.194l23.008-28.908c0.588-0.59,0.588-2.362-0.588-2.951
			c-1.774-1.181-2.361-0.588-2.95,0.589l-22.423,27.727C323.857,487.249,304.979,503.179,285.513,513.796z"/>
	</g>
	<g>
		<path d="M181.095,455.986c-1.181,0-1.768,1.175-1.768,2.949l0.587,35.395c0,1.77,1.181,2.95,2.951,2.95
			c1.181,0,2.362-1.181,2.362-2.95l-1.182-36.576C183.452,456.572,182.864,455.986,181.095,455.986z"/>
	</g>
	<g>
		<path d="M207.642,458.935c-1.181,0-1.77,1.176-1.77,2.355l1.175,19.466c0,14.749,0,26.547-1.175,35.989
			c0,1.77,1.175,2.357,2.356,2.357c1.768,0.593,2.362,0,2.362-1.77c1.181-10.031,1.181-21.829,1.181-36.577l-1.181-20.052
			C209.996,459.521,209.41,458.935,207.642,458.935z"/>
	</g>
	<g>
		<path d="M234.775,486.657l-2.355-2.952c-1.181,0-1.773,0.594-1.773,1.183l-0.588,1.77l-1.769,48.967
			c0,1.175,0.586,2.357,2.355,2.357l2.949-1.771L234.775,486.657z"/>
	</g>
	<g>
		<path d="M253.065,551.548v-50.144c0-1.175-1.18-2.355-2.36-2.355c-1.77,0-2.363,1.181-2.363,2.95v48.962
			c0,1.182,0,2.362,1.774,2.362C251.886,553.322,253.065,552.729,253.065,551.548z"/>
	</g>
	<g>
		<path d="M178.146,498.454c1.768,0,2.356-0.589,2.356-2.355c0-1.182-0.588-1.769-2.356-1.769l-32.445-2.95
			c-1.769,0-2.95,0-2.95,1.77v1.768l1.769,0.588l10.029,1.774L178.146,498.454z"/>
	</g>
	<g>
		<path d="M200.561,519.103l-53.092-2.95c-1.769,0-2.362,0.592-2.362,1.774c-0.587,1.769,0.594,2.95,2.362,2.95l53.092,2.949
			c1.181,0,2.363-0.593,2.363-1.773C202.924,520.283,201.741,519.103,200.561,519.103z"/>
	</g>
	<g>
		<path d="M221.209,544.474l2.949-1.774c0-1.769-1.181-2.95-2.361-2.95l-70.197-1.175c1.181,0,1.77,1.175,1.77,2.356
			c0,1.769-0.588,2.361-1.77,2.361L221.209,544.474z"/>
	</g>
	<g>
		<path d="M153.955,565.119c0,1.175,0.593,2.355,2.363,2.355l33.032,1.771c24.19,0.594,44.244,0.594,58.405-1.176
			c1.181,0,2.361-0.594,2.361-2.36c0-1.77-1.181-2.363-2.951-2.363c-14.159,1.181-33.625,1.773-57.816,0.594l-33.033-1.181
			C154.548,562.759,153.955,563.346,153.955,565.119z"/>
	</g>
	<g>
		<path d="M307.335,500.817l-1.176,20.06c-1.181,13.566-1.181,24.77-0.592,31.265c0,1.768,1.18,2.355,2.36,2.355
			c1.77,0,2.356-1.175,2.356-2.95c-0.588-6.487-0.588-17.104,0-30.67l1.775-19.474c0-1.77-0.594-2.95-1.775-2.95
			C307.928,498.454,307.335,499.049,307.335,500.817z"/>
	</g>
	<g>
		<path d="M330.932,535.624l-1.175-49.556c0-1.77-1.181-2.363-2.362-2.363c-1.769,0-2.36,0.594-2.36,1.775l0.592,50.73l2.95,1.771
			C330.344,537.981,330.932,536.799,330.932,535.624z"/>
	</g>
	<g>
		<path d="M346.272,463.653l-0.591,56.042c0,1.182,1.18,2.355,2.949,2.355c1.18,0,2.36-1.174,2.36-2.949l0.59-55.449
			c0-1.77-1.176-2.363-2.95-2.363C347.454,461.29,346.272,461.885,346.272,463.653z"/>
	</g>
	<g>
		<path d="M345.681,531.493c-0.59,1.181,0,2.355,1.18,2.95l19.466,11.204c1.182,0.594,2.362,0,2.95-1.768
			c0.593-1.182,0-2.356-0.588-2.95l-19.467-10.03C348.041,529.726,346.272,529.726,345.681,531.493z"/>
	</g>
	<g>
		<path d="M327.982,549.191c-0.589,1.182-0.589,2.356,0.593,2.951l11.797,5.899c9.437,3.536,18.286,5.898,26.548,7.668l2.354-1.77
			c0.594-1.77,0-2.95-1.768-2.95c-7.668-1.182-15.93-3.543-25.366-7.668l-11.212-4.724
			C329.756,547.424,328.575,547.424,327.982,549.191z"/>
	</g>
	<g>
		<path d="M308.517,566.295c-1.182,1.181-0.59,1.774,1.18,2.951l15.337,7.673c12.978,5.307,26.545,9.437,41.293,13.568
			c1.774,0,2.95,0,2.95-1.182c0.593-1.769,0-2.95-1.175-2.95c-14.748-4.131-28.32-8.261-41.295-14.16l-15.341-7.074
			C310.284,563.939,309.696,564.526,308.517,566.295z"/>
	</g>
</g>
<path id="PATH77" fill="none" stroke="#000000" stroke-width="3" stroke-miterlimit="100" d="M370.59,585.26H3.92V2.74h366.67
	V585.26L370.59,585.26z"/>
</svg>
