<?xml version="1.0" encoding="utf-8"?>
<!-- Generator: Adobe Illustrator 13.0.0, SVG Export Plug-In . SVG Version: 6.00 Build 14948)  -->
<!DOCTYPE svg PUBLIC "-//W3C//DTD SVG 1.1//EN" "http://www.w3.org/Graphics/SVG/1.1/DTD/svg11.dtd">
<svg version="1.1" id="圖層_1" xmlns="http://www.w3.org/2000/svg" xmlns:xlink="http://www.w3.org/1999/xlink" x="0px" y="0px"
	 width="372px" height="587px" viewBox="0 0 372 587" enable-background="new 0 0 372 587" xml:space="preserve">
<g>
	<g>
		<rect width="372" height="587" fill="#FFFFFF" fill-opacity="1.0"/>
	</g>
	<path id="PATH1" fill="#F93419" stroke="#000000" stroke-width="3" d="M338,219.5l-10,12c-41-72-60-83-88.5-117.5l25.5,8.5
		C291,168,299.5,174,338,219.5z"/>
	<path id="PATH2" fill="#F93419" stroke="#000000" stroke-width="3" d="M450,429l-78,0.5c-18.5-70.5-3.5-124-43.5-204.5
		c4-52.5-14-110.5-44.98-177.73C279.5,31,281.5,18,272-2.5h72c-2.5,16,1,23.5,8,31c16.5,75,12,86.5,44.51,182.75
		C410.5,333,428,353,450,429z"/>
	<path id="PATH3" fill="none" stroke="#000000" stroke-width="3" stroke-miterlimit="100" d="M364.44,222.9
		c-19.45,4.13-35.631,5.51-36.15,3.08c-0.521-2.43,14.83-7.75,34.28-11.89c19.449-4.13,35.63-5.51,36.149-3.08
		C399.24,213.44,383.89,218.76,364.44,222.9z"/>
	<path id="PATH4" fill="none" stroke="#000000" stroke-width="3" stroke-miterlimit="100" d="M317.44,39.9
		c-19.45,4.13-35.631,5.51-36.15,3.08c-0.521-2.43,14.83-7.75,34.28-11.89c19.449-4.13,35.63-5.51,36.149-3.08
		C352.24,30.44,336.89,35.76,317.44,39.9z"/>
	<path id="PATH5" fill="none" stroke="#000000" stroke-width="3" stroke-miterlimit="100" d="M408.44,422.9
		c-19.45,4.13-35.631,5.51-36.15,3.079c-0.521-2.43,14.83-7.75,34.28-11.89c19.449-4.13,35.63-5.51,36.149-3.08
		C443.24,413.44,427.89,418.76,408.44,422.9z"/>
	<path id="PATH6" fill="#427E41" stroke="#000000" stroke-width="3" d="M158.5,137.5c-34.5,2.5-39.5,1.5-75-5
		c30.5-15.5,21-14,57-22.5c38.5-9.5,45.5-17.5,91,5C203.5,113,228.5,132,158.5,137.5z"/>
	<path id="PATH7" fill="#427E41" stroke="#000000" stroke-width="3" d="M193,250c-40-9.5-37-20.5-81.5-40.5c30.5-15.5,60-18,95.5-11
		c32.5,6.5,28,6,68,44.5C236.5,247,231,259,193,250z"/>
	<path id="PATH8" fill="#427E41" stroke="#000000" stroke-width="3" d="M290,369c-25.5-9-20-2-57.5-22c28.5-6,34-16.5,71-8.5
		c12,2.5,48,24,68,54.5C346.5,385,330,383.5,290,369z"/>
	<path id="PATH9" fill="#427E41" stroke="#000000" stroke-width="3" d="M328,440c-18-12-42-32-66.5-60c35.5-3,59.5,9,77,21.5
		c19,13.5,47.5,41.5,55.5,76C369,469.5,350.5,455,328,440z"/>
	<path id="PATH10" fill="#B35443" stroke="#000000" stroke-width="3" d="M190.5,509.5c-8.5-19.5-15-26-14-82.5
		c29,26.5,49.5,45,53,66c5.5,29.5-1,61.5,5.5,97C210,543,200.5,532.5,190.5,509.5z"/>
	<path id="PATH11" fill="#B35443" stroke="#000000" stroke-width="3" d="M116,500c6.5-20,5-21,35.5-75c15,17.5,12,46.5,7.5,67.5
		c-6,29-19,57-30,95C104,540.5,107.5,525.5,116,500z"/>
	<path id="PATH12" fill="#427E41" stroke="#000000" stroke-width="3" d="M293.5,499c-21.5-34-24-49-27-82.5c31,7.5,53,36,62,53
		c33,63,1.5,19.5,37.5,91C320.5,514.5,320,540.5,293.5,499z"/>
	<path id="PATH13" fill="#427E41" stroke="#000000" stroke-width="3" d="M144,1.5c-20.5-35-25-37.5-35.5-66
		C156-50.5,163-46.5,180-15c18.5,33.5,23.5,47,25,95C161.5,34,160.5,29.5,144,1.5z"/>
	<path id="PATH14" fill="#427E41" stroke="#000000" stroke-width="3" d="M-7,78.5C-33,48-37,38-47.5,9.5C6.5,43,14,29.5,32,52
		c35,44,13.5,26,36,87C14,99.5,15,104-7,78.5z"/>
	<path id="PATH15" fill="#427E41" stroke="#000000" stroke-width="3" d="M69.5,57.5C41.5,37.5,36.5,43,2,15c36,0.5,56-6,84,9
		c34,18,38.5,34,41.16,65.11C107.33,69.25,95,76,69.5,57.5z"/>
	<path id="PATH16" fill="#427E41" stroke="#000000" stroke-width="3" d="M228.5-1c2.5-19.5,5.5-20,20-50c10.5,17,15,19.5,14.5,55
		c-0.5,27.5-6.5,38.5-22,67C222.5,37,226,19.5,228.5-1z"/>
	<path id="PATH17" fill="none" stroke="#000000" stroke-width="3" stroke-miterlimit="100" d="M276,243c0,0-26.86-6.95-43-11
		c-23.02-5.78-38.21-10.39-61.5-15c-16.96-3.36-28.22-6.86-45.5-7.5c-10.13-0.37-27,1-27,1"/>
	<path id="PATH18" fill="none" stroke="#000000" stroke-width="3" stroke-miterlimit="100" d="M123,206.5c0,0,19.57-4.21,31.5-4.5
		c14.35-0.34,23.99,1.37,38,4.5c13.48,3.01,22.17,6.37,35,11.5c17.75,7.1,45.5,23,45.5,23"/>
	<path id="PATH19" fill="none" stroke="#000000" stroke-width="3" stroke-miterlimit="100" d="M119,213c0,0,24.96,8.87,40,14
		c18.13,6.18,29.609,12.86,48.5,16c17.58,2.92,29.7,1.77,47.5,1c5.82-0.25,15.5-1,15.5-1"/>
	<path id="PATH20" fill="none" stroke="#000000" stroke-width="3" stroke-miterlimit="100" d="M6,171c0,0,21.22,21.34,33,35
		c23.51,27.27,33.32,50.03,56,78c9.47,11.67,13.94,21.54,26,30.5c15.38,11.43,29.69,11.87,48,17.5c21.21,6.52,35.46,11.439,57.5,14
		c13.05,1.52,21.99-0.3,35,1.5c16.71,2.311,27.66,5.689,43.5,11.5c15.59,5.72,25.46,10.97,40,19c10.39,5.74,27,16.5,27,16.5"/>
	<path id="PATH21" fill="none" stroke="#000000" stroke-width="3" stroke-miterlimit="100" d="M395.5,479c0,0-24-23.6-39.5-36.5
		c-16.17-13.46-27.81-21.38-45-33.5c-15.68-11.06-25.85-18.96-42.5-28.5c-9.9-5.67-17.17-8.22-27-14c-11.3-6.64-17.27-13.65-29-19.5
		c-12.74-6.35-36-12-36-12"/>
	<path id="PATH22" fill="none" stroke="#000000" stroke-width="3" stroke-miterlimit="100" d="M365.5,561c0,0-36.85-47.06-56.5-77
		c-10.99-16.75-16.69-28.96-28-45.5c-9.23-13.5-17.23-21.2-26-35c-6.12-9.64-11.779-15.54-15-26.5c-1.45-4.94-2.5-13.5-2.5-13.5"/>
	<path id="PATH23" fill="none" stroke="#000000" stroke-width="3" stroke-miterlimit="100" d="M270,427.5c0,0,10.52,28.15,19,44
		c7.88,14.72,13.32,24.67,24,37.5c7.8,9.37,13.92,14.85,23,23c5.65,5.07,15.5,13,15.5,13"/>
	<path id="PATH24" fill="none" stroke="#000000" stroke-width="3" stroke-miterlimit="100" d="M271,419c0,0,21.24,21.39,32.5,35.5
		c13.4,16.79,22.69,28.14,32,47.5c4.38,9.1,5.77,15.83,10,25c2.63,5.71,7.5,15,7.5,15"/>
	<path id="PATH25" fill="none" stroke="#000000" stroke-width="3" stroke-miterlimit="100" d="M151.5,388c0,0,15.64,23.37,24,38
		c14.311,25.05,22.99,42.44,33,69.5c8.52,23.05,12.439,39.07,18,63c2.73,11.75,6.5,31.5,6.5,31.5"/>
	<path id="PATH26" fill="none" stroke="#000000" stroke-width="3" stroke-miterlimit="100" d="M126,581c0,0-5.06-29.34-4-47
		c1.32-21.97,8.34-35.729,14-57c3.76-14.11,7.04-23.31,10.5-37.5c2.27-9.33,4.49-15.45,5.5-25c0.97-9.14,0-24.5,0-24.5"/>
	<path id="PATH27" fill="none" stroke="#000000" stroke-width="3" stroke-miterlimit="100" d="M129.5,576c0,0,1.8-28.64,5-45.5
		c3.3-17.38,8.86-28.18,12.5-45.5c2.93-13.94,5.08-23.29,6-37.5c0.63-9.73,0-26,0-26"/>
	<path id="PATH28" fill="none" stroke="#000000" stroke-width="3" stroke-miterlimit="100" d="M-13,42c0,0,20.9,17.27,31.5,29.5
		c10.49,12.11,15.13,22,24.5,35c10.11,14.03,27.5,37,27.5,37"/>
	<path id="PATH29" fill="none" stroke="#000000" stroke-width="3" stroke-miterlimit="100" d="M3.5,16c0,0,28.71,8.55,45,16
		c14.43,6.59,23.79,11.71,37,20.5c5.37,3.57,14,10,14,10"/>
	<path id="PATH30" fill="none" stroke="#000000" stroke-width="3" stroke-miterlimit="100" d="M28,19c0,0,19.2-1.69,30,1.5
		c11.04,3.26,17.44,8.4,26.5,15.5c12.87,10.09,18.46,20.1,28.5,33c5.85,7.52,15,20.5,15,20.5"/>
	<path id="PATH31" fill="none" stroke="#000000" stroke-width="3" stroke-miterlimit="100" d="M238,115c0,0-23.76-1.65-38-1
		c-22.39,1.03-36.93,5.63-59,9.5c-20.86,3.66-55.5,10.5-55.5,10.5"/>
	<path id="PATH32" fill="none" stroke="#000000" stroke-width="3" stroke-miterlimit="100" d="M231.5,109c0,0-17.08-16.56-25.5-28
		c-14.811-20.13-17.609-37.76-29-60c-10.1-19.71-13.93-34.9-28-52c-12.42-15.09-39.5-34-39.5-34"/>
	<path id="PATH33" fill="none" stroke="#000000" stroke-width="3" stroke-miterlimit="100" d="M240.5,108.5c0,0,0.07-28.15,1-45
		c0.939-16.92,2.641-28.11,4-45c1.25-15.55,2.83-25.9,3-41.5c0.09-8.44-0.5-22.5-0.5-22.5"/>
	<path id="PATH34" fill="none" stroke="#000000" stroke-width="3" stroke-miterlimit="100" d="M224.5,93.5c0,0,1.54-25.21-3.5-39
		c-4.109-11.24-17-27-17-27"/>
	<path id="PATH35" fill="#427E41" stroke="#000000" stroke-width="3" d="M114,350c-4-27-11-47-5.5-91.5c26,29.5,32.5,31.5,41,66
		c10,40.5-2,61-11.5,109C120,376,118,377.5,114,350z"/>
	<path id="PATH36" fill="none" stroke="#000000" stroke-width="3" stroke-miterlimit="100" d="M137,433.5c0,0,2.08-34.75,0.5-55.5
		c-1.87-24.5-5.34-40.721-11.5-64.5c-4.99-19.29-11.16-31.311-16.5-50.5c-3.57-12.84-5.6-21.5-8.5-34.5
		c-1.38-6.17-3.5-16.5-3.5-16.5"/>
	<path id="PATH37" fill="#427E41" stroke="#000000" stroke-width="3" d="M167,317.5c-20.5-35-25-37.5-35.5-66
		c47.5,14,54.5,18,71.5,49.5c18.5,33.5,23.5,47,25,95C184.5,350,183.5,345.5,167,317.5z"/>
	<path id="PATH38" fill="none" stroke="#000000" stroke-width="3" stroke-miterlimit="100" d="M228,399c0,0-8.99-32.53-18-50.5
		c-9.09-18.13-17.57-28.98-30-45c-13.18-16.99-23.44-27.15-38.5-42.5c-7.9-8.04-13.72-12.85-21.5-21
		c-13.87-14.54-20.07-27.02-34.5-41c-14.09-13.65-23.96-22.78-41-32.5c-10.72-6.11-17.95-10.85-30-13.5c-3.52-0.77-9.5-1.5-9.5-1.5"
		/>
	<path id="PATH39" fill="#B35443" stroke="#000000" stroke-width="3" d="M233,458c-16.5-12.5-36.5-25-49.5-62c37,6,48.5,19,65.5,31
		c21.5,15.5,51.5,45,58,80.5C274,490,257.5,476.5,233,458z"/>
	<path id="PATH40" fill="none" stroke="#000000" stroke-width="3" stroke-miterlimit="100" d="M157,389c0,0,8.59-0.74,13.5,0.5
		c6.27,1.58,9.53,5.05,15,8.5c13.21,8.32,20.41,16.13,32.5,26c14.96,12.2,24.51,20.83,39.5,33c10.05,8.16,19.21,11.16,27,21.5
		c5.9,7.84,11.5,23.5,11.5,23.5"/>
</g>
<path id="PATH77" fill="none" stroke="#000000" stroke-width="3" stroke-miterlimit="100" d="M370.59,585.26H3.92V2.74h366.67
	V585.26L370.59,585.26z"/>
</svg>
