<?xml version="1.0" encoding="utf-8"?>
<!-- Generator: Adobe Illustrator 13.0.0, SVG Export Plug-In . SVG Version: 6.00 Build 14948)  -->
<!DOCTYPE svg PUBLIC "-//W3C//DTD SVG 1.1//EN" "http://www.w3.org/Graphics/SVG/1.1/DTD/svg11.dtd">
<svg version="1.1" id="圖層_1" xmlns="http://www.w3.org/2000/svg" xmlns:xlink="http://www.w3.org/1999/xlink" x="0px" y="0px"
	 width="372px" height="587px" viewBox="0 0 372 587" enable-background="new 0 0 372 587" xml:space="preserve">
<g>
	<g>
		<g>
			<path fill="#858585" d="M198.987,475.033l-9.99,5.991c-7.331,4.663-11.325,11.324-12.658,17.984
				c-1.997,7.987-1.333,14.648,3.331,21.309l6.66,8.001l9.327-3.33c6.661-4.671,11.324-9.991,12.651-17.992
				c2.003-6.66,0.67-14.647-3.33-21.972L198.987,475.033z"/>
		</g>
	</g>
	<g>
		<g>
			<path d="M197.654,473.03l-9.991,5.997c-7.323,5.327-12.657,11.987-13.984,19.318c-2.667,7.987-1.333,15.312,3.33,23.312
				l7.324,9.321l1.997,0.67c1.997,0,5.997-2.003,11.324-4.67c6.66-5.321,11.324-11.318,13.321-18.642
				c1.997-8.001,0.663-15.988-3.33-23.982l-6.661-10.661L197.654,473.03z M206.312,500.336l-0.663,6.66
				c-1.997,9.328-8.658,15.325-18.648,18.655c-5.998-5.334-9.328-11.324-9.328-19.981l0.664-5.334
				c2.666-9.321,9.327-16.651,19.981-21.973C203.651,485.688,206.312,492.349,206.312,500.336z"/>
		</g>
	</g>
	<g>
		<g>
			<path d="M186.33,526.314c-1.997-0.663-2.66,0.664-2.66,2.004l-2.668,13.321c-0.662,1.99,0,2.66,1.998,3.33l2.666-2.667
				l2.661-13.321C188.327,527.648,187.663,526.979,186.33,526.314z"/>
		</g>
	</g>
	<g>
		<g>
			<path fill="#858585" d="M229.624,509l-8.658,7.987c-5.327,6.661-7.993,13.991-7.323,21.322c0,7.323,2.66,13.984,7.987,19.981
				l8.664,5.99c2.66-1.333,5.327-4,7.987-6.66c5.997-5.99,8.664-12.651,7.994-19.312c0-8.001-2.66-14.661-8.657-21.322L229.624,509z
				"/>
		</g>
	</g>
	<g>
		<g>
			<path d="M230.957,506.996c-1.333-0.663-1.997-0.663-3.33,0c-1.997,1.341-4.664,4.001-8.657,8.664
				c-5.327,7.324-8.658,14.648-7.994,22.649c0,8.65,3.33,15.312,9.327,21.972c2.66,2.667,5.99,4.67,9.321,6.661h1.997l9.327-7.988
				c5.997-5.997,8.657-13.321,7.994-20.645c-0.67-8.664-3.331-15.988-8.658-22.649C236.284,510.327,232.954,508.337,230.957,506.996
				z M216.303,538.31L216.303,538.31c0-9.991,4-17.992,13.321-25.979c9.327,7.324,13.991,15.988,13.991,25.979l0,0
				c0,5.99-2.004,11.317-5.997,15.981l-7.324,7.33C220.966,556.288,216.303,548.3,216.303,538.31z"/>
		</g>
	</g>
	<g>
		<g>
			<path d="M232.954,564.281c0-1.996-1.333-2.66-2.66-2.66c-2.004,0-2.667,1.327-2.667,3.33l0.663,13.321l2.667,1.991
				c1.997,0,3.33-0.664,3.33-1.991L232.954,564.281z"/>
		</g>
	</g>
	<g>
		<g>
			<path fill="#858585" d="M117.063,544.3l7.324,8.657c5.997,5.997,12.657,9.328,20.646,9.328c7.33,1.326,13.99-1.334,19.981-6.661
				l6.661-7.324l-5.328-9.327c-5.326-5.334-11.987-8.664-19.312-9.327c-7.331-0.664-13.991,2.003-21.315,7.324
				C121.721,538.973,119.724,541.64,117.063,544.3z"/>
		</g>
	</g>
	<g>
		<g>
			<path d="M124.388,533.639c-3.994,3.331-7.324,5.997-9.327,8.664c-0.664,1.327-0.664,2.667,0,3.33l7.994,9.328
				c6.66,6.66,13.99,9.99,21.314,9.99c8.658,0.664,15.988-1.34,22.648-6.66l7.324-9.327v-2.004l-6.66-9.99
				c-5.328-5.991-12.658-9.321-19.982-9.991C139.705,526.979,131.711,528.981,124.388,533.639z M120.394,544.97
				c2.661-3.33,5.991-5.997,9.321-8c5.327-3.331,11.324-5.321,17.321-4.657c9.321,0.663,16.651,5.997,21.979,15.317
				c-5.997,9.321-13.991,12.651-23.981,12.651C135.042,559.618,127.055,554.291,120.394,544.97z"/>
		</g>
	</g>
	<g>
		<g>
			<path d="M172.346,544.97c-1.334,0-2.668,0.663-2.668,2.66s0.67,2.66,1.998,2.66l19.317,1.341l2.667-0.67l0.664-1.997
				c0-1.334-0.664-2.004-2.667-2.667L172.346,544.97z"/>
		</g>
	</g>
	<g>
		<g>
			<path d="M65.105,370.454c0-1.99-1.327-2.66-3.33-1.99c-1.327,0-1.997,1.99-1.327,3.33l13.321,30.637
				c11.318,24.639,25.973,47.951,42.624,69.936c51.951,71.264,117.894,121.218,197.158,147.86c1.326,1.34,2.66,0,3.33-1.326
				c0.663-2.004,0-3.331-2.004-3.331c-77.924-27.306-143.202-75.27-194.484-146.533c-16.651-21.985-30.643-44.627-41.967-68.609
				L65.105,370.454z"/>
		</g>
	</g>
	<g>
		<g>
			<path fill="#D96038" d="M55.115,335.824l-7.988,0.663c-3.33,1.334-5.334,2.667-5.334,4.664c-1.326,3.33,0,7.994,2.004,13.991
				c3.33,5.99,6.66,9.991,11.988,13.321l7.323,2.66l1.997-6.66c2.004-5.991,1.334-11.988-1.327-17.322
				C60.448,340.481,58.445,337.151,55.115,335.824z"/>
		</g>
	</g>
	<g>
		<g>
			<path d="M46.457,333.82c-4.664,1.341-6.66,4.001-7.994,7.331c-0.663,3.33,0,8.657,3.33,15.318
				c3.33,5.997,6.661,11.324,12.658,14.654l7.994,2.66l2.66-1.327l3.33-7.993c1.334-5.991,0.67-12.651-1.996-18.648
				c-3.331-6.661-6.661-11.325-9.992-12.658L46.457,333.82z M43.797,344.481c0-2.66,1.326-4.663,4.657-5.99l5.333-0.67
				c2.66,1.333,4.658,4.663,7.324,9.99c1.997,3.331,2.667,6.661,2.667,10.661l-2.003,9.321c-6.66-1.334-11.318-5.991-14.648-13.321
				C45.123,350.473,43.797,347.142,43.797,344.481z"/>
		</g>
	</g>
	<g>
		<g>
			<path d="M65.775,403.757c-1.997-1.326-2.667-1.326-4,0.67c-0.664,1.334-0.664,2.661,1.333,3.331l20.651,13.991l3.331-0.671
				c1.327-1.333,1.327-2.66,0-3.33L65.775,403.757z"/>
		</g>
	</g>
	<g>
		<g>
			<path fill="#D96038" d="M31.803,385.115c-1.327,3.33-1.997,5.99-1.327,7.987c0.663,2.667,3.993,5.997,9.991,9.991
				c4.656,3.994,10.654,4.664,16.651,4.664l6.66-1.997l-0.67-7.324c-2.66-5.334-5.99-9.991-11.324-13.321
				c-5.327-3.33-9.991-4.67-13.321-4.67C35.803,381.115,33.806,382.448,31.803,385.115z"/>
		</g>
	</g>
	<g>
		<g>
			<path d="M29.806,384.445c-2.661,3.33-2.661,6.66-1.997,9.991c1.334,3.33,4.664,7.33,10.654,10.66
				c5.997,3.994,11.994,5.321,18.655,5.321l7.987-1.99l2.004-2.667c0-8.664-5.334-16.651-13.992-22.648
				c-5.99-3.994-11.324-5.328-14.654-5.328C35.133,378.455,31.803,380.445,29.806,384.445z M61.775,404.427
				c-6.66,1.997-13.321,0.67-19.982-3.33c-5.99-4-8.657-7.33-8.657-9.991l1.333-4l3.994-3.993c2.667-0.664,6.66,1.333,11.994,4.663
				C56.447,391.105,59.778,397.097,61.775,404.427z"/>
		</g>
	</g>
	<g>
		<g>
			<path d="M85.088,443.721c-1.328-1.327-1.998-0.663-3.331,0.67c-1.327,1.997,0,3.33,1.333,4l23.313,9.991
				c1.334,0.663,2.667,0,3.33-1.34c0.67-1.99,0.67-2.66-1.333-3.33L85.088,443.721z"/>
		</g>
	</g>
	<g>
		<g>
			<path fill="#D96038" d="M49.124,431.069c-1.333,3.33-1.997,6.661-0.67,7.994c1.333,2.667,5.333,5.327,11.994,8.657l16.651,0.67
				c3.33-0.67,5.327-1.34,6.66-2.666l-2.003-6.661c-3.33-4.664-7.987-8.664-13.321-11.324c-6.66-2.66-11.317-3.33-14.648-2.66
				C51.784,425.742,50.457,427.739,49.124,431.069z"/>
		</g>
	</g>
	<g>
		<g>
			<path d="M46.457,441.061c1.334,2.66,5.327,5.99,12.658,8.657l18.648,1.334c2.666,0,5.996-1.334,7.994-3.331l1.333-2.66
				l-3.331-7.33c-3.33-5.991-8.664-9.991-14.654-12.651c-6.66-2.667-11.987-3.33-15.318-2.004c-3.33,1.334-5.333,3.331-7.33,7.324
				C45.123,434.399,45.123,437.73,46.457,441.061z M55.115,427.739c2.003-0.67,6.66,0,11.994,2.66
				c7.324,3.33,11.987,8.001,13.984,13.991l-19.982,0.67c-7.324-3.33-10.654-5.997-10.654-9.327c0-0.664,0-2.004,1.327-3.33
				C52.454,430.399,53.787,428.409,55.115,427.739z"/>
		</g>
	</g>
	<g>
		<g>
			<path d="M101.738,477.023l-3.33,2.004c0,1.997,0.67,2.667,2.004,3.33l25.973,2.667l1.996-2.667c0.67-1.333,0-2.667-1.996-2.667
				L101.738,477.023z"/>
		</g>
	</g>
	<g>
		<g>
			<path fill="#D96038" d="M63.108,476.36c0,3.994,0.67,5.997,1.997,7.994c2.004,1.997,6.66,3.33,13.321,4
				c6.661,0.664,11.994-0.67,16.651-4l5.997-4.664l-4.663-5.327c-4.664-4-9.321-6.66-15.982-7.33l-13.99,2.003
				C65.105,470.363,63.778,472.366,63.108,476.36z"/>
		</g>
	</g>
	<g>
		<g>
			<path d="M65.105,467.033c-1.997,1.34-3.994,4.67-4.657,8.664c0,4.657,0.663,7.987,3.33,9.99
				c2.661,2.667,7.324,4.657,14.648,5.327c11.324,0.67,19.318-2.66,25.315-9.99v-2.661c-4.664-8-11.994-12.657-23.313-13.991
				L65.105,467.033z M65.775,478.363v-2.003c0.664-2.667,1.334-4.657,2.66-5.327L80.43,469.7c7.324,0.663,13.322,3.993,17.315,9.327
				c-4.663,5.327-11.324,7.324-19.318,6.66C70.439,485.024,65.775,482.357,65.775,478.363z"/>
		</g>
	</g>
	<g>
		<g>
			<path d="M131.711,514.327c-1.996,0-3.33,0.67-3.33,2.66c0,1.34,1.334,2.667,3.33,2.667l25.316,0.663l1.326-1.326l1.334-1.334
				c0-1.997-1.334-2.66-2.66-2.66L131.711,514.327z"/>
		</g>
	</g>
	<g>
		<g>
			<path fill="#D96038" d="M93.752,516.987c0,3.33,0.662,5.997,2.66,8.001l13.32,2.66c6.661,0,11.988-1.997,16.652-5.327
				l5.326-5.334l-5.326-5.32c-4.664-3.33-9.991-4.671-16.652-4.671c-6.66,0-11.324,0.67-13.32,2.667
				C94.414,511.667,93.752,513.657,93.752,516.987z"/>
		</g>
	</g>
	<g>
		<g>
			<path d="M109.732,530.309c7.331,0,13.322-1.99,17.985-5.32l5.997-6.661v-2.667l-5.997-5.997
				c-4.663-3.993-10.654-5.997-17.985-5.997c-7.324,0-12.65,1.34-15.318,4c-2.666,1.997-3.993,4.664-3.993,9.321
				c0,4.67,1.327,8.001,3.993,9.991C97.082,528.981,102.408,530.309,109.732,530.309z M109.732,509
				c7.331,0,13.992,2.667,18.648,7.987c-4.656,5.334-9.99,8.001-18.648,8.001c-5.99,0-9.99-0.67-11.987-2.667
				c-0.663-0.664-1.333-2.004-1.333-5.334c0-2.66,0.67-4.657,1.333-5.32C99.742,510.327,103.742,509,109.732,509z"/>
		</g>
	</g>
	<g>
		<g>
			<path d="M85.088,381.115c-1.328-0.67-3.331,0-3.331,1.333l-5.327,25.31c0,1.333,0.67,2.66,1.997,2.66l3.33-1.99l5.334-24.652
				C87.091,381.785,87.091,381.115,85.088,381.115z"/>
		</g>
	</g>
	<g>
		<g>
			<path fill="#D96038" d="M100.412,351.143l-6.66-4.664l-7.994,0.663c-2.668,1.34-4.664,5.997-5.998,12.658
				c-1.996,5.997-1.333,11.994,0.67,17.314l3.994,5.998l5.997-3.994c4.657-3.33,7.987-7.994,9.991-14.654
				C101.738,357.803,101.738,353.803,100.412,351.143z"/>
		</g>
	</g>
	<g>
		<g>
			<path d="M102.408,365.134c1.334-6.661,1.334-11.995,0-15.325c-1.333-2.667-4-5.327-8.656-5.997
				c-4.001-1.327-7.331-0.663-9.992,1.34c-2.666,2.66-5.333,6.661-6.66,13.985c-3.33,10.654-0.67,19.318,5.99,25.979l1.998,0.663
				l7.994-3.993C97.745,377.784,100.412,371.794,102.408,365.134z M98.408,355.806l-1.326,8.658
				c-2.004,6.66-5.334,12.65-11.994,15.981c-2.661-4.657-3.994-8.651-3.994-13.321l0.663-6.661c2.003-5.99,3.331-9.32,5.334-11.317
				l5.991-0.664l4,2.661L98.408,355.806z"/>
		</g>
	</g>
	<g>
		<g>
			<path d="M106.402,421.749c-1.333,0-2.66,0.663-2.66,2.66l-3.33,24.646c0,1.997,0.663,2.667,2.66,3.33
				c1.997,0,2.667-0.663,2.667-2.003l2.66-25.303C109.069,423.075,108.399,421.749,106.402,421.749z"/>
		</g>
	</g>
	<g>
		<g>
			<path fill="#D96038" d="M118.391,390.436c-1.327-1.99-3.33-2.66-7.324-3.33c-3.33-0.663-5.997,0-7.324,1.34
				c-2.667,1.99-4,5.991-5.334,13.321c-1.326,5.991,0,11.981,3.33,16.651l4.664,5.991l5.327-4.001
				c4.664-4.657,6.661-9.32,7.994-15.981C120.394,397.767,119.724,393.103,118.391,390.436z"/>
		</g>
	</g>
	<g>
		<g>
			<path d="M121.721,405.097c1.334-7.33,0.67-12.657-1.327-15.987c-2.003-2.004-4.663-3.994-8.664-4.664
				c-4.657,0-7.987,0-9.991,2.66c-3.33,2.004-4.656,7.331-5.99,13.991c-0.67,7.331,0.664,13.321,3.33,19.312l5.328,6.661h2.666
				C115.73,423.075,120.394,415.751,121.721,405.097z M100.412,405.761l0.663-3.994c0.663-5.997,2.667-9.327,3.994-10.661
				c1.333-1.333,3.33-1.996,5.333-1.333l4.658,1.333c2.003,1.334,2.003,3.331,2.003,6.661v6.66
				c-1.333,7.331-4.663,13.321-10.661,16.651C103.072,417.078,100.412,411.758,100.412,405.761z"/>
		</g>
	</g>
	<g>
		<g>
			<path d="M131.711,455.052c-1.326-0.67-3.33,0-3.33,1.99l-4.656,24.652c0,1.99,0,2.66,1.996,3.33c1.334,0,2.66-0.67,2.66-2.667
				l5.334-24.646C133.715,456.379,133.715,455.052,131.711,455.052z"/>
		</g>
	</g>
	<g>
		<g>
			<path fill="#D96038" d="M145.703,424.409c-1.334-1.997-2.668-3.331-6.661-4.001l-7.331,0.67c-3.33,1.997-4.656,6.661-6.66,13.321
				c-1.326,5.991,0,11.325,2.004,16.652l3.993,6.66l5.997-4c4.658-3.33,7.324-8.651,9.321-15.312
				C147.699,431.739,147.699,427.069,145.703,424.409z"/>
		</g>
	</g>
	<g>
		<g>
			<path d="M139.042,455.715c5.327-4.663,7.994-9.99,9.321-16.651c2.003-7.324,2.003-11.994,0-15.324
				c-1.327-3.331-3.994-5.321-8.658-5.991c-4.663-0.67-7.994,0-9.99,1.334c-2.66,2.667-5.327,7.324-6.66,14.647
				c-2.661,10.661,0,19.318,6.66,25.315l1.996,1.327C134.379,459.045,137.045,457.712,139.042,455.715z M143.035,424.409l1.334,5.99
				l-0.663,7.331c-2.003,7.994-5.997,13.321-11.995,16.651c-3.33-4-4.656-8.657-4.656-13.991l1.326-5.991
				c0.67-5.99,2.004-9.32,4.664-10.66l5.327-0.664C141.039,423.739,141.703,424.409,143.035,424.409z"/>
		</g>
	</g>
	<g>
		<g>
			<path d="M157.69,483.685c-0.663,0-1.997,0.67-3.33,2.003l-6.661,24.64c0,1.34,0,2.003,1.997,3.33c1.333,0,2.667-0.663,3.331-1.99
				l7.33-24.652C160.357,485.024,159.688,484.354,157.69,483.685z"/>
		</g>
	</g>
	<g>
		<g>
			<path fill="#D96038" d="M175.006,454.382l-5.991-4h-7.993c-2.668,1.34-4.664,5.333-7.324,11.994
				c-2.004,5.997-2.004,11.987,0.663,17.979l3.33,5.997l6.661-3.331c3.993-3.33,7.324-7.987,9.99-13.984
				C176.339,462.376,176.339,457.712,175.006,454.382z"/>
		</g>
	</g>
	<g>
		<g>
			<path d="M155.023,487.685c1.334,1.334,2.004,1.334,2.667,1.334l7.994-3.994c5.327-4,8.657-9.327,11.324-15.324
				c1.997-7.324,2.661-11.988,0.663-15.318c-0.663-3.33-3.33-5.327-7.994-6.661l-9.99,0.67c-3.33,1.991-5.99,5.991-8.658,13.321
				c-1.333,6.661-1.333,12.651,0,19.313L155.023,487.685z M156.357,463.702c1.333-5.99,4-9.32,5.996-11.317
				c1.334-0.663,2.661-0.663,5.328,0c3.994,1.997,5.997,3.33,5.997,6.66l-2.667,8.658c-1.997,7.994-6.66,13.321-12.658,15.981
				c-1.996-3.994-3.33-7.987-3.33-12.651L156.357,463.702z"/>
		</g>
	</g>
	<g>
		<g>
			<path fill="#858585" d="M77.1,294.527l6.66,9.32c5.991,5.997,12.652,9.991,19.982,10.661c7.324,0.67,14.648-0.67,20.646-5.99
				l7.323-7.331l-5.326-9.32c-4.664-5.998-11.324-9.328-18.648-10.661c-7.324-0.67-14.654,1.333-21.979,5.99L77.1,294.527z"/>
		</g>
	</g>
	<g>
		<g>
			<path d="M85.088,284.536l-9.992,7.994c-0.662,1.327-0.662,1.997,0,3.33l6.661,9.991c6.661,6.66,13.321,9.991,21.985,11.317
				c7.987,0.67,14.648-1.326,21.979-5.99l7.994-8.657l0.664-2.004l-5.998-9.991c-5.326-7.323-11.987-10.654-19.981-11.317
				C100.412,277.875,92.418,279.873,85.088,284.536z M128.381,300.518c-6.66,8.664-14.648,11.994-24.639,11.331
				c-9.328-0.67-16.651-6.661-23.313-17.321c7.988-7.994,17.315-11.324,26.643-9.991
				C117.063,285.206,124.388,291.196,128.381,300.518z"/>
		</g>
	</g>
	<g>
		<g>
			<path d="M131.711,297.857c-1.326,0-2.66,1.333-2.66,3.33c0,1.334,0.664,2.66,2.66,2.66l13.322,0.67l2.666-2.66
				c0-1.34-0.663-2.667-2.666-2.667L131.711,297.857z"/>
		</g>
	</g>
	<g>
		<g>
			<path fill="#858585" d="M169.015,341.151l-5.997-7.994c-5.99-5.327-12.651-8.657-19.982-7.987c-7.993,0-14.654,2.66-21.314,8.65
				c-3.33,2.667-5.99,5.334-7.988,8.001l7.988,8.651c6.66,4.67,13.321,7.33,21.314,7.33c7.331,0,13.992-2.66,19.982-7.994
				L169.015,341.151z"/>
		</g>
	</g>
	<g>
		<g>
			<path d="M143.035,361.133c7.994,0,14.655-3.33,21.316-9.32l6.66-9.328v-2.003l-6.66-9.321c-6.661-5.99-13.322-9.32-21.316-9.32
				c-7.993,0.663-15.98,3.33-22.642,9.32l-8.664,9.321v2.667l8.664,8.664C127.055,357.803,135.042,361.133,143.035,361.133z
				 M143.035,327.83c8.658,0,16.652,4,23.313,13.321c-6.66,9.991-14.654,13.991-23.313,13.991c-9.32,0-17.984-4-25.972-13.321
				C124.388,332.494,133.045,327.83,143.035,327.83z"/>
		</g>
	</g>
	<g>
		<g>
			<path d="M184.996,341.151c0-1.997-0.663-3.33-1.996-3.33l-13.985,0.67c-1.333,0-2.667,1.327-2.667,2.66
				c0,1.997,1.334,3.33,2.667,3.33l13.985-0.67C184.333,343.812,184.996,342.484,184.996,341.151z"/>
		</g>
	</g>
	<g>
		<g>
			<path fill="#858585" d="M153.027,381.785l8.656,7.324c6.661,5.327,14.655,6.66,21.986,5.997
				c7.323-0.67,13.984-4.001,18.648-10.661l5.327-9.321l-7.324-7.33c-5.997-4.664-13.321-6.661-20.651-5.991
				c-7.324,1.327-13.985,4.657-19.982,10.654C157.027,375.788,154.36,378.455,153.027,381.785z"/>
		</g>
	</g>
	<g>
		<g>
			<path d="M210.312,376.451v-1.997l-8.664-8.657c-7.323-4.664-13.984-7.324-21.978-6.66c-8.658,1.326-15.318,5.327-21.979,11.317
				l-6.661,9.991v3.33l9.328,7.33c7.324,5.327,15.318,7.331,23.313,6.661c7.987-1.334,14.647-5.327,20.645-11.324
				C207.646,381.785,210.312,378.455,210.312,376.451z M156.357,381.115c1.333-3.331,4.664-5.991,7.994-9.321
				c4.663-4,9.99-6.66,15.988-7.33c9.32-0.67,17.314,3.33,23.975,11.324c-4.663,9.99-11.324,15.317-21.314,16.651
				C173.679,393.767,164.352,389.772,156.357,381.115z"/>
		</g>
	</g>
	<g>
		<g>
			<path d="M223.633,373.121c0-1.997-0.67-2.667-2.667-1.997l-13.32,1.333c-2.667,0.664-3.331,1.997-2.667,3.331
				c0,1.996,1.333,2.667,2.667,1.996l13.32-1.996C223.633,375.788,224.297,374.454,223.633,373.121z"/>
		</g>
	</g>
	<g>
		<g>
			<path fill="#858585" d="M192.99,421.749l8.657,6.66c7.994,4.657,15.325,5.99,22.649,4.657c6.66-1.327,13.321-5.327,17.314-11.988
				l5.334-9.32c-2.004-2.004-4.664-4-7.994-6.661c-6.66-4-13.991-5.997-21.315-4c-6.66,0.67-13.321,4.664-19.318,11.324
				C196.32,415.751,194.324,419.082,192.99,421.749z"/>
		</g>
	</g>
	<g>
		<g>
			<path d="M240.284,402.431c-7.33-4.664-15.324-5.998-22.648-4.664c-7.994,1.333-14.654,5.99-20.646,13.321
				c-2.666,3.33-5.333,6.66-6.66,9.99l0.663,3.331l9.991,6.66c7.324,4.664,15.988,6.661,23.313,4.664
				c8.657-1.334,14.654-5.334,19.981-11.994l5.327-11.318l-0.663-2.003L240.284,402.431z M218.3,403.094
				c5.997-1.327,11.994,0,16.651,2.667l8.664,6.66l-5.334,9.328c-3.994,5.32-8.657,7.323-14.648,8.65
				c-9.327,2.004-18.654-1.327-27.313-9.321C201.647,411.088,209.642,404.427,218.3,403.094z"/>
		</g>
	</g>
	<g>
		<g>
			<path d="M262.927,408.428c-0.663-1.34-1.997-2.667-3.33-2.004l-13.321,2.667c-1.997,0.663-1.997,1.997-1.997,3.33
				c0,1.997,1.333,2.667,3.33,1.997l13.321-2.66C262.264,411.088,262.927,410.418,262.927,408.428z"/>
		</g>
	</g>
	<g>
		<g>
			<path fill="#858585" d="M226.293,448.391l6.661,9.321c5.327,6.66,11.987,9.991,19.318,11.324
				c7.324,1.327,14.654-0.663,20.646-5.334l7.994-7.323c-1.334-2.667-3.331-5.997-5.997-8.658
				c-4.657-6.66-10.655-9.99-17.979-11.324c-7.331-1.327-14.655,0.664-21.985,4.664L226.293,448.391z"/>
		</g>
	</g>
	<g>
		<g>
			<path d="M230.957,460.372c5.997,6.661,13.321,10.661,20.646,11.331c8.664,0.663,15.988-0.67,22.648-5.997l8.657-7.994v-2.66
				c0-1.34-1.996-4.67-5.327-9.991c-5.997-6.66-12.657-10.661-19.981-11.331c-7.994-1.326-16.651,0.67-23.976,4.671l-9.327,8.65
				l-0.664,2.667L230.957,460.372z M229.624,449.055c8.657-7.994,17.984-11.324,27.313-10.654c9.99,1.99,16.651,7.987,20.645,17.314
				c-7.323,8.657-15.987,11.988-24.646,10.654C244.278,465.043,236.284,459.045,229.624,449.055z"/>
		</g>
	</g>
	<g>
		<g>
			<path d="M280.912,453.712c-1.997,0-3.331,0.67-3.331,2.003l2.667,3.33l13.985,1.327c1.333,0.67,2.666,0,2.666-2.66
				c0-1.333-0.67-2.66-2.666-2.66L280.912,453.712z"/>
		</g>
	</g>
	<g>
		<g>
			<path fill="#858585" d="M252.936,492.349l4.664,9.99c5.327,7.324,11.324,11.318,18.648,13.321
				c7.33,1.997,13.991,1.327,21.315-3.33l7.994-5.997l-4.001-9.327c-3.993-6.661-9.99-11.318-17.314-13.321
				c-6.661-1.99-13.984-0.664-21.979,3.33L252.936,492.349z"/>
		</g>
	</g>
	<g>
		<g>
			<path d="M260.93,484.354l-9.99,6.66l-0.664,2.661l5.991,10.66c4.663,7.331,11.324,11.988,18.648,13.991
				c7.993,1.99,15.987,0.664,23.312-3.33c5.334-2.667,8.664-4.67,9.327-6.66l0.664-2.667l-3.994-10.654
				c-4.663-7.331-11.324-11.331-19.318-13.991C277.581,479.027,269.588,480.354,260.93,484.354z M302.891,505.67
				c-7.994,7.987-16.651,9.99-25.973,7.987c-9.327-2.66-15.988-9.321-21.315-19.981c9.321-7.324,19.313-9.321,28.64-7.324
				C293.569,488.354,299.561,495.016,302.891,505.67z"/>
		</g>
	</g>
	<g>
		<g>
			<path d="M306.221,503.666c-1.997,0-2.66,0.67-3.33,2.004c0,1.996,0.67,2.667,1.997,3.33l13.321,2.667
				c2.003,0.663,2.666,0,3.33-1.34c0-1.99-0.664-3.331-1.997-3.331L306.221,503.666z"/>
		</g>
	</g>
	<g>
		<g>
			<path fill="#858585" d="M273.588,548.964c4.657,7.987,10.654,12.657,17.314,14.647c7.324,1.34,14.655,1.34,21.979-2.66
				l7.994-5.99l-3.33-9.991c-3.993-6.66-9.991-11.331-16.651-13.321c-7.324-2.667-14.654-1.34-23.313,1.99l-9.327,5.334
				L273.588,548.964z"/>
		</g>
	</g>
	<g>
		<g>
			<path d="M266.927,536.97l-0.67,3.33c0,2.003,1.334,5.333,4.664,11.331c5.327,6.66,11.987,11.98,19.981,13.984
				c7.324,2.667,15.318,1.327,22.649-2.004l9.32-6.66l0.67-2.66l-4-10.661c-4.664-7.987-10.654-11.981-18.648-14.648
				c-7.324-2.003-14.654-2.003-23.313,1.997C272.918,532.976,268.924,534.979,266.927,536.97z M291.566,560.281
				c-8.658-1.99-15.318-8.65-19.982-19.981c9.328-6.661,19.318-8.651,28.646-6.661c8.657,3.331,14.647,9.991,17.979,19.982
				C310.221,561.621,300.894,563.611,291.566,560.281z"/>
		</g>
	</g>
	<g>
		<g>
			<path d="M321.539,552.294c-1.327-0.663-2.66,0-3.33,1.997c0,1.333,0.67,2.66,2.666,2.66l12.658,4l3.33-1.997
				c0.664-2.003,0-3.33-2.003-3.33L321.539,552.294z"/>
		</g>
	</g>
	<g>
		<g>
			<path d="M107.736,58.076c-1.334,0-2.667,0.67-3.33,2.66c-4.664,28.646-7.324,59.945-7.324,92.585
				c1.326,64.609,14.647,112.567,39.963,143.867c13.984,16.651,28.64,31.313,43.295,45.297l35.963,30.637
				c13.321,10.654,23.312,18.654,29.973,25.315c9.991,9.991,18.648,19.981,27.313,31.963c23.312,33.303,40.627,68.609,52.614,106.57
				c5.327,19.318,8.658,35.306,9.991,47.964l3.33,2.66l1.997-2.66c-0.663-13.321-4.657-29.31-10.654-48.628
				c-11.324-38.63-29.31-75.264-53.285-109.236c-7.993-11.981-17.314-22.643-27.306-31.963l-30.643-26.643l-35.3-29.973
				c-14.655-13.321-29.31-27.982-42.63-44.634c-24.64-30.637-37.961-77.924-38.631-142.533c0-32.633,1.997-62.606,6.66-89.918
				C110.402,59.409,109.732,58.746,107.736,58.076z"/>
		</g>
	</g>
	<g>
		<g>
			<path fill="#D96038" d="M118.391,41.424c-1.327-1.997-3.33-3.33-7.324-3.33c-3.994-0.67-5.997-0.67-7.324,1.333
				c-2.667,1.327-4.664,5.997-5.334,13.321c-1.326,5.997-0.663,11.988,2.004,16.651l4.657,5.997l5.333-4
				c4.658-4.664,7.324-9.321,7.988-15.318C119.724,48.754,119.724,44.084,118.391,41.424z"/>
		</g>
	</g>
	<g>
		<g>
			<path d="M95.078,51.415c-0.664,7.331,0,13.321,3.33,19.312l4.664,6.661l2.667,0.67c8.657-3.33,13.984-11.324,15.981-21.979
				v-7.324l-1.327-9.327c-2.003-2.003-5.333-3.331-8.664-3.994l-9.991,1.327C99.078,39.427,97.082,44.084,95.078,51.415z
				 M100.412,57.406v-4.657c1.326-6.661,3.33-9.991,4.657-11.995h5.333l5.328,2.003l1.333,5.997l-0.67,6.661
				c-1.333,7.324-5.327,13.321-11.324,16.652C101.738,68.066,100.412,63.403,100.412,57.406z"/>
		</g>
	</g>
	<g>
		<g>
			<path d="M115.73,106.033c-1.998-1.333-2.668-1.333-4.001,0l-13.321,21.979c-1.326,1.333-1.326,1.997,0.67,3.331
				c1.334,1.333,2.66,1.333,3.994-0.67l13.321-21.309C117.063,108.03,117.063,106.697,115.73,106.033z"/>
		</g>
	</g>
	<g>
		<g>
			<path fill="#D96038" d="M139.705,84.718c0-1.997-1.996-4.664-4.663-6.661c-3.331-1.997-5.327-1.997-7.987-1.997
				c-2.667,0.664-6.661,3.33-9.991,9.327c-4.001,4.657-5.334,10.655-5.334,15.982l1.333,7.994l7.331-1.333
				c5.327-1.997,9.991-5.327,13.321-9.991C137.709,92.048,140.375,88.048,139.705,84.718z"/>
		</g>
	</g>
	<g>
		<g>
			<path d="M142.373,84.718c-0.67-3.33-1.998-5.99-5.998-8.657l0,0c-2.66-2.667-5.99-3.331-9.32-2.667s-7.331,3.994-11.994,9.991
				c-6.661,9.327-7.988,17.985-4.658,26.642l1.998,1.333c9.32,1.333,17.314-3.33,23.975-11.988
				C140.375,93.375,143.035,88.048,142.373,84.718z M128.381,78.728c1.334-0.67,3.33,0.663,5.334,1.327l3.33,5.997
				c0,1.997-2.003,5.327-5.334,9.991c-4.656,6.661-9.99,9.991-16.65,9.991l-1.328-4.664c0-5.327,1.998-9.991,5.328-14.655
				C123.055,82.058,125.721,79.391,128.381,78.728z"/>
		</g>
	</g>
	<g>
		<g>
			<path d="M85.758,147.324l-4.001-0.664c-0.663,1.333-0.663,2.667,0,4.664l16.651,17.985l4,0.663
				c1.334-0.663,1.334-1.997,0.664-3.994L85.758,147.324z"/>
		</g>
	</g>
	<g>
		<g>
			<path fill="#D96038" d="M70.439,116.024c-2.667-1.333-5.334,0-7.994,1.997c-2.667,1.333-4,3.33-4.664,5.991
				c-0.663,2.667,1.334,7.331,5.327,12.658c3.331,5.997,7.331,9.328,13.321,11.324l7.33,1.333l1.328-7.994
				c0-5.327-1.328-11.324-4.658-15.981C76.43,119.354,73.1,116.024,70.439,116.024z"/>
		</g>
	</g>
	<g>
		<g>
			<path d="M55.115,122.685v1.997c0,4,2.003,8.657,5.333,13.991c4.657,5.991,9.321,9.321,15.317,11.318l7.994,1.333l2.661-1.333
				l1.997-7.988c0-5.997-1.997-12.658-5.991-18.655c-4-5.327-7.993-9.328-11.987-10.654c-2.667-0.664-5.998,0-9.991,3.33
				C57.118,118.021,55.115,120.681,55.115,122.685z M60.448,124.012l3.33-3.994c2.661-1.997,4.657-1.997,5.991-1.997
				c1.996,0.67,5.326,3.33,8.657,8.657c2.667,4.664,4.663,9.328,4.663,13.985l-1.333,5.334c-6.661,0-11.987-3.994-16.651-9.991
				c-3.33-4.664-4.657-7.994-4.657-11.324V124.012z"/>
		</g>
	</g>
	<g>
		<g>
			<path d="M91.748,102.703c-1.327-1.333-2.66-1.333-3.994-1.333c-1.333,1.333-2.666,1.997-1.333,4l11.987,22.642
				c1.334,1.333,2.004,1.333,3.33,1.333c2.004-1.333,2.004-2.667,1.334-3.994L91.748,102.703z"/>
		</g>
	</g>
	<g>
		<g>
			<path fill="#D96038" d="M83.76,68.066c-2.003-0.67-4.663-0.67-7.994,0c-3.33,1.333-5.326,3.33-5.996,5.327
				c-1.334,2.667-0.664,7.994,1.996,13.985c2.004,5.997,5.334,10.661,9.991,13.991l6.661,2.66l3.33-6.661
				c2.004-5.991,2.004-11.318,0-17.315C89.088,73.394,86.421,70.063,83.76,68.066z"/>
		</g>
	</g>
	<g>
		<g>
			<path d="M85.088,66.069c-2.661-1.333-5.991-1.333-9.992,0c-4.656,1.997-6.66,3.331-7.986,6.661
				c-1.334,3.331-0.67,8.658,1.996,15.318C73.1,98.709,79.76,104.7,88.418,106.697c1.333,0,2.003,0,2.666-0.664
				c5.998-7.994,5.998-16.651,2.668-26.643C91.748,72.73,88.418,68.066,85.088,66.069z M77.1,71.396l5.327-0.67
				c2.661,1.34,4.664,4.67,5.991,10.661l2.003,8.657c0,3.331-0.67,7.324-2.667,11.325C81.757,99.373,77.1,94.709,73.77,86.715
				c-1.334-3.994-2.004-7.324-2.004-9.991C71.766,74.727,73.77,72.73,77.1,71.396z"/>
		</g>
	</g>
	<g>
		<g>
			<path d="M119.724,141.333c-1.333-1.333-2.66-1.333-3.33,0l-17.985,17.985c-1.326,1.997-1.326,3.331,0,3.994
				c2.004,1.333,3.33,1.333,4,0l17.315-18.648C121.057,143.994,121.057,142.667,119.724,141.333z"/>
		</g>
	</g>
	<g>
		<g>
			<path fill="#D96038" d="M147.036,125.352c0.663-2.003-0.67-4-3.33-7.331c-2.667-1.997-4.664-3.331-6.661-3.331
				c-3.33,0-7.33,2.661-11.994,7.331c-4.657,3.994-7.987,9.321-8.657,15.981v6.661c7.994,1.997,15.317,0,23.312-7.331
				C144.369,132.676,147.036,128.012,147.036,125.352z"/>
		</g>
	</g>
	<g>
		<g>
			<path d="M141.039,139.336c5.327-4.664,8.657-9.991,8.657-13.321c0.67-3.331-1.333-6.661-3.993-9.328
				c-2.668-3.33-5.998-4.657-9.328-3.994c-3.33,0-7.994,2.667-13.32,7.324c-5.328,4.664-7.994,10.654-9.322,16.651v8.664l1.998,1.99
				C125.051,149.327,133.715,146.66,141.039,139.336z M137.045,118.021c0.664-0.67,2.66,0,4.658,1.997
				c2.003,2.003,2.666,3.33,2.666,4.664c0,2.66-2.666,6.661-7.324,10.661c-5.334,5.321-11.324,7.324-18.654,7.324v-1.333
				c0-6.661,3.33-11.988,7.994-17.321C130.385,119.354,134.379,118.021,137.045,118.021z"/>
		</g>
	</g>
	<g>
		<g>
			<path d="M122.391,185.96h-4l-15.982,19.982c-0.67,1.327-0.67,2.667,0.664,3.33h4l15.982-19.981
				C123.725,187.958,123.725,186.624,122.391,185.96z"/>
		</g>
	</g>
	<g>
		<g>
			<path fill="#D96038" d="M149.033,165.979c0-2.667-1.334-4.664-4-6.661c-2.66-2.667-4.658-3.33-7.324-3.33
				c-2.667,0-7.324,3.33-11.324,8.657c-3.994,4.664-5.991,9.991-6.661,15.982l0.67,7.331l7.324-0.67
				c5.997-1.327,10.654-4.657,15.317-9.321C147.036,172.639,149.696,168.646,149.033,165.979z"/>
		</g>
	</g>
	<g>
		<g>
			<path d="M147.036,156.651c-3.33-3.331-6.661-3.994-9.991-3.331s-7.994,3.331-12.657,9.328
				c-7.324,8.657-9.327,16.651-5.997,25.979l2.003,1.99l7.987-0.664c6.661-1.997,11.994-5.327,15.988-9.991
				c5.327-5.327,7.324-10.654,7.324-13.985C151.693,162.648,150.366,159.318,147.036,156.651z M122.391,181.967
				c0-5.997,1.997-11.331,5.99-15.988c4-4.664,7.331-6.661,9.328-7.324c1.996-0.67,3.33,0.663,5.997,2.66l2.66,4.664
				c0,1.997-1.997,5.997-5.327,9.991c-5.327,6.661-11.324,9.327-17.984,9.327L122.391,181.967z"/>
		</g>
	</g>
	<g>
		<g>
			<path d="M130.385,231.921c-2.004-0.67-3.33-0.67-4,1.327l-11.324,22.649c-1.328,1.327,0,1.997,1.333,3.33
				c1.997,0.664,2.667,0,3.33-1.333l11.987-21.979C132.381,233.912,131.711,232.585,130.385,231.921z"/>
		</g>
	</g>
	<g>
		<g>
			<path fill="#D96038" d="M151.693,205.942c0-2.003-1.997-3.331-4.657-5.334l-7.994-1.327c-2.667,1.327-5.997,5.327-9.327,10.654
				c-2.66,5.997-3.994,11.324-2.66,17.315l1.996,7.331l7.324-1.997c4.664-2.667,8.658-6.661,11.988-12.658
				C151.029,213.93,153.027,209.272,151.693,205.942z"/>
		</g>
	</g>
	<g>
		<g>
			<path d="M127.055,209.272c-4.664,9.328-5.334,18.648,0,26.643l1.996,0.664c9.321-0.664,16.652-5.327,21.979-15.318
				c3.331-6.661,3.994-11.324,3.331-15.318c0-2.667-2.667-5.334-6.661-7.994l0,0l-9.99-1.333
				C133.715,198.618,130.385,202.612,127.055,209.272z M130.385,231.251l-1.334-7.994c0-3.994,1.334-7.988,2.66-11.988
				c3.331-5.327,5.334-8.658,7.994-9.321l5.328,0.663c3.33,1.997,4.663,3.331,4.663,5.998l-3.33,10.654
				C142.373,225.924,137.045,229.918,130.385,231.251z"/>
		</g>
	</g>
	<g>
		<g>
			<path d="M89.751,199.282h-3.993c-0.67,0.664-0.67,1.997,0.663,3.33l18.648,17.315c1.333,1.333,2.003,1.333,3.33,0
				c1.333-1.997,1.333-3.33,0-3.994L89.751,199.282z"/>
		</g>
	</g>
	<g>
		<g>
			<path fill="#D96038" d="M59.778,175.97c-2.66,1.997-3.331,4.657-3.331,6.661c0.671,3.33,3.331,7.324,7.994,11.988
				c4.664,4.664,9.992,6.66,15.988,6.66h7.324l-0.663-7.994c-0.67-5.327-3.331-10.654-8.664-14.648
				c-4.657-4-8.657-6.661-11.987-6.661C63.778,171.976,61.775,173.303,59.778,175.97z"/>
		</g>
	</g>
	<g>
		<g>
			<path d="M90.421,192.621c-2.003-5.997-5.333-11.324-9.991-15.988c-5.334-5.327-9.99-7.324-13.99-7.324
				c-2.661,0-5.991,1.327-9.321,4.657c-2.667,3.33-3.331,6.661-3.331,9.327c0,3.994,3.331,7.994,9.321,13.321
				c4.664,4.664,10.661,6.661,17.321,7.994l7.988-1.333l2.003-1.997V192.621z M77.1,180.627c5.327,5.333,7.988,10.661,7.988,17.991
				c-5.991,1.327-11.988-0.67-18.648-5.997c-4.664-4.664-7.324-7.994-7.324-9.991c0-2.003,0.663-3.331,2.66-4.664
				c1.333-1.997,3.33-3.33,4.664-3.33C68.436,174.636,72.436,176.633,77.1,180.627z"/>
		</g>
	</g>
	<g>
		<g>
			<path d="M99.742,247.903c-1.334,0-2.66,0-3.33,1.333c-1.334,1.997-1.334,3.33,0.67,3.33l21.309,13.321
				c2.003,0.664,3.33,0.664,4-1.333c1.334-1.333,1.334-1.997-0.67-3.33L99.742,247.903z"/>
		</g>
	</g>
	<g>
		<g>
			<path fill="#D96038" d="M65.105,231.921c-1.327,2.66-1.997,5.991-1.327,7.324c1.327,3.331,4.657,6.661,10.655,9.991
				c5.326,3.33,10.654,3.994,17.314,3.33c2.666,0,5.334-1.333,6.66-2.003l-1.326-7.324c-2.668-5.327-6.661-9.328-11.994-11.988
				c-5.991-4-10.654-5.327-13.985-4.664C68.436,226.587,67.109,229.254,65.105,231.921z"/>
		</g>
	</g>
	<g>
		<g>
			<path d="M86.421,228.591c-6.661-4-11.325-5.333-15.318-4.67c-2.667,0.67-5.997,2.667-7.994,6.661
				c-2.66,4-2.66,7.331-1.333,10.661c1.333,3.33,5.334,6.661,11.324,9.991c9.99,5.327,18.648,5.991,26.643,1.333l1.333-2.003
				C100.412,241.242,95.748,233.912,86.421,228.591z M71.766,229.254c2.668,0,6.661,0.664,11.994,3.994
				c6.661,3.331,9.992,9.328,11.318,15.988c-5.327,2.667-11.988,1.997-19.313-2.667c-5.996-3.33-9.326-6.661-9.326-9.328
				l1.333-3.994L71.766,229.254z"/>
		</g>
	</g>
	<g>
		<g>
			<path fill="#858585" d="M171.012,248.573l-6.66-9.328l-9.991,5.327c-6.661,5.328-10.654,11.988-12.657,18.648
				c-1.328,7.994-0.664,14.655,3.33,21.315l6.66,7.994c3.33-0.663,6.66-1.334,9.99-3.994c6.661-4,10.662-10.661,12.658-17.321
				C175.676,263.221,174.342,255.897,171.012,248.573z"/>
		</g>
	</g>
	<g>
		<g>
			<path d="M166.348,237.242l-2.66-0.663c-3.33,1.333-7.33,3.33-11.324,5.997c-7.33,5.997-11.324,12.658-13.321,19.982
				c-1.997,8.657-0.67,15.988,3.993,23.312l7.331,8.658l2.661,0.67c1.996,0,5.326-1.34,10.66-4.671
				c6.66-4.657,11.318-11.317,13.321-19.312c1.327-7.994,0.663-15.318-3.33-23.312L166.348,237.242z M171.676,264.554l-0.664,5.327
				c-1.997,9.991-7.994,16.652-17.984,19.319c-5.991-4.664-9.321-11.325-9.321-19.982l0.663-4.664
				c1.997-9.321,8.658-16.651,19.318-21.979C169.015,248.573,171.676,255.897,171.676,264.554z"/>
		</g>
	</g>
	<g>
		<g>
			<path d="M153.027,290.526c-1.998-0.663-2.661,0-3.331,1.341l-3.33,13.32c-0.663,1.991,0,2.661,1.333,3.331l3.33-2.004
				l3.331-12.657C155.023,291.867,154.36,290.526,153.027,290.526z"/>
		</g>
	</g>
	<g>
		<g>
			<path fill="#858585" d="M204.979,284.536l-6.661-8.657l-9.32,5.997c-7.331,5.99-11.325,11.981-11.988,19.312
				c-2.003,6.661,0,13.991,3.993,20.652c2.668,3.33,4.664,5.99,6.661,7.987l9.991-4.657c6.66-4.67,9.991-10.661,11.987-17.991
				C210.976,299.854,209.642,292.53,204.979,284.536z"/>
		</g>
	</g>
	<g>
		<g>
			<path d="M200.321,273.875l-2.667-0.664L187,279.873c-7.33,5.997-11.324,12.658-12.658,20.645c-1.333,7.331,0,15.325,3.994,22.648
				l7.994,8.664l2.667,0.664l10.654-5.334c6.66-5.32,10.66-11.981,11.987-19.312c2.004-7.994,0-15.981-3.993-23.982L200.321,273.875
				z M187.663,285.869c3.33-2.666,6.661-4.663,9.991-6.66c6.66,7.987,9.991,15.318,9.991,22.648l-0.664,4.657
				c-2.003,9.328-7.994,15.988-18.654,20.646c-5.991-6.66-9.321-13.321-9.321-21.309l0.664-4.664
				C180.34,295.86,183.67,291.196,187.663,285.869z"/>
		</g>
	</g>
	<g>
		<g>
			<path d="M188.327,327.16c-1.327,0-1.997,0.67-2.661,2.003l-3.33,13.321c-0.67,1.997,0.664,2.667,1.997,2.667
				c1.997,0.664,3.33,0,3.33-1.34l3.33-13.321C190.993,328.5,190.33,327.83,188.327,327.16z"/>
		</g>
	</g>
	<g>
		<g>
			<path fill="#858585" d="M242.281,317.169l-7.33-9.32l-8.658,6.66c-6.66,5.991-11.324,12.651-11.987,19.981
				c-0.663,6.661,0.663,13.991,5.327,20.652l7.331,7.324l9.32-4.664c5.997-5.327,9.991-11.324,11.324-18.648
				C248.272,331.83,246.945,324.5,242.281,317.169z"/>
		</g>
	</g>
	<g>
		<g>
			<path d="M236.954,305.852h-2.667l-10.654,6.66c-6.66,5.997-10.66,13.321-11.994,21.309c-0.663,8.001,0.67,15.325,5.997,22.649
				l7.324,7.994l2.667,0.67l9.991-5.997c6.66-4.664,10.654-11.325,11.987-19.982c1.334-7.324,0-15.324-5.327-23.312L236.954,305.852
				z M244.941,334.49l-0.663,4.001c-1.333,9.99-6.66,16.651-16.651,20.646c-7.324-4.664-10.654-11.995-10.654-20.646v-4.001
				c1.327-9.99,7.324-17.321,17.314-23.312C241.611,319.173,244.941,327.16,244.941,334.49z"/>
		</g>
	</g>
	<g>
		<g>
			<path d="M224.96,360.463c-0.663,0.67-0.663,0.67-0.663,1.34l-2.667,13.321c-0.664,0.664,0,1.99,0,2.66l2.003,0.671l3.331-2.004
				l2.66-13.321c0-1.997-0.664-2.667-1.997-2.667H224.96z"/>
		</g>
	</g>
	<g>
		<g>
			<path fill="#858585" d="M257.6,395.106l8.657,6.66c2.667-1.34,5.327-3.33,7.994-6.66c5.997-5.334,8.657-11.994,8.657-19.982
				c0-7.33-2.66-13.991-8.657-20.651l-7.994-7.331l-8.657,7.331c-5.327,6.66-7.994,13.321-7.994,20.651
				C249.605,382.448,252.272,389.109,257.6,395.106z"/>
		</g>
	</g>
	<g>
		<g>
			<path d="M267.591,344.481c-0.664-0.67-1.334-0.67-2.667,0l-9.321,7.994c-5.327,7.324-8.657,15.318-8.657,22.648
				c0,8.651,3.33,15.312,8.657,21.973c3.994,4,7.324,5.997,9.321,7.33h2.667c3.33-1.996,5.997-4,9.327-7.33
				c5.327-6.661,7.987-13.321,7.987-21.973c0.67-7.33-1.997-14.661-7.987-21.985L267.591,344.481z M257.6,358.473
				c2.667-3.33,5.997-5.997,8.657-8c8.658,7.33,13.991,15.324,13.991,24.651c0,10.654-5.333,18.643-13.991,23.313l-8.657-7.331
				c-3.33-4-5.327-9.99-5.327-15.981C252.272,369.791,254.27,364.464,257.6,358.473z"/>
		</g>
	</g>
	<g>
		<g>
			<path d="M266.257,399.1c-1.997-0.663-2.66,0-2.66,1.997l-0.67,13.991c0,1.99,0.67,2.66,1.997,2.66c2.003,0,2.667-0.67,2.667-2.66
				l0.663-13.321C268.254,400.427,267.591,399.1,266.257,399.1z"/>
		</g>
	</g>
	<g>
		<g>
			<path fill="#858585" d="M316.882,404.427l-6.661-8.657l-9.327,5.997c-6.66,5.991-10.654,11.981-12.658,19.312
				c-0.663,6.661,0,13.991,4.664,20.652c1.997,3.33,4.664,5.99,7.331,7.987l9.32-4.657c6.661-4.67,10.661-10.661,11.324-17.991
				C322.872,419.745,320.875,412.421,316.882,404.427z"/>
		</g>
	</g>
	<g>
		<g>
			<path d="M312.218,393.767l-2.667-0.664l-11.324,6.661c-6.66,5.333-10.654,12.657-11.987,20.645
				c-1.997,7.331,0,15.325,4.663,22.649c2.667,4.663,5.327,7.994,7.324,8.664h2.667c2.667,0,5.997-1.34,9.991-4.671
				c7.324-5.32,11.324-11.981,13.321-19.312c0.663-7.994,0-15.981-4.664-23.982L312.218,393.767z M318.879,421.749l-0.67,4.657
				c-1.327,9.327-7.324,15.987-17.315,20.645c-6.66-6.66-9.991-13.321-9.991-21.309v-4.664c1.997-9.32,8.658-16.651,18.648-22.642
				C316.212,405.761,318.879,413.748,318.879,421.749z"/>
		</g>
	</g>
	<g>
		<g>
			<path d="M300.894,447.051c-1.997,0-3.33,0.67-3.33,2.004l-3.33,13.321c0,1.996,0,2.667,1.996,2.667
				c1.334,0.663,3.331,0,3.331-1.341l3.33-13.32C302.891,448.391,302.227,447.721,300.894,447.051z"/>
		</g>
	</g>
	<g>
		<g>
			<path fill="#858585" d="M347.518,449.718l-3.993-10.654l-10.661,4.657c-7.994,3.33-13.321,8.664-15.981,15.324
				c-2.667,7.324-2.667,14.648,0,21.979c1.327,3.33,3.33,6.66,4.657,9.32l10.66-2.66c7.324-3.33,11.988-8.657,15.318-15.318
				C350.185,465.043,350.185,457.712,347.518,449.718z"/>
		</g>
	</g>
	<g>
		<g>
			<path d="M314.215,458.382c-3.33,7.324-3.33,15.312,0,23.313c1.997,5.99,3.994,9.32,5.997,9.99l1.327,0.664l11.994-2.667
				c7.324-3.994,13.321-8.657,16.651-15.988c2.66-7.987,2.66-15.981,0.663-24.639c-1.996-5.334-3.993-9.328-5.997-11.324
				c0-0.67-0.663-0.67-1.996-0.67l-11.988,4C322.872,445.061,317.545,451.052,314.215,458.382z M317.545,470.363
				c0-3.33,0-5.991,1.997-9.321c3.33-9.32,10.661-15.317,21.979-18.648c3.33,5.997,5.334,11.988,5.334,18.648l-2.004,9.991
				c-3.993,9.321-10.654,13.991-21.979,16.651C319.542,481.694,317.545,476.36,317.545,470.363z"/>
		</g>
	</g>
	<g>
		<g>
			<path d="M322.872,487.685c-1.333-0.67-1.997,0-3.33,1.334l-5.99,12.657c-0.671,1.327,0,2.66,1.326,3.33
				c2.004,0.664,2.667,0,3.331-1.34l5.997-12.651C324.869,489.682,324.206,488.354,322.872,487.685z"/>
		</g>
	</g>
	<g>
		<g>
			<path d="M302.891,293.857c-1.997-9.991-4.664-24.639-6.661-44.621c-3.33-29.31-7.994-51.288-12.651-65.279
				c-8.663-22.642-23.312-43.958-44.627-63.276l-31.306-24.639l-3.331,0.663c-0.663,1.333-0.663,2.667,0.664,3.994l29.309,23.312
				c21.315,19.318,35.971,40.633,43.958,61.949c5.333,13.985,9.327,35.3,12.657,63.276c1.997,20.645,3.994,36.633,6.661,45.961
				c4.663,16.651,11.324,30.636,20.646,42.624c19.318,23.981,42.63,47.957,69.272,73.267c1.997,0.67,3.33,0.67,3.994,0l0.67-2.66
				l-1.334-1.34c-26.643-24.64-49.291-49.285-68.603-72.598C313.552,322.503,307.554,309.182,302.891,293.857z"/>
		</g>
	</g>
	<g>
		<g>
			<path fill="#D96038" d="M181.002,72.73c-2.666,0-3.993,1.997-5.996,4.657c-1.997,2.667-2.66,5.334-1.997,7.331
				c0.67,3.331,4,6.661,9.991,10.661c4.663,3.994,10.66,4.657,15.987,4.657l7.324-1.997l-1.333-6.661
				c-1.327-5.327-5.327-9.991-10.654-13.321C188.327,74.057,184.333,72.73,181.002,72.73z"/>
		</g>
	</g>
	<g>
		<g>
			<path d="M195.657,75.397c-5.997-4-11.324-5.997-15.317-5.333c-2.668,0-5.334,2.667-7.331,5.997
				c-2.661,3.33-3.331,6.661-2.661,9.991c0.664,3.331,4.658,7.324,10.654,11.318c5.998,4,11.988,5.334,18.649,5.334l7.994-1.333
				l1.333-2.661C209.642,89.382,204.314,81.388,195.657,75.397z M175.006,83.385c0-1.327,1.333-2.667,2.003-3.994l3.993-3.994
				c2.668-0.67,6.661,0.664,11.988,4.657c6.661,4.664,9.991,9.328,10.661,16.651c-5.997,2.667-12.658,1.333-19.318-3.994
				C178.336,89.382,175.006,86.051,175.006,83.385z"/>
		</g>
	</g>
	<g>
		<g>
			<path d="M242.945,109.363c-0.664-1.333-1.997-2.003-3.331-1.333c-1.996,0-1.996,1.333-1.996,3.33l8.657,23.312
				c0.67,1.997,1.333,1.997,3.33,1.997c1.334-0.664,1.997-1.997,1.334-3.331L242.945,109.363z"/>
		</g>
	</g>
	<g>
		<g>
			<path fill="#D96038" d="M236.284,74.727c-1.997-1.333-4.663-1.333-7.994,0c-3.33,0.67-5.327,1.997-6.66,4.664
				c-0.664,2.667-0.664,7.324,2.003,13.321c1.997,6.661,5.327,10.654,9.991,13.985c2.66,2.003,4.657,3.33,6.66,3.33l3.331-6.661
				c1.996-5.327,1.996-10.654,0-17.315C240.948,80.054,238.951,76.061,236.284,74.727z"/>
		</g>
	</g>
	<g>
		<g>
			<path d="M237.618,72.73l-9.991-1.333c-3.33,1.333-6.661,3.331-7.324,5.991c-2.667,4-2.003,8.664,0.663,16.652
				c2.667,5.997,5.998,11.331,11.325,15.324l7.323,3.331l2.667-0.664c5.991-7.331,7.324-15.988,3.994-25.979
				C244.278,78.728,240.948,74.727,237.618,72.73z M229.624,76.724c1.997-0.664,4-0.664,5.327,0c2.003,1.333,4,4.664,5.997,10.654
				l1.333,8.664c0,3.994-1.333,7.987-2.667,10.654c-6.66-2.667-11.324-7.324-13.321-13.985l-1.996-9.991v-3.331
				C224.96,78.057,226.964,77.387,229.624,76.724z"/>
		</g>
	</g>
	<g>
		<g>
			<path d="M219.633,122.685c-1.997-0.663-2.66,0-3.33,1.997c0,1.333,0.67,2.66,1.997,3.33l25.315,3.331
				c1.326,0.67,2.66,0,3.33-1.997c0-1.333-0.67-2.667-2.667-3.33L219.633,122.685z"/>
		</g>
	</g>
	<g>
		<g>
			<path fill="#D96038" d="M184.996,111.36c-1.326,1.333-2.66,3.33-3.33,6.661c-0.664,4-0.664,6.661,1.334,7.994
				c1.333,2.667,5.997,4.657,12.657,5.327c5.99,1.333,11.988,0.67,17.315-1.997l5.997-4.664l-4.664-5.327
				c-3.33-4.664-8.657-7.994-14.654-8.664L184.996,111.36z"/>
		</g>
	</g>
	<g>
		<g>
			<path d="M181.002,128.012c1.998,3.331,6.661,4.664,13.985,6.661c11.324,1.333,19.318-1.333,25.979-7.994v-2.667l-3.993-7.324
				c-4.664-3.994-9.991-7.324-16.651-8.657l-15.988,1.333c-3.331,1.327-4.663,3.994-5.327,8.658
				C178.336,122.021,179.006,126.015,181.002,128.012z M187,113.357h11.987c7.994,1.333,13.985,5.333,16.651,11.324
				c-4.663,4-11.324,5.327-19.318,4.664c-8.657-2.003-11.987-4.664-11.987-7.994v-2.66C184.333,116.024,185.666,114.69,187,113.357z
				"/>
		</g>
	</g>
	<g>
		<g>
			<path d="M240.948,151.994c-1.334,0-2.667,0.663-2.667,2.66c-0.663,1.333,0,2.66,2.667,2.66l25.309,2.003
				c1.334,0,1.997-1.333,1.997-3.33l-0.663-1.333c0-0.67-0.664-1.333-1.334-1.333L240.948,151.994z"/>
		</g>
	</g>
	<g>
		<g>
			<path fill="#D96038" d="M206.312,144.664c-1.997,1.333-2.66,3.33-3.33,6.661c0,4,0.67,6.66,1.997,7.994
				c2.667,1.997,6.66,3.331,13.321,3.994c5.997,0.663,11.994-0.664,16.651-3.994l5.997-4.664l-4.664-5.327
				c-4.663-3.994-9.991-6.661-15.981-6.661L206.312,144.664z"/>
		</g>
	</g>
	<g>
		<g>
			<path d="M220.303,139.336c-7.33,0-12.657,0-15.988,2.667c-1.996,1.327-3.33,4.657-3.993,9.321c0,4.664,0.663,7.994,2.66,9.991
				c2.667,1.997,7.994,4,15.318,4.664c11.324,0.664,19.318-2.667,24.646-9.991l0.67-2.667l-5.997-6.661
				C232.954,142.667,227.627,140,220.303,139.336z M207.646,145.997l12.657-1.333c7.324,1.333,13.321,4,17.315,9.991
				c-5.997,4.664-11.988,6.661-19.318,5.991l-10.654-2.661c-1.334-1.333-1.997-1.997-1.997-4.664v-1.997
				C206.312,149.327,206.981,147.324,207.646,145.997z"/>
		</g>
	</g>
	<g>
		<g>
			<path d="M286.239,193.285c0-1.997-0.664-3.331-2.661-3.331l-24.646-3.994c-1.333,0-2.666,0-3.33,1.997
				c0,1.333,0.664,3.33,1.997,3.33l25.309,4L286.239,193.285z"/>
		</g>
	</g>
	<g>
		<g>
			<path fill="#D96038" d="M224.297,174.636c-1.334,1.333-2.667,3.33-3.331,6.661c-0.663,4,0,6.661,0.664,7.994
				c2.667,2.667,6.66,4.657,13.321,5.327c5.997,1.333,11.994,0.67,17.321-1.997l5.99-3.994l-3.993-5.997
				c-3.994-4.664-9.328-7.324-15.318-7.994H224.297z"/>
		</g>
	</g>
	<g>
		<g>
			<path d="M253.605,195.288l6.661-5.334l0.663-1.997l-4.663-7.331c-4.664-4.657-9.991-7.988-16.652-9.321l-15.981,1.333
				c-2.667,1.327-4,3.994-5.333,8.658c-0.664,4,0,7.994,2.003,9.991c2.66,3.331,7.324,4.664,13.984,6.661
				C240.948,199.282,247.608,197.948,253.605,195.288z M238.281,176.633c7.994,1.333,13.321,5.334,16.651,11.325
				c-5.327,4.664-11.987,5.327-19.312,4.664c-7.994-2.003-11.988-4.664-11.988-7.994v-2.66c0.664-2.667,1.327-4,2.66-5.334H238.281z
				"/>
		</g>
	</g>
	<g>
		<g>
			<path d="M293.569,231.921c0.664-2.003,0-2.667-2.003-2.667l-24.64-4.664c-2.003,0-2.667,0.67-3.33,1.997
				c0,2.003,0.663,2.667,2.66,3.331l24.646,4.664C292.899,234.582,293.569,233.912,293.569,231.921z"/>
		</g>
	</g>
	<g>
		<g>
			<path fill="#D96038" d="M232.954,213.267c-1.997,1.333-3.33,3.33-3.994,6.66c-0.67,3.994-0.67,5.998,1.334,7.994
				c1.327,2.661,5.99,4.664,12.651,5.327l17.321-1.997l5.99-4l-3.993-5.991c-4.001-4.664-8.658-7.331-15.318-8.657L232.954,213.267z
				"/>
		</g>
	</g>
	<g>
		<g>
			<path d="M231.621,211.27c-3.331,1.333-4.657,4.664-5.328,8.657c-0.663,4.664,0,7.994,1.334,9.991
				c2.667,2.667,7.324,4.664,15.318,5.997c10.66,1.997,18.648,0,25.309-6.661v-3.33c-3.33-7.994-9.991-13.321-20.646-15.988
				L231.621,211.27z M230.957,223.257l0.664-1.997c0-3.33,1.333-4.664,2.666-5.327c1.997-1.333,5.997-1.333,11.988,0
				c7.33,0.664,13.321,4.657,16.651,10.654c-5.327,4.664-11.987,5.998-19.312,4.664
				C234.951,229.254,230.957,227.251,230.957,223.257z"/>
		</g>
	</g>
	<g>
		<g>
			<path d="M264.924,122.685c-1.327,0-1.997,0.664-2.66,2.667l-2.667,24.639c0,2.667,0.67,3.33,1.997,3.33
				c2.003,0,2.666-0.664,3.33-1.997l2.667-25.309C267.591,124.012,267.591,122.685,264.924,122.685z"/>
		</g>
	</g>
	<g>
		<g>
			<path fill="#D96038" d="M276.918,91.378c-0.67-1.997-3.33-3.33-6.66-3.33c-3.331-0.67-5.998,0-7.994,1.333
				c-1.997,1.997-4.001,6.661-4.664,13.321c-1.333,6.66,0,11.987,2.667,16.651l4.657,6.661l5.997-4.664
				c3.994-4.664,6.66-9.991,7.324-15.981C279.578,98.709,278.245,94.039,276.918,91.378z"/>
		</g>
	</g>
	<g>
		<g>
			<path d="M279.578,90.045c-1.997-1.997-5.327-3.994-9.32-4.657c-4.001-0.67-7.331,0.664-9.991,2.661
				c-2.667,1.997-4.664,6.661-5.997,14.655c-0.664,6.66,0.663,12.658,3.33,18.648l5.997,6.661h2.66
				c7.994-4,13.321-11.324,14.655-21.979C281.575,98.039,280.912,92.712,279.578,90.045z M276.248,99.373l-0.663,5.327
				c-1.334,7.994-4.664,13.321-10.661,17.985c-3.33-4.664-5.327-9.991-5.327-15.988l0.67-3.994
				c0.663-5.998,1.327-9.328,3.993-11.325c0.664-0.67,2.667-1.333,5.328-0.67l4.663,1.34
				C274.915,93.375,276.248,96.042,276.248,99.373z"/>
		</g>
	</g>
	<g>
		<g>
			<path d="M287.572,158.655c-1.333-0.67-2.667,0.663-3.33,1.99l-5.997,24.652c-0.664,1.327,0,2.661,2.003,2.661
				c1.327,0.67,3.33,0,3.33-1.333l5.991-24.639C290.239,159.981,289.569,159.318,287.572,158.655z"/>
		</g>
	</g>
	<g>
		<g>
			<path fill="#D96038" d="M303.561,129.345l-6.661-4.664h-7.993c-2.667,1.997-4.664,6.661-6.661,13.321
				c-1.333,5.991-1.333,11.324,1.333,16.651l3.331,6.661l6.66-3.331c4.657-4,7.324-8.657,9.321-15.318
				C304.224,136.006,304.888,131.342,303.561,129.345z"/>
		</g>
	</g>
	<g>
		<g>
			<path d="M297.563,122.021l-9.991,0.663c-3.33,2.667-5.997,7.324-7.324,13.985c-3.33,11.324-1.333,19.318,4.657,26.643
				l2.667,0.663l7.324-4.657c5.334-3.33,9.327-9.327,10.661-15.988c1.996-6.661,1.996-11.988,0.663-15.318
				C304.224,124.682,301.557,122.685,297.563,122.021z M290.239,127.342l5.99-0.664l4.001,2.667l1.326,3.994l-1.326,9.328
				c-2.004,7.324-5.997,12.658-12.658,15.318c-2.667-4-3.33-8.657-3.33-12.651c0-2.667,0-4.67,0.663-7.331
				C286.909,132.676,288.235,128.682,290.239,127.342z"/>
		</g>
	</g>
	<g>
		<g>
			<path d="M302.891,195.951c-1.334-0.663-1.997,0-3.33,1.327l-11.988,21.985c-1.333,1.997-0.663,3.33,0.663,3.33
				c2.004,1.327,2.667,0.664,3.331-0.664l12.657-21.985C304.888,197.948,304.224,197.278,302.891,195.951z"/>
		</g>
	</g>
	<g>
		<g>
			<path fill="#D96038" d="M326.202,171.306c-0.663-1.997-2.66-4-5.327-5.327c-3.33-2.003-5.997-2.667-7.994-2.003
				c-2.66,0.67-5.99,4.67-9.32,10.661c-3.33,5.327-4.664,11.324-3.33,16.651l1.326,7.331l7.331-2.003
				c5.327-1.997,9.321-6.661,12.651-11.988S326.872,174.636,326.202,171.306z"/>
		</g>
	</g>
	<g>
		<g>
			<path d="M324.206,185.96c3.33-5.997,5.327-11.324,3.993-14.655c-0.663-3.33-2.66-5.327-6.66-7.994
				c-3.33-1.997-6.661-2.667-9.991-1.997c-3.33,1.333-6.66,5.327-10.654,11.324c-3.33,6.661-4.664,12.658-3.33,18.648l1.997,7.994
				l1.996,1.997C310.885,201.278,318.209,195.951,324.206,185.96z M313.552,166.642c1.326-0.664,3.33-0.664,5.99,1.333
				c2.667,1.333,4,3.33,4,5.327l-4,9.991c-3.994,6.661-9.321,11.325-15.981,12.658l-1.334-7.994c0-4,1.334-8.658,3.331-11.988
				C308.218,169.972,310.885,167.306,313.552,166.642z"/>
		</g>
	</g>
	<g>
		<g>
			<path fill="#858585" d="M341.521,219.264l-1.327-11.325l-11.324,0.67c-7.994,1.327-14.654,5.99-19.318,11.317
				c-4.663,5.998-6.66,12.658-5.327,20.646l1.997,10.661h10.661c7.324-1.333,13.984-5.327,18.648-10.661
				C340.193,234.582,342.19,227.921,341.521,219.264z"/>
		</g>
	</g>
	<g>
		<g>
			<path d="M342.854,206.606l-1.997-1.997l-12.658,1.333c-8.657,1.997-15.318,5.997-20.646,11.988
				c-4.663,6.661-7.323,14.655-6.66,22.642c0.663,4,1.333,8,3.33,11.331l1.334,1.327h11.987c8.657-0.664,15.318-4.657,19.982-10.654
				c5.327-6.661,7.323-14.655,7.323-23.312L342.854,206.606z M338.19,209.936l1.333,9.991c0,7.994-1.996,13.985-5.99,19.318
				c-5.997,6.661-13.991,9.991-25.315,9.328c-1.327-4-1.997-7.331-1.997-10.661c0-6.661,1.333-11.988,5.327-16.652
				C317.545,213.93,326.872,209.936,338.19,209.936z"/>
		</g>
	</g>
	<g>
		<g>
			<path d="M307.554,248.573l-3.33,0.664l-11.324,15.988c-1.333,1.327-0.663,2.661,0.67,3.994l3.994-1.333l10.654-15.318
				C309.551,251.233,309.551,249.9,307.554,248.573z"/>
		</g>
	</g>
	<g>
		<g>
			<path fill="#858585" d="M274.915,281.206l9.327-5.327l-3.33-9.991c-3.331-7.324-7.994-12.658-14.655-14.655
				c-7.324-3.33-14.654-3.33-22.642,0l-10.661,4.664l4.664,10.654c3.993,7.994,9.327,12.658,16.651,15.325L274.915,281.206z"/>
		</g>
	</g>
	<g>
		<g>
			<path d="M286.909,275.879c0-3.331-0.67-7.324-3.331-11.325c-3.33-7.994-9.327-13.321-16.651-16.651
				c-7.33-2.66-15.987-2.66-23.981,0c-5.327,1.997-9.321,4.664-11.324,5.991c-0.664,0.67-1.327,2.003-0.664,2.667l3.994,11.325
				c4.663,7.994,10.66,13.321,17.984,16.651c7.994,2.66,15.318,1.997,23.313-0.67l9.991-5.991L286.909,275.879z M247.608,252.566
				l17.315,0.664c9.327,3.33,14.654,10.654,16.651,21.315c-8.657,6.661-17.979,7.994-26.643,4.664
				c-8.657-3.33-14.648-10.654-18.648-21.985C239.614,254.563,243.615,253.23,247.608,252.566z"/>
		</g>
	</g>
	<g>
		<g>
			<path d="M300.23,281.206c0-1.997,0-3.331-2.004-3.331l-13.321-4.664c-1.327-0.664-2.66,0-3.33,1.333
				c-0.663,1.997,0,3.33,2.003,3.33l13.321,4.664C297.563,283.203,298.896,282.539,300.23,281.206z"/>
		</g>
	</g>
	<g>
		<g>
			<path fill="#858585" d="M299.561,321.84l-3.994-9.328c-4.664-6.66-9.991-11.324-17.321-12.657
				c-7.324-1.997-14.648-1.327-21.979,2.667l-9.991,5.997l5.327,9.99c5.334,7.324,11.994,11.981,18.655,13.321
				c7.323,1.99,13.984,0.664,21.309-3.33L299.561,321.84z"/>
		</g>
	</g>
	<g>
		<g>
			<path d="M302.227,321.84c0-2.667-1.333-5.997-4.663-10.661c-4.664-7.331-10.654-11.988-18.648-13.991
				c-7.994-1.99-15.318-1.327-23.982,3.33l-10.654,6.661v2.003l5.997,11.318c4.657,7.33,11.318,11.994,19.313,13.99
				c7.993,1.997,15.317,0.671,23.312-3.33c4.664-2.66,7.994-5.327,8.657-6.66L302.227,321.84z M277.581,302.521
				c9.991,1.996,15.988,8.657,19.318,18.648c-7.993,7.993-16.651,10.66-25.979,7.993c-9.327-2.003-16.651-8.663-21.315-19.981
				C259.597,302.521,268.254,300.518,277.581,302.521z"/>
		</g>
	</g>
	<g>
		<g>
			<path d="M300.23,319.836c-2.004-0.663-2.667,0.664-3.331,2.004c0,1.99,0.664,2.66,2.661,2.66l13.32,3.33l2.667-1.997
				c0.664-1.333-0.67-3.33-1.996-3.33L300.23,319.836z"/>
		</g>
	</g>
	<g>
		<g>
			<path fill="#858585" d="M272.254,363.13l7.994,7.994c7.324,4.664,13.985,7.331,21.309,7.331
				c7.994-0.671,13.991-3.331,19.318-9.328l6.661-7.994l-6.661-8.657c-6.66-4.664-13.321-7.324-20.645-7.324
				c-7.331,0.664-13.991,3.33-20.652,9.321L272.254,363.13z"/>
		</g>
	</g>
	<g>
		<g>
			<path d="M329.533,361.803v-2.666l-7.994-8.664c-5.991-5.991-13.321-7.988-21.309-7.988c-7.994,0.664-15.325,3.331-21.985,9.991
				l-7.987,9.327v2.661l9.32,9.32c6.661,5.334,14.655,7.331,21.979,7.331c8.664,0,15.988-3.331,21.315-9.991L329.533,361.803z
				 M275.585,363.13c7.323-9.327,15.317-14.648,25.309-15.318c9.327,0,17.315,4.001,23.313,13.321
				c-4.664,9.321-12.658,13.991-22.649,14.655C290.902,375.788,282.908,371.794,275.585,363.13z"/>
		</g>
	</g>
	<g>
		<g>
			<path d="M343.524,359.137c0-1.334-1.334-2.004-2.667-2.004l-13.985,0.67c-2.003,0.67-2.666,1.334-2.666,3.33
				c0,1.997,1.333,2.661,3.33,2.661l13.321-1.327L343.524,359.137z"/>
		</g>
	</g>
	<g>
		<g>
			<path fill="#858585" d="M308.218,394.437l7.33,9.32c5.991,5.334,13.321,8.001,21.315,8.664c7.324,0,13.984-2.003,19.313-7.994
				l6.66-7.33l-5.327-8.651c-5.997-5.997-12.658-8.664-19.981-9.327c-7.324,0-13.985,2.667-21.315,7.987L308.218,394.437z"/>
		</g>
	</g>
	<g>
		<g>
			<path d="M365.503,395.77l-6.661-9.327c-5.997-5.997-13.321-9.328-21.314-9.328c-7.994-0.663-15.988,2.004-22.649,7.331
				c-3.993,3.33-6.66,5.99-8.657,9.321c-0.663,0.67-0.663,1.34,0,2.666l7.994,9.328c6.66,5.997,13.984,8.657,21.979,9.327
				c7.994,0,15.318-2.667,21.315-8l7.994-9.321V395.77z M337.527,381.785c9.99,0.663,17.314,5.32,22.648,15.312
				c-5.997,8.664-13.991,13.321-23.313,12.657c-9.327-0.663-17.321-5.327-25.315-14.647
				C318.879,385.778,327.536,381.785,337.527,381.785z"/>
		</g>
	</g>
	<g>
		<g>
			<path d="M379.487,397.097c0-1.99-0.663-2.66-2.66-2.66h-13.991c-1.333,0-1.997,0.67-1.997,2.66c0,1.34,0.664,2.003,1.997,2.003
				h13.991C378.824,399.1,379.487,398.437,379.487,397.097z"/>
		</g>
	</g>
	<g>
		<g>
			<path fill="#858585" d="M350.848,274.545l-3.33-11.325l-10.654,2.667c-8.664,1.997-13.991,6.661-18.654,12.658
				c-3.994,5.991-4.657,13.322-3.331,21.309l3.331,9.99l10.66-1.326c7.994-1.34,13.985-5.997,17.985-11.994
				C350.848,290.526,352.182,282.539,350.848,274.545z"/>
		</g>
	</g>
	<g>
		<g>
			<path d="M317.545,311.849l12.658-0.67c7.324-1.997,13.984-6.661,17.979-13.321c4.663-6.661,5.997-14.654,5.333-23.312
				l-2.667-11.988l-3.33-1.333c-3.33,0-7.324,0-11.987,1.997c-8.658,2.667-14.655,7.324-19.318,13.985
				c-4.664,7.331-5.327,13.991-3.994,22.649l3.994,11.324L317.545,311.849z M316.882,293.857c0-5.321,1.327-9.321,3.993-13.985
				c5.327-7.988,13.321-12.658,25.31-13.985l1.997,13.321c0,5.997-0.664,11.317-3.994,15.988
				c-4.664,7.987-13.321,11.981-23.976,11.981C317.545,302.521,316.882,297.857,316.882,293.857z"/>
		</g>
	</g>
	<g>
		<g>
			<path d="M320.212,307.849c-2.003-1.334-2.667-1.334-4,0l-7.994,11.324c-0.664,1.997-0.664,2.667,0.67,3.993l3.993-0.663
				l7.994-11.324C321.539,310.509,320.875,308.519,320.212,307.849z"/>
		</g>
	</g>
	<g>
		<g>
			<path fill="#858585" d="M378.154,310.509l-2.66-11.318l-11.325,1.997c-7.993,2.66-13.984,6.661-17.984,13.321
				c-4.664,6.661-5.327,13.321-3.994,20.652c1.334,3.993,1.997,7.323,3.994,9.99l9.991-0.67c7.993-1.997,13.32-5.99,17.984-11.987
				C377.49,325.833,379.487,318.509,378.154,310.509z"/>
		</g>
	</g>
	<g>
		<g>
			<path d="M362.836,298.527c-8.657,2.66-14.654,7.324-18.648,14.648c-4.664,6.66-6.66,14.654-4.664,22.648l4.001,11.317l1.996,0.67
				l11.988-0.67c7.994-1.99,14.654-5.99,18.648-13.321c4.664-6.66,5.997-14.647,4.664-23.312l-3.331-12.651l-1.996-1.333
				C371.493,296.524,367.5,297.188,362.836,298.527z M373.497,301.857c1.997,3.994,2.66,8.651,2.66,13.321
				c0,5.991-1.997,11.318-4.664,15.981c-2.66,4.664-7.324,7.994-13.321,9.991l-10.654,1.333c-2.667-3.33-3.33-7.323-3.33-13.321
				c0-4.663,1.333-8.663,3.994-13.32C354.179,307.849,362.173,303.185,373.497,301.857z"/>
		</g>
	</g>
	<g>
		<g>
			<path d="M347.518,343.812l-3.993,0.67l-7.331,10.661c-1.333,1.99-1.333,2.66,0.67,3.33c0.664,1.327,1.997,1.327,3.33-0.67
				l7.324-10.661C348.852,345.151,348.852,344.481,347.518,343.812z"/>
		</g>
	</g>
</g>
<path id="PATH77" fill="none" stroke="#000000" stroke-width="3" stroke-miterlimit="100" d="M370.59,585.26H3.92V2.74h366.67
	V585.26L370.59,585.26z"/>
</svg>
