<?xml version="1.0" encoding="utf-8"?>
<!-- Generator: Adobe Illustrator 13.0.0, SVG Export Plug-In . SVG Version: 6.00 Build 14948)  -->
<!DOCTYPE svg PUBLIC "-//W3C//DTD SVG 1.1//EN" "http://www.w3.org/Graphics/SVG/1.1/DTD/svg11.dtd">
<svg version="1.1" id="圖層_1" xmlns="http://www.w3.org/2000/svg" xmlns:xlink="http://www.w3.org/1999/xlink" x="0px" y="0px"
	 width="372px" height="587px" viewBox="0 0 372 587" enable-background="new 0 0 372 587" xml:space="preserve">
<g>
	<g>
		<g>
			<path fill="#858585" d="M33.311,211.404l-16.59-9.955l1.325,23.226c-0.661,13.272,0,23.227,0.664,31.852
				c1.993,9.287,5.312,19.241,11.947,29.195l8.625,11.95l-10.618,3.979c-7.962,4.645-16.59,11.949-25.216,22.563
				c-7.964,10.616-13.271,24.552-15.264,40.479c-1.325,7.963-1.325,15.268-0.661,21.236c2.654-1.33,9.29-3.318,21.233-5.31
				c11.946-1.329,21.237-4.646,27.873-7.965c7.962-3.983,14.598-10.619,21.233-19.907l7.301-12.604l6.636,5.967
				c6.636,3.986,15.265,9.289,26.545,13.271c11.282,5.309,26.544,9.288,44.463,11.284l25.215,1.987
				c-7.3-4.645-15.262-12.604-21.897-23.225l-16.59-26.547c-4.646-5.967-10.618-10.619-18.583-13.938l-11.278-3.316
				c11.943-2.652,21.897-8.62,29.862-17.914c8.626-8.632,16.59-21.236,23.226-37.826h-19.244l-23.89,1.329
				c-13.272,3.318-24.555,9.954-33.181,18.58l-1.993-13.272c-2.653-9.954-7.296-17.919-13.271-24.555
				C55.208,225.998,45.254,218.7,33.311,211.404z"/>
		</g>
	</g>
	<g>
		<g>
			<path d="M18.709,198.131l-3.982,0.661l-1.325,2.657l0.664,0.661l0.661,12.612v18.58l0.664,23.226
				c2.654,13.272,8.629,26.545,17.919,39.149c-10.619,3.985-21.237,13.271-32.517,26.544c-11.946,13.94-17.254,33.182-17.254,56.408
				l0.664,7.969l1.326,2.65h3.318l16.59-3.982c14.6-2.652,25.88-5.973,33.18-9.289c10.619-5.968,19.908-15.923,27.874-29.863
				c6.636,4.646,16.59,10.625,30.526,16.592c17.916,7.966,41.807,12.605,71.004,13.271c0.664,0.668,1.992,0,3.318-1.99v-1.328
				l-1.989-2.648c-7.964-4.652-17.255-16.591-27.208-33.182l-9.29-15.928c-5.311-7.299-12.607-11.951-21.901-15.932
				c7.965-3.979,15.266-8.625,21.237-14.593c5.973-5.976,11.283-13.94,16.59-24.562l7.301-14.594v-1.329l-0.665-1.989l-3.319-1.329
				H136.17l-27.874,1.329c-9.954,2.657-19.908,7.296-29.198,15.261c-2.654-13.939-7.965-25.215-15.926-33.18
				c-6.637-6.637-15.265-13.94-27.874-21.898L18.709,198.131z M21.363,214.722l-0.661-7.965
				c17.916,11.283,30.524,19.908,37.824,27.874c5.973,5.975,9.955,13.272,12.608,23.226l1.993,11.944
				c0,1.329,0.664,2.65,1.989,3.318l3.318-1.329c9.29-8.626,19.244-13.933,31.191-17.251l26.545-1.329h11.943
				c-6.636,14.601-13.271,24.555-20.573,32.513c-7.96,7.971-17.915,13.939-29.197,16.589c-1.326,0-1.99,1.336-1.99,3.319
				c0,1.333,1.326,2.656,2.654,3.316l10.618,2.659c7.961,3.315,13.272,7.963,17.915,13.932l8.63,14.607
				c9.289,13.933,16.589,23.885,21.897,29.193c-25.881-2.65-45.125-6.637-58.396-12.604c-11.283-3.987-19.244-8.635-25.22-13.274
				l-5.971-4.651l-3.318-1.322l-2.654,1.988c-7.301,13.94-15.926,23.896-27.209,29.863c-6.636,3.316-16.59,6.637-30.526,9.288
				l-14.598,3.315v-3.315c0-21.892,5.307-39.151,15.926-52.423c7.964-9.955,15.925-16.591,23.89-21.896l9.954-3.319l2.654-1.993
				v-1.323l-0.664-1.995l-8.626-12.604c-5.972-9.287-9.29-18.58-11.283-27.874l-0.664-21.897L21.363,214.722L21.363,214.722z"/>
		</g>
	</g>
	<g>
		<g>
			<path d="M30.657,228.655c-0.664-0.661-1.993-1.322-2.657-0.661c-1.325,1.322-1.99,1.989-0.661,3.318l14.598,25.215
				c9.954,19.908,17.918,35.833,21.901,48.441l0.661,0.663l17.254,16.59c14.6,13.271,31.19,23.893,48.445,33.848
				c1.325,0,1.989,0,2.654-0.666v-1.323l-0.665-1.996c-17.254-9.286-32.515-19.241-47.116-31.847l-17.254-17.258
				c-4.643-12.604-11.944-28.532-22.562-48.44L30.657,228.655z"/>
		</g>
	</g>
	<g>
		<g>
			<path d="M129.534,263.831c-1.329-1.335-1.329-1.997-2.654-0.668c-17.254,9.955-37.163,23.228-62.381,39.815
				c-19.908,18.58-39.816,39.148-60.387,61.053c-0.664,1.324-0.664,1.99,0,2.658c1.326,1.324,1.991,1.324,3.319,0l59.061-61.059
				c25.215-15.925,45.124-29.196,62.378-39.15C129.534,265.814,130.198,264.492,129.534,263.831z"/>
		</g>
	</g>
	<g>
		<g>
			<path fill="#D96038" d="M189.259,387.261l-24.555,9.292c-11.944,3.316-22.562,9.286-30.527,15.256
				c-9.29,7.303-16.59,15.269-22.562,25.221l-5.307,13.273c-1.993-4.647-11.283-9.955-26.544-17.252
				c-9.291-4.65-20.574-7.304-34.509-9.294L28,423.096l5.311,21.894c1.325,11.289,4.643,20.576,8.626,25.883
				c4.646,5.975,11.282,11.95,21.237,16.591l11.943,5.314c-3.318,0.659-7.3,1.98-12.607,3.978
				c-10.619,4.644-20.572,11.278-29.863,18.58c-9.29,7.966-18.58,19.908-29.198,35.83L-8.499,573.07
				c32.52-0.661,58.399-5.315,76.979-11.282c18.583-5.97,33.181-14.604,43.134-23.896l1.329,10.621
				c1.325,9.287,3.318,17.261,6.637,23.896c3.318,7.297,9.289,15.254,18.58,23.888l12.607,10.613c0-1.99,1.329-7.297,4.647-15.928
				c3.982-9.287,5.972-18.573,6.636-28.528V535.91l-0.664-6.636l9.289,4.639l18.584,1.997c9.29-1.334,25.88-7.304,52.425-16.59
				l-21.896-15.932l-24.557-18.584c-5.972-3.979-12.607-6.636-20.571-8.62l-10.619-0.669l9.955-15.922l11.283-19.908
				c1.99-6.636,3.318-17.257,3.982-32.519L189.259,387.261L189.259,387.261z"/>
		</g>
	</g>
	<g>
		<g>
			<path d="M187.266,383.941l-18.58,7.959c-15.926,4.652-27.208,10.619-36.499,17.258c-12.607,9.285-21.237,20.576-27.208,34.509
				c-6.636-4.648-13.937-9.295-23.226-13.933c-9.955-3.987-21.898-7.306-35.17-8.635L28,419.779c-1.325,0-2.654,0.66-2.654,2.649
				l-0.664,0.666l0.664,2.651c1.329,0.668,2.654,5.969,3.318,14.601c2.654,15.931,6.636,26.546,10.618,32.52
				c5.973,8.62,15.262,15.256,25.881,19.241c-11.944,5.31-23.89,11.944-34.506,20.575c-15.265,13.272-29.202,32.515-42.473,59.058
				v1.33v1.988c0.664,0.669,1.993,1.327,3.318,1.327c33.181-0.658,59.063-5.313,78.308-11.281
				c14.597-5.308,27.87-12.605,39.152-20.576c1.989,11.29,3.982,21.245,7.3,29.862c5.308,11.289,16.59,23.228,32.516,35.178h3.318
				l1.99-2.658l3.318-11.274c4.646-11.292,7.3-22.564,7.964-33.182v-27.212c9.291,3.985,17.254,5.97,25.216,3.985l51.764-16.59
				l2.653-2.657v-0.66l-1.987-2.656l-20.574-15.268l-25.219-19.241c-7.962-5.311-17.252-8.626-27.871-9.955l3.982-5.97
				c7.297-9.292,11.944-17.925,14.598-25.884c3.316-8.632,4.646-23.888,4.646-44.464v-9.285l-1.328-2.656
				C189.923,383.279,188.594,383.279,187.266,383.941z M185.939,392.566v3.316c0,20.576-1.328,35.172-3.981,43.135l-13.937,23.228
				l-7.3,11.284v1.986v1.329l3.318,1.99l9.955,0.666c7.3,1.984,13.936,3.98,19.908,7.96c5.31,3.316,13.272,9.292,24.555,18.586
				l15.926,12.604l-45.787,13.939l-17.255-1.335l-8.625-4.641c-0.665-0.66-1.993-0.66-3.982,0l-0.664,2.657v0.661l0.664,16.592
				v15.928c-0.664,9.955-3.318,19.91-7.301,30.522l-2.654,7.957c-13.936-9.952-22.562-19.906-25.879-29.861
				c-3.318-6.637-5.311-14.594-6.637-23.226l-1.329-9.955l-1.989-3.315c-1.329-1.324-1.993-0.663-3.318,0.666l-11.282,7.965
				c-9.291,6.636-19.909,11.945-30.527,15.931c-17.251,5.299-40.478,8.617-71.004,9.952c13.937-24.562,26.544-41.15,37.824-51.104
				c8.629-7.96,18.583-13.272,28.538-17.912c5.307-1.996,9.954-3.319,13.271-3.98l1.99-3.315l0,0c0-1.335,0-2.658-1.99-3.319
				c-14.6-3.985-25.219-10.621-31.854-20.576c-3.318-5.307-6.637-15.262-9.291-29.193l-2.654-13.271
				c17.255,0,33.181,3.319,45.789,9.286c13.936,6.637,22.562,12.604,24.555,16.589c0.664,0.669,1.989,1.329,3.318,1.329l2.653-1.995
				l5.972-12.605c5.972-9.952,13.272-17.917,21.238-24.554c8.625-6.636,19.908-11.945,34.504-15.929L185.939,392.566z"/>
		</g>
	</g>
	<g>
		<g>
			<path d="M172.669,408.489c-1.33-1.321-1.994-0.66-2.655,0.669l-20.572,37.825c-13.936,25.883-24.555,43.135-29.862,51.094
				l-39.816,20.574c-27.874,14.601-48.446,27.212-63.708,36.501l-0.664,1.327v1.32l2.654,0.668
				c15.265-9.955,37.163-22.559,65.036-37.165l38.488-19.906h1.329l29.197-51.095l21.237-39.157
				C174.658,409.824,173.994,409.158,172.669,408.489z"/>
		</g>
	</g>
	<g>
		<g>
			<path d="M47.908,436.37l-2.654,0.658c-0.664,1.322-0.664,1.989,0,2.657l24.555,20.57l49.771,41.14h1.325l94.234,15.269
				c1.329,0.66,1.988,0,1.988-1.33v-0.666l-1.988-1.984l-93.569-14.605l-49.771-41.14L47.908,436.37z"/>
		</g>
	</g>
	<g>
		<g>
			<path d="M122.898,499.412c-1.329-1.335-1.329-1.995-2.654-1.335c-1.993,0.667-1.993,1.335-0.664,2.656l8.625,22.565
				c6.637,19.247,11.283,39.154,14.601,59.064c0.664,1.979,1.989,1.979,2.653,1.979l1.989-1.979
				c-3.979-20.576-9.289-40.486-15.926-59.727L122.898,499.412z"/>
		</g>
	</g>
	<g>
		<g>
			<path fill="#D96038" d="M341.224-22.855L318.662-7.587L296.1,9.003c-4.646,3.979-7.963,11.943-9.291,23.226l-1.326,14.595
				l-6.637-15.923c-5.312-11.283-10.619-17.919-15.265-19.908l-50.433-21.236l3.318,21.904c1.324,11.938,2.652,21.891,5.307,28.528
				c3.32,11.949,11.283,22.565,23.228,32.519c-19.907-0.661-34.51,1.329-43.134,5.975c-5.973,3.318-13.273,8.626-20.574,16.59
				l-9.954,11.944l20.574,7.965c10.617,4.64,19.907,6.636,25.879,5.308c9.954-1.989,20.573-6.637,32.517-13.272l-5.972,8.626
				c-3.981,7.964-6.636,15.928-8.626,25.883c-2.652,16.59-0.665,36.499,5.973,60.385c17.254-13.272,29.862-24.547,36.498-33.841
				c5.308-6.636,7.301-14.6,8.627-24.555l-0.662-14.601l7.961,17.918c6.637,11.283,11.281,18.58,14.602,21.237
				c5.973,4.641,17.916,7.297,34.506,8.626l-2.653-21.897c-0.664-9.955-2.653-17.251-4.645-21.237
				c-1.992-5.308-5.975-10.622-11.946-17.257l-7.961-8.619l8.624,5.301c6.64,3.318,13.938,3.985,21.898,1.996
				c12.611-2.657,24.556-7.965,36.499-17.918L371.087,86.64c-5.309-5.968-9.954-10.616-14.602-12.605
				c-5.972-2.65-12.608-5.308-20.569-7.964l-10.618-3.318l9.29-6.637c5.309-5.307,8.626-12.61,9.289-19.908
				C344.542,23.598,343.877,3.689,341.224-22.855z"/>
		</g>
	</g>
	<g>
		<g>
			<path d="M209.832-10.244v1.328l2.652,17.919c1.988,15.262,3.316,25.883,5.972,31.852c3.317,9.954,9.29,19.241,18.58,28.533
				c-16.591,0-29.199,2.657-37.159,6.636c-5.313,2.657-12.611,8.633-20.573,16.59l-10.619,11.951l-0.664,2.65v0.668l2.653,1.982
				l11.283,5.314l18.581,6.636l17.917,1.989c5.309-1.328,12.607-3.318,22.563-7.964c-4.644,7.964-7.301,15.928-8.627,25.883
				c-0.662,3.979-0.662,8.625-0.662,13.272c0,14.594,1.988,30.522,6.637,48.441l1.99,1.989l3.315-0.661
				c17.919-13.271,30.526-25.222,37.828-34.509c4.646-6.636,7.299-15.261,8.624-25.216c7.301,13.934,12.611,23.226,17.255,26.544
				c5.974,4.64,17.919,7.297,35.835,8.625l1.991-1.329l1.326-1.989v-0.667l-2.654-16.59c-0.663-12.605-2.653-22.559-5.308-27.867
				l-8.629-13.271h17.255c12.608-2.657,25.881-8.633,37.825-17.918l1.328-3.318l0,0l-1.99-2.651l-9.954-9.293
				c-6.637-6.636-11.944-11.95-16.592-14.601c-7.964-3.318-15.925-6.636-24.554-8.625c7.964-7.297,12.611-15.929,13.937-25.884
				V25.593L345.87-5.598l-1.329-17.918l-1.99-2.657l-3.315,0.667l-19.247,13.272c-13.935,9.286-22.563,15.262-25.881,18.58
				c-5.973,4.646-9.291,13.271-10.619,25.883c-6.637-13.933-13.271-22.564-18.578-24.554l-50.438-20.576l-3.315,0.667
				L209.832-10.244z M323.305-6.265L338.57-16.88l1.989,43.135v9.292c-0.663,7.298-3.317,13.272-8.626,18.58l-7.964,5.308
				c-0.665,1.329-1.989,1.996-1.989,3.318l0,0c0,1.996,1.324,2.657,2.652,3.318l9.955,2.657c7.964,2.657,14.601,5.308,19.909,8.626
				c4.646,1.99,9.289,6.636,15.262,12.604l7.964,7.304c-11.943,7.964-22.563,13.271-31.852,14.6l-19.247-1.329l-8.626-5.307h-3.983
				l-1.323,2.657l1.323,2.65l7.303,7.965c5.97,6.636,9.954,11.943,11.942,16.59c1.328,3.979,3.318,13.271,3.981,25.215l1.328,13.272
				c-13.938-1.99-23.227-4.647-27.207-7.965c-5.975-3.979-13.271-16.59-21.898-37.16c-1.328-1.996-1.994-2.657-3.981-2.657
				c-1.328,1.328-2.653,1.996-2.653,3.318v0.661l0.659,7.972c0,12.604-2.653,21.23-7.961,27.866
				c-4.646,7.297-15.265,17.251-31.854,31.191c-3.315-15.922-5.308-29.863-5.308-42.467v-11.95
				c1.99-9.293,4.648-17.251,8.627-25.216l5.31-7.965l1.326-1.99l-0.662-1.989c-1.327-1.329-2.657-1.996-4.646-1.329
				c-11.283,7.304-21.897,11.283-31.192,13.272c-6.636,1.329-17.916-1.328-31.851-8.626l-7.965-3.318
				c9.954-11.28,17.917-19.905,25.217-23.223c8.627-4.646,22.563-6.637,42.472-5.976l2.651-1.989l0.666-1.329l-1.327-1.989
				c-11.28-9.954-18.581-20.576-21.897-31.853c-2.654-6.636-3.982-16.59-5.974-31.19L217.792-4.27l43.799,17.912
				c3.981,1.996,7.302,5.975,11.943,13.94l8.629,20.576c1.325,1.983,2.653,2.65,4.646,2.65c1.327-0.667,1.99-1.99,1.99-3.985v-1.322
				c0-16.59,3.318-28.541,9.292-34.509L323.305-6.265z"/>
		</g>
	</g>
	<g>
		<g>
			<path d="M297.425,107.215l-13.937-23.893c-6.637-11.277-17.25-26.545-31.853-45.118l-19.907-25.222h-2.653
				c-0.665,0.661-0.665,1.996,0,2.657l19.243,24.549c14.602,18.585,25.216,33.847,31.854,45.13l13.936,23.887
				c10.619,18.586,21.236,33.181,30.525,44.463h3.319c0.663,0,0.663-1.329,0-2.651C317.998,140.396,308.043,125.795,297.425,107.215
				z"/>
		</g>
	</g>
	<g>
		<g>
			<path d="M323.305,4.357l-43.133,78.965c-1.99,3.985-5.974,15.268-13.273,33.848c-8.623,23.226-13.271,41.145-14.598,53.756
				l1.988,2.651l1.995-1.99c1.323-11.95,5.972-29.862,15.262-53.749l12.606-32.52l43.134-79.632l-3.316,0.661
				C323.305,6.346,322.645,5.686,323.305,4.357z"/>
		</g>
	</g>
	<g>
		<g>
			<path d="M308.708,84.657L281.5,82c-15.262,1.322-33.182,4.64-54.418,9.954l-27.871,6.637c-1.328,0-1.328,1.322-1.328,2.657
				l2.656,1.322l27.207-7.298c20.572-4.646,38.492-7.964,53.754-9.292l27.208,2.657l47.117,7.298l1.988-1.99
				c0-0.667,0-1.99-1.328-1.99L308.708,84.657z"/>
		</g>
	</g>
	<g>
		<g>
			<path fill="#FFE000" d="M139.488,110.533l1.325-54.417c-3.979,4.647-12.608,11.283-27.206,19.247
				c-13.271,8.626-21.901,15.262-25.219,21.898c-7.3,11.943-11.944,25.216-13.272,39.816c-8.625-6.637-17.254-11.283-26.544-15.262
				c-5.307-1.996-15.262-3.318-28.534-3.318L2.119,119.16c2.655,2.657,5.312,9.954,7.965,21.904
				c3.318,11.937,5.971,19.908,9.289,23.887c4.647,5.308,11.283,9.294,21.899,11.944l13.936,3.318l-12.607,8.625
				c-9.29,7.965-14.601,14.601-17.918,21.237c-5.309,10.622-11.28,25.215-18.58,44.463L28,251.22l21.236-4.646
				c10.618-3.986,20.573-11.944,30.527-23.227l5.307,9.955l11.946,21.237c3.979,5.307,11.944,11.276,25.881,18.58l18.58,7.964
				c-1.989-4.646-2.654-11.282-1.989-20.569l0.664-24.562c-0.664-7.297-2.657-15.923-8.629-24.548l-7.961-12.612l12.608,4.646
				l25.879,3.318c12.608-1.329,29.863-9.954,53.09-26.544c-5.974-1.329-13.271-4.646-23.227-10.622l-24.556-15.255
				c-7.296-3.986-15.926-5.976-26.544-5.976l-13.272,0.661l8.63-15.262C138.824,125.795,140.152,118.499,139.488,110.533z"/>
		</g>
	</g>
	<g>
		<g>
			<path d="M141.478,52.798c-1.325-0.661-2.654,0-3.318,1.329c-3.983,4.646-11.28,9.955-23.227,16.59
				c-15.261,9.955-25.215,17.918-29.862,24.554c-5.972,10.616-9.955,23.227-11.944,35.838c-7.964-5.314-15.265-9.293-23.226-12.611
				c-5.972-1.996-15.265-3.318-29.199-3.318l-19.247,0.662c-1.325,0-2.654,0.661-2.654,1.996v1.322v1.996
				c2.654,2.65,5.311,9.286,7.965,19.24c2.653,13.272,6.636,21.898,9.954,26.544c5.307,6.637,15.262,11.944,29.863,15.262
				c-12.608,9.294-21.237,18.587-24.556,26.545c-5.307,9.954-11.943,25.223-18.58,44.463l-0.664,1.329l1.328,1.989l3.319,1.329
				l17.916-2.657c10.618-0.661,19.244-2.657,25.219-5.307c9.29-3.985,18.58-11.283,27.87-21.237L94.36,255.86
				c3.983,5.314,11.948,11.951,25.884,19.247l19.908,9.293h3.979l0.665-3.318l0,0c-1.325-4.646-1.989-9.954-1.989-16.59
				l0.664-28.541c0-8.619-3.982-18.573-11.283-30.524l29.863,4.647c13.272-1.329,31.852-9.955,55.077-27.212
				c1.329-1.322,1.329-2.65,1.329-3.318l-2.654-2.65c-4.646-1.329-13.935-5.308-27.871-14.601l-19.245-10.616
				c-9.289-5.313-20.572-7.296-35.17-6.636c5.973-10.615,9.291-21.237,9.291-32.52l1.325-56.407
				C144.131,54.127,142.806,53.459,141.478,52.798z M136.834,64.082l-0.664,48.441c0,10.615-3.319,21.237-9.955,32.52l-1.329,1.989
				l-0.665,1.99l0.665,1.996c1.329,1.322,1.993,1.322,3.318,1.322l12.608-0.662c9.954,0,17.919,1.99,25.219,5.308l18.579,11.282
				c8.63,5.308,16.59,9.955,23.892,12.612c-20.572,13.933-35.834,21.229-46.453,22.558l-25.215-3.318l-11.947-3.985
				c-1.989-0.661-3.318-0.661-3.982,0.667l-0.661,1.989l0.661,2.657l7.964,11.276c5.308,8.632,7.301,16.59,7.965,23.226
				l-0.664,28.541c0,3.318,0,7.297,1.325,11.943c-21.234-9.286-33.181-17.258-37.823-24.555l-11.283-19.908l-5.972-9.955
				l-2.653-1.989c-1.329,0-1.994,0-2.655,1.329c-9.292,10.615-19.247,18.58-29.201,22.565l-22.562,4.64l-13.937,1.329
				c5.975-15.262,11.282-27.874,16.59-38.488c2.657-5.976,8.628-12.612,17.254-19.908l11.282-8.633l1.989-2.65v-1.329
				c-0.664-1.321-1.989-1.989-3.318-1.989l-13.271-2.65c-9.955-2.658-16.59-5.976-19.909-10.623
				c-3.318-4.646-6.636-12.604-8.625-24.554l-5.972-17.251c18.58-1.329,31.851,0,40.478,3.318
				c8.628,3.318,17.254,8.625,25.219,13.934l3.318,0.661l1.99-2.65c1.329-13.94,5.972-26.545,12.607-38.488
				c3.982-5.976,12.612-13.272,27.209-22.566L136.834,64.082z"/>
		</g>
	</g>
	<g>
		<g>
			<path d="M127.541,80.004c-1.325-0.661-1.989,0-2.653,0.667l-16.59,35.17c-10.618,25.883-18.58,47.78-21.897,65.039
				l-26.545,20.569c-16.589,14.594-28.537,26.545-35.833,35.17l-0.665,1.329l0.665,1.989l3.318-0.667
				c7.297-9.286,19.244-21.23,37.824-35.831l24.555-19.908v-1.329c5.971-27.205,18.58-60.385,38.488-99.541
				C128.869,82,128.205,80.672,127.541,80.004z"/>
		</g>
	</g>
	<g>
		<g>
			<path d="M25.346,131.77c-0.664-0.661-1.99,0-3.319,0.661c0,1.329,0,2.658,1.329,2.658l24.552,16.589
				c17.918,12.612,30.526,23.227,38.491,31.852h1.989c29.198-1.329,62.378-0.667,99.542,1.329l2.653-2.657l-1.99-1.989
				c-36.499-1.329-69.014-1.989-99.541,0c-7.964-8.625-21.236-19.24-39.152-31.852L25.346,131.77z"/>
		</g>
	</g>
	<g>
		<g>
			<path d="M89.717,181.541c0-1.996-1.329-2.657-1.993-1.329c-1.325,0-1.325,1.329-1.325,1.989l11.279,27.874
				c8.629,19.908,17.254,36.499,25.219,49.103l2.653,0.667l0.665-3.318c-7.964-11.944-15.926-28.533-24.555-48.442L89.717,181.541z"
				/>
		</g>
	</g>
	<g>
		<g>
			<path fill="#858585" d="M241.684,420.439c-12.607,7.297-24.557,16.589-35.834,29.201l15.262,6.637l23.227,8.617l25.88-1.32
				l10.617-3.317l-3.981,9.953c-1.988,8.626-2.653,16.591-2.653,25.217c0.665,13.94,3.319,27.212,7.965,42.466
				c1.989-3.315,7.961-9.285,16.59-17.911l21.235-20.568c3.98-5.314,7.298-12.611,7.964-20.576v-9.955l9.289,5.971
				c7.301,3.984,13.937,6.636,20.572,8.632l55.077,4.64l-28.532-41.799c-2.653-4.652-7.964-9.295-14.601-13.272l-9.954-4.65
				l13.937-8.62c5.312-3.985,9.29-9.955,11.945-16.591c2.654-7.305,7.299-16.592,13.936-27.879l9.291-15.924l-22.563,1.988
				l-29.863,3.319c-9.29,2.655-17.916,7.963-25.214,13.935l-9.292,8.633c-0.663-13.936-3.317-24.558-8.628-31.192l-33.181-39.148
				c0,4.64-1.989,11.937-5.309,22.558c-3.983,9.955-5.972,19.242-6.638,25.879c0,13.938,0.666,27.878,2.653,43.134
				C262.256,410.484,252.965,414.465,241.684,420.439z"/>
		</g>
	</g>
	<g>
		<g>
			<path d="M278.846,313.602c-1.328,0.662-1.992,1.983-1.992,3.318c0,3.979-1.99,10.615-5.308,19.907
				c-3.983,11.938-5.974,21.231-6.636,28.528v7.302l1.988,33.182c-5.973,1.329-15.262,5.97-26.543,11.942
				c-12.609,7.299-25.217,17.254-36.5,29.862l-0.66,1.329v1.329l1.988,2.656l9.955,3.979c11.942,5.976,21.235,9.292,28.532,11.275
				l31.19-1.983c-2.654,7.299-3.982,15.925-3.982,25.211v3.984c0.666,13.94,3.982,27.873,8.63,43.801l2.653,1.984l3.318-1.984
				c2.653-3.316,7.961-9.292,16.591-16.589l19.907-21.241c5.973-7.3,9.292-15.926,9.292-26.547
				c9.951,5.314,18.577,9.955,25.214,11.95l56.405,4.642l3.319-1.984v-1.335v-2.65l-28.533-40.482
				c-4.646-6.638-11.283-12.605-20.574-16.589l0.665-1.323l11.283-7.967c3.979-3.315,7.298-8.625,9.953-15.262
				c1.989-6.636,7.297-15.267,13.934-27.203l9.294-15.271v-1.989l-0.665-1.99c-0.663-1.326-1.991-1.326-3.981-1.326l-18.58,1.99
				l-33.845,3.979c-10.618,2.656-20.572,7.971-30.527,17.255c-1.987-11.942-4.645-19.907-8.624-25.214l-33.181-39.814
				L278.846,313.602z M245.001,461.579c-7.3-1.984-16.591-5.302-26.545-9.955l-6.636-2.65
				c11.943-11.944,21.896-19.907,31.852-25.217c11.946-7.297,20.572-10.612,26.545-11.282l1.329-0.666
				c1.328,0,2.652-1.983,2.652-3.318l0,0c-1.99-12.605-2.652-24.549-2.652-35.832v-6.637c0.662-7.303,2.652-16.588,6.636-26.543
				l3.981-15.263l28.533,34.503c4.646,5.977,7.302,15.268,7.966,28.543c0,1.986,1.326,2.655,2.654,2.655
				c1.987,0.66,2.652,0,3.315-0.669l8.627-8.626c7.3-5.974,15.266-10.613,23.892-12.608l31.854-3.318l13.271-0.663
				c-9.954,15.931-16.591,28.536-19.909,37.821l-7.963,13.271l-9.955,6.639l-6.636,3.983l-1.328,2.652v0.666l2.656,2.649
				l8.626,3.985c6.637,3.984,11.283,7.966,13.938,12.604l25.216,36.499l-47.778-4.641l-20.572-8.634l-7.964-5.302l-3.981-0.666
				c-1.326,0.666-1.991,1.987-1.991,3.316l0,0l0.665,3.319c0,9.955-2.652,18.578-7.964,25.877l-19.243,19.247l-13.938,13.933
				c-3.981-13.933-5.972-25.877-6.636-35.83v-3.984c0-6.637,0.664-14.597,3.315-21.231l2.654-7.965l0.665-1.988l-1.325-1.997
				l-3.981-1.321C268.893,462.245,257.607,463.574,245.001,461.579z"/>
		</g>
	</g>
	<g>
		<g>
			<path d="M286.809,344.124c0-1.327-1.326-1.327-1.99-1.327c-1.329,0-1.989,0.666-1.989,1.989v0.661l6.636,27.21
				c5.309,22.561,11.943,43.137,18.579,63.044l-5.971,31.191c-4.647,21.229-9.291,34.503-13.938,41.14v1.335l0.663,1.98
				c1.325,0,2.654,0,2.654-1.322c5.309-6.637,9.954-21.234,14.602-41.812l5.972-31.845V435.7
				c-7.3-20.576-13.272-41.806-18.583-63.708L286.809,344.124z"/>
		</g>
	</g>
	<g>
		<g>
			<path d="M223.766,448.307l1.328,1.335l85.604-11.29l0.666-1.322c31.188-27.87,54.416-47.78,71.005-59.063
				c0.663-0.659,0.663-1.321,0-2.655h-2.656c-15.262,10.621-39.151,30.528-70.34,58.401l-84.277,11.942
				c-0.665,0-1.329,0.669-1.329,1.989V448.307L223.766,448.307z"/>
		</g>
	</g>
	<g>
		<g>
			<path d="M311.362,433.712l0.663,2.658l-1.992,1.98l75.652,38.494c1.325,1.324,1.991,0.661,2.654-0.66
				c1.325-1.335,0.664-2.655-0.663-2.655L311.362,433.712z"/>
		</g>
	</g>
</g>
<path id="PATH77" fill="none" stroke="#000000" stroke-width="3" stroke-miterlimit="100" d="M370.59,585.26H3.92V2.74h366.67
	V585.26L370.59,585.26z"/>
</svg>
