<?xml version="1.0" encoding="utf-8"?>
<!-- Generator: Adobe Illustrator 13.0.0, SVG Export Plug-In . SVG Version: 6.00 Build 14948)  -->
<!DOCTYPE svg PUBLIC "-//W3C//DTD SVG 1.1//EN" "http://www.w3.org/Graphics/SVG/1.1/DTD/svg11.dtd">
<svg version="1.1" id="圖層_1" xmlns="http://www.w3.org/2000/svg" xmlns:xlink="http://www.w3.org/1999/xlink" x="0px" y="0px"
	 width="372px" height="587px" viewBox="0 0 372 587" enable-background="new 0 0 372 587" xml:space="preserve">
<g>
	<g>
		<g>
			<g>
				<path fill="#222222" d="M374.349-5.692H1.802v599.808h372.546V-5.692z"/>
			</g>
		</g>
	</g>
	<g>
		<g>
			<g>
				<path fill="#FDF5ED" d="M354.355,14.301H21.796v559.82h332.56V14.301z"/>
			</g>
		</g>
	</g>
	<g>
		<g>
			<g>
				<path fill="#009844" d="M354.355,14.301H21.796v559.82h332.56V14.301z"/>
			</g>
		</g>
	</g>
	<g>
		<g>
			<g>
				<path fill="#009844" d="M354.355,14.301H21.796v559.82h332.56V14.301z"/>
			</g>
		</g>
	</g>
	<g>
		<g>
			<g>
				<path fill="#009844" d="M354.355,14.301H21.796v559.82h332.56V14.301z"/>
			</g>
		</g>
	</g>
	<g>
		<g>
			<g>
				<path fill="#009844" d="M354.355,14.301H21.796v559.82h332.56V14.301z"/>
			</g>
		</g>
	</g>
	<g>
		<g>
			<g>
				<path fill="#009844" d="M354.355,14.301H21.796v559.82h332.56V14.301z"/>
			</g>
		</g>
	</g>
	<g>
		<g>
			<g>
				<path fill="#009844" d="M354.355,14.301H21.796v559.82h332.56V14.301z"/>
			</g>
		</g>
	</g>
	<g>
		<g>
			<g>
				<path fill="#009844" d="M354.355,14.301H21.796v559.82h332.56V14.301z"/>
			</g>
		</g>
	</g>
	<g>
		<g>
			<g>
				<path fill="#009844" d="M354.355,14.301H21.796v559.82h332.56V14.301z"/>
			</g>
		</g>
	</g>
	<g>
		<g>
			<g>
				<path fill="#009844" d="M354.355,14.301H21.796v559.82h332.56V14.301z"/>
			</g>
		</g>
	</g>
	<g>
		<g>
			<g>
				<path fill="#A7754A" d="M374.349,594.115V-5.692H1.802v599.808H374.349z"/>
			</g>
		</g>
		<g>
			<g>
				<path fill="#FDF5ED" d="M354.355,14.301H21.796v559.82h332.56V14.301z"/>
			</g>
		</g>
		<g>
			<g>
				<path fill="#D96038" d="M373.686,80.947V-4.358H2.47v99.304c15.327,1.328,26.658,1.328,33.989-0.67
					c14.661-3.333,26.659-5.994,35.988-6.665c15.995-0.67,23.993,3.332,25.991,11.332c1.334,4.66-0.667,26.658-5.331,65.311
					c-6.665,44.654-8.666,83.307-7.999,115.295c1.334,29.326,3.333,66.646,7.999,111.97c1.999,33.322-0.667,53.316-7.999,61.972
					c-11.328,13.329-38.653,19.994-82.639,19.994v119.961h371.216V496.81c-55.985-9.327-92.64-13.329-110.632-12.659l-41.989,4.666
					l-39.987-2.004c-13.993-3.997-22.658-9.327-25.991-17.326c-3.332-6.664-3.999-17.324-1.998-31.317l7.332-62.649
					c1.998-29.99,3.997-54.65,3.997-73.974c0-9.997-3.333-35.991-9.33-78.646c-5.998-39.323-7.996-69.978-6.665-90.635
					c0.667-24.66,7.999-38.66,21.995-42.656c7.995-1.998,18.659-2.668,33.986-0.664L373.686,80.947z"/>
			</g>
		</g>
		<g>
			<g>
				<path fill="#636361" d="M170.417,89.609c-13.996,3.996-21.328,17.996-21.995,42.656c-1.331,20.657,0.667,51.312,6.665,90.635
					c5.998,42.656,9.33,68.649,9.33,78.646c0,19.323-1.999,43.983-3.997,73.974l-7.332,62.649
					c-2.001,13.993-1.334,24.653,1.998,31.317c3.333,7.999,11.998,13.329,25.991,17.326l39.987,2.004l41.989-4.666
					c17.992-0.67,54.646,3.332,110.632,12.659V80.947l-169.282,7.999C189.076,86.94,178.412,87.611,170.417,89.609z"/>
			</g>
		</g>
		<g>
			<g>
				<path fill="#636361" d="M36.459,94.275c-7.332,1.998-18.663,1.998-33.989,0.67v378.538c43.986,0,71.312-6.665,82.639-19.994
					c7.332-8.655,9.997-28.649,7.999-61.972c-4.666-45.324-6.665-82.644-7.999-111.97c-0.667-31.988,1.334-70.641,7.999-115.295
					c4.664-38.653,6.665-60.651,5.331-65.311c-1.998-8-9.997-12.002-25.991-11.332C63.118,88.281,51.12,90.943,36.459,94.275z"/>
			</g>
		</g>
		<g>
			<g>
				<path d="M199.073,2.306l-2.666-2.005h-19.326l-1.334,0.671L75.112,89.609c-0.667,1.334-0.667,2.004,0,2.668l2.666,1.998H115.1
					l-79.975,87.973l-0.667,1.998v1.334c0.667,0.664,1.334,1.999,2.001,1.999h13.33L6.469,236.229l-1.335,2.005v50.647l2.002,2.668
					l3.332-0.67l84.638-118.627l0.667-2.668l-2.666-1.328H80.445l52.649-55.985l-57.983,108.63l-0.667,1.334l0.667,1.328
					c0,0.67,1.334,0.67,2.001,0.67h21.992l-40.654,69.979v0.669v1.992l2.665,0.671h19.33l-43.986,71.312l-1.334,1.328l1.334,2.004
					c1.999,1.328,3.333,1.328,4-0.664l47.315-74.65v-2.661l-2.665-1.999H65.115l41.322-69.313v-0.664v-1.334
					c-0.667-1.334-1.334-1.998-2.666-1.998H81.777l65.314-122.63V95.61l-1.334-2.669h-3.333l-69.978,75.979
					c-0.667,1.328-0.667,1.998-0.667,3.332l2.665,1.328h13.997l-77.31,107.303v-41.986l46.652-52.652l0.667-1.998v-1.334
					l-3.333-0.664H43.124l79.975-88.644v-1.992v-0.67c0-1.334-1.334-1.998-2.001-1.998H84.442l93.97-83.307h12.662l-55.981,66.645
					l-0.667,1.999l0.667,1.334l2.001,1.328h40.651l-67.976,125.298v1.328v1.341l2.665,1.328h27.325l-42.652,67.979l-0.667,1.335
					l0.667,0.664l2.666,1.334h33.322l-25.327,47.986l-0.664,1.327l1.331,2.005c1.334,1.328,3.332,1.328,3.332-0.664l27.992-51.988
					v-1.999l-2.001-1.998h-33.322l41.988-67.309l1.331-1.341l-0.664-1.328l-2.001-1.334h-27.989l67.977-125.292v-1.334v-1.334
					l-2.665-1.328h-39.988l56.649-66.645V2.97V2.306z"/>
			</g>
		</g>
		<g>
			<g>
				<path d="M251.056,440.16c1.334,0.671,2.001,0,3.332-1.991l24.659-46.651l-7.999,25.317v0.67l0.668,1.334l2.002,1.328h32.655
					l-23.993,59.317v1.334l1.997,1.997c1.335,1.335,2.669,0.665,3.333-1.327l24.66-63.313v-2.668c0-0.665-0.667-0.665-1.998-0.665
					h-32.659l15.331-50.654l0.666-0.67l-1.334-2.662c-1.334,0-2.665,0-3.332,1.334l-39.319,73.975
					C249.057,437.499,249.057,438.833,251.056,440.16z"/>
			</g>
		</g>
		<g>
			<g>
				<path d="M365.687,74.952c-1.334,0-1.999,0.664-2.665,1.328L259.721,280.883l0.668,2.662l1.997,1.34h16.661l-27.325,46.651v1.328
					v1.334l2.666,1.334h17.995l-18.659,37.983l-0.667,0.67l1.998,2.662c1.334,0.67,2.665,0.67,3.332-1.328l20.66-41.321v-2.662
					l-2.664-1.34h-17.996l27.325-46.651v-1.328v-1.334l-2.666-1.335h-16.66L363.688,86.94l1.999,17.332l-73.311,156.617v1.334v0.664
					l2.665,1.334h24.661l-21.328,43.99v0.663v1.999l2.665,0.67h27.325l-28.656,89.971l-0.667,0.665l0.667,1.997l2.665,0.671h38.652
					l-19.326,97.963v0.663c0,1.342,0.668,2.005,2.666,2.005l2.668-2.005l19.326-101.294l-0.667-1.335l-1.334-1.334h-38.653
					l28.656-89.308v-1.328v-1.334l-2.665-0.67h-26.657l21.327-43.983v-0.664l-0.667-2.005c0-0.664-0.667-1.328-1.998-1.328h-24.66
					l71.976-153.284v-1.334l0,0l-3.332-26.658L365.687,74.952z"/>
			</g>
		</g>
		<g>
			<g>
				<path d="M286.379,5.639c-1.334-0.664-2.002,0-2.665,0.664l-55.985,102.636c-0.663,0.664,0,1.998,0.668,1.998
					c0.667,1.334,1.334,1.334,2.665,0L287.046,8.971C288.377,6.966,287.71,6.303,286.379,5.639z"/>
			</g>
		</g>
		<g>
			<g>
				<path d="M214.399,137.595h-2.665l-95.301,173.278c-0.667,0.67,0,1.997,0.667,2.662l2.666-1.328l95.301-172.614
					C215.733,138.929,215.733,137.595,214.399,137.595z"/>
			</g>
		</g>
		<g>
			<g>
				<path d="M263.054,157.588l-2.002,1.334l-29.99,55.314c-0.664,1.334,0,1.998,0.667,2.662c0.667,0.67,2.001,0,2.665-1.328
					l29.99-54.651C265.051,158.922,264.384,158.259,263.054,157.588z"/>
			</g>
		</g>
		<g>
			<g>
				<path d="M227.729,224.233c-1.331,0-1.997,0-2.665,1.334l-42.651,77.969c-0.667,0.671,0,1.342,0.667,2.669
					c1.998,0.664,2.665,0,2.665-1.327l42.653-77.313C229.063,226.232,228.396,225.568,227.729,224.233z"/>
			</g>
		</g>
		<g>
			<g>
				<path d="M377.017,25.632c-1.334-0.664-2.668,0-2.668,0.664L307.704,144.93c0,0.664,0,1.328,0.666,2.662l3.333-0.67
					l65.979-117.957C378.348,26.96,377.682,26.296,377.017,25.632z"/>
			</g>
		</g>
		<g>
			<g>
				<path d="M285.712,187.579c-0.667-1.334-1.335-0.671-2.666,0.67l-71.312,128.618c-1.33,1.341-0.666,2.004,0.668,2.668
					c0.667,1.334,1.997,0.663,2.665-0.664l71.979-128.63C287.71,188.913,287.046,187.579,285.712,187.579z"/>
			</g>
		</g>
		<g>
			<g>
				<path d="M181.745,554.798c0,1.328,0.667,1.992,2.001,1.992h141.286l2.001-1.992l-2.001-2.005H183.746
					C182.412,552.793,181.745,553.458,181.745,554.798z"/>
			</g>
		</g>
		<g>
			<g>
				<path d="M71.113,552.793H11.132c-1.331,0-2.665,0.665-2.665,2.005c0,1.328,1.334,1.992,2.665,1.992h59.981l2.001-1.992
					L71.113,552.793z"/>
			</g>
		</g>
		<g>
			<g>
				<path d="M262.386,534.805c0,1.328,0.668,1.991,2.665,1.991h43.987l1.998-1.991l-1.998-2.005h-43.987
					C263.054,532.8,262.386,533.464,262.386,534.805z"/>
			</g>
		</g>
		<g>
			<g>
				<path d="M176.415,532.8h-75.311c-1.331,0-2.666,0.664-2.666,2.005c0,1.328,1.334,1.991,2.666,1.991h75.311l2.665-1.991
					L176.415,532.8z"/>
			</g>
		</g>
		<g>
			<g>
				<path d="M67.117,532.8H11.132c-1.331,0-2.665,0.664-2.665,2.005c0,1.328,1.334,1.991,2.665,1.991h55.985l1.998-1.991
					L67.117,532.8z"/>
			</g>
		</g>
		<g>
			<g>
				<path d="M254.388,512.143h-121.96c-1.334,0-1.998,1.328-1.998,2.668c0,0.665,0.664,1.992,1.998,1.992h121.96l2.001-1.992
					L254.388,512.143z"/>
			</g>
		</g>
		<g>
			<g>
				<path d="M91.773,512.143H11.132c-1.331,0-2.665,1.328-2.665,2.668c0,0.665,1.334,1.992,2.665,1.992h80.642l1.334-1.992
					L91.773,512.143z"/>
			</g>
		</g>
		<g>
			<g>
				<path d="M186.411,494.147c0,1.334,0.667,1.997,1.998,1.997h77.31l1.998-1.997l-1.998-1.999h-77.31
					C187.078,492.148,186.411,492.813,186.411,494.147z"/>
			</g>
		</g>
		<g>
			<g>
				<path d="M91.773,492.148H11.132c-1.331,0-2.665,0.665-2.665,1.999s1.334,1.997,2.665,1.997h80.642l2.666-1.997L91.773,492.148z"
					/>
			</g>
		</g>
		<g>
			<g>
				<path d="M81.109,471.491H11.132c-1.331,0-2.665,0.665-2.665,2.662c0,0.671,1.334,1.334,2.665,1.334h69.978l2.001-1.334
					L81.109,471.491z"/>
			</g>
		</g>
		<g>
			<g>
				<path d="M67.117,451.498H11.132c-1.331,0-2.665,0.664-2.665,1.991c0,1.341,1.334,2.005,2.665,2.005h55.985l1.998-2.005
					L67.117,451.498z"/>
			</g>
		</g>
		<g>
			<g>
				<path d="M57.784,430.834H11.132c-1.331,0-2.665,0.671-2.665,2.662c0,0.67,1.334,1.341,2.665,1.341h46.652l2.001-1.341
					L57.784,430.834z"/>
			</g>
		</g>
		<g>
			<g>
				<path d="M53.788,410.841H11.132c-1.331,0-2.665,0.67-2.665,1.997c0,1.334,1.334,2.005,2.665,2.005h42.656l1.998-2.005
					L53.788,410.841z"/>
			</g>
		</g>
		<g>
			<g>
				<path d="M53.121,390.847H11.132c-1.331,0-2.665,0-2.665,1.334c0,1.999,1.334,1.999,2.665,1.999h41.989l1.998-1.999
					L53.121,390.847z"/>
			</g>
		</g>
		<g>
			<g>
				<path d="M59.785,370.184H11.132c-1.331,0-2.665,0.669-2.665,2.004c0,1.328,1.334,1.998,2.665,1.998h48.653l1.998-1.998
					L59.785,370.184z"/>
			</g>
		</g>
		<g>
			<g>
				<path d="M302.373,138.929c3.332,5.331,5.331,9.997,5.997,14.657c0.668,4.002,0.668,7.334,0,8.005
					c-1.997,1.992-5.33,3.332-9.329,3.996l-8.662-1.334l-1.335-1.998c-1.334-4.667-5.33-6.664-11.331-6h-11.327l-20.661,2.668
					c-3.999,0.664-7.998,5.331-11.331,11.995c-2.665,4.667-4.663,9.997-5.33,13.999c-3.332,2.663-6.665,3.997-11.331,2.663
					c-2.665-0.671-5.33-2.663-5.998-5.331c-3.332-9.997-3.332-16.662-1.997-19.33l1.331-0.664c4.665,0,7.998-1.334,11.33-4.667
					c3.333-3.333,4.667-5.994,4.667-8.662c0-3.333-5.334-8.669-17.328-14.664l-17.329,1.334l-6.665,1.999
					c-0.667-1.335-2.665-4.003-3.332-8.663c-1.999-6-2.666-9.333-1.335-10.66l3.333-4.673c4.667-7.992,7.999-11.325,9.998-11.325
					l9.996,3.997l17.328,6l13.33-1.334c1.334-0.67,2.665-1.998,1.334-3.332c-0.668-1.998-1.334-1.998-3.333-1.998l-10.664,1.998
					c-3.999-1.334-9.996-3.333-15.993-5.994l-11.332-4.003c-3.999-1.334-9.33,3.333-15.994,13.329l-2.665,4.667
					c-0.667,1.998-1.334,5.331-0.667,9.997c1.998,8.663,3.999,13.993,7.332,16.661l11.328-1.334l13.328-1.998
					c7.998,4.66,13.329,7.328,14.663,9.997l-3.332,5.33c-2.665,1.999-4.667,3.333-7.998,3.333c-1.998,0-3.997,0.67-5.331,2.662
					c-3.332,4.002-3.332,12.001,0.668,23.996c1.33,4.667,4.663,6.665,9.996,8.663c5.997,1.334,11.327,0,16.661-3.996l0.667-1.334
					c4.663-14.664,8.663-21.992,13.993-23.996l18.663-1.328l11.994-0.664l4,0.664l1.997,1.998l3.333,4.667l11.998,1.998
					c5.997-1.334,9.997-3.333,12.662-5.994c1.998-2.668,2.665-6.001,1.334-12.001c-1.334-5.33-3.332-11.324-6.665-16.662
					c-0.666-1.328-2-1.998-3.999-0.664C302.373,136.26,301.706,137.595,302.373,138.929z"/>
			</g>
		</g>
		<g>
			<g>
				<path d="M375.017,18.968c2-5.337,0.666-9.997-3.333-15.334c-7.331-9.326-23.325-12.659-49.316-9.997
					c-1.335,0.67-2.665,1.341-2.665,2.004c-3.333,10.661-7.332,21.992-13.997,34.65c-13.329,25.995-29.322,46.652-47.985,61.985
					l-4.663,3.333c1.331-1.334,2.665-1.334,3.332,0.664c1.331,1.334,1.331,2.669-0.667,3.332l5.33-3.332
					c17.995-14.657,33.989-33.986,46.652-57.976c7.999-13.999,13.328-27.329,16.661-39.323c23.325-2.004,37.322,0.664,43.319,7.992
					c2.668,3.332,3.332,6.665,2.001,10.667c-2.001,32.652-16.662,59.98-43.319,81.309c-7.998,6.664-17.328,11.994-27.325,16.661
					l-12.662,5.331c-2.002,0.67-2.665,1.998-1.334,3.333c0,1.998,1.334,1.998,3.332,1.998l12.662-5.331
					c10.664-5.331,19.993-11.331,28.659-17.996C357.688,80.947,372.352,52.954,375.017,18.968z"/>
			</g>
		</g>
		<g>
			<g>
				<path d="M299.708,115.603c-2.665,1.998-5.998,3.997-10.664,5.331c-7.998,2.662-15.994,1.334-23.325-3.333
					c-5.33-2.662-7.999-6.665-9.33-10.667c0-2.663,0.667-6.665,2.665-10.661l2.666-4.66l0.666-2.668l-1.334-1.334l-13.329-1.334
					c-6.665,2.669-11.327,6.665-13.993,12.666c-5.333,14.656-1.334,28.656,12.662,43.319c9.33,9.997,21.991,13.33,36.654,10.661
					c12.663-1.328,21.325-6.665,25.992-15.327c3.332-6.665,1.334-14-5.33-21.992H299.708z M304.371,135.597
					c-3.996,6.665-11.327,10.661-21.991,11.995c-13.329,2.662-23.993-0.67-31.989-8.663c-12.664-13.329-16.661-25.994-11.33-37.319
					c1.997-5.337,5.33-8.669,9.996-9.997c2.665-0.67,4-0.67,6.665,0c-3.332,3.997-4.666,9.327-4.666,13.33l0.666,2.662
					c0.668,5.994,4,11.331,10.664,14.663c12.662,7.992,25.991,7.329,38.653-1.334c2.001,3.333,4,6.665,4,9.997L304.371,135.597z"/>
			</g>
		</g>
		<g>
			<g>
				<path d="M312.37,72.284c0-1.334,0-2.004-1.334-1.334c-1.998,0-1.998,0-1.998,1.334c1.334,13.993,0,28.656-3.999,41.985
					c-0.668,1.334,0,1.998,0.666,2.662c1.999,0.67,2.665,0,3.333-1.328C313.037,100.94,314.368,86.276,312.37,72.284z"/>
			</g>
		</g>
		<g>
			<g>
				<path d="M327.696,49.622c-0.663-1.328-1.997-1.999-2.664-1.328c-1.331,0.664-1.998,1.328-1.331,2.662
					c4.663,14.663,4.663,31.325,1.331,50.654c0,0.664,0,1.992,1.334,2.662l2.666-1.998
					C332.363,82.281,332.363,64.956,327.696,49.622z"/>
			</g>
		</g>
		<g>
			<g>
				<path d="M344.358,36.957c0-1.328-1.331-1.328-2.665-1.328l-1.999,1.998c4,19.994,5.331,35.321,3.333,46.652
					c-0.667,1.334,0,1.998,1.998,2.662l2.002-1.328C349.024,73.611,347.69,57.621,344.358,36.957z"/>
			</g>
		</g>
		<g>
			<g>
				<path d="M239.727,126.264l-2-0.664c-3.997,3.996-7.996,8.663-11.329,13.993l-3.999,8.669c0,0.664,0,1.991,1.335,2.662
					c1.33,0,1.998,0,2.664-1.334l3.333-7.328c3.332-6.001,6.665-9.997,9.996-13.329
					C241.058,127.598,241.058,127.598,239.727,126.264z"/>
			</g>
		</g>
		<g>
			<g>
				<path d="M208.402,177.582c-1.997,0-2.665,0-2.665,1.998c-1.334,9.997,0,19.33,3.333,27.992
					c5.997,13.329,15.993,23.326,29.99,29.991l3.332-1.334v-3.332c-2.666-2.668-4-7.329-5.997-11.995
					c-4-10.667-5.334-21.991-4-33.322c0-1.999,0-2.663-2.665-3.333c-1.334,0-2.002,1.334-2.002,2.662l-1.331,9.333
					c0,11.331,2.666,22.662,7.332,31.324c-15.33-9.326-22.661-23.996-22.661-43.319v-4.003
					C211.068,178.916,209.737,177.582,208.402,177.582z"/>
			</g>
		</g>
		<g>
			<g>
				<path d="M165.083,154.927l-0.667-5.337c0-8.662,2.001-15.327,7.332-20.657l7.332-6.665l1.998-3.332l-0.664-0.664
					c-1.334-2.005-2.001-2.669-3.332-1.341c-4.667,2.005-7.999,6.001-11.998,10.667c-6.665,10.667-8.663,23.326-4,37.325
					l2.001,1.328c1.998,0.664,2.665,0,2.665-1.328l5.331-9.333c3.999-7.329,7.999-12.666,13.329-15.334l1.334-3.997l-3.999-0.664
					C175.08,139.593,169.083,146.257,165.083,154.927z"/>
			</g>
		</g>
		<g>
			<g>
				<path d="M309.038,160.92c-1.334,0-2.665,1.334-3.333,2.663c-1.334,12.001-9.996,20.664-24.659,23.996
					c4.666-7.335,7.998-14.664,9.333-21.992l0,0l-2.002-3.332c-1.998,0-2.665,0.664-2.665,1.998
					c-1.998,9.997-6.665,17.996-13.329,24.66c-1.335,1.328-1.335,1.998-0.667,3.332l2.665,1.999l17.329-5.331
					c11.33-4.667,17.995-13.329,19.993-24.66C311.703,162.255,311.036,161.591,309.038,160.92z"/>
			</g>
		</g>
		<g>
			<g>
				<path d="M131.093,311.543l-3.332-0.67l-51.315,35.32c-13.996,9.996-22.659,24.659-25.327,43.982
					c-1.999,12.003-1.331,25.332,2.001,38.66c4,12.665,9.997,25.324,18.659,36.655c15.331,21.321,34.657,34.65,56.648,40.651
					c23.326,6,42.653,3.332,59.314-8.663l48.653-39.317c1.331-0.67,1.997-2.004,0.666-4.002h-3.999l-48.653,37.988
					c-15.327,11.995-33.322,14.657-54.647,9.334c-21.328-6.001-39.32-19.33-53.316-38.66c-8.666-11.324-14.664-22.662-17.995-35.321
					c-3.333-12.658-4-25.322-1.998-36.654c1.998-17.331,9.997-30.661,23.325-39.986l50.651-35.985
					C131.761,314.204,131.761,312.207,131.093,311.543z"/>
			</g>
		</g>
		<g>
			<g>
				<path d="M185.077,301.546c-22.659-6-41.318-2.668-57.316,9.327c-16.661,11.995-24.657,29.319-25.991,52.646
					c-0.667,22.662,6.665,43.99,21.328,64.653c15.327,19.994,33.323,33.323,55.981,39.317c21.991,5.994,40.654,3.331,57.316-9.327
					c15.994-11.338,24.656-29.326,25.99-51.988c0.668-22.662-6.664-44.646-21.328-65.311
					C225.731,320.869,207.735,307.54,185.077,301.546z M130.43,314.875c15.327-10.667,32.656-14,53.98-8.005
					c20.662,5.337,37.989,18.002,51.986,37.325c14.66,19.323,21.324,39.316,19.993,60.651c0,21.985-7.998,38.646-23.326,49.313
					c-14.663,10.667-32.655,13.329-53.316,7.998c-20.661-5.336-37.989-17.995-51.985-37.318
					c-14.66-19.33-21.324-39.323-20.657-60.651C107.768,342.197,115.1,326.199,130.43,314.875z"/>
			</g>
		</g>
		<g>
			<g>
				<path d="M176.415,314.204c-15.331-2.661-28.66,0.671-39.988,9.327c-13.329,9.996-19.993,23.996-21.327,43.319
					c0,18.666,5.997,37.325,17.995,53.986c12.662,16.662,27.989,27.329,45.985,32.652c18.66,4.673,34.657,2.005,48.649-7.992
					c13.329-9.332,19.994-23.989,20.662-43.318c0.666-18.667-5.331-36.656-17.329-53.98
					C215.733,328.868,197.739,317.537,176.415,314.204z M179.747,450.157c-17.329-5.323-31.325-15.991-43.32-31.981
					c-11.998-15.997-17.995-33.323-17.328-50.654c0.667-17.996,7.332-31.989,19.326-40.658c10.664-8.655,23.326-11.324,37.322-8.655
					c20.66,2.661,37.322,13.328,51.981,32.652c11.332,15.99,17.329,33.322,16.662,50.653c0,18.653-6.664,31.982-19.327,41.315
					C212.402,452.162,197.739,454.16,179.747,450.157z"/>
			</g>
		</g>
		<g>
			<g>
				<path d="M84.442,374.186c-3.333-1.334-6.665-4.002-11.328-9.326l-5.333-6.665l-2.665-0.671
					c-0.667,0.671-0.667,1.999-0.667,3.333l6.001,7.335c4.663,5.324,8.662,8.656,12.662,9.326l21.992,6.665l2.666-1.998
					c0.667-0.664,0-1.334-1.331-2.005L84.442,374.186z"/>
			</g>
		</g>
		<g>
			<g>
				<path d="M88.441,406.838c-6.665-5.324-11.995-7.992-16.662-7.328c-8.662,1.334-13.996,0-17.328-2.669h-2.665
					c-1.998,0.671-1.998,1.341,0,2.669c3.332,3.995,10.664,4.666,20.66,3.995c4,0,7.999,1.342,12.662,6.002l13.329,7.998
					l21.328,1.334c1.331-0.663,1.331-1.334,1.331-2.004l-1.331-1.992h-1.334l-18.659-0.671L88.441,406.838z"/>
			</g>
		</g>
		<g>
			<g>
				<path d="M152.421,452.162c1.334-0.664,0.667-1.334,0-2.005c-6.665-3.333-12.662-5.994-17.996-5.994l-17.992,1.334l-3.332,0.664
					l-8.666,0.663l-4.663-3.331l-5.333-6.665c-4.664-5.323-8.663-7.992-12.662-9.327l-11.995-2.661l-9.997-4.003l-4-2.661
					c-0.667-0.671-1.998-0.671-2.665,0c-1.334,0.663-1.334,1.991,0,2.661l4.663,3.333l11.331,4.666l11.331,1.998
					c3.997,1.334,7.329,4.003,11.328,8.662l4.667,6.001l6.665,5.331l9.997-0.671l4.663-0.663l15.998-1.328
					c5.33,0,10.661,2.662,15.994,5.323C151.754,454.16,152.421,453.489,152.421,452.162z"/>
			</g>
		</g>
		<g>
			<g>
				<path d="M139.092,471.491c9.997-5.336,17.996-9.333,25.324-10.667c1.334,0,1.334-1.334,1.334-2.662l-2.665-1.34
					c-7.332,1.34-15.331,5.336-25.992,11.337c-6.664,3.332-11.331,5.994-13.996,6.665c-5.334,0.663-9.997,0-13.996-2.668
					c-7.332-4.667-15.995-9.334-25.991-12.003l-13.329-3.331c-0.667-0.664-1.335,0-2.002,1.34c0,1.328,0.667,1.991,2.002,1.991
					l11.995,3.333c9.997,3.332,17.996,6.665,24.66,11.338c5.33,3.996,11.327,5.323,16.661,3.996
					C126.431,478.156,131.761,475.487,139.092,471.491z"/>
			</g>
		</g>
		<g>
			<g>
				<path d="M189.076,465.491c-9.33,8.662-19.993,15.327-32.655,21.991c-11.998,6.665-26.658,9.327-43.987,7.335
					c-1.334,0-1.998,0.664-1.998,1.992c0,1.34,0.664,2.004,1.331,2.004c17.996,1.998,33.323-0.664,46.652-7.999l23.326-14.663
					l9.998-7.992c0.666-0.67,0.666-1.341,0-2.668C190.411,464.157,189.743,464.157,189.076,465.491z"/>
			</g>
		</g>
		<g>
			<g>
				<path d="M179.08,330.196c-13.329-3.997-23.993-1.992-33.323,4.673c-6.665,5.323-10.664,11.324-12.662,19.323
					c-2.001,7.335-2.665,15.326-1.334,23.996l3.332,7.328c3.333,5.33,7.999,8.663,13.996,11.324l14.664-1.327l8.663-7.329
					c3.333-4.673,2.665-11.337-2.665-19.993l-7.999-11.337c7.999-8.656,18.663-11.325,32.656-9.327
					c6.663,0.671,11.998,3.333,17.327,5.994C202.405,340.863,192.408,333.527,179.08,330.196z"/>
			</g>
		</g>
		<g>
			<g>
				<path d="M228.396,384.183c-2.665-5.331-7.332-9.326-13.329-11.331l-15.327,0.664c-3.333,1.341-6.664,4.002-8.666,7.335
					c-3.332,5.33-1.998,11.995,2.668,19.993l8.663,11.331c-7.998,8.662-19.326,11.995-32.655,9.333l-17.329-5.337
					c8.663,11.33,19.327,19.329,32.656,22.662c12.662,3.996,23.325,1.998,33.322-4.667c5.998-4.666,9.997-10.667,12.662-18.658
					c2.001-7.999,2.001-15.334,0.667-24.661L228.396,384.183z"/>
			</g>
		</g>
		<g>
			<g>
				<path d="M367.685,187.579c-0.664,0-1.998,0-1.998,1.334l-44.654,119.298c-0.664,1.991,0,2.662,0.667,2.662
					c1.335,0.67,2.666,0,2.666-0.671l44.653-119.961C369.019,188.913,369.019,187.579,367.685,187.579z"/>
			</g>
		</g>
		<g>
			<g>
				<path d="M371.017,236.229c-1.998,0-2.665,0-3.332,1.334l-41.318,163.951c0,1.328,0,2.662,1.998,2.662
					c0.668,0,2.002,0,2.665-1.997l41.322-163.282C372.352,237.563,372.352,236.229,371.017,236.229z"/>
			</g>
		</g>
		<g>
			<g>
				<path d="M159.753-2.36h-2.001L3.137,130.931c-1.334,0.67-1.334,1.334-0.667,3.332c1.334,0.67,1.998,0.67,2.665,0L159.753,0.301
					C161.084-0.362,161.084-1.026,159.753-2.36z"/>
			</g>
		</g>
		<g>
			<g>
				<path d="M123.765,0.972l-2.668-0.671L3.137,92.941c-1.334,1.334-1.334,2.669-0.667,3.333h2.665l117.964-92.64L123.765,0.972z"/>
			</g>
		</g>
		<g>
			<g>
				<path d="M101.771-2.36l-1.998-0.67L-4.862,66.947c-1.331,0.67-1.331,1.341-0.667,2.669l2.668,0.664L101.771,0.301
					C103.104,0.301,103.104-1.026,101.771-2.36z"/>
			</g>
		</g>
		<g>
			<g>
				<path d="M79.778,467.489l-3.999-0.671c-1.334,0.671-1.334,2.005-0.667,3.333l13.33,20.663
					c3.999,9.327,5.998,14.663,4.666,17.332l-14.663,12.659c-8.662,5.994-13.996,10.667-15.327,15.327
					c-0.667,6.664,1.331,12.664,5.33,19.329c4,5.33,9.33,7.992,14.664,8.663l24.657-1.334l23.325-2.67l24.66,3.333l16.662,2.669
					c4-0.664,9.997-5.331,17.996-13.993c9.329-10.661,15.994-15.334,20.657-15.334l14.663,2.668l30.657,2.005
					c5.997-2.668,11.994-6.664,15.994-13.999c3.332-5.33,6.664-7.999,9.997-8.663h18.659c18.663,1.328,31.324-0.663,36.655-3.996
					c5.333-3.332,7.998-9.996,9.333-20.663l-0.668-15.327l-2.001-1.335c-1.331-0.67-1.998,0-2.665,1.335l-7.332,13.328
					c-4.663,5.331-8.662,8.663-12.662,9.334h-16.66l-23.993,0.664c8.665-13.33,17.995-21.328,27.324-22.662
					c1.335-0.664,2.002-1.328,2.002-2.669h-0.667c0-1.991-0.667-2.662-2.001-2.662l-16.662,1.998
					c-11.995,2.005-19.994,6.001-24.656,12.665l-7.332,13.33l-7.998,12.664l-8.663,5.324l-14.664-1.991l-11.995-1.341l-12.661,1.341
					l-17.329,7.991c-11.995,6.001-19.993,9.334-23.993,9.334l-7.996,1.327l-50.651-1.991c0-1.341,0.667-2.005,1.998-3.332
					l7.999-2.668c8.662-2.005,14.66-3.997,17.992-6.665c4.667-3.996,5.333-10.661,2.001-19.33c-1.334-1.327-2.001-1.998-3.332-1.327
					c-2.001,0.664-2.665,1.99-1.334,3.332c2.665,5.994,2.001,9.996-1.331,13.329c-2.002,1.991-7.332,3.996-14.664,5.994
					l-10.664,3.332c-3.333,1.998-4,4.666-3.333,8.663c0.667,3.996,5.998,7.328,15.994,7.998l39.987-1.998l7.999-0.664
					c4.667-0.67,13.33-4.673,26.658-10.667c6.665-4.002,12.662-7.335,15.995-7.998l20.66,0.663l17.328,2.005
					c4.663-0.664,7.996-2.668,11.995-7.328l7.999-13.329l7.994-13.329c4-4.673,11.332-8.005,21.996-10.667
					c-7.999,6.664-14.664,13.999-20.661,24.659v1.328v1.341l3.332,0.664l28.656-2.005h17.996
					c6.665-0.663,13.328-5.994,19.993-16.661c-0.667,10.667-3.332,16.661-7.331,19.993c-3.333,2.005-7.996,3.333-15.327,3.333
					h-17.996H282.38c-4,0.67-6.665,2.005-9.33,4.673l-5.333,6.664c-3.333,5.324-7.996,9.997-13.329,11.325l-13.33,1.334
					l-13.329-3.333l-16.66-2.661c-3.333,0-7.996,1.327-12.662,5.323l-11.995,11.338l-14.663,12.658l-15.327-1.997l-25.328-3.997
					l-23.989,2.662l-23.326,1.335c-4-0.664-7.332-2.669-10.664-6.665c-3.999-4.667-5.333-9.997-4.667-15.334
					c0.667-1.991,4.667-6.664,13.33-11.324c7.999-5.337,13.329-10.661,15.994-14.663C101.104,502.146,95.106,488.153,79.778,467.489
					z"/>
			</g>
		</g>
	</g>
</g>
<path id="PATH77" fill="none" stroke="#000000" stroke-width="3" stroke-miterlimit="100" d="M370.59,585.26H3.92V2.74h366.67
	V585.26L370.59,585.26z"/>
</svg>
