<?xml version="1.0" encoding="utf-8"?>
<!-- Generator: Adobe Illustrator 13.0.0, SVG Export Plug-In . SVG Version: 6.00 Build 14948)  -->
<!DOCTYPE svg PUBLIC "-//W3C//DTD SVG 1.1//EN" "http://www.w3.org/Graphics/SVG/1.1/DTD/svg11.dtd">
<svg version="1.1" id="圖層_1" xmlns="http://www.w3.org/2000/svg" xmlns:xlink="http://www.w3.org/1999/xlink" x="0px" y="0px"
	 width="372px" height="587px" viewBox="0 0 372 587" enable-background="new 0 0 372 587" xml:space="preserve">
<g>
	<g>
		<g>
			<path fill="#D96038" d="M301.828,51.769c13.906,0,19.03-5.126,15.369-16.104c-3.658-10.249-10.977-11.707-21.955-3.659
				l-15.369,16.103L301.828,51.769z"/>
		</g>
	</g>
	<g>
		<g>
			<path d="M309.88,23.958c-5.854-0.729-12.443,2.195-20.49,9.513l-11.712,12.445c-0.731,0.727-0.731,2.193-0.731,2.929l2.194,1.459
				l16.833,3.659c10.247,1.464,17.565,0,21.958-4.389c2.927-2.931,3.658-8.047,2.192-14.637
				C317.197,28.347,314.272,24.688,309.88,23.958z M314.272,37.131c1.462,3.659,1.462,7.319-0.733,8.785
				c-3.659,3.658-13.173,4.388-28.541,0c10.244-11.708,17.563-17.569,23.417-16.104C310.612,29.812,312.807,32.007,314.272,37.131z"
				/>
		</g>
	</g>
	<g>
		<g>
			<path d="M280.606,50.304c2.193,0,2.925-1.459,2.193-3.661c0-1.459-2.193-2.193-3.659-1.459l-32.934,10.979
				c-2.195,0.728-2.195,1.459-2.195,3.661c0.732,1.457,2.195,2.186,3.659,1.457L280.606,50.304z"/>
		</g>
	</g>
	<g>
		<g>
			<path fill="#D96038" d="M303.294,519.424l10.245,20.498c7.319,10.979,14.638,11.705,21.957,2.193
				c6.585-8.783,2.925-15.375-10.246-19.762L303.294,519.424z"/>
		</g>
	</g>
	<g>
		<g>
			<path d="M303.294,517.238l-2.198,0.727c0,1.459-0.729,2.193,0,2.93c6.589,19.027,14.639,29.273,23.422,30.006
				c4.392,0.727,9.512-1.467,13.171-7.318c4.393-5.127,5.125-10.25,2.198-14.637c-2.198-4.393-8.783-8.051-19.028-10.252
				L303.294,517.238z M334.762,531.875l0.734,2.186l-2.927,6.592l-7.319,5.121c-5.126-1.465-10.978-8.781-16.835-22.689
				C323.785,524.553,332.569,526.74,334.762,531.875z"/>
		</g>
	</g>
	<g>
		<g>
			<path d="M276.946,496.736c-1.465-0.727-2.928-0.727-4.392,0.732c-0.732,2.201,0,3.658,0.731,5.129l28.542,19.756
				c1.466,0.73,2.927,0.73,4.393-0.729c0.732-2.201,0.732-2.932-0.732-4.387L276.946,496.736z"/>
		</g>
	</g>
	<g>
		<g>
			<path fill="#D96038" d="M283.531,313.773l-16.099-14.639l-2.931,21.229c0,13.908,5.125,19.754,16.104,15.367
				C291.584,331.34,292.315,324.023,283.531,313.773z"/>
		</g>
	</g>
	<g>
		<g>
			<path d="M264.502,298.408l-2.926,16.83c-0.733,10.979,0.731,18.297,4.393,21.955c3.658,2.924,9.513,3.66,15.37,0.738
				c6.585-1.473,10.245-5.133,10.977-10.25c1.462-8.785-7.317-19.025-23.42-30.738l-2.927-0.738L264.502,298.408z M266.7,320.363
				c0-4.389,1.462-8.783,2.927-16.102c10.979,8.783,16.831,16.102,16.831,21.955v0.734c0,2.926-2.927,4.389-6.585,5.848h-9.514
				C268.162,329.877,266.7,326.217,266.7,320.363z"/>
		</g>
	</g>
	<g>
		<g>
			<path d="M258.649,264.746c-1.465-1.474-2.926-1.474-3.659-0.739c-2.928,0-3.658,1.466-2.194,3.66l11.706,32.199
				c0.732,1.471,1.467,2.201,3.66,1.471c2.197,0,2.93-1.471,1.465-3.658L258.649,264.746z"/>
		</g>
	</g>
	<g>
		<g>
			<path fill="#D96038" d="M85.929,20.299c-1.461-7.318-3.659-14.637-5.853-21.227C74.952-14.1,67.633-16.293,59.582-8.975
				c-8.048,8.047-6.586,15.367,5.856,21.956L85.929,20.299z"/>
		</g>
	</g>
	<g>
		<g>
			<path d="M58.121-10.441c-5.858,4.396-7.319,8.784-5.858,13.902c2.198,8.791,13.176,15.374,32.935,19.769l2.93-0.736l0.729-2.194
				c-2.927-20.498-8.048-32.205-16.831-35.135C67.633-16.293,62.513-15.565,58.121-10.441z M57.388,0.538
				c0-2.195,1.465-4.396,4.392-7.319c2.926-2.194,5.854-3.66,8.78-2.194c4.392,1.458,8.784,10.249,11.71,25.615
				C67.633,11.516,59.582,7.12,57.388,2.002V0.538z"/>
		</g>
	</g>
	<g>
		<g>
			<path d="M88.127,18.834l-4.392-0.737c-1.465,1.474-1.465,2.931,0,4.396l23.417,25.616h4.391c0.733-0.736,0.733-2.193,0-3.66
				L88.127,18.834z"/>
		</g>
	</g>
	<g>
		<g>
			<path fill="#858585" d="M128.379,48.109c-4.391-1.466-15.369,9.513-33.667,32.196c-20.494,24.888-35.859,49.771-46.838,73.923
				c-22.688-25.615-39.523-40.987-51.23-46.106l1.461,46.843L26.647,201.8l33.666,54.889c3.661,7.318,6.587,32.198,9.517,76.11
				c2.194,45.383,1.461,73.186-2.198,81.979c-5.854,14.637-27.077,37.322-65.135,70.984v103.924h59.282l57.084-84.162
				c4.392-8.055,10.978-26.355,19.761-53.424c8.052-26.348,12.44-43.184,13.172-50.504c0-4.387,0-12.434-2.927-24.887
				c-2.927-12.434-3.659-20.482-2.927-24.877c0.733-14.639,5.854-38.059,16.099-70.992c11.71-43.183,25.615-72.458,39.523-89.282
				l-5.856-4.396c-4.392-2.922-9.513-2.195-14.638,2.195c-4.392,4.389-14.636,19.025-29.274,43.912l-31.469,54.889
				c-8.784-31.469-15.369-53.424-21.223-64.401L82.27,198.876l-9.513-11.714c1.461-12.443,4.392-27.08,9.513-43.912
				c10.978-32.935,25.615-60.014,45.377-80.505C132.039,53.234,132.768,48.845,128.379,48.109z"/>
		</g>
	</g>
	<g>
		<g>
			<path d="M134.966,51.769l-1.466-3.66l-4.391-3.66c-5.121-1.466-17.565,9.513-36.594,32.935
				c-19.025,23.419-34.395,47.57-45.373,70.261c-21.223-22.691-37.326-37.33-48.303-43.184h-3.66
				c-1.465,0.731-2.193,2.195-2.193,3.66l1.461,46.843l0.732,2.187l61.476,101.003c3.659,6.592,6.586,31.469,9.517,74.645
				c2.194,44.648,1.461,71.729-2.197,80.504c-5.121,13.182-26.349,36.596-63.67,69.527l-1.465,2.932v103.924
				c0,2.924,1.465,3.66,3.659,3.66h59.282l2.195-1.463l57.816-84.896c4.392-8.047,11.71-26.342,20.494-53.432
				c8.051-27.07,12.439-43.91,13.171-51.23c0-5.115-0.732-13.9-3.659-26.342c-2.193-11.707-2.927-19.756-2.193-24.15
				c0.732-13.9,5.852-37.33,16.098-70.266c11.711-42.437,24.887-71.711,38.792-87.085c1.461-1.466,1.461-2.923,0-4.395
				c-2.928-5.119-7.32-7.32-12.444-8.048c-4.392-0.73-8.779,1.464-13.171,5.124c-5.857,3.66-19.762,24.879-40.253,62.209
				l-17.563,29.275c-6.59-25.616-13.176-44.649-19.03-57.084c-5.124-10.979-13.904-22.686-25.615-35.865
				c9.513-51.959,27.078-92.21,53.425-120.757l0.732-0.729C133.5,59.085,134.966,54.691,134.966,51.769z M93.981,86.896
				c15.37-19.754,27.08-31.469,33.666-34.392l-3.659,8.048c-19.762,21.227-34.399,48.3-44.645,80.505
				c-5.125,16.831-8.784,32.204-10.246,46.105l0,0l0.733,2.924L80.076,201.8c7.318,8.783,12.439,16.102,16.099,23.42
				c5.125,10.978,11.71,32.205,20.494,64.403l2.194,2.193c1.464,0.73,2.927,0,3.659-1.457l21.956-37.329
				c21.223-36.595,34.399-57.083,38.792-60.743c2.927-2.202,5.854-3.661,8.048-2.931c2.197,0.729,3.659,1.465,5.855,2.931
				c-14.637,16.831-27.08,46.842-39.519,89.278c-9.516,30.75-13.908,54.893-15.37,70.266v2.922l2.194,22.693l3.66,21.221v2.201
				c-0.733,7.316-5.121,24.148-13.172,50.498c-8.784,27.074-14.638,44.643-19.762,51.963l-55.622,82.699H6.158v-98.066
				c37.325-33.67,59.281-57.092,65.134-71c2.198-5.846,2.927-18.295,2.927-39.516c0-21.955-0.729-47.57-3.659-74.652
				c-2.927-27.074-4.388-43.183-7.319-48.299l-31.468-51.231L1.766,154.229l-0.733-40.253c10.979,8.786,25.615,21.956,43.912,42.448
				c0.733,1.464,2.198,1.464,3.66,1.464l2.93-2.195C60.313,133.737,74.952,111.054,93.981,86.896z"/>
		</g>
	</g>
	<g>
		<g>
			<path d="M17.135,496.736c-0.733-1.455-1.465-1.455-3.66-0.727c-0.732,0.727-1.464,1.459,0,2.93l16.103,23.414
				c13.172,16.102,26.345,27.08,39.52,33.662c1.462,0.738,2.194,0.738,2.927-0.727c0.732-1.461,0-2.195-0.733-2.934
				c-13.171-6.582-26.348-17.557-38.787-33.662L17.135,496.736z"/>
		</g>
	</g>
	<g>
		<g>
			<path d="M29.578,477.715c0-1.467-1.465-2.201-2.931-0.73c-0.729,0.73-1.461,1.457-0.729,2.924l15.366,21.219
				c12.443,14.637,25.615,25.613,39.523,32.934l2.927-1.459c1.462-0.727,0.732-2.203-1.465-2.93
				c-12.439-6.588-25.615-16.832-38.055-32.203L29.578,477.715z"/>
		</g>
	</g>
	<g>
		<g>
			<path d="M45.677,462.348c-0.733-1.473-2.195-1.473-2.927,0c-1.465,0.727-1.465,2.186,0,2.922l17.563,16.102
				c13.905,12.438,28.542,23.414,42.451,32.207c1.461,0.729,1.461,0.729,2.926-0.738c1.462-1.463,0.732-2.193-0.732-2.922
				c-13.905-8.791-27.809-19.768-41.718-31.477L45.677,462.348z"/>
		</g>
	</g>
	<g>
		<g>
			<path d="M61.779,446.238c-1.466-1.459-1.466-1.459-2.926,0c-0.732,1.471-0.732,2.93,0.729,3.66l21.956,12.449l37.326,20.482
				c1.464,0,2.927,0,3.659-1.459c0.733-0.727,0-2.203-1.461-2.93l-37.326-19.754L61.779,446.238z"/>
		</g>
	</g>
	<g>
		<g>
			<path d="M78.611,424.283c-0.733-1.459-2.195-1.459-2.195,0.734c-0.732,1.467,0,2.922,1.462,2.922l17.568,5.859l34.396,8.779
				l2.926-2.186c0-0.738,0-1.473-2.194-2.203l-33.667-8.775L78.611,424.283z"/>
		</g>
	</g>
	<g>
		<g>
			<path d="M82.27,397.938l-2.194,2.199c-0.732,0.732,0,2.188,1.461,2.188l57.087,8.793l2.195-1.473l-2.195-2.188l-38.791-5.861
				L82.27,397.938z"/>
		</g>
	</g>
	<g>
		<g>
			<path d="M83.002,374.521c-1.465,0-2.194,0-2.194,2.188c0,1.473,0.729,2.205,1.462,2.205l19.029,1.453h34.398l2.195-2.186
				l-2.195-2.928h-34.398L83.002,374.521z"/>
		</g>
	</g>
	<g>
		<g>
			<path d="M134.233,349.639c0-1.467-0.733-2.203-2.927-1.467l-51.23,3.66c-1.465,0-2.198,0-2.198,1.465
				c0,2.195,0.733,2.195,2.198,2.195l52.691-3.66L134.233,349.639z"/>
		</g>
	</g>
	<g>
		<g>
			<path d="M127.647,326.217c0-2.193-1.465-2.926-2.197-2.193l-45.374,3.658c-1.465,0-2.198,0.729-2.198,2.195
				c0,1.463,0.733,2.193,2.198,2.193l46.105-3.66L127.647,326.217z"/>
		</g>
	</g>
	<g>
		<g>
			<path d="M115.204,302.795l-2.194-2.193l-21.956,2.922l-12.443,0.738c-0.733,0-1.461,0-1.461,1.465
				c0,2.193,0.729,2.193,1.461,2.193h12.443l21.956-2.924L115.204,302.795z"/>
		</g>
	</g>
	<g>
		<g>
			<path d="M104.958,275.721c-0.732-1.471-1.465-1.471-2.927-1.471l-17.564,2.931l-9.516,0.727c-0.733,0-1.462,0.739-1.462,2.202
				l1.462,2.195l10.246-0.738l18.296-2.92C104.958,278.646,105.691,277.181,104.958,275.721z"/>
		</g>
	</g>
	<g>
		<g>
			<path d="M96.907,238.393h-2.926c-4.392,5.126-12.443,8.785-22.689,12.443c-1.461,0-2.194,1.457-1.461,2.93
				c0,0.73,1.461,1.46,2.927,0.73c10.978-3.66,19.029-8.05,24.15-12.444C98.373,240.587,98.373,239.13,96.907,238.393z"/>
		</g>
	</g>
	<g>
		<g>
			<path d="M81.538,209.119c-0.729-0.737-2.194-0.737-2.927,0l-19.029,19.033c-1.461,1.458-1.461,2.186,0,2.923
				c0.731,1.464,1.465,1.464,2.931,0l19.025-18.297C82.27,211.312,82.27,209.855,81.538,209.119z"/>
		</g>
	</g>
	<g>
		<g>
			<path d="M61.779,191.558c-1.466-0.736-2.197-0.736-2.926,0.73l-3.66,5.853l-9.516,11.714c-0.733,1.457-1.462,2.187-0.733,2.922
				l3.66,0.739l10.249-12.453l4.388-6.582L61.779,191.558z"/>
		</g>
	</g>
	<g>
		<g>
			<path d="M51.534,169.602c-1.465-0.736-2.93-0.736-2.93,0.729l-3.66,7.318l-13.171,17.567c-0.733,2.188,0,2.925,0.733,3.66
				l2.926-0.735l13.172-18.298l3.659-7.317C52.996,171.06,52.263,169.602,51.534,169.602z"/>
		</g>
	</g>
	<g>
		<g>
			<path d="M35.432,150.57c-1.465-0.737-2.926,0-3.659,0.735l-3.659,5.846l-8.785,11.714c0,1.466,0,2.924,0.733,3.66l2.927-0.736
				l8.784-13.165l3.659-5.133V150.57z"/>
		</g>
	</g>
	<g>
		<g>
			<path d="M14.94,133.737L3.963,155.693c-0.732,1.458-0.732,2.195,1.461,2.932c0.733,0.727,1.466,0,2.927-0.737l10.977-22.691
				c-1.461,0.735-2.193,1.473-3.659,0.735L14.94,133.737z"/>
		</g>
	</g>
	<g>
		<g>
			<path d="M6.89,530.398H4.692c-1.461,1.477-2.195,2.203-0.729,2.934c15.366,21.957,32.202,36.592,49.033,43.912l2.927-1.461
				c0.732-0.734,0-2.199-0.73-2.928c-10.249-4.387-21.226-12.441-32.934-24.889L6.89,530.398z"/>
		</g>
	</g>
	<g>
		<g>
			<path d="M127.647,296.943c0-2.195-1.465-2.195-2.927-2.195c-1.465,0.729-2.198,2.195-1.465,2.93l6.586,13.902
				c5.125,10.24,10.978,18.297,17.563,24.15l2.931-0.732l-0.732-2.199c-5.858-6.582-10.979-13.902-16.104-23.414L127.647,296.943z"
				/>
		</g>
	</g>
	<g>
		<g>
			<path d="M140.086,276.451c-0.729-1.463-1.462-1.463-2.928-1.463c-1.461,0.733-2.193,1.463-1.461,3.659l5.122,9.512
				c4.392,6.59,8.784,12.443,13.175,16.838c1.461,1.459,1.461,1.459,2.927,0c1.462-0.734,1.462-1.473,0-2.93l-12.443-16.102
				L140.086,276.451z"/>
		</g>
	</g>
	<g>
		<g>
			<path d="M149.604,253.031h-2.199c-1.461,0.735-1.461,1.465-0.729,2.922l15.366,19.768h2.931c1.461-0.733,1.461-1.471,0.728-2.928
				L149.604,253.031z"/>
		</g>
	</g>
	<g>
		<g>
			<path d="M162.042,233.998h-3.659c-1.462,0.737-1.462,1.473,0,2.2l11.71,15.367c0,1.466,1.465,1.466,2.927,0.728
				c0.733,0,1.465-1.457,0.733-2.922L162.042,233.998z"/>
		</g>
	</g>
	<g>
		<g>
			<path d="M173.753,214.243l-0.733,2.193h-3.659l9.517,12.443l2.926,1.458l0.732-3.66L173.753,214.243z"/>
		</g>
	</g>
	<g>
		<g>
			<path d="M58.121,159.352c-1.466-1.464-2.198-1.464-2.928-0.727c-1.464,0.727-1.464,2.186-0.732,2.921l5.853,7.319l10.979,14.637
				c1.465,0.737,2.198,0.737,3.66,0c0.732-1.464,0.732-2.923,0-3.66l-11.711-13.9L58.121,159.352z"/>
		</g>
	</g>
	<g>
		<g>
			<path d="M67.633,135.931c0-0.735-1.461-0.735-2.927,0c-1.465,0.738-1.465,1.466-0.731,2.925l4.391,6.588l9.513,11.707
				c0.733,0.736,1.466,0.736,2.93,0c0.729-1.458,0.729-2.923,0-3.66l-8.783-10.241L67.633,135.931z"/>
		</g>
	</g>
	<g>
		<g>
			<path d="M80.808,113.241c-0.732-1.459-2.197-1.459-2.93-1.459c-1.462,0.729-1.462,2.193-1.462,3.659l2.928,5.117l6.585,10.25
				c0.733,1.464,1.466,1.464,2.927,0.728c0.733-1.459,1.465-2.187,0.733-2.923l-6.587-10.241L80.808,113.241z"/>
		</g>
	</g>
	<g>
		<g>
			<path d="M90.321,95.68l6.586,9.513l2.927,0.728l0.733-2.921l-5.854-9.514l-1.464,2.194H90.321z"/>
		</g>
	</g>
	<g>
		<g>
			<path fill="#858585" d="M32.505,285.965l-5.858,15.371c-2.193,12.438,4.392,21.955,18.296,28.541
				c7.319-13.174,8.052-24.15,0.733-32.934L32.505,285.965z"/>
		</g>
	</g>
	<g>
		<g>
			<path d="M33.967,283.769l-3.659,0.731l-4.389,8.047c-2.93,5.861-2.93,12.449-2.198,18.295
				c2.198,8.793,8.052,16.109,19.762,21.957l3.66-1.459c5.854-10.248,8.051-19.76,5.121-28.545
				c-1.461-5.852-5.121-10.248-10.978-13.908L33.967,283.769z M33.967,290.359c6.589,3.66,10.977,8.775,13.175,13.902l0.732,7.318
				c0,3.658-1.465,8.055-4.392,14.637c-8.051-5.854-13.175-10.979-13.904-16.832l-0.732-4.389
				C28.846,299.865,30.308,294.748,33.967,290.359z"/>
		</g>
	</g>
	<g>
		<g>
			<path fill="#858585" d="M251.332,9.322l16.83,0.728c10.979-2.193,17.568-11.707,19.762-27.073
				c-15.369-2.93-25.616,0.73-32.2,10.242L251.332,9.322z"/>
		</g>
	</g>
	<g>
		<g>
			<path d="M290.851-16.293c0-2.202-0.731-3.66-2.927-3.66c-11.71-2.201-21.955,0-28.542,5.854
				c-4.392,3.659-8.05,8.784-9.517,14.638l-2.194,8.784c0,2.193,0.733,2.929,2.928,3.659l8.051,0.729
				c7.319,0,13.173-0.729,18.297-4.387C284.266,4.197,288.657-4.587,290.851-16.293z M284.266-14.1
				c-1.466,8.784-5.125,14.638-10.979,18.296c-5.124,3.66-11.71,5.125-19.028,3.66c0.732-8.055,3.658-13.902,8.784-18.298
				C268.162-14.1,275.481-15.565,284.266-14.1z"/>
		</g>
	</g>
	<g>
		<g>
			<path fill="#858585" d="M127.647,157.888c2.194-10.977-3.659-21.218-16.103-29.274c-9.513,12.443-10.245,23.421-3.659,33.671
				c3.659,4.388,7.319,8.047,12.443,10.976C123.988,168.866,126.182,164.471,127.647,157.888z"/>
		</g>
	</g>
	<g>
		<g>
			<path d="M130.574,149.833c-1.465-9.506-7.318-17.561-17.564-24.144l-4.392,0.729c-6.586,10.25-9.513,20.492-7.318,29.274
				c2.927,9.513,8.051,16.097,17.564,20.492l3.659-0.736C129.109,167.4,131.306,158.625,130.574,149.833z M106.423,148.376
				c0-4.389,1.461-8.786,5.121-15.366c8.052,5.846,12.444,10.977,13.176,17.56v2.921c0,5.133-2.198,10.979-5.857,15.374
				c-5.854-3.66-9.513-9.514-11.71-14.637L106.423,148.376z"/>
		</g>
	</g>
	<g>
		<g>
			<path fill="#858585" d="M144.478,202.536c-9.512-7.319-20.49-7.319-33.666,0.729c6.589,13.171,15.369,20.492,27.812,19.025
				c5.854-0.729,10.979-2.195,15.37-5.854C151.797,211.312,148.87,206.924,144.478,202.536z"/>
		</g>
	</g>
	<g>
		<g>
			<path d="M138.625,195.947c-8.783-2.932-19.028-1.466-29.274,5.116c-1.466,0.737-2.198,1.473-1.466,3.659
				c5.125,10.979,12.443,17.568,21.957,19.769c8.783,2.187,17.563,0,25.614-5.129l1.465-3.661
				C153.262,205.458,146.676,199.605,138.625,195.947z M115.204,204.722c7.318-4.388,14.637-5.846,21.223-2.922
				c5.857,2.195,10.249,6.582,13.176,13.901c-5.125,3.661-12.445,4.395-19.03,3.661C124.72,217.172,119.596,212.777,115.204,204.722
				z"/>
		</g>
	</g>
	<g>
		<g>
			<path fill="#858585" d="M356.72,304.262c0-5.127-1.463-10.979-3.661-15.375c-5.854-10.24-16.831-14.637-32.2-13.166
				c1.465,15.368,7.318,24.881,19.028,28.541H356.72z"/>
		</g>
	</g>
	<g>
		<g>
			<path d="M350.133,279.382c-7.319-5.861-16.831-8.056-29.274-6.589c-1.466,0-2.927,1.457-2.927,2.928
				c1.461,13.166,5.854,21.223,13.172,27.074c7.317,5.125,16.102,7.32,26.348,5.125l2.194-2.924
				C359.646,294.02,356.72,285.965,350.133,279.382z M324.518,278.646c9.512-0.739,16.832,0.735,21.224,5.122
				c4.392,4.39,7.317,10.251,8.052,18.298c-8.052,1.457-14.639,0-19.031-4.389C328.909,294.02,325.981,287.428,324.518,278.646z"/>
		</g>
	</g>
	<g>
		<g>
			<path fill="#858585" d="M342.813,484.303c-6.586-10.248-17.563-13.908-32.201-10.98c2.194,15.367,9.512,24.146,21.223,27.074
				l16.103-0.727C347.205,493.809,346.473,488.689,342.813,484.303z"/>
		</g>
	</g>
	<g>
		<g>
			<path d="M350.865,498.939c-0.732-10.25-4.393-18.295-11.711-23.426c-7.319-5.846-17.564-7.318-29.274-5.119
				c-1.465,0.729-2.927,1.459-2.195,3.66c2.195,11.707,6.588,21.227,14.639,25.615c8.047,4.389,16.831,5.854,27.077,2.928
				L350.865,498.939z M335.496,479.908c5.854,4.395,8.05,9.514,9.513,17.561c-8.048,1.471-13.905,0.734-19.759-2.188
				c-4.392-3.658-8.053-10.252-10.978-19.033C323.785,474.783,330.37,475.514,335.496,479.908z"/>
		</g>
	</g>
	<g>
		<g>
			<path fill="#858585" d="M173.753,529.672c8.783-7.318,10.979-19.025,6.586-32.936c-15.366,3.66-23.418,11.709-24.15,24.158
				c-0.733,5.119,0,10.98,2.927,16.098C164.24,536.26,169.361,533.332,173.753,529.672z"/>
		</g>
	</g>
	<g>
		<g>
			<path d="M182.536,495.281c0-1.473-1.465-2.203-3.659-1.473c-11.711,3.66-19.762,9.521-23.422,17.568
				c-3.659,8.781-3.659,17.568,0.733,27.078l2.927,1.467c10.245-1.467,18.296-6.59,22.688-14.637
				C186.196,517.238,186.196,507.717,182.536,495.281z M177.412,500.396l2.197,10.25c0,4.391-0.732,8.047-2.931,11.707
				c-2.926,5.859-8.779,9.521-16.098,10.979l-1.465-10.248c0-2.189,0-5.846,1.465-9.506
				C163.507,507.717,169.361,503.33,177.412,500.396z"/>
		</g>
	</g>
	<g>
		<g>
			<path fill="#FFCDDE" d="M337.688,130.077l-3.659-10.976c-5.853,0-12.439,1.457-17.563,3.66l-6.586,4.388
				c-2.927-5.118-6.586-9.513-10.979-13.173l-7.316-3.66l-8.053,7.32l-13.904-2.194c-1.465,7.32-2.194,16.831-0.731,27.074
				c-3.661,0.735-8.053,2.929-13.905,5.861l-6.586,5.115l7.319,9.521l-5.125,11.707c4.392,2.93,13.176,5.86,24.883,8.047
				c1.465,9.521,5.125,18.296,9.517,25.615l10.976-5.846l10.979,7.319c6.586-4.396,12.439-11.714,16.098-19.033
				c5.858,3.659,14.638,3.659,24.154,0l-0.732-13.172l9.513-7.318l-8.78-11.707l-6.586-5.133c3.659-5.846,5.854-12.435,8.048-18.295
				L337.688,130.077z"/>
		</g>
	</g>
	<g>
		<g>
			<path d="M337.688,117.636c-0.728-2.194-2.192-2.194-3.659-2.194c-8.779,0-16.832,2.194-23.417,6.589l-10.978-11.715l-5.857-3.659
				l-3.658,0.738l-7.319,5.846l-12.44-1.459c-2.197,0-3.659,0-4.391,2.193c-0.734,5.854-1.467,11.714-1.467,17.561v8.055
				l-17.563,10.979c-1.462,0-2.195,0.735-2.195,2.921l0.733,1.473l5.854,8.777l-4.393,8.784v2.193l0.731,2.93
				c4.392,2.194,12.445,5.854,24.884,8.047c1.464,8.784,5.123,16.839,9.517,24.158c1.46,2.187,2.194,2.922,4.387,1.457l9.516-4.388
				l9.515,5.853h3.659c5.125-3.658,10.977-9.512,15.37-17.561c7.317,2.188,14.637,2.188,24.149-0.735
				c1.466,0,2.198-1.466,2.198-3.659l0,0l-0.732-10.979l7.318-6.583l2.194-2.929v-1.466c-2.194-5.124-6.587-10.978-13.904-16.832
				l6.586-16.103v-0.735l-2.194-3.66l-10.246-3.659L337.688,117.636z M335.496,133.737l8.05,2.932l-5.857,14.636l-0.728,2.187
				l1.46,2.201c5.857,5.118,10.246,9.513,12.444,13.173l-7.319,6.583c-0.732,0.736-0.732,1.472-0.732,2.201v0.73l0.732,9.521
				l-19.028-0.738h-2.928l-1.466,1.465c-3.658,6.589-8.05,12.436-13.903,16.832l-8.052-5.853h-3.66l-8.051,3.66
				c-3.658-7.318-5.852-13.908-7.317-21.957l-2.927-2.201c-6.587-0.728-13.906-2.922-21.224-6.581l3.659-7.32l0.732-2.193
				l-0.732-1.466l-5.124-7.318l16.102-8.784l2.928-2.929v-1.459l-0.732-9.521l1.464-12.435l9.514,2.194l2.931-1.466l6.585-5.117
				c6.585,2.923,10.246,7.318,13.905,13.901l2.927,2.195l2.927-0.731l5.123-2.928c4.393-2.194,9.515-3.661,14.638-4.388l2.194,8.775
				L335.496,133.737z"/>
		</g>
	</g>
	<g>
		<g>
			<path d="M302.562,146.174c-4.393,0-8.053,0.737-10.978,3.66c-2.927,2.931-3.66,5.859-3.66,10.249s0.733,8.049,3.66,10.25
				c3.658,2.929,6.585,4.388,10.978,4.388c3.659,0,7.318-1.458,10.245-4.388c2.198-2.201,3.659-5.86,3.659-10.25
				s-1.461-7.318-3.659-10.249C309.88,146.911,306.221,146.174,302.562,146.174z M308.415,154.229
				c1.465,1.464,2.197,3.659,2.197,5.854l-2.197,5.861c-2.194,2.188-3.66,2.923-5.854,2.923c-2.927,0-4.393-0.735-6.588-2.923
				c-1.465-1.472-2.196-3.658-2.196-5.861c0-2.194,0.731-4.389,2.196-5.854c2.195-2.194,3.661-2.923,6.588-2.923
				C304.755,151.305,306.221,152.034,308.415,154.229z"/>
		</g>
	</g>
	<g>
		<g>
			<path d="M299.635,167.4c-2.198,0-3.661,1.466-3.661,2.932l-0.731,14.636c0-1.464,0.731-1.464,2.927-1.464
				c1.466,0,2.927,0.737,2.927,3.659l1.466-16.831L299.635,167.4z"/>
		</g>
	</g>
	<g>
		<g>
			<path d="M315.734,161.546c-2.195-0.735-2.928,0-3.66,1.466c-1.462,2.193-1.462,2.931,0.732,3.66l15.37,8.776
				c1.466,0.736,2.927,0.736,3.658-1.459c0.734-1.464,0-2.93-0.731-4.388L315.734,161.546z"/>
		</g>
	</g>
	<g>
		<g>
			<path d="M287.924,163.742c2.195-1.457,2.927-2.195,2.195-3.66c-1.462-2.194-2.195-2.194-3.661-2.194l-12.439,3.659
				c-1.464,0-2.927,1.466-2.927,3.659c0,1.467,1.463,2.925,2.927,2.925L287.924,163.742z"/>
		</g>
	</g>
	<g>
		<g>
			<path d="M295.242,149.833l-4.392-13.902c0-2.194-2.193-2.194-3.658-2.194c-2.194,1.459-2.194,2.194-2.194,4.389l5.121,13.179
				c0.731,2.187,1.465,2.187,3.658,2.187C295.242,152.034,295.974,151.305,295.242,149.833z"/>
		</g>
	</g>
	<g>
		<g>
			<path d="M324.518,141.785l-3.659-0.728l-11.711,8.777c-1.463,1.472-2.194,2.931-0.732,4.395c1.465,1.464,2.197,1.464,4.392,0
				l11.711-8.055C325.981,144.716,325.981,143.25,324.518,141.785z"/>
		</g>
	</g>
	<g>
		<g>
			<path fill="#FFCDDE" d="M188.39,414.039l-3.658-11.715c-5.854,0-12.44,1.473-18.297,4.398l-5.854,4.395
				c-2.198-5.133-6.587-10.248-10.978-13.908l-6.587-3.658l-8.784,6.586l-13.905-1.469c-1.464,8.055-2.197,16.838-0.731,27.084
				l-13.173,5.848l-6.589,5.133l6.589,10.24l-5.856,11.715c5.124,2.922,13.904,5.846,25.615,7.32
				c1.465,9.506,5.125,18.295,9.516,25.615l11.708-5.133l10.979,6.588c4.391-2.928,8.051-6.588,11.71-12.434l3.66-6.59l24.883,0.729
				l-1.463-13.174l9.514-8.055c-0.732-2.922-3.659-7.316-8.78-10.977l-6.589-5.846l5.855-12.449l2.195-5.846L188.39,414.039z"/>
		</g>
	</g>
	<g>
		<g>
			<path d="M188.39,400.869c0-1.467-2.193-2.201-3.658-2.201c-8.053,0-15.371,2.201-23.418,7.316l-10.978-11.707l-5.857-4.389
				l-3.659,1.459l-7.319,5.131l-12.439-1.471c-2.198,0-2.931,1.471-4.392,2.93c-0.733,4.387-1.465,10.248-1.465,16.84v8.047
				l-18.297,10.248l-0.732,3.66l0.732,2.188l5.124,8.789l-4.391,8.777l-0.733,2.201l2.197,2.188
				c4.389,2.932,11.708,5.859,23.418,8.793c2.927,8.773,5.856,16.822,10.245,23.41c0.732,2.203,2.198,2.203,4.391,2.203l9.518-5.131
				l8.779,5.859c1.465,1.459,2.928,1.459,4.392,0c6.587-4.387,11.711-10.98,15.371-17.568c7.317,2.203,14.637,2.203,24.149,0
				l2.926-3.658v-0.729l-1.462-10.98l8.053-5.859l1.461-3.66V452.1c-2.193-4.391-6.586-10.252-14.637-16.84l5.123-10.977
				l2.195-5.119v-0.727l-2.195-3.66l-9.515-3.66L188.39,400.869z M184.731,414.777l2.197,2.186l8.048,3.66l-6.587,13.908
				l-0.732,2.201l1.466,2.922c6.586,4.396,10.245,8.785,13.171,13.172l-7.317,5.861l-1.462,2.922v0.738l0.732,9.506l-19.028-1.459
				h-2.199c-1.461,0.729-2.193,1.459-2.927,2.195l-2.927,5.125l-9.512,10.975l-8.784-5.121l-2.927-0.738l-8.785,3.66
				c-3.659-7.322-6.585-14.637-7.317-21.221l-3.66-2.922c-8.051-1.473-15.369-3.66-20.491-5.861l3.66-8.047l0.731-1.467
				l-0.731-2.193l-5.125-7.32c5.856-4.387,10.978-6.588,16.102-8.045l2.928-3.662l-0.733-0.734v-10.24l1.466-11.715l9.512,0.734
				h2.927l7.318-5.129c5.858,2.201,10.249,7.316,13.175,13.176l2.927,2.934l2.926-1.475l5.125-2.924l14.637-4.395L184.731,414.777z"
				/>
		</g>
	</g>
	<g>
		<g>
			<path d="M167.899,444.051c0-4.396-1.465-7.318-5.125-10.979c-2.193-2.932-5.853-3.658-9.512-3.658
				c-4.392,0-7.319,0.727-10.246,3.658c-2.93,3.66-4.392,6.582-4.392,10.979c0,3.658,1.462,7.316,4.392,9.504
				c2.927,2.932,5.854,4.398,10.246,4.398c3.659,0,7.319-1.467,9.512-4.398C166.435,451.367,167.899,447.709,167.899,444.051z
				 M159.116,437.459c1.465,1.461,2.927,3.662,2.927,6.592c0,2.188-1.461,3.658-2.927,5.848c-2.195,1.469-3.66,2.201-5.854,2.201
				c-2.927,0-5.125-0.732-5.857-2.201c-2.193-2.189-2.927-3.66-2.927-5.848c0-2.93,0.733-5.131,2.927-6.592
				c0.733-2.199,2.931-2.199,5.857-2.199C155.456,435.26,156.921,435.26,159.116,437.459z"/>
		</g>
	</g>
	<g>
		<g>
			<path d="M150.335,451.367c-2.198,0-2.931,0-2.931,2.188l-1.461,16.113c0,2.186,0,2.922,2.194,2.922l2.927-0.736l0.732-2.186
				l1.465-15.375C153.262,452.1,151.797,451.367,150.335,451.367z"/>
		</g>
	</g>
	<g>
		<g>
			<path d="M166.435,445.506c-1.461-1.455-2.927-0.727-3.661,0.732c-0.731,1.471-0.731,3.66,1.466,4.395l14.638,8.055l3.659-1.473
				c1.462-1.459,0.733-2.922-1.465-3.66L166.435,445.506z"/>
		</g>
	</g>
	<g>
		<g>
			<path d="M140.819,443.314c-0.733-2.193-2.195-2.922-3.661-1.467l-11.709,3.658c-2.194,0-2.927,0.732-2.927,2.934
				c0,1.459,0.733,2.928,2.927,2.928c3.659,0,8.05-1.469,13.175-3.658C140.819,446.238,140.819,444.779,140.819,443.314z"/>
		</g>
	</g>
	<g>
		<g>
			<path d="M142.284,419.164c-1.465-1.467-2.198-2.201-3.66-1.467c-2.197,0.74-2.927,2.195-2.197,3.66l4.392,13.902
				c0,1.473,1.465,1.473,3.659,1.473c1.465-1.473,2.927-2.201,1.465-3.66L142.284,419.164z"/>
		</g>
	</g>
	<g>
		<g>
			<path d="M175.219,425.752l-3.66-1.469l-10.978,8.789c-2.198,1.459-2.198,2.188-1.465,4.387c1.465,1.461,2.927,1.461,4.392,0.73
				l11.711-8.775C176.679,427.939,176.679,427.213,175.219,425.752z"/>
		</g>
	</g>
	<g>
		<g>
			<path fill="#FFCDDE" d="M162.774,37.131h-11.709l-6.587-10.978l-13.172,10.241l-7.318,6.589l-18.297-4.387l-8.784-0.73
				l-1.461,11.708l-11.71,5.854c0.732,8.784,2.926,16.104,8.051,23.422c-4.392,2.193-7.319,6.59-10.249,12.436l-3.66,8.055
				l11.711,5.854l1.464,12.442c5.854,1.466,13.172,0,21.956-3.66l10.979,16.833l10.245-7.32l11.71,4.389
				c5.122-9.505,7.319-17.561,5.854-25.615c9.516,0.738,17.564-1.458,23.422-5.847l-0.733-10.248l8.784-10.979l-13.909-10.978
				l-7.318-4.387l0.731-14.64V37.131z"/>
		</g>
	</g>
	<g>
		<g>
			<path d="M165.701,34.208l-2.927-0.736H152.53l-5.125-8.783c-1.461-2.195-2.927-2.195-5.121-1.458
				c-4.392,2.187-10.978,7.318-19.762,15.366l-16.832-3.659l-8.784-0.729c-1.461,0-2.926,0.729-3.659,2.923l-0.733,10.242
				L82.27,51.769c-1.462,0.735-2.194,1.465-2.194,3.658c0.732,7.318,2.194,14.638,6.585,23.422
				c-5.124,3.658-9.512,10.977-12.443,19.024v1.466l2.197,3.66l9.513,5.122l1.466,9.514l2.195,3.66l21.955-2.194l10.246,13.909
				l4.392,0.727l8.784-5.86l9.512,2.932c2.198,1.464,3.66,0.728,4.392-1.459c4.392-6.588,6.585-15.374,6.585-23.429
				c8.784,0,16.103-2.187,21.957-6.581l1.465-2.925V95.68v-8.784l7.319-9.511l0.732-2.196l-0.732-2.93
				c-5.125-5.854-12.443-10.978-20.495-14.636l0.733-15.367v-5.125L165.701,34.208z M147.405,39.325
				c0.733,1.465,2.199,1.465,3.66,1.465h8.051v1.466l-0.732,16.83v0.739c0,1.457,0.732,2.921,2.198,2.921l5.854,3.66
				c5.124,3.66,8.784,5.854,11.709,8.784l-6.585,8.048l-0.732,2.931l0,0l0.732,8.047c-5.857,3.66-12.443,5.126-19.762,4.39
				c-0.732,0-2.193,0.736-2.193,0.736c-1.466,1.464-1.466,1.464-1.466,2.922V103v2.193c0,5.123-0.733,10.976-4.392,17.568
				l-8.78-2.932l-2.927,1.466l-6.589,4.395l-8.781-13.179c-1.465-2.195-2.198-2.93-5.125-2.195
				c-5.121,3.66-10.977,4.396-17.563,3.66l-0.733-9.514l-2.194-2.928l-8.784-4.387c2.927-7.32,6.586-12.446,10.978-14.64
				l1.464-2.929l0.733-0.729l-0.733-1.464c-3.659-5.854-5.856-13.174-6.585-19.762l8.78-4.389l2.197-2.93l1.462-8.048
				c7.318,0,14.637,0.728,21.956,4.387l4.392-0.727c5.124-5.862,10.244-10.979,16.102-14.639L147.405,39.325z"/>
		</g>
	</g>
	<g>
		<g>
			<path d="M140.819,86.167c1.465-3.66,2.197-7.318,1.465-10.979c-0.733-3.657-2.926-7.317-5.857-8.784
				c-3.66-2.194-7.318-3.66-10.978-2.194c-4.389,0.729-7.319,2.931-8.781,5.854c-2.198,2.193-2.926,5.124-2.926,8.054l0.729,2.923
				c0.733,4.397,2.198,7.318,5.856,8.784c3.661,2.194,7.319,3.66,10.979,2.194C134.966,92.021,137.892,89.826,140.819,86.167z
				 M132.768,71.531l4.391,4.388c0,2.93,0,5.123-2.193,6.588c-0.733,2.194-2.198,3.66-5.125,3.66l-5.853-0.728
				c-2.198-0.738-3.661-2.932-3.661-5.861c-1.464-1.459-0.731-3.659,0.733-5.854l5.121-3.66L132.768,71.531z"/>
		</g>
	</g>
	<g>
		<g>
			<path d="M110.813,57.623l-4.389,1.463c-0.732,0.739-0.732,2.195,0.729,3.66l11.71,9.513l4.392-0.727
				c0.733-0.732,0.733-2.204-0.733-3.66L110.813,57.623z"/>
		</g>
	</g>
	<g>
		<g>
			<path d="M120.328,84.701c0-2.194-1.464-2.194-3.659-1.464l-14.638,8.784c-1.464,0.736-2.197,1.466-1.464,3.66
				c0.732,1.466,2.198,2.193,3.659,1.466l15.37-8.786C121.79,88.36,121.79,86.167,120.328,84.701z"/>
		</g>
	</g>
	<g>
		<g>
			<path d="M140.086,49.574c-1.462-0.729-2.928,0-3.659,2.195l-3.66,12.442c0,2.194,0.732,3.66,2.198,3.66l3.659-2.201l3.66-12.436
				C142.284,51.031,142.284,49.574,140.086,49.574z"/>
		</g>
	</g>
	<g>
		<g>
			<path d="M142.284,72.258c-1.465,0-2.198,0.73-3.66,2.93c0,1.458,0,2.931,2.195,3.661l13.904,2.93l3.66-2.201
				c0-2.193-0.729-2.932-2.928-3.659L142.284,72.258z"/>
		</g>
	</g>
	<g>
		<g>
			<path d="M130.574,86.896c-1.465,0-2.927,0.73-2.927,2.93l-0.732,4.388l1.464,10.979c0.73,1.464,1.462,2.202,3.66,1.464
				c1.461,0,2.194-1.464,1.461-3.657c0-2.196-0.732-5.126-0.732-8.786l0.732-4.388C133.5,88.36,132.768,86.896,130.574,86.896z"/>
		</g>
	</g>
	<g>
		<g>
			<path fill="#FFCDDE" d="M210.346,221.562c-2.927-2.2-7.318-5.126-12.439-8.046l-7.318-4.397l-5.856,11.712l-11.711,0.731
				c-0.729,5.854,0.733,14.636,5.124,25.616c-8.051,6.588-13.171,13.171-17.563,21.225l10.246,7.318l-0.733,13.166
				c7.319,3.66,16.103,4.396,24.883,4.396c0,6.582,3.659,13.9,11.71,21.219l10.978-8.047l10.979,5.125
				c2.927-2.924,4.392-7.318,5.857-13.902l1.461-8.055l19.763-2.195l-1.466-12.44l8.05-8.056c-2.926-5.846-7.317-10.242-12.442-13.9
				l-6.586-3.66c5.125-7.319,7.319-15.374,5.856-22.694l-10.248-5.115l-5.121-12.443c-4.392,1.464-10.245,3.658-16.103,7.317
				L210.346,221.562z"/>
		</g>
	</g>
	<g>
		<g>
			<path d="M210.346,217.172l-18.297-10.978c-2.193-0.736-3.659,0-4.392,2.187l-5.121,8.791l-10.245,0.73
				c-2.198,0-2.931,2.193-2.931,3.66v1.457c0,6.591,1.466,14.638,4.392,23.427c-6.587,6.584-11.71,13.166-16.099,20.485
				l-0.733,1.472l2.195,2.923l8.05,6.582l-0.731,10.979c0,1.473,0.731,2.202,2.197,2.93c6.587,2.932,13.904,5.127,23.417,5.127
				c1.466,6.58,5.124,13.172,11.711,19.76l4.393,0.727l9.512-6.588l9.517,3.66l4.389-0.729c4.392-4.389,6.59-11.707,8.051-20.49
				l17.564-2.194l2.197-3.661v-0.727l-1.466-10.25l7.318-7.318l0.734-2.202v-2.185c-4.393-6.592-10.245-12.453-18.298-16.841
				c3.661-6.588,5.854-13.17,5.854-19.025l-0.729-3.659l-2.197-2.201l-8.78-3.657l-4.392-10.98
				c-0.733-2.187-2.198-2.923-4.393-2.923C225.716,207.655,217.664,212.042,210.346,217.172z M185.463,224.491l2.927-1.472
				l3.659-8.776l16.104,9.514l3.659,0.734l6.586-4.395l13.904-5.853l3.659,9.514l1.466,1.463l8.78,3.659l0,0
				c0,7.318-2.195,13.172-5.854,19.025l-0.733,1.466l0.733,1.465l2.193,2.195l5.124,3.658l10.245,10.242l-6.584,5.861l-0.733,2.195
				v0.733l0.733,8.779l-14.639,1.465c-2.927,0-3.659,0.736-4.392,3.658c-0.732,7.32-2.927,12.443-5.121,17.561l-8.783-3.66h-2.928
				l-8.783,5.861c-5.854-5.861-8.051-11.707-8.051-16.102l-1.463-3.66h-2.196l-21.224-3.658l0.732-10.244l-1.465-2.928l-7.319-5.126
				c5.125-7.318,10.25-13.901,15.37-17.56l0.733-2.929l-0.733-1.466l-4.392-20.491L185.463,224.491z"/>
		</g>
	</g>
	<g>
		<g>
			<path d="M197.173,255.953c-1.464,4.396-0.731,8.054,1.463,10.979c2.196,3.661,4.392,5.13,8.051,6.589l10.978-1.459
				c3.66-1.469,6.586-4.395,7.319-8.054c0.732-4.395,0.732-8.054-1.462-10.976c-1.466-3.66-5.124-6.584-8.783-7.319l-10.979,1.466
				C200.832,249.371,198.636,252.293,197.173,255.953z M203.76,264.007c-0.732-2.193-1.466-3.658-0.732-6.582l3.659-5.132
				l6.586-0.728c2.197,0.728,4.392,1.466,5.125,4.388l0.732,3.659c0,3.66-1.466,5.861-3.66,8.055h-6.585L203.76,264.007z"/>
		</g>
	</g>
	<g>
		<g>
			<path d="M203.027,261.085c-0.733-1.474-2.195-2.931-3.659-1.474l-14.637,6.591c-1.462,1.463-2.195,2.2-0.733,4.389
				c0,0.733,1.465,1.469,3.659,0.733l14.637-6.58C203.027,264.007,203.76,263.272,203.027,261.085z"/>
		</g>
	</g>
	<g>
		<g>
			<path d="M216.203,272.061c0-1.469-0.733-2.928-2.931-2.928c-1.461,0-2.927,1.459-2.927,2.928v17.562
				c0,1.466,1.466,2.924,3.659,2.924c1.465,0,2.928-1.458,2.928-2.924L216.203,272.061z"/>
		</g>
	</g>
	<g>
		<g>
			<path d="M195.709,236.927l-0.732,2.93h-3.659l9.515,9.514h4.392c1.463-2.193,0.73-3.66-0.73-4.395L195.709,236.927z"/>
		</g>
	</g>
	<g>
		<g>
			<path d="M225.716,233.998c-0.732-1.459-2.194-1.459-3.66,0l-8.783,10.979h3.66c1.465,0.735,1.465,1.47,0.731,2.929l8.052-9.512
				C227.909,236.927,227.909,235.471,225.716,233.998z"/>
		</g>
	</g>
	<g>
		<g>
			<path d="M224.25,261.085c-1.462-0.737-2.926-0.737-4.388,0.728c-1.465,1.458-1.465,2.193,0.729,3.66l4.392,2.93l10.245,3.658
				l2.931-2.2c0.729-2.195-0.732-2.93-2.198-3.658l-8.052-2.931L224.25,261.085z"/>
		</g>
	</g>
	<g>
		<g>
			<path fill="#FFCDDE" d="M270.359,378.182c-0.732,5.848,1.463,14.639,5.854,25.615c-8.052,6.582-13.906,13.166-17.564,21.221
				l10.246,7.32l-0.733,12.441c7.319,3.66,16.104,5.119,24.153,5.119c0,6.588,3.658,13.176,11.711,21.225l10.246-8.049l12.439,5.121
				c2.197-2.926,4.392-7.32,5.123-13.168l2.194-8.789l19.764-2.188l-1.466-11.713l8.051-8.785
				c-2.927-5.115-7.319-10.25-13.173-13.908l-5.855-3.66c2.929-4.389,5.123-9.506,5.123-16.096v-7.32l-10.245-4.387l-4.393-12.449
				c-5.123,1.475-10.977,3.66-16.101,7.32l-8.05,5.129l-12.442-8.055l-7.318-4.395l-5.124,11.715L270.359,378.182z"/>
		</g>
	</g>
	<g>
		<g>
			<path d="M280.606,374.521h-10.979c-1.465,0-2.927,2.188-2.927,3.66v0.732c0,5.85,1.462,13.906,5.122,24.148
				c-7.32,6.582-12.44,13.17-16.832,20.49v1.465l1.464,2.922l8.78,5.859l-0.732,10.98c0,2.193,0.732,2.93,1.467,3.66
				c7.317,2.928,14.638,5.115,24.15,5.115c1.465,6.592,5.123,13.18,11.709,19.768l4.393,0.732l9.514-6.594l8.783,3.662l4.392-0.729
				c4.393-4.387,6.587-11.707,8.052-20.496l17.564-2.189l2.926-3.658l0,0l-1.466-10.979l7.318-7.32l0.732-2.199v-1.461
				c-5.119-8.053-10.978-13.906-18.295-17.564c3.659-6.59,5.124-13.18,5.124-18.299l-0.732-4.387l-1.466-2.928l-9.513-2.932
				l-4.393-11.707c0-1.467-2.192-2.203-3.658-2.203c-7.318,2.203-14.638,5.861-23.419,11.715l-11.711-7.32l-5.854-3.658
				c-2.195-0.736-3.661,0-5.121,1.467L280.606,374.521z M279.873,403.797l-0.732-1.473l-5.122-20.482l8.781-0.734l3.658-2.193
				l3.661-8.053l15.369,9.506l4.392,0.74l6.586-4.398l13.177-5.848l3.659,9.506l2.194,1.475l8.05,3.66l0,0
				c0,7.318-1.465,13.166-5.125,19.025l-0.732,1.457v1.473l2.198,2.188l5.122,3.658l10.977,9.521l-6.585,6.59
				c-0.733,0.727-0.733,2.186-0.733,2.924v0.734l0.733,8.049l-15.371,1.457c-2.194,0-3.659,1.473-3.659,3.66
				c-1.461,7.316-2.927,12.449-5.853,16.836l-8.052-3.658l-3.659,0.73l-8.052,5.861c-5.854-6.592-8.781-11.715-8.781-16.109
				l-0.731-3.66h-2.927l-20.493-3.66l0.732-10.24l-2.195-2.924l-7.317-5.131c3.658-5.846,8.78-11.707,14.636-17.561L279.873,403.797
				z"/>
		</g>
	</g>
	<g>
		<g>
			<path d="M301.828,403.797c-3.659,2.188-6.586,4.389-6.586,8.779c-1.465,4.387-0.733,8.047,0.731,10.977
				c2.927,3.66,5.854,5.861,8.781,6.588c4.393,1.459,8.052,0.73,10.979-1.463l7.316-8.055c0.734-4.391,0-8.047-2.192-10.979
				c-1.466-3.66-4.393-5.848-8.052-7.32L301.828,403.797z M300.366,414.039l4.389-5.123l5.857-0.73c2.927,0,4.393,1.459,5.854,3.658
				l0.731,4.389c0,2.932-1.463,5.859-4.391,8.051h-6.586c-2.194,0-3.659-2.191-5.125-3.66
				C299.635,418.438,299.635,415.506,300.366,414.039z"/>
		</g>
	</g>
	<g>
		<g>
			<path d="M280.606,426.484c0.732,1.455,2.925,2.193,4.392,1.455l14.637-5.848c1.461-1.469,2.193-2.928,1.461-4.395
				c-1.461-2.191-2.195-2.92-3.659-1.465l-14.637,6.592C280.606,423.553,280.606,425.018,280.606,426.484z"/>
		</g>
	</g>
	<g>
		<g>
			<path d="M313.539,429.414c0-2.201-0.732-3.662-2.927-3.662c-1.465,0-2.197,1.461-2.197,3.662v16.824
				c0,1.471,1.465,2.201,2.93,2.201c2.194,0,2.928-0.73,2.928-2.201L313.539,429.414z"/>
		</g>
	</g>
	<g>
		<g>
			<path d="M292.315,392.82c-0.731-1.473-2.196-1.473-3.658,0c-0.733,0.73-0.733,2.188,0,3.658l10.243,9.506h3.661
				c1.465-1.457,1.465-2.922,0-4.389L292.315,392.82z"/>
		</g>
	</g>
	<g>
		<g>
			<path d="M323.785,390.617l-3.661,0.73l-10.244,9.521c-0.732,1.455-0.732,2.928,0.732,5.115l3.66-0.727l10.245-10.25
				C325.25,393.551,325.25,392.084,323.785,390.617z"/>
		</g>
	</g>
	<g>
		<g>
			<path d="M321.59,417.697l-4.393,0.74c-0.731,0.727-0.731,2.186,0.734,3.654l5.119,2.926l9.519,3.66l2.927-2.193
				c0.731-2.201,0-3.66-1.467-3.66c-2.926-0.732-5.853-1.467-8.779-2.932L321.59,417.697z"/>
		</g>
	</g>
	<g>
		<g>
			<path fill="#FFCDDE" d="M102.031,365.732c-2.927-2.186-8.05-3.66-13.904-3.66h-8.784l-2.194-13.9l-2.198-5.852l-11.711,2.928
				l-10.245-6.59c-8.052,6.59-12.439,13.908-13.905,21.229c-5.124-2.201-10.977-3.66-16.831-2.932l-7.319,0.73l-2.929,10.248
				l-11.707,7.32c2.927,7.314,8.78,14.635,15.366,21.955c-2.927,5.115-5.854,11.707-8.78,21.229l11.71,3.654l2.193,11.707
				c6.587,0,14.638-3.658,24.883-8.781c7.318,6.582,15.37,11.715,23.42,13.902l5.854-10.98l13.176-1.455
				c1.462-4.393,1.462-10.252,1.462-16.84l-0.733-7.32c6.59-1.455,13.175-5.846,19.029-14.635l-8.78-9.508L102.031,365.732z"/>
		</g>
	</g>
	<g>
		<g>
			<path d="M80.076,345.979l-2.198-5.125c-0.729-2.195-2.926-2.922-4.388-2.195l-9.516,2.932l-8.781-5.859
				c-1.464-1.459-2.93-1.459-4.392,0c-5.857,5.123-10.978,11.705-13.904,19.762l-16.104-2.195l-7.318,0.73l-2.193,2.928
				l-2.198,8.777l-10.246,6.59c-1.465,0.73-2.195,1.465-2.195,2.932l0.729,1.455c2.197,5.859,7.319,13.18,13.909,20.5
				c-2.931,5.854-5.125,12.436-8.051,19.754v1.475c0,1.455,0.732,2.186,2.927,2.92l9.512,2.926l2.197,10.977
				c0.733,2.199,1.461,2.93,3.66,2.199c5.121,0,13.905-2.928,23.417-8.045c8.052,5.846,15.37,10.24,22.689,13.164l5.125-2.186
				l4.392-8.793l10.978-1.459l3.659-2.201l1.461-14.637l-0.733-9.506c6.589-2.201,13.176-7.318,19.029-13.908v-2.199l-0.731-2.188
				l-7.319-8.793l2.197-9.502v-1.475l-1.465-2.924c-5.122-2.922-12.439-4.395-21.956-4.395L80.076,345.979z M75.684,362.072
				c0.732,2.203,2.194,3.66,4.392,3.66l17.564,2.201l-2.194,8.775v1.473l0.729,2.186l7.319,7.322
				c-5.854,6.588-10.979,10.248-15.366,10.979l-2.199,1.469l-0.731,2.188l0,0l0.731,10.979l-1.461,10.25l-9.516,0.73l-3.66,2.201
				l-3.659,7.314c-6.586-2.199-13.172-5.859-19.029-11.707c-1.462-1.469-3.66-1.469-4.389,0c-8.784,3.66-15.369,6.586-19.761,7.322
				l-2.195-8.057l-2.197-2.92l-8.78-2.932c2.193-7.32,5.12-12.443,8.046-16.838v-1.459l-0.728-2.201
				c-5.857-5.846-9.516-12.439-13.176-18.299l8.051-5.115l2.194-2.201l2.197-8.779c6.587-0.727,13.172-0.727,19.758,2.934h2.931
				l2.194-2.934c1.465-5.859,5.125-11.707,10.246-16.836l7.318,4.395l3.661,0.734l8.783-2.199L75.684,362.072z"/>
		</g>
	</g>
	<g>
		<g>
			<path d="M44.944,378.914c-3.659,2.928-5.854,5.85-5.854,10.248c0,3.658,0,7.316,2.927,10.975
				c2.926,2.926,5.857,4.391,9.517,5.121c4.389,0.727,7.319-0.73,10.979-2.934c2.926-2.188,5.12-5.846,5.12-9.504v-2.203
				c0-3.656-0.732-6.588-2.927-8.775c-2.193-3.66-5.124-5.133-9.513-5.133C51.534,375.982,47.875,376.709,44.944,378.914z
				 M61.779,391.348l-2.926,5.861c-2.198,1.459-3.66,2.928-6.59,2.193c-2.926-0.734-4.388-1.465-5.121-2.924
				c-2.198-2.201-2.198-4.395-2.198-7.316c0-1.473,1.465-3.66,3.66-5.133c1.465-1.461,3.659-2.188,5.857-2.188
				c2.194,0.727,4.392,2.188,5.853,3.66L61.779,391.348z"/>
		</g>
	</g>
	<g>
		<g>
			<path d="M60.313,398.668h-4.391c-1.462,0.734-1.462,1.469-0.73,3.656l8.781,13.182c0,1.457,2.197,2.191,3.659,1.457
				c2.198-2.186,2.198-3.66,0.732-4.387L60.313,398.668z"/>
		</g>
	</g>
	<g>
		<g>
			<path d="M85.197,383.301c0-1.459-1.462-2.934-2.927-2.193l-16.832,2.922c-2.198,0-2.926,1.473-2.926,2.932
				c0.728,2.201,1.461,2.928,3.659,2.201l16.099-2.934C85.197,386.229,85.929,385.502,85.197,383.301z"/>
		</g>
	</g>
	<g>
		<g>
			<path d="M43.482,398.668c-2.197-1.459-2.926-1.459-4.392,0.734l-6.585,10.242c-1.466,0.734-1.466,2.199-0.733,3.658l4.392,0.736
				l8.779-11.715C45.677,400.137,44.944,398.668,43.482,398.668z"/>
		</g>
	</g>
	<g>
		<g>
			<path d="M30.308,378.182c-2.194-0.734-3.66,0-4.389,1.459c-1.465,0.727-1.465,2.201,0.729,4.389l11.711,7.318
				c1.465,1.473,2.926,0.736,4.391-1.459c0.732-0.727,0.732-2.199-1.465-3.66L30.308,378.182z"/>
		</g>
	</g>
	<g>
		<g>
			<path d="M59.582,362.072c-2.194,0-3.659,0.736-3.659,2.932l-2.927,13.178c-0.733,0.732-0.733,2.186,1.465,3.66
				c1.462,0.727,2.194,0,3.66-1.475c2.193-5.113,4.392-9.506,4.392-14.635C62.513,363.547,61.779,362.072,59.582,362.072z"/>
		</g>
	</g>
	<g>
		<g>
			<path fill="#D96038" d="M37.625,455.027c-3.659-1.473-7.318-3.66-13.171-6.588l-8.052-2.201l-3.659,12.449l-12.439,2.188
				c0.728,5.859,2.927,14.639,8.78,24.154c-6.587,7.322-10.979,15.367-13.906,23.416l10.979,5.861l0.732,13.172l24.882,0.734
				c1.465,6.586,6.586,13.166,15.37,19.754l8.781-9.512l12.442,2.924c2.194-2.924,2.927-8.047,3.66-13.9l0.732-8.785
				c6.586,0,13.171-1.455,19.029-4.387l-2.931-11.709l7.319-10.246c-4.388-4.389-9.513-8.049-14.637-10.98l-7.319-2.93
				c2.931-5.119,3.659-10.246,3.659-16.832l-0.729-7.316l-10.978-2.926l-6.589-10.975C51.534,443.314,44.215,448.439,37.625,455.027
				z"/>
		</g>
	</g>
	<g>
		<g>
			<path d="M9.816,455.027l-10.246,2.188c-1.465,0-2.927,1.473-2.927,3.66l0,0c0.729,5.859,2.927,13.908,8.78,24.154
				c-6.585,7.322-10.978,14.641-13.172,21.957l-0.732,1.459c0,2.201,0.732,2.932,2.193,2.932l8.784,5.861l0.733,10.975
				c0,0.732,1.461,2.186,2.927,2.186l24.15,2.203c2.198,5.854,7.318,12.438,14.636,18.299h4.393l8.051-8.785l10.245,2.924
				c1.465,0.734,2.927,0,3.659-1.457c2.927-3.66,4.392-10.98,5.124-21.957l16.832-4.387l2.198-2.932v-0.729l-2.931-10.248
				l6.589-8.049l0.729-2.93l-0.729-2.201c-5.856-5.848-12.443-10.982-20.494-13.902l2.927-13.9l-1.461-8.793l-2.198-2.922
				l-9.513-2.193l-5.853-10.25c-0.733-1.457-2.199-2.93-4.392-1.457c-7.319,2.188-13.905,7.318-21.223,13.9l-12.443-5.854
				l-7.319-2.201c-1.465,0-3.66,0-4.392,2.201L9.816,455.027z M13.476,462.348l2.194-2.932l2.931-8.049
				c8.047,2.188,13.172,4.389,16.831,7.32l4.392-0.734c5.12-5.854,11.71-10.244,18.297-13.174l5.12,8.775l2.198,1.473l8.051,2.188
				l0.729,5.133c0,5.848-1.461,10.975-2.927,14.637l-0.732,1.457l0.732,2.203l2.198,1.457l5.121,2.201l12.443,8.775l-5.125,7.318
				l-0.731,2.201v0.732l2.197,8.047l-14.637,3.66c-2.927,0-3.66,1.463-3.66,3.656v2.201c0,5.846-1.465,11.707-2.926,16.098
				l-9.517-2.193c-0.732,0-2.194,0-2.926,1.461l-7.319,6.594c-5.853-5.861-9.512-10.252-10.978-15.375l-1.465-2.193l-2.194-0.732
				H10.549l-0.733-10.246l-2.194-2.93l-8.051-4.391c3.66-8.047,7.319-13.908,12.44-19.023l0.732-2.934v-1.461
				c-4.392-8.055-6.585-14.641-8.051-20.494L13.476,462.348z"/>
		</g>
	</g>
	<g>
		<g>
			<path d="M44.944,479.168c-3.659,0-7.318,1.477-9.512,5.135c-2.926,2.188-4.392,5.848-4.392,9.506
				c0,4.395,1.466,7.318,4.392,10.25c2.194,2.928,5.854,4.387,10.246,4.387c3.659,0,7.318-1.459,10.246-4.387
				c2.93-2.932,4.391-6.59,4.391-10.25c0-4.387-1.46-7.318-4.391-10.24C52.996,480.645,49.336,479.168,44.944,479.168z
				 M39.09,487.963c2.195-2.201,4.392-2.934,5.854-2.934c2.931,0,4.393,0.732,6.59,2.934c1.461,1.459,2.927,3.66,2.927,5.846
				l-2.927,5.861c-1.465,2.193-2.93,2.928-5.857,2.928c-2.195,0-4.392-0.734-6.587-2.928c-1.465-1.467-2.193-3.66-2.193-5.861
				C36.897,491.623,37.625,489.422,39.09,487.963z"/>
		</g>
	</g>
	<g>
		<g>
			<path d="M36.165,495.281l-4.392-0.736l-13.172,8.053c-1.465,1.461-1.465,3.66-0.733,4.389c0.733,1.459,2.195,2.197,4.392,0.73
				l13.172-8.047C36.897,498.939,37.625,496.736,36.165,495.281z"/>
		</g>
	</g>
	<g>
		<g>
			<path d="M50.801,505.523l-2.197,2.193l-3.66-2.193l2.931,16.83c0,2.199,0.729,2.932,2.927,2.932l2.194-3.66L50.801,505.523z"/>
		</g>
	</g>
	<g>
		<g>
			<path d="M24.454,471.854h-3.66c-1.465,1.469-1.465,2.201,0,3.66l5.854,5.131l5.125,3.658l4.392-1.473
				c1.461-1.459,0.733-2.922-0.733-3.662L24.454,471.854z"/>
		</g>
	</g>
	<g>
		<g>
			<path d="M55.193,465.27l-4.392,0.738l-7.319,11.707c-1.465,1.453-0.732,2.93,0.733,3.656c1.462,1.459,2.927,1.459,3.659-0.727
				l8.048-10.977C56.655,468.195,56.655,466.734,55.193,465.27z"/>
		</g>
	</g>
	<g>
		<g>
			<path d="M56.655,492.352c-1.462-0.729-2.926-0.729-4.392,1.457c0,1.473,0,2.928,1.466,3.66l5.125,2.201l10.245,2.193
				c2.194,0,2.927-1.467,2.927-2.924c0-2.203-0.733-2.93-2.927-2.93l-8.784-2.201L56.655,492.352z"/>
		</g>
	</g>
	<g>
		<g>
			<path fill="#D96038" d="M234.5-4.587l-10.979-0.728l-9.517-10.25c-3.659,2.931-8.051,6.59-12.439,12.443l-5.856,7.318
				l-13.905-3.659l-8.051-1.466l-1.461,12.443l-11.71,5.125c2.193,5.854,5.854,13.172,13.172,21.956
				c-4.392,8.777-7.318,17.567-8.78,25.615l11.706,3.66l3.66,13.171c8.051,0,16.834-1.464,24.154-4.396
				c2.926,5.861,9.512,11.714,18.295,16.84l7.32-10.979h13.171c2.198-5.122,2.198-12.442,0-22.683
				c5.856-2.202,11.711-4.397,17.563-8.055L254.99,40.79l5.853-10.978c-5.119-4.396-10.244-7.318-16.831-8.784l-7.318-0.729
				C238.888,10.78,238.159,2.732,234.5-4.587z"/>
		</g>
	</g>
	<g>
		<g>
			<path d="M225.716-8.975l-8.052-8.783h-5.12c-5.857,3.659-12.442,9.512-17.567,17.56l-13.906-2.923l-7.318-1.466
				c-2.194,0-3.66,1.466-3.66,2.931l-1.461,10.979l-9.516,3.659c-1.462,0.729-2.195,2.193-2.195,3.659v0.729
				c2.195,6.589,5.853,13.908,13.172,21.956c-4.392,8.785-7.319,16.103-8.78,24.886l0,0c0,2.194,0.729,3.66,2.927,3.66l9.513,3.66
				l2.926,10.248l3.66,2.922l23.421-3.659c3.659,5.854,9.513,10.979,17.564,15.373l4.392-0.734l6.586-9.513h10.978l3.66-2.202
				l0.731-10.241l-0.731-10.979c8.051-3.66,13.903-5.854,16.103-8.782l1.46-2.194v-2.195l-5.12-8.784l4.393-9.512l0.728-1.465
				l-1.46-2.923c-6.588-5.861-13.906-9.52-22.688-10.249l0.731-5.86L239.62-0.928l-2.193-5.117
				c-0.733-0.736-1.466-2.201-2.927-2.201L225.716-8.975z M222.788-1.657l9.514,0.729l1.465,12.443l-0.732,7.319v1.465l0.732,2.194
				c1.462,0.736,2.194,1.465,2.927,1.465l5.854,0.73c5.124,1.465,9.516,2.929,13.177,6.589l-3.661,7.319l-0.73,2.193l0.73,1.466
				l3.661,7.318l-13.905,6.59c-1.465,0.728-2.198,2.187-2.198,3.661v0.728l0.733,13.173v5.125h-9.515l-2.93,0.729l-5.854,8.782
				c-6.586-3.66-11.71-8.055-13.903-13.172l-1.466-2.2l-3.659,0.736c-5.854,2.194-13.172,3.66-19.758,3.66l-2.931-10.243
				l-2.927-2.931l-8.051-2.201c0.732-6.583,4.392-13.901,8.051-21.221v-2.193v-1.465c-5.854-7.319-9.513-13.172-11.711-18.296
				l8.052-3.66l2.198-2.923l1.461-8.791l17.564,4.396c1.465,0,2.93,0,4.392-2.195l3.659-5.124
				c3.659-4.396,7.318-8.056,10.978-10.979l6.587,8.056L222.788-1.657z"/>
		</g>
	</g>
	<g>
		<g>
			<path d="M197.173,42.983c1.463,3.66,2.929,6.59,5.854,9.521c3.659,2.187,7.318,2.923,10.978,2.187
				c4.393-1.457,7.319-2.922,9.517-6.582c2.194-2.925,2.926-6.583,2.194-10.979c-0.732-2.923-2.928-5.854-6.586-8.784
				c-2.927-2.194-6.586-2.931-10.978-2.194c-3.659,1.464-6.587,3.659-8.784,6.582C197.173,35.666,196.441,39.325,197.173,42.983z
				 M204.493,35.666c0.73-2.194,2.193-2.931,5.12-3.659l6.59,1.464c2.194,1.466,2.927,2.923,3.659,5.125l0.729,2.193
				c0,4.395-2.928,7.32-7.319,8.055l-6.586-0.735l-3.659-5.854C203.027,40.054,203.027,37.866,204.493,35.666z"/>
		</g>
	</g>
	<g>
		<g>
			<path d="M203.027,43.712c-1.462-1.457-2.926-1.457-4.392,0l-11.707,10.979c-0.732,1.473-0.732,2.932,0,4.395
				c1.461,1.466,2.927,1.466,4.389,0l10.977-10.976C204.493,46.643,204.493,45.184,203.027,43.712z"/>
		</g>
	</g>
	<g>
		<g>
			<path d="M224.25,65.67l-5.853-15.366c0.732,1.465,0,2.93-1.465,2.93c-1.463,0.729-2.928,0.729-3.66-1.465l5.857,16.102
				c0,2.194,2.194,2.194,3.658,2.194C224.983,68.599,225.716,67.871,224.25,65.67z"/>
		</g>
	</g>
	<g>
		<g>
			<path d="M186.929,22.494l-4.393,0.736c-0.732,0.729-0.732,2.923,0.733,4.388l13.172,5.854c2.194,0,2.927,0,3.66-2.194
				c0.73-1.465,0.73-2.93-1.466-3.66C192.049,25.417,188.39,23.958,186.929,22.494z"/>
		</g>
	</g>
	<g>
		<g>
			<path d="M215.47,10.78c-2.197-1.458-3.658-0.729-3.658,1.472l-5.857,12.437c0,2.2,0,3.659,2.198,4.388
				c1.461,0.736,2.193,0,3.659-1.458l5.121-13.179C217.664,12.981,216.933,11.516,215.47,10.78z"/>
		</g>
	</g>
	<g>
		<g>
			<path d="M222.056,37.131c-1.464-0.737-3.658,0-3.658,1.465c-0.733,2.193,0,3.66,2.194,3.66l5.124,1.457h10.245
				c2.198-0.729,2.927-1.457,2.927-2.923c-0.729-2.193-2.194-3.659-3.659-2.923h-8.781L222.056,37.131z"/>
		</g>
	</g>
	<g>
		<g>
			<path fill="#D96038" d="M211.812,446.238l-12.443,7.316c3.659,7.32,8.784,14.641,16.102,21.959
				c-3.658,4.395-7.317,10.977-9.516,20.496l11.71,3.66l2.198,12.436c5.854-0.729,13.904-3.66,24.882-8.775
				c7.318,6.588,14.638,11.707,23.418,13.908l5.124-10.252l13.172-0.729c1.466-5.861,2.199-10.977,2.199-17.568l-0.733-8.045
				c6.585-0.736,13.172-5.131,19.761-13.91l-8.784-9.52l2.928-12.436c-2.928-2.201-8.051-3.658-13.904-4.387h-8.783l-2.194-13.18
				l-2.928-5.855l-11.711,2.926l-8.782-7.32c-8.781,6.59-13.172,13.908-14.638,21.957c-5.854-2.926-10.979-4.389-16.832-3.66h-8.051
				L211.812,446.238z"/>
		</g>
	</g>
	<g>
		<g>
			<path d="M195.709,453.555l0.732,0.738c2.927,6.582,7.318,13.902,13.904,21.221l-5.853,12.449l-2.199,7.318v0.729
				c0,1.459,0.733,2.93,2.199,2.93l9.512,3.658l2.198,10.242c0.729,2.197,1.461,2.924,4.389,2.924
				c7.317-0.727,15.369-3.658,23.42-8.047c7.32,5.861,14.638,10.248,22.688,13.908l4.392-2.201l5.122-8.777l10.979-0.729
				l2.927-2.932l2.196-15.363l-0.731-8.793c7.316-2.186,13.171-6.582,19.028-13.902l0.732-2.193l-1.465-2.201l-7.318-8.777
				l2.927-9.518v-1.459l-2.194-2.932c-4.394-2.928-11.71-5.115-20.494-5.115c-2.193-9.52-2.927-14.641-5.122-16.84
				c-0.731-1.455-2.196-2.93-4.392-2.195l-10.244,2.926l-8.052-6.584c-1.465-0.736-2.928-0.736-3.658,0
				c-7.32,5.125-11.712,11.713-14.639,19.76l-16.102-2.199h-6.587c-1.461,0.738-2.193,1.473-2.927,3.66l-2.926,8.791l-10.246,5.848
				C197.173,450.633,195.709,451.367,195.709,453.555z M240.354,441.848l2.193-2.928c1.465-5.848,5.124-11.707,10.979-16.828
				l7.317,5.121l2.932,0.727l8.78-2.188l2.927,14.641c0,2.922,1.465,3.658,3.659,3.658l18.296,2.922l-2.194,8.783v1.459v2.201
				l7.319,7.318c-5.125,6.588-10.978,10.25-15.369,10.25l-2.927,1.457v2.203v0.727l0.732,10.252l-1.467,10.975l-10.245,0.732
				c-0.731,0-2.194,0.729-2.927,1.455l-4.391,8.793l-19.029-13.182l-3.66-0.727l-20.491,8.047l-1.464-8.777l-2.927-2.93
				l-8.052-2.932c2.927-7.316,5.124-12.434,7.318-16.094l0.733-1.471l-0.733-2.924c-5.853-5.855-9.512-11.715-13.171-17.563
				l9.512-5.129l1.465-2.189l2.194-8.789c6.586-1.461,12.444,0,19.029,2.928H240.354z"/>
		</g>
	</g>
	<g>
		<g>
			<path d="M263.774,457.215c-2.198-2.922-5.858-4.389-9.517-4.389c-4.393,0-7.318,1.467-10.246,4.389
				c-3.658,2.932-4.392,5.859-4.392,10.246c0,4.393,0.733,7.322,4.392,9.523c2.928,3.66,5.854,4.387,10.246,4.387
				c3.658,0,7.318-0.727,9.517-4.387c2.926-2.201,4.388-5.131,4.388-9.523C268.162,463.074,266.7,460.146,263.774,457.215z
				 M247.671,460.875c2.194-1.459,3.661-2.188,6.587-2.188c2.196,0,4.392,0.729,5.124,2.188c2.194,2.199,2.926,3.658,2.926,6.586
				c0,2.207-0.731,4.393-2.926,5.861c-0.732,2.191-2.928,2.191-5.124,2.191c-2.926,0-4.393,0-6.587-2.191
				c-1.464-1.469-2.927-3.654-2.927-5.861C244.744,464.533,246.207,463.074,247.671,460.875z"/>
		</g>
	</g>
	<g>
		<g>
			<path d="M258.649,477.715c0-2.201-1.465-2.201-3.659-0.73c-1.465,1.457-1.465,2.184-0.732,3.66l8.05,13.164
				c0.734,2.201,2.927,2.201,4.393,1.473c1.462-1.473,2.195-2.203,0.732-3.658L258.649,477.715z"/>
		</g>
	</g>
	<g>
		<g>
			<path d="M268.162,464.533c0,2.201-0.729,3.662-2.928,3.662l17.565-2.188c1.466-0.738,2.198-1.475,1.466-3.66
				c0-1.473-1.466-2.932-3.659-2.932l-16.104,2.932L268.162,464.533z"/>
		</g>
	</g>
	<g>
		<g>
			<path d="M243.279,476.984c-2.194-1.471-3.659-1.471-4.392,0.73l-7.318,10.248c-1.461,0.727-2.194,2.188-0.73,3.66l4.39,0.729
				c2.931-2.93,5.856-6.59,8.783-11.707C244.744,479.168,244.744,477.715,243.279,476.984z"/>
		</g>
	</g>
	<g>
		<g>
			<path d="M229.375,457.215c-1.466-1.459-2.928-1.459-3.659,0c-1.466,2.201-1.466,3.66,0,4.395l11.711,8.059
				c2.193,0.727,2.927,0.727,4.392-1.473c1.461-1.461,0.729-2.188-1.465-3.662L229.375,457.215z"/>
		</g>
	</g>
	<g>
		<g>
			<path d="M258.649,440.393c-1.465,0-2.926,1.455-2.926,3.658c0,3.658-0.733,8.049-3.661,11.705c-0.73,2.197-0.73,3.66,1.463,4.391
				c1.465,0.729,3.659,0.729,4.391-1.459c2.2-5.133,3.66-10.248,4.392-14.637C262.308,442.578,260.843,441.121,258.649,440.393z"/>
		</g>
	</g>
	<g>
		<g>
			<path fill="#D96038" d="M-4.821,53.234c0,5.852,2.195,13.171,7.319,21.226c-5.854,3.659-10.246,8.047-14.637,13.9l8.051,8.786
				l-1.465,11.705l19.029,2.931l7.318-1.466c0,9.513,3.66,17.561,8.784,22.694l10.978-2.933l11.707,7.32l8.051-15.366l3.661-8.055
				l22.688-2.193L84.467,99.34l9.514-8.785c-2.194-2.929-5.854-6.589-11.711-10.977l-8.051-5.854l1.465-19.034l-0.732-8.048H63.241
				l-7.318-10.978c-8.781,2.201-16.099,5.861-22.685,11.708c-2.93-2.923-6.59-6.583-13.176-8.777l-8.78-1.465L6.89,49.574
				L-4.821,53.234z"/>
		</g>
	</g>
	<g>
		<g>
			<path d="M64.706,42.983l-5.853-9.512c-0.732-0.736-2.93-1.464-3.66-1.464c-7.318,1.464-13.908,5.124-21.955,10.249
				c-2.93-2.931-7.319-5.125-13.909-7.319l-7.317-1.466c-2.195,0-3.66,0-4.389,2.194l-2.93,10.978l-10.246,2.931l-2.927,2.93v1.459
				c0,6.589,2.193,12.442,6.585,19.762l-9.512,8.054l-3.659,4.388l-0.733,2.193l0.733,2.194l7.317,7.319l-1.464,10.249v0.729
				c0,1.464,0.732,2.931,2.925,2.931c8.052,3.659,16.103,4.387,23.422,3.659c2.193,8.047,5.124,14.636,9.512,20.49l3.66,0.738
				l9.516-2.203l10.246,5.861l5.124-0.737c3.66-4.395,7.32-11.714,11.708-21.955l20.494-2.194c2.195-0.729,2.926-2.2,2.926-3.659
				v-1.466l-2.193-9.512l8.047-7.317l1.465-2.932l-0.733-2.194c-3.659-5.124-10.246-10.976-19.029-16.102l1.466-15.367
				l-0.733-10.976c0-1.466-1.461-2.933-3.659-2.933H64.706z M33.238,51.031l2.194-1.457c5.854-4.39,11.71-7.318,19.029-8.784
				l5.853,8.055l2.927,1.459h8.051l0.733,6.588L70.56,72.988v0.736l1.465,3.66l16.831,13.17l-6.586,5.86l-1.462,2.925l0,0
				l1.462,8.782l-18.296,2.194c-1.461,0-3.661,0-3.661,2.195l-2.193,6.59l-7.319,13.171l-8.051-5.124l-3.66-0.73l-8.051,2.194
				c-4.392-5.125-6.585-10.978-6.585-18.297l-2.195-2.194l-2.931-0.727l-20.49-1.474l0.732-8.774l0,0l-0.732-2.933l-6.587-5.854
				l12.44-10.976l1.465-2.925l-0.733-2.202c-3.659-5.854-5.854-11.707-6.585-16.831l9.513-2.193l2.198-2.93l2.926-9.514
				c8.784,2.194,14.638,5.126,16.832,8.784L33.238,51.031z"/>
		</g>
	</g>
	<g>
		<g>
			<path d="M24.454,79.578c-1.465,3.658-0.733,7.318,1.465,10.977c1.462,2.932,4.389,5.86,8.048,6.592l10.977-1.466
				c3.66-1.466,5.857-4.395,7.319-8.784c0.733-3.66,0-7.318-1.461-10.977c-2.197-2.931-5.124-5.12-8.784-5.854L31.04,70.799
				C28.113,72.258,25.186,75.188,24.454,79.578z M33.967,75.919l6.589-0.73l5.121,3.661c1.465,2.93,1.465,5.116,0.732,7.318
				l-3.659,4.388l-7.318,1.466l-5.124-4.395c0-1.459-0.729-2.187-0.729-4.39C29.578,80.306,31.04,77.385,33.967,75.919z"/>
		</g>
	</g>
	<g>
		<g>
			<path d="M55.923,59.085c-1.462-1.463-2.927-1.463-3.66,0.739l-7.319,13.9c-1.461,1.464-0.729,3.66,0.733,3.66
				c2.197,1.464,2.927,1.464,3.659-0.739l8.051-13.901C58.121,60.552,58.121,59.824,55.923,59.085z"/>
		</g>
	</g>
	<g>
		<g>
			<path d="M22.989,59.085h-4.388c-1.465,1.466-1.465,2.925,0,4.396l9.513,13.165c-0.732-1.458-0.732-2.921,1.465-4.388l3.66,0.73
				L22.989,59.085z"/>
		</g>
	</g>
	<g>
		<g>
			<path d="M54.461,86.167c-2.198,0-2.927,0.729-2.927,2.193c0,2.194,0.729,3.66,2.927,3.66L66.9,93.486c1.465,0,2.93,0,3.659-2.201
				c0.732-1.459,0.732-2.925-1.462-3.659L54.461,86.167z"/>
		</g>
	</g>
	<g>
		<g>
			<path d="M44.944,93.486c-1.461,0-2.194,0.728-2.926,2.194l-0.732,14.636c0,1.466,0,2.195,2.197,2.925
				c2.195,0,3.66-1.459,3.66-2.925l0.732-13.901l-0.732-2.201L44.944,93.486z"/>
		</g>
	</g>
	<g>
		<g>
			<path d="M31.772,86.896c0-1.457-1.465-2.195-2.926-2.195h-5.125c-4.392,0.738-7.318,1.466-10.245,3.66
				c-1.464,0.736-1.464,1.466-0.732,3.66c0.732,1.466,2.197,2.193,3.659,1.466c2.198-1.466,5.125-2.932,8.052-2.932l5.124-0.729
				C31.04,89.826,31.772,89.097,31.772,86.896z"/>
		</g>
	</g>
	<g>
		<g>
			<path fill="#D96038" d="M246.939,359.15l-4.393-7.318l-10.978,4.395l-10.978-6.588c-6.587,5.115-12.439,11.707-16.099,19.754
				l-15.37-2.186l-8.784,1.455l2.197,13.18l-10.245,8.047c1.461,5.119,6.586,10.98,15.366,16.834
				c-2.926,5.854-5.854,11.715-7.318,18.295l10.979,4.396l3.659,11.707c9.517-0.729,18.296-3.662,24.153-8.783
				c4.392,8.055,10.245,13.9,17.563,16.83l8.784-6.59l13.172,1.473l2.193-18.299l-1.461-8.789
				c5.853-1.457,13.173-5.846,20.491-10.979l-7.318-10.242l5.123-11.713c-2.927-1.461-8.051-3.662-15.37-5.115l-9.512-2.205
				L246.939,359.15z"/>
		</g>
	</g>
	<g>
		<g>
			<path d="M246.207,348.906l-5.122-0.734l-8.783,4.395l-10.246-5.859c-0.731-0.729-2.193-0.729-3.658,0
				c-4.393,3.658-10.245,9.52-15.37,17.568l-15.37-0.729l-8.048,2.186l-2.931,2.93v0.73l1.465,10.975l-8.051,6.594l-1.461,2.928
				l0.729,1.459c2.198,5.131,6.59,10.977,13.909,16.109c-2.931,5.846-5.857,10.98-6.591,16.826v0.734
				c0,1.467,0.733,2.922,2.199,3.66l9.512,3.66l2.928,10.24c0.731,1.473,2.197,2.201,3.659,2.201
				c8.051-0.729,15.369-2.201,22.688-7.32c5.124,6.592,10.979,12.439,18.297,14.641h3.659l7.319-5.861l11.71,1.471l3.658-2.93
				l2.194-16.102l-0.728-9.514l18.297-10.248l1.46-2.932l-0.731-2.188l-5.854-8.789l4.393-9.506v-1.473l-1.466-2.922
				c-3.659-2.926-11.711-5.125-24.149-8.055l-5.858-16.826L246.207,348.906z M229.375,359.887h3.659l8.051-3.66
				c3.659,5.846,6.586,13.166,8.78,21.221c0,1.467,0.733,2.92,2.197,2.92l21.224,5.861l-3.659,7.322l-0.731,2.191l0.731,1.467
				l5.124,7.318c-8.051,5.117-12.443,8.049-16.102,8.775c-1.465,1.475-2.926,2.203-2.926,3.66l0.73,0.734l0.73,10.98l-1.461,10.977
				l-9.517-0.734h-2.928l-6.586,5.859c-6.585-2.201-10.978-7.32-14.638-13.908l-2.193-1.457h-2.93
				c-5.121,4.385-11.709,6.58-19.76,7.318l-2.196-8.055l-2.194-2.926l-8.051-2.928l6.586-13.908v-2.193l-1.462-2.926
				c-5.124-3.66-9.517-7.318-12.443-12.449l7.319-6.584l1.465-2.922l0,0l-1.465-10.248l18.296,0.729l3.659,0.73l1.466-2.191
				c3.659-6.586,7.317-11.711,13.172-16.107L229.375,359.887z"/>
		</g>
	</g>
	<g>
		<g>
			<path d="M212.544,391.348c-2.198,3.66-2.931,7.32-2.198,10.977c0,3.66,1.466,7.32,5.124,9.52
				c2.928,2.934,6.586,2.934,10.978,2.934c3.661-0.738,6.587-2.934,9.514-5.861c2.198-2.932,2.927-6.592,2.927-10.248
				c-1.461-4.391-2.927-7.32-5.854-9.506c-3.659-2.934-7.318-3.66-10.979-2.934C217.664,386.229,215.47,388.424,212.544,391.348z
				 M217.664,395.008c1.466-2.188,3.66-2.924,5.124-3.66c2.928,0,5.121,0,6.587,2.203l3.659,5.117l-2.195,6.59l-5.123,3.658
				l-6.586-1.459c-1.466-1.473-3.66-3.66-3.66-5.861v-1.459L217.664,395.008z"/>
		</g>
	</g>
	<g>
		<g>
			<path d="M230.108,370.861c-1.466-0.734-2.928,0-2.928,2.191l-1.465,16.109c0,1.455,0.731,2.186,2.927,2.922
				c1.466,0,2.927-0.736,2.927-2.922l1.465-16.109C233.034,371.594,232.302,370.861,230.108,370.861z"/>
		</g>
	</g>
	<g>
		<g>
			<path d="M200.102,384.764c-1.466-0.734-2.929-0.734-3.66,0.738c-0.732,2.188-0.732,3.66,1.465,4.387l13.905,7.32
				c-0.733-0.73-1.466-1.467,0-3.658c0-1.467,2.193-2.203,3.658-0.73L200.102,384.764z"/>
		</g>
	</g>
	<g>
		<g>
			<path d="M257.185,394.277c0-1.457-1.461-2.93-2.927-2.93l-13.904,4.395c-2.194,0.736-2.927,1.467-1.466,3.66
				c0.732,1.467,1.466,2.193,3.659,1.467l11.711-3.66C255.724,397.209,257.185,396.479,257.185,394.277z"/>
		</g>
	</g>
	<g>
		<g>
			<path d="M238.888,408.186c-1.461-2.201-2.194-2.201-3.659-2.201c-2.194,1.473-2.927,2.201-2.194,3.66l4.393,13.18
				c0.732,2.193,2.193,2.928,3.658,2.193c2.194-0.734,2.927-2.193,2.194-3.66L238.888,408.186z"/>
		</g>
	</g>
	<g>
		<g>
			<path d="M220.592,405.984c-1.462-1.457-2.928-2.188-4.389-1.457c-0.733,0-2.198,1.457-4.392,2.93l-8.052,7.32
				c-0.732,0.729-0.732,2.186,0.733,3.66h3.659l6.586-6.594l3.659-2.199C220.592,409.645,220.592,408.186,220.592,405.984z"/>
		</g>
	</g>
	<g>
		<g>
			<path fill="#D96038" d="M253.525,192.288l-16.099-8.785l-7.318-2.195c2.193-5.123,2.926-10.977,1.461-16.837l-2.194-7.32
				l-10.978-1.458l-8.052-10.977c-7.318,3.66-13.173,10.249-19.758,17.568c-2.931-1.474-8.052-2.933-13.909-4.397l-8.047-1.464
				l-2.197,12.442l-11.711,3.66c0.732,6.581,5.124,13.9,11.711,23.421c-5.854,8.775-9.514,16.83-10.979,24.883l10.979,4.39
				l3.659,13.172l24.883-2.922c1.465,6.581,7.317,12.434,16.835,17.56l8.051-10.243l12.439,2.188
				c1.465-3.659,2.198-8.778,1.465-14.639l-0.732-8.775l19.028-7.319l-4.392-10.978L253.525,192.288z"/>
		</g>
	</g>
	<g>
		<g>
			<path d="M234.5,159.352l-1.466-4.387l-2.926-1.473l-9.517-1.458l-7.319-9.519l-5.12-0.731
				c-5.125,2.932-11.711,8.786-18.297,16.103l-13.177-3.659l-7.318-1.464c-1.461-0.73-2.926,0.728-4.388,2.929l-2.199,10.25
				l-9.512,2.923c-1.465,0.736-2.197,2.194-2.197,3.66v0.735c0.732,5.119,4.391,13.166,10.978,22.687
				c-5.122,8.048-8.78,16.094-10.246,24.148v0.735l2.927,2.926l9.516,4.395l2.195,10.241l2.926,3.659l23.421-2.195
				c2.927,5.854,8.783,12.436,16.831,16.832c2.198,0.736,3.659,0.736,4.392-0.736l7.319-9.506l10.245,2.188
				c1.465,0,2.931-1.457,3.659-2.923c1.465-2.923,2.198-7.319,2.198-13.901v-8.054c8.78-2.195,13.905-3.661,16.831-6.584l1.466-2.93
				l-0.733-1.466l-3.658-9.512l5.122-8.784l0.73-2.193l-1.461-2.202c-6.588-6.583-13.905-10.243-21.957-11.707l2.194-8.777
				L234.5,159.352z M215.47,157.888c0.733,0.737,2.194,1.464,2.928,1.464l8.05,1.459l2.195,8.791l-2.195,10.241v1.465l0.733,2.195
				c0.729,0.737,1.462,1.464,2.194,1.464l6.586,1.459c4.393,1.474,8.051,4.396,12.443,7.32l-4.393,8.054v1.465v1.457l3.659,8.055
				c-5.124,2.924-10.244,4.396-14.637,5.125c-2.195,0-3.659,2.193-3.659,3.66v0.729l0.733,9.52l-0.733,8.777l-8.783-1.458
				c-1.462,0-2.928,0-3.659,1.458l-6.587,8.047c-6.586-5.116-10.978-9.505-12.439-13.9l-2.197-2.924h-2.194l-20.495,2.924
				l-2.927-10.244l-2.194-2.929l-8.052-2.931c2.926-9.512,6.587-16.095,9.513-20.49l0.732-2.194l-0.732-2.201l-10.245-18.297
				l8.784-2.923l2.194-2.924l1.465-8.791l17.564,5.132c2.194,0.729,2.926,0.729,4.392-0.737
				c5.121-6.581,10.245-10.977,16.099-15.372L215.47,157.888z"/>
		</g>
	</g>
	<g>
		<g>
			<path d="M201.565,185.697c-4.393,1.465-8.051,2.93-9.517,5.861c-2.193,2.923-3.659,6.583-2.926,10.242
				c0.732,4.395,2.194,7.318,5.854,10.241c2.93,2.201,6.589,2.931,10.978,2.201c3.659-0.727,6.59-2.201,9.516-5.124
				c1.463-2.924,2.194-5.854,2.194-8.785v-2.193c0-3.66-2.194-7.319-5.853-9.514C208.885,186.426,205.954,184.967,201.565,185.697z
				 M202.294,191.558c2.199-0.736,4.393,0,6.591,2.188l2.927,5.13l-1.466,6.583l-5.853,3.66l-5.857-2.195l-3.659-5.124
				c0-2.924,0.732-5.126,2.196-7.319C197.906,193.015,199.368,191.558,202.294,191.558z"/>
		</g>
	</g>
	<g>
		<g>
			<path d="M194.247,202.536h-4.392l-11.711,10.241c-1.465,0.739-1.465,2.196-0.732,3.659h4.392l11.711-9.512
				C195.709,205.458,195.709,204.722,194.247,202.536z"/>
		</g>
	</g>
	<g>
		<g>
			<path d="M204.493,212.042l4.392,16.11c0.729,2.186,1.461,2.186,3.659,2.186c2.194-0.727,2.926-2.186,1.461-3.66l-3.659-16.094
				l-2.193,2.933C205.954,214.243,204.493,213.516,204.493,212.042z"/>
		</g>
	</g>
	<g>
		<g>
			<path d="M180.339,180.58c-1.461-0.736-2.927-0.736-3.66,0c-1.46,2.187-1.46,2.923,0,4.388c1.465,2.195,5.857,4.39,12.444,6.591
				c2.194,1.457,2.926,0.73,3.659-0.736c0.732-2.195,0.732-3.66-1.465-3.66L180.339,180.58z"/>
		</g>
	</g>
	<g>
		<g>
			<path d="M209.613,170.332c-2.194-0.729-3.659-0.729-3.659,1.458l-6.586,12.451c-0.732,2.186,0,2.922,1.464,3.66
				c1.462,1.457,2.928,0.727,3.661-0.738l5.853-13.172C211.812,172.526,211.078,171.79,209.613,170.332z"/>
		</g>
	</g>
	<g>
		<g>
			<path d="M214.005,197.405c-1.461-1.458-2.927,0-3.659,1.471c-0.732,2.187,0,2.924,1.466,3.66l5.853,2.187l10.245,0.736
				l2.199-3.658c0-2.195-0.733-2.924-2.928-2.924l-8.783-0.735L214.005,197.405z"/>
		</g>
	</g>
	<g>
		<g>
			<path fill="#D96038" d="M335.496,191.558l-17.564-0.736l-8.784,1.466l-7.319-12.445l-5.854-6.583l-9.516,8.047l-11.707-4.388
				c-2.196,5.846-4.392,13.901-5.124,25.615c-6.585,2.187-11.711,4.388-18.295,7.319l-6.588,4.388l5.854,10.978l-5.854,11.707
				c5.854,5.861,12.44,10.978,20.49,13.909c-2.927,5.853-2.192,14.637,1.466,24.151l13.173-2.195l8.051,9.512
				c5.854-2.923,10.977-8.055,16.103-17.559c5.854,3.657,12.439,5.846,19.024,6.58l3.661-10.977l10.977-4.396
				c-0.728-6.582-2.192-12.434-5.854-17.56l-4.392-6.582c8.053-4.395,12.443-10.98,15.37-19.034l-7.317-7.318V191.558z"/>
		</g>
	</g>
	<g>
		<g>
			<path d="M298.9,171.79l-4.392-1.458l-8.778,6.589l-9.517-3.66c-2.195-0.735-3.659,0-4.392,2.188
				c-2.927,5.131-5.122,13.178-5.854,24.157c-5.126,2.195-10.979,5.117-16.104,7.318l-7.318,5.118l-1.462,2.201v2.193l5.854,8.784
				l-5.854,9.514v2.193l0.733,2.203c5.121,5.846,10.978,10.241,19.758,13.901l-1.46,6.581c0,5.134,1.46,11.714,2.926,16.839
				c1.46,2.196,2.927,2.931,4.391,2.196l10.979-2.196l7.319,8.049l4.389,0.729c5.123-2.188,9.516-7.321,15.369-15.367l16.835,5.126
				c2.194,0.733,3.658,0,4.389-2.195l2.197-9.521l10.245-3.66l2.195-3.659l0,0c-1.463-10.241-4.389-17.56-9.515-23.415
				c7.319-5.122,11.711-11.708,14.638-18.295v-1.466l-0.731-2.194l-6.587-6.588v-12.437c0-1.472-0.733-3.658-2.927-3.658
				l-25.615,0.727L298.9,171.79z M288.657,184.24l6.585-5.133l10.246,15.374c0.732,1.466,2.927,2.193,4.392,1.466l7.317-0.731
				l14.638-0.735v10.978v2.196l6.586,6.588c-2.925,6.588-7.317,11.708-13.171,14.637c-0.732,0.73-1.465,2.195-1.465,2.931l0,0
				l0.732,2.924l3.659,5.123l5.125,13.909l-8.052,2.923l-2.199,2.196l-2.192,8.782l-14.638-5.853
				c-2.194-0.728-3.659-0.728-5.125,1.458c-2.927,5.861-7.318,10.978-12.438,13.909l-5.857-6.588l-3.659-1.459l-9.514,2.193
				l-2.194-11.714c0-2.923,0.729-5.116,1.463-7.319v-1.457v-1.465l-2.927-2.193c-6.587-2.202-11.711-5.861-16.833-10.98l5.122-8.782
				v-2.196v-1.463l-4.393-8.056c8.051-5.118,14.637-8.046,20.494-9.506l2.927-3.659c0-8.055,2.195-14.636,3.66-21.228l8.052,3.659
				L288.657,184.24z"/>
		</g>
	</g>
	<g>
		<g>
			<path d="M302.562,217.172c-3.661-1.471-7.319-2.93-10.978-1.471c-3.66,0.735-7.318,2.93-8.784,5.861
				c-2.193,2.929-2.193,5.854-2.193,8.048v2.928c0.732,4.389,3.659,7.319,6.586,9.514l10.977,1.467
				c4.393-0.73,7.319-2.931,8.784-5.861c2.194-3.66,2.927-7.32,2.194-10.98C308.415,222.291,306.221,219.362,302.562,217.172z
				 M293.048,220.831l5.853,1.46l4.394,5.125l-0.732,6.582l-5.854,4.395l-6.589-1.465l-3.661-5.853c0-2.195,0-3.658,1.466-6.583
				C288.657,223.019,290.851,221.562,293.048,220.831z"/>
		</g>
	</g>
	<g>
		<g>
			<path d="M286.458,225.22c0-1.463-1.46-2.201-2.927-2.201h-16.099c-1.464,0-2.931,0.738-2.931,2.201
				c0,2.196,1.467,2.931,2.931,2.931h16.099C284.998,228.151,286.458,227.416,286.458,225.22z"/>
		</g>
	</g>
	<g>
		<g>
			<path d="M293.777,241.317c-1.462,1.471-2.193,2.202-4.388,1.471c-1.466-0.736-2.197-1.471-1.466-2.931l-7.317,14.639
				c-0.733,2.193,0,2.929,2.193,3.658c1.466,0.73,2.931,0,3.658-1.465L293.777,241.317z"/>
		</g>
	</g>
	<g>
		<g>
			<path d="M294.509,211.312l-5.119-11.706c0-1.464-1.466-2.201-2.932-2.201c-2.192,0-2.927,0.736-2.192,2.929l4.392,13.909
				l4.391,1.458C295.242,214.243,295.242,212.777,294.509,211.312z"/>
		</g>
	</g>
	<g>
		<g>
			<path d="M317.932,210.583c-0.734-1.464-1.466-2.201-3.659-1.464l-12.444,5.124c-2.193,1.458-2.193,2.193-2.193,4.388
				c1.461,1.465,2.927,2.2,4.392,1.465l13.171-5.853C318.664,213.516,319.393,212.777,317.932,210.583z"/>
		</g>
	</g>
	<g>
		<g>
			<path d="M304.755,233.998c-1.461-1.459-2.193-1.459-4.389,0c-1.466,0.737-1.466,2.2,0,3.66l9.514,10.978
				c1.465,1.472,2.927,1.472,3.659,0c2.195-1.457,2.195-2.923,0.733-3.659L304.755,233.998z"/>
		</g>
	</g>
</g>
<path id="PATH77" fill="none" stroke="#000000" stroke-width="3" stroke-miterlimit="100" d="M370.59,585.26H3.92V2.74h366.67
	V585.26L370.59,585.26z"/>
</svg>
