<?xml version="1.0" encoding="utf-8"?>
<!-- Generator: Adobe Illustrator 13.0.0, SVG Export Plug-In . SVG Version: 6.00 Build 14948)  -->
<!DOCTYPE svg PUBLIC "-//W3C//DTD SVG 1.1//EN" "http://www.w3.org/Graphics/SVG/1.1/DTD/svg11.dtd">
<svg version="1.1" id="圖層_1" xmlns="http://www.w3.org/2000/svg" xmlns:xlink="http://www.w3.org/1999/xlink" x="0px" y="0px"
	 width="372px" height="587px" viewBox="0 0 372 587" enable-background="new 0 0 372 587" xml:space="preserve">
<g>
	<g>
		<g>
			<path fill="#333333" d="M63.43,39.056l-1.316-3.288l-3.947-1.317c-2.629,0-3.946,1.317-3.946,4.604
				c0,3.288,1.317,5.26,3.946,5.26l3.947-1.316L63.43,39.056z"/>
		</g>
	</g>
	<g>
		<g>
			<path fill="#333333" d="M44.356,33.134c0-3.288-1.314-5.26-4.603-5.26c-1.316,0-1.975,1.317-3.288,1.972l-1.976,3.288
				c0,2.634,1.976,4.604,5.263,4.604C43.042,37.739,44.356,35.768,44.356,33.134z"/>
		</g>
	</g>
	<g>
		<g>
			<path fill="#333333" d="M46.989,85.09c0-3.288-1.975-4.604-4.604-4.604c-3.289,0-4.605,1.317-4.605,4.604
				c0,3.289,1.316,4.599,4.605,4.599C45.014,89.689,46.989,88.379,46.989,85.09z"/>
		</g>
	</g>
	<g>
		<g>
			<path fill="#333333" d="M92.366,50.893c0-3.289-1.317-5.26-4.605-5.26c-3.288,0-5.26,1.972-5.26,5.26s1.972,4.604,5.26,4.604
				C91.049,55.497,92.366,54.18,92.366,50.893z"/>
		</g>
	</g>
	<g>
		<g>
			<path fill="#333333" d="M127.22,29.846c0-2.633-1.314-3.943-3.946-3.943c-3.289,0-5.26,1.31-5.26,3.943
				c0,3.288,1.972,5.267,5.26,5.267C125.906,35.113,127.22,33.134,127.22,29.846z"/>
		</g>
	</g>
	<g>
		<g>
			<path fill="#333333" d="M96.967,28.536l-1.313-3.289l-3.288-1.978c-3.289,0-4.605,1.978-4.605,5.267s1.316,4.598,4.605,4.598
				l3.288-0.655L96.967,28.536z"/>
		</g>
	</g>
	<g>
		<g>
			<path fill="#333333" d="M128.537,52.208c0-3.288-1.317-4.604-4.605-4.604s-5.26,1.316-5.26,4.604c0,3.289,1.972,4.599,5.26,4.599
				S128.537,55.497,128.537,52.208z"/>
		</g>
	</g>
	<g>
		<g>
			<path fill="#333333" d="M65.401,60.095c0-2.627-1.316-4.599-4.604-4.599s-5.26,1.972-5.26,4.599l1.972,3.95l3.288,1.317
				l3.288-1.317L65.401,60.095z"/>
		</g>
	</g>
	<g>
		<g>
			<path fill="#333333" d="M40.413,65.362c0-3.289-1.975-4.605-4.605-4.605c-1.317,0-1.972,0.662-3.288,1.317l-1.316,3.289
				c0,3.288,1.316,5.259,4.604,5.259C38.438,70.621,40.413,68.649,40.413,65.362z"/>
		</g>
	</g>
	<g>
		<g>
			<path fill="#333333" d="M76.583,22.614c0-3.288-1.976-5.266-4.605-5.266c-1.317,0-1.972,0.662-3.289,1.978l-1.316,3.288
				c0,2.633,1.316,3.944,4.605,3.944C74.608,26.558,76.583,25.248,76.583,22.614z"/>
		</g>
	</g>
	<g>
		<g>
			<path fill="#333333" d="M43.042,117.317l-1.975-3.288l-3.288-1.978c-1.313,0-2.63,1.316-3.289,1.978l-1.313,3.288
				c0,2.627,1.313,4.599,4.602,4.599C41.067,121.916,43.042,119.945,43.042,117.317z"/>
		</g>
	</g>
	<g>
		<g>
			<path fill="#333333" d="M63.43,106.792l-1.316-3.289l-3.947-1.972c-2.629,0-3.946,1.972-3.946,5.261
				c0,2.626,1.317,4.605,3.946,4.605C61.455,111.397,63.43,109.418,63.43,106.792z"/>
		</g>
	</g>
	<g>
		<g>
			<path fill="#333333" d="M39.096,159.403c0-2.626-1.316-4.605-4.605-4.605c-3.288,0-5.259,1.979-5.259,4.605l1.972,3.949
				l3.288,1.31l3.289-1.31L39.096,159.403z"/>
		</g>
	</g>
	<g>
		<g>
			<path fill="#333333" d="M48.96,139.674l-1.316-3.289l-3.287-1.316c-3.289,0-4.603,1.316-4.603,4.605
				c0,3.288,1.313,4.605,4.603,4.605C47.644,144.279,48.96,142.962,48.96,139.674z"/>
		</g>
	</g>
	<g>
		<g>
			<path fill="#333333" d="M48.96,195.574c0-3.289-1.316-5.26-4.604-5.26c-3.289,0-4.603,1.971-4.603,5.26
				c0,2.626,1.313,3.95,4.603,3.95C47.644,199.524,48.96,198.2,48.96,195.574z"/>
		</g>
	</g>
	<g>
		<g>
			<path fill="#333333" d="M39.096,241.607l-1.316-3.287l-3.289-1.971c-1.313,0-2.629,1.31-3.288,1.971
				c-1.314,0.661-1.972,1.971-1.972,3.287l1.972,3.289l3.288,1.317l3.289-1.317L39.096,241.607z"/>
		</g>
	</g>
	<g>
		<g>
			<path fill="#333333" d="M36.466,182.42c0-3.288-1.976-4.604-5.263-4.604c-0.655,0-1.972,0.655-3.288,1.316
				c-0.655,1.317-1.314,1.972-1.314,3.288l1.314,3.951l3.288,1.31C34.491,187.681,36.466,185.708,36.466,182.42z"/>
		</g>
	</g>
	<g>
		<g>
			<path fill="#333333" d="M41.726,216.619l-1.313-3.288l-3.289-1.316c-3.289,0-5.263,1.316-5.263,4.604
				c0,3.289,1.974,5.261,5.263,5.261S41.726,219.908,41.726,216.619z"/>
		</g>
	</g>
	<g>
		<g>
			<path fill="#333333" d="M61.455,246.869c0-3.289-1.313-5.261-4.601-5.261c-3.289,0-5.263,1.973-5.263,5.261
				c0,2.633,1.974,4.604,5.263,4.604C60.142,251.473,61.455,249.501,61.455,246.869z"/>
		</g>
	</g>
	<g>
		<g>
			<path fill="#333333" d="M56.195,171.239l-1.316-3.289l-3.288-1.31c-3.288,0-4.602,1.31-4.602,4.599
				c0,3.289,1.314,5.267,4.602,5.267l3.288-1.321L56.195,171.239z"/>
		</g>
	</g>
	<g>
		<g>
			<path fill="#333333" d="M45.014,268.577l-0.657-3.289l-3.944-1.325c-2.633,0-4.605,1.325-4.605,4.613
				c0,2.626,1.972,4.597,4.605,4.597C43.701,273.174,45.014,271.203,45.014,268.577z"/>
		</g>
	</g>
	<g>
		<g>
			<path fill="#333333" d="M39.096,342.882c0-3.289-1.316-5.253-4.605-5.253c-3.288,0-5.259,1.964-5.259,5.253l1.972,3.288
				l3.288,1.324l3.289-1.324L39.096,342.882z"/>
		</g>
	</g>
	<g>
		<g>
			<path fill="#333333" d="M48.96,360.646c0-3.289-1.316-4.61-4.604-4.61c-3.289,0-4.603,1.321-4.603,4.61
				c0,3.287,1.313,5.254,4.603,5.254C47.644,365.898,48.96,363.934,48.96,360.646z"/>
		</g>
	</g>
	<g>
		<g>
			<path fill="#333333" d="M39.754,381.686c0-3.289-1.975-5.261-4.604-5.261c-1.314,0-1.972,0.663-3.288,1.972l-1.313,3.289
				c0,2.635,1.313,4.604,4.601,4.604C37.779,386.289,39.754,384.318,39.754,381.686z"/>
		</g>
	</g>
	<g>
		<g>
			<path fill="#333333" d="M266.641,19.981c-0.658,0-1.975,0.655-3.287,1.317c-0.66,1.316-1.316,1.971-1.316,3.288l1.316,3.95
				l3.287,1.31c3.289,0,5.262-1.972,5.262-5.26C271.9,21.298,269.93,19.981,266.641,19.981z"/>
		</g>
	</g>
	<g>
		<g>
			<path fill="#333333" d="M254.801,28.536l-1.97-3.289l-3.289-1.978c-3.288,0-4.604,1.978-4.604,5.267s1.316,4.598,4.604,4.598
				l3.289-0.655L254.801,28.536z"/>
		</g>
	</g>
	<g>
		<g>
			<path fill="#333333" d="M235.072,22.614c0-3.288-1.973-4.604-4.602-4.604c-1.316,0-1.976,0.661-3.289,1.316l-1.316,3.288
				l1.316,3.944c1.313,1.316,1.973,1.316,3.289,1.316C233.1,27.874,235.072,25.903,235.072,22.614z"/>
		</g>
	</g>
	<g>
		<g>
			<path fill="#333333" d="M267.955,44.978c0-3.289-1.973-5.267-5.262-5.267c-3.287,0-4.604,1.978-4.604,5.267
				c0,2.626,1.315,4.598,4.604,4.598S267.955,47.604,267.955,44.978z"/>
		</g>
	</g>
	<g>
		<g>
			<path fill="#333333" d="M337.006,26.558c0-3.289-1.971-4.599-5.259-4.599c-3.289,0-4.604,1.311-4.604,4.599l1.315,3.288
				c1.317,1.317,2.631,1.317,3.289,1.317l3.945-1.317L337.006,26.558z"/>
		</g>
	</g>
	<g>
		<g>
			<path fill="#333333" d="M350.16,46.288c0-3.289-1.972-5.261-5.26-5.261s-4.605,1.972-4.605,5.261
				c0,2.633,1.317,4.605,4.605,4.605S350.16,48.92,350.16,46.288z"/>
		</g>
	</g>
	<g>
		<g>
			<path fill="#333333" d="M332.405,54.841c0-2.633-1.316-4.61-4.605-4.61c-3.287,0-5.259,1.977-5.259,4.61l1.972,3.944
				c0.658,0.655,1.977,0.655,3.287,0.655C331.089,59.44,332.405,58.13,332.405,54.841z"/>
		</g>
	</g>
	<g>
		<g>
			<path fill="#333333" d="M348.188,231.744c0-2.628-1.316-3.95-3.945-3.95c-3.288,0-5.261,1.322-5.261,3.95
				c0,3.288,1.973,5.259,5.261,5.259C346.871,237.003,348.188,235.032,348.188,231.744z"/>
		</g>
	</g>
	<g>
		<g>
			<path fill="#333333" d="M331.747,244.235c0-3.288-1.972-5.253-5.259-5.253c-2.635,0-4.606,1.965-4.606,5.253
				c0,3.289,1.974,4.612,4.606,4.612c1.312,0,2.628-0.663,3.941-1.323L331.747,244.235z"/>
		</g>
	</g>
	<g>
		<g>
			<path fill="#333333" d="M346.871,265.289c0-3.289-1.971-4.613-5.259-4.613c-2.631,0-3.946,1.325-3.946,4.613
				s1.315,5.252,3.946,5.252C344.9,270.541,346.871,268.577,346.871,265.289z"/>
		</g>
	</g>
	<g>
		<g>
			<path fill="#333333" d="M349.505,212.015c0-3.289-1.315-4.604-4.604-4.604s-4.605,1.315-4.605,4.604s1.317,5.259,4.605,5.259
				S349.505,215.304,349.505,212.015z"/>
		</g>
	</g>
	<g>
		<g>
			<path fill="#333333" d="M348.188,374.454l-1.316-3.289c-1.313-1.315-2.629-1.315-3.942-1.315c-1.315,0-1.975,0-3.289,1.315
				l-1.315,3.289c0,2.634,1.315,4.598,4.604,4.598C346.216,379.052,348.188,377.088,348.188,374.454z"/>
		</g>
	</g>
	<g>
		<g>
			<path fill="#333333" d="M340.954,391.55l-1.973-3.286l-3.289-1.975c-1.314,0-1.974,0.664-3.287,1.975l-1.316,3.286l1.316,3.942
				c1.313,0.662,1.973,1.322,3.287,1.322c1.313,0,2.631-0.66,3.289-1.322L340.954,391.55z"/>
		</g>
	</g>
	<g>
		<g>
			<path fill="#333333" d="M349.505,407.991c0-3.288-1.315-4.599-4.604-4.599s-4.605,1.311-4.605,4.599
				c0,2.634,1.317,4.604,4.605,4.604S349.505,410.625,349.505,407.991z"/>
		</g>
	</g>
	<g>
		<g>
			<path fill="#333333" d="M342.271,426.41c0-3.289-1.316-5.268-4.604-5.268s-5.261,1.979-5.261,5.268
				c0,2.627,1.973,3.942,5.261,3.942S342.271,429.037,342.271,426.41z"/>
		</g>
	</g>
	<g>
		<g>
			<path fill="#333333" d="M348.188,492.174c0-3.288-1.316-4.609-3.945-4.609c-1.973,0-2.63,0-3.288,1.321
				c-1.314,0.655-1.973,1.965-1.973,3.288c0,3.289,1.973,4.601,5.261,4.601C346.871,496.773,348.188,495.463,348.188,492.174z"/>
		</g>
	</g>
	<g>
		<g>
			<path fill="#333333" d="M329.775,500.061c0-2.632-1.317-4.598-4.604-4.598c-3.289,0-5.261,1.966-5.261,4.598
				c0,3.289,1.972,5.269,5.261,5.269C328.458,505.328,329.775,503.35,329.775,500.061z"/>
		</g>
	</g>
	<g>
		<g>
			<path fill="#333333" d="M345.559,515.192c0-2.634-1.315-4.611-4.604-4.611c-2.631,0-4.604,1.979-4.604,4.611
				c0,3.287,1.974,5.253,4.604,5.253C344.242,520.445,345.559,518.479,345.559,515.192z"/>
		</g>
	</g>
	<g>
		<g>
			<path fill="#333333" d="M87.761,69.304c0-3.288-1.971-5.259-4.602-5.259c-1.317,0-1.975,1.317-3.288,1.972l-1.975,3.288
				l1.975,3.289c1.313,1.317,1.971,1.317,3.288,1.317C85.79,73.91,87.761,72.593,87.761,69.304z"/>
		</g>
	</g>
	<g>
		<g>
			<path fill="#333333" d="M116.696,75.226l-1.313-3.288c-1.316-0.655-1.975-1.317-3.288-1.317c-1.317,0-2.631,0.662-3.288,1.317
				c-1.317,1.31-1.975,1.972-1.975,3.288l1.975,3.944c0.657,1.316,1.971,1.316,3.288,1.316l3.288-1.316L116.696,75.226z"/>
		</g>
	</g>
	<g>
		<g>
			<path fill="#333333" d="M109.464,46.288l-1.315-3.289c-0.659-0.655-2.631-1.311-3.947-1.311c-0.658,0-1.972,0.655-3.288,1.311
				c-0.659,1.316-1.313,2.633-1.313,3.289l1.313,3.943c1.316,0.662,2.63,1.322,3.288,1.322l3.947-1.322L109.464,46.288z"/>
		</g>
	</g>
	<g>
		<g>
			<path fill="#333333" d="M158.13,26.558c0-3.289-1.317-4.599-4.605-4.599s-5.259,1.311-5.259,4.599s1.971,4.605,5.259,4.605
				S158.13,29.846,158.13,26.558z"/>
		</g>
	</g>
	<g>
		<g>
			<path fill="#333333" d="M147.607,42.344c0-3.288-1.316-4.604-4.605-4.604c-3.288,0-4.602,1.317-4.602,4.604
				c0,3.289,1.314,4.599,4.602,4.599C146.291,46.942,147.607,45.632,147.607,42.344z"/>
		</g>
	</g>
	<g>
		<g>
			<path d="M363.972,39.056c-1.313-0.655-2.631,0-3.289,1.971c-7.89,21.046-19.069,44.063-33.54,70.37l-20.385,32.227
				c-1.315,0.655-1.315,2.626,0.654,3.943l3.947-1.316l19.729-32.882c14.47-25.645,26.306-49.323,34.198-71.024
				C366.603,41.027,365.287,39.711,363.972,39.056z"/>
		</g>
	</g>
	<g>
		<g>
			<path fill="#858585" d="M321.224,154.143c-5.917-16.441-9.863-30.249-12.492-42.091c-3.289-15.125-2.632-38.142,1.97-69.053
				c1.976-15.125,4.605-29.594,7.234-42.747h-23.018c-6.576,35.516-9.864,64.455-9.864,88.127
				c-0.657,11.836,1.976,27.615,7.234,48.006c3.946,16.441,5.261,26.306,3.288,28.933c-2.629,5.267-13.813,15.131-33.54,27.629
				c-2.63-10.527-6.577-34.205-11.836-71.031l-7.234-57.209c0-3.951-1.972-7.239-4.604-8.556l-7.23-1.31
				c-1.316,0.655,0,23.018,4.602,68.392l9.205,80.233c-62.477,39.458-114.429,67.074-154.544,84.177l-7.232-5.26
				c-5.263-1.978-9.209-2.633-11.84-1.316l-14.465,7.893c-5.922,3.942-9.21,8.547-8.551,12.497
				c2.629,20.385,19.729,59.845,50.64,119.688c42.747,80.896,89.439,141.394,140.077,182.167l152.572-3.947L233.1,432.986
				c23.678-21.707,69.055-57.223,134.159-108.512v-24.34c-15.124,13.151-65.104,51.301-149.94,115.748
				c-38.146-41.43-64.451-74.313-78.917-99.308l98.646-71.018l55.241-39.458c15.784-10.527,25.646-19.73,28.936-25.651
				C324.513,174.527,324.513,165.979,321.224,154.143z"/>
		</g>
	</g>
	<g>
		<g>
			<path d="M52.907,311.979l-2.63-0.655c-0.658,0.655-1.317,1.965-0.658,2.627l14.466,21.046l30.91,41.43l58.53,66.429
				c71.027,78.255,111.141,124.288,121.004,138.104l1.977,0.655c1.313-0.655,1.973-1.316,1.313-2.634
				c-10.52-15.125-51.295-61.158-121.005-139.414L98.284,373.8l-30.911-40.782L52.907,311.979z"/>
		</g>
	</g>
	<g>
		<g>
			<path d="M102.23,423.121l-2.629,0.655c-0.658,1.311-0.658,1.311,0,2.634l47.349,47.346c32.883,32.882,53.271,55.244,62.476,67.08
				l48.665,58.527l3.289,0.661c0.657-0.661,0.657-1.973,0-3.289l-48.666-58.525c-9.206-11.188-30.253-34.205-63.134-67.087
				L102.23,423.121z"/>
		</g>
	</g>
	<g>
		<g>
			<path d="M61.455,286.328l-3.289-0.655c-0.658,1.31-0.658,1.971,0,2.632l23.676,32.22c19.072,23.02,36.171,40.776,51.953,53.93
				c13.154,11.175,36.171,36.171,68.395,76.284c-30.907-42.093-52.611-68.397-65.764-78.919
				c-15.784-13.152-32.882-31.563-51.953-54.582L61.455,286.328z"/>
			<path d="M315.965,590.16l-21.704-28.277c-28.937-38.148-55.241-69.709-78.918-95.357l75.63,97.327l22.361,29.596h2.631
				C317.278,592.787,317.278,591.477,315.965,590.16z"/>
		</g>
	</g>
	<g>
		<g>
			<path d="M252.171,479.022c-0.657,0-1.971,0-2.629,0c-1.317,1.311-1.317,1.966,0,3.286l37.487,42.087
				c25.646,29.595,42.087,49.321,49.32,59.849l2.632,0.655c1.313-0.655,1.973-1.315,0.657-2.635
				c-7.233-10.519-23.675-30.248-48.668-59.842L252.171,479.022z"/>
		</g>
	</g>
	<g>
		<g>
			<path d="M320.565-1.719l-2.631-1.317h-23.018c-1.972,0-2.63,1.317-3.288,2.634c-6.576,36.17-9.865,65.764-9.865,88.781
				l-0.658,0.655c0,11.843,2.635,28.939,7.894,49.979l4.606,21.707l-0.658,3.289c-1.977,3.941-11.842,11.836-29.594,23.672
				c-1.976-13.807-5.92-36.826-10.522-69.708l-6.577-53.266c0-4.612-1.973-7.9-4.604-10.527c-3.289-1.972-6.577-3.288-11.178-2.627
				l-1.977,1.31c-0.655,1.317-1.313,4.605-1.313,7.893c0,7.893,1.972,28.933,5.26,62.477c3.945,40.776,6.576,66.426,8.552,78.917
				c-61.162,37.487-111.145,65.102-149.945,81.544c-9.207-6.577-16.441-8.542-21.701-5.253l-5.918,3.288l-13.153,7.886
				c-3.946,3.945-5.92,7.894-5.263,12.498c0,5.26,5.263,17.75,13.153,38.804c11.182,26.961,23.676,53.921,37.487,80.883
				c43.405,82.206,90.753,143.371,141.393,184.142l1.972,0.66l152.573-3.948l3.289-1.311v-1.979l-0.658-1.966L238.361,432.986
				c24.332-21.707,67.737-56.563,130.214-105.885l1.973-2.627v-24.34l-2.631-3.287l-3.288,0.659L217.977,411.936
				c-35.517-38.799-61.164-70.363-74.975-94.697c33.541-23.018,65.766-46.034,96.018-69.053l36.828-26.304l31.564-22.356
				c7.895-6.577,13.812-12.498,16.441-17.104c1.977-3.288,3.288-7.893,3.288-13.152c0-5.259-1.972-15.125-6.576-27.622
				l-8.549-30.249c-1.316-6.577-1.972-14.47-1.972-23.018c0-24.334,3.943-53.928,11.178-86.81V0.252L320.565-1.719z M297.549,3.541
				h16.44c-7.231,37.486-10.521,65.108-10.521,84.838c0,9.865,0.655,17.096,1.973,24.328l9.206,31.573
				c3.947,12.498,5.918,21.039,5.918,24.988c0,3.949-1.313,7.238-2.631,9.864c-2.629,3.95-7.89,9.865-15.781,16.442l-29.595,21.045
				l-37.486,26.306c-28.937,21.701-61.817,45.379-98.646,71.024l-1.314,2.627v1.322c14.466,25.646,41.431,58.525,80.23,100.611
				h4.604c73-55.238,121.008-92.07,144.024-111.139v15.779l-58.529,45.381c-35.513,28.283-59.847,48.669-74.313,61.166l-1.317,2.628
				v0.66l0.66,1.965l153.886,161.784l-144.682,3.289c-49.981-40.775-96.016-100.619-138.105-180.854
				c-13.811-26.305-26.305-53.271-36.829-79.579c-8.548-21.04-13.152-34.192-13.152-38.136v-0.66c0-3.949,4.604-8.548,14.469-12.493
				l7.234-3.948l6.577,0.661c3.288,1.31,5.918,2.626,7.89,5.253h3.288c40.776-16.442,92.729-44.713,155.205-84.17l1.971-2.634
				v-0.654c-1.971-7.901-5.259-31.574-8.548-69.715c-3.288-39.458-5.917-63.793-5.917-74.312l0,0l3.287,0.655
				c1.973,1.316,2.63,2.633,2.63,5.921l7.235,57.871c5.259,36.17,9.206,59.849,11.836,70.368l1.316,2.635l3.289-0.662
				c21.041-13.154,32.223-23.018,35.511-28.277l1.317-6.577l-4.605-23.018c-5.26-22.362-7.893-38.803-7.893-48.668l0.657-0.655
				C288.342,67.333,291.63,39.056,297.549,3.541z"/>
		</g>
	</g>
	<g>
		<g>
			<path fill="#858585" d="M198.9,590.16c-38.798-19.067-84.833-49.985-140.734-90.755l-71.682-56.554l-6.576,11.828l71.683,55.9
				c55.899,41.437,101.934,72.34,140.734,91.416L198.9,590.16z"/>
		</g>
	</g>
	<g>
		<g>
			<path d="M200.219,587.533c-37.487-19.074-83.522-49.323-138.764-90.104l-73-57.21l-2.629-0.654l-1.972,1.966l-6.577,11.186
				c-1.315,1.966-1.315,3.289,0.659,4.601l72.996,56.555c55.9,41.436,101.935,71.686,139.421,90.76
				c2.629,1.312,3.287,1.312,4.604-1.316l6.576-11.835l0.655-1.979L200.219,587.533z M194.301,591.477l-3.945,5.922
				c-55.243-28.283-123.638-76.29-206.5-143.372l3.289-5.92l79.575,61.166C116.696,546.095,159.443,573.718,194.301,591.477z"/>
		</g>
	</g>
	<g>
		<g>
			<path fill="#FF0000" d="M81.185,100.215c-4.601,41.431-3.946,89.444,1.316,144.681c11.836,108.512,44.06,196.633,96.017,263.72
				l130.213-5.268c-55.242-64.447-90.1-151.259-105.882-260.425c-7.234-53.928-9.865-101.935-6.578-143.371L81.185,100.215z"/>
		</g>
	</g>
	<g>
		<g>
			<path d="M198.247,96.927l-1.976-0.662L80.526,96.927c-1.972,0-2.63,1.317-2.63,3.288c-4.602,42.748-3.946,91.409,1.975,145.999
				c11.836,109.822,44.06,197.292,96.013,264.368c0.659,1.323,1.976,1.323,2.634,1.323l130.213-5.268l3.286-1.31
				c0-1.323,0-2.634-0.657-3.289c-54.583-64.454-88.781-150.604-104.565-257.804c-7.893-53.921-10.521-101.934-7.234-144.02
				L198.247,96.927z M192.325,102.842l-0.655,28.284c0,57.21,5.919,112.455,18.413,166.382
				c18.413,82.205,49.323,150.599,92.07,203.208l-122.321,4.612c-37.485-48.669-64.449-109.174-80.89-182.831
				C87.761,271.203,81.185,217.274,81.185,160.72c0-21.707,1.316-40.775,2.63-57.216L192.325,102.842z"/>
		</g>
	</g>
	<g>
		<g>
			<path d="M143.661,139.013c-0.659-1.311-1.972-2.627-3.288-1.311l-24.989,3.288H102.23c-1.316-0.655-2.629,0-3.288,1.972
				c0,1.317,1.313,2.627,2.629,3.288h14.47c10.52,0,19.071-1.316,25.647-3.288L143.661,139.013z"/>
		</g>
	</g>
	<g>
		<g>
			<path d="M122.618,121.916c-1.976-0.655-2.633,0-2.633,1.979l-3.289,32.221c0,23.017,5.263,42.747,15.128,57.216l3.288,0.655
				c1.972-1.31,1.972-1.971,1.314-3.944c-9.865-13.807-14.467-32.227-14.467-55.244l2.63-30.249
				C125.248,123.233,123.931,121.916,122.618,121.916z"/>
		</g>
	</g>
	<g>
		<g>
			<path d="M140.373,156.115l-1.313-1.972c-1.975-0.655-2.633,0-3.288,1.31l-5.263,15.786c-5.918,2.635-10.523,5.921-15.125,9.21
				c-3.947,3.288-7.234,6.577-9.865,11.175c-3.288,3.95-4.604,7.238-4.604,10.526v2.626c0.658,1.979,2.63,3.951,5.918,3.951
				c8.551,0.661,17.758-9.865,26.963-33.542l22.36-1.311c5.263,3.287,8.55,6.576,9.864,10.519c0.658,5.267-1.971,11.182-7.89,19.074
				l-16.441,19.075l-1.975,2.626c-5.919,5.917-7.89,10.526-5.919,14.47c1.317,4.598,5.264,6.577,11.182,6.577l3.288-1.979
				c0-2.627-1.316-3.288-2.63-3.288c-3.946,0-6.576-1.31-7.235-3.287c-1.316-1.966,0.659-4.599,4.602-8.543l2.633-2.632
				l17.755-21.046c5.918-8.549,7.893-15.78,7.235-21.701c-0.659-5.922-4.605-10.521-12.495-14.47l-21.046-0.661l3.289-11.175
				V156.115z M118.671,184.392l8.549-5.26c-7.89,16.442-14.466,24.99-19.729,24.334l-1.313-0.654l-0.659-0.663
				C105.518,198.2,110.12,192.285,118.671,184.392z"/>
		</g>
	</g>
	<g>
		<g>
			<path d="M130.508,285.018l7.235-0.661c2.63-2.628,5.918-6.577,7.235-13.153l1.972-11.182v-0.656l0,0l7.234,1.973
				c5.26,3.288,7.235,7.239,7.235,13.153c-0.659,3.949-2.63,7.893-5.263,12.491c-3.289,3.949-6.577,6.577-10.521,7.898
				c-1.975,0-2.633,1.967-1.975,3.289c0.658,1.966,1.975,1.966,3.289,1.966c5.263-1.966,9.864-5.255,13.153-9.865
				c3.288-5.253,5.917-10.52,5.917-15.78c0.658-7.239-2.629-13.153-9.207-17.758l-19.07,0.654c-3.947,1.978-6.577,5.267-9.206,9.865
				c-1.976,3.951-3.289,7.9-2.631,11.188C126.561,281.729,127.877,284.356,130.508,285.018z M131.166,277.78l-0.658-0.663
				c0-2.626,1.317-5.253,3.288-7.887c1.317-3.289,3.947-5.267,6.577-7.23l1.316-0.662c-1.316,9.865-3.946,16.442-6.577,18.413
				l-2.629,0.655L131.166,277.78z"/>
		</g>
	</g>
	<g>
		<g>
			<path d="M153.525,311.322c-0.658-1.322-1.972-1.322-3.288-0.662l-1.971,1.973v1.316l11.836,29.595
				c-11.836,1.315-18.413,3.288-20.388,7.894l-1.314,2.633c0,3.287,1.972,5.914,5.26,7.231l12.495,3.287
				c5.263,0,8.55-1.315,10.522-3.942l1.317-4.61l-1.317-7.231l3.947,0.655c9.207,0,13.811,0.66,13.811,3.288v0.661
				c0,2.627-1.316,4.604-5.263,6.575c-1.313,0.662-2.63,1.317-2.63,3.289h0.658c0.658,1.972,1.316,2.627,2.631,1.972l7.233-3.942
				c2.629-2.635,3.289-5.923,2.629-9.865c-0.657-3.941-5.259-6.576-13.812-7.23l-10.519-0.661
				C163.39,334.34,159.443,323.813,153.525,311.322z M146.291,356.695l-2.63-2.627l0.658-0.66c0.659-1.973,6.577-3.289,17.1-3.949
				l1.313,6.576v1.32l-7.231,1.969L146.291,356.695z"/>
		</g>
	</g>
	<g>
		<g>
			<path d="M172.596,316.576c-1.313-1.965-1.971-2.627-3.288-1.965l-15.783,3.287c0,0-0.658,0-1.313,0.653l-0.659,1.974
				c0,1.315,1.313,2.625,2.63,2.625l17.099-3.287C173.255,319.21,173.255,317.898,172.596,316.576z"/>
		</g>
	</g>
	<g>
		<g>
			<path d="M161.418,382.341c-1.975-0.655-3.289,0-3.289,1.323c0,1.965,0,2.625,1.972,3.289l4.604,0.654l10.522-1.318
				l-10.522,20.393l-0.658,1.965l0.658,1.324l3.289,0.654c3.288-1.979,8.548-3.943,13.153-5.268l15.125-1.965l2.629,2.625
				l-1.313,5.916c-1.975,3.289-6.576,6.576-13.153,8.555l-15.782,3.288l-2.634,1.311v2.633l21.047,38.806
				c4.604,7.886,9.863,13.152,16.439,16.438l21.045,1.312c5.262-3.286,8.549-12.491,10.521-28.271l0.658-25.65
				c0-1.315-1.313-1.979-2.631-1.979c-1.971,0-3.287,0.662-3.287,1.979c0.658,10.521,0.658,19.73-0.658,28.939
				c-1.313,11.83-3.289,18.406-7.234,19.729l-16.441-0.662c-5.26-2.627-9.863-7.237-13.152-13.814l-19.729-36.171l17.1-3.943
				c5.919-2.633,9.863-5.92,12.494-9.207l1.976-7.232l-0.658-4.598c-0.657-2.635-3.288-3.951-5.918-4.612
				c-5.264-1.966-13.812-0.655-24.334,3.288l9.864-21.039v-0.655l-0.659-2.633c-1.313-0.654-2.628-0.654-3.287,0
				C173.255,382.341,167.995,383.664,161.418,382.341z"/>
		</g>
	</g>
	<g>
		<g>
			<path fill="#D96038" d="M360.683,308.689c0-7.894-5.259-13.81-14.467-17.098l-13.811-1.979c-0.658-3.942-1.976-7.23-4.605-11.174
				c-5.259-7.237-12.493-11.188-21.042-12.499c-8.551-0.653-15.785,3.289-21.703,11.838c-2.631,4.604-4.604,9.203-5.919,13.152
				l-11.181,1.317c-8.549,1.972-12.496,7.887-14.467,16.44c-1.317,8.547,1.971,15.123,9.865,21.037
				c4.602,3.289,8.547,4.612,12.494,5.924l61.817-0.655c3.946-1.316,7.893-3.289,11.839-5.921
				C358.053,323.813,361.341,316.576,360.683,308.689z"/>
		</g>
	</g>
	<g>
		<g>
			<path d="M286.371,271.203c-3.947,3.949-7.234,9.865-9.865,16.44c-5.263,0-10.523,1.317-15.127,3.949
				c-5.92,3.288-9.865,9.204-11.179,16.441c-0.658,8.542,1.971,15.779,7.89,21.693c4.604,3.95,10.523,7.239,17.1,9.211l62.478-0.654
				l0.657-0.655l13.151-6.575c8.55-5.268,12.496-12.501,12.496-21.054v-1.966c0-7.237-3.946-12.497-10.522-16.441
				c-5.26-3.289-11.178-4.61-18.413-5.265c-5.26-14.464-14.47-22.364-27.623-23.674C298.864,262,292.288,264.626,286.371,271.203z
				 M306.1,269.23c7.891,1.31,14.467,4.599,19.071,11.175l4.604,9.865c0.654,1.322,1.972,2.631,3.289,2.631l11.836,1.979
				c7.893,2.627,12.493,7.231,12.493,13.81V310c0,9.863-6.575,17.104-20.389,21.706l-60.5,0.657
				c-13.151-3.945-19.729-10.521-19.729-20.387v-2.633c1.313-7.232,5.261-11.837,11.838-13.808l10.521-1.315
				c1.971,0,3.288-0.663,3.288-2.629c0.658-3.949,3.289-7.899,5.261-11.842C292.288,271.864,298.864,268.577,306.1,269.23z"/>
		</g>
	</g>
	<g>
		<g>
			<path fill="#FFE700" d="M335.035,313.949c-5.919-11.182-15.125-16.441-26.963-16.441s-20.389,5.914-25.648,16.441
				c-3.288,4.604-4.604,9.863-5.26,15.777c10.52,5.269,24.331,7.24,41.432,5.269l23.018-4.604
				C340.295,324.477,338.323,319.863,335.035,313.949z"/>
		</g>
	</g>
	<g>
		<g>
			<path fill="#D96038" d="M309.388,338.284c0-3.944-0.656-7.894-3.945-11.183c-3.288-3.951-7.894-5.914-13.153-6.576
				c-5.917-0.662-9.864,0-13.811,2.625c-4.604,1.979-6.576,5.925-7.234,10.527c-0.654,3.95,0.658,7.893,3.945,11.182
				c3.289,3.943,7.234,5.921,13.152,6.576c5.264,0.654,9.865-0.656,13.813-2.633C306.758,346.17,308.73,342.882,309.388,338.284z"/>
		</g>
	</g>
	<g>
		<g>
			<path d="M305.441,350.119c3.945-2.625,6.575-6.575,7.233-11.182v-1.971c0-3.951-1.315-7.24-3.944-10.527
				c-3.289-5.252-9.208-8.541-16.442-9.203c-6.575-0.66-13.151,0-17.758,4.604c-3.941,2.634-5.917,5.923-6.575,11.175
				c-1.314,4.612,0.658,9.865,4.604,13.815c3.947,4.604,9.207,6.575,15.125,7.894C294.918,356.035,300.838,354.068,305.441,350.119z
				 M288.999,348.148c-4.604-0.654-7.894-1.979-11.181-4.604c-2.629-3.288-3.943-6.576-3.289-9.864c0-2.625,1.318-5.262,3.949-6.576
				c3.285-3.289,7.233-3.951,13.15-3.289c5.919,0.662,9.865,3.289,12.495,6.578c1.316,2.625,1.975,4.604,1.975,7.893
				c-0.657,2.632-1.315,5.26-3.945,6.576C298.864,347.494,294.261,348.805,288.999,348.148z"/>
		</g>
	</g>
	<g>
		<g>
			<path fill="#D96038" d="M348.188,334.34c-0.658-3.947-2.63-7.236-6.575-10.525c-4.606-2.625-9.207-3.289-14.471-2.625
				c-5.261,0-9.863,2.625-13.152,5.914s-5.259,7.236-4.603,11.182c0,4.598,2.63,8.548,6.577,10.52
				c4.602,2.633,9.206,3.943,14.466,3.287c5.263-0.654,9.864-2.632,13.152-5.921C346.871,342.882,348.188,338.284,348.188,334.34z"
				/>
		</g>
	</g>
	<g>
		<g>
			<path d="M345.559,348.148c4.603-4.604,5.917-8.557,5.917-14.471c-0.656-3.951-2.629-7.893-6.574-10.527
				c-5.262-4.599-11.182-5.914-17.759-5.252c-6.576,0.653-11.836,2.627-15.782,7.23c-3.947,3.945-5.918,8.549-5.261,13.809
				c0,4.605,2.632,9.211,7.891,12.498c4.605,3.289,10.522,4.6,17.1,3.942C337.006,354.727,341.612,352.747,345.559,348.148z
				 M344.9,334.995v1.312c0,2.633-1.317,5.266-3.946,7.898c-3.288,2.627-6.576,3.943-10.523,4.6l-11.835-1.973
				c-3.289-2.627-5.92-5.262-5.92-8.548c-0.658-3.944,1.313-6.578,3.947-9.209c2.629-2.636,6.576-4.601,11.177-5.263
				c4.605,0,9.206,0.662,13.154,3.951C343.583,330.393,344.9,332.363,344.9,334.995z"/>
		</g>
	</g>
	<g>
		<g>
			<path d="M298.207,290.932c0-1.317-1.313-1.971-2.631-1.317c-1.315,0.657-1.315,1.317-1.315,2.635l5.922,21.7
				c0.655,0.661,1.313,1.315,2.629,0.661c1.313,0,1.973-0.661,1.313-2.633L298.207,290.932z"/>
		</g>
	</g>
	<g>
		<g>
			<path fill="#DA8E55" d="M313.989,314.611l6.576-21.709l-2.631,5.924C315.965,304.084,314.647,309.346,313.989,314.611z"/>
		</g>
	</g>
	<g>
		<g>
			<path d="M321.224,290.932c-1.313,0-2.628,0-2.628,0.661l-2.631,7.233l-3.947,15.123c0,1.316,0,2.627,1.973,2.627l1.316-1.965
				l3.945-14.477l2.63-5.914C322.541,292.249,322.541,291.593,321.224,290.932z"/>
		</g>
	</g>
	<g>
		<g>
			<path d="M336.351,298.17c-1.314-0.662-1.973-0.662-2.631,0l-5.262,7.23l-2.628,5.922c-0.659,0.654,0,1.965,1.313,2.627
				l1.975-0.662c3.289-5.915,5.919-9.865,7.233-12.49V298.17z"/>
		</g>
	</g>
	<g>
		<g>
			<path d="M281.766,299.48c-0.658-1.312-1.972-1.312-2.629,0c-0.658,1.315-0.658,1.977,0,2.631
				c5.918,5.261,9.862,9.211,10.522,11.838l2.629,0.662c1.317,0,1.974-0.662,0.659-2.635l-5.264-7.23L281.766,299.48z"/>
		</g>
	</g>
	<g>
		<g>
			<path fill="#D96038" d="M309.388,206.101l13.153-3.951c9.206-3.288,14.465-9.865,15.125-17.758
				c0.657-7.887-2.631-13.807-10.523-19.074l-13.152-4.599l-2.63-11.843c-3.947-7.887-9.864-13.808-19.071-15.78
				c-7.893-2.627-16.439,0-23.018,7.238l-7.893,11.83l-11.837-1.31c-7.894,1.31-13.812,5.26-17.101,13.807
				c-2.629,7.894-0.657,15.787,5.92,22.364c3.945,3.943,7.234,6.575,11.181,8.548L309.388,206.101z"/>
		</g>
	</g>
	<g>
		<g>
			<path d="M317.278,158.087c-2.631-15.125-10.521-24.328-24.331-28.277c-7.234-1.972-14.469-1.317-21.047,3.949
				c-5.26,3.943-9.207,9.204-12.494,15.118l-16.44,0.661c-6.577,1.972-10.522,6.577-13.153,14.471
				c-3.287,7.23-1.972,15.123,3.287,21.699c3.289,5.916,8.551,9.866,15.125,12.492l0.659,0.662l60.504,10.525h0.658
				c4.603,0,9.206-1.323,15.125-3.949c9.864-3.951,15.124-11.181,15.783-20.391l0.658-2.627c0-6.575-3.289-11.835-9.207-16.44
				C328.458,162.03,323.199,159.403,317.278,158.087z M291.63,136.385c7.234,1.317,13.153,6.577,16.442,13.153l2.628,11.182
				c0,1.971,1.316,3.289,2.634,3.289c2.631,0,5.918,1.31,11.179,3.288c6.576,3.942,9.865,8.548,9.865,15.123v1.317
				c-0.658,6.577-5.262,11.836-12.496,15.125l-11.836,3.951L250.2,192.285c-10.523-6.577-15.782-13.153-15.782-20.39l1.313-5.916
				c2.631-6.576,7.235-10.526,13.813-11.836l10.523,1.31c1.971,0.662,2.627,0,3.945-1.965l7.891-10.526
				C277.818,136.385,284.396,134.414,291.63,136.385z"/>
		</g>
	</g>
	<g>
		<g>
			<path fill="#FFE700" d="M291.63,202.813c7.894,0.654,15.782,0.654,23.019-0.663c0-5.261-0.658-11.181-2.631-17.103
				c-4.604-12.491-12.494-19.068-23.676-21.039c-11.836-1.979-21.042,1.971-28.936,10.519l-7.235,14.469
				C261.379,196.889,274.529,202.15,291.63,202.813z"/>
		</g>
	</g>
	<g>
		<g>
			<path fill="#D96038" d="M281.766,204.776c1.316-4.598,0.658-8.54-1.972-12.491c-2.63-3.949-6.577-7.237-11.181-8.547
				c-5.26-1.978-9.865-1.978-15.125,0c-3.946,1.31-7.234,4.598-8.553,8.547c-1.971,3.951-1.313,7.893,1.977,12.491
				c2.63,3.951,6.576,6.577,11.836,7.9l13.811,0.655C277.164,212.015,279.794,208.727,281.766,204.776z"/>
		</g>
	</g>
	<g>
		<g>
			<path d="M285.713,200.178l-1.973-7.893c-3.289-5.914-7.893-9.865-14.469-11.835l-19.071,0.655
				c-3.946,2.633-7.234,5.922-8.552,10.52c-1.973,3.95-1.313,8.554,1.316,13.152c3.288,5.267,7.234,9.21,14.469,11.188l18.414-0.661
				c4.604-2.627,7.233-5.917,9.205-9.865L285.713,200.178z M278.479,203.466c-0.658,1.972-2.631,4.598-5.92,5.921l-13.151,0.655
				c-4.605-1.316-7.894-4.604-10.522-8.555c-1.972-2.626-1.972-5.914-0.658-8.541c0.658-1.978,1.976-3.951,5.264-5.921l13.152-0.655
				c5.918,1.965,9.207,5.253,11.178,9.203C279.136,198.2,279.136,200.178,278.479,203.466z"/>
		</g>
	</g>
	<g>
		<g>
			<path fill="#D96038" d="M320.565,208.064c0-4.598-1.313-8.541-5.26-11.829c-3.289-3.289-7.233-5.267-13.152-5.922
				c-5.261,0-9.865,1.31-13.813,3.287c-3.946,3.289-5.918,6.577-6.577,11.175c0,3.951,0.659,7.239,4.606,11.188
				c3.288,3.289,7.89,5.253,13.151,5.916c5.919,0,9.864-0.663,14.467-3.289C317.936,215.304,319.91,212.015,320.565,208.064z"/>
		</g>
	</g>
	<g>
		<g>
			<path d="M302.153,187.026c-5.919-0.655-11.183,1.31-16.44,4.598c-3.947,3.287-6.576,7.238-7.234,12.498
				c0,5.265,1.315,9.864,5.918,13.808c3.945,3.951,8.552,6.577,15.127,7.237c5.919,0,11.837-1.315,15.783-4.604
				c5.26-3.288,7.894-7.886,8.549-12.498c0-5.252-1.974-9.865-5.92-13.807C313.989,189.659,308.73,187.681,302.153,187.026z
				 M290.316,196.236c3.289-1.979,7.231-2.635,11.837-2.635c3.945,0.657,7.233,1.973,10.521,4.599
				c2.631,1.978,4.604,5.267,4.604,8.555v0.657c-0.655,3.941-1.973,5.92-5.919,7.893c-3.287,2.626-7.234,3.288-11.837,3.288
				c-3.946-0.662-7.234-1.973-10.523-5.261c-3.286-1.979-3.944-5.267-3.944-8.555C285.713,201.488,287.029,198.862,290.316,196.236z
				"/>
		</g>
	</g>
	<g>
		<g>
			<path d="M279.136,156.115c0-1.972-0.657-1.972-1.972-1.972c-1.316,0-1.316,0-1.316,1.972l1.973,21.7
				c0,1.979,0.658,2.634,1.315,1.979l1.972-1.979L279.136,156.115z"/>
		</g>
	</g>
	<g>
		<g>
			<path d="M302.153,160.065l-3.289,0.655l-3.288,5.26l-6.577,15.125c-0.657,1.316,0,1.978,0.66,2.633c1.313,0,2.629,0,2.629-1.317
				l6.576-14.47l3.289-5.259C303.47,161.375,302.813,160.72,302.153,160.065z"/>
		</g>
	</g>
	<g>
		<g>
			<path d="M315.307,169.929c-0.658-1.322-1.316-1.979-2.631-0.661c-2.63,1.971-6.576,5.917-9.864,11.182
				c-0.657,1.31-0.657,1.971,0,3.288l3.288-0.655c4.602-5.922,7.234-9.208,9.207-10.526
				C315.965,171.895,315.965,170.585,315.307,169.929z"/>
		</g>
	</g>
	<g>
		<g>
			<path d="M262.036,160.72h-3.288c-0.658,0.655-0.658,1.971,0,3.289c4.605,5.92,7.234,9.865,7.893,12.497
				c0.659,1.31,1.974,1.31,2.631,1.31l1.973-1.971l-5.262-8.548L262.036,160.72z"/>
		</g>
	</g>
	<g>
		<g>
			<path fill="#D96038" d="M68.689,456.659c-8.547,0-15.125,4.598-19.729,14.464c-1.971,4.61-3.946,8.555-3.946,13.151
				c-3.946,0-7.89,1.322-11.836,2.634c-7.235,3.287-11.84,9.21-11.84,17.758c-0.655,8.549,3.289,15.124,11.84,20.391
				c4.602,1.966,8.548,3.288,13.153,3.943l61.16-7.231l11.181-7.898c7.235-6.576,9.866-13.153,8.549-21.695
				c-1.314-7.898-6.577-12.496-16.441-14.475l-13.153-1.312l-6.577-9.863C85.131,459.293,77.896,456.004,68.689,456.659z"/>
		</g>
	</g>
	<g>
		<g>
			<path d="M49.619,463.235c-3.946,5.26-6.576,11.175-7.893,17.753c-5.918,1.32-10.522,3.286-15.125,5.92
				c-5.263,3.941-8.551,10.521-8.551,17.758v1.317c0,7.886,3.288,14.462,9.865,19.072c5.263,3.943,11.181,6.576,17.757,7.231h1.316
				l60.501-7.231l1.317-0.661c4.601-1.972,8.548-4.604,12.494-8.55c7.893-7.229,10.523-15.13,9.207-23.672
				c-1.314-7.898-5.26-13.15-12.495-15.785c-5.918-1.979-11.181-3.288-18.413-3.288c-7.235-13.808-17.1-20.386-30.911-19.729
				C60.797,453.37,54.22,456.659,49.619,463.235z M51.591,472.445c4.604-7.899,9.864-12.498,17.757-12.498
				c7.235-0.654,13.811,2.633,19.071,8.548l5.918,9.204c0.658,1.323,1.975,1.979,3.288,1.979l13.153,1.312
				c7.893,1.32,12.495,5.265,13.153,11.841v3.289c0,5.921-1.972,10.52-7.89,15.786c-3.946,3.288-7.234,5.252-9.865,6.575
				l-59.846,7.231c-4.605-0.655-8.551-1.979-11.84-3.943c-6.576-3.948-9.864-9.209-9.864-15.784v-0.655
				c0-7.899,3.289-12.499,9.864-15.133c3.289-1.311,6.577-2.632,9.866-2.632c2.632,0,3.287-0.655,3.287-2.627
				C48.303,480.988,49.619,476.389,51.591,472.445z"/>
		</g>
	</g>
	<g>
		<g>
			<path fill="#FFE700" d="M46.989,522.424l41.431,1.311c8.547-1.966,15.782-4.6,22.359-7.232
				c-1.971-5.92-4.602-11.173-8.548-15.785c-7.235-9.865-16.44-15.118-28.28-13.151c-11.178,1.321-19.729,7.898-23.673,19.073
				C47.644,511.904,46.989,517.156,46.989,522.424z"/>
		</g>
	</g>
	<g>
		<g>
			<path fill="#D96038" d="M79.871,528.345c0-4.61-1.975-8.555-5.263-11.188c-3.946-3.287-8.548-4.598-13.811-5.252
				c-5.918,0-9.865,1.311-13.808,4.597c-3.946,2.634-5.921,6.577-5.921,10.521c0,4.611,1.975,8.557,5.263,11.188
				c3.946,3.288,8.548,4.599,13.812,5.254c5.259,0,9.864-1.311,13.808-4.599C77.896,536.232,79.871,532.288,79.871,528.345z"/>
		</g>
	</g>
	<g>
		<g>
			<path d="M83.159,528.345L83.159,528.345c0-4.61-1.975-8.555-5.263-12.499c-3.946-4.604-9.864-7.229-17.099-7.229
				c-6.577,0-12.494,2.626-17.754,6.576c-3.289,3.941-5.263,7.886-5.263,11.828c0,4.611,1.316,8.557,5.263,12.498
				c3.946,3.944,9.865,6.575,17.1,7.23c7.231,0,13.152-1.965,17.754-6.575C81.185,536.888,82.501,532.943,83.159,528.345z
				 M76.583,528.345l-3.289,7.232c-3.288,2.633-7.234,4.598-13.152,4.598c-5.263-0.655-9.865-1.965-12.499-5.253
				c-2.63-2.634-3.287-4.612-3.287-7.899c0-1.966,0.657-4.599,3.287-7.231c3.947-2.634,7.894-4.598,13.153-4.598
				c5.263,0,9.209,1.964,12.498,5.253C75.925,523.078,76.583,525.712,76.583,528.345z"/>
		</g>
	</g>
	<g>
		<g>
			<path fill="#D96038" d="M117.355,519.79c-0.659-4.598-3.288-7.23-7.235-9.864l-14.466-1.31
				c-5.263,0.654-9.864,3.288-13.153,7.229c-2.63,3.944-3.288,7.889-2.63,12.499c1.313,3.943,3.943,6.577,7.89,9.203l14.469,1.317
				c5.26-0.655,9.207-3.288,11.837-7.232C117.355,528.345,118.671,523.733,117.355,519.79z"/>
		</g>
	</g>
	<g>
		<g>
			<path d="M120.643,519.135c-0.658-5.266-3.946-9.209-9.206-11.842c-4.604-2.627-10.522-3.288-17.099-1.965
				c-6.577,1.31-11.836,4.598-15.125,10.518c-2.629,3.944-3.288,9.211-2.629,13.154c1.313,4.599,4.601,9.21,9.206,11.175
				l17.099,1.979c5.918-1.317,11.178-3.943,14.466-8.556C120.643,529,121.959,523.733,120.643,519.135z M114.067,520.445
				l0.658,1.979c0,2.633-1.316,5.921-3.946,7.886l-9.864,5.269l-11.837-0.655c-3.288-1.979-5.263-4.612-6.576-7.9
				c0-1.965,0-5.253,1.972-7.887c2.629-3.941,6.576-6.575,11.181-7.229l11.836,0.654
				C111.437,514.531,113.408,517.156,114.067,520.445z"/>
		</g>
	</g>
	<g>
		<g>
			<path d="M63.43,482.31c-0.658-1.32-1.975-1.32-2.633-1.32c-1.313,0.66-1.313,1.32-1.313,2.631l8.548,20.386
				c0,1.323,1.316,1.323,2.63,1.323c1.317,0,1.975-1.323,0.658-2.634L63.43,482.31z"/>
		</g>
	</g>
	<g>
		<g>
			<path d="M85.79,479.678c-1.316-0.654-1.975,0-1.975,1.312l-2.63,6.575l-1.313,15.785l1.313,1.979l2.63-1.323l1.975-15.119
				l1.313-6.575C87.761,480.988,87.103,479.678,85.79,479.678z"/>
		</g>
	</g>
	<g>
		<g>
			<path d="M102.23,484.937l-3.288,0.661c-1.317,1.967-3.289,6.576-5.918,13.153c-0.659,1.965,0,2.626,1.313,3.288
				c1.316,0,1.975,0,2.629-1.323l5.263-13.151C103.544,486.253,102.889,485.598,102.23,484.937z"/>
		</g>
	</g>
	<g>
		<g>
			<path d="M48.303,492.174c-1.314-0.661-1.972-0.661-3.289,0c-0.657,1.312-0.657,1.966,0,3.289l10.523,10.521l2.629,0.653
				c1.317-0.653,1.317-1.31,1.317-2.633l-5.918-6.576L48.303,492.174z"/>
		</g>
	</g>
	<g>
		<g>
			<path fill="#D96038" d="M302.153,430.354c5.919-0.655,9.863-3.943,13.152-8.556c3.289-5.253,4.604-10.52,3.289-16.441
				c-0.66-5.252-3.289-9.864-8.55-13.151c-4.604-3.288-10.522-5.252-15.785-3.942c-5.262,1.315-9.865,3.942-13.81,8.553
				c-3.287,5.254-4.604,10.521-3.287,16.442c1.313,5.253,3.942,9.863,8.549,13.152C290.973,430.354,296.234,431.664,302.153,430.354
				z"/>
		</g>
	</g>
	<g>
		<g>
			<path d="M294.261,385.629c-6.577,0.66-11.837,3.949-15.782,9.863c-3.947,5.268-5.262,11.188-3.947,17.766
				c1.316,6.575,4.604,11.829,9.865,15.117c5.264,3.951,11.181,5.267,17.758,4.611c6.576-1.322,11.836-4.611,15.781-9.865
				c3.288-5.92,4.605-11.842,3.946-17.764c-1.315-6.576-4.604-12.49-9.864-15.779C306.1,386.289,300.838,384.318,294.261,385.629z
				 M294.918,390.895c4.604-1.315,9.865,0,13.813,2.635c3.944,3.287,6.575,7.23,7.233,12.49l0.658,3.289
				c0,4.604-1.316,8.549-4.605,11.836c-2.63,3.942-6.575,5.267-10.521,6.575c-5.26,0.655-9.865-0.654-13.813-3.288
				c-4.602-2.633-6.576-7.229-7.89-11.836c-0.658-5.26,0-9.863,2.63-13.813C285.713,394.184,289.659,391.55,294.918,390.895z"/>
		</g>
	</g>
	<g>
		<g>
			<path d="M302.153,387.607c-0.658-1.318-1.315-1.318-2.631-1.318c-1.316,0-1.975,0.664-1.315,1.975
				c0.657,8.553-1.313,16.439-6.577,24.994l-8.548,10.52c-0.658,1.311-1.316,1.973-0.658,2.634c1.316,1.31,2.631,1.31,3.289,0
				l9.863-11.187C300.838,405.357,302.813,396.814,302.153,387.607z"/>
		</g>
	</g>
	<g>
		<g>
			<path d="M304.125,409.309l-9.864,0.662c-1.313,0-1.973,1.309-1.973,1.965l3.288,1.979l7.894-0.655
				c5.918,0,10.521,1.966,12.495,5.253h2.631c1.314,0,1.971-1.31,0.656-2.627C315.965,411.936,311.359,409.971,304.125,409.309z"/>
		</g>
	</g>
	<g>
		<g>
			<path fill="#D96038" d="M196.932,70.621c5.918-1.317,9.862-3.949,13.812-8.548c3.288-5.267,4.601-10.52,3.288-16.441
				c-0.658-5.267-3.947-9.864-8.553-13.153c-5.26-3.288-10.52-4.605-15.783-3.288c-5.917,0.655-10.521,3.288-13.812,8.548
				c-3.288,4.604-4.601,9.865-3.288,15.78c0.659,5.922,3.947,10.526,8.552,13.815C185.749,70.621,191.012,71.938,196.932,70.621z"/>
		</g>
	</g>
	<g>
		<g>
			<path d="M216.659,45.632c-0.658-6.577-3.946-11.843-9.865-15.786c-5.918-3.943-11.181-5.26-17.757-3.943
				c-6.577,1.31-11.836,4.599-15.782,9.865c-3.289,5.92-5.26,11.836-3.289,18.412c0.659,6.576,3.947,11.182,9.866,15.124
				c5.262,3.289,11.18,4.605,17.1,3.944c6.575-1.31,12.493-4.599,15.781-9.865C216.659,57.468,217.977,52.208,216.659,45.632z
				 M212.055,49.576c0,4.604-1.313,7.893-3.287,11.181c-3.289,3.951-7.892,6.577-12.496,7.238c-5.26,0.655-9.863,0-13.812-2.633
				c-4.601-3.289-6.576-7.894-7.889-12.499c-0.658-5.259,0-9.864,3.288-13.808c2.63-4.604,6.576-6.577,11.836-7.893
				c4.604-0.662,9.863,0,13.812,3.288c4.604,3.288,7.235,7.237,7.894,11.836L212.055,49.576z"/>
		</g>
	</g>
	<g>
		<g>
			<path d="M196.932,27.874l-2.631-1.316c-1.316,0-1.316,1.316-1.316,2.633c0.658,7.887-0.658,16.441-6.576,24.989l-8.548,9.865
				c-0.658,1.317-0.658,1.972,0,3.289c1.313,1.316,1.973,1.316,3.288,0l9.208-11.837C196.271,46.288,197.589,37.078,196.932,27.874z
				"/>
		</g>
	</g>
	<g>
		<g>
			<path d="M199.561,49.576l-9.865,1.317c-1.313,0-1.971,0-1.971,1.971l2.631,1.317h8.547c5.264,0,9.865,1.316,12.498,4.605
				l2.631,0.655c1.313-0.655,1.313-1.972,0-3.289C211.398,52.208,206.137,50.231,199.561,49.576z"/>
		</g>
	</g>
	<g>
		<g>
			<path fill="#D96038" d="M253.488,263.964c5.918-1.31,10.521-3.942,14.467-9.203c3.288-4.604,4.604-9.865,3.288-15.78
				c-1.313-5.92-3.943-10.526-8.55-13.814c-5.26-3.287-10.522-3.949-16.439-3.287c-5.919,0.661-9.865,3.948-13.154,9.203
				c-3.287,4.61-4.604,9.863-3.945,15.13c0.658,5.922,3.945,10.52,9.207,14.462C242.966,263.964,248.225,264.626,253.488,263.964z"
				/>
		</g>
	</g>
	<g>
		<g>
			<path d="M263.354,223.196c-4.604-3.943-10.521-4.604-17.1-3.943c-6.577,0.655-12.494,3.943-15.781,9.863
				c-3.947,5.255-4.606,11.175-3.947,17.752c0.658,6.576,3.947,11.843,9.863,15.131c5.92,3.942,11.836,5.252,17.758,3.942h0.654
				c5.924-0.653,11.182-3.942,14.471-9.865c3.945-4.604,5.918-11.181,3.945-17.756C272.559,231.744,269.271,226.484,263.354,223.196
				z M260.725,227.794c4.601,2.632,7.23,6.577,7.89,11.842l0.657,3.288c0,4.599-1.315,8.548-4.604,11.836
				c-2.63,3.288-6.576,5.914-11.179,6.577c-4.604,0.662-9.864,0-13.812-3.289c-4.604-3.288-6.577-6.577-7.893-11.836
				c-1.313-4.606,0-9.864,3.288-14.469c3.289-3.95,7.234-6.577,11.84-7.238C252.171,223.196,256.775,224.506,260.725,227.794z"/>
		</g>
	</g>
	<g>
		<g>
			<path d="M253.488,221.218l-1.975-1.965c-1.973,0.655-1.973,1.965-1.973,2.627c1.973,7.893,0,16.44-5.919,24.988l-8.552,11.181
				c-1.313,0.662-1.313,1.316,0,2.626c1.316,0.663,1.976,0.663,2.635,0l9.206-11.829
				C252.831,238.981,255.459,229.773,253.488,221.218z"/>
		</g>
	</g>
	<g>
		<g>
			<path d="M256.118,242.925l-9.864,0.655c-1.316,0.655-1.316,1.316-1.316,1.978l1.976,1.965l8.547-0.655
				c5.92,0.655,10.522,1.978,13.154,5.267h2.63c0.658-0.663,1.314-1.323,0-2.634C268.613,245.558,262.693,242.925,256.118,242.925z"
				/>
		</g>
	</g>
	<g>
		<g>
			<path fill="#D96038" d="M76.583,419.833c1.971-3.287,2.629-7.897,1.313-11.842c-1.971-4.599-4.602-7.231-8.548-9.21
				l-11.839-0.655c-4.602,1.317-7.232,3.942-9.206,7.894c-1.972,3.951-1.972,7.895-0.659,12.492
				c0.659,3.949,3.947,6.575,7.235,8.554l12.494,1.311C71.319,426.41,74.608,423.776,76.583,419.833z"/>
		</g>
	</g>
	<g>
		<g>
			<path d="M70.662,396.814l-13.808-1.322c-5.263,1.322-8.551,4.611-11.182,9.865c-1.971,3.949-1.971,8.556-0.659,13.813
				c1.317,4.604,4.605,8.548,9.207,10.526l13.812,0.654c5.263-1.315,9.207-4.604,11.181-8.555c1.972-5.253,1.972-9.863,0.658-14.463
				C77.896,402.068,75.267,398.781,70.662,396.814z M58.167,400.104l9.865,1.312c5.263,1.979,7.893,5.921,7.893,11.843l-1.317,5.914
				l-7.89,6.577l-9.864-0.662c-3.289-1.966-5.922-3.942-6.577-7.886c-1.317-3.288-1.317-6.576,0.655-9.865
				C51.591,404.048,54.879,402.068,58.167,400.104z"/>
		</g>
	</g>
	<g>
		<g>
			<path fill="#D96038" d="M338.981,463.891c1.973-3.942,2.631-7.887,1.313-12.497c-1.972-3.942-4.603-6.576-8.548-8.541
				l-12.495-0.662c-3.945,1.315-7.234,3.949-8.552,7.895c-1.971,3.286-2.628,7.885-1.313,11.836
				c1.973,3.949,4.603,7.237,8.548,9.203l11.841,1.322C334.378,470.468,337.006,467.834,338.981,463.891z"/>
		</g>
	</g>
	<g>
		<g>
			<path d="M332.405,440.219l-13.811-0.654c-4.605,1.311-7.896,3.941-10.522,9.202c-2.631,4.604-2.631,9.202-0.66,13.813
				c1.318,5.254,4.604,8.543,8.553,10.521l14.466,1.311c4.604-1.311,7.894-4.598,11.183-9.202c1.971-4.606,2.63-9.204,0.658-13.814
				C340.954,446.14,337.666,442.853,332.405,440.219z M330.431,444.816c4.604,3.289,7.894,6.576,7.894,11.843l-1.317,5.921
				c-1.971,3.289-4.601,5.915-8.548,6.577h-9.862c-3.289-1.979-5.92-4.611-6.578-7.9c-0.657-3.288-0.657-6.576,0.658-9.863
				c1.973-3.287,4.604-5.916,7.891-6.576L330.431,444.816L330.431,444.816z"/>
		</g>
	</g>
	<g>
		<g>
			<path fill="#D96038" d="M356.736,101.531c1.976-4.604,1.976-7.893,1.315-12.498c-1.971-3.943-4.604-7.231-8.548-9.209
				l-11.839-0.655c-3.946,1.316-7.235,3.943-9.208,7.893c-1.97,3.95-2.628,7.893-0.658,11.836c1.316,4.604,3.947,7.893,7.894,9.209
				l11.837,1.31C351.476,108.108,354.764,104.82,356.736,101.531z"/>
		</g>
	</g>
	<g>
		<g>
			<path d="M325.171,100.215c1.317,4.605,3.945,7.894,9.207,10.527l13.812,0.655c5.26-1.317,9.205-4.605,11.181-9.21
				c1.972-3.942,1.972-8.548,0.655-13.808c-1.973-4.604-4.602-8.554-9.206-11.181l-13.813-0.662
				c-5.259,1.979-8.548,5.267-11.176,9.209C323.854,90.351,323.854,94.956,325.171,100.215z M330.431,98.244
				c-1.313-3.289-1.313-6.577,0.658-9.865c1.316-3.289,3.946-5.921,7.234-6.576h9.864c5.261,2.633,7.235,6.576,7.235,12.498
				l-0.66,5.915c-1.971,3.289-4.604,5.26-7.893,6.577l-9.865-0.662C333.72,104.82,331.089,102.187,330.431,98.244z"/>
		</g>
	</g>
</g>
<path id="PATH77" fill="none" stroke="#000000" stroke-width="3" stroke-miterlimit="100" d="M370.59,585.26H3.92V2.74h366.67
	V585.26L370.59,585.26z"/>
</svg>
