<?xml version="1.0" encoding="utf-8"?>
<!-- Generator: Adobe Illustrator 13.0.0, SVG Export Plug-In . SVG Version: 6.00 Build 14948)  -->
<!DOCTYPE svg PUBLIC "-//W3C//DTD SVG 1.1//EN" "http://www.w3.org/Graphics/SVG/1.1/DTD/svg11.dtd">
<svg version="1.1" id="圖層_1" xmlns="http://www.w3.org/2000/svg" xmlns:xlink="http://www.w3.org/1999/xlink" x="0px" y="0px"
	 width="372px" height="587px" viewBox="0 0 372 587" enable-background="new 0 0 372 587" xml:space="preserve">
<g>
	<g>
		<g>
			<g>
				<path fill="#858585" d="M167.557,286.461l-8.619,17.243c-5.307,15.255-9.286,33.821-11.274,53.053
					c-6.632,63.664,7.296,135.948,42.44,218.178l167.782-70.291c-35.149-82.234-77.592-143.243-126.664-183.032
					c-15.255-12.599-30.506-22.547-46.421-29.179L167.557,286.461z"/>
			</g>
		</g>
		<g>
			<g>
				<path d="M167.557,283.146c-0.662,0-1.987,0-3.314,1.328c-2.652,3.979-5.968,10.611-9.283,19.894
					c-5.308,15.916-9.285,33.157-11.275,53.717c-5.969,63,8.623,135.283,43.104,218.178c0.664,2.652,2.652,2.652,3.98,1.988
					l2.651-3.316v-1.323c-29.178-68.968-43.769-131.968-43.769-187.676c0-24.535,2.655-45.757,7.959-65.651
					c3.315-12.6,6.632-22.547,11.275-29.843c21.883,6.632,45.093,20.559,70.291,42.442c45.098,39.788,83.56,97.484,115.393,173.083
					c0.661,1.993,1.988,2.652,3.977,1.329c2.655-0.665,3.316-1.992,1.991-3.979c-34.485-82.896-76.927-143.242-126-183.032
					c-15.255-13.265-30.506-22.547-46.42-29.843C179.493,286.461,172.861,284.474,167.557,283.146z"/>
			</g>
		</g>
		<g>
			<g>
				<path fill="#FFE700" d="M178.168,312.327c0.664-7.295,0.664-14.59-0.663-21.222c-1.327-13.927-6.631-19.231-14.591-15.251
					c-8.619,3.315-8.619,9.948,0,21.219L178.168,312.327z"/>
			</g>
		</g>
		<g>
			<g>
				<path d="M161.59,272.538c-3.979,1.989-6.631,5.304-7.295,8.62c-0.664,5.967,2.652,12.599,9.283,20.559l13.264,12.599
					l2.651,0.664l1.328-1.991v-18.566c-0.665-10.612-3.316-17.908-7.96-21.223L161.59,272.538z M159.598,282.485
					c0-2.655,1.328-3.316,3.98-4.643c2.652-1.328,3.979-1.328,5.968,0c4.644,3.316,6.632,11.936,6.632,26.526v2.651
					c-11.271-10.61-16.58-18.566-16.58-23.874V282.485z"/>
			</g>
		</g>
		<g>
			<g>
				<path d="M180.821,311.663c-1.328-1.326-2.653-1.991-3.316-1.326c-1.989,0.663-2.652,1.326-1.989,3.315l27.188,72.947
					c21.886,59.684,44.434,117.38,68.307,173.748c1.324,1.325,1.988,1.988,3.316,0.665l1.988-1.992v-1.325
					c-27.19-64.327-53.053-129.979-78.252-196.958c28.515,59.684,57.692,123.348,86.211,191.651
					c1.324,1.991,1.988,2.652,3.315,1.328c1.988-0.664,2.652-1.328,1.988-3.316C251.116,460.874,214.643,380.631,180.821,311.663z"
					/>
			</g>
		</g>
		<g>
			<g>
				<path d="M156.282,316.304c-1.323-1.324-1.987-1.324-3.315,0c-1.324,1.328-1.324,2.655,0,3.98l8.623,7.294
					c7.956,5.969,15.915,9.947,25.198,13.928c1.329,0.663,2.652,0,3.315-1.327c0.665-1.988,0-2.653-1.986-3.316
					c-7.961-3.979-16.58-8.619-23.875-13.263L156.282,316.304z"/>
			</g>
		</g>
		<g>
			<g>
				<path d="M150.979,339.515l-3.315,0.664c-1.327,0.664-1.327,1.99,0,3.979l17.243,12.599c12.599,7.96,24.534,13.927,33.821,17.908
					c1.988,0,2.651,0,3.977-1.329c0-1.987,0-3.315-1.988-3.315c-9.947-3.98-20.56-9.946-33.159-18.567L150.979,339.515z"/>
			</g>
		</g>
		<g>
			<g>
				<path d="M147.663,368.696c-0.663-0.664-2.652-0.664-3.315,1.324c-0.664,0.663-0.664,1.992,0,3.315l19.23,11.275
					c14.59,8.619,30.506,15.915,47.085,21.219c1.988,0.664,3.315-0.66,3.315-1.987c0-1.988,0-2.653-1.327-3.316
					c-16.579-5.305-31.83-11.937-47.082-19.896L147.663,368.696z"/>
			</g>
		</g>
		<g>
			<g>
				<path d="M201.379,299.725c0-1.987-0.663-2.651-3.315-2.651c-1.328,0-1.991,0.664-1.991,2.651L195.413,311
					c-1.329,8.619-3.981,17.243-7.961,25.862c0,1.328,0,3.316,1.988,3.98c1.328,0,2.654,0,3.315-1.989
					c3.979-8.622,6.632-17.906,7.96-27.854L201.379,299.725z"/>
			</g>
		</g>
		<g>
			<g>
				<path d="M219.282,310.337c-1.988-0.665-2.651,0.663-2.651,1.99l-3.315,19.895c-2.652,15.253-5.969,27.853-9.948,36.475
					c-1.324,1.987-0.663,2.652,0.664,3.316c1.988,1.323,3.315,0,3.315-1.329c4.644-9.946,8.62-21.882,11.275-36.474l2.652-21.883
					C221.274,311,220.61,310.337,219.282,310.337z"/>
			</g>
		</g>
		<g>
			<g>
				<path d="M242.494,328.243c-1.988,0-2.652,0.663-2.652,2.651l-4.641,19.896c-4.644,16.579-10.611,32.493-17.907,47.747
					c-1.327,1.989-0.663,2.652,0.665,3.317c1.988,1.323,2.651,0.66,3.979-1.328c7.957-15.252,13.925-31.83,18.568-48.409
					l3.979-21.223C244.485,329.567,243.821,328.243,242.494,328.243z"/>
			</g>
		</g>
		<g>
			<g>
				<path fill="#858585" d="M373.137,256.62c-10.611-18.567-21.883-34.482-34.485-47.082l-15.252-14.59
					c-16.578,11.275-33.157,31.83-49.072,61.672c-33.158,61.012-49.737,139.927-49.737,236.085l-51.064,110.748h248.021V492.705
					C421.546,396.547,405.63,317.632,373.137,256.62z"/>
			</g>
		</g>
		<g>
			<g>
				<path d="M325.388,192.295c-1.324-0.664-2.651-0.664-3.976,0c-17.906,12.6-35.149,33.822-51.065,64.325
					c-32.493,60.348-48.409,138.602-49.072,235.422l-50.4,110.083l-0.665,1.328l0.665,1.988l2.651,1.327h248.021
					c2.655,0,3.315-0.663,3.315-3.315V492.705c0-96.822-15.915-175.073-48.409-236.085c-9.947-19.231-21.222-35.146-33.821-48.409
					L325.388,192.295z M323.399,199.59c19.231,15.252,36.475,38.462,52.39,71.62c28.518,58.357,42.441,132.632,42.441,221.495
					v107.433H178.832l49.074-106.105v-1.327c0-88.862,14.588-163.138,43.104-221.495
					C286.926,238.053,304.169,214.842,323.399,199.59z"/>
			</g>
		</g>
		<g>
			<g>
				<path d="M323.399,216.83c-1.328,0-2.65,1.328-2.65,2.656l-4.645,118.04c-3.316,94.171-3.98,185.021-2.651,269.907
					c0,1.324,0.663,2.652,2.651,2.652c1.327,0,2.651-1.328,2.651-2.652l-1.324-88.202c0-78.25,2.651-161.146,5.968-248.02
					c3.315,86.875,5.968,169.77,5.968,248.02l-1.323,88.202c0,1.324,1.323,2.652,2.651,2.652c1.988,0,2.651-1.328,2.651-2.652
					c1.989-84.886,0.664-175.736-1.988-269.907l-5.307-118.04C326.052,218.158,325.388,216.83,323.399,216.83z"/>
			</g>
		</g>
		<g>
			<g>
				<path d="M300.189,221.474c-0.664-1.328-1.988-1.988-3.315-1.328c-1.989,1.328-2.652,1.992-1.989,3.316l5.305,11.275
					c5.304,8.62,11.935,16.58,19.894,24.539c1.329,0.66,2.653,0.66,3.316,0c1.988-1.328,1.988-2.656,0-3.316
					c-6.631-7.295-13.263-15.254-17.906-23.21L300.189,221.474z"/>
			</g>
		</g>
		<g>
			<g>
				<path d="M284.938,242.696c-1.327-1.328-1.991-1.328-3.979-1.328c-1.327,1.328-1.99,1.988-0.664,3.98l11.937,19.23
					c8.623,14.591,17.906,25.199,25.866,33.159c1.986,0.663,2.652,0.663,3.975,0c1.328-1.989,1.328-3.315,0-3.98
					c-8.618-7.955-16.578-17.903-25.861-32.494L284.938,242.696z"/>
			</g>
		</g>
		<g>
			<g>
				<path d="M282.283,289.117l-12.6-17.907c-0.664-1.988-2.652-1.988-3.98-1.327c-1.988,0.664-1.988,1.991-1.324,3.315
					l13.264,19.234c11.936,15.252,25.198,28.515,39.126,41.114c1.987,0.663,3.314,0.663,3.98,0c1.322-1.988,1.322-2.652-0.666-4.641
					C306.157,317.632,293.559,304.368,282.283,289.117z"/>
			</g>
		</g>
		<g>
			<g>
				<path d="M256.419,302.381c-1.986-1.328-2.651-1.328-3.979-0.664c-1.987,1.324-1.987,2.651-0.659,3.979l20.554,25.862
					c16.58,19.231,30.506,33.822,43.77,43.77l3.315-0.663c0.663-0.666,0.663-2.652,0-3.981
					c-12.599-9.283-27.189-23.209-43.104-42.44L256.419,302.381z"/>
			</g>
		</g>
		<g>
			<g>
				<path d="M245.809,334.874c-1.323-0.664-1.987-1.327-3.314-0.664c-1.988,1.328-1.988,2.652-1.325,3.98l20.56,26.526
					c17.239,19.895,35.146,37.138,53.052,51.061l3.976-0.66c0.664-1.327,0.664-1.992-0.659-3.979
					c-17.907-13.264-35.15-29.843-51.729-49.737L245.809,334.874z"/>
			</g>
		</g>
		<g>
			<g>
				<path d="M237.19,370.021h-3.317c-1.326,0.663-1.326,1.992,0,3.979l25.863,29.179c20.558,21.887,38.465,39.126,54.38,51.729
					h3.315c1.324-1.327,1.324-2.655,0-3.979c-15.914-12.599-33.821-29.842-53.717-51.728L237.19,370.021z"/>
			</g>
		</g>
		<g>
			<g>
				<path d="M233.21,399.862c-0.663-1.325-2.652-1.988-3.979-0.663c-1.324,1.327-1.988,2.655-0.661,3.979l25.198,30.507
					c19.895,23.873,40.454,42.441,59.686,56.368l3.979-0.664c1.324-1.987,1.324-2.652-0.663-3.315
					c-19.231-13.928-39.126-32.494-59.021-55.705L233.21,399.862z"/>
			</g>
		</g>
		<g>
			<g>
				<path d="M223.263,430.368h-3.98c-1.988,0-1.988,1.328,0,3.316l30.506,34.485c23.874,25.198,45.097,43.105,63.665,54.377
					c1.987,0.663,3.315,0,3.979-1.325c1.324-1.327,0.665-2.655-0.663-3.979c-18.567-9.946-39.79-27.854-63.001-53.053
					L223.263,430.368z"/>
			</g>
		</g>
		<g>
			<g>
				<path fill="#FFE700" d="M323.399,219.486c3.315-7.295,6.631-14.591,8.62-21.886c3.979-14.587,1.327-21.883-8.62-21.883
					c-9.946,0-12.599,7.295-8.619,21.883C316.769,204.895,320.083,212.19,323.399,219.486z"/>
			</g>
		</g>
		<g>
			<g>
				<path d="M334.011,178.369c-1.991-3.316-5.308-5.304-10.611-5.304c-4.644,0-8.619,1.988-10.611,5.304
					c-3.315,4.644-2.651,13.263,0.665,24.538c2.651,6.632,4.644,13.264,7.296,17.904c0.663,0.664,1.322,1.328,2.65,1.328
					l2.652-1.328l7.295-17.904C336.662,191.631,337.326,183.012,334.011,178.369z M316.769,181.685
					c1.328-1.988,3.314-3.316,6.631-3.316c3.315,0,5.304,1.328,6.631,3.316c0.665,0.664,0.665,2.651,0.665,5.304
					c0,5.971-1.992,14.591-7.296,26.526c-4.644-11.936-7.295-20.555-7.295-26.526L316.769,181.685z"/>
			</g>
		</g>
		<g>
			<g>
				<path d="M223.926,473.474c-0.663-1.328-1.988-1.328-3.315,0c-1.328,0.663-1.328,2.652,0,3.315l28.515,27.854
					c23.21,21.219,44.434,37.135,64.991,48.409c1.324,1.327,2.652,0.664,3.315-0.664c1.324-1.988,0.665-3.315-0.663-3.979
					c-19.895-11.272-41.118-27.188-64.328-47.746L223.926,473.474z"/>
			</g>
		</g>
		<g>
			<g>
				<path d="M210,500.001l-3.98-0.664c-1.325,1.327-1.325,1.99,0,3.979l33.157,30.506c26.526,21.883,51.065,38.461,74.939,49.072
					c1.988,0.664,2.652,0.664,3.98-1.328c0.659-1.323,0-2.651-1.328-3.315c-23.21-10.607-47.749-26.525-74.274-48.409L210,500.001z"
					/>
			</g>
		</g>
		<g>
			<g>
				<path d="M199.388,525.198c-1.324-1.324-2.652-1.324-3.975,0c-1.329,1.328-1.329,2.655,0,3.98l21.881,19.895
					c17.243,14.591,32.494,25.202,45.758,33.157c1.327,0.664,2.651,0,3.316-1.323c0.663-1.329,0.663-1.992-0.665-3.316
					c-12.6-7.296-27.85-18.57-45.093-32.497L199.388,525.198z"/>
			</g>
		</g>
		<g>
			<g>
				<path d="M349.927,220.146c-1.328-0.66-2.652,0-3.316,1.328c-3.979,11.275-11.937,22.547-23.211,34.485
					c-1.328,0.661-1.328,1.988,0,3.316c0.664,1.324,2.652,1.324,3.315,0c12.6-11.939,20.56-23.875,25.199-35.813
					C351.914,221.474,351.914,220.81,349.927,220.146z"/>
			</g>
		</g>
		<g>
			<g>
				<path d="M365.178,241.368c-1.325-0.664-2.652,0-3.315,1.328c-11.936,21.883-24.536,39.126-36.475,51.061
					c-1.988,0.665-1.988,1.991-0.66,3.98c1.324,0.663,1.987,0.663,3.976,0c13.264-12.6,25.866-29.843,37.802-52.389
					C367.833,243.356,367.169,242.696,365.178,241.368z"/>
			</g>
		</g>
		<g>
			<g>
				<path d="M381.096,269.883c-1.327-0.661-2.656-0.661-3.315,1.327l-13.263,17.907c-11.275,15.251-23.875,28.515-37.803,39.789
					c-1.327,1.988-1.327,2.652-0.663,4.641c0.663,0.663,2.651,0.663,3.979,0c13.928-12.6,27.191-25.862,38.463-41.114l13.263-19.234
					C383.084,271.874,382.421,271.21,381.096,269.883z"/>
			</g>
		</g>
		<g>
			<g>
				<path d="M394.359,301.717l-3.316,0.664l-20.559,25.862c-15.915,19.231-30.506,33.157-43.105,42.44
					c-0.664,1.329-0.664,3.315,0,3.981l3.316,0.663c13.263-9.947,27.851-24.538,43.77-43.77l20.555-25.862
					C396.348,304.368,396.348,303.041,394.359,301.717z"/>
			</g>
		</g>
		<g>
			<g>
				<path d="M404.967,334.21l-3.978,0.664L381.096,361.4c-16.578,19.895-34.485,36.474-52.393,49.737
					c-1.324,1.987-1.324,2.652,0,3.979l3.316,0.66c17.907-13.923,35.813-31.166,53.053-51.061l19.895-26.526
					C406.295,336.862,406.295,335.538,404.967,334.21z"/>
			</g>
		</g>
		<g>
			<g>
				<path d="M412.926,370.021h-3.979c-27.19,33.822-53.716,60.348-79.579,80.906c-1.323,1.324-1.323,2.652,0,3.979h3.316
					c15.915-12.603,33.821-29.842,54.381-51.729l25.861-29.179C414.254,372.013,414.254,370.684,412.926,370.021z"/>
			</g>
		</g>
		<g>
			<g>
				<path d="M417.569,399.199c-1.327-1.325-2.655-0.662-3.979,0.663l-24.538,30.506c-19.895,23.211-39.125,41.777-59.021,55.705
					c-1.327,0.663-1.327,1.328-0.663,3.315l3.979,0.664c19.231-13.927,39.79-32.495,59.684-56.368l25.2-30.507
					C418.895,401.854,418.895,400.526,417.569,399.199z"/>
			</g>
		</g>
		<g>
			<g>
				<path d="M427.517,430.368h-3.315l-31.171,33.821c-23.209,25.199-44.432,43.106-63,53.053c-1.327,1.324-1.327,2.652-0.663,3.979
					c0.663,1.325,1.991,1.988,3.979,1.325c18.567-11.271,39.79-29.179,63.664-54.377l31.167-34.485
					C429.505,431.696,429.505,430.368,427.517,430.368z"/>
			</g>
		</g>
		<g>
			<g>
				<path d="M426.189,473.474c-1.328-1.328-2.652-1.328-3.316,0l-28.514,27.19c-22.55,20.558-44.433,36.474-64.329,47.746
					c-1.327,1.326-1.327,2.654-0.663,3.979c0.663,1.328,1.991,1.328,3.316,0.664c20.559-11.274,42.441-27.19,64.99-48.409
					l28.516-27.854C428.178,476.126,428.178,474.137,426.189,473.474z"/>
			</g>
		</g>
		<g>
			<g>
				<path d="M440.78,499.337l-3.316,0.664l-32.497,29.841c-26.527,21.884-51.725,37.802-74.937,48.409
					c-1.327,0.664-1.986,1.992-1.327,3.315c1.327,1.992,1.992,1.992,3.98,1.328c23.874-10.611,49.072-27.189,75.599-49.072
					c13.264-11.275,23.875-21.224,32.498-30.506C441.441,501.327,441.441,500.664,440.78,499.337z"/>
			</g>
		</g>
		<g>
			<g>
				<path d="M451.388,525.198c-0.66-1.324-1.987-1.324-3.977,0c-23.874,23.212-45.76,40.454-65.655,52.393
					c-1.987,1.324-1.987,1.987-1.323,3.316c1.323,1.323,1.988,1.987,3.979,1.323c20.555-11.936,43.104-29.842,66.976-53.052
					C452.717,527.854,452.717,526.526,451.388,525.198z"/>
			</g>
		</g>
		<g>
			<g>
				<path fill="#858585" d="M91.295,199.59c-15.916-26.526-30.506-44.433-45.094-54.379c-14.592,9.947-29.182,27.854-45.098,54.379
					c-30.505,53.713-48.408,122.021-52.388,206.904l11.274,227.465h211.547c36.474-57.696,59.685-118.708,68.969-183.032
					c3.315-19.894,3.979-39.125,3.979-57.032l-0.664-21.882c-25.199,0.659-49.737,6.63-72.947,17.902l-27.19,16.579
					C139.704,321.611,121.801,253.304,91.295,199.59z"/>
			</g>
		</g>
		<g>
			<g>
				<path d="M47.525,142.559c-0.664-0.664-1.988-0.664-3.315,0C27.631,153.17,12.379,173.064-2.875,199.59
					C-33.378,252.644-50.621,321.611-54.6,406.494l11.274,227.465c0,2.653,0.661,3.316,3.315,3.316h211.547
					c1.324,0,1.988-0.663,2.652-1.328c36.474-57.032,59.684-118.705,69.632-183.032c2.65-20.56,3.979-39.79,3.979-59.021
					l-1.329-22.546c0-1.328-0.663-2.652-3.314-2.652c-21.22,0.659-41.778,5.303-62.336,12.599
					c-13.265,5.968-24.539,11.936-33.821,19.231c-5.305-82.895-22.547-149.875-53.054-202.263
					C79.359,172.4,64.104,153.17,47.525,142.559z M46.201,149.854c17.239,13.263,33.818,34.482,48.41,63
					c27.189,51.725,42.439,116.052,45.756,193.64c0,1.327,0.664,1.991,1.992,3.315l3.314-0.663l26.527-15.916
					c21.883-11.271,44.43-16.579,68.305-17.902l0.663,21.219c0,30.506-3.979,61.676-11.938,94.833
					c-11.937,49.073-31.831,95.494-59.685,139.264H-36.693l-11.275-224.149c3.316-77.588,18.567-141.916,45.758-193.64
					C13.043,184.336,28.959,163.117,46.201,149.854z"/>
			</g>
		</g>
		<g>
			<g>
				<path fill="#FFE700" d="M46.201,175.053c3.977-6.631,6.632-14.591,8.619-21.883c3.98-14.591,0.664-21.223-8.619-21.223
					c-9.287,0-11.938,6.632-8.623,21.223C39.57,160.462,42.221,168.421,46.201,175.053z"/>
			</g>
		</g>
		<g>
			<g>
				<path d="M46.201,128.631c-5.307,0-8.623,1.988-10.611,5.305c-4.644,7.959-1.991,22.55,8.62,42.444
					c0,1.324,1.327,1.989,1.991,1.989c1.324,0,1.988-0.665,2.652-1.989c9.947-19.894,12.6-34.485,7.955-42.444
					C54.82,130.62,50.842,128.631,46.201,128.631z M52.169,136.591l1.988,6.631c0,5.968-3.315,14.587-7.956,25.862
					c-5.307-11.275-7.296-19.894-7.296-25.862l1.325-6.631c0.664-1.328,3.315-2.655,5.971-2.655
					C48.854,133.936,50.842,135.263,52.169,136.591z"/>
			</g>
		</g>
		<g>
			<g>
				<path d="M46.201,173.064c-1.991,0-2.655,0.66-2.655,1.988c-5.968,89.526-7.956,189-7.956,299.748v82.895l-37.801-28.517h-3.316
					l-0.664,1.99l-1.324,17.241l0.664,1.99l51.062,41.113l1.327,0.664h1.324l1.328-0.664
					c55.041-36.473,101.462-78.915,139.263-128.651c18.567-24.534,31.83-45.757,39.79-63.663c0.664-1.988,0-2.652-0.664-3.316
					c-1.988-1.324-2.652-0.661-3.315,0.664c-15.252,18.57-33.159,39.789-53.717,61.676
					c-42.442,45.757-79.579,78.915-113.397,100.135l1.324-83.557c0-110.748-3.315-210.222-8.619-299.748
					C48.854,173.725,47.525,173.064,46.201,173.064z M52.169,565.652h2.651c26.527-16.579,55.705-41.114,88.199-72.284
					c21.887-22.547,44.433-45.758,65.655-71.619c-14.591,25.198-33.159,49.072-55.044,72.947
					c-31.167,34.482-66.979,64.324-106.77,91.514c-14.587-10.61-31.166-23.209-49.072-39.125l0.663-10.611
					c15.915,12.6,29.179,22.547,39.126,29.179h2.652l1.327-1.988l-0.663-88.863c0-78.254,1.326-160.485,5.307-247.359
					c3.977,86.874,5.968,169.105,5.968,247.359l-1.327,88.863L52.169,565.652z"/>
			</g>
		</g>
		<g>
			<g>
				<path d="M22.99,169.749c-0.663-1.327-1.99-1.327-3.315-1.327c-1.991,0.663-2.655,1.988-1.991,3.316l5.967,11.275
					c5.309,8.619,11.275,16.578,18.57,24.535c1.989,0.664,3.316,0.664,4.641,0c0.664-1.324,0.664-2.652,0-3.979
					c-7.956-7.292-13.924-14.587-19.23-23.211L22.99,169.749z"/>
			</g>
		</g>
		<g>
			<g>
				<path d="M7.736,190.968c-0.664-1.324-1.988-1.324-3.316-1.324c-1.987,1.324-2.652,1.988-1.324,3.977l11.936,19.234
					c9.283,14.587,17.243,25.199,25.863,33.158c1.326,0.661,2.651,0.661,3.979,0c0.664-1.328,0.664-3.316-0.663-4.644
					c-7.296-6.631-15.915-17.906-25.198-31.83L7.736,190.968z"/>
			</g>
		</g>
		<g>
			<g>
				<path d="M43.546,277.842c-14.587-11.936-27.187-25.199-38.462-39.79l-12.6-18.567c-1.328-1.992-1.991-2.656-3.979-1.328
					c-1.328,0.664-1.989,1.988-1.328,3.315l13.926,19.231c11.275,15.254,24.539,28.518,38.467,41.117l3.976-0.664
					C44.21,279.83,44.21,278.506,43.546,277.842z"/>
			</g>
		</g>
		<g>
			<g>
				<path d="M42.221,322.936c1.325-1.324,1.325-1.988,0-3.977c-12.598-9.287-27.189-23.874-43.104-42.445l-19.896-25.198
					l-3.979-1.328c-1.328,1.328-1.328,2.655-0.664,3.979l20.559,25.862c15.916,19.234,30.506,33.822,43.769,43.77
					C39.57,324.263,40.895,324.263,42.221,322.936z"/>
			</g>
		</g>
		<g>
			<g>
				<path d="M40.895,364.053c1.326-1.988,1.326-3.315,0-3.979C22.99,346.81,5.748,329.567-10.831,309.672l-20.559-26.526
					c-1.327-0.661-1.988-1.324-3.315-0.661c-1.988,1.989-1.988,3.316-1.328,3.976l20.559,26.527
					c16.578,20.559,35.149,37.138,53.053,51.064H40.895z"/>
			</g>
		</g>
		<g>
			<g>
				<path d="M40.895,403.178c0.663-1.988,0.663-2.651-0.664-3.315c-25.863-20.559-52.389-47.745-79.58-81.566l-3.976-0.664
					c-1.327,1.327-1.327,3.315,0,3.979c27.851,33.822,54.378,61.672,80.239,82.231L40.895,403.178z"/>
			</g>
		</g>
		<g>
			<g>
				<path d="M40.23,437.664c0.664-1.328,0.664-2.652-0.66-3.979c-19.234-13.264-38.467-31.83-59.023-55.042l-25.199-30.505
					c-0.664-1.328-1.328-1.328-3.316-0.663c-1.327,1.327-1.327,2.651-0.664,3.315l25.202,31.17
					c20.556,23.87,40.45,42.441,60.345,56.368L40.23,437.664z"/>
			</g>
		</g>
		<g>
			<g>
				<path d="M40.23,470.158c0.664-1.988,0.664-3.316-1.325-3.98C21,454.906,1.104,437.664-20.115,413.79l-27.854-33.159
					c-0.664-1.988-2.652-1.988-3.315-0.663c-1.327,1.327-1.327,2.652-0.664,3.979l27.854,33.822
					c21.883,23.875,41.777,41.777,61.008,52.39C37.578,471.485,38.905,471.485,40.23,470.158z"/>
			</g>
		</g>
		<g>
			<g>
				<path d="M73.389,168.421c-1.988,0-3.316,0-3.316,1.327c-4.641,11.271-12.6,22.546-24.535,33.819
					c-0.664,1.328-0.664,2.655,0,3.979c1.988,1.328,3.316,1.328,3.98,0c12.599-11.936,21.219-23.875,25.198-35.81
					C75.379,170.41,74.716,169.084,73.389,168.421z"/>
			</g>
		</g>
		<g>
			<g>
				<path d="M88.643,189.644c-1.991-0.664-3.316,0-3.979,1.324c-12.6,21.886-24.538,39.125-37.138,50.4
					c-0.664,1.328-0.664,2.653,0,4.644c1.328,0.661,2.652,0.661,3.316,0c13.263-12.603,26.525-29.842,38.465-52.392
					C90.631,191.631,89.967,190.304,88.643,189.644z"/>
			</g>
		</g>
		<g>
			<g>
				<path d="M103.894,218.158c-1.987-0.664-3.315,0-3.979,1.328c-11.271,19.23-28.514,38.461-51.061,58.356
					c-1.328,0.664-1.328,1.988,0,3.316l3.315,0.664c23.21-19.895,41.114-39.79,52.389-60.348
					C105.221,220.146,105.221,218.822,103.894,218.158z"/>
			</g>
		</g>
		<g>
			<g>
				<path d="M117.157,249.988c-1.988-0.661-2.652-0.661-3.315,1.328l-20.559,25.198c-15.916,18.571-29.843,33.158-42.441,42.445
					c-1.988,1.325-1.988,2.652-0.664,3.977c0.664,1.327,1.991,1.327,3.979,0.664c12.599-9.947,26.526-24.535,43.104-43.77
					l20.56-25.862C118.484,252.644,118.484,251.316,117.157,249.988z"/>
			</g>
		</g>
		<g>
			<g>
				<path d="M127.104,282.485l-3.314,0.661c-19.896,29.181-43.105,55.044-72.283,76.928c-1.328,0.663-1.328,1.99-0.664,3.979h3.979
					c18.568-13.927,35.811-30.506,52.389-51.064l21.223-26.527C129.096,285.138,128.432,283.81,127.104,282.485z"/>
			</g>
		</g>
		<g>
			<g>
				<path d="M135.064,317.632l-3.316,0.664c-27.854,33.821-54.381,61.008-79.579,81.566c-1.327,0.664-1.327,1.327,0,3.315
					l3.315,0.665c25.199-20.56,51.725-48.409,80.243-82.231C137.051,320.284,137.051,318.959,135.064,317.632z"/>
			</g>
		</g>
		<g>
			<g>
				<path d="M140.367,347.475l-3.979,0.663l-24.535,30.505c-19.895,23.212-39.79,41.778-59.685,55.042
					c-1.327,1.327-1.327,2.651,0,3.979l3.315,0.664c19.895-13.927,39.789-32.498,60.348-56.368l25.199-31.17
					C141.695,350.126,141.695,348.802,140.367,347.475z"/>
			</g>
		</g>
		<g>
			<g>
				<path d="M143.684,379.968c-1.988-1.325-2.652-1.325-3.316,0.663l-27.189,33.159c-21.883,23.874-42.441,41.116-60.345,52.388
					c-1.991,0.664-1.991,1.992-0.664,3.98c1.324,1.327,1.988,1.327,3.315,0c18.567-10.612,39.127-28.515,61.01-52.39l27.854-33.822
					C145.011,382.62,145.011,381.295,143.684,379.968z"/>
			</g>
		</g>
		<g>
			<g>
				<path fill="#FFE700" d="M224.59,397.874l19.231-13.263c11.935-9.946,13.263-17.242,5.304-23.211
					c-7.956-4.644-14.588-0.663-19.23,13.928C227.242,381.96,225.914,389.915,224.59,397.874z"/>
			</g>
		</g>
		<g>
			<g>
				<path d="M250.453,359.408c-3.981-2.651-7.959-3.314-11.937-1.986c-5.307,2.652-9.286,9.947-12.603,21.221
					c-1.988,5.969-2.651,12.6-3.315,19.231l1.327,2.652h2.652l15.916-10.611c8.622-7.955,13.925-14.587,13.925-19.895
					C257.084,365.381,254.433,362.064,250.453,359.408z M240.506,362.725l6.632,1.328c2.65,1.328,3.979,3.316,3.979,5.303v0.665
					c0,5.967-7.295,13.926-23.21,23.21C231.222,375.328,235.201,365.381,240.506,362.725z"/>
			</g>
		</g>
		<g>
			<g>
				<path d="M197.399,377.315c-1.327-0.664-2.652,0-2.652,1.988l-1.991,15.255l-3.315,43.105c0,1.987,0.663,2.65,1.991,2.65
					c1.988,0,2.652-0.663,2.652-2.65l3.315-42.442l2.651-14.591C200.051,378.643,199.388,377.315,197.399,377.315z"/>
			</g>
		</g>
		<g>
			<g>
				<path d="M168.221,388.59c-1.326,0-1.99,0.662-2.651,1.988l-1.327,24.539l-0.664,51.061c0,1.328,0.664,2.652,2.652,2.652
					c1.326,0,1.99-1.324,1.99-2.652l1.988-51.061l0.665-23.875l-0.665-1.327L168.221,388.59z"/>
			</g>
		</g>
		<g>
			<g>
				<path d="M139.704,490.053c0-1.988,1.327-2.651,2.655-2.651c1.988,0,2.651,0.663,2.651,2.651l1.325-83.559
					c0-1.988-1.325-2.651-2.652-2.651c-1.988,0-2.652,0.663-2.652,2.651L139.704,490.053z"/>
			</g>
		</g>
		<g>
			<g>
				<path d="M121.137,405.83c-1.328,0-2.652,1.328-2.652,2.655l-0.663,31.829c-0.664,25.2-0.664,49.074,0.663,70.296
					c0,1.988,0.664,3.315,1.988,3.315c1.991-0.663,3.316-1.327,3.316-3.315c-0.664-21.222-0.664-45.096-0.664-70.296l0.664-31.829
					C123.789,407.158,123.125,405.83,121.137,405.83z"/>
			</g>
		</g>
		<g>
			<g>
				<path d="M99.914,429.041c-1.988,0-2.652,1.327-2.652,2.655l-0.664,34.481c-0.66,25.864,0,46.421,0.664,63.001
					c0,1.327,1.328,1.99,3.316,1.99c1.328,0,2.652-0.663,2.652-1.99c-1.324-16.58-1.988-37.137-1.324-63.001v-34.481
					C101.906,430.368,101.242,429.705,99.914,429.041z"/>
			</g>
		</g>
		<g>
			<g>
				<path d="M75.379,450.927c-1.327,0-2.651,0.663-2.651,2.652v33.157l1.988,60.349l2.651,2.651c1.328,0,2.652-0.663,2.652-2.651
					l-1.988-60.349v-33.157C78.031,451.59,77.367,450.927,75.379,450.927z"/>
			</g>
		</g>
		<g>
			<g>
				<path d="M194.747,444.959c1.325,1.988,2.652,2.651,3.98,1.988l45.094-18.566c-1.327,0.66-2.652,0-3.315-1.328
					c0-1.327,0-2.651,0.663-2.651l-44.434,17.242C194.747,442.304,194.747,443.631,194.747,444.959z"/>
			</g>
		</g>
		<g>
			<g>
				<path d="M174.853,477.454l28.515-8.624c18.57-5.968,31.17-10.607,37.802-13.924c1.988-0.664,2.652-1.327,1.325-3.316
					c0-1.327-1.988-1.991-3.317-1.327l-38.461,13.264l-27.19,9.284c-1.988,0-2.651,1.326-1.988,3.315
					C172.201,477.454,173.525,478.117,174.853,477.454z"/>
			</g>
		</g>
		<g>
			<g>
				<path d="M150.979,503.979l32.494-5.308c22.547-4.64,39.79-8.619,52.39-13.923c1.328,0,1.991-1.328,1.328-3.316
					c-0.665-1.327-1.328-1.327-3.317-1.327c-12.599,4.644-29.842,9.283-52.389,13.263l-30.506,5.969
					c-2.651,0-3.315,1.327-2.651,2.651C148.327,503.979,149.651,504.644,150.979,503.979z"/>
			</g>
		</g>
		<g>
			<g>
				<path d="M125.117,525.862c0,1.327,0.662,1.991,1.986,1.991c39.791-1.327,72.947-5.307,100.139-12.603
					c1.988-0.659,2.652-1.325,2.652-3.315c-0.664-1.325-1.988-2.652-3.316-1.988c-27.851,7.295-60.348,11.274-99.475,12.6
					C125.117,522.547,125.117,523.874,125.117,525.862z"/>
			</g>
		</g>
		<g>
			<g>
				<path d="M97.262,549.736c0,1.328,1.328,2.652,2.652,2.652l118.708-9.947c1.988-0.663,1.988-1.988,1.988-3.315
					c0-1.988-0.663-2.652-3.316-1.988l-117.38,9.947C98.59,547.085,97.262,547.748,97.262,549.736z"/>
			</g>
		</g>
		<g>
			<g>
				<path d="M210.663,563.664c0-1.991-0.663-2.651-2.652-2.651l-87.538,9.282l-53.053,1.988c-1.988,0-2.652,1.328-2.652,2.651
					c0.664,1.992,1.328,2.656,2.652,2.656l53.717-1.991l88.198-8.62C210.663,566.316,211.326,564.987,210.663,563.664z"/>
			</g>
		</g>
	</g>
</g>
<path id="PATH77" fill="none" stroke="#000000" stroke-width="3" stroke-miterlimit="100" d="M370.59,585.26H3.92V2.74h366.67
	V585.26L370.59,585.26z"/>
</svg>
