<?xml version="1.0" encoding="utf-8"?>
<!-- Generator: Adobe Illustrator 13.0.0, SVG Export Plug-In . SVG Version: 6.00 Build 14948)  -->
<!DOCTYPE svg PUBLIC "-//W3C//DTD SVG 1.1//EN" "http://www.w3.org/Graphics/SVG/1.1/DTD/svg11.dtd">
<svg version="1.1" id="圖層_1" xmlns="http://www.w3.org/2000/svg" xmlns:xlink="http://www.w3.org/1999/xlink" x="0px" y="0px"
	 width="372px" height="587px" viewBox="0 0 372 587" enable-background="new 0 0 372 587" xml:space="preserve">
<g>
	<g>
		<path fill="#333333" d="M72.677,38.776l-1.361-3.402c-1.363-1.363-2.043-2.043-3.402-2.043c-1.362,0-2.722,0.68-3.403,2.043
			l-2.043,3.402c0,3.405,2.043,4.764,5.447,4.764C71.316,43.54,72.677,42.181,72.677,38.776z"/>
	</g>
</g>
<g>
	<g>
		<path fill="#333333" d="M52.259,29.926c0-3.402-2.042-4.763-5.445-4.763c-2.721,0-4.765,1.36-4.765,4.763
			c0,3.404,2.045,5.447,4.765,5.447C50.218,35.373,52.259,33.33,52.259,29.926z"/>
	</g>
</g>
<g>
	<g>
		<path fill="#333333" d="M223.771,9.51c-3.398,0-4.764,2.042-4.764,5.445c0,3.403,1.364,4.762,4.764,4.762
			c3.404,0,4.77-1.359,4.77-4.762C228.54,11.552,227.176,9.51,223.771,9.51z"/>
	</g>
</g>
<g>
	<g>
		<path fill="#333333" d="M185.66,31.29c0-3.403-2.043-5.447-5.446-5.447c-2.721,0-4.083,2.043-4.083,5.447
			c0,2.721,1.364,4.761,4.083,4.761C183.617,36.051,185.66,34.011,185.66,31.29z"/>
	</g>
</g>
<g>
	<g>
		<path fill="#333333" d="M36.606,122.49c0-3.403-1.361-5.444-4.767-5.444c-1.358,0-2.722,0.677-3.402,2.04
			c-0.679,0.682-1.36,1.362-1.36,3.402l1.36,3.404c0.68,1.361,2.043,1.361,3.402,1.361C35.245,127.254,36.606,125.894,36.606,122.49
			z"/>
	</g>
</g>
<g>
	<g>
		<path fill="#333333" d="M59.063,154.48c0-3.403-1.357-4.766-4.761-4.766c-1.363,0-2.043,0.681-3.404,1.362
			c-1.36,1.359-1.36,2.041-1.36,3.403l1.36,4.08l3.404,1.364C57.707,159.923,59.063,157.882,59.063,154.48z"/>
	</g>
</g>
<g>
	<g>
		<path fill="#333333" d="M48.177,181.705c0-3.403-2.043-5.448-5.446-5.448s-4.763,2.044-4.763,5.448c0,2.72,1.36,4.079,4.763,4.079
			S48.177,184.425,48.177,181.705z"/>
	</g>
</g>
<g>
	<g>
		<path fill="#333333" d="M35.924,51.708c0-3.403-2.042-5.447-5.443-5.447c-2.723,0-4.768,2.044-4.768,5.447
			c0,3.402,2.044,4.762,4.768,4.762C33.883,56.47,35.924,55.11,35.924,51.708z"/>
	</g>
</g>
<g>
	<g>
		<path fill="#333333" d="M34.566,14.955c0-3.402-2.044-5.445-5.447-5.445c-2.722,0-4.085,2.042-4.085,5.445
			c0,3.403,1.363,4.762,4.085,4.762C32.521,19.717,34.566,18.358,34.566,14.955z"/>
	</g>
</g>
<g>
	<g>
		<path fill="#333333" d="M314.292,19.037l-1.363-3.404l-4.083-2.04c-2.723,0-4.078,2.04-4.078,5.444
			c0,3.404,1.355,4.766,4.078,4.766l4.083-1.362L314.292,19.037z"/>
	</g>
</g>
<g>
	<g>
		<path fill="#333333" d="M281.624,25.163l-1.365-3.401l-3.399-2.045c-3.406,0-5.445,2.045-5.445,5.446
			c0,3.404,2.039,4.763,5.445,4.763l3.399-1.359L281.624,25.163z"/>
	</g>
</g>
<g>
	<g>
		<path fill="#333333" d="M343.558,38.776c0-3.402-1.357-4.765-4.761-4.765c-3.402,0-5.451,1.363-5.451,4.765
			c0,3.405,2.049,5.443,5.451,5.443S343.558,42.181,343.558,38.776z"/>
	</g>
</g>
<g>
	<g>
		<path fill="#333333" d="M355.813,61.916c0-3.402-2.046-5.447-4.767-5.447c-1.36,0-2.038,1.362-3.403,2.044
			c-1.361,0.681-1.361,2.041-1.361,3.402c0,2.722,1.361,4.761,4.766,4.761C353.767,66.679,355.813,64.638,355.813,61.916z"/>
	</g>
</g>
<g>
	<g>
		<path fill="#333333" d="M240.785,28.568c0-3.403-1.362-5.447-4.766-5.447c-2.719,0-4.764,2.043-4.764,5.447
			c0,2.722,2.046,4.081,4.764,4.081C239.426,32.649,240.785,31.29,240.785,28.568z"/>
	</g>
</g>
<g>
	<g>
		<path fill="#333333" d="M357.168,15.633l-1.355-3.402c-0.685-0.677-2.724-1.359-3.402-1.359c-3.4,0-5.449,1.359-5.449,4.761
			c0,3.404,2.049,5.447,5.449,5.447l3.402-1.363L357.168,15.633z"/>
	</g>
</g>
<g>
	<g>
		<path fill="#333333" d="M322.458,40.817l-1.362-4.083l-3.399-1.361c-3.403,0-5.443,1.361-5.443,5.444
			c0,3.402,2.04,4.766,5.443,4.766c1.359,0,2.042,0,3.399-1.364L322.458,40.817z"/>
	</g>
</g>
<g>
	<g>
		<path fill="#333333" d="M352.409,85.057l-2.047-3.403l-3.402-1.362c-3.401,0-4.759,1.362-4.759,4.766
			c0,3.402,1.356,5.444,4.759,5.444l3.402-1.361L352.409,85.057z"/>
	</g>
</g>
<g>
	<g>
		<path fill="#333333" d="M328.587,87.098l-1.363-3.405c-1.358-0.677-2.038-1.358-4.087-1.358c-2.718,0-4.081,1.358-4.081,4.763
			c0,3.403,1.364,5.445,4.081,5.445l4.087-1.362L328.587,87.098z"/>
	</g>
</g>
<g>
	<g>
		<path fill="#333333" d="M352.409,131.337l-2.047-3.404l-3.402-2.04c-3.401,0-4.759,2.04-4.759,5.444
			c0,3.401,1.356,4.764,4.759,4.764l3.402-1.363L352.409,131.337z"/>
	</g>
</g>
<g>
	<g>
		<path fill="#333333" d="M339.474,110.241l-0.677-3.403c-1.363-1.363-2.724-2.046-4.087-2.046c-2.719,0-4.768,2.046-4.768,5.449
			c0,3.401,2.049,4.762,4.768,4.762l4.087-1.36L339.474,110.241z"/>
	</g>
</g>
<g>
	<g>
		<path fill="#333333" d="M358.53,156.519c0-3.402-2.04-4.767-5.441-4.767c-3.402,0-4.769,1.364-4.769,4.767
			s1.365,4.766,4.769,4.766C356.49,161.286,358.53,159.923,358.53,156.519z"/>
	</g>
</g>
<g>
	<g>
		<path fill="#333333" d="M264.607,14.273c0-3.401-1.363-5.446-4.764-5.446c-2.721,0-4.768,2.044-4.768,5.446
			c0,2.722,2.047,4.763,4.768,4.763C263.244,19.037,264.607,16.995,264.607,14.273z"/>
	</g>
</g>
<g>
	<g>
		<path fill="#333333" d="M165.92,14.955c0-3.402-1.363-5.445-4.764-5.445c-2.723,0-4.761,2.042-4.761,5.445
			c0,3.403,2.039,4.762,4.761,4.762C164.557,19.717,165.92,18.358,165.92,14.955z"/>
	</g>
</g>
<g>
	<g>
		<path fill="#333333" d="M86.971,15.633c0-3.402-2.042-4.761-5.445-4.761c-3.399,0-4.764,1.359-4.764,4.761
			c0,3.404,1.363,5.447,4.764,5.447C84.929,21.08,86.971,19.037,86.971,15.633z"/>
	</g>
</g>
<g>
	<g>
		<path fill="#333333" d="M56.342,52.388c0-3.402-2.041-4.765-5.445-4.765c-2.72,0-4.765,1.362-4.765,4.765
			c0,3.404,2.045,5.444,4.765,5.444C54.302,57.833,56.342,55.792,56.342,52.388z"/>
	</g>
</g>
<g>
	<g>
		<path fill="#333333" d="M35.924,145.629c0-3.404-2.042-4.763-5.443-4.763c-2.723,0-4.768,1.359-4.768,4.763
			c0,3.403,2.044,5.446,4.768,5.446C33.883,151.076,35.924,149.033,35.924,145.629z"/>
	</g>
</g>
<g>
	<g>
		<path fill="#333333" d="M36.606,225.263c0-3.404-1.361-5.448-4.767-5.448c-3.402,0-4.763,2.044-4.763,5.448
			c0,2.722,1.36,4.761,4.763,4.761C35.245,230.023,36.606,227.984,36.606,225.263z"/>
	</g>
</g>
<g>
	<g>
		<path fill="#333333" d="M33.883,74.849c0-3.404-2.043-4.766-5.445-4.766c-2.723,0-4.763,1.362-4.763,4.766
			c0,3.401,2.04,4.766,4.763,4.766C31.84,79.614,33.883,78.249,33.883,74.849z"/>
	</g>
</g>
<g>
	<g>
		<path fill="#333333" d="M206.081,19.717c0-3.402-2.052-4.762-5.452-4.762c-2.718,0-4.079,1.36-4.079,4.762
			c0,3.403,1.362,5.446,4.079,5.446C204.029,25.163,206.081,23.121,206.081,19.717z"/>
	</g>
</g>
<g>
	<g>
		<path fill="#333333" d="M229.898,46.261c0-3.403-2.045-4.762-5.45-4.762c-3.399,0-4.757,1.358-4.757,4.762
			c0,3.402,1.356,4.765,4.757,4.765C227.854,51.026,229.898,49.663,229.898,46.261z"/>
	</g>
</g>
<g>
	<g>
		<path fill="#333333" d="M122.363,12.912c0-3.402-1.364-4.761-4.766-4.761c-3.404,0-5.445,1.359-5.445,4.761
			c0,2.721,2.042,4.765,5.445,4.765C121,17.677,122.363,15.633,122.363,12.912z"/>
	</g>
</g>
<g>
	<g>
		<path fill="#333333" d="M64.51,13.592c0-3.403-2.043-4.765-5.447-4.765c-2.721,0-4.761,1.362-4.761,4.765
			c0,3.403,2.042,4.766,4.761,4.766C62.467,18.358,64.51,16.995,64.51,13.592z"/>
	</g>
</g>
<g>
	<g>
		<path fill="#333333" d="M297.275,11.552l-2.041-3.401l-3.402-1.365c-3.398,0-4.764,1.365-4.764,4.766
			c0,3.402,1.365,5.443,4.764,5.443l3.402-1.363L297.275,11.552z"/>
	</g>
</g>
<g>
	<g>
		<path fill="#333333" d="M336.75,13.592l-1.355-3.403c-0.685-0.679-2.725-1.362-3.401-1.362c-3.404,0-5.449,1.362-5.449,4.765
			c0,3.403,2.045,5.444,5.449,5.444l3.401-1.358L336.75,13.592z"/>
	</g>
</g>
<path id="PATH77" fill="none" stroke="#000000" stroke-width="3" stroke-miterlimit="100" d="M370.59,585.26H3.92V2.74h366.67
	V585.26L370.59,585.26z"/>
<path id="PATH1" fill="#7CC4AA" stroke="#000000" stroke-width="3" d="M-7.5,283C221,290.5,92,497.5,379,498.5V630H-7.5V283z"/>
<path id="PATH2" fill="#F35ABD" stroke="#000000" stroke-width="3" d="M198.83,60.68c4.49,21.62,11.09,26.42-3.301,56.34
	c-23.799,7.49-28.819-0.75-30.579-18.55C171.63,73.49,171.39,92.13,198.83,60.68z"/>
<path id="PATH3" fill="#F35ABD" stroke="#000000" stroke-width="3" d="M37.98,97.32c21.57,6.95,23.48-11.16,43.67,12.22
	c8.47,9.82,0.72,28.06-13.01,28.64C51.2,138.82,31.77,128.6,37.98,97.32z"/>
<path id="PATH4" fill="#F35ABD" stroke="#000000" stroke-width="3" d="M73.67,70.94c-27.49,21.1-17.93,29.42,2.04,41.41
	c18.21,10.94,40.32,4.51,35.14-16.46c-6.32-24.78-15.36-16.44-37.17-24.94L73.67,70.94z"/>
<path id="PATH5" fill="#F35ABD" stroke="#000000" stroke-width="3" d="M76.9,56.07c0.8,11.78,3.05,24.86,5.31,30.17
	c2.99,7.68,7.46,5.45,21.22,19.85c24.95-0.23,27.18-9.62,23.35-27.09C106.65,49.23,98.74,66.43,76.9,56.07z"/>
<path id="PATH6" fill="#F35ABD" stroke="#000000" stroke-width="3" d="M140.24,47.64c4.28,18.1,17.06,24.94,10.14,48.36
	c-3.91,13.38-24.87,15.28-30.93,3.84c-4.88-8.44-12.44-20.36-8.22-22.8C125.13,66.33,122.72,57.85,140.24,47.64L140.24,47.64z"/>
<path id="PATH7" fill="#F35ABD" stroke="#000000" stroke-width="3" d="M173.88,50.81c4.49,21.62,11.091,26.42-3.3,56.34
	c-23.8,7.49-35.02,0.41-29.53-16.41c5.07-14.98,12.82-19.75,32.84-39.93H173.88z"/>
<path id="PATH8" fill="#FF9CDC" stroke="#000000" stroke-width="3" d="M135.67,135.17c-15.46,2.45-29.17-2.99-30.62-12.15
	c-1.45-9.16,9.91-18.57,25.37-21.02s29.17,2.99,30.62,12.15C162.49,123.31,151.13,132.72,135.67,135.17z"/>
<path id="PATH9" fill="#F35ABD" stroke="#000000" stroke-width="3" d="M207.529,95.45c4.49,21.62,11.091,26.42-3.299,56.34
	c-23.8,7.49-28.82-0.75-30.581-18.55C180.33,108.26,180.09,126.9,207.529,95.45L207.529,95.45z"/>
<path id="PATH10" fill="#F35ABD" stroke="#000000" stroke-width="3" d="M33.25,116.15c19.68,10.17,26.14-9.46,46.33,13.93
	c8.47,9.82,0.72,28.06-13.01,28.64C49.13,159.36,27.04,147.44,33.25,116.15z"/>
<path id="PATH11" fill="#F35ABD" stroke="#000000" stroke-width="3" d="M75.07,111.65c2.01,29.45,3.59,26.01,26.53,50.02
	c24.95-0.23,27.18-9.62,23.35-27.09C104.82,104.81,96.91,122.01,75.07,111.65z"/>
<path id="PATH12" fill="#F35ABD" stroke="#000000" stroke-width="3" d="M175.05,98.47c4.49,21.62,11.091,26.42-3.3,56.34
	c-23.8,7.49-28.82-0.75-30.58-18.55C147.85,111.28,147.61,129.92,175.05,98.47z"/>
<path id="PATH13" fill="#F35ABD" stroke="#000000" stroke-width="3" d="M217.561,125.23c-8.971,30.66,2.41,21.94-13.33,46.76
	c-23.8,7.49-29.701,0.45-25.5-16.69C195.04,124.01,196.76,134.9,217.561,125.23z"/>
<path id="PATH14" fill="#F35ABD" stroke="#000000" stroke-width="3" d="M189.91,128.54c-8.971,30.66,5.83,26.72-11.44,48.59
	c-23.8,7.49-29.94-1.1-31.7-18.9C159.75,122.68,184.18,132.64,189.91,128.54z"/>
<path id="PATH15" fill="#F35ABD" stroke="#000000" stroke-width="3" d="M32.94,144.37c19.69,10.17,26.25-12.13,46.44,11.25
	c8.47,9.82,0.72,28.06-13.01,28.64C48.93,184.9,33.31,173.55,32.94,144.37z"/>
<path id="PATH16" fill="#F35ABD" stroke="#000000" stroke-width="3" d="M72.02,136.05c19.69,10.17,21.81-6.64,41.99,16.74
	c8.47,9.82-2.41,31.75-16.14,32.33C80.43,185.76,65.41,164.75,72.02,136.05L72.02,136.05z"/>
<path id="PATH17" fill="#F35ABD" stroke="#000000" stroke-width="3" d="M136.47,130.1c8.09,24.23,25.45,23.08,18.53,46.5
	c-3.73,13.35-36.21,16.37-45.8,6.19C101.73,145.7,125.56,155.21,136.47,130.1z"/>
<path id="PATH18" fill="none" stroke="#000000" stroke-width="3" stroke-miterlimit="100" d="M152.45,95.67l-3.34,7.97"/>
<path id="PATH19" fill="none" stroke="#000000" stroke-width="3" stroke-miterlimit="100" d="M159.72,101.25l-3.27,6.19"/>
<path id="PATH20" fill="none" stroke="#000000" stroke-width="3" stroke-miterlimit="100" d="M102.29,107.87l6.92,5.64"/>
<path id="PATH21" fill="none" stroke="#000000" stroke-width="3" stroke-miterlimit="100" d="M130.38,92.79l1.48,9.33"/>
<path id="PATH22" fill="none" stroke="#000000" stroke-width="3" stroke-miterlimit="100" d="M120.74,96.8l3.33,7.62"/>
<path id="PATH23" fill="none" stroke="#000000" stroke-width="3" stroke-miterlimit="100" d="M109.88,102.06l5.3,6.6"/>
<path id="PATH24" fill="none" stroke="#000000" stroke-width="3" stroke-miterlimit="100" d="M141.13,93.57l-0.6,9.66"/>
<path id="PATH25" fill="#327830" stroke="#000000" stroke-width="3" d="M200.5,186c13.5-11.5,19.5,3.5,29.5,0.5
	c14-4,24.5-18.5,38-11.5c9.5,4.5,9.5,18,15.5,22.5c6.5,5,24-7.5,39,17.5c5,11-7.5,15.5-2,23.5c5,11.5,14.5,17.5,15.5,23
	c1,4.5-3.5,13-3.5,19.5c1,12,4,21,0.5,22c-15,4-37-21.5-46-23c-16-2.5-27,1-32-0.5c-9-2.5-17.5-14-36.5-17.5c-22-4-30,6-36-12
	c-5.5-16,13.5-14,15.5-27.5C200.5,207,188.5,196,200.5,186z"/>
<path id="PATH26" fill="none" stroke="#000000" stroke-width="3" stroke-miterlimit="100" d="M240,272c0,0,20.79,1.87,32-2.5
	c6.98-2.72,10.37-7.01,17-10.5c8.11-4.26,22.5-9.5,22.5-9.5"/>
<path id="PATH27" fill="none" stroke="#000000" stroke-width="3" stroke-miterlimit="100" d="M238,272c0,0,25.33-1.73,40.5-1
	c3,0.14,5.03,0.06,8,0.5c11.95,1.75,16.95,11.47,28.5,15c3.87,1.18,10.5,2.5,10.5,2.5"/>
<path id="PATH28" fill="none" stroke="#000000" stroke-width="3" stroke-miterlimit="100" d="M216.5,259.5c0,0,12.45-13.87,21-21
	c7.75-6.47,13.35-10.3,22-15.5c8.12-4.88,22.5-11.5,22.5-11.5"/>
<path id="PATH29" fill="none" stroke="#000000" stroke-width="3" stroke-miterlimit="100" d="M98.5,376.49
	c-17.12,0-30.99-8.95-30.99-19.99s13.87-19.99,30.99-19.99s30.99,8.95,30.99,19.99S115.62,376.49,98.5,376.49z"/>
<path id="PATH30" fill="none" stroke="#000000" stroke-width="3" stroke-miterlimit="100" d="M97.75,385.49
	c-26.92,0-48.74-13.2-48.74-29.49s21.82-29.49,48.74-29.49s48.74,13.2,48.74,29.49S124.67,385.49,97.75,385.49z"/>
<path id="PATH31" fill="none" stroke="#000000" stroke-width="3" stroke-miterlimit="100" d="M100,401.49
	c-36.17,0-65.49-19.92-65.49-44.49s29.32-44.49,65.49-44.49s65.49,19.92,65.49,44.49S136.17,401.49,100,401.49z"/>
<path id="PATH32" fill="none" stroke="#000000" stroke-width="3" stroke-miterlimit="100" d="M101.25,414.99
	c-46.8,0-84.74-25.52-84.74-56.99s37.94-56.99,84.74-56.99s84.74,25.52,84.74,56.99S148.05,414.99,101.25,414.99z"/>
<path id="PATH33" fill="none" stroke="#000000" stroke-width="3" stroke-miterlimit="100" d="M102.99,430.99
	c-62.68,0-113.49-32.461-113.49-72.49c0-40.04,50.81-72.49,113.49-72.49c24.62,0,47.4,5.01,66,13.51l3.43,116.34
	C153.23,425.35,129.14,431,102.99,431L102.99,430.99z"/>
<path id="PATH34" fill="none" stroke="#000000" stroke-width="3" stroke-miterlimit="100" d="M-15.5,417c0,0,34.07,20.03,56.5,27
	c16.79,5.22,28.48,7.62,46,9c17.02,1.34,28.56,0.6,45.5-1.5c14.82-1.84,39-8,39-8"/>
<path id="PATH35" fill="none" stroke="#000000" stroke-width="3" stroke-miterlimit="100" d="M-20.5,443c0,0,41.6,20.77,68.5,27
	c26.21,6.07,44.62,7.26,71.5,6c22.76-1.06,60-9.5,60-9.5"/>
<path id="PATH36" fill="none" stroke="#000000" stroke-width="3" stroke-miterlimit="100" d="M-6,527.5c0,0,57.51,28.86,95,33.5
	c29.24,3.62,49.71,2.8,78.5-3.5c26.971-5.9,45.99-11.01,68.5-27c14.27-10.14,33.5-32.5,33.5-32.5"/>
<path id="PATH37" fill="none" stroke="#000000" stroke-width="3" stroke-miterlimit="100" d="M-7,586.5c0,0,58.5,19.67,95,23
	c40.06,3.65,68.6,4.479,107-7.5c28.58-8.92,47.42-18.06,71-36.5c15.25-11.92,25.46-20.6,36.5-36.5c5.89-8.479,13.5-24,13.5-24"/>
<path id="PATH38" fill="none" stroke="#000000" stroke-width="3" stroke-miterlimit="100" d="M284,631c0,0,29.01-14.44,43-27.5
	c16.35-15.26,24.81-28.61,34-49c3.85-8.54,8.5-23.5,8.5-23.5"/>
<path id="PATH39" fill="#327830" stroke="#000000" stroke-width="3" d="M213.67,521.17c-23.17,6.33-24.17-8.67-45.17-6.17
	c-22.5,2.5-42,17.5-55,16.5C105,531,93,523,80.5,522c-16-1-33.05,5.22-43,5.5c-12.24,0.25-13.5-7-21-16C9.5,503-6,503-8,493
	c-3-13.5,8.5-10.5,19-19.5c8.5-7-1.5-12,3.5-15.5c2.9-2.63,10.5-10.5,19-10.5c7,0,8,10.5,29.5,11c17,0,12-11.5,33-11.5
	c14.5,0,29.5,12.5,48,14c19,1.5,39.46-7.76,44-7.83c15.109-0.74,4.5,19.83,11,34.83C207.5,506.5,228.5,517,213.67,521.17z"/>
<path id="PATH40" fill="none" stroke="#000000" stroke-width="3" stroke-miterlimit="100" d="M2.5,492c0,0,18.63,7.85,30.5,9
	c11.24,1.09,19.06,0.29,30-2.5c10.5-2.68,16.39-7.6,26.5-11.5c7.97-3.07,13.02-6.52,21.5-7.5c10.96-1.27,18.02,3.9,29,5
	c9.15,0.92,24.5,1,24.5,1"/>
<path id="PATH41" fill="none" stroke="#000000" stroke-width="3" stroke-miterlimit="100" d="M77.5,459c0,0,13.21,2.6,18.5,8
	c3.87,3.96,7,13,7,13"/>
<path id="PATH42" fill="none" stroke="#000000" stroke-width="3" stroke-miterlimit="100" d="M16,469.5c0,0,20.14,3.66,31,9
	c5.51,2.71,10.17,3.7,14,8.5c3.04,3.81,5,12,5,12"/>
<path id="PATH43" fill="#327830" stroke="#000000" stroke-width="3" d="M55,241c8-2.5,14.5,11.5,27,5.5c13-6.5,6-25,37.5-32
	c13.5-3,37,8,50,19.5c11,9,29.5,22.5,24.5,35c-4,10-42,10-62.5,26.5c-22.5,17.5-32,38-40,40c-10.5,3-40.5-8.5-51-10.5
	c-23-5-31,3-39.5-0.5c-12-5-14.5-13.5-14.5-24.5c0-20,16-15.5,36.5-25C52.5,261,42,245,55,241z"/>
<path id="PATH44" fill="none" stroke="#000000" stroke-width="3" stroke-miterlimit="100" d="M0.5,309c0,0,12.87-2.02,20-5
	c4.1-1.71,6.2-4.391,10.5-5.5c8.98-2.311,14.75,5.3,24,6c8.82,0.67,15.07,0.67,23.5-2c8.49-2.689,16.56-4.01,20.5-12
	c3.31-6.73,0.78-12.61-0.5-20C97.33,263.72,93,253,93,253"/>
<path id="PATH45" fill="none" stroke="#000000" stroke-width="3" stroke-miterlimit="100" d="M42,268c0,0,14.26,3.86,22,8
	c10.69,5.71,25,20.5,25,20.5"/>
<path id="PATH47" fill="#327830" stroke="#000000" stroke-width="3" d="M315,547.5c-0.5,7-32-5-45,6c-18.5,16-24-5-37.5-5.5
	c-12-0.5-8,12-32.5,11c-12.5-0.5-49.5-15-41.5-26.5C166,522,206,514,244.5,518C281.5,521.5,315.5,538.5,315,547.5z"/>
<path id="PATH48" fill="#F35ABD" stroke="#000000" stroke-width="3" d="M331.15,406.01c2.489,24.84,9.35,31.021-10.37,62.971
	c-27.65,5.609-32.33-4.25-32.2-24.471C299.04,417.21,296.57,438.15,331.15,406.01z"/>
<path id="PATH49" fill="#F35ABD" stroke="#000000" stroke-width="3" d="M145.93,428.2c23.43,10.359,27.73-9.78,47.66,18.899
	c8.36,12.051-2.5,31.641-18.01,30.671C155.89,476.42,135.25,462.64,145.93,428.2L145.93,428.2z"/>
<path id="PATH50" fill="#F35ABD" stroke="#000000" stroke-width="3" d="M189.189,402.75c-33.41,20.48-23.64,30.96-2.6,46.8
	c19.189,14.45,44.811,9.84,41.46-14.359C223.88,406.58,212.721,414.891,189.189,402.75L189.189,402.75z"/>
<path id="PATH51" fill="#F35ABD" stroke="#000000" stroke-width="3" d="M194.57,386.42c-0.49,13.34,0.49,28.311,2.41,34.551
	c2.449,8.989,7.74,7.01,21.51,24.829c28.08,2.69,31.699-7.609,29.46-27.7C228.83,382.24,217.9,400.65,194.57,386.42L194.57,386.42z"
	/>
<path id="PATH52" fill="#F35ABD" stroke="#000000" stroke-width="3" d="M266.8,384.41c2.681,20.869,16.24,30.061,5.69,55.59
	c-5.971,14.58-29.77,14.24-35.24,0.66c-4.49-10.07-11.58-24.36-6.55-26.61C247.59,403.65,245.891,393.83,266.8,384.41L266.8,384.41z
	"/>
<path id="PATH53" fill="#F35ABD" stroke="#000000" stroke-width="3" d="M304.25,391.96c2.49,24.84,9.35,31.02-10.37,62.97
	c-27.649,5.61-39.43-3.68-31.271-21.939c7.471-16.24,16.751-20.69,41.65-41.02L304.25,391.96z"/>
<path id="PATH54" fill="#FF9CDC" stroke="#000000" stroke-width="3" d="M251.32,482.32c-17.67,0.93-32.45-6.811-33-17.28
	c-0.551-10.47,13.33-19.71,31.01-20.64c17.67-0.931,32.45,6.81,33,17.279C282.88,472.15,269,481.39,251.32,482.32z"/>
<path id="PATH55" fill="#F35ABD" stroke="#000000" stroke-width="3" d="M336.82,446.14c2.489,24.841,9.35,31.021-10.37,62.971
	c-27.65,5.609-32.33-4.25-32.2-24.471C304.71,457.34,302.24,478.28,336.82,446.14z"/>
<path id="PATH56" fill="#F35ABD" stroke="#000000" stroke-width="3" d="M138.39,448.81c20.93,13.771,30.52-7.54,50.45,21.141
	c8.36,12.05-2.5,31.64-18.01,30.67C151.14,499.271,127.71,483.26,138.39,448.81L138.39,448.81z"/>
<path id="PATH57" fill="#F35ABD" stroke="#000000" stroke-width="3" d="M185.95,448.7c-1.22,33.359,0.96,29.67,23.92,59.39
	c28.08,2.69,31.7-7.609,29.46-27.7c-19.12-35.859-30.051-17.449-53.38-31.68V448.7z"/>
<path id="PATH58" fill="#F35ABD" stroke="#000000" stroke-width="3" d="M299.93,445.7c2.49,24.84,9.351,31.02-10.37,62.97
	c-27.649,5.61-32.329-4.25-32.2-24.47C267.82,456.9,265.35,477.84,299.93,445.7z"/>
<path id="PATH59" fill="#F35ABD" stroke="#000000" stroke-width="3" d="M344.58,480.81c-13.71,33.42,0.12,24.96-20.51,51.011
	c-27.65,5.609-33.45-3-26.71-21.79c22.04-33.261,22.689-20.811,47.22-29.23V480.81z"/>
<path id="PATH60" fill="#F35ABD" stroke="#000000" stroke-width="3" d="M313.09,481.27c-13.71,33.421,3.391,30.74-18.609,53.29
	c-27.65,5.61-33.541-4.779-33.41-25C279.86,471.12,306.16,485.2,313.09,481.27L313.09,481.27z"/>
<path id="PATH61" fill="#F35ABD" stroke="#000000" stroke-width="3" d="M134.7,480.51c20.93,13.771,30.96-10.54,50.89,18.141
	c8.36,12.05-2.5,31.64-18.01,30.67C147.89,527.97,131.67,513.37,134.7,480.51z"/>
<path id="PATH62" fill="#F35ABD" stroke="#000000" stroke-width="3" d="M179.64,475.78c20.93,13.77,25.31-4.891,45.24,23.79
	c8.36,12.05-6.47,35.409-21.97,34.439c-19.689-1.35-34.1-26.75-23.26-58.229H179.64z"/>
<path id="PATH63" fill="#F35ABD" stroke="#000000" stroke-width="3" d="M252.811,476.7c6.229,28.21,25.89,28.96,15.34,54.479
	c-5.78,14.57-42.66,14.13-52.24,1.55C211.891,490.14,237.57,503.65,252.811,476.7L252.811,476.7z"/>
<path id="PATH64" fill="none" stroke="#000000" stroke-width="3" stroke-miterlimit="100" d="M274.859,439.88l-4.699,8.57"/>
<path id="PATH65" fill="none" stroke="#000000" stroke-width="3" stroke-miterlimit="100" d="M282.37,447.01l-4.41,6.57"/>
<path id="PATH66" fill="none" stroke="#000000" stroke-width="3" stroke-miterlimit="100" d="M217,447.66l7.109,7.16"/>
<path id="PATH67" fill="none" stroke="#000000" stroke-width="3" stroke-miterlimit="100" d="M250.37,434.02l0.56,10.671"/>
<path id="PATH68" fill="none" stroke="#000000" stroke-width="3" stroke-miterlimit="100" d="M239.061,437.39l2.85,8.971"/>
<path id="PATH69" fill="none" stroke="#000000" stroke-width="3" stroke-miterlimit="100" d="M226.221,442.03l5.18,8.05"/>
<path id="PATH70" fill="none" stroke="#000000" stroke-width="3" stroke-miterlimit="100" d="M262.38,436.17l-1.81,10.8"/>
<path id="PATH71" fill="none" stroke="#000000" stroke-width="3" stroke-miterlimit="100" d="M370.59,620.76H3.92V2.24h366.67
	V620.76z"/>
<g>
	<g>
		<path fill="#333333" d="M276.292,55.037l-1.363-3.404l-4.083-2.04c-2.723,0-4.078,2.04-4.078,5.444
			c0,3.404,1.355,4.766,4.078,4.766l4.083-1.362L276.292,55.037z"/>
	</g>
</g>
<g>
	<g>
		<path fill="#333333" d="M243.624,61.163l-1.365-3.401l-3.399-2.045c-3.406,0-5.445,2.045-5.445,5.446
			c0,3.404,2.039,4.763,5.445,4.763l3.399-1.359L243.624,61.163z"/>
	</g>
</g>
<g>
	<g>
		<path fill="#333333" d="M305.558,74.776c0-3.402-1.357-4.765-4.761-4.765c-3.402,0-5.451,1.363-5.451,4.765
			c0,3.405,2.049,5.443,5.451,5.443S305.558,78.181,305.558,74.776z"/>
	</g>
</g>
<g>
	<g>
		<path fill="#333333" d="M284.458,76.817l-1.362-4.083l-3.399-1.361c-3.403,0-5.443,1.361-5.443,5.444
			c0,3.402,2.04,4.766,5.443,4.766c1.359,0,2.042,0,3.399-1.364L284.458,76.817z"/>
	</g>
</g>
<g>
	<g>
		<path fill="#333333" d="M314.409,121.057l-2.047-3.402l-3.402-1.362c-3.401,0-4.759,1.362-4.759,4.767
			c0,3.401,1.356,5.443,4.759,5.443l3.402-1.361L314.409,121.057z"/>
	</g>
</g>
<g>
	<g>
		<path fill="#333333" d="M290.587,123.098l-1.363-3.404c-1.358-0.678-2.038-1.358-4.087-1.358c-2.718,0-4.081,1.358-4.081,4.763
			c0,3.403,1.364,5.445,4.081,5.445l4.087-1.361L290.587,123.098z"/>
	</g>
</g>
<g>
	<g>
		<path fill="#333333" d="M259.275,47.552l-2.041-3.401l-3.402-1.365c-3.398,0-4.764,1.365-4.764,4.766
			c0,3.402,1.365,5.443,4.764,5.443l3.402-1.363L259.275,47.552z"/>
	</g>
</g>
<g>
	<g>
		<path fill="#333333" d="M298.75,49.592l-1.355-3.403c-0.685-0.679-2.725-1.362-3.401-1.362c-3.404,0-5.449,1.362-5.449,4.765
			c0,3.403,2.045,5.444,5.449,5.444l3.401-1.358L298.75,49.592z"/>
	</g>
</g>
<g>
	<g>
		<path fill="#333333" d="M299.863,101.405L298.5,98c-1.358-0.677-2.038-1.358-4.087-1.358c-2.718,0-4.081,1.358-4.081,4.763
			c0,3.403,1.364,5.445,4.081,5.445l4.087-1.361L299.863,101.405z"/>
	</g>
</g>
<g>
	<g>
		<path fill="#333333" d="M78.587,211.098l-1.363-3.405c-1.358-0.677-2.038-1.358-4.087-1.358c-2.718,0-4.081,1.358-4.081,4.763
			c0,3.403,1.364,5.445,4.081,5.445l4.087-1.361L78.587,211.098z"/>
	</g>
</g>
<g>
	<g>
		<path fill="#333333" d="M58.031,206l-1.363-3.405c-1.358-0.677-2.038-1.358-4.087-1.358c-2.718,0-4.081,1.358-4.081,4.763
			c0,3.403,1.364,5.445,4.081,5.445l4.087-1.361L58.031,206z"/>
	</g>
</g>
<g>
	<g>
		<path fill="#333333" d="M104.031,199l-1.363-3.405c-1.358-0.677-2.038-1.358-4.087-1.358c-2.718,0-4.081,1.358-4.081,4.763
			c0,3.403,1.364,5.445,4.081,5.445l4.087-1.361L104.031,199z"/>
	</g>
</g>
<g>
	<g>
		<path fill="#333333" d="M26.587,248.098l-1.363-3.405c-1.358-0.677-2.038-1.358-4.087-1.358c-2.718,0-4.081,1.358-4.081,4.763
			c0,3.403,1.364,5.445,4.081,5.445l4.087-1.361L26.587,248.098z"/>
	</g>
</g>
<g>
	<g>
		<path fill="#333333" d="M30.587,198.098l-1.363-3.405c-1.358-0.677-2.038-1.358-4.087-1.358c-2.718,0-4.081,1.358-4.081,4.763
			c0,3.403,1.364,5.445,4.081,5.445l4.087-1.361L30.587,198.098z"/>
	</g>
</g>
<g>
	<g>
		<path fill="#333333" d="M24.863,168.917l-1.363-3.405c-1.358-0.677-2.038-1.358-4.087-1.358c-2.718,0-4.081,1.358-4.081,4.763
			c0,3.403,1.364,5.445,4.081,5.445L23.5,173L24.863,168.917z"/>
	</g>
</g>
<g>
	<g>
		<path fill="#333333" d="M23.587,97.098l-1.363-3.405c-1.358-0.677-2.038-1.358-4.087-1.358c-2.718,0-4.081,1.358-4.081,4.763
			c0,3.403,1.364,5.445,4.081,5.445l4.087-1.361L23.587,97.098z"/>
	</g>
</g>
<g>
	<g>
		<path fill="#333333" d="M18.863,130.917l-1.363-3.405c-1.358-0.677-2.038-1.358-4.087-1.358c-2.718,0-4.081,1.358-4.081,4.763
			c0,3.403,1.364,5.445,4.081,5.445L17.5,135L18.863,130.917z"/>
	</g>
</g>
<g>
	<g>
		<path fill="#333333" d="M56.863,73.917L55.5,70.511c-1.358-0.677-2.038-1.358-4.087-1.358c-2.718,0-4.081,1.358-4.081,4.763
			c0,3.403,1.364,5.445,4.081,5.445L55.5,78L56.863,73.917z"/>
	</g>
</g>
<g>
	<g>
		<path fill="#333333" d="M103.587,46.098l-1.363-3.405c-1.358-0.677-2.038-1.358-4.087-1.358c-2.718,0-4.081,1.358-4.081,4.763
			c0,3.403,1.364,5.445,4.081,5.445l4.087-1.361L103.587,46.098z"/>
	</g>
</g>
<g>
	<g>
		<path fill="#333333" d="M129.587,34.098l-1.363-3.405c-1.358-0.677-2.038-1.358-4.087-1.358c-2.718,0-4.081,1.358-4.081,4.763
			c0,3.403,1.364,5.445,4.081,5.445l4.087-1.361L129.587,34.098z"/>
	</g>
</g>
<g>
	<g>
		<path fill="#333333" d="M160.863,44.917l-1.363-3.405c-1.358-0.677-2.038-1.358-4.087-1.358c-2.718,0-4.081,1.358-4.081,4.763
			c0,3.403,1.364,5.445,4.081,5.445L159.5,49L160.863,44.917z"/>
	</g>
</g>
<g>
	<g>
		<path fill="#333333" d="M210.587,50.098l-1.363-3.405c-1.358-0.677-2.038-1.358-4.087-1.358c-2.718,0-4.081,1.358-4.081,4.763
			c0,3.403,1.364,5.445,4.081,5.445l4.087-1.361L210.587,50.098z"/>
	</g>
</g>
<g>
	<g>
		<path fill="#333333" d="M281.624,292.163l-1.365-3.401l-3.399-2.045c-3.406,0-5.445,2.045-5.445,5.446
			c0,3.403,2.039,4.763,5.445,4.763l3.399-1.359L281.624,292.163z"/>
	</g>
</g>
<g>
	<g>
		<path fill="#333333" d="M343.558,305.775c0-3.401-1.357-4.765-4.761-4.765c-3.402,0-5.451,1.363-5.451,4.765
			c0,3.406,2.049,5.443,5.451,5.443S343.558,309.182,343.558,305.775z"/>
	</g>
</g>
<g>
	<g>
		<path fill="#333333" d="M355.813,328.916c0-3.402-2.046-5.447-4.767-5.447c-1.36,0-2.038,1.362-3.403,2.045
			c-1.361,0.68-1.361,2.041-1.361,3.401c0,2.722,1.361,4.761,4.766,4.761C353.767,333.68,355.813,331.639,355.813,328.916z"/>
	</g>
</g>
<g>
	<g>
		<path fill="#333333" d="M357.168,282.633l-1.355-3.402c-0.685-0.677-2.724-1.359-3.402-1.359c-3.4,0-5.449,1.359-5.449,4.761
			c0,3.404,2.049,5.447,5.449,5.447l3.402-1.363L357.168,282.633z"/>
	</g>
</g>
<g>
	<g>
		<path fill="#333333" d="M322.458,307.816l-1.362-4.082l-3.399-1.361c-3.403,0-5.443,1.361-5.443,5.443
			c0,3.402,2.04,4.767,5.443,4.767c1.359,0,2.042,0,3.399-1.364L322.458,307.816z"/>
	</g>
</g>
<g>
	<g>
		<path fill="#333333" d="M352.409,352.057l-2.047-3.402l-3.402-1.362c-3.401,0-4.759,1.362-4.759,4.767
			c0,3.401,1.356,5.443,4.759,5.443l3.402-1.361L352.409,352.057z"/>
	</g>
</g>
<g>
	<g>
		<path fill="#333333" d="M328.587,354.098l-1.363-3.404c-1.358-0.678-2.038-1.358-4.087-1.358c-2.718,0-4.081,1.358-4.081,4.763
			c0,3.403,1.364,5.445,4.081,5.445l4.087-1.361L328.587,354.098z"/>
	</g>
</g>
<g>
	<g>
		<path fill="#333333" d="M352.409,398.337l-2.047-3.403l-3.402-2.041c-3.401,0-4.759,2.041-4.759,5.444
			c0,3.401,1.356,4.765,4.759,4.765l3.402-1.363L352.409,398.337z"/>
	</g>
</g>
<g>
	<g>
		<path fill="#333333" d="M339.474,377.241l-0.677-3.403c-1.363-1.363-2.724-2.046-4.087-2.046c-2.719,0-4.768,2.046-4.768,5.449
			c0,3.401,2.049,4.762,4.768,4.762l4.087-1.36L339.474,377.241z"/>
	</g>
</g>
<g>
	<g>
		<path fill="#333333" d="M358.53,423.52c0-3.402-2.04-4.768-5.441-4.768c-3.402,0-4.769,1.364-4.769,4.768
			c0,3.402,1.365,4.766,4.769,4.766C356.49,428.286,358.53,426.923,358.53,423.52z"/>
	</g>
</g>
<g>
	<g>
		<path fill="#333333" d="M276.292,322.037l-1.363-3.404l-4.083-2.04c-2.723,0-4.078,2.04-4.078,5.444s1.355,4.766,4.078,4.766
			l4.083-1.361L276.292,322.037z"/>
	</g>
</g>
<g>
	<g>
		<path fill="#333333" d="M305.558,341.775c0-3.401-1.357-4.765-4.761-4.765c-3.402,0-5.451,1.363-5.451,4.765
			c0,3.406,2.049,5.443,5.451,5.443S305.558,345.182,305.558,341.775z"/>
	</g>
</g>
<g>
	<g>
		<path fill="#333333" d="M284.458,343.816l-1.362-4.082l-3.399-1.361c-3.403,0-5.443,1.361-5.443,5.443
			c0,3.402,2.04,4.767,5.443,4.767c1.359,0,2.042,0,3.399-1.364L284.458,343.816z"/>
	</g>
</g>
<g>
	<g>
		<path fill="#333333" d="M314.409,388.057l-2.047-3.402l-3.402-1.362c-3.401,0-4.759,1.362-4.759,4.767
			c0,3.401,1.356,5.443,4.759,5.443l3.402-1.361L314.409,388.057z"/>
	</g>
</g>
<g>
	<g>
		<path fill="#333333" d="M290.587,390.098l-1.363-3.404c-1.358-0.678-2.038-1.358-4.087-1.358c-2.718,0-4.081,1.358-4.081,4.763
			c0,3.403,1.364,5.445,4.081,5.445l4.087-1.361L290.587,390.098z"/>
	</g>
</g>
<g>
	<g>
		<path fill="#333333" d="M298.75,316.592l-1.355-3.402c-0.685-0.68-2.725-1.362-3.401-1.362c-3.404,0-5.449,1.362-5.449,4.765
			c0,3.403,2.045,5.444,5.449,5.444l3.401-1.358L298.75,316.592z"/>
	</g>
</g>
<g>
	<g>
		<path fill="#333333" d="M299.863,368.405L298.5,365c-1.358-0.677-2.038-1.357-4.087-1.357c-2.718,0-4.081,1.357-4.081,4.763
			c0,3.403,1.364,5.444,4.081,5.444l4.087-1.361L299.863,368.405z"/>
	</g>
</g>
<g>
	<g>
		<path fill="#333333" d="M223.248,343.267l-1.363-3.404l-4.083-2.04c-2.723,0-4.078,2.04-4.078,5.444s1.355,4.766,4.078,4.766
			l4.083-1.361L223.248,343.267z"/>
	</g>
</g>
<g>
	<g>
		<path fill="#333333" d="M252.514,363.005c0-3.401-1.357-4.765-4.761-4.765c-3.402,0-5.451,1.363-5.451,4.765
			c0,3.406,2.049,5.443,5.451,5.443S252.514,366.411,252.514,363.005z"/>
	</g>
</g>
<g>
	<g>
		<path fill="#333333" d="M231.414,365.046l-1.362-4.082l-3.399-1.361c-3.403,0-5.443,1.361-5.443,5.443
			c0,3.402,2.04,4.767,5.443,4.767c1.359,0,2.042,0,3.399-1.364L231.414,365.046z"/>
	</g>
</g>
<g>
	<g>
		<path fill="#333333" d="M245.706,337.821l-1.355-3.402c-0.685-0.68-2.725-1.362-3.401-1.362c-3.404,0-5.449,1.362-5.449,4.765
			c0,3.403,2.045,5.444,5.449,5.444l3.401-1.358L245.706,337.821z"/>
	</g>
</g>
<g>
	<g>
		<path fill="#333333" d="M246.819,389.635l-1.363-3.405c-1.358-0.677-2.038-1.357-4.087-1.357c-2.718,0-4.081,1.357-4.081,4.763
			c0,3.403,1.364,5.444,4.081,5.444l4.087-1.361L246.819,389.635z"/>
	</g>
</g>
<g>
	<g>
		<path fill="#333333" d="M252.024,309l-1.363-3.404l-4.083-2.04c-2.723,0-4.078,2.04-4.078,5.444s1.355,4.766,4.078,4.766
			l4.083-1.361L252.024,309z"/>
	</g>
</g>
<g>
	<g>
		<path fill="#333333" d="M267.024,342l-1.363-3.404l-4.083-2.04c-2.723,0-4.078,2.04-4.078,5.444s1.355,4.766,4.078,4.766
			l4.083-1.361L267.024,342z"/>
	</g>
</g>
<g>
	<g>
		<path fill="#333333" d="M326.813,135.916c0-3.402-2.046-5.447-4.767-5.447c-1.36,0-2.038,1.362-3.403,2.044
			c-1.361,0.681-1.361,2.041-1.361,3.402c0,2.722,1.361,4.761,4.766,4.761C324.767,140.679,326.813,138.638,326.813,135.916z"/>
	</g>
</g>
<g>
	<g>
		<path fill="#333333" d="M323.409,159.057l-2.047-3.403l-3.402-1.362c-3.401,0-4.759,1.362-4.759,4.766
			c0,3.402,1.356,5.444,4.759,5.444l3.402-1.361L323.409,159.057z"/>
	</g>
</g>
<g>
	<g>
		<path fill="#333333" d="M299.587,161.098l-1.363-3.405c-1.358-0.677-2.038-1.358-4.087-1.358c-2.718,0-4.081,1.358-4.081,4.763
			c0,3.403,1.364,5.445,4.081,5.445l4.087-1.362L299.587,161.098z"/>
	</g>
</g>
<g>
	<g>
		<path fill="#333333" d="M310.474,184.241l-0.677-3.403c-1.363-1.363-2.724-2.046-4.087-2.046c-2.719,0-4.768,2.046-4.768,5.449
			c0,3.401,2.049,4.762,4.768,4.762l4.087-1.36L310.474,184.241z"/>
	</g>
</g>
<g>
	<g>
		<path fill="#333333" d="M276.558,148.776c0-3.402-1.357-4.765-4.761-4.765c-3.402,0-5.451,1.363-5.451,4.765
			c0,3.405,2.049,5.443,5.451,5.443S276.558,152.181,276.558,148.776z"/>
	</g>
</g>
<g>
	<g>
		<path fill="#333333" d="M341.624,186.163l-1.365-3.401l-3.399-2.045c-3.406,0-5.445,2.045-5.445,5.446
			c0,3.404,2.039,4.763,5.445,4.763l3.399-1.359L341.624,186.163z"/>
	</g>
</g>
<g>
	<g>
		<path fill="#333333" d="M336.292,216.037l-1.363-3.404l-4.083-2.04c-2.723,0-4.078,2.04-4.078,5.444s1.355,4.766,4.078,4.766
			l4.083-1.361L336.292,216.037z"/>
	</g>
</g>
<g>
	<g>
		<path fill="#333333" d="M365.558,235.775c0-3.401-1.357-4.765-4.761-4.765c-3.402,0-5.451,1.363-5.451,4.765
			c0,3.406,2.049,5.443,5.451,5.443S365.558,239.182,365.558,235.775z"/>
	</g>
</g>
<g>
	<g>
		<path fill="#333333" d="M344.458,237.816l-1.362-4.082l-3.399-1.361c-3.403,0-5.443,1.361-5.443,5.443
			c0,3.402,2.04,4.767,5.443,4.767c1.359,0,2.042,0,3.399-1.364L344.458,237.816z"/>
	</g>
</g>
<g>
	<g>
		<path fill="#333333" d="M358.75,210.592l-1.355-3.403c-0.685-0.679-2.725-1.362-3.401-1.362c-3.404,0-5.449,1.362-5.449,4.765
			c0,3.403,2.045,5.444,5.449,5.444l3.401-1.358L358.75,210.592z"/>
	</g>
</g>
<g>
	<g>
		<g>
			<path fill="#E61F19" d="M149.039,74.349c2.945,37.119,1.177,80.126-5.893,129.029c-13.55,97.213-45.366,175.57-94.859,233.312
				l116.663,4.715c47.13-60.684,75.411-139.048,86.015-237.437c5.303-48.314,5.303-91.323,1.179-128.441L149.039,74.349z"/>
		</g>
	</g>
	<g>
		<g>
			<path d="M146.095,74.938c2.945,37.71,0.585,80.718-6.483,129.033c-14.139,96.622-45.362,173.805-93.676,230.951l-0.595,2.943
				l2.361,1.773l117.248,4.711c0.587,0,1.175-0.592,1.765-1.764c47.135-59.508,76.003-138.458,86.607-236.852
				c5.891-48.9,5.891-92.501,1.769-130.798c0-1.766-1.181-2.355-2.947-2.355L149.04,71.404l-1.767,1.178L146.095,74.938z
				 M249.785,78.472c1.769,14.138,1.769,31.227,1.769,50.668c0,51.259-5.302,99.57-15.318,144.938
				c-14.728,65.987-38.887,120.193-73.06,164.379l-109.582-4.711c38.882-47.133,66.572-107.821,83.067-182.058
				c11.199-48.31,16.503-97.8,16.503-148.47l-1.18-25.922L249.785,78.472z"/>
		</g>
	</g>
</g>
</svg>
