<?xml version="1.0" encoding="utf-8"?>
<!-- Generator: Adobe Illustrator 13.0.0, SVG Export Plug-In . SVG Version: 6.00 Build 14948)  -->
<!DOCTYPE svg PUBLIC "-//W3C//DTD SVG 1.1//EN" "http://www.w3.org/Graphics/SVG/1.1/DTD/svg11.dtd">
<svg version="1.1" id="圖層_1" xmlns="http://www.w3.org/2000/svg" xmlns:xlink="http://www.w3.org/1999/xlink" x="0px" y="0px"
	 width="372px" height="587px" viewBox="0 0 372 587" enable-background="new 0 0 372 587" xml:space="preserve">
<path id="PATH77" fill="none" stroke="#000000" stroke-width="3" stroke-miterlimit="100" d="M370.59,585.26H3.92V2.74h366.67
	V585.26L370.59,585.26z"/>
<g>
	<g>
		<path fill="#D96038" d="M258.382,339.532l-14.725-14.718l-3.347,20.077c-0.666,12.719,4.688,17.396,14.725,14.718
			C264.406,356.263,265.746,349.57,258.382,339.532z"/>
	</g>
	<g>
		<path d="M241.651,324.148l-3.347,16.058c-1.339,9.364,0,16.057,3.347,19.403c3.347,3.346,8.032,4.018,14.057,2.012
			c6.02-1.34,9.365-4.686,10.038-9.371c0.667-5.354-2.011-11.371-8.705-18.737l-11.37-10.037l-2.681-0.674L241.651,324.148z
			 M260.388,350.244v0.672c-0.666,2.674-3.347,4.014-6.691,6.02l-8.025-0.673c-2.014-2-2.681-5.347-2.681-9.366
			c0-4.685,0.667-10.037,2.681-16.729C255.708,338.199,260.388,344.892,260.388,350.244z"/>
	</g>
	<g>
		<path d="M233.62,292.687c-1.334,0-2.006,1.346-1.334,3.346l9.365,30.115c0.674,1.346,1.339,2.013,3.347,1.346
			c1.34,0,2.006-1.346,1.34-3.346l-9.372-30.115C236.299,292.687,235.633,291.354,233.62,292.687z"/>
	</g>
	<g>
		<path fill="#D96038" d="M151.981,53.784l20.077,2.007c-2.014-6.692-5.36-12.711-9.373-18.069
			c-7.358-10.039-14.051-10.706-19.409-2.007C136.583,43.747,139.93,50.439,151.981,53.784z"/>
	</g>
	<g>
		<path d="M152.647,27.016c-4.013,0-8.031,2.007-12.044,6.692c-4.02,5.353-4.02,10.039-2.006,14.051
			c3.346,6.692,14.717,10.039,33.461,10.705l2.672-1.333v-2.68C168.711,37.055,161.346,27.683,152.647,27.016z M142.609,43.08
			c0-1.347,0.667-3.346,2.679-6.025c2.006-3.347,4.679-4.687,6.693-4.687c4.679,0.674,10.038,7.366,16.057,20.077
			c-14.05,0-22.75-2.673-24.761-7.365L142.609,43.08z"/>
	</g>
	<g>
		<path d="M170.044,53.784c-1.333,2.007-1.333,3.347,0.673,4.013l26.096,18.07c2.013,1.34,2.679,1.34,3.345-0.673
			c1.341-1.333,1.341-2.673,0-4.013l-26.768-17.397C172.058,52.445,170.718,52.445,170.044,53.784z"/>
	</g>
	<g>
		<path fill="#D96038" d="M50.926,323.476c10.711-0.674,13.384-6.693,8.032-18.07l-10.705-17.398l-8.032,18.738
			C37.542,319.456,40.888,324.814,50.926,323.476z"/>
	</g>
	<g>
		<path d="M48.254,285.996l-2.014,0.673c-8.698,17.402-11.371,29.441-7.358,34.8c2.006,4.013,6.025,5.354,12.044,5.354
			c6.692-0.674,10.711-3.347,12.717-7.366c1.34-4.679,0.667-11.371-4.019-19.402l-9.365-13.385
			C50.26,285.996,49.587,285.996,48.254,285.996z M58.292,317.457c-0.673,1.999-3.346,3.346-7.365,3.346
			c-4.013,0.666-6.692,0-8.032-2.015l-0.667-4.677c0-4.694,2.006-11.385,6.026-20.75c7.358,9.366,10.705,16.73,10.705,21.417
			L58.292,317.457z"/>
	</g>
	<g>
		<path d="M45.574,253.882c-1.34,0-2.006,1.333-2.006,2.673l2.006,32.119c0.667,2.014,1.34,2.681,2.68,2.014l2.006-0.674
			l0.667-2.006l-2.672-31.453C48.254,254.548,47.581,253.882,45.574,253.882z"/>
	</g>
	<g>
		<path fill="#858585" d="M368.801,114.68l2.006-40.819c-52.197,40.819-95.695,70.934-129.155,89.676
			c-21.417,12.039-42.825,26.769-63.576,45.499l-26.094,23.422c-24.764-28.768-56.883-56.882-95.703-84.984
			c-19.403-14.051-36.807-25.436-51.523-33.46v23.422c26.094,18.737,55.542,46.845,88.33,83.651
			c16.73,18.736,30.788,35.467,42.165,50.858c-5.358,24.762-8.705,63.573-7.366,115.104c-25.427-16.729-53.535-30.787-85.657-40.825
			l-40.152-10.04v18.078l46.179,23.422c34.793,18.729,60.229,38.808,76.286,57.549c16.731,19.41,32.121,50.191,46.845,93.69
			c6.691,22.083,12.043,41.486,16.064,58.887h133.168c-10.038-10.71-22.083-30.114-38.141-57.554
			c-16.73-29.442-30.115-50.19-39.486-61.562c-19.408-23.422-32.12-45.513-38.813-64.915l-4.02-22.749
			c-1.332-8.038-1.332-23.421,0-44.847l2.015-30.114c2.67-8.023,7.357-16.729,13.384-28.1c8.697-14.724,18.735-29.448,30.114-43.499
			C262.4,213.055,303.22,172.903,368.801,114.68z"/>
	</g>
	<g>
		<path d="M370.807,117.36l1.341-2.68l2.006-40.819l-1.333-2.68h-4.02c-52.862,41.492-95.695,70.934-129.156,89.677
			c-18.07,10.705-37.472,23.422-56.216,39.486l-31.447,27.435c-24.097-28.108-55.55-55.549-94.363-83.651l-51.53-33.46H2.741
			c-0.666,0.667-1.333,2.006-1.333,3.346v23.422l1.333,3.346c24.763,16.73,51.531,42.832,82.985,76.958
			c19.41,21.411,34.127,39.486,46.178,55.543c-5.358,22.75-7.365,58.223-7.365,106.4v1.348
			c-24.762-16.064-52.864-29.448-82.978-38.819l-39.486-9.371l-2.679,0.672l-0.667,2.672v18.078l2.005,2.673l46.846,24.096
			c33.46,18.73,58.889,37.474,74.286,56.883c16.73,18.729,31.447,48.843,45.505,91.677c7.358,21.416,12.71,41.491,16.729,58.896
			c0.667,2,1.341,2.672,3.348,2.672h133.168l2.679-2.005l0.666-1.343l-0.666-2.004c-10.038-11.378-23.423-31.455-40.153-60.229
			c-14.723-27.436-27.435-46.845-36.805-58.897c-17.397-21.407-30.114-40.817-36.808-58.882
			c-4.013-10.037-6.691-19.408-6.691-25.435l2.679-75.619c2.673-6.691,6.691-16.057,12.713-26.096
			c8.029-14.73,18.068-30.114,30.113-44.171C264.406,215.728,305.9,176.249,370.807,117.36z M366.796,81.22l-0.669,32.127
			l-56.883,51.524c-34.133,32.126-56.216,54.875-66.254,67.586c-11.376,14.058-20.742,28.115-30.114,42.832
			c-6.691,12.051-11.377,22.09-14.05,29.449v1.331l-2.013,76.96c0,6.693,2.013,16.731,6.025,27.442
			c7.358,18.07,20.076,38.813,37.472,60.902c9.373,10.702,22.09,30.114,36.809,57.549c15.396,25.428,27.44,44.83,36.139,55.541
			H190.122c-17.398-72.273-38.141-123.13-62.904-151.242c-15.39-18.73-38.812-36.809-69.6-54.871
			c-17.396-10.038-34.8-18.742-52.197-26.769v-11.377c14.725,2.673,30.114,6.69,46.178,12.709
			c28.102,9.373,52.197,21.424,73.614,36.809h4.013l2.005-2.674v-6.019c0-50.191,2.006-85.663,7.366-107.748v-1.338l-0.674-2.007
			l-42.158-50.191c-32.794-37.479-62.236-65.581-87.665-83.651v-16.73c18.064,11.378,38.14,24.762,59.556,40.152
			c32.794,25.429,60.228,50.191,81.645,74.953l2.68,1.333l2.006-1.333l26.095-23.422c21.417-18.07,42.833-32.128,62.908-44.166
			C275.111,148.807,316.604,120.706,366.796,81.22z"/>
	</g>
	<g>
		<path d="M251.689,552.345c-18.735,8.699-37.472,15.392-56.211,18.737c-0.672,0.673-1.339,1.339-0.672,2.672l2.007,1.347
			c18.743-4.019,37.479-10.036,56.215-18.742l23.424-12.044v-3.347h-2.681L251.689,552.345z"/>
	</g>
	<g>
		<path d="M238.305,582.46c-1.339,0-2.006,1.333-1.339,2.681c0,0.666,1.339,1.332,2.679,0.666
			c19.411-6.693,36.142-14.052,50.192-23.422c2.006-0.668,2.006-1.341,0.665-2.68c-0.665-0.666-1.332-0.666-2.006-0.666
			C273.105,567.736,256.375,575.769,238.305,582.46z"/>
	</g>
	<g>
		<path d="M190.122,552.345c36.805-13.385,61.567-22.754,73.613-29.447c1.338,0,2.011-1.334,1.338-2.679l-2.673-0.667
			c-12.717,6.026-36.807,16.063-73.613,29.447c-0.672,0-1.338,1.333-0.672,2.008C188.115,552.345,188.787,553.012,190.122,552.345z"
			/>
	</g>
	<g>
		<path d="M252.361,499.477c-11.377,5.358-26.768,10.037-46.177,16.063l-26.102,7.358c-1.333,0-2.007,1.342-1.333,2.681l2.673,1.332
			c30.115-8.024,54.21-16.057,72.274-24.088l1.339-2.008C255.035,499.477,253.696,498.81,252.361,499.477z"/>
	</g>
	<g>
		<path d="M236.299,478.064c-10.039,4.013-23.423,8.025-41.492,12.04l-23.422,4.692c-2.006,0-2.673,0-2.006,1.999
			c0,1.347,0.666,1.347,2.006,1.347l24.761-4.018c17.397-4.021,31.455-8.035,42.159-12.715c1.34,0,1.34-1.344,1.34-2.677
			C238.978,478.064,237.639,477.393,236.299,478.064z"/>
	</g>
	<g>
		<path d="M224.921,455.976c-17.397,6.025-38.146,10.705-61.569,13.386c-1.333,0-1.333,0.666-1.333,2.014l2.006,2
			c24.09-3.348,44.838-7.36,62.235-13.387c1.341,0,2.008-1.332,1.341-2.672C226.927,455.976,226.26,455.31,224.921,455.976z"/>
	</g>
	<g>
		<path d="M146.622,442.594c-1.333,0-1.333,0.666-1.333,2.013c0,1.333,0,2,1.333,2l66.254-4.68l0.667-0.667l0.675-1.347
			c-0.675-1.333-1.342-1.999-2.009-1.333L146.622,442.594z"/>
	</g>
	<g>
		<path d="M141.271,419.838l52.196-1.999l1.34-2.014l-2.006-1.333l-51.53,1.333c-1.34,0-2.007,0.667-2.007,2.014
			C138.597,419.172,139.264,419.838,141.271,419.838z"/>
	</g>
	<g>
		<path d="M139.264,391.068c-0.667,0.666,0.667,1.999,2.007,1.999l50.863,2.015l2.006-2.015l-2.006-1.999l-50.863-1.345
			C139.93,389.057,139.264,389.724,139.264,391.068z"/>
	</g>
	<g>
		<path d="M186.774,364.967l-46.844-4.686c-1.333,0-2.007,0-2.007,1.34c-0.667,2.006,0,2.006,1.34,2.006l46.845,5.354l2.007-2.006
			C188.787,365.633,188.115,364.967,186.774,364.967z"/>
	</g>
	<g>
		<path d="M135.917,332.841c-0.667,0.672,0,2.012,1.34,2.012l17.397,3.347l32.121,2.68l2.013-1.347l-2.013-2.673l-32.121-2.674
			l-16.057-2.679C136.583,330.84,135.917,331.507,135.917,332.841z"/>
	</g>
	<g>
		<path d="M188.115,314.111l-44.838-8.041c-1.333,0-2.006,0-2.006,1.348c-0.667,1.333,0,2.673,0.673,2.673l46.172,8.031l2.007-1.34
			C190.122,314.777,190.122,314.111,188.115,314.111z"/>
	</g>
	<g>
		<path d="M145.955,275.957c-0.667,0.673,0,1.347,0.667,2.014l15.397,7.359c10.705,4.685,20.744,8.032,29.441,8.704l2.007-1.346
			c0-1.333,0-1.999-2.007-2.673c-8.032-0.672-17.397-4.018-28.108-8.698l-14.718-6.692
			C147.961,273.957,146.622,274.624,145.955,275.957z"/>
	</g>
	<g>
		<path d="M158.672,249.188l46.845,27.441c1.334,0,2.673,0,2.673-0.673c0.673-2,0-2.673-1.339-2.673
			c-8.025-4.019-18.064-9.364-29.442-16.729l-15.39-10.712h-3.347C158,246.516,158,247.855,158.672,249.188z"/>
	</g>
	<g>
		<path d="M216.224,256.555l-36.141-30.788c-1.333-1.334-1.333-1.334-2.673,0c-1.34,0.673-1.34,1.345,0,2.678l36.134,31.454
			l2.681-0.673C216.889,257.894,216.889,256.555,216.224,256.555z"/>
	</g>
	<g>
		<path d="M228.94,237.151l-29.448-30.115h-2.679c-1.335,0.667-1.335,2,0,2.673l29.446,30.787c0.667,0.667,2.008,0.667,2.681-0.673
			V237.151z"/>
	</g>
	<g>
		<path d="M216.889,190.306c-0.665,0-0.665,1.333-0.665,2.673l6.691,10.711c6.025,8.692,11.377,15.384,16.729,20.743
			c0.666,1.334,1.34,1.334,2.681,0c0.665-1.339,0.665-2.013,0-3.346c-5.359-4.686-10.039-11.377-16.065-20.077l-6.691-10.038
			C218.902,189.633,218.23,189.633,216.889,190.306z"/>
	</g>
	<g>
		<path d="M260.388,204.357l-12.044-14.724l-8.033-11.377l-2.006-0.667c-2.006,1.333-2.006,2.006-1.339,2.679l8.032,12.038
			l12.717,15.398l2.673-0.667V204.357z"/>
	</g>
	<g>
		<path d="M273.771,189.633c0.674,1.34,2.015,1.34,2.681,0c0.667-0.673,0.667-2.007,0-2.673l-11.379-14.057l-6.018-10.038
			c0-2.006-1.341-2.006-2.681-1.34c-1.34,0.667-1.34,1.34-0.667,2.68l6.692,10.705L273.771,189.633z"/>
	</g>
	<g>
		<path d="M293.85,169.557l-13.385-20.076c0-2.007-0.667-2.007-2.009-1.34c-2.004,0.666-2.004,1.34-1.337,2.679l4.685,8.026
			l9.372,13.383l2.674,0.673C295.188,171.563,295.188,170.229,293.85,169.557z"/>
	</g>
	<g>
		<path d="M310.579,156.846l-10.706-18.743c-0.666-1.333-1.339-2.006-2.68-0.667c-1.333,0-1.333,0.667-0.666,2.006l10.706,20.076
			h3.346C311.918,158.179,311.918,157.512,310.579,156.846z"/>
	</g>
	<g>
		<path d="M315.938,124.718h-2.015l8.705,19.41c0.667,1.333,1.333,2.006,2.674,0.667c1.339,0,1.339-0.667,0.672-2.007l-9.371-20.076
			L315.938,124.718z"/>
	</g>
	<g>
		<path d="M334.675,107.988c-1.34,0-1.34,1.34-1.34,2.679l6.024,17.397c0,1.34,0.666,1.34,2.674,1.34l1.339-2.007l-6.69-18.069
			C336.682,107.988,336.015,107.321,334.675,107.988z"/>
	</g>
	<g>
		<path d="M352.071,93.938c-1.339,0-2.006,0.667-1.339,2.679l4.685,19.404c0,1.34,1.339,1.34,2.006,1.34l2.013-2.68l-5.359-18.736
			C354.076,93.938,353.41,93.938,352.071,93.938z"/>
	</g>
	<g>
		<path d="M123.2,394.415c-1.333,0-2.006,0.667-1.333,1.999l1.333,11.385c2.013,10.04,2.013,20.077,2.013,30.781
			c0,1.333,0.667,2.004,2.005,2.004l2.008-2.004c0.667-10.704-0.667-20.741-1.341-30.781l-2.671-12.717
			C125.213,394.415,124.54,393.741,123.2,394.415z"/>
	</g>
	<g>
		<path d="M103.124,415.825c0,1.339,0,2.014,2.012,2.014l1.334-2.014l0.672-34.794l-2.006,1.999c-1.339,0-2.012-0.666-2.012-1.999
			V415.825z"/>
	</g>
	<g>
		<path d="M84.387,371.66l-3.346,26.768c-0.666,1.334,0,2.006,1.34,2.68l2.68-2.013l2.673-18.063v-9.371
			c0.673-0.667,0-1.34-1.34-2.014C85.06,369.646,84.387,370.32,84.387,371.66z"/>
	</g>
	<g>
		<path d="M64.984,361.621c-0.674,0-1.34,0.667-0.674,2.006l0.674,6.693l-1.34,16.729c-0.673,0.675,0,2.007,1.34,2.674l2.672-1.999
			l0.673-17.404l-0.673-7.365C67.656,361.621,66.99,360.955,64.984,361.621z"/>
	</g>
	<g>
		<path d="M49.587,377.011l-2.006-22.748l-2.007-1.348c-1.34,0.675-2.006,1.348-1.34,2.015l1.34,22.081
			c0,0.674,0.667,1.341,2.007,1.341L49.587,377.011z"/>
	</g>
	<g>
		<path d="M28.844,366.3l-2.006-18.729c0-0.674-1.34-1.346-2.68-0.674c-1.34,0-2.007,0-1.34,2.007l2.013,17.396
			c0,0.675,0.667,1.347,2.006,1.347L28.844,366.3z"/>
	</g>
	<g>
		<path d="M136.583,263.246l8.705-24.095c0.667-1.334,0-2-0.672-2.673c-1.339,0-2.673,0-2.673,1.339l-2.013,6.691l-7.359,16.73
			c-0.667,1.333,0,2.007,0.667,2.68C135.25,264.586,135.917,264.586,136.583,263.246z"/>
	</g>
	<g>
		<path d="M126.546,219.074l-2.006,7.366l-8.032,14.056c-0.667,1.334,0,2.673,1.34,3.346l2.006-0.673l8.706-15.391l2.005-8.032
			c0.667-1.34,0-2.006-2.005-2.006C127.884,217.075,126.546,217.741,126.546,219.074z"/>
	</g>
	<g>
		<path d="M108.482,203.69l-3.347,9.364l-6.692,14.724c-1.339,1.334-0.673,2.007,0,2.679l3.347-0.672l6.692-15.391l3.346-9.372
			c0.667-1.333,0-2.007-0.672-2.007C109.815,202.344,108.482,203.017,108.482,203.69z"/>
	</g>
	<g>
		<path d="M96.431,179.595l-8.025,26.769l1.334,2.672l2.012-1.333l9.365-26.77c0-1.339,0-2.012-1.339-2.012
			C98.444,178.255,97.104,178.922,96.431,179.595z"/>
	</g>
	<g>
		<path d="M74.349,174.242l-1.34-1.339l-6.692,20.75c0,1.333,0,2.672,1.339,2.672l2.679-1.339l6.693-22.083
			C77.028,174.242,75.688,174.909,74.349,174.242z"/>
	</g>
	<g>
		<path d="M54.945,147.474l-7.365,27.435c0,1.34,0,2.014,0.673,2.68c1.333,0,2.672,0,2.672-1.34l6.026-16.73l2.672-11.377
			l-2.006-2.007h-1.339L54.945,147.474z"/>
	</g>
	<g>
		<path d="M32.19,158.846l6.692-24.089c0.666-0.667,0-2.006-1.339-2.006c-1.34-0.673-2.007,0-2.007,1.34l-6.692,23.422
			c-0.667,0.667,0,2.006,0.667,2.68C30.85,160.858,32.19,160.192,32.19,158.846z"/>
	</g>
	<g>
		<path fill="#FFCDDE" d="M279.131,193.653l-7.365-10.713l-6.02-5.352c3.346-4.686,5.354-10.705,7.359-16.064l-10.705-4.012
			l-2.679-11.378c-6.025,0.674-11.378,2.007-16.731,4.687l-6.024,3.346c-2.007-4.686-5.352-8.705-10.039-12.051l-6.019-3.346
			l-8.032,6.025l-12.718-1.333c-1.332,7.358-1.332,15.384-0.666,24.088l-12.043,6.025l-6.027,4.013l6.693,10.037l-5.353,10.038
			c4.687,2.68,12.716,5.353,22.755,7.359c1.334,8.705,4.68,16.731,9.365,22.755l10.038-4.685l10.038,6.691
			c6.025-4.019,11.379-10.039,14.725-17.403l22.082,0.672l-2.007-12.71L279.131,193.653z"/>
	</g>
	<g>
		<path d="M276.452,161.524l-2.681-3.346l-8.698-3.346l-2.006-8.699l-3.346-3.346c-8.032,0.674-15.39,3.346-21.417,6.693
			c-2.672-4.02-6.019-7.366-10.037-10.039l-6.02-3.346h-3.346l-6.693,5.353l-10.71-1.333c-2.673,0-3.347,0.667-4.013,2.672
			c-1.341,4.686-2.008,10.038-2.008,15.391v8.032c-2.678,0.673-6.691,3.346-10.036,5.353l-6.027,4.013l-1.34,2.013l0.673,2.006
			l4.679,8.031l-3.346,8.699l-0.667,1.339l1.34,2.68c6.019,3.346,12.711,6.02,22.083,7.359c2.004,8.698,5.352,16.063,9.37,22.082
			c0.667,2.006,1.334,2.672,4.015,1.339l8.697-4.013l8.033,6.019c1.338,0.674,2.679,0.674,3.345,0l14.724-16.73
			c6.019,2.006,12.713,2.006,21.417,0l2.672-3.347l0,0l-1.34-10.711l7.365-6.019l1.34-2.672v-0.674
			c-2.012-5.354-6.024-10.039-12.718-16.057l6.027-14.731L276.452,161.524z M261.062,160.858l7.358,2.006l-6.02,13.384v1.34
			l0.667,3.345c6.024,3.347,9.372,8.025,12.044,12.045l-6.691,5.353l-2.007,2.012l0.667,0.667l1.34,9.372l-20.076-1.347
			l-2.006,2.014c-3.348,5.352-6.693,10.705-12.046,14.717l-8.032-5.346h-3.345l-6.691,3.346c-3.348-5.36-6.026-11.385-7.36-19.41
			c0-1.34-1.34-2.679-2.679-2.679c-8.032-2.007-14.725-3.346-19.41-5.353l4.019-7.366l0.667-1.333l-1.338-2.012l-4.68-6.692
			c7.358-4.68,12.044-6.692,14.716-8.025l2.681-3.347l0,0l-0.666-9.372l1.333-10.705l9.37,0.667l2.681-0.667l6.018-4.686
			c5.353,3.346,10.04,7.366,12.046,13.385l2.679,1.339l3.346-0.667l4.013-2.679c4.687-2.014,8.704-3.346,13.384-3.346l2.015,7.358
			L261.062,160.858z"/>
	</g>
	<g>
		<path d="M220.908,175.576c-2.678,2.013-4.02,4.692-4.02,8.705c0,3.345,1.342,6.692,4.02,9.373
			c2.674,2.672,5.352,4.011,9.365,4.011c3.347,0,6.692-1.339,9.371-4.011c2.681-2.68,3.346-6.027,3.346-9.373
			c0-4.013-0.665-6.692-3.346-8.705c-2.679-2.673-6.024-4.679-9.371-4.679C226.26,170.897,223.582,172.903,220.908,175.576z
			 M235.633,189.633c-1.341,2.006-2.679,2.673-5.359,2.673c-2.006,0-4.014-0.667-5.353-2.673c-2.006-1.339-2.673-3.346-2.673-5.352
			c0-2.013,0.667-4.013,2.673-5.359c1.339-2,3.347-2.673,5.353-2.673c2.681,0,4.019,0.673,5.359,2.673
			c1.333,1.346,2.672,3.346,2.672,5.359L235.633,189.633z"/>
	</g>
	<g>
		<path d="M224.921,193.653l-1.339,14.05c0,2.006,0.672,2.679,2.678,3.346l2.681-2.014l1.333-15.383c0-1.348-0.667-2.68-2.006-2.68
			C226.26,190.973,224.921,191.639,224.921,193.653z"/>
	</g>
	<g>
		<path d="M238.978,186.96c-0.673,2-0.673,2.673,0.667,3.346l14.052,7.358c2.012,1.334,2.679,1.334,3.345-0.666
			c1.341-1.345,0.674-2.679-0.666-4.019l-13.385-6.692C240.984,184.948,239.645,185.614,238.978,186.96z"/>
	</g>
	<g>
		<path d="M215.557,182.94l-12.051,3.347c-1.333,0-2.007,1.339-1.333,3.346c0,1.34,1.333,2.006,3.345,1.34l11.371-3.347
			c2.014-0.666,2.68-1.339,2.014-3.345C218.902,182.94,216.889,182.268,215.557,182.94z"/>
	</g>
	<g>
		<path d="M216.224,160.858c-1.341,0-1.341,2.006-1.341,3.346l4.02,12.045c0.666,1.34,2.006,2.006,4.013,1.34
			c1.339,0,2.006-1.34,1.339-3.347l-4.686-11.377C219.568,160.858,218.23,159.519,216.224,160.858z"/>
	</g>
	<g>
		<path d="M246.338,167.55l-6.027,5.353l-3.345,1.339c-1.333,1.334-2.007,2.007-0.667,4.013c0,1.339,1.34,2.013,3.346,1.339
			l4.013-2.672l7.365-6.025c1.339-1.34,0.667-2.68-0.674-4.013L246.338,167.55z"/>
	</g>
	<g>
		<path fill="#FFCDDE" d="M32.856,101.963l-7.359,8.705c3.346,4.679,8.699,8.699,17.397,12.044
			c-2.673,6.02-4.013,12.045-4.013,18.07l11.378,2.006l4.686,10.038c9.365-2.672,16.058-6.692,20.076-12.71
			c6.019,6.018,12.045,10.705,19.403,11.371l6.692-7.359l12.044-1.34l-1.333-16.73l-2.679-7.366l15.391-14.05l-8.032-7.359
			l2.013-11.378l-14.058-2.006h-9.365l-8.705-14.724l-5.353-6.018l-9.365,6.692L60.964,65.83
			c-4.686,5.352-8.698,12.044-10.038,20.076l-14.724,1.34l-7.359,3.345L32.856,101.963z"/>
	</g>
	<g>
		<path d="M62.304,62.483c-1.34,0-2.68,0-4.013,1.34c-4.019,4.68-7.365,10.706-10.038,18.737l-14.058,2.006l-6.692,2.68
			c-1.339,0.667-2.006,2.006-2.006,3.345v0.667l3.346,10.038l-6.026,7.359l-0.667,2.013l0.667,2.006
			c2.68,4.686,8.032,8.032,16.064,12.044c-2.006,5.359-2.679,10.705-3.346,16.064c0,2.006,1.34,3.346,3.346,3.346l8.699,2.006
			l4.686,8.033c1.34,2.006,2.006,2.006,4.013,1.333c7.365-2,14.057-6.018,18.743-10.704c6.019,5.359,12.711,8.705,19.403,10.038
			c0.673,0,2.006-0.666,2.68-1.333l5.353-6.692l10.704-0.674l3.346-3.346v-2.006c0-6.025-1.333-13.385-3.346-21.416l14.057-12.045
			l0.667-2.679l-1.338-2.006l-6.692-6.692l2.013-9.365v-0.674c0-2.006,0-3.346-2.013-3.346l-22.749-2.006L88.406,65.83l-4.686-5.353
			c-2.006-1.339-2.68-1.339-4.686,0l-7.358,5.353L62.304,62.483z M50.26,89.251h2.673l1.34-2.006
			c1.34-6.692,4.019-12.717,8.032-18.071l8.699,3.347h3.346l6.691-5.353c4.02,5.353,8.032,11.371,10.711,17.396l3.347,2.68
			l20.077,0.667l-2.014,8.032v1.339l0.673,2.006l6.019,5.353l-12.711,11.378l-1.339,2.672v0.674l2.006,6.692l2.006,13.384
			l-9.365,1.34c-0.673,0-2.006,0-2.006,0.667l-5.358,6.025c-6.019-2.013-11.372-5.359-14.717-10.038
			c-0.673,0-2.014-0.667-3.347-0.667l-2.013,1.333c-4.013,4.686-9.365,8.031-16.057,10.039l-4.02-7.359l-2.006-1.34l-8.032-1.34
			c0-5.352,1.339-10.705,2.679-14.051l0.667-1.34l-2.006-2.673l-14.051-9.372l5.353-6.692l0.667-2.013l-0.667-1.333l-2.679-8.705
			C40.222,89.251,46.24,87.912,50.26,89.251z"/>
	</g>
	<g>
		<path d="M64.31,101.963c-1.339,2.013-2.006,4.692-2.006,7.365L62.971,112c0.673,4.02,2.013,6.025,5.359,8.705l10.039,1.333
			c3.346-0.667,6.692-2.672,8.025-6.019c2.013-2.673,2.68-6.019,2.013-10.039c-0.673-3.345-2.68-6.019-5.359-8.031
			c-3.346-2.006-6.692-2.68-10.038-2.006C68.996,97.283,66.317,99.29,64.31,101.963z M67.656,110.667L67.656,110.667
			c0-2.013,0-4.012,0.673-6.025l5.353-3.346l6.019,1.34l3.346,4.685c0.673,2.007,0,4.013-1.333,6.026l-4.686,3.346l-5.353-0.673
			C69.663,114.68,68.33,112.674,67.656,110.667z"/>
	</g>
	<g>
		<path d="M73.682,82.56c-2.006,0-2.006,1.339-2.006,2.672l2.006,14.058l2.672,2.673c2.014-0.667,2.014-1.333,2.014-2.673
			l-1.34-14.724C76.354,82.56,75.021,82.56,73.682,82.56z"/>
	</g>
	<g>
		<path d="M46.24,102.636c0,1.339,0,3.345,1.34,3.345l15.39,4.686l3.346-2.679c0.673-1.333,0-2.007-2.007-2.68l-14.723-4.679
			C47.581,100.629,46.914,100.629,46.24,102.636z"/>
	</g>
	<g>
		<path d="M98.444,96.616c-2.679,0.667-6.692,2.673-11.377,6.02c-1.34,1.339-2.006,3.345-0.673,4.019
			c1.34,1.333,2.68,1.333,4.019,0.666c4.686-3.346,8.032-4.685,9.365-5.358c2.013-0.667,2.68-1.333,2.013-3.347
			C101.791,97.283,100.45,95.944,98.444,96.616z"/>
	</g>
	<g>
		<path d="M88.406,114.68c0.667,1.34,0,2.68-1.339,3.346l-3.346-0.666l6.692,10.705c0.667,1.34,1.339,2.013,3.347,1.34
			c1.339-1.34,2.006-2.007,1.339-3.346L88.406,114.68z"/>
	</g>
	<g>
		<path d="M67.656,116.02l-3.346,3.346l-6.019,7.365c-0.673,1.333,0,2.673,1.333,3.346c1.34,0.667,2.013,0.667,3.346-0.673
			l5.359-6.692l2.673-2.673c0.673-0.673,1.339-2.679,0.673-4.019H67.656z"/>
	</g>
	<g>
		<path fill="#FFCDDE" d="M26.837,420.51l-4.687,10.714H10.774c-0.667,6.016,1.339,13.383,4.686,23.42
			c-6.692,6.691-12.044,12.71-16.063,20.077l9.371,6.689l-0.667,11.372c7.359,3.347,14.717,4.687,22.749,4.014
			c0,6.026,3.347,12.718,10.039,19.409l10.038-7.359l10.711,4.68c2.672-1.999,4.013-6.689,5.352-12.036l1.34-8.04l18.063-2
			l-1.333-10.71l8.025-7.364c-3.346-5.347-7.359-9.365-12.045-12.712l-6.019-3.347c3.347-4.021,4.679-9.364,5.353-14.723v-7.36
			l-9.372-3.345l-4.686-11.379c-6.692,1.339-14.718,5.354-22.083,10.714c-2.006-2.015-5.352-4.695-10.705-7.366L26.837,420.51z"/>
	</g>
	<g>
		<path d="M28.177,417.839c-2.013-1.347-3.346-0.675-4.02,1.333l-4.686,8.704h-9.365c-2.006,0-2.68,1.333-2.68,3.348v0.665
			c0,6.025,1.34,13.385,4.02,22.083c-6.026,6.017-10.712,12.709-14.725,18.736l-0.673,2.013l2.013,2l7.358,5.356l-0.666,10.705
			c0,1.343,0.666,2.015,2.005,2.68c6.02,3.348,13.385,4.68,21.417,4.68c1.333,6.027,5.352,12.05,10.705,18.744h4.686l8.031-6.027
			l8.699,3.347c1.34,1.341,3.346,0.666,4.012-0.666c2.68-3.348,5.353-9.37,7.366-18.743l16.057-1.999
			c1.34,0,2.007-1.348,2.007-3.348l0,0l-1.334-9.372l6.692-6.689l1.333-2.013l-0.666-2c-4.014-6.693-10.039-12.052-16.064-16.065
			c2.68-6.023,4.686-12.05,4.686-16.729l-0.667-3.347l-2.006-2.678l-8.032-3.347l-4.019-10.037c-1.333-1.333-2.007-2.68-4.013-2.008
			c-4.013,0.675-11.378,4.02-21.417,10.039l-10.038-6.693L28.177,417.839z M22.151,434.567l2.68-2.679l4.013-6.692l14.051,8.698
			l4.019,0.673c6.019-4.691,11.378-8.039,17.396-10.038l4.02,8.693l1.333,1.345l7.365,3.347l0.667,0.666
			c0,6.026-2.006,11.373-5.353,16.729l-0.667,2.007v0.673l2.006,1.999l4.686,3.348l10.038,9.372l-5.359,5.356l-1.333,2.675v0.671
			l1.333,7.36l-14.717,1.334c-1.34,0-3.346,1.345-3.346,3.345c-0.674,6.692-2.013,12.052-4.686,15.396l-8.032-2.677H48.92
			l-7.358,5.357c-4.686-6.025-7.365-10.712-7.365-15.397l-1.34-2.004l-2.673-0.676l-18.736-3.345l0.666-8.694l-1.339-3.346
			l-6.692-4.689l13.384-16.059l1.34-2.673v-1.348c-2.68-6.018-4.013-12.036-4.686-18.729H22.151z"/>
	</g>
	<g>
		<path d="M38.882,454.644c-3.346,1.999-5.353,4.68-6.025,8.025c-0.667,4.012-0.667,7.358,1.34,10.039l8.031,6.025l9.372-0.669
			c3.346-2.01,6.019-4.689,6.692-8.037c1.333-4.013,0-7.358-1.339-10.039c-2.007-3.346-4.02-5.345-8.032-6.692L38.882,454.644z
			 M37.542,464.682c1.339-2.681,2.679-4.019,4.019-4.693c1.333-1.332,3.346-1.999,6.019-1.332l4.686,3.345l1.34,4.68
			c0,2.681-2.007,4.694-4.019,6.694h-6.019l-4.686-3.348C37.542,468.028,37.542,466.681,37.542,464.682z"/>
	</g>
	<g>
		<path d="M34.869,466.681l-13.384,5.36c-1.339,1.334-1.339,2.005-1.339,3.347c0.666,2.005,2.005,2.677,4.012,1.333l12.718-5.346
			c2.006-0.676,2.006-2.014,1.34-3.347C37.542,466.015,36.875,465.348,34.869,466.681z"/>
	</g>
	<g>
		<path d="M47.581,474.721c-1.34,0.667-2.673,2-2.673,3.344v15.385c0,1.348,1.333,2.68,2.673,2.68c2.006,0,3.346-1.332,3.346-2.68
			l-0.667-15.385C50.26,476.055,49.587,474.721,47.581,474.721z"/>
	</g>
	<g>
		<path d="M27.504,443.932c-1.339,0.675-2.006,2.008-0.667,4.021l9.365,8.69h4.019c0.667-1.333,0.667-2.671-0.674-4.014
			l-8.698-8.022C30.85,443.26,28.844,443.26,27.504,443.932z"/>
	</g>
	<g>
		<path d="M55.612,443.26l-8.699,9.369c-0.673,0.667-0.673,2.015,0.667,4.014l3.346-0.667l8.698-9.369c1.34-1.333,1.34-2,0-3.347
			C58.292,441.927,56.952,441.927,55.612,443.26z"/>
	</g>
	<g>
		<path d="M53.606,468.028c-0.673,1.999-0.673,3.347,0.667,4.013l4.019,2.68l9.365,3.344l2.679-2.677
			c0.667-2.013,0-2.68-2.006-3.347l-7.365-2.014l-3.346-1.999H53.606z"/>
	</g>
	<g>
		<path fill="#FFCDDE" d="M277.119,249.862l2.679-10.711c-3.346-2-7.358-3.347-13.385-3.347l-7.357-0.667l-2.681-12.043l-1.34-6.02
			l-11.378,3.346l-8.698-6.692c-6.691,6.019-11.377,12.712-12.711,20.077c-5.359-2.68-10.039-4.02-16.063-3.347l-6.026,0.667
			l-2.672,10.039l-10.712,6.025c3.348,7.359,8.032,14.05,14.059,20.077c-2.681,4.68-5.354,10.705-8.032,19.403l10.705,3.345
			l2.679,11.377c5.353-0.665,12.718-3.344,22.083-8.03c7.365,6.019,14.058,10.037,21.416,12.709l5.352-10.037l11.378-1.333
			c2.007-4.687,2.679-10.038,2.007-15.397l-1.34-7.358c6.691-1.334,12.718-5.353,18.742-13.385L277.119,249.862z"/>
	</g>
	<g>
		<path d="M287.83,256.555l-7.365-7.366l2.678-9.365v-0.672l-1.339-2.673c-4.685-3.347-11.378-4.687-19.403-4.687l-4.686-15.39
			c-0.674-2.006-2.007-2.673-4.019-2.673l-8.698,2.673l-8.032-5.352h-4.012c-6.027,5.352-10.039,11.371-13.386,18.736l-14.051-2.673
			l-6.691,0.667c-1.34,0.667-2.013,2.007-2.013,2.679l-2.007,8.693l-9.364,5.357c-1.341,0.667-2.014,2.007-2.014,2.68v2
			c2.68,5.36,6.694,11.385,13.385,18.744c-2.674,5.352-4.68,10.705-7.359,18.063v0.673c0,1.338,0.668,2.672,2.68,3.345l8.699,2.673
			l1.34,9.373c0.666,1.338,2.67,2.68,4.012,2.68c5.353-0.668,12.718-3.349,22.083-8.032c6.691,6.02,13.384,10.038,20.749,12.71
			c1.332,0,3.345,0,4.012-1.999l4.013-8.038l10.039-1.333l2.679-2.014l2.007-13.384l-0.666-8.692
			c6.02-2.678,12.043-6.691,17.396-13.384l0.674-2.013L287.83,256.555z M273.771,249.862l0.674,2.673l6.691,6.691
			c-4.685,5.36-10.037,8.039-14.724,9.372l-1.34,1.34l-1.338,2.007v0.667l1.338,10.038l-1.338,8.705l-8.7,1.333l-2.674,1.346
			l-4.018,7.357c-6.019-2.011-12.045-6.022-18.07-11.377h-4.014c-6.691,3.347-12.717,6.693-17.396,7.366l-2.012-8.039l-2.009-2.672
			l-8.029-2.673c2.013-6.692,4.686-11.384,6.692-14.731l0.672-2l-1.339-2.679l-11.379-15.398l7.366-5.346l2.007-1.345l2.006-8.692
			c6.691-0.674,12.718,0.667,17.396,2.673h3.348l2.012-2.006c1.333-5.359,4.68-11.377,10.039-16.064l6.692,4.687l2.673,0.673
			l8.03-2.68l2.68,14.717c0,1.347,0.667,2.68,3.348,2.68c6.69-0.667,11.37,0,16.73,2.012l-2.015,8.692V249.862z"/>
	</g>
	<g>
		<path d="M236.966,248.522c-4.012-0.667-6.692,0.667-10.039,2.68c-2.673,2.006-4.012,5.353-4.679,8.697
			c0,4.02,0.667,7.366,2.673,10.039c2.006,2.673,4.686,4.019,8.699,4.685c3.346,0.667,6.69-0.667,9.37-2.678
			c3.348-2.007,5.354-5.353,5.354-8.699v-2.007c0-3.346-1.34-5.358-2.673-8.031C242.99,250.535,240.311,249.188,236.966,248.522z
			 M230.273,255.881c2.013-2,3.347-2.673,6.025-2c2.679,0,4.012,1.333,5.353,2.673c1.339,2.005,1.339,4.019,1.339,6.018l-3.346,5.36
			l-5.353,2.006c-2.006-0.673-4.019-2.006-5.352-3.346c-0.673-2.006-2.014-4.021-1.34-6.02
			C227.601,259.227,228.94,257.227,230.273,255.881z"/>
	</g>
	<g>
		<path d="M237.639,268.599c-1.34,0.667-2.006,2.013-1.34,4.013l8.699,11.384c0.673,2,1.34,2.673,3.346,1.333
			c1.34-1.333,1.34-2.68,0.673-4.013l-7.365-12.051C240.311,267.266,239.645,267.266,237.639,268.599z"/>
	</g>
	<g>
		<path d="M261.728,253.208l-15.39,2.006c-2.006,0.667-2.681,1.34-2.681,2.679c0,2.006,2.014,2.68,3.347,2.68l15.396-2.68
			c1.335,0,2.673-1.339,2.006-3.345C263.735,253.208,263.067,252.535,261.728,253.208z"/>
	</g>
	<g>
		<path d="M222.915,269.265l-7.358,10.038c-0.674,1.346-0.674,2.68,0.667,4.02c2.007,0.673,2.679,0.673,3.345-0.673l7.358-10.038
			c1.341-1.333,1.341-2.673-0.667-4.013C224.921,267.266,223.582,267.266,222.915,269.265z"/>
	</g>
	<g>
		<path d="M210.197,251.202c-0.667,2.006-0.667,2.68,0.673,4.012l10.704,6.692c1.341,1.34,2.008,1.34,4.02-0.667
			c0.666-1.34,0.666-2.679-1.34-4.012l-10.711-6.692C212.209,249.862,211.537,249.862,210.197,251.202z"/>
	</g>
	<g>
		<path d="M238.305,237.817l-3.346,12.045c-0.667,1.34,0,2.673,1.34,3.346c1.34,0.674,2.679,0.674,3.346-0.673l3.346-14.051
			c0-2.006-0.665-2.68-2.68-2.68c-0.666,0-0.666,0-1.333,0.673L238.305,237.817z"/>
	</g>
	<g>
		<path fill="#858585" d="M283.143,59.138c14.051,1.339,23.425-2.673,28.775-12.045c2.006-5.359,3.347-10.038,2.68-15.396
			l-14.725,1.346C289.17,37.055,283.81,45.753,283.143,59.138z"/>
	</g>
	<g>
		<path d="M317.271,31.696l-2.006-2.673c-9.364-2.007-17.397,0-24.089,5.352c-6.025,5.359-10.039,13.384-10.711,24.763
			c0,1.339,1.339,2.672,2.678,3.345c10.707,0.674,20.077-2.006,26.102-8.032C315.265,49.099,317.944,41.067,317.271,31.696z
			 M311.918,34.375c-0.666,7.358-2.674,12.717-6.691,16.064c-4.687,4.678-10.039,6.692-18.737,6.692
			c0.667-8.706,3.348-14.725,8.032-18.071C299.207,35.042,304.56,33.708,311.918,34.375z"/>
	</g>
	<g>
		<path fill="#858585" d="M184.769,157.512c6.691-13.384,5.354-23.422-1.34-31.454l-13.384-8.032l-4.68,14.725
			C165.365,144.128,172.058,151.487,184.769,157.512z"/>
	</g>
	<g>
		<path d="M178.749,119.366l-8.031-3.346c-0.673-0.674-2.006,0-2.68,1.34l-3.346,7.358c-2.006,6.026-2.006,11.378,0,16.064
			c2.006,8.699,8.699,14.717,18.736,18.736c2.014,0.673,3.346,0,4.021-1.34c4.685-10.038,5.352-18.736,2.005-26.768
			C186.774,126.058,183.428,122.712,178.749,119.366z M168.711,133.423c0-4.019,0.667-8.038,2.673-12.051
			c6.691,2.68,10.71,6.692,13.384,12.718l1.34,7.358c0,3.346-0.666,7.358-2.68,11.377c-8.025-3.345-12.043-8.031-14.05-13.384
			L168.711,133.423z"/>
	</g>
	<g>
		<path fill="#858585" d="M95.098,77.207c12.711-6.025,18.063-14.724,17.397-25.435l-4.686-14.717
			c-5.352,2.006-9.365,5.352-12.711,9.371C88.406,54.451,88.406,64.489,95.098,77.207z"/>
	</g>
	<g>
		<path d="M109.815,35.715c-1.333-0.673-2.006-1.34-3.346-0.673c-8.699,2.68-14.718,8.706-18.064,16.73
			c-2.68,7.366-1.339,16.73,4.68,26.768c0.673,1.347,1.339,2.014,3.346,0.674c10.039-4.685,16.064-11.378,18.07-19.404
			C116.507,51.105,115.175,43.747,109.815,35.715z M109.815,59.138c-2.006,4.685-6.692,10.037-13.384,14.057
			c-2.672-5.359-4.013-9.372-4.013-12.718l1.34-6.692c1.339-4.686,6.019-9.371,12.711-12.717c2.013,3.346,3.346,8.032,3.346,12.717
			V59.138z"/>
	</g>
	<g>
		<path fill="#858585" d="M297.193,292.687l-14.717-2.673l0.666,14.726c4.014,10.704,12.718,16.063,26.769,16.063
			C311.252,306.745,306.567,297.38,297.193,292.687z"/>
	</g>
	<g>
		<path d="M305.227,295.368c-3.346-4.014-8.699-6.027-14.725-7.361l-8.025-0.666c-2.012,0-2.679,0.666-2.679,2l-0.667,8.039
			c0.667,6.018,2.673,11.371,6.02,16.057c4.687,6.691,13.384,10.039,24.761,10.039c1.341,0,2.68,0,2.68-2.007
			C313.258,310.091,310.579,301.391,305.227,295.368z M284.483,292.687c7.359,0,12.044,2.013,16.73,6.693
			c4.013,4.018,6.02,9.371,6.02,17.402v0.675c-8.026-0.675-14.052-3.346-18.063-7.366c-2.681-3.346-4.687-8.7-4.687-15.391V292.687z
			"/>
	</g>
	<g>
		<path fill="#858585" d="M366.796,171.563c-13.386-5.353-23.424-4.68-30.781,3.345l-7.366,12.717l14.724,4.013
			C353.41,190.973,361.442,184.281,366.796,171.563z"/>
	</g>
	<g>
		<path d="M367.463,168.883l-27.438-1.333c-4.011,2.679-8.031,6.692-11.377,12.044c-2.007,3.346-2.674,6.019-2.674,7.365
			l0.667,3.346l8.033,2.673h16.058c8.703-3.347,14.724-10.039,18.068-20.75C369.474,170.897,369.474,169.557,367.463,168.883z
			 M343.372,172.903h19.411c-3.348,7.365-7.366,12.711-13.384,14.723l-17.405-1.339
			C333.335,179.595,337.349,175.576,343.372,172.903z"/>
	</g>
	<g>
		<path fill="#858585" d="M128.559,530.929c1.333-14.058-3.346-23.422-12.718-28.772l-14.724-2.68l0.674,15.396
			C105.803,525.578,114.501,530.257,128.559,530.929z"/>
	</g>
	<g>
		<path d="M123.2,504.835c-3.346-3.346-8.025-6.692-14.051-7.366l-8.699-0.673c-1.339,0-2.006,1.347-2.006,2.014l-0.673,8.697
			c0.673,6.019,2.006,10.711,5.353,15.391c5.359,6.026,13.384,10.04,25.436,10.706c1.333,0,2.672-1.333,2.672-2.675
			C131.904,518.886,129.892,510.854,123.2,504.835z M103.124,504.835v-2.679c8.032,0.666,13.384,2.679,16.73,6.689
			c4.02,4.013,6.026,9.372,6.026,17.397v1.339c-8.033-0.672-14.052-3.343-18.071-8.03
			C104.463,515.539,103.124,510.854,103.124,504.835z"/>
	</g>
	<g>
		<path fill="#858585" d="M95.098,296.707c4.679-13.384,2.006-23.423-6.692-30.114l-13.384-6.02l-2.013,15.383
			C74.349,286.669,81.714,293.361,95.098,296.707z"/>
	</g>
	<g>
		<path d="M72.342,259.899c-0.667,0.674-1.339,3.347-2.007,8.033c-0.672,6.025,0,12.045,2.673,16.064
			c3.346,8.024,11.378,12.711,22.089,15.384c1.333,0.674,2.673,0,3.346-2c3.347-10.711,2.673-19.41-2.013-26.769
			c-3.346-4.019-8.025-7.365-13.384-10.038c-3.346-1.347-6.019-2.68-8.025-2.68C73.682,257.894,73.009,259.227,72.342,259.899z
			 M75.021,272.612l2.007-8.692c6.692,2.673,11.377,5.346,14.723,9.364c2.007,3.346,3.347,7.366,3.347,12.045l-1.339,8.032
			c-8.699-2.673-14.058-6.692-16.064-11.378C76.354,279.303,75.021,275.957,75.021,272.612z"/>
	</g>
	<g>
		<path fill="#D96038" d="M165.365,431.224c2.673-3.348,4.014-8.041,4.68-14.731v-8.026l-12.711-0.667l-5.352-9.371
			c-3.347,0.667-7.365,2.68-12.051,6.024l-5.353,5.346l-10.705-7.356l-5.353-2.68l-5.359,9.37l-11.371,1.341
			c-0.674,9.365,0.667,17.403,4.679,23.422c-5.353,1.339-10.039,4.02-13.384,8.032l-4.68,5.352l5.353,8.697l-4.019,12.053
			c6.691,3.347,15.396,4.68,24.095,5.347c1.34,4.689,3.347,11.383,7.359,18.741l10.038-4.012l9.373,6.021l7.358-12.715l3.346-8.702
			l24.096-4.68l-2.679-11.386l7.358-8.69c-1.333-4.692-4.679-8.706-8.698-12.719L165.365,431.224z"/>
	</g>
	<g>
		<path d="M173.391,408.466c-0.667-2.012-2.006-3.348-3.346-3.348h-10.706l-4.685-8.704c-0.666-1.332-1.34-1.999-3.346-1.332
			c-4.686,0.666-11.377,4.013-17.396,10.036l-14.058-8.704c-1.333,0-3.346,0-4.013,1.348l-4.685,8.692l-9.365,0.672
			c-2.013,0.673-2.68,1.34-3.347,2.672v5.36c0,6.025,1.333,11.37,3.347,16.73c-4.02,2.679-8.032,4.678-12.051,8.695l-4.014,4.689
			l-0.666,2.005v1.342l4.68,8.022l-3.347,11.386l2.013,3.347l22.75,4.68l6.691,18.07c0.673,2.004,2.006,2.671,4.02,1.337
			l9.364-4.013l7.366,5.347l4.68-0.667c3.345-4.013,7.364-11.371,10.037-20.074c8.705-0.667,16.73-2.68,23.422-5.355l2.013-2.671
			v-1.348l-2.013-8.691l6.692-8.036v-2.001v-1.346c-2.673-6.022-7.359-12.039-13.384-16.73c2.014-4.68,3.346-10.038,3.346-16.73
			V408.466z M166.698,411.813v1.333c0,6.692-1.333,12.051-4.013,15.397l-0.667,2.681l0,0l1.333,1.999l4.686,4.691
			c4.02,2.67,6.692,6.018,8.698,10.038l-6.692,6.691c0,0-0.666,0.666-0.666,1.999v1.347l2.68,7.358l-20.75,4.014
			c-1.34,0.666-2.673,0.666-3.346,2.014l-8.031,18.063l-6.693-4.68h-3.345l-7.359,3.347c-2.679-6.694-4.686-12.05-5.352-16.063
			c-0.674-1.342-2.006-2.014-3.347-2.014l-19.41-4.013l2.006-9.372v-0.667v-1.332l-4.013-6.691
			c4.013-5.358,8.698-9.372,14.724-11.386l2.673-1.999v-0.673l-0.667-2.006c-2.679-4.013-4.013-10.04-4.013-16.73v-2.013
			l8.025-0.667l2.68-1.333l4.013-6.693c4.686,2.002,8.706,4.68,12.051,7.36h4.679c4.687-4.014,8.705-7.36,13.384-9.371l4.686,7.356
			l2.68,1.348L166.698,411.813z"/>
	</g>
	<g>
		<path d="M143.277,452.629c3.345-2.676,4.685-5.351,4.685-9.369c0-3.347-1.34-6.693-4.013-8.692
			c-2.005-3.344-5.351-4.691-9.371-4.691c-3.347,0-6.693,1.348-9.365,4.019c-2.013,2.672-3.346,6.019-4.02,9.365
			c0,3.347,1.339,6.693,4.02,8.703c2.005,2.681,5.352,4.68,9.365,4.68C137.923,456.643,140.604,455.31,143.277,452.629z
			 M139.93,437.914c2.013,1.332,2.013,3.346,2.013,5.346c0,2.014,0,4.019-2.013,5.36l-5.353,2.676c-2.673,0-4.686-1.343-6.019-2.676
			c-1.341-2.014-2.013-3.347-2.013-5.36c0-2,0.672-4.014,2.013-5.346c2.005-2.015,4.012-2.681,6.019-2.681
			C136.583,435.233,138.597,436.566,139.93,437.914z"/>
	</g>
	<g>
		<path d="M141.271,448.62c0,1.333,0.673,2.676,2.006,3.343l14.057,3.347c1.339,0.666,2.673,0,2.673-2.014
			c1.339-1.333,0-2.672-1.334-3.343l-14.056-3.347C143.277,446.606,141.943,446.606,141.271,448.62z"/>
	</g>
	<g>
		<path d="M147.961,421.184l-9.364,12.039h3.346c1.333,0.672,1.333,1.345,0.666,3.344l9.372-12.037c1.333-2.014,1.333-3.346,0-4.02
			C149.968,419.838,148.634,419.838,147.961,421.184z"/>
	</g>
	<g>
		<path d="M133.237,456.643c-2.006,0-2.673,1.347-2.006,3.346l1.34,10.711c-0.667,2.009,0.667,2.676,2.68,2.676l2.673-2
			l-1.34-13.386C135.917,456.643,134.578,455.976,133.237,456.643z"/>
	</g>
	<g>
		<path d="M124.54,449.953l-12.711,2.01c-2.013,0-2.679,1.333-2.013,2.681l2.68,1.999l12.718-1.999l2.005-2.681
			C127.218,449.953,126.546,449.286,124.54,449.953z"/>
	</g>
	<g>
		<path d="M121.193,422.516c-1.34,1.342-1.34,2.681,0,4.013l5.353,10.038c0,2.014,2.013,2.68,3.346,2.014l2.012-3.347
			c-2.012-4.685-4.02-8.705-6.691-12.051L121.193,422.516z"/>
	</g>
	<g>
		<path fill="#D96038" d="M77.028,358.942l-5.353,9.371l-11.378,1.333c-0.673,9.37,0.667,16.73,4.012,23.421
			c-8.031,2.681-14.05,6.694-17.396,13.387l4.686,8.704l-3.345,12.045c6.691,2.673,14.717,4.686,23.422,4.686
			c1.333,6.025,3.346,12.043,7.358,19.407l10.706-4.689l8.704,6.689l8.026-12.712l3.346-8.695c8.705,0,16.73-2.013,24.096-5.36
			l-2.68-10.703l7.366-8.699l-9.372-12.711l-6.026-4.691c2.68-2.674,4.685-7.359,4.685-13.384v-8.693l-12.709-0.672l-5.359-9.364
			c-3.346,0.665-6.692,2.671-11.372,6.017l-6.025,4.687l-10.705-6.692L77.028,358.942z"/>
	</g>
	<g>
		<path d="M141.943,407.126v-1.339c-3.346-6.692-7.366-12.72-14.059-16.73c2.008-4.68,3.347-10.04,3.347-16.73v-4.68
			c0-2.014-1.339-3.346-3.347-3.346h-10.037l-4.686-8.038c-1.333-2-2.005-2.673-3.346-2c-4.68,0.667-10.038,4.013-18.064,10.038
			c-2.012-2.68-5.358-4.02-8.705-6.025l-4.679-2.013c-1.34-1.333-3.347-0.667-4.019,0.673l-4.686,8.031l-9.365,1.333
			c-2.006,0.675-2.68,1.347-3.346,3.347v4.692c0,6.02,0.666,11.372,3.346,16.729c-7.365,3.347-12.717,8.026-16.064,13.384
			l-0.666,2.002l0.666,1.345l3.347,8.026l-2.673,10.703v0.675l2.006,2.673c6.019,3.347,13.384,4.691,22.75,5.357l4.019,12.045
			l2.672,6.018c0.674,2.014,2.014,2.68,4.02,1.348l8.698-4.02l7.358,6.019l5.359-1.333c3.345-4.014,6.692-10.703,10.038-20.076
			c8.698-0.666,16.731-2.011,23.422-5.357l2.006-3.348l-2.679-10.036l6.693-6.694L141.943,407.126z M90.412,370.993h4.686
			c4.013-4.019,8.698-7.366,13.384-9.372l4.679,7.359c0,1.34,1.34,1.34,2.014,1.34l9.365,0.673v1.333
			c0,7.357-1.34,12.051-3.346,15.398l-1.34,1.999l0.673,0.673l1.34,2.671l4.679,3.347l8.032,10.04l-6.019,7.364l-0.675,2.007v0.667
			l2.008,8.037l-20.077,4.014c-2.006,0-3.346,1.333-3.346,2.681l-8.026,17.396l-6.692-4.014l-3.346-0.675l-7.365,3.347
			l-6.019-16.055l-3.346-2.681l-19.41-3.347l2.679-8.704v-1.334l-0.673-2.013l-3.346-6.691c3.346-4.68,8.698-8.692,14.724-10.04
			l2.006-1.999v-1.348v-1.999c-2.672-4.019-4.013-10.037-4.013-16.729v-1.346l8.032-1.333l2.673-1.34l4.019-6.693
			C83.72,365.633,87.066,368.313,90.412,370.993z"/>
	</g>
	<g>
		<path d="M101.791,411.813c2.672-2.015,4.012-5.358,4.012-8.705c0-4.013-1.34-6.693-4.012-10.04
			c-2.013-1.999-5.359-3.344-8.705-3.344c-4.013,0-6.692,1.345-9.365,3.344c-2.68,2.015-4.02,5.36-4.02,9.374
			c0,4.013,1.34,6.69,3.346,9.371c2.679,2.68,5.359,3.346,9.372,4.013C95.765,415.825,98.444,414.492,101.791,411.813z
			 M98.444,397.089l2.006,5.353l-2.006,5.357l-6.025,2.674c-2.006,0-4.013-0.675-5.352-2.674c-2.006-1.345-2.006-3.347-2.006-5.357
			c0-2.68,0-4.014,2.006-6.027c1.339-1.332,3.346-1.999,6.019-1.999C95.098,394.415,96.431,395.082,98.444,397.089z"/>
	</g>
	<g>
		<path d="M99.777,407.799c-0.667,1.999,0,3.347,2.013,3.347l13.384,3.347c2.006,0.666,3.346,0,3.346-1.347
			c0.667-2,0-3.348-2.013-3.348l-13.384-4.011C101.117,405.118,99.777,406.454,99.777,407.799z"/>
	</g>
	<g>
		<path d="M101.117,395.082l9.372-12.052c0.667-1.333,0.667-1.999-0.673-3.347c-1.333-1.332-3.346-1.332-4.013,0.675l-8.032,10.71
			l2.679,0.666l1.34,2.007L101.117,395.082z"/>
	</g>
	<g>
		<path d="M91.079,415.158c-1.339,0.667-2.673,2.006-2.006,3.347l2.006,11.371c0,2.013,0.672,3.347,2.006,3.347l3.346-1.999
			l-2.006-13.385C94.425,415.825,93.085,415.158,91.079,415.158z"/>
	</g>
	<g>
		<path d="M82.38,408.466l-12.045,2.68c-2.006,0-2.679,1.333-2.679,3.347l3.347,2l12.717-2c1.34-0.674,2.006-1.347,1.34-3.347
			C85.06,409.798,84.387,408.466,82.38,408.466z"/>
	</g>
	<g>
		<path d="M79.701,381.697c-1.333,1.333-1.333,2.68-0.667,3.347l6.026,11.37c0,1.348,1.333,2.014,3.346,1.348
			c1.334,0,2.006-1.348,1.334-3.347c-1.334-4.691-3.347-9.371-6.693-12.718H79.701z"/>
	</g>
	<g>
		<path fill="#D96038" d="M309.911,83.899l-2.006-6.025l-10.712,3.346l-8.697-7.358c-4.687,4.012-8.698,8.698-10.705,13.384
			l-2.68,6.692c-4.686-2.68-9.365-3.347-15.39-3.347l-6.693,0.667l-2.68,10.038l-10.704,6.025
			c3.346,6.692,7.359,13.384,13.384,20.076l-8.03,18.736l11.377,4.02l2.007,11.371c5.354-0.666,12.718-3.346,22.083-8.025
			c6.691,6.019,14.057,10.038,21.416,12.711l5.353-10.038h12.051c1.333-5.353,2.006-10.039,1.333-16.057l-0.666-7.365
			c6.69-1.34,12.718-5.353,18.735-12.711l-8.698-9.372l2.681-10.705l-12.718-4.019h-7.36L309.911,83.899z"/>
	</g>
	<g>
		<path d="M312.591,81.887l-2.012-4.68c-0.668-2.013-1.335-2.679-4.012-2.679l-8.7,2.679l-7.365-5.359
			c-1.332-1.333-2.672-1.333-4.013,0c-6.024,4.692-10.037,10.711-13.384,18.076l-14.05-2.679l-6.694,0.667
			c-1.339,0.667-2.678,1.339-2.678,2.679l-2.008,8.699l-9.371,4.686c-1.339,0.667-2.006,2.006-2.006,3.346v1.333
			c2.679,5.359,6.691,12.051,13.385,19.41l-8.032,17.397v0.672c0,2.007,0.674,3.347,2.006,3.347l9.371,3.345l2.007,9.365
			c0,1.346,1.34,2.68,3.347,2.68c4.686-0.667,12.044-3.347,21.416-7.359l14.052,8.699l6.69,3.346c2.014,0.672,3.347,0,4.687-2.007
			l4.018-8.032h10.04l3.345-2.673l1.333-14.058l-0.666-8.031c6.692-2.006,12.719-6.692,17.396-12.718l1.341-2l-1.341-2.679
			l-7.357-7.359l2.68-9.372v-0.667l-1.34-2.68c-4.687-3.346-11.379-4.686-19.41-4.686L312.591,81.887z M295.188,83.899h3.347
			l7.366-1.339l3.344,13.385c0,2.006,0.667,3.345,3.347,3.345l16.058,2.673l-2.007,8.705l0,0l0.667,2.68l6.026,6.692
			c-4.687,6.019-9.373,8.692-13.384,9.365c-1.342,0-2.681,0.673-2.681,1.34l-0.667,2.006v1.34l0.667,8.698l-0.667,10.038h-10.036
			l-2.681,2.006l-4.014,7.359l-16.73-11.371h-4.012c-7.365,3.346-13.385,5.353-18.743,6.692l-1.332-8.031l-2.015-2.007l-7.357-3.346
			c2.006-6.025,4.013-11.377,6.691-14.724v-2.007l-0.667-2.679l-12.051-16.063l8.704-4.679l1.335-2.013l2.012-8.025
			c7.359,0,13.384,0.667,18.063,3.346h2.681l2.004-2.679l2.009-5.353c2.678-3.346,5.357-7.365,8.705-10.038L295.188,83.899z"/>
	</g>
	<g>
		<path d="M298.534,110.667c-2.674-2.013-6.019-3.346-9.364-3.346c-4.02,0-6.693,1.333-9.372,3.346
			c-2.679,3.346-4.012,6.025-4.012,10.038c0,3.346,1.333,6.692,4.012,8.699c2.679,2.673,5.353,4.019,9.372,4.019
			c3.346,0,6.69-1.346,9.364-4.019c2.006-2.007,4.02-5.353,4.02-8.699C302.554,116.693,300.54,114.014,298.534,110.667z
			 M283.143,126.058c-1.339-2.006-2.006-3.346-2.006-5.353c0-2.68,0.667-4.686,2.006-6.025c2.008-1.333,3.347-2.006,6.027-2.006
			c2.006,0,4.012,0.673,5.352,2.006c2.006,1.34,2.006,3.346,2.006,6.025c0,2.006,0,3.346-2.006,5.353
			c-1.34,1.339-3.346,2.006-5.352,2.006C286.489,128.064,285.15,127.397,283.143,126.058z"/>
	</g>
	<g>
		<path d="M289.837,129.404c-1.341,0.673-1.341,1.34,0,3.346l6.69,12.044c2.007,2.013,3.346,2.013,4.013,1.339
			c2.014-1.339,2.014-2.006,1.341-4.019l-8.031-12.711H289.837z"/>
	</g>
	<g>
		<path d="M313.924,114.014l-14.051,2.006l2.008,2.006l-1.341,2.68l14.725-2.013l2.006-2.672
			C316.604,114.014,315.938,113.347,313.924,114.014z"/>
	</g>
	<g>
		<path d="M271.766,142.788c2.68-1.339,5.354-5.352,8.032-10.038c0.667-2.006,0.667-3.346-0.667-4.019
			c-2.012-0.667-2.679-0.667-4.02,0.673l-6.02,9.365c-2.012,0.673-2.012,2.013-0.672,4.019H271.766z"/>
	</g>
	<g>
		<path d="M273.771,122.712l4.02-1.34c1.34-1.333,1.34-2.006-0.672-3.346l-10.706-7.358l-3.346,0.667
			c-1.34,1.339-0.667,2.679,0.668,3.346L273.771,122.712z"/>
	</g>
	<g>
		<path d="M291.176,98.616c-0.674,4.02-1.339,7.365-3.346,12.051c-1.341,0.667-0.674,2.006,1.34,3.346
			c1.332,0.667,2.673,0,3.346-1.34c2.672-4.686,4.012-8.698,4.012-13.384c0-2.006-0.667-3.345-2.678-3.345
			C292.516,95.944,291.176,97.283,291.176,98.616z"/>
	</g>
	<g>
		<path fill="#D96038" d="M218.23,44.413c-2.007-2.68-6.021-5.353-12.046-7.358l-8.032-1.34l-3.346,11.377l-11.378,3.347
			c0,5.352,2.014,12.044,6.694,19.41c-3.348,2-6.694,4.68-9.367,8.025l-4.019,4.686l8.032,8.031l-1.34,10.705l23.423,1.34
			c0.672,8.698,3.346,15.39,8.705,20.749l10.037-2.68l10.705,6.692c4.012-6.025,8.033-13.384,10.039-22.755l20.742-2.006
			l-1.334-11.378l8.025-7.359l-10.704-10.038l-7.359-5.359c2.007-9.365,2.674-17.397,0.667-24.755h-10.704l-6.693-10.039
			c-5.357,1.333-9.371,3.347-14.724,6.692L218.23,44.413z"/>
	</g>
	<g>
		<path d="M276.452,86.579l0.667-2.68l-0.667-1.339l-16.73-15.391l0.666-13.385l-0.666-10.704l-3.347-2.68h-9.371l-5.353-8.032
			c-1.341-1.339-2.007-2.005-3.347-1.339c-6.019,1.339-12.711,4.686-20.074,9.371c-2.674-2.679-7.36-4.686-12.046-6.692l-7.358-1.34
			c-2.013-0.672-3.348,0-4.02,2.007l-2.673,9.372l-9.371,3.345l-2.68,2.68v1.333c0,4.686,2.012,10.704,5.36,18.069
			c-2.68,2.007-5.36,4.687-7.367,7.366l-3.345,4.013l-1.34,2.006l1.34,2.006l6.692,6.692l-1.34,9.372v0.667l2.012,2.68l22.083,2.68
			c1.34,7.358,4.686,14.05,8.698,19.403h3.348l8.697-2.006l9.371,5.353h4.686c4.013-6.019,7.36-12.711,10.039-20.75l19.403-2.673
			c1.339,0,2.006-1.339,2.006-3.345l0,0l-1.334-10.039L276.452,86.579z M216.224,47.092l2.007,0.667l2.004-0.667l5.359-3.345
			c4.013-2.68,8.026-4.687,11.372-6.025l6.024,8.031c0,1.339,1.342,1.339,2.681,1.339h8.025v6.692l-1.335,14.051v0.667l1.335,2.679
			l15.396,12.717l-6.024,5.353c-0.667,0-0.667,1.339-0.667,2.006v1.34l0.667,8.032l-16.063,0.667c-1.333,0-3.347,1.34-4.014,2.68
			c-1.339,7.359-4.013,13.384-8.031,18.736l-8.032-5.352h-2.006l-8.032,2.006c-4.013-5.353-6.691-10.711-6.691-16.73l-1.334-2.673
			l-22.089-1.347l1.341-8.025l0,0l-1.341-2.679l-5.352-5.353c2.006-3.346,5.352-6.692,10.711-10.038l1.333-2.673v-2.013
			c-3.345-5.353-5.352-10.704-6.692-15.39l8.704-2.006l2.674-2.68l2.006-8.698C208.19,40.4,212.876,43.747,216.224,47.092z"/>
	</g>
	<g>
		<path d="M234.292,71.182c-1.338-3.346-4.686-5.352-8.032-6.025l-10.036,0.673c-2.681,2.006-4.687,4.685-6.026,8.032
			c-0.667,4.012-0.667,7.358,1.34,10.038l8.031,6.692c3.347,0.667,6.691,0,10.038-1.339c3.348-2.006,5.353-4.686,6.026-8.032
			C236.299,77.207,236.299,73.861,234.292,71.182z M216.224,81.22c-0.667-0.666-0.667-2.006-0.667-3.346
			c0-3.345,0.667-5.352,3.346-7.359h6.019l4.686,3.347c0.667,1.333,1.341,3.346,0.667,6.025l-3.347,4.679l-6.019,0.667
			L216.224,81.22z"/>
	</g>
	<g>
		<path d="M235.633,55.791l-6.692,13.384c-1.34,1.34-0.673,2.007,0.666,3.347c2.008,1.34,2.68,0,3.348-1.34l7.356-12.718
			c1.341-1.333,0.674-2.673-0.666-3.347C237.639,53.784,236.299,54.451,235.633,55.791z"/>
	</g>
	<g>
		<path d="M204.843,55.791c-1.337,0.673-1.337,2.006,0,3.347l9.375,12.044c-1.342-1.333-1.342-2.007,0.665-3.346h4.02
			l-10.039-12.044H204.843z"/>
	</g>
	<g>
		<path d="M235.633,82.56c-0.674,1.339,0,2.006,2.006,2.006l12.045,2.014c2.006,0,3.345-0.674,3.345-2.68
			c0-1.339-0.667-2.679-2.68-2.679l-12.044-1.333C236.299,79.213,235.633,80.554,235.633,82.56z"/>
	</g>
	<g>
		<path d="M226.26,89.251l-0.666,12.711l2.674,2.679c1.339,0,2.68-0.667,2.68-2.006l1.339-13.385c0-1.339-0.672-2.006-2.68-2.006
			C228.268,86.579,226.927,87.246,226.26,89.251z"/>
	</g>
	<g>
		<path d="M214.883,78.54l-14.05,3.347c-2.007,0.673-2.007,2.012-1.341,4.019c0.666,1.34,2.007,1.34,3.347,0.674
			c3.346-2.014,7.358-2.68,12.044-2.68l1.341-0.667l0.665-2.013C216.889,79.213,216.224,78.54,214.883,78.54z"/>
	</g>
	<g>
		<path fill="#D96038" d="M72.342,190.973l-0.667-8.033l-11.378,0.674l-6.692-10.039c-7.366,2-14.724,5.346-20.077,10.705
			c-2.68-3.347-6.692-5.359-12.717-7.358l-8.032-2.014l-3.347,11.378l-10.704,3.346c0,5.353,2.005,12.045,6.692,20.077
			c-4.687,3.345-9.372,6.691-13.384,12.044l7.358,8.031l-0.667,10.711l23.421,2c0,8.038,3.347,15.396,8.699,20.749l10.039-3.347
			l10.038,6.693l8.698-14.058l2.013-8.026l21.409-2.012l-2.672-11.372l8.698-7.358l-10.705-10.039l-7.365-5.358L72.342,190.973z"/>
	</g>
	<g>
		<path d="M74.349,206.364l1.339-12.71l-0.667-10.713l-3.346-3.346h-9.372l-5.352-7.365c-1.34-2-2.68-2-4.02-2
			c-6.692,2-12.711,4.679-19.403,9.365c-2.68-2.672-7.365-4.686-12.717-6.692l-7.359-1.339c-1.34-0.667-2.679,0.666-4.02,2.012
			l-2.006,10.039l-9.364,2.673c-2.013,0-2.68,1.339-2.68,3.346v0.673c0,6.019,2.006,12.038,6.025,18.73l-12.051,10.711l-0.667,2.007
			l0.667,2.679l6.692,6.025l-1.333,9.366v0.673l2.673,3.346l22.083,2.673c1.34,7.366,4.686,13.384,9.372,18.737
			c0,1.34,1.339,1.34,2.679,1.34l8.699-2.673l9.365,6.019c1.339,0.673,3.346,0,4.686-1.34c3.346-4.012,6.692-10.705,10.038-20.743
			l19.41-2.013c1.34,0,2.673-2,2.673-3.345l-0.667-0.667l-1.339-9.373l6.692-6.018l1.339-2.673l-0.667-2.013
			C88.406,216.401,82.38,211.716,74.349,206.364z M68.33,186.287l0.667,7.366l-1.34,14.05v0.667l1.34,2.68l15.391,12.044
			l-6.019,6.019c-0.673,0.673-1.34,0.673-1.34,2.012v0.667l1.34,8.032l-16.73,1.34c-1.34,0-2.679,1.333-3.346,2.678l-2.013,6.02
			l-6.019,12.71l-8.032-5.345l-2.68-0.672l-7.358,2.672c-4.686-5.345-6.692-11.371-6.692-16.729l-1.34-2.673l-22.083-2.006
			l0.666-8.032l0,0l-0.666-2.673l-6.025-5.358l11.377-9.372l1.34-2.672l-0.667-2.006c-3.345-5.36-5.359-10.706-6.025-15.398
			l8.699-2.673l2.006-2.007l2.679-8.704c8.032,2.012,13.384,4.019,15.39,7.365c1.34,0.673,1.34,1.339,2.68,1.339l2.006-1.339
			c5.353-4.019,10.705-6.692,16.73-8.698l5.352,8.025c0.673,0.673,2.006,1.346,3.346,1.346L68.33,186.287z"/>
	</g>
	<g>
		<path d="M41.562,204.357c-4.019-0.667-7.365-0.667-10.039,2.007c-2.679,1.34-5.358,4.019-6.025,7.365
			c-1.34,4.012-0.667,6.692,1.34,10.039c2.006,2.673,4.012,5.346,7.359,6.019l10.038-0.673c3.347-2,6.026-4.68,6.692-8.692
			c0.673-3.346,0-6.692-1.339-10.038C47.581,207.704,44.907,205.69,41.562,204.357z M34.196,210.383l6.025-0.673l4.686,3.345
			c1.333,2.673,1.333,4.686,0.667,6.692l-3.346,4.02l-6.692,0.666l-4.686-3.346c0-1.34-0.667-2.013-0.667-4.013
			C30.183,214.395,31.523,212.382,34.196,210.383z"/>
	</g>
	<g>
		<path d="M50.926,195.653l-6.692,12.717c-1.339,1.34-0.666,2.68,0.673,4.012c2.006,0.672,2.673,0.672,3.347-1.333l6.691-12.718
			c1.333-2.007,1.333-2.679-0.673-4.013C52.933,193.653,50.926,193.653,50.926,195.653z"/>
	</g>
	<g>
		<path d="M50.26,221.754c0,1.34,0.667,2.679,2.673,2.679l12.051,2.007l3.346-2.673c0-2.013-0.673-3.346-2.679-3.346l-12.044-0.674
			C51.599,219.074,50.926,219.747,50.26,221.754z"/>
	</g>
	<g>
		<path d="M42.228,229.113l-1.339,12.051c0,2.005,0.673,2.678,2.68,3.345l2.672-2.678l1.34-12.718c0-2-1.34-2.672-3.347-2.672
			C42.895,226.44,42.228,226.44,42.228,229.113z"/>
	</g>
	<g>
		<path d="M19.472,223.094c1.34,1.339,0.674,2.673-0.667,3.346l6.692-2.673l4.686-0.673c1.34,0,2.007-0.674,2.007-2.673
			c0-1.347-0.667-2.68-2.007-2.68l-5.352,1.333c-4.019,0-6.025,0.673-8.706,2.013C17.466,220.421,18.806,221.087,19.472,223.094z"/>
	</g>
	<g>
		<path fill="#D96038" d="M276.452,182.94c-2.007,4.686-3.347,12.712-4.687,23.423c-5.353,1.34-10.704,4.019-16.058,6.691
			l-6.024,4.02l5.352,10.038l-5.352,10.039c4.686,6.018,10.704,10.704,18.736,13.384c-2.674,6.02-2.007,13.384,1.339,22.749
			l12.045-2.672l7.366,8.692c4.68-2.673,10.037-8.024,14.05-16.057c6.024,3.347,11.378,5.353,17.397,6.692l3.345-10.712
			l10.039-4.012c-0.666-5.352-2.007-11.372-4.68-16.063l-4.019-6.02c6.691-4.019,11.379-10.037,14.057-16.73l-7.365-7.365
			l0.675-12.711h-16.065l-8.031,0.673l-7.358-10.711l-4.687-6.692l-9.371,7.365L276.452,182.94z"/>
	</g>
	<g>
		<path d="M342.705,216.401l-1.339-2.673l-6.025-6.692l0.674-10.711c0-2.006-0.674-3.346-2.68-3.346l-23.424,0.674l-10.704-16.064
			c-1.34-1.34-2.68-1.34-4.686-0.667l-7.365,6.018l-8.7-3.346c-2.004,0-3.345,0-4.685,2.006c-2.006,4.686-4.013,12.052-4.68,22.089
			l-15.396,6.692l-6.692,4.012l-0.666,2.68v2l4.685,8.038l-4.685,9.366v0.673v2.672c5.352,6.019,10.703,10.039,18.068,12.711
			l-1.339,6.025c0,4.686,1.339,10.705,3.346,15.397c0.667,2,2.007,2.673,3.346,2.673l10.039-2.673l6.691,7.359l4.013,0.667
			c4.686-2.006,9.371-6.693,14.725-14.051l14.725,5.352c2.678,0,3.345-0.672,4.011-2.672l2.68-9.372l9.373-3.346
			c0.667,0,1.334-1.339,1.334-2.679v-0.666c-0.667-8.033-3.348-14.725-7.36-20.743c6.026-4.692,10.037-10.711,12.045-16.73
			L342.705,216.401z M289.837,189.633l6.69-5.352l8.699,14.718c0.674,1.346,1.341,2.012,4.018,1.346l6.694-0.674h13.383
			l-0.673,9.366l1.34,2.014l5.353,5.352c-2.672,6.693-6.692,10.711-12.045,14.057c-1.339,0.667-1.339,2-1.339,2.673l0,0l0.672,2.673
			l3.346,4.692c2.008,3.346,4.014,8.025,4.68,12.711l-7.358,2.673l-2.679,2.012l-2.008,8.025l-13.383-5.346
			c-2.007-0.674-3.346-0.674-4.687,1.333l-10.703,12.717l-6.027-6.691l-3.345-0.667l-8.699,2l-2.007-11.372l1.341-6.025l0.666-1.333
			l-0.666-1.347l-2.008-2c-6.024-2.013-11.377-6.025-16.063-10.711l4.687-7.365l0.667-2l-0.667-1.345l-4.019-7.36
			c6.025-4.012,12.05-6.691,19.409-8.697l2.006-3.346c0.675-6.693,2.008-13.384,4.02-19.404l7.358,3.346L289.837,189.633z"/>
	</g>
	<g>
		<path d="M306.567,237.817c2.005-2.68,2.677-6.026,1.338-10.039c-0.672-3.346-2.679-6.024-5.352-8.032l-10.038-2.006
			c-4.02,1.333-6.693,3.347-8.706,6.026c-0.667,2.673-1.333,4.678-1.333,7.358v2.68c0.666,3.346,2.674,6.019,6.02,8.692
			c2.68,1.345,6.025,2.012,10.038,1.345C301.881,243.169,304.56,241.164,306.567,237.817z M303.22,229.786l-1.339,5.352
			l-5.354,3.347l-5.352-0.667l-4.02-4.686l1.34-6.691c1.341-1.34,2.68-2.673,4.686-3.346l6.691,1.339L303.22,229.786z"/>
	</g>
	<g>
		<path d="M284.483,229.786c2.006,0,2.673-0.673,2.673-2.673c0-1.345-0.667-2.679-2.673-2.679h-14.725
			c-1.339,0-2.679,1.334-2.679,2.679c0,2,1.34,2.673,2.679,2.673H284.483z"/>
	</g>
	<g>
		<path d="M282.477,253.882c0,2,0,2.673,1.333,3.345c2.013,0.667,3.347,0,3.347-1.346l6.693-14.051
			c-0.668,1.339-2.007,2.012-4.013,1.339c-0.667-0.672-1.341-2.005-0.667-3.346L282.477,253.882z"/>
	</g>
	<g>
		<path d="M287.156,201.011c-1.334,0.667-2.006,2.006-2.006,3.346l4.687,12.044c0.665,2.006,2.006,2.673,3.345,1.339
			c2.006-0.666,2.679-1.339,1.34-3.346l-4.02-10.705L287.156,201.011z"/>
	</g>
	<g>
		<path d="M313.258,212.382l-11.377,4.692c-2.008,1.333-2.674,2.672-2.008,4.013c0.667,2.007,2.008,2.007,3.347,1.333l12.045-5.346
			c1.339-0.673,2.006-1.347,1.339-3.346C315.938,212.382,314.598,211.716,313.258,212.382z"/>
	</g>
	<g>
		<path d="M300.54,234.472c-1.333,0.666-1.333,2.006-0.667,3.346l2.681,4.68l6.69,6.691l4.014-1.333
			c0.666-1.34,0.666-2.013-0.667-3.347l-6.023-5.357l-2.008-3.347C303.22,233.805,302.554,233.131,300.54,234.472z"/>
	</g>
	<g>
		<path fill="#D96038" d="M127.218,127.397l-16.729,2.007l-6.026,3.346c-2.672-5.353-5.352-9.365-9.365-13.384l-5.358-3.346
			l-8.699,5.352l-12.044-3.346c-2.679,7.359-4.012,15.397-3.346,24.762l-19.41,8.032l5.359,10.038l-5.359,9.371
			c4.02,3.346,11.378,6.693,22.089,9.365c0.667,9.365,2.673,17.403,6.692,24.096l10.039-3.346l9.365,7.359
			c7.366-4.013,12.045-8.705,16.731-16.064c4.685,4.014,12.044,4.686,22.082,2.68v-12.051l8.706-6.019
			c0-3.346-2.68-7.366-6.693-12.045l-5.358-4.686l8.705-16.73l-9.372-4.686L127.218,127.397z"/>
	</g>
	<g>
		<path d="M96.431,116.693l-5.352-4.019h-3.346l-6.692,4.686l-11.377-2.68c-2.007,0-3.346,0.666-3.346,2.68
			c-2.673,6.692-4.013,13.384-4.013,22.756l-18.07,7.358c-0.666,0.667-1.339,2.007-1.339,3.346l0.673,2.006l4.013,8.032
			l-4.686,8.025v1.346l1.339,2.673c3.347,3.346,10.039,6.692,20.75,10.038c1.333,8.033,3.346,16.058,6.692,22.75
			c0.667,1.347,2.006,2.014,4.013,1.347l9.372-2.68l7.358,6.026h4.013c5.359-3.346,11.378-8.039,15.397-14.73l21.409,2.011
			c2.013-0.666,3.346-1.339,3.346-3.345v-10.705l8.033-4.692l0.672-2.673v-0.673c-0.672-5.347-4.685-11.372-10.711-17.397
			l7.366-14.051v-1.34l-1.34-2.672l-8.699-4.02l-1.34-9.365c-0.672-2.013-1.339-2.679-3.347-2.679
			c-8.697-0.667-15.39,0.667-22.082,4.013L96.431,116.693z M83.047,124.052l6.693-4.686c5.358,4.686,9.371,9.365,11.377,14.724
			l2.007,2.006l3.346-0.673l4.686-2.672l13.384-2.006l1.34,8.025l2.004,2.013l6.693,4.013l-6.693,12.051l-1.338,2.673l1.338,2.006
			c4.687,4.014,8.033,8.033,10.713,12.718l-7.366,5.353l-1.339,2.673v8.705l-17.397-2.014l-2.68-0.666l-2.006,1.339L95.098,203.69
			l-7.365-6.026l-3.346-0.666l-8.032,2.672c-2.672-6.691-4.679-13.383-4.679-20.076l-3.346-2.672
			c-7.365-2.68-13.384-4.693-17.403-7.365l3.346-6.692l0.673-2.006v-1.34l-4.019-7.366c6.692-3.346,11.378-5.345,15.391-6.019
			c2.013-0.672,2.679-2.006,2.679-3.346v-1.339c0-7.358,0.667-14.051,2.68-18.737l8.699,1.34H83.047z"/>
	</g>
	<g>
		<path d="M106.47,170.229c2.013-2.679,3.346-6.025,3.346-9.371c0-3.346-1.333-6.692-4.68-9.372
			c-2.012-2.006-5.358-3.346-9.371-3.346c-4.014,0-6.692,2.013-8.699,4.685c-2.68,2.673-4.02,5.353-4.02,8.698
			c0.673,4.014,2.013,7.359,4.686,9.373c2.679,2.679,5.353,4.012,8.698,3.345C100.45,174.242,103.796,172.903,106.47,170.229z
			 M101.791,155.499c1.333,2.013,2.672,4.02,2.672,5.359v0.666l-2.672,5.359c-1.34,2-3.347,2.673-5.359,2.673
			c-2.006,0-3.346-0.674-5.352-2.673l-2.673-5.359c0-2.006,0.667-4.012,2.673-5.352c0.672-2.006,2.68-2.673,5.352-2.673
			C98.444,153.5,99.777,154.167,101.791,155.499z"/>
	</g>
	<g>
		<path d="M88.406,170.229l-2.68,14.718c-0.666,1.339,0.667,2.678,2.007,2.678l3.346-1.339l2.68-14.724
			c0-2.006-0.673-2.68-2.007-2.68C89.74,168.217,88.406,168.883,88.406,170.229z"/>
	</g>
	<g>
		<path d="M103.124,165.538c-1.333,0.673-1.333,2.012,0,4.019l13.384,8.032l3.346-0.667c1.34-1.346,1.34-2.68,0-3.347l-13.384-8.704
			C105.136,163.538,104.463,163.538,103.124,165.538z"/>
	</g>
	<g>
		<path d="M80.375,158.846l-12.045,2.012c-2.013,0.666-2.679,2.006-2.013,3.346l2.679,2.007l12.718-2.007
			c1.333-0.667,2.006-1.339,2.006-3.346C83.047,159.519,81.714,158.179,80.375,158.846z"/>
	</g>
	<g>
		<path d="M83.72,137.436c-2.006,0-2.68,1.333-2.006,3.346l2.673,12.044c0,1.34,1.339,2.006,3.346,2.006
			c1.34-0.666,2.007-2.006,2.007-3.346l-3.347-12.044C86.393,137.436,85.06,136.769,83.72,137.436z"/>
	</g>
	<g>
		<path d="M112.495,146.808l-10.038,6.019c-2.007,0.673-2.68,2.006-1.34,3.347c0,2.006,1.34,2.006,3.346,2.006
			c4.686-2.006,8.698-4.012,12.044-7.358c1.34-1.339,1.34-2.679,0-4.013C115.175,146.134,113.161,146.134,112.495,146.808z"/>
	</g>
</g>
</svg>
