<?xml version="1.0" encoding="utf-8"?>
<!-- Generator: Adobe Illustrator 13.0.0, SVG Export Plug-In . SVG Version: 6.00 Build 14948)  -->
<!DOCTYPE svg PUBLIC "-//W3C//DTD SVG 1.1//EN" "http://www.w3.org/Graphics/SVG/1.1/DTD/svg11.dtd">
<svg version="1.1" id="圖層_1" xmlns="http://www.w3.org/2000/svg" xmlns:xlink="http://www.w3.org/1999/xlink" x="0px" y="0px"
	 width="372px" height="587px" viewBox="0 0 372 587" enable-background="new 0 0 372 587" xml:space="preserve">
<g>
	<g>
		<g>
			<path fill="#333333" d="M330.471,45.706c0-3.299-1.32-4.62-4.62-4.62c-3.299,0-4.619,1.32-4.619,4.62
				c0,3.299,1.32,5.277,4.619,5.277C329.15,50.983,330.471,49.004,330.471,45.706z"/>
		</g>
	</g>
	<g>
		<g>
			<path fill="#333333" d="M300.12,33.167c0-3.299-1.321-5.277-4.62-5.277s-5.275,1.978-5.275,5.277c0,2.642,1.978,4.62,5.275,4.62
				S300.12,35.809,300.12,33.167z"/>
		</g>
	</g>
	<g>
		<g>
			<path fill="#333333" d="M312.655,62.2l-1.321-3.299l-3.299-1.984c-3.299,0-5.276,1.984-5.276,5.283
				c0,3.299,1.979,4.613,5.276,4.613l3.299-1.314L312.655,62.2z"/>
		</g>
	</g>
	<g>
		<g>
			<path fill="#333333" d="M342.345,75.396c0-3.299-1.32-4.62-3.959-4.62c-3.299,0-5.275,1.321-5.275,4.62s1.978,5.277,5.275,5.277
				C341.023,80.672,342.345,78.694,342.345,75.396z"/>
		</g>
	</g>
	<g>
		<g>
			<path fill="#333333" d="M339.707,30.525c0-2.635-1.321-4.613-3.96-4.613c-3.299,0-5.276,1.978-5.276,4.613
				c0,3.299,1.979,5.283,5.276,5.283C338.386,35.809,339.707,33.825,339.707,30.525z"/>
		</g>
	</g>
	<g>
		<g>
			<path fill="#333333" d="M335.087,99.145c0-2.642-1.978-3.956-5.277-3.956c-3.299,0-4.618,1.314-4.618,3.956l1.319,3.956
				c1.317,0.664,1.979,1.328,3.299,1.328l3.301-1.328L335.087,99.145z"/>
		</g>
	</g>
	<g>
		<g>
			<path fill="#333333" d="M346.965,131.477l-1.321-3.299l-3.299-1.985c-3.299,0-4.62,1.985-4.62,5.284s1.321,4.613,4.62,4.613
				l3.299-1.314L346.965,131.477z"/>
		</g>
	</g>
	<g>
		<g>
			<path fill="#333333" d="M310.017,91.233c0-2.642-1.32-4.626-4.619-4.626c-3.3,0-5.276,1.984-5.276,4.626l1.978,3.956l3.3,0.657
				l3.299-0.657L310.017,91.233z"/>
		</g>
	</g>
	<g>
		<g>
			<path fill="#333333" d="M286.925,49.004c0-3.299-1.321-4.62-4.62-4.62s-5.277,1.321-5.277,4.62c0,3.299,1.979,5.277,5.277,5.277
				C285.604,54.281,286.925,52.303,286.925,49.004z"/>
		</g>
	</g>
	<g>
		<g>
			<path fill="#333333" d="M351.581,105.085c0-3.299-1.979-4.62-4.616-4.62c-1.321,0-1.98,0.664-3.299,1.321l-1.321,3.299
				c0,3.299,1.321,5.277,4.62,5.277C349.604,110.363,351.581,108.384,351.581,105.085z"/>
		</g>
	</g>
	<g>
		<g>
			<path fill="#333333" d="M352.242,54.281c0-3.962-1.321-5.277-3.96-5.277c-1.979,0-2.64,0.657-3.299,1.314
				c-1.317,1.327-1.979,1.984-1.979,3.962l1.979,3.299l3.299,1.321C350.921,58.901,352.242,57.58,352.242,54.281z"/>
		</g>
	</g>
	<g>
		<g>
			<path fill="#333333" d="M226.225,541.854l-1.317-3.301c-1.321-0.656-1.981-1.313-3.96-1.313c-0.66,0-1.981,0.656-3.299,1.313
				c-0.66,1.327-1.321,1.985-1.321,3.301l1.321,3.962l3.299,1.32l3.96-1.32L226.225,541.854z"/>
		</g>
	</g>
	<g>
		<g>
			<path fill="#333333" d="M212.367,553.734c0-3.3-1.979-4.62-4.616-4.62c-3.299,0-4.62,1.32-4.62,4.62l1.321,3.299
				c1.317,1.313,1.978,1.313,3.299,1.313C210.391,558.348,212.367,557.033,212.367,553.734z"/>
		</g>
	</g>
	<g>
		<g>
			<path fill="#333333" d="M263.172,550.436c0-2.643-1.979-3.956-5.277-3.956c-2.642,0-4.619,1.313-4.619,3.956
				c0,3.3,1.979,5.276,4.619,5.276C261.193,555.712,263.172,553.734,263.172,550.436z"/>
		</g>
	</g>
	<g>
		<g>
			<path fill="#333333" d="M238.758,561.646l-1.316-3.299c-0.66-1.313-1.981-1.972-3.959-1.972c-0.66,0-1.979,0.657-3.299,1.972
				c-0.66,1.327-1.322,1.984-1.322,3.299l1.322,3.3c1.32,1.327,2.639,1.327,3.299,1.327l3.959-1.327L238.758,561.646z"/>
		</g>
	</g>
	<g>
		<g>
			<path fill="#333333" d="M247.338,539.218c0-2.636-1.32-4.62-4.62-4.62c-3.299,0-5.276,1.984-5.276,4.62
				c0,3.299,1.979,4.62,5.276,4.62l3.3-0.658L247.338,539.218z"/>
		</g>
	</g>
	<g>
		<g>
			<path fill="#333333" d="M293.521,555.712l-0.66-3.299c-1.32-0.663-2.639-1.979-3.959-1.979c-1.317,0-2.639,1.314-3.299,1.979
				l-1.979,3.299l1.979,3.963c0.66,0.657,1.98,0.657,3.299,0.657l3.959-0.657L293.521,555.712z"/>
		</g>
	</g>
	<g>
		<g>
			<path fill="#333333" d="M277.027,562.974l-0.66-3.299l-3.959-1.984c-2.639,0-4.616,1.984-4.616,5.283
				c0,2.636,1.978,3.956,4.616,3.956C275.707,566.93,277.027,565.608,277.027,562.974z"/>
		</g>
	</g>
	<g>
		<g>
			<path fill="#333333" d="M348.942,543.838l-1.32-3.299l-3.299-1.985c-1.979,0-2.64,1.327-3.3,1.985
				c-1.316,1.313-1.979,1.978-1.979,3.299l1.979,3.299l3.3,1.314l3.299-1.314L348.942,543.838z"/>
		</g>
	</g>
	<g>
		<g>
			<path fill="#333333" d="M315.293,562.974c0-3.299-1.978-5.283-5.276-5.283c-3.298,0-4.619,1.984-4.619,5.283
				c0,2.636,1.32,3.956,4.619,3.956C313.316,566.93,315.293,565.608,315.293,562.974z"/>
		</g>
	</g>
	<g>
		<g>
			<path fill="#333333" d="M344.323,561.646l-1.317-3.299l-3.96-1.972c-0.66,0-1.978,0.657-3.299,1.972
				c-0.66,1.327-1.321,1.984-1.321,3.299c0,3.3,1.321,4.627,4.62,4.627S344.323,564.945,344.323,561.646z"/>
		</g>
	</g>
	<g>
		<g>
			<path fill="#333333" d="M315.293,128.178c0-3.299-1.978-4.62-4.615-4.62c-3.3,0-4.62,1.321-4.62,4.62
				c0,3.299,1.32,5.277,4.62,5.277C313.315,133.455,315.293,131.477,315.293,128.178z"/>
		</g>
	</g>
	<g>
		<g>
			<path fill="#333333" d="M335.747,148.628l-0.66-3.299l-3.96-1.314c-1.317,0-1.978,0.657-3.299,1.314l-1.979,3.299l1.979,3.956
				c1.321,0.664,1.98,1.328,3.299,1.328l3.96-1.328L335.747,148.628z"/>
		</g>
	</g>
	<g>
		<g>
			<path fill="#333333" d="M271.747,33.825c0-3.299-1.978-4.614-5.276-4.614c-3.298,0-4.619,1.314-4.619,4.614
				c0,2.641,1.32,4.625,4.619,4.625S271.747,36.466,271.747,33.825z"/>
		</g>
	</g>
	<g>
		<g>
			<path fill="#333333" d="M227.544,44.385c0-3.299-1.319-4.62-4.619-4.62s-5.276,1.321-5.276,4.62c0,3.299,1.978,4.62,5.276,4.62
				C226.225,49.004,227.544,47.684,227.544,44.385z"/>
		</g>
	</g>
	<g>
		<g>
			<path fill="#333333" d="M245.355,27.89c0-3.299-1.979-4.62-4.615-4.62c-3.299,0-4.62,1.321-4.62,4.62
				c0,3.299,1.321,5.277,4.62,5.277C243.378,33.167,245.355,31.189,245.355,27.89z"/>
		</g>
	</g>
	<g>
		<g>
			<path fill="#333333" d="M212.367,32.51c0-3.299-1.979-4.62-4.616-4.62c-1.321,0-1.981,0.664-3.299,1.321l-1.321,3.299
				c0,3.299,1.321,4.614,4.62,4.614C210.391,37.124,212.367,35.809,212.367,32.51z"/>
		</g>
	</g>
	<g>
		<g>
			<path fill="#333333" d="M255.913,42.406c0-3.299-1.978-5.283-4.616-5.283c-1.32,0-1.98,0.664-3.299,1.984l-1.321,3.299
				l1.321,3.299c1.316,1.314,1.979,1.314,3.299,1.314C253.936,47.02,255.913,45.706,255.913,42.406z"/>
		</g>
	</g>
	<g>
		<g>
			<path fill="#333333" d="M298.799,111.683c0-3.299-1.979-4.62-5.275-4.62c-0.662,0-1.981,0.664-3.299,1.321
				c-0.662,1.314-1.322,1.979-1.322,3.299l1.322,3.956l3.299,1.321C296.82,116.96,298.799,114.982,298.799,111.683z"/>
		</g>
	</g>
	<g>
		<g>
			<path fill="#333333" d="M190.596,27.89l-1.32-3.299l-3.298-1.321c-3.298,0-5.277,1.321-5.277,4.62
				c0,3.299,1.979,5.277,5.277,5.277l3.298-1.314L190.596,27.89z"/>
		</g>
	</g>
	<g>
		<g>
			<path fill="#333333" d="M175.423,44.385l-1.321-3.299c-0.661-0.664-2.638-1.321-3.299-1.321c-3.299,0-4.62,1.321-4.62,4.62
				c0,3.299,1.321,4.62,4.62,4.62C174.102,49.005,175.423,47.684,175.423,44.385z"/>
		</g>
	</g>
	<g>
		<g>
			<path fill="#333333" d="M39.507,27.227c0-2.635-1.32-4.613-4.62-4.613c-3.299,0-4.616,1.978-4.616,4.613l1.317,3.962
				c1.321,1.321,2.639,1.321,3.299,1.321C38.187,32.51,39.507,30.525,39.507,27.227z"/>
		</g>
	</g>
	<g>
		<g>
			<path fill="#333333" d="M65.898,27.89c0-3.299-1.981-4.62-4.619-4.62c-1.979,0-2.639,0.658-3.299,1.321
				c-1.317,1.321-1.978,1.978-1.978,3.299l1.978,3.962l3.299,1.314C63.917,33.167,65.898,31.189,65.898,27.89z"/>
		</g>
	</g>
	<g>
		<g>
			<path fill="#333333" d="M54.021,42.406l-1.317-3.299l-3.299-1.984c-3.299,0-4.62,1.984-4.62,5.283
				c0,3.299,1.321,4.614,4.62,4.614l3.299-1.314L54.021,42.406z"/>
		</g>
	</g>
	<g>
		<g>
			<path fill="#333333" d="M40.825,59.558c0-3.299-1.318-4.613-4.617-4.613s-4.62,1.314-4.62,4.613c0,3.299,1.321,4.62,4.62,4.62
				S40.825,62.857,40.825,59.558z"/>
		</g>
	</g>
	<g>
		<g>
			<path fill="#333333" d="M95.589,29.211l-1.321-3.299l-3.299-1.984c-3.299,0-4.617,1.984-4.617,5.283s1.318,4.614,4.617,4.614
				l3.299-1.315L95.589,29.211z"/>
		</g>
	</g>
	<g>
		<g>
			<path fill="#333333" d="M39.507,225.823c0-3.299-1.32-5.276-4.62-5.276c-3.299,0-4.616,1.978-4.616,5.276
				c0,3.298,1.317,4.62,4.616,4.62C38.187,230.443,39.507,229.122,39.507,225.823z"/>
		</g>
	</g>
	<g>
		<g>
			<path fill="#333333" d="M48.083,247.595c0-3.299-1.978-4.613-5.277-4.613c-3.299,0-4.619,1.314-4.619,4.613
				c0,3.299,1.32,4.62,4.619,4.62C46.105,252.214,48.083,250.894,48.083,247.595z"/>
		</g>
	</g>
	<g>
		<g>
			<path fill="#333333" d="M42.146,370.975c0-3.3-1.321-4.619-4.62-4.619c-1.318,0-2.639,0.656-3.299,1.319l-1.318,3.3
				c0,3.299,1.318,4.619,4.617,4.619C40.825,375.594,42.146,374.273,42.146,370.975z"/>
		</g>
	</g>
	<g>
		<g>
			<path fill="#333333" d="M61.279,394.729c0-3.299-1.318-4.625-4.617-4.625c-2.642,0-4.62,1.326-4.62,4.625
				c0,2.637,1.978,4.614,4.62,4.614C59.961,399.344,61.279,397.365,61.279,394.729z"/>
		</g>
	</g>
	<g>
		<g>
			<path fill="#333333" d="M42.146,419.139c0-2.644-1.321-4.615-4.62-4.615c-3.299,0-4.617,1.973-4.617,4.615
				c0,3.298,1.318,4.618,4.617,4.618C40.825,423.757,42.146,422.437,42.146,419.139z"/>
		</g>
	</g>
	<g>
		<g>
			<path fill="#333333" d="M38.187,399.344c0-2.642-1.979-4.613-4.617-4.613c-3.299,0-5.28,1.973-5.28,4.613
				c0,3.299,1.981,4.619,5.28,4.619l3.299-0.663L38.187,399.344z"/>
		</g>
	</g>
	<g>
		<g>
			<path fill="#333333" d="M36.208,449.484l-1.321-3.3c-0.66-1.313-1.978-1.973-3.299-1.973c-3.299,0-4.616,1.973-4.616,5.271
				c0,3.298,1.317,4.626,4.616,4.626l3.299-0.664L36.208,449.484z"/>
		</g>
	</g>
	<g>
		<g>
			<path fill="#333333" d="M37.526,339.307c0-2.642-1.318-4.619-4.617-4.619c-3.299,0-4.62,1.979-4.62,4.619
				c0,3.299,1.321,5.276,4.62,5.276l3.299-1.319L37.526,339.307z"/>
		</g>
	</g>
	<g>
		<g>
			<path fill="#333333" d="M57.32,431.018c0-3.299-1.318-4.626-4.617-4.626c-1.321,0-1.981,0.664-3.299,1.327l-1.321,3.299
				l1.321,3.3c1.317,1.314,1.978,1.972,3.299,1.972C56.002,436.288,57.32,434.316,57.32,431.018z"/>
		</g>
	</g>
	<g>
		<g>
			<path fill="#333333" d="M44.124,515.462l-1.318-3.299l-3.959-1.972c-1.321,0-2.639,0.656-3.299,1.972l-1.321,3.299
				c0,3.299,1.321,4.626,4.62,4.626C42.146,520.088,44.124,518.761,44.124,515.462z"/>
		</g>
	</g>
	<g>
		<g>
			<path fill="#333333" d="M54.681,537.24c0-3.299-1.317-4.62-4.617-4.62c-2.642,0-4.619,1.321-4.619,4.62s1.978,4.612,4.619,4.612
				C53.364,541.854,54.681,540.539,54.681,537.24z"/>
		</g>
	</g>
	<g>
		<g>
			<path fill="#333333" d="M41.486,553.734l-1.979-3.3c-0.66-0.656-1.981-1.983-3.299-1.983c-1.321,0-1.981,1.327-3.299,1.983
				l-1.321,3.3l1.321,3.299c1.318,1.313,1.978,1.313,3.299,1.313l3.299-1.313L41.486,553.734z"/>
		</g>
	</g>
	<g>
		<g>
			<path fill="#333333" d="M57.98,561.646l-1.978-3.299l-3.299-1.313c-1.321,0-1.981,0.655-3.299,1.313l-1.321,3.299l1.321,3.963
				c1.317,0.664,1.978,1.32,3.299,1.32l3.299-1.32L57.98,561.646z"/>
		</g>
	</g>
	<g>
		<g>
			<path fill="#858585" d="M69.197,158.525l28.37,4.62c-19.793-19.793-33.649-31.011-41.565-32.325l-26.391-7.261
				c-11.878-4.62-21.114-9.233-25.73-14.517l9.236,17.815c8.576,12.532,18.473,21.114,28.37,25.07
				C50.722,156.546,59.961,158.525,69.197,158.525z"/>
		</g>
	</g>
	<g>
		<g>
			<path d="M56.002,128.178c-24.413-5.284-40.907-12.539-50.804-21.114c-0.661,0-1.978,0-3.299,0
				c-0.661,1.321-1.318,1.978-0.661,3.299l10.558,18.472c8.579,12.538,17.815,21.114,29.029,25.734
				c8.579,3.956,19.136,6.598,31.671,7.255l24.41,3.299c1.321,0.657,1.981,0,3.299-0.657c0.661-1.321,0.661-2.642-1.317-3.299
				c-3.299-4.62-9.236-9.896-17.815-16.494C69.858,134.775,61.279,129.492,56.002,128.178z M10.478,117.624
				c11.214,7.255,27.048,12.532,44.864,15.831c5.938,1.321,17.155,9.896,33.649,24.413l-16.494-1.321
				c-11.217-1.32-21.114-3.299-29.69-6.598C30.271,144.672,19.714,134.118,10.478,117.624z"/>
		</g>
	</g>
	<g>
		<g>
			<path fill="#858585" d="M106.803,90.569c13.195-17.816,31.01-39.587,54.103-64.657l-23.752,11.211
				c-10.558,5.283-18.473,11.224-23.092,17.158c-3.959,7.261-6.598,15.173-7.258,24.413
				C106.146,83.308,106.803,87.271,106.803,90.569z"/>
		</g>
	</g>
	<g>
		<g>
			<path d="M163.544,23.928l-3.959-0.658l-13.853,7.255c-8.579,3.299-14.517,6.598-18.476,8.582
				c-6.598,4.614-11.875,9.24-15.174,13.853c-4.62,7.255-7.258,15.837-7.918,25.077c-0.661,4.613,0,9.233,0,12.532l1.981,1.978
				c1.317,0.657,1.978,0,2.638-0.657c12.535-17.151,31.008-38.929,54.76-64.663L163.544,23.928L163.544,23.928z M147.71,35.809
				l2.639-1.984c-17.155,19.136-31.008,35.63-41.565,48.826c0-9.897,3.299-18.472,7.916-26.391
				C121.319,49.004,131.876,42.406,147.71,35.809z"/>
		</g>
	</g>
	<g>
		<g>
			<path fill="#858585" d="M106.803,157.21c0,5.934,1.32,10.554,3.959,13.196c3.299-22.435,8.579-37.615,15.177-45.527
				c6.598-7.255,17.812-16.495,32.328-27.712l-3.299-15.174c-6.598,3.299-13.196,8.576-19.793,15.174
				c-14.516,14.516-24.413,31.668-28.372,51.461V157.21z"/>
		</g>
	</g>
	<g>
		<g>
			<path d="M156.287,80.008c-1.318-0.657-1.979-0.657-2.639,0c-6.598,3.963-13.856,8.583-21.771,15.837
				c-14.516,14.517-23.753,31.675-27.712,52.125v9.896c0,6.598,1.321,11.211,4.62,13.853l1.979,1.321l2.638-1.978
				c3.299-22.436,8.579-36.945,14.516-44.207c5.938-7.919,16.495-16.494,31.668-27.712l1.32-2.642l-3.299-14.51L156.287,80.008z
				 M152.987,85.949l1.981,9.896c-14.516,11.218-24.413,19.793-31.011,27.712c-5.277,6.598-10.557,19.129-14.513,37.608
				l-0.661-7.919v-3.962c3.959-17.151,11.214-31.004,21.771-44.2C137.154,97.167,144.412,91.233,152.987,85.949z"/>
		</g>
	</g>
	<g>
		<g>
			<path fill="#858585" d="M90.969,233.084c9.896,0.658,19.133,3.957,27.711,9.233c-12.535-23.092-22.432-36.288-29.69-38.266
				l-21.114-3.956c-9.897-2.642-18.473-5.94-23.092-10.561l3.299,15.831c4.62,11.881,11.217,18.479,19.133,22.435L90.969,233.084z"
				/>
		</g>
	</g>
	<g>
		<g>
			<path d="M89.651,201.411l-11.218-1.979c-15.834-2.635-26.391-6.598-32.328-11.875l-3.299-0.657l-1.32,2.635
				c0,4.62,1.32,9.896,4.62,17.815c4.616,11.875,11.214,19.793,19.793,23.092l21.772,5.277c10.557,0.663,20.453,3.299,29.69,8.576
				l3.299-0.657v-3.299C108.124,217.248,97.567,204.052,89.651,201.411z M77.773,204.052l10.557,2.642
				c5.277,1.314,12.536,11.211,23.753,29.026c-7.258-3.299-15.177-4.62-24.413-5.277l-19.793-4.62
				c-9.897-4.62-16.495-14.516-19.793-31.011C54.681,199.432,64.578,202.731,77.773,204.052z"/>
		</g>
	</g>
	<g>
		<g>
			<path fill="#858585" d="M62.6,114.982l7.916,13.196c1.981,7.912,5.28,13.853,9.896,17.151c1.981,1.985,5.28,3.299,9.24,4.62
				c3.956,1.979,5.938,5.277,7.255,9.897l1.981,19.793c0.66,11.218,1.978,22.429,4.616,32.989
				c1.981,11.218,8.579,23.755,19.793,36.288l15.177,16.495l5.938-14.516l-13.196-13.853c-9.236-10.554-13.855-21.114-15.834-29.69
				c-4.619-31.011-6.598-49.483-6.598-55.424c0-1.979,0.661-3.956,1.979-7.912l2.638-9.24c0.661-14.516,0.661-27.712,0-38.93
				L92.29,93.868c-15.177,0-27.051,4.62-34.97,13.859L62.6,114.982z"/>
		</g>
	</g>
	<g>
		<g>
			<path d="M54.681,109.042c7.258,7.919,11.217,14.517,13.196,19.136c2.638,9.239,5.937,15.837,11.217,19.793l6.598,3.299
				c1.979,0.657,3.959,1.978,5.277,3.299c1.32,0.657,2.638,3.299,3.299,5.277l1.321,14.517c1.317,13.853,2.638,26.391,5.277,38.266
				c1.981,11.875,8.579,24.413,19.793,37.609l16.495,17.151l1.981,0.657l1.318-1.315l5.937-14.516l-0.657-3.299l-12.538-13.195
				c-9.236-11.217-13.853-20.457-15.174-29.026c-3.959-29.033-6.598-48.169-6.598-54.767l1.979-6.598
				c1.32-3.956,1.981-7.255,1.981-10.554l0.661-9.239v-29.69l-1.981-1.978l-22.432-2.635c-15.834,0.657-27.712,5.27-36.948,14.51
				C54.021,107.063,54.021,108.384,54.681,109.042z M87.67,146.65l-5.277-3.299c-4.62-2.635-7.258-8.576-9.896-16.494
				c-1.321-4.62-4.62-10.561-11.878-18.473c11.878-11.217,28.372-14.516,50.144-9.896v36.288l-2.639,8.576
				c-1.32,3.963-1.978,6.598-1.978,8.576c0,7.255,2.638,25.734,7.255,55.424c1.981,13.853,11.217,29.032,27.052,44.863l-3.299,8.576
				c-5.938-5.277-11.875-11.875-16.495-18.473c-8.576-11.217-13.196-21.114-15.174-30.354c-1.981-11.211-3.299-24.407-4.62-37.602
				l-1.978-15.18C97.567,153.248,94.268,148.628,87.67,146.65z"/>
		</g>
	</g>
	<g>
		<g>
			<path fill="#D96038" d="M56.002,88.591l49.483-17.151l-9.236-12.539c-8.579-7.918-17.155-9.24-27.052-4.62
				c-9.236,4.62-14.516,11.217-14.516,21.114C54.021,80.672,54.681,85.292,56.002,88.591z"/>
		</g>
	</g>
	<g>
		<g>
			<path d="M108.124,70.112c-3.299-7.255-7.918-12.532-13.855-16.494c-8.576-5.271-16.495-5.934-25.73-1.314
				C57.98,56.917,52.703,64.178,52.043,75.396c-0.661,5.277,0.66,9.896,1.978,14.51c0.661,1.984,1.981,1.984,3.299,1.984
				l49.483-17.815l1.981-1.978L108.124,70.112z M90.969,58.244c4.62,2.636,7.918,7.255,11.217,11.868L57.98,85.292l-0.66-7.918
				c0-9.233,3.959-16.494,13.856-20.457C77.773,53.618,85.031,54.281,90.969,58.244z"/>
		</g>
	</g>
	<g>
		<g>
			<path fill="#D96038" d="M111.422,76.053L107.463,62.2c-1.978-2.642-5.277-3.299-9.896-1.32l-11.875,4.619
				c-3.299,1.979-4.62,5.277-5.28,9.897l-0.657,8.576l-3.959,9.896c-2.639,6.598-1.981,11.875,1.317,14.516
				c5.28,3.299,9.897,5.277,15.177,6.598c5.938,0.657,9.897,0,13.196-3.299c5.277-4.62,8.576-11.217,8.576-19.793L111.422,76.053z"
				/>
		</g>
	</g>
	<g>
		<g>
			<path d="M87.67,62.2l-3.299,1.315c-5.277,1.984-7.258,7.261-7.258,17.158v1.978c-3.299,6.598-5.937,12.539-5.937,18.479
				c0,3.956,1.321,7.255,4.62,9.233c5.277,3.299,11.214,5.934,16.494,6.598c6.598,1.32,11.875,0.664,15.174-3.299
				c5.938-5.277,9.236-13.196,9.236-21.772l-2.638-16.494c-1.979-6.598-3.299-11.217-4.617-14.516
				c-1.981-3.299-4.62-4.62-8.579-3.299C97.567,57.58,93.607,58.901,87.67,62.2z M104.165,62.857l4.62,13.853l1.979,15.18
				l-0.661,9.897c-1.318,2.642-3.299,5.277-5.938,8.576c-2.639,1.978-6.598,2.635-11.875,1.32c-4.619-0.657-8.579-3.299-13.195-5.94
				c-1.981-1.314-2.638-4.613-1.321-9.897l4.62-10.554v-1.984l0.661-8.569c0.657-3.962,1.317-5.941,3.299-5.941l3.956-1.984
				C98.888,62.857,104.165,61.542,104.165,62.857z"/>
		</g>
	</g>
	<g>
		<g>
			<path fill="#D96038" d="M59.961,111.683c1.978,1.979,7.916,3.299,17.151,5.941c3.959,0.657,7.918-2.642,10.558-11.881
				c3.299-8.576,3.959-15.173,3.299-20.451c-0.661-4.62-4.617-7.918-10.558-9.239l-14.513-1.978
				c-8.579,0-13.195,6.598-11.878,20.457C54.681,103.101,56.663,108.384,59.961,111.683z"/>
		</g>
	</g>
	<g>
		<g>
			<path d="M65.898,71.439c-4.619,0-7.918,1.314-9.896,3.956c-3.959,3.956-5.28,9.896-4.62,19.136
				c0.661,9.233,2.638,15.831,6.598,18.466c1.981,1.984,7.258,3.963,15.834,5.94l2.642,1.321c2.638,0.664,5.276,0,7.915-1.979
				c2.639-3.299,5.28-8.582,7.258-16.494c1.978-6.598,2.639-12.539,1.978-17.152c-1.318-5.94-5.277-9.239-13.196-11.881
				L65.898,71.439z M59.301,78.694c1.979-1.321,3.959-1.985,6.598-1.985l13.856,1.985c5.276,1.978,7.916,3.299,7.916,6.598
				c0.66,3.956,0,9.24-0.661,15.174c-1.979,6.598-4.617,11.217-6.598,13.196l-2.638,1.32l-3.299-1.32
				c-6.598-1.321-11.875-3.299-13.195-5.277c-1.979-1.984-3.959-6.598-4.617-14.516C56.002,86.606,57.32,81.993,59.301,78.694z"/>
		</g>
	</g>
	<g>
		<g>
			<path fill="#858585" d="M71.176,278.605c-9.896-5.277-18.473-6.598-26.391-6.598c-13.196,0.664-27.709,3.299-42.886,6.598
				l19.133,19.129c12.539,13.858,21.774,24.421,25.734,32.988c5.938,11.883,15.174,20.457,26.391,26.393
				c14.514,7.261,30.347,7.261,48.823,1.328c17.155-4.627,25.07-19.795,23.092-43.551l-7.918-33.651
				c-5.938-3.956-13.196-7.255-22.433-10.554c-17.154-7.255-32.328-9.896-45.524-8.576l3.959,11.217
				c2.639,4.613,4.617,8.576,5.938,10.554L71.176,278.605z"/>
		</g>
	</g>
	<g>
		<g>
			<path d="M66.559,260.791l-0.661,1.321v1.32l4.617,11.211c-9.236-4.613-17.812-6.598-25.73-5.934
				c-13.856,0.664-27.709,3.299-43.546,7.261l-2.638,2.635l1.321,3.299l18.473,17.815c13.195,13.195,21.114,24.406,25.73,32.332
				c5.94,11.868,13.856,19.795,23.753,25.727c15.834,9.896,34.31,11.219,55.42,3.965c9.897-2.643,17.155-9.24,21.114-17.822
				c4.62-9.896,5.938-23.749,2.639-40.9l-6.598-23.093l-1.318-1.321c-7.258-4.619-15.177-7.918-23.753-11.875
				c-17.815-6.598-32.989-9.239-46.185-7.918L66.559,260.791z M8.497,280.584c13.196-2.642,25.074-4.614,36.288-5.277
				c7.918,0,15.834,1.321,24.413,6.598c4.617,1.979,7.916,4.619,11.214,6.598l0.661,0.664c1.321,0.656,2.639,0,3.299-1.327
				l1.321-1.315l-1.321-3.299l-1.317-0.657c-2.642-2.642-5.941-7.925-9.24-17.158c10.557,0,23.753,1.978,38.269,7.918
				c8.576,3.299,16.495,6.598,22.432,9.896c5.277,13.196,7.258,25.735,7.258,38.267c0,7.918-1.32,14.517-3.299,19.793
				c-3.299,6.598-9.236,11.875-17.815,14.517c-18.473,5.941-34.967,5.276-49.483-3.299c-8.576-5.283-16.495-13.194-21.771-23.749
				C43.467,317.527,29.611,301.034,8.497,280.584z"/>
		</g>
	</g>
	<g>
		<g>
			<path d="M21.032,285.867c-1.318,0-1.978,0.656-1.978,1.314c0,1.984,0.66,2.641,1.978,2.641l18.476,3.957
				c14.513,4.62,25.071,10.554,31.668,19.136c7.918,9.239,21.774,15.838,41.568,19.794l28.369,3.299l2.639-1.984l-2.639-1.972
				l-27.051-3.299c-19.133-3.299-32.329-9.896-39.587-17.821c-7.258-9.233-18.473-16.494-32.989-21.108L21.032,285.867z"/>
		</g>
	</g>
	<g>
		<g>
			<path d="M67.877,324.126c-1.318-1.313-1.979-1.313-3.299,0c-0.661,1.328,0,1.983,0.66,3.299l18.473,11.882
				c15.177,7.912,29.033,10.555,42.885,9.239l1.981-1.327l-1.981-2.636c-13.195,1.321-27.048-1.978-40.904-9.231L67.877,324.126z"/>
		</g>
	</g>
	<g>
		<g>
			<path d="M94.928,277.942l-2.639,0.664v2.636l15.174,15.18c11.878,12.539,19.793,25.07,25.731,38.266
				c0,1.321,0.66,1.321,1.981,0.664c1.979-0.664,1.979-1.328,1.318-2.642c-5.938-13.196-13.853-25.733-25.73-38.272L94.928,277.942z
				"/>
		</g>
	</g>
	<g>
		<g>
			<path d="M90.969,299.721l-2.639-0.658c-0.66,1.314-0.66,2.636-0.66,3.301l6.598,8.568c5.28,7.26,9.236,13.858,11.878,19.793
				c0.657,0.664,1.317,0.664,2.638,0.664c1.318,0,1.318-1.32,1.318-2.636L97.567,308.96L90.969,299.721z"/>
		</g>
	</g>
	<g>
		<g>
			<path fill="#858585" d="M344.323,168.421c-9.897-1.978-21.771-1.978-36.288-0.657c-29.029,1.978-55.422,9.897-79.174,23.092
				l-10.553,43.543c-5.941,32.331-5.281,54.103,1.315,67.298c7.259,12.531,19.794,12.531,38.927-1.32
				c9.896-6.598,18.477-14.51,27.053-23.75l17.154-14.516c13.195-9.233,23.752-15.173,32.328-17.158
				c-7.259-8.57-14.513-12.532-21.771-12.532l13.855-21.114C336.408,195.47,342.345,180.96,344.323,168.421z"/>
		</g>
	</g>
	<g>
		<g>
			<path d="M347.622,168.421c0-1.978-1.317-3.299-2.639-3.299l-38.927-0.657c-28.369,1.978-54.761,9.897-79.174,23.092l-0.66,1.978
				l-11.875,46.185c-5.279,31.668-4.619,54.102,2.639,67.297c3.3,5.941,7.92,9.896,13.855,10.556
				c9.896,1.319,21.771-3.957,36.288-15.175l20.454-19.793l17.813-13.195c12.534-9.897,22.432-15.173,30.351-17.158l1.978-2.635
				l0.661-0.664l-0.661-1.972c-5.937-6.598-11.874-10.561-18.472-12.538c16.494-22.435,25.73-42.886,28.369-61.365V168.421
				L347.622,168.421z M310.678,233.742l2.639,1.978c5.275,0,9.896,1.978,15.834,7.919c-8.575,3.299-18.473,8.575-29.69,17.809
				l-16.494,12.539l0,0L259.873,295.1c-11.219,9.233-20.454,13.195-27.713,11.875c-4.616-0.656-7.254-2.642-9.235-7.254
				c-3.3-5.941-5.276-14.518-5.276-27.049c0-13.859,1.978-30.354,5.938-48.826c3.299-13.196,5.938-23.75,8.575-31.011
				c19.794-10.56,41.567-17.815,66.639-21.114c14.518-1.314,28.373-1.978,40.908-0.657c-3.299,19.136-13.196,38.929-28.373,59.38
				l-1.317,1.978L310.678,233.742z"/>
		</g>
	</g>
	<g>
		<g>
			<path d="M322.552,181.617c0-0.657-0.66-0.657-2.639-0.657c-9.235,5.277-20.454,11.875-31.672,21.107
				c-23.093,18.479-40.903,38.272-51.462,60.708c-0.659,1.314,0,2.635,0.662,2.635c1.978,1.32,2.638,0.664,2.638-1.321
				c10.558-21.771,27.713-41.565,50.146-59.38c11.873-8.576,22.432-15.174,32.327-20.451
				C323.212,184.259,323.873,182.938,322.552,181.617z"/>
		</g>
	</g>
	<g>
		<g>
			<path d="M283.626,180.96c-0.661,0-1.321,0-1.981,0.657l-5.276,12.539c-3.3,8.575-5.276,16.494-5.938,23.092
				c0,1.978,1.317,1.978,2.639,1.978l1.979-1.321c0-6.598,1.321-13.853,4.62-23.092l5.276-11.211
				C285.604,182.938,284.941,181.617,283.626,180.96z"/>
		</g>
	</g>
	<g>
		<g>
			<path d="M316.614,207.351c-0.66-1.321-1.321-1.984-2.639-1.321l-24.413,4.62h-11.219c-1.978,0-1.978,0.657-1.978,1.978
				c0,1.321,0,1.978,1.978,1.978l11.879-0.657l25.069-4.62C316.614,209.329,316.614,208.666,316.614,207.351z"/>
		</g>
	</g>
	<g>
		<g>
			<path d="M300.78,232.421l-1.981-1.32l-20.453,4.62l-38.927,7.919c-1.978,0-1.978,0.657-1.978,1.978
				c0,1.321,1.315,1.978,2.638,1.978c17.155-3.299,36.948-7.255,59.38-12.538L300.78,232.421z"/>
		</g>
	</g>
	<g>
		<g>
			<path fill="#858585" d="M251.954,493.696l1.981,10.555c3.299,7.912,9.235,15.174,16.494,21.107
				c7.914,4.626,19.133,9.896,32.988,13.194l22.432,6.6c-0.659-3.3-1.32-6.6-1.978-11.211c-1.321-8.583-0.661-17.152,1.978-23.75
				c2.64-7.926,3.3-17.158,3.3-26.393c-0.66-7.925-2.64-13.857-4.62-18.479l11.879,3.956c0-5.271-0.661-11.211-3.299-18.467
				c-5.281-13.858-14.519-27.055-29.03-39.587c-9.896,0-20.453,2.635-31.671,5.935c-22.434,7.919-36.288,19.794-42.227,36.288
				l1.979,19.794c1.982,15.173,5.941,27.712,10.558,37.607L251.954,493.696z"/>
		</g>
	</g>
	<g>
		<g>
			<path d="M226.884,453.446l1.978,20.457c1.981,15.831,5.941,28.362,11.219,38.923c0,0.664,1.32,1.321,2.639,1.321
				c0.66,0.656,1.981,0,3.299-0.657l4.621-9.239c2.639,9.239,9.235,17.151,18.471,23.092c7.92,5.94,22.434,11.211,41.569,15.837
				l13.853,4.613l3.96-0.656l0.66-1.983v-1.314c-1.321-5.284-2.64-10.555-2.64-17.152c0-5.939,0.661-11.224,2.64-15.837
				c1.978-6.598,3.299-14.517,3.299-21.777c0-6.599-0.66-13.195-2.64-19.129l5.938,1.978l2.639-0.657l1.321-1.983
				c1.316-3.956-0.661-10.556-3.96-19.793c-4.62-14.511-14.517-28.363-29.689-40.901l-1.979-0.657
				c-11.218,0.657-22.437,2.636-34.31,6.599c-22.433,7.912-36.289,20.45-42.887,37.602L226.884,453.446L226.884,453.446z
				 M235.459,472.576l-1.979-19.13c5.938-13.859,17.815-25.07,36.949-31.669c11.213-4.619,22.432-6.598,32.328-7.254
				c18.473,15.83,28.368,32.324,29.689,49.482l-6.599-1.983c-1.978-0.657-3.299,0-3.299,1.319c-0.66,0-1.321,0.664-1.321,1.979
				l0.661,1.319c2.639,4.62,3.959,12.532,3.959,21.771c0,7.256-0.659,13.854-3.299,20.451c-1.321,5.282-2.639,11.224-2.639,17.82
				l1.316,13.195l-9.235-2.641c-19.133-5.284-32.328-9.897-38.926-15.182c-7.26-4.612-12.535-11.211-15.834-17.809
				c-1.321-3.956-1.981-7.256-1.981-9.896v-0.657c0-1.326-1.317-2.642-2.64-3.299l-3.959,2.636l-5.276,10.561
				C240.079,495.011,237.441,484.458,235.459,472.576z"/>
		</g>
	</g>
	<g>
		<g>
			<path d="M271.747,447.512c-1.317,0.658-1.317,1.974-1.317,2.637l6.598,11.218l11.215,25.069
				c5.281,17.158,11.879,30.354,21.115,40.907c0.659,1.314,1.32,1.314,2.638,0c0.661-0.657,0.661-1.983,0-2.642
				c-8.575-10.555-15.173-23.749-19.793-40.243c-2.64-7.256-5.938-15.181-11.214-24.414l-6.598-11.874
				C273.068,446.849,272.408,446.849,271.747,447.512z"/>
		</g>
	</g>
	<g>
		<g>
			<path d="M292.201,487.757c-1.317,0-2.639,0-2.639,1.979l-2.639,9.896c-1.32,7.262-1.982,13.859-1.982,17.815
				c0,1.313,0.662,2.642,1.322,2.642l2.639-2.642c0-3.956,0.66-9.896,1.98-17.151l1.979-9.896
				C293.521,489.734,292.861,488.413,292.201,487.757z"/>
		</g>
	</g>
	<g>
		<g>
			<path d="M290.225,483.137l-1.982,1.979c-0.656,1.32,0,1.983,1.32,1.983l11.876,3.3c5.939,2.636,9.896,3.957,11.878,5.935
				c1.316,1.321,1.978,1.321,2.639,0c1.321-0.663,1.321-1.321,0-2.636c-2.639-2.642-7.259-4.626-14.517-7.261L290.225,483.137z"/>
		</g>
	</g>
	<g>
		<g>
			<path d="M267.131,498.968l2.639-1.973c0-4.625,2.64-13.195,5.276-23.755l4.62-15.174c0-1.321,0-1.321-1.32-1.984
				c-1.318,0-1.979,0-2.639,0.663l-3.96,15.831c-3.299,10.561-5.276,18.479-5.938,23.756
				C265.811,498.31,265.811,498.968,267.131,498.968z"/>
		</g>
	</g>
	<g>
		<g>
			<path fill="#858585" d="M212.367,452.783c-1.317-11.211-17.813-18.467-48.823-20.45c-31.007-1.979-53.442,0.656-69.276,7.918
				l-13.856,13.195C70.516,465.978,62.6,478.516,57.98,492.37h22.432l-5.937,14.521c-3.299,13.854-1.318,30.349,4.62,49.483
				l58.06-6.598c7.918-1.327,17.154-4.626,25.73-10.562l10.557-9.232l3.299,23.093c6.598-7.925,13.196-17.822,19.133-30.354
				C209.068,497.653,213.688,474.561,212.367,452.783z"/>
		</g>
	</g>
	<g>
		<g>
			<path d="M204.452,438.931c-11.218-7.255-30.351-10.555-56.081-10.555c-25.074,0-43.546,2.642-56.082,8.576v0.663l-14.516,14.51
				c-10.557,11.882-18.473,24.414-23.092,38.931c0,1.314,0,1.979,0.661,2.642c0.66,1.313,1.978,1.973,2.638,1.973h16.495
				c-3.299,6.598-5.277,14.522-5.277,24.419c0,11.868,2.639,23.75,6.598,36.945l3.959,2.642l57.399-6.598
				c11.217-1.327,23.092-6.599,33.649-15.837l2.638,16.494l2.639,2.642c0.66,0,1.981,0,3.299-1.327
				c7.258-8.569,14.516-19.13,20.454-31.662c12.535-24.419,17.155-48.825,15.834-70.604
				C215.01,446.849,211.711,442.887,204.452,438.931z M148.371,434.975c24.41,0,42.225,3.3,52.781,9.238
				c5.277,2.636,7.259,5.936,7.916,9.233v7.919c0,27.705-9.896,55.424-31.007,83.787l-1.321-15.168c0-1.327-0.66-2.643-2.638-3.3
				c-1.321,0-2.638,0-3.299,1.314l-9.897,8.582c-8.575,5.935-16.494,9.232-24.413,9.896l-54.761,6.6
				c-3.959-13.196-5.937-23.756-5.937-32.989c0-7.925,1.317-13.859,3.299-19.793l3.299-5.94l1.318-1.983l-0.657-1.314
				c-0.661-0.657-0.661-1.32-2.642-1.984H62.6c5.277-11.868,11.875-22.43,20.454-32.988l12.535-13.195
				C107.463,437.615,124.618,434.975,148.371,434.975z"/>
		</g>
	</g>
	<g>
		<g>
			<path d="M167.504,453.446c-1.321-0.663-1.978,0-3.299,0.664c-11.217,23.749-27.051,41.559-45.524,52.781
				c-9.896,6.599-17.815,13.854-24.413,23.75c-3.299,4.612-5.938,9.238-7.258,13.195c-0.657,1.314,0,2.641,0.661,2.641
				c1.32,0.658,2.638,0,2.638-1.325c1.981-3.3,3.959-7.256,7.258-11.869c6.598-9.896,14.516-17.821,23.092-23.092
				c19.793-12.538,35.627-30.354,47.505-54.109C168.164,454.768,168.164,453.446,167.504,453.446z"/>
		</g>
	</g>
	<g>
		<g>
			<path d="M121.98,508.864l-1.981-1.973c-1.318,0-2.638,0-2.638,1.973v11.224c0,7.255-1.318,13.195-2.639,16.494
				c-0.66,0.658-0.66,1.972,0.661,2.636l3.299-1.32l2.639-17.81L121.98,508.864z"/>
		</g>
	</g>
	<g>
		<g>
			<path d="M104.165,495.011c-6.598,1.984-11.875,4.62-15.174,6.599c-1.32,0.657-1.32,1.32-0.661,2.643l2.639,0.656l14.516-5.939
				c11.875-3.299,22.432-5.271,32.989-3.957l2.639-1.978l-1.321-1.979C127.917,489.734,116.7,491.056,104.165,495.011z"/>
		</g>
	</g>
	<g>
		<g>
			<path d="M145.732,488.413l-1.981-1.979c-1.318,0-1.979,0.663-1.979,1.979v15.838c0,12.538-1.32,21.107-2.638,28.369
				c-0.661,0.663,0,1.978,1.318,2.635c1.32,0,2.638,0,2.638-1.972c1.321-6.599,1.981-16.494,2.642-28.376V488.413L145.732,488.413z"
				/>
		</g>
	</g>
	<g>
		<g>
			<path d="M172.781,464.007l-1.978-1.327c-1.321,0-2.639,0.663-2.639,1.984l1.318,16.495c0,13.195,0,24.406-1.978,32.988
				c0,1.313,0,1.978,1.978,2.642l1.981-1.984c1.978-9.238,1.978-20.45,1.978-33.646L172.781,464.007z"/>
		</g>
	</g>
	<g>
		<g>
			<path fill="#D96038" d="M211.05,325.454v71.911h85.771v-71.911H211.05z"/>
		</g>
	</g>
	<g>
		<g>
			<path d="M209.068,397.365c0,1.32,0.66,2.636,1.98,2.636h85.771c1.978,0,2.638-1.313,2.638-2.636v-71.911
				c0-1.328-0.66-2.644-2.638-2.644H211.05c-1.321,0-1.981,1.314-1.981,2.644V397.365L209.068,397.365z M213.688,394.729v-66.641
				h81.151v66.641H213.688z"/>
		</g>
	</g>
	<g>
		<g>
			<path d="M253.275,334.688c-1.321,0-2.64,0.664-2.64,1.979l-0.661,44.206c0,1.321,0.661,2.635,2.639,2.635l1.322-2.635
				l1.316-44.206L253.275,334.688z"/>
		</g>
	</g>
	<g>
		<g>
			<path d="M270.43,337.984c-1.32,0-1.98,0-1.98,1.322l-0.656,39.586c0,1.979,0.656,1.979,1.979,1.979l1.978-1.979l0.661-39.586
				L270.43,337.984z"/>
		</g>
	</g>
	<g>
		<g>
			<path d="M235.459,336.008c-1.979,0-1.979,0.657-1.979,1.979l-0.66,40.906c0,1.979,0.66,1.979,1.322,1.979l2.637-1.979v-40.906
				L235.459,336.008z"/>
		</g>
	</g>
	<g>
		<g>
			<path fill="#D96038" d="M202.471,409.896l-5.938,27.056c-3.959,17.814-3.299,27.712,1.32,29.688l15.174,1.321l21.115-1.984
				c5.937,0,15.832,1.327,27.707,4.627l21.114,1.972l15.175-5.936c3.958-2.635,7.258-6.598,8.578-12.53
				c1.979-4.626,0-13.196-4.62-23.757l-7.258-15.83L202.471,409.896z"/>
		</g>
	</g>
	<g>
		<g>
			<path d="M203.131,407.262c-1.979,0-2.639,0.664-2.639,1.979c-3.959,11.218-6.598,22.436-7.918,32.988
				c-1.979,15.838-1.317,24.412,3.959,27.049l19.793,0.664l17.816-1.321l25.729,4.62l13.194,2.635l11.219-0.657l1.979-0.657
				c6.598-1.983,11.217-4.618,13.855-6.598c4.616-2.642,7.258-7.255,9.236-13.195c2.638-8.582-1.321-22.435-12.535-40.907
				l-1.321-1.979L203.131,407.262z M199.172,464.007c-1.979-0.664-2.639-3.299-2.639-7.925c0-9.896,2.639-25.064,7.919-42.887
				l89.069,3.963c7.259,13.858,11.215,24.414,11.215,32.326l-0.657,3.962c-1.32,4.62-3.959,7.919-7.259,10.561l-12.534,5.936h-1.321
				l-22.432-2.637l-26.391-3.963l-19.134,1.321L199.172,464.007z"/>
		</g>
	</g>
	<g>
		<g>
			<path fill="#D96038" d="M355.541,401.984l7.918-11.217c1.317-3.3,0.657-7.918-2.642-12.533c-1.979-3.299-3.3-10.561-5.276-21.776
				c-1.321-10.554-3.96-16.494-7.259-18.474c-3.299-3.299-10.559-3.299-21.771,0l-14.517,4.621
				c-12.535,8.574-18.473,25.068-18.473,50.141c0.66,12.538,1.979,24.412,4.617,34.973l14.517,2.636l20.454,0.663
				c2.638,0,6.598-3.962,11.874-11.224L355.541,401.984z"/>
		</g>
	</g>
	<g>
		<g>
			<path d="M355.541,345.247c-1.321-3.963-3.299-7.263-5.938-9.896c-5.938-4.627-18.477-3.3-38.926,5.27h-0.661
				c-12.535,8.583-18.476,25.077-18.476,50.811c0,12.532,1.319,25.064,3.959,36.945l2.64,1.979l14.517,2.635l20.454,0.664
				c3.299,0,5.937-2.637,9.234-6.599l8.576-13.195l6.598-9.896l1.981-3.299l6.598-9.896c1.317-4.619,0-9.232-2.639-13.858
				c-1.981-2.636-3.299-9.233-4.619-18.466L355.541,345.247z M346.965,339.964c1.979,1.984,4.616,8.582,6.598,19.136
				c0.657,9.896,3.299,16.494,5.277,20.451c1.979,3.955,3.299,6.598,1.979,9.239l-5.276,8.575l-1.979,3.299l-7.258,10.561
				l-7.259,11.212l-6.598,5.939l-32.328-2.641c-1.981-10.556-3.96-21.772-3.96-34.968c0-23.094,5.938-38.267,17.155-46.186
				c5.938-2.635,12.534-3.963,18.473-5.275L346.965,339.964z"/>
		</g>
	</g>
	<g>
		<g>
			<path fill="#D96038" d="M308.695,268.709c-17.154-6.598-29.029-9.896-34.967-9.896c-4.621,0-11.219,3.299-19.793,8.576
				l-13.195,9.239c-0.661,0-0.661,3.299,1.316,11.211l3.299,11.224l62.021,43.543c17.813-4.619,27.048-8.582,29.03-12.537
				c1.315-1.979,1.315-5.941,0-11.211c-0.661-6.599-1.321-11.226-0.661-14.523l1.978-13.195c0.661-3.956,0.661-7.255-1.315-9.233
				C334.426,278.605,325.19,274.643,308.695,268.709z"/>
		</g>
	</g>
	<g>
		<g>
			<path d="M309.356,265.41c-17.155-5.935-29.69-8.576-35.628-8.576c-6.599,0-15.178,3.956-27.053,13.195l-5.938,3.299l-1.981,1.314
				c-1.978,1.984-0.655,10.56,3.96,25.077l0.66,1.979l62.68,42.886l1.979,0.664c17.814-4.627,28.373-9.239,31.011-13.858
				c1.321-3.3,1.321-7.263,0-13.197l-0.66-13.857l1.321-9.896l1.316-7.254l-1.979-6.598
				C336.408,276.627,326.511,272.008,309.356,265.41z M332.448,304.333v3.299l1.32,11.226l1.317,6.598l-0.661,3.299
				c-1.978,2.635-9.896,6.598-26.391,10.555l-60.697-41.572c-3.299-9.896-3.96-16.493-3.96-19.129l5.938-4.619
				c11.879-8.576,20.455-11.875,24.414-11.875c5.938,0,17.154,2.635,33.648,8.576c15.834,5.94,25.07,9.897,27.048,12.538
				l1.321,3.957L332.448,304.333z"/>
		</g>
	</g>
	<g>
		<g>
			<path fill="#D96038" d="M249.977,380.207l-23.093,0.664l-11.218,19.793c-5.938,13.195-5.275,21.113,1.32,23.756l32.988,10.555
				l25.07,5.276l15.838-11.217c7.915-6.599,11.875-11.212,12.535-14.511c1.317-1.983,0-7.926-3.299-17.821l-5.28-13.196
				L249.977,380.207z"/>
		</g>
	</g>
	<g>
		<g>
			<path d="M250.637,377.572l-23.753,0.662c-1.321,0-1.978,0.658-2.639,1.315l-9.235,15.837
				c-5.281,11.211-7.259,18.473-5.281,24.406c0.662,3.299,2.64,5.283,6.599,7.262l32.989,10.561
				c13.855,3.957,23.093,5.935,26.392,4.614c3.299-0.657,9.235-4.614,17.153-11.213c7.92-7.261,12.536-12.538,13.196-15.837
				c1.979-3.955-0.66-15.18-8.575-32.988l-1.981-1.32L250.637,377.572z M214.35,417.822v-2.643c0-7.255,4.615-17.814,13.855-31.675
				l64.656,1.985c5.938,13.195,8.575,22.435,8.575,27.705v0.662l-11.874,13.196c-7.258,6.599-12.535,9.896-15.174,9.896
				l-23.093-3.963c-13.854-3.955-24.413-7.254-33.649-11.212L214.35,417.822z"/>
		</g>
	</g>
	<g>
		<g>
			<path fill="#D96038" d="M290.225,326.109l-11.219,5.277c7.258,13.195,11.219,27.057,11.219,42.223
				c0,7.262-0.662,13.858-1.982,17.82l33.649-0.662c3.959-3.3,6.599-9.233,7.918-18.474c2.64-8.582,2.64-14.517,0-17.149
				l-9.896-17.16c-4.62-9.231-8.579-13.858-11.218-14.516C305.396,322.154,299.459,323.471,290.225,326.109z"/>
		</g>
	</g>
	<g>
		<g>
			<path d="M309.356,320.827c-3.96-1.313-9.897,0-17.815,2.644c-6.6,1.983-11.215,3.954-13.854,5.282l-1.32,1.313v1.984
				c7.259,13.195,11.874,27.049,11.874,41.559c0,6.598-1.316,12.539-2.638,17.158l0.66,2.635l1.978,0.664l34.971-1.32l7.915-12.539
				c1.321-5.934,2.643-11.868,3.299-16.494c0-5.27-1.315-9.232-2.638-10.554l-6.598-11.211
				C318.592,328.753,312.655,321.491,309.356,320.827z M327.828,357.115l1.321,6.598l-3.3,14.521l-5.938,10.556l-28.372,0.657
				l1.319-15.838c0-14.51-3.299-27.705-10.557-41.559c13.855-4.627,21.774-7.262,25.73-6.598c1.98,0.656,6.598,7.255,12.539,19.129
				L327.828,357.115z"/>
		</g>
	</g>
	<g>
		<g>
			<path fill="#D96038" d="M296.16,311.594c-1.32-7.261-5.938-13.195-13.195-17.156c-6.598-4.615-16.494-7.914-31.011-11.212
				c-11.875-3.298-18.474,1.979-21.771,13.196c-1.979,5.94-3.3,12.539-2.64,21.106c-0.66,2.644,3.96,7.263,13.196,13.859
				l46.185,3.299l5.937-5.934C296.16,324.126,296.82,318.191,296.16,311.594z"/>
		</g>
	</g>
	<g>
		<g>
			<path d="M298.799,311.594c-1.979-8.574-5.938-15.173-14.513-19.793c-5.94-3.962-17.155-7.918-31.672-11.875
				c-7.259-1.321-13.195-0.657-17.155,3.298c-6.598,4.614-9.896,15.174-9.896,30.349l-0.655,3.299
				c-1.321,3.955,3.954,9.237,15.173,16.494l0.661,0.655l46.185,3.963l1.979-0.664l6.598-6.598
				C298.799,324.79,299.459,318.191,298.799,311.594z M293.521,312.259v3.955c0,4.613-0.66,7.912-2.639,11.211l-4.619,4.627
				l-44.207-3.963c-7.914-4.618-11.875-8.575-11.875-9.897v-3.961c0-14.511,3.299-23.092,8.575-27.707l11.88-1.32
				c15.172,3.963,25.729,7.919,31.668,11.218C288.902,301.034,292.201,305.661,293.521,312.259z"/>
		</g>
	</g>
	<g>
		<g>
			<path fill="#D96038" d="M240.079,390.104c6.598,7.926,13.196,13.859,19.794,17.158c10.557,5.278,23.092,0,36.947-16.494
				c4.616-3.963,5.276-9.896,3.3-16.494c-1.321-7.262-5.938-11.875-12.535-12.53c-11.218,8.567-21.114,12.53-29.033,13.194
				l-25.729,3.299L240.079,390.104z"/>
		</g>
	</g>
	<g>
		<g>
			<path d="M238.758,392.089c6.6,8.575,13.196,14.511,19.794,17.81c11.878,5.283,25.074,0,40.907-17.81
				c1.979-1.985,3.3-5.284,3.96-9.239l-0.66-11.211c-3.3-7.263-7.919-11.225-14.518-12.539l-1.978,0.657
				c-10.558,7.918-19.793,12.538-27.713,12.538l-26.392,3.299l-1.978,1.314v2.643L238.758,392.089z M236.779,380.871l22.433-3.299
				c7.919,0,17.815-4.619,29.029-13.196c4.62,1.321,7.919,3.963,9.239,9.233l1.317,5.94c0,3.955-1.317,7.255-3.299,9.239
				c-13.856,15.173-25.07,21.107-34.968,15.837C253.275,400.664,245.355,392.746,236.779,380.871z"/>
		</g>
	</g>
	<g>
		<g>
			<path fill="#D96038" d="M241.4,324.79l-11.879,15.83l13.855,0.664l25.07,3.299c5.941,1.321,11.218,4.62,14.517,9.896l4.62,7.264
				c7.255-11.883,11.214-19.794,11.214-23.758c0-2.635-5.276-7.918-15.834-15.829c-9.896-7.263-17.155-11.226-22.432-11.226
				C256.574,310.273,249.977,314.893,241.4,324.79z"/>
		</g>
	</g>
	<g>
		<g>
			<path d="M261.193,308.295c-4.619-0.663-11.219,3.299-19.793,12.532l-14.518,17.821c0,0.658,0,1.972,0,2.636l2.639,1.321
				l13.855,1.313l24.414,3.3c8.575,1.326,14.514,6.598,17.15,15.18l1.981,1.978l2.638-0.663l6.599-11.867
				c3.299-6.599,5.276-10.562,5.276-13.859c0-3.299-5.276-9.232-16.494-17.158C274.391,312.259,266.471,308.295,261.193,308.295z
				 M249.314,320.827c5.281-5.271,9.236-7.912,11.219-7.912c4.615,0.658,11.214,4.612,21.109,11.875
				c8.58,6.599,13.856,11.218,14.518,13.194l-8.575,18.474c-4.62-8.576-10.558-12.538-18.478-14.51l-34.965-3.964L249.314,320.827z"
				/>
		</g>
	</g>
	<g>
		<g>
			<path fill="#9260C7" d="M257.234,222.524c5.938-56.081,8.574-106.885,8.574-151.085l-115.459-0.664
				c0.66,46.848-2.639,98.966-10.557,155.711C123.958,341.284,92.29,424.42,45.445,477.202l149.11,3.957
				C224.906,421.121,246.018,334.688,257.234,222.524z"/>
		</g>
	</g>
	<g>
		<g>
			<path d="M269.107,71.439c0-2.642-1.315-3.299-3.299-3.299l-115.459-0.664c-1.318,0-1.978,0.664-2.639,1.32
				c-0.66,0.657-0.66,1.979-0.66,2.642c0.66,47.499-2.639,99.624-11.214,155.705c-15.837,113.476-46.845,196.612-93.03,248.073
				c-1.32,1.321-1.32,2.643,0,3.956l2.639,1.327l149.11,3.957c1.979,0,2.639-0.658,3.299-1.321
				c29.689-60.044,50.801-145.814,62.02-258.634C265.811,167.764,269.107,116.96,269.107,71.439z M153.648,80.008v-5.934
				l108.863,0.664c0,48.82-3.299,102.923-9.896,161.645c-12.535,104.901-32.328,184.738-60.04,241.477l-140.531-3.956
				c40.907-48.826,69.937-122.724,86.431-222.354C148.371,194.156,153.648,136.754,153.648,80.008z"/>
		</g>
	</g>
</g>
<path id="PATH77" fill="none" stroke="#000000" stroke-width="3" stroke-miterlimit="100" d="M370.59,585.26H3.92V2.74h366.67
	V585.26L370.59,585.26z"/>
</svg>
