<?xml version="1.0" encoding="utf-8"?>
<!-- Generator: Adobe Illustrator 13.0.0, SVG Export Plug-In . SVG Version: 6.00 Build 14948)  -->
<!DOCTYPE svg PUBLIC "-//W3C//DTD SVG 1.1//EN" "http://www.w3.org/Graphics/SVG/1.1/DTD/svg11.dtd">
<svg version="1.1" id="圖層_1" xmlns="http://www.w3.org/2000/svg" xmlns:xlink="http://www.w3.org/1999/xlink" x="0px" y="0px"
	 width="372px" height="587px" viewBox="0 0 372 587" enable-background="new 0 0 372 587" xml:space="preserve">
<g>
	<g>
		<g>
			<path fill="#DA8E55" d="M237.646,166.922c7.264,2.645,13.869,4.625,20.475,5.948c-3.303-5.948-7.921-11.231-13.211-16.514
				c-11.883-11.23-24.436-17.172-38.305-16.514C211.882,151.73,222.454,160.975,237.646,166.922z"/>
		</g>
	</g>
	<g>
		<g>
			<path d="M206.604,137.197c-1.328,0-1.328,0.658-1.985,1.323v1.98c5.946,12.553,15.854,22.462,30.383,28.409
				c7.935,3.303,15.856,5.277,22.462,5.941l2.645-1.323v-1.98c-3.961-6.605-8.592-11.889-14.532-17.836
				C233.686,143.145,221.132,137.197,206.604,137.197z"/>
		</g>
	</g>
	<g>
		<g>
			<path fill="#FFE000" d="M201.975,143.145c13.211,8.586,30.389,13.211,52.187,15.191l28.407-1.322
				c-6.604-5.283-14.539-9.908-25.104-13.869C237.646,135.881,218.486,135.217,201.975,143.145z"/>
		</g>
	</g>
	<g>
		<g>
			<path d="M284.543,157.671l-0.658-2.638c-7.264-5.283-15.855-10.573-26.422-14.534c-20.475-7.263-38.977-7.263-56.146,0
				l-1.98,2.645c0,0.658,0.664,1.316,1.322,1.98c13.869,8.586,31.041,13.875,52.188,15.191l29.725-0.658L284.543,157.671z
				 M208.579,143.145c11.896-3.961,25.764-3.961,39.633,0c9.908,2.645,19.159,6.605,27.751,11.889h-30.389
				C231.04,153.053,218.486,149.092,208.579,143.145z"/>
		</g>
	</g>
	<g>
		<g>
			<path fill="#FFE000" d="M150.457,112.097l-25.105-1.98l19.816,15.191c15.855,9.909,33.027,11.889,50.864,7.27
				C184.801,122.005,168.945,115.4,150.457,112.097z"/>
		</g>
	</g>
	<g>
		<g>
			<path d="M144.51,127.289c16.514,9.908,34.344,12.553,52.188,7.928l1.975-1.98l-0.658-2.645
				c-12.554-10.566-27.738-17.172-46.239-21.132l-26.422-1.987c-0.658,0-1.316,0-1.98,1.322c0,1.322,0,1.98,0.664,1.98
				L144.51,127.289z M190.091,131.25c-12.553,1.987-25.106,0.664-37.659-4.619c-7.922-3.303-15.186-8.593-21.133-14.534
				C155.076,112.762,174.893,118.703,190.091,131.25z"/>
		</g>
	</g>
	<g>
		<g>
			<path fill="#858585" d="M184.144,133.236l1.315,13.211l-1.974,13.869l-26.422,54.167l16.514-1.323l11.224-23.777
				c7.264-16.514,12.555-26.422,14.534-29.067c3.967-3.961,11.229-7.264,21.797-11.889c-2.646-2.638-7.264-4.625-14.526-5.283
				l-9.25-1.322c-1.322-1.98-3.961-4.625-7.929-6.605L184.144,133.236z"/>
		</g>
	</g>
	<g>
		<g>
			<path d="M198.671,139.842c-1.976-3.303-4.619-5.29-8.58-6.605l-5.29-2.645l-2.645,1.322l-0.658,1.98l0.658,12.553l-1.315,13.211
				c-1.987,6.606-9.909,23.778-26.423,53.502l0.658,2.645l1.987,1.98l16.514-1.98c1.315,0,1.974,0,1.974-1.322
				c13.876-30.39,22.463-48.219,26.424-51.522c2.645-3.961,9.907-7.928,19.815-11.231l1.985-1.98v-1.322l-1.321-1.322
				C219.15,143.145,211.225,140.5,198.671,139.842z M195.368,143.145l1.985,1.98c7.265,0,13.211,1.322,17.83,3.303
				c-8.58,3.303-14.526,7.271-17.172,10.573c-4.619,5.277-13.212,22.455-26.423,52.18l-9.908,0.664
				c14.533-29.067,23.119-46.903,23.777-50.87l2.646-15.85l-0.658-7.928C191.407,139.184,194.052,141.158,195.368,143.145z"/>
		</g>
	</g>
	<g>
		<g>
			<path fill="#D96038" d="M221.79,102.853V83.694c-4.619,2.645-9.244,7.264-13.211,13.211c-8.58,12.553-10.565,27.738-6.604,45.581
				C212.546,130.591,219.816,117.38,221.79,102.853z"/>
		</g>
	</g>
	<g>
		<g>
			<path d="M199.999,143.145l1.976,1.98l1.985-1.322c11.226-11.225,17.83-25.1,20.476-40.292V83.694l-1.315-1.987h-1.987
				c-5.947,2.645-9.908,7.27-14.527,13.875c-5.289,9.244-7.27,18.495-3.967,29.725c0-16.514,5.941-28.402,17.836-37.653v4.625
				c0,16.514-5.289,31.047-16.514,44.259l-1.986-9.908C199.999,131.914,198.671,137.197,199.999,143.145z"/>
		</g>
	</g>
	<g>
		<g>
			<path fill="#D96038" d="M244.909,116.722l13.876-17.836c-7.271,0.664-15.191,2.638-23.784,6.605
				c-16.515,6.605-27.08,19.816-32.362,36.995C218.486,137.197,231.698,128.611,244.909,116.722z"/>
		</g>
	</g>
	<g>
		<g>
			<path d="M200.657,141.822l0.657,1.979l2.646,1.322c15.19-5.283,29.067-14.534,41.614-26.422l15.191-18.494v-2.645
				c0-0.658-0.658-0.658-1.98-0.658c-7.928,0-16.514,1.979-25.1,6.604c-3.961,1.98-6.606,5.283-8.594,9.908
				c7.936-5.947,17.18-9.908,29.067-11.23c-12.554,16.514-28.403,28.402-46.897,36.331c3.961-9.244,8.586-16.514,15.191-21.797
				C211.882,120.683,204.618,129.934,200.657,141.822z"/>
		</g>
	</g>
	<g>
		<g>
			<path fill="#D96038" d="M176.215,91.616l-15.191-17.83l1.98,25.1c5.283,17.836,15.85,31.047,32.364,38.311
				C192.729,122.005,186.788,106.814,176.215,91.616z"/>
		</g>
	</g>
	<g>
		<g>
			<path d="M162.34,72.464l-2.639-0.665l-1.322,1.987l2.645,25.764c4.619,18.488,16.515,31.699,33.028,40.292h1.98l1.321-2.645
				c-1.985-16.514-8.593-31.705-18.5-46.239L162.34,72.464z M167.629,104.827c-3.303-7.921-5.289-15.85-5.289-25.093
				c16.514,15.849,25.766,33.686,29.725,53.502C180.841,126.631,172.248,116.722,167.629,104.827z"/>
		</g>
	</g>
	<g>
		<g>
			<path fill="#FFE000" d="M161.682,100.208l-22.461-11.895l11.895,21.803c11.225,15.856,25.765,25.1,44.253,27.08
				C188.762,123.328,177.538,110.117,161.682,100.208z"/>
		</g>
	</g>
	<g>
		<g>
			<path d="M137.904,88.978l11.225,23.12c11.895,15.191,27.086,24.442,45.581,27.745c0.658,0,1.322,0,1.985-1.322l0.658-1.98
				c-6.604-14.534-18.5-27.745-34.351-38.317c-9.908-7.264-17.178-11.225-22.455-11.882L138.562,87
				C137.246,87.655,137.246,88.313,137.904,88.978z M190.091,133.894c-21.146-5.283-36.995-18.494-46.239-41.614
				C165.643,102.189,180.841,116.722,190.091,133.894z"/>
		</g>
	</g>
	<g>
		<g>
			<path fill="#FFE000" d="M198.671,95.583l-9.244-16.514l-5.941,17.836c-1.987,15.191,2.639,29.067,14.528,42.936
				C202.639,125.308,202.639,110.117,198.671,95.583z"/>
		</g>
	</g>
	<g>
		<g>
			<path d="M191.407,77.089l-1.98-0.658l-1.321,0.658l-6.606,19.817c-1.98,15.191,3.303,30.383,14.534,44.917l2.639,0.664
				l1.986-1.987c4.619-15.191,4.619-30.383,0-44.917L191.407,77.089z M199.335,118.038l-1.979,16.514
				c-8.594-10.566-11.896-21.133-11.896-32.363c0-6.606,1.329-13.211,3.969-19.152C196.032,93.603,199.335,105.492,199.335,118.038z
				"/>
		</g>
	</g>
	<g>
		<g>
			<path fill="#FFE000" d="M201.975,142.486c15.854,3.961,31.711,2.639,48.883-2.645l19.816-9.908
				c-5.947-2.645-13.211-4.625-22.462-4.625C231.04,123.986,215.85,129.934,201.975,142.486z"/>
		</g>
	</g>
	<g>
		<g>
			<path d="M273.318,129.934l-1.986-1.323c-5.941-3.303-13.869-5.283-23.12-5.283c-17.829-1.322-33.687,4.619-47.555,17.172
				l-0.658,2.645l1.976,1.98c15.854,3.303,31.711,3.303,48.883-2.639c7.929-2.645,15.197-5.947,21.14-10.573L273.318,129.934z"/>
		</g>
	</g>
	<g>
		<g>
			<path fill="#858585" d="M55.335,76.431l-15.198-0.665c-2.638,1.322-4.618,6.605-5.941,18.494c-0.664,7.928-0.664,15.856,0,23.12
				c0,3.303,1.98,7.928,4.626,11.23l7.264,7.27c1.987,0.658,3.96,2.639,5.947,5.941c1.315,3.967,1.315,6.605,0.658,7.928
				l-8.586,1.98l-11.231,1.98c-3.303,1.322-6.605,4.625-9.908,9.908c-3.303,4.625-4.618,9.25-4.618,12.553
				c0,3.303,4.618,7.921,15.849,13.869c7.929,5.29,15.192,9.25,21.798,11.23c40.291,17.836,64.739,7.928,73.319-29.725
				c0.664-9.908,2.645-17.836,4.631-21.797c1.316-3.303,0.658-6.605-2.645-11.23c-3.961-3.967-6.605-5.283-9.25-5.283l-7.264,0.658
				l-9.25,2.645c-3.303,1.98-5.283,0.658-6.605-3.303c-1.98-3.303-1.316-6.605,0-9.909c6.605-13.211,9.908-21.139,9.25-22.461
				c-0.658-1.98-5.289-3.96-14.533-6.605l-6.605,1.322l-7.929,0.665c-1.315-0.665-3.303-3.303-5.282-8.592
				c-1.98-4.619-3.968-7.264-5.283-8.586L55.335,76.431z"/>
		</g>
	</g>
	<g>
		<g>
			<path d="M55.335,73.786H39.479c-6.605,0.658-9.908,15.191-7.921,43.594c0.658,4.625,1.315,9.25,4.618,13.211
				c3.303,4.625,5.948,6.605,8.593,7.928c1.974,0.664,3.961,1.98,4.619,4.625l1.322,5.283l-6.605,0.665l-12.547,2.638
				c-3.303,1.322-6.605,4.625-10.573,10.573c-3.303,5.941-5.283,10.566-5.283,13.869c0,3.96,5.948,9.908,18.494,17.83
				c6.606,3.967,13.212,7.27,20.482,10.573c22.455,9.244,40.291,10.573,53.502,3.303c11.889-5.941,19.816-17.836,23.777-35.008
				v-0.658c1.322-10.573,2.645-17.178,4.625-21.803c1.322-3.961,0.664-7.264-1.98-11.889c-4.625-5.941-9.25-8.586-13.211-7.928
				h-2.645c-5.283,0.658-9.908,1.987-13.869,3.303h-2.645c-1.98-1.98-1.98-5.283-0.658-9.908l1.98-3.303
				c5.283-11.889,7.928-18.494,6.605-20.475c0-3.303-5.283-5.948-15.191-7.928l-9.25,0.665l-5.283,0.658l-4.626-6.606
				c-1.979-5.947-3.96-9.25-6.605-9.908L55.335,73.786z M55.335,79.069l11.889,2.638l4.626,7.27
				c1.315,4.625,3.303,7.928,6.605,9.909l9.908-1.323l5.283-0.658c6.605,1.98,11.23,3.303,11.889,5.283l-7.264,16.514l-1.322,3.303
				c-1.322,2.639-1.98,5.283-1.322,8.586c0,2.645,1.322,5.29,2.645,6.605c1.98,2.645,5.283,3.303,8.586,1.987l11.889-2.645
				l3.303-0.658c2.645,0,4.625,1.974,7.928,5.941l1.98,4.625v1.98c-2.645,4.625-3.961,11.889-5.283,23.119
				c-3.303,16.514-11.23,27.087-21.139,31.706c-11.889,5.948-27.738,4.625-48.22-3.96l-24.442-12.553l-11.889-10.566
				c0-2.645,1.98-6.605,4.625-11.231c3.304-4.625,5.948-7.27,8.586-8.586l9.909-2.645c5.283,0,9.243-0.658,10.573-2.645
				c1.315-1.974,1.315-4.619,0-7.921c-1.987-5.29-4.633-8.592-8.593-9.908l-5.283-5.948c-2.639-3.303-3.303-6.605-3.968-9.908
				c-0.658-10.566-0.658-20.475,0.665-28.403c0.664-6.605,1.979-9.908,3.303-9.908H55.335L55.335,79.069z"/>
		</g>
	</g>
	<g>
		<g>
			<path d="M51.375,86.339c-0.665-1.329-1.987-1.987-2.646-0.665c-1.322,1.322-1.322,1.98-0.657,3.303l17.829,31.047
				c13.211,24.436,21.14,48.219,24.442,71.339c0,1.322,1.322,1.98,1.98,1.98c1.322-0.658,1.986-1.316,1.322-1.98
				c-3.303-23.784-11.23-48.219-23.784-73.326L51.375,86.339z"/>
		</g>
	</g>
	<g>
		<g>
			<path d="M46.085,106.814c-0.658-1.322-1.316-1.322-1.98,0c-1.323,0.658-1.323,1.98,0,2.645l9.243,9.244
				c7.271,6.605,13.876,11.231,19.817,14.534c0.665,1.316,1.987,0.658,2.645,0v-3.303L55.993,115.4L46.085,106.814z"/>
		</g>
	</g>
	<g>
		<g>
			<path d="M92.981,106.814c-1.315-1.322-2.638-1.322-2.638,0.658l-14.534,32.37c0.658-1.322,1.323-1.322,3.303-1.322
				c0.658,0.664,1.323,1.322,0.658,2.638l13.876-32.363L92.981,106.814z"/>
		</g>
	</g>
	<g>
		<g>
			<path d="M65.244,145.79l-3.304-0.665c-1.322,1.322-1.322,1.98,0,3.303l6.606,7.928l19.158,20.475l2.639-0.658
				c1.322-0.658,1.322-1.322,0-2.645L71.85,153.711L65.244,145.79z"/>
		</g>
	</g>
	<g>
		<g>
			<path fill="#858585" d="M319.558,235.622c-1.321-1.322-2.646-1.987-5.947-1.322h-9.25l-9.908-4.625
				c-3.961-1.98-7.265-3.961-9.908-3.961c-3.961,0-7.922,1.316-12.547,3.303c-3.967,1.98-7.271,3.303-8.586,5.283
				c-1.322,1.322-2.646,0-5.947-1.98l-5.948-5.947c0-0.658,0-2.645,0.666-6.605l1.321-8.586c0-1.98-1.987-3.303-6.604-3.303
				l-10.566,3.303c-1.986,1.322-4.632,3.303-9.251,6.605l-5.289,3.967c-11.883,6.605-19.815,17.83-25.094,33.686
				c-4.632,15.191-4.632,28.403,0,38.975c3.961,8.58,15.85,15.187,36.331,19.817l39.633,5.939l22.455-1.98
				c7.928-1.985,13.211-4.625,17.837-7.264c3.96-2.645,5.283-7.27,5.283-14.539c-0.665-7.922-1.98-10.567-5.283-9.244l-11.896,3.967
				c-4.618,1.316-8.579,1.316-9.907,0c-2.639-1.328-3.303-3.967-3.303-5.947c0.664-2.645,2.645-4.625,4.631-5.948l13.212-3.303
				c7.264-1.98,11.224-5.283,13.211-7.921c1.974-3.303,3.303-9.25,3.303-17.178C321.538,244.208,320.873,238.925,319.558,235.622z"
				/>
		</g>
	</g>
	<g>
		<g>
			<path d="M284.543,223.069c-3.961,0-8.58,1.322-13.869,3.96l-9.251,5.29l-7.263-6.605l0.656-6.605l1.33-7.928
				c0-1.98-0.664-3.303-1.986-4.625l-9.909-0.658c-3.96,0.658-6.604,1.98-9.25,3.303c-2.64,0.658-5.276,2.645-9.908,5.947
				l-5.276,4.619h-0.664c-11.23,6.605-20.48,18.5-25.101,35.014c-5.29,15.85-5.29,29.061,0,40.949
				c3.962,7.929,13.212,14.533,29.726,18.502l38.312,7.263l9.908,1.315l23.784-1.974c7.921-2.646,14.525-4.632,18.486-7.271
				c3.304-2.639,5.29-6.605,6.605-12.547c0-5.289,0-9.909-1.315-13.211c-1.986-2.645-4.625-3.967-7.929-3.303l-1.322,0.658
				c-10.565,3.961-15.854,5.283-17.828,3.961c-1.33-1.316-1.987-1.98-1.33-3.961c0-1.322,0.664-2.645,2.646-3.303l6.605-1.987
				c10.565-2.639,17.837-5.941,20.475-10.566c2.645-3.961,3.968-9.908,3.303-18.494c0-7.928-0.657-13.211-2.638-16.514
				c-0.665-1.98-1.98-3.303-3.968-3.303h-5.941l-7.27,0.665l-7.923-3.967C291.148,225.056,287.846,223.069,284.543,223.069z
				 M273.318,231.662c3.961-1.987,7.922-2.645,11.225-2.645c1.986,0,5.289,0.658,9.25,3.303c3.303,1.98,5.947,3.303,9.908,4.619
				l9.251-0.658l4.618,0.658c0.665,2.645,1.986,7.27,1.986,13.875c0,7.928-1.321,13.211-2.646,15.849
				c-2.646,2.645-8.586,5.29-18.494,8.593l-7.271,1.98c-3.303,1.323-5.276,4.625-5.94,7.928c0,2.645,1.321,5.947,3.968,8.586
				l9.243,0.664l13.211-3.967l2.639-0.664l1.329,5.947c0.658,5.946-1.329,10.565-3.968,13.211
				c-3.967,2.645-10.572,5.289-17.836,7.264l-20.476,1.329l-10.565-1.329l-36.33-5.941c-15.198-4.625-24.448-9.908-27.751-16.514
				c-3.961-10.573-3.961-23.12,0.664-37.653c4.625-15.192,12.547-25.765,23.119-31.706l0.665-0.665l14.526-10.566l7.264-1.98h5.947
				l-1.979,13.211l0.664,3.967c4.619,5.941,8.579,8.58,11.882,9.244l3.969-1.98L273.318,231.662z"/>
		</g>
	</g>
	<g>
		<g>
			<path d="M311.629,245.531c-0.664-1.323-1.322-1.323-2.638-1.323l-27.087,9.909c-20.481,5.941-36.33,7.928-47.563,4.625
				c-1.98,0-2.645,0-2.645,1.98c0,1.322,0,1.98,1.986,1.98c11.89,2.645,27.737,1.322,48.219-3.961l29.062-10.566
				C311.629,247.511,311.629,246.847,311.629,245.531z"/>
		</g>
	</g>
	<g>
		<g>
			<path d="M289.175,235.622c-0.665-1.322-1.329-1.322-1.987-1.322c-1.979,0-3.961,1.322-5.946,4.625
				c-3.962,3.96-7.923,10.566-11.884,19.816c-0.664,0.658,0,1.98,1.316,1.98c0.658,1.322,1.986,0.665,2.645-1.322
				c2.646-7.264,6.605-13.869,9.908-17.172l4.619-3.961C289.175,237.603,289.832,236.938,289.175,235.622z"/>
		</g>
	</g>
	<g>
		<g>
			<path d="M284.543,254.117c-0.658-0.665-1.316-0.665-2.639,0c-0.664,1.322-0.664,1.98,0,3.303
				c5.283,4.625,13.875,7.928,25.758,7.928l2.645-1.322l-2.645-1.98C297.096,260.722,288.51,258.742,284.543,254.117z"/>
		</g>
	</g>
	<g>
		<g>
			<path d="M241.605,220.424l-2.639,0.665l-9.242,11.889c-5.291,9.908-7.936,19.816-8.594,29.725c0,1.322,0.658,1.987,1.987,1.987
				l1.974-1.987c0-8.586,3.303-18.495,8.594-27.738l7.92-11.895C242.271,222.411,242.271,221.089,241.605,220.424z"/>
		</g>
	</g>
	<g>
		<g>
			<path fill="#858585" d="M98.271,374.339l-9.25-8.592l-23.12,54.831c-11.889-14.534-20.475-25.766-25.1-34.352
				c-3.303-5.283-8.586-17.178-16.515-35.666l-11.23-26.422l-13.211,17.829l5.947,15.198l23.12,48.877l20.475,33.692
				c9.908,13.868,16.514,29.061,22.462,45.573l27.08,11.231c-9.908-28.409-18.494-48.884-24.436-60.772
				C83.738,415.288,91.666,394.154,98.271,374.339z"/>
		</g>
	</g>
	<g>
		<g>
			<path d="M13.715,321.494c-0.658,0-1.974,0-1.974,1.316l-13.876,17.179l-0.664,2.638l5.947,16.514l23.119,48.228l15.856,25.1
				c11.889,17.836,21.797,36.33,27.08,53.509l1.322,1.975l27.087,11.237h2.639l1.322-2.646v-0.658
				c-9.908-27.751-17.836-47.566-24.441-60.113l23.119-60.114v-1.316l-0.664-1.321l-9.244-9.244l-1.98-0.664l-1.987,1.322
				l-21.132,51.521c-11.231-13.876-19.159-24.441-22.463-31.048l-15.855-35.009l-11.225-26.422L13.715,321.494z M89.679,370.378
				l5.29,5.276l-22.462,59.45l-0.657,0.664l0.657,1.322c5.948,11.89,13.212,29.726,21.804,54.825l-20.48-9.244
				c-6.606-17.179-15.192-35.015-27.745-53.509L30.893,405.38c-11.23-23.118-21.139-44.252-28.402-62.753l10.566-13.211
				c13.211,33.691,22.462,52.846,25.106,58.134c4.618,8.587,13.212,19.817,25.758,35.009c0,0.664,1.323,0.664,1.98,0.664
				l2.646-1.329L89.679,370.378z"/>
		</g>
	</g>
	<g>
		<g>
			<path fill="#858585" d="M99.588,287.809c-4.619,0-7.922,3.961-10.566,11.225c-2.646,7.264-6.605,11.229-11.889,14.532
				l-13.876,6.605c-5.941,3.303-10.566,6.605-12.547,9.244c-2.638,3.967-4.625,7.936-5.283,13.876
				c-1.322,5.94-0.658,9.908,0.658,12.546c1.322,1.329,3.303,3.303,6.605,3.303l8.593-1.974l4.618-2.646l3.961-0.657
				c3.968,1.974,5.29,5.276,3.968,9.243l-3.304,5.941c-2.638,3.303-4.625,5.289-4.625,8.592c-0.657,4.619,0,9.252,0.658,16.515
				c0.664,6.604,2.645,10.565,3.967,11.225l7.271,2.646c2.639,0.658,5.941-0.657,7.922-1.98l5.947-8.586
				c1.98-2.645,3.303-3.96,3.961-3.303l1.322,5.947c-1.322,3.961-0.665,6.605,0,8.58l8.586,7.935l7.264,9.244
				c0.664,1.979,2.645,0,5.947-4.626c3.303-5.282,4.625-9.908,5.289-13.868l-1.986-13.869c-1.98-5.948-1.98-9.909-0.658-10.573
				l6.605-0.664l7.264,1.328l4.625-7.27l3.967-9.908c0.658-0.664-2.645-3.969-8.592-9.244c-5.283-5.289-6.605-9.25-5.283-11.236
				c1.98-3.304,4.625-5.276,6.605-5.94l8.586-1.979c6.605-1.988,7.264-7.93,2.645-17.838c-1.322-2.638-9.25-8.586-22.461-17.178
				l-19.816-12.547C103.555,288.467,102.232,287.809,99.588,287.809z"/>
		</g>
	</g>
	<g>
		<g>
			<path d="M96.949,285.822c-4.625,1.323-7.928,5.29-10.573,11.895c-2.638,6.605-5.94,10.566-10.566,13.211l-5.283,2.639
				c-11.23,5.941-18.494,9.908-21.797,13.877c-3.303,3.961-4.625,9.242-5.948,15.85c-0.657,5.939-0.657,9.908,1.323,13.211
				c1.322,3.303,3.968,4.625,8.586,5.283l9.908-1.98l3.303-2.639c1.322-0.664,2.646-0.664,3.303-0.664
				c1.987,0.664,3.303,3.303,2.646,6.605l-2.646,2.639c-3.303,3.967-5.283,7.934-5.947,11.236
				c-0.658,3.961-0.658,9.908,0.664,16.515c1.323,8.579,3.303,13.211,6.605,14.526l1.98,0.658l6.605,1.986
				c3.304,0,5.948-0.658,7.929-2.646l6.605-7.92v-0.666v4.627c0,1.979,0.664,4.617,1.98,5.946l6.605,7.265l7.928,8.586
				c0.664,2.638,1.98,3.303,4.625,3.303c1.98-0.665,4.619-3.303,7.264-9.244c3.303-4.632,4.625-8.593,4.625-12.553l-1.98-13.213
				l-1.322-9.907l5.283,1.315l7.928,0.664l5.941-9.244l3.967-9.907c0-1.328-1.98-4.632-7.27-9.908
				c-5.277-5.289-7.922-9.25-7.264-10.571c1.986-2.64,4.625-3.969,7.928-3.969l5.941-1.975l6.605-4.631
				c1.986-4.619,0.664-9.908-2.639-16.515c-1.98-5.94-16.514-15.85-42.936-31.699C103.555,285.164,100.252,285.164,96.949,285.822z
				 M78.455,315.547c5.283-2.645,9.908-8.586,13.211-15.855c1.98-5.276,3.961-7.921,6.605-9.243c1.98,0,3.961,0,5.283,1.98
				l26.422,15.855c9.244,6.605,14.533,11.225,15.85,13.211c1.986,5.283,2.645,9.251,1.986,11.889l-3.303,2.639l-5.289,0.664
				c-4.619,0.666-7.922,3.305-11.225,7.271c-1.986,2.639-1.986,5.941,0.658,9.244l7.928,7.928l4.625,5.283l-3.303,9.244
				l-3.961,5.289l-3.967-1.322l-5.941-0.664c-1.986,0-3.967,0.664-5.289,1.986c-0.658,1.316-0.658,2.645-0.658,4.619l1.98,9.908
				l1.322,10.571v1.323l-2.645,8.586l-4.619,6.604l-8.592-9.243l-5.947-6.605l-0.658-2.645l0.658-7.265
				c0-1.987-0.658-3.968-2.639-4.632l-4.625,0.664l-3.303,3.968l-5.283,6.604c-1.98,1.975-5.283,1.975-9.908,0l-1.98-0.664
				c-1.323-0.664-1.987-3.967-2.646-9.908c-1.315-5.939-1.315-10.572-0.657-14.533c0.657-1.98,1.979-5.283,5.283-8.586l3.303-5.941
				c1.322-5.946-1.323-9.907-5.941-12.553c-2.645-0.658-5.29-0.658-8.593,1.98l-2.646,1.98l-6.605,1.321l-4.618-2.64
				c-1.322-1.328-1.322-4.631-0.657-9.907c1.315-5.947,2.638-9.908,4.618-13.211c2.645-3.304,9.25-7.271,19.816-12.554
				L78.455,315.547z"/>
		</g>
	</g>
	<g>
		<g>
			<path d="M92.981,322.152c-0.657-1.315-1.315-1.315-2.638-1.315c-1.322,0.657-1.322,1.974-1.322,2.638l6.605,22.455
				c5.947,17.844,9.908,36.995,13.211,57.478l2.645,1.974l1.98-2.639c-3.967-19.816-7.928-39.633-13.211-58.127L92.981,322.152z"/>
		</g>
	</g>
	<g>
		<g>
			<path d="M98.93,348.575l-1.98,0.657c-3.303,2.646-6.605,7.271-11.23,13.875c-6.606,11.23-10.566,21.14-11.889,30.391
				c0,1.975,0,2.639,1.322,2.639c1.98,0,1.98-0.664,1.98-1.98c1.979-8.592,5.283-17.836,12.546-29.066
				c5.948-8.586,9.251-13.869,9.909-13.869C100.252,349.896,100.252,349.232,98.93,348.575z"/>
		</g>
	</g>
	<g>
		<g>
			<path d="M90.344,356.503l-1.322,25.758c0,1.328,0,1.986,1.322,1.986l2.638-1.322l1.987-25.758l-2.645,1.974
				C91.666,359.141,90.344,357.825,90.344,356.503z"/>
		</g>
	</g>
	<g>
		<g>
			<path fill="#FFE000" d="M146.49,224.392c29.061-21.797,39.634-36.995,33.692-44.259c-5.948-6.605-22.462,1.987-48.884,26.422
				c-26.422,25.106-37.652,39.633-33.686,44.259C102.232,255.439,118.088,246.847,146.49,224.392z"/>
		</g>
	</g>
	<g>
		<g>
			<path d="M95.627,252.794l6.605,1.323c8.592-1.98,23.119-9.909,43.594-25.758c21.803-16.514,33.691-29.725,36.994-39.633
				l1.323-3.967l-1.987-5.941c-2.639-2.645-5.941-3.303-9.908-2.645c-10.566,1.98-25.094,11.889-44.252,31.041
				c-19.158,17.843-29.725,31.054-32.369,39.633C94.969,249.491,94.969,252.136,95.627,252.794z M132.615,232.319
				c-19.152,13.211-29.725,18.495-33.686,17.172c0-3.303,6.605-13.211,22.461-29.725c17.172-17.172,31.041-29.725,43.594-36.331
				c7.264-3.303,11.23-3.961,13.869-1.98c1.987,3.303,0,7.27-3.961,13.211C166.307,205.897,152.432,219.108,132.615,232.319z"/>
		</g>
	</g>
	<g>
		<g>
			<path fill="#FFE000" d="M159.037,237.603c36.995-15.191,52.845-27.745,46.902-37.653c-5.282-9.908-26.422-5.283-60.771,14.534
				c-35.008,19.152-50.857,31.705-47.555,37.653C100.916,257.419,121.391,252.794,159.037,237.603z"/>
		</g>
	</g>
	<g>
		<g>
			<path d="M96.284,247.511c-1.315,1.98-1.315,4.625-0.657,5.283c1.322,1.323,3.303,2.645,7.264,2.645
				c11.895,0,29.725-4.625,54.83-14.534c27.738-11.23,44.253-21.797,50.2-31.047l1.322-5.947l-1.322-4.619
				c-2.646-3.961-6.604-5.948-12.553-5.948c-13.212,0-32.364,7.264-56.806,22.461C114.785,229.017,100.916,239.583,96.284,247.511z
				 M99.588,250.814c0.664-3.967,10.572-12.547,31.053-25.1c21.791-13.869,40.291-23.119,54.818-26.422
				c9.909-2.645,16.516-1.323,18.501,1.98l0,0c1.315,3.303,0,7.27-5.289,11.889c-10.565,9.25-29.062,19.159-56.147,27.745
				C117.43,249.491,103.555,252.794,99.588,250.814z"/>
		</g>
	</g>
	<g>
		<g>
			<path fill="#D96038" d="M159.037,253.452c38.316-4.619,56.146-12.547,54.174-23.12c-1.986-10.566-21.804-11.224-60.115-1.316
				c-37.652,8.586-56.146,16.514-54.824,23.12L159.037,253.452z"/>
		</g>
	</g>
	<g>
		<g>
			<path d="M98.93,247.511c-2.646,1.322-3.303,3.303-2.646,4.625l5.29,3.961c9.908,3.303,28.402,3.303,54.824,0
				c29.061-3.303,46.903-8.586,55.483-16.514c2.645-1.98,3.967-5.283,3.967-7.921l-0.664-1.987
				c-0.658-3.961-3.303-6.605-7.922-7.921c-11.895-3.967-31.712-1.987-58.792,5.941C122.049,234.3,105.535,240.905,98.93,247.511z
				 M137.246,235.622c25.094-7.928,44.91-11.23,59.449-10.566c8.58,0,13.212,1.974,14.527,5.941c0.658,3.303-2.645,6.605-9.25,9.908
				c-13.212,5.941-33.028,9.909-59.45,11.889l-42.271-1.98C102.232,247.511,114.127,242.228,137.246,235.622z"/>
		</g>
	</g>
	<g>
		<g>
			<path fill="#FFE000" d="M148.471,277.9c35.673,12.547,54.831,15.186,56.806,7.264c2.645-7.928-14.527-17.172-50.858-27.745
				c-36.988-9.908-56.146-12.547-58.134-6.605C94.969,256.097,112.141,265.347,148.471,277.9z"/>
		</g>
	</g>
	<g>
		<g>
			<path d="M98.271,246.188c-2.645,0.658-3.961,1.987-4.625,3.303c0,1.987,0.664,3.961,2.638,5.948
				c5.948,6.605,22.462,14.527,49.542,23.777c28.408,10.567,46.238,13.87,56.146,11.231c3.303-0.664,5.947-2.639,5.947-4.625
				l0.658-1.98c0-1.98-1.316-3.967-3.303-5.941c-7.922-7.27-25.759-15.856-54.161-23.784
				C124.035,246.847,106.857,244.208,98.271,246.188z M139.885,256.097c26.422,6.605,45.574,13.869,56.147,21.139
				c5.94,2.639,7.928,5.283,7.928,7.27c-1.321,1.974-3.961,2.639-9.25,2.639c-13.212-0.665-32.37-5.283-58.128-15.85
				c-24.441-9.25-37.652-16.514-37.652-20.481C101.574,248.833,115.443,250.149,139.885,256.097z"/>
		</g>
	</g>
	<g>
		<g>
			<path fill="#FFE000" d="M96.949,247.511c-4.625,3.967,2.639,20.481,21.797,49.542c19.816,29.062,33.027,40.299,38.975,35.666
				c6.605-5.275-0.657-21.133-22.461-48.877C114.785,256.097,101.574,244.208,96.949,247.511z"/>
		</g>
	</g>
	<g>
		<g>
			<path d="M98.271,249.491c3.961-0.658,11.889,7.928,26.422,24.442c14.527,17.178,25.1,32.364,30.383,44.258
				c2.645,7.264,3.303,11.889,1.322,12.554c-1.322,1.315-3.303,0-6.605-2.646c3.303,7.264,6.605,9.25,9.244,6.605
				c1.986-1.323,3.303-3.961,3.303-6.605l-0.658-1.986c-1.315-10.566-9.908-25.758-26.422-46.239
				c-15.191-19.817-26.422-31.041-34.344-34.344h-5.289c-3.961,3.303-1.316,13.211,7.928,30.383
				c7.928,13.87,15.191,26.422,24.441,37.653c5.283,6.604,11.225,10.572,17.83,11.889c-9.908-8.586-20.475-21.797-32.363-41.613
				C101.574,264.025,96.949,252.794,98.271,249.491z"/>
		</g>
	</g>
	<g>
		<g>
			<path fill="#FFE000" d="M143.188,265.347c31.705,3.961,46.903,1.98,47.562-6.605c0-7.928-15.856-13.211-47.562-14.534
				c-31.047-1.322-46.238,1.323-46.238,7.27C96.284,257.419,112.141,262.044,143.188,265.347z"/>
		</g>
	</g>
	<g>
		<g>
			<path d="M94.311,251.478c0,2.639,1.316,4.619,4.619,5.941c7.928,4.625,23.119,7.928,44.258,10.573l44.917-2.645
				c3.303-1.322,4.625-3.96,4.625-6.605c0-3.303-1.98-5.948-5.941-7.928c-7.935-5.283-23.784-7.928-45.581-8.586
				c-22.461-0.658-36.988,0.658-43.594,4.619C95.627,248.175,94.311,249.491,94.311,251.478z M129.977,261.387
				c-19.816-3.303-29.725-6.606-31.047-9.909c1.322-2.645,11.23-3.967,29.066-4.631l46.238,3.967
				c9.251,1.98,13.87,4.625,13.87,7.928c0,1.98-3.304,3.961-9.909,5.283L129.977,261.387z"/>
		</g>
	</g>
	<g>
		<g>
			<path fill="#FFE000" d="M135.26,286.48c29.725,19.817,46.238,25.106,50.199,18.5c3.303-7.265-9.908-19.816-39.633-36.988
				c-30.383-17.178-46.896-23.784-49.542-19.159C93.646,254.117,106.857,267.328,135.26,286.48z"/>
		</g>
	</g>
	<g>
		<g>
			<path d="M125.352,276.572c-18.494-13.869-27.08-22.455-27.08-26.422c3.303-1.316,14.527,2.645,33.686,12.553
				c20.475,11.23,35.672,21.139,44.923,30.383c-4.632-9.244-14.54-18.488-31.712-27.739c-8.586-5.29-16.514-9.908-26.422-13.869
				c-13.869-5.947-21.797-7.27-24.436-3.303c-1.986,3.961,3.961,12.547,19.152,24.436c11.889,9.908,24.441,18.5,36.994,25.764
				c7.922,4.619,14.527,5.947,21.133,4.619C159.037,298.375,143.852,290.447,125.352,276.572z"/>
			<path d="M175.551,303.658c-1.316,0-3.303,0-3.961-0.664c0.658,0.664,0.658,0.664,1.322,0.664
				C174.234,303.658,174.893,303.658,175.551,303.658z"/>
			<path d="M182.82,303.658c-0.664,1.322-3.303,1.322-7.27,0c5.947,5.283,9.908,5.941,11.896,2.639l0.658-3.303
				c0-3.961-3.96-7.264-11.225-9.908C182.156,297.717,184.801,301.678,182.82,303.658z"/>
		</g>
	</g>
	<g>
		<g>
			<path fill="#FFE000" d="M88.363,230.997c-12.554-11.23-21.14-14.534-27.08-8.586c-5.29,5.948-1.987,13.869,11.882,23.777
				c13.876,9.909,22.462,12.553,26.423,8.592C103.555,250.814,100.252,242.886,88.363,230.997z"/>
		</g>
	</g>
	<g>
		<g>
			<path d="M90.344,230.997c-5.941-6.605-11.889-11.23-18.494-12.547c-4.626-1.329-9.251-0.664-12.554,2.639
				c-1.315,1.98-1.98,4.625-1.98,6.605v3.303c1.322,5.283,5.941,11.231,13.211,16.514c7.271,4.625,13.212,7.928,19.817,9.908
				l11.23-1.322c1.316-1.316,1.98-3.961,0.658-7.264C100.916,242.886,96.949,236.938,90.344,230.997z M70.526,222.411
				c5.283,1.98,11.231,5.283,16.515,11.889c6.605,5.283,9.908,11.231,11.23,15.191v3.303c-1.322,1.323-3.303,1.323-6.605,0
				c-5.947-1.316-11.896-3.96-17.836-9.25c-6.606-4.619-11.231-9.244-11.89-13.869c-0.657-1.98,0-3.961,0.658-5.283
				C64.586,222.411,67.224,222.411,70.526,222.411z"/>
		</g>
	</g>
	<g>
		<g>
			<path fill="#FFE000" d="M104.219,221.089c-2.645-21.797-8.592-31.706-16.514-30.39c-7.935,1.329-9.25,12.553-3.967,33.692
				c4.625,21.139,9.908,31.047,15.85,30.389C105.535,254.117,106.857,242.228,104.219,221.089z"/>
		</g>
	</g>
	<g>
		<g>
			<path d="M84.402,219.108l-1.329-13.211c-2.638,3.96-3.961,8.586-3.303,13.211c1.987,9.908,3.968,18.494,7.935,25.764
				c4.619,9.244,7.922,12.547,12.547,12.547c3.967-1.322,6.605-6.605,6.605-16.514c1.322-7.928,0-16.514-1.322-26.422
				c-3.961-19.152-9.908-27.745-18.494-26.422c-5.283,1.322-6.605,6.605-3.303,16.514c0-7.27,1.322-11.23,4.625-11.889
				c5.283-0.658,9.25,6.606,12.553,23.12c1.316,8.586,2.639,17.172,1.316,25.1c0,7.27-1.316,11.231-3.303,11.231
				c-1.316,0.658-3.961-2.645-6.605-9.25C89.021,235.622,85.719,227.694,84.402,219.108z"/>
		</g>
	</g>
	<g>
		<g>
			<path fill="#D96038" d="M136.582,236.28c19.816-16.514,27.744-27.08,21.797-33.686c-5.947-5.948-17.83,0.658-36.33,18.494
				c-19.158,18.494-26.422,29.725-23.119,34.35C103.555,259.4,115.443,253.452,136.582,236.28z"/>
		</g>
	</g>
	<g>
		<g>
			<path d="M120.068,245.531c-10.572,6.605-16.514,9.908-18.494,7.921c-1.322-1.974,1.98-7.264,8.586-15.85
				c7.928-9.908,16.514-18.494,25.758-25.1c-5.941,0-10.566,1.98-14.527,6.605l-14.533,15.856
				c-9.244,10.566-11.889,17.83-9.244,21.791c2.639,3.303,10.566,1.987,22.455-5.277c9.244-5.947,18.494-12.553,26.422-21.146
				c10.573-9.244,15.85-17.83,15.85-23.777c0-1.98-0.658-3.96-2.639-5.283c-3.967-5.283-11.889-1.322-23.783,11.231
				c10.572-8.592,17.842-11.231,20.48-7.928c2.639,1.98,0.665,7.928-6.605,16.514C142.523,229.675,131.957,237.603,120.068,245.531z
				"/>
		</g>
	</g>
	<g>
		<g>
			<path fill="#FFE000" d="M97.613,281.203c4.619,15.85,10.566,22.455,17.83,19.816c7.928-1.986,8.592-10.572,2.645-25.765
				c-6.605-15.856-12.553-22.462-18.5-20.475C93.646,256.097,93.646,265.347,97.613,281.203z"/>
		</g>
	</g>
	<g>
		<g>
			<path d="M122.049,279.216c-2.645-7.264-5.947-13.869-9.908-19.159c-5.283-5.941-9.908-9.244-13.211-7.921
				c-2.646,1.316-3.961,3.303-5.283,7.264c-1.322,5.947-0.665,13.211,1.98,21.803c1.986,9.244,5.289,15.85,9.908,19.152
				c3.303,3.303,6.605,3.967,11.23,3.303c4.625-1.98,7.27-5.941,7.27-12.547L122.049,279.216z M108.838,262.703
				c3.303,5.29,6.605,11.23,8.592,17.836c2.639,10.573,1.316,17.178-2.645,18.495c-1.986,0.657-4.625,0-6.605-1.979
				c-3.303-3.304-5.947-9.245-8.592-17.179c-1.975-7.922-2.639-14.527-1.316-19.152l1.98-3.967
				C102.232,256.097,104.877,258.742,108.838,262.703z"/>
		</g>
	</g>
	<g>
		<g>
			<path fill="#D96038" d="M98.93,255.439c-5.948,0-9.908,15.191-11.225,47.555c-1.986,31.054,1.316,47.566,9.244,48.227
				c8.586,0.657,11.889-14.535,11.889-46.897C108.18,271.953,104.877,256.097,98.93,255.439z"/>
		</g>
	</g>
	<g>
		<g>
			<path d="M85.719,295.072l-0.658,19.816c0,7.922,1.98,14.526,5.947,19.158c-1.986-13.211-1.986-28.408,0.658-46.903
				c1.98-18.495,3.961-27.745,7.264-29.061c3.303,1.316,5.289,12.546,6.605,32.363c1.322,20.48,0.658,36.996-1.98,48.877
				c3.967-3.304,6.605-8.579,6.605-14.527c1.322-13.869,1.322-28.407-0.664-44.258c-2.639-17.836-5.941-26.422-10.566-27.086
				c-3.303-0.658-6.605,5.29-9.251,15.856L85.719,295.072z"/>
			<path d="M96.949,353.2c5.283,0.664,6.605-3.968,6.605-13.876c-1.322,6.605-3.303,9.908-6.605,9.908
				c-1.98-0.657-4.625-4.619-5.283-12.547C90.344,347.259,92.324,353.2,96.949,353.2z"/>
		</g>
	</g>
	<g>
		<g>
			<path fill="#FFE000" d="M98.93,254.781c-1.98-5.947-20.475-1.987-54.825,11.225c-35.009,13.869-51.522,24.442-48.22,31.711
				c2.645,7.922,20.475,3.961,54.825-11.237C85.061,270.63,100.252,260.722,98.93,254.781z"/>
		</g>
	</g>
	<g>
		<g>
			<path d="M60.618,278.559c-23.784,12.553-42.271,19.158-54.825,20.475c5.948,2.646,12.554,2.646,19.816,0
				c15.192-5.283,30.384-11.889,48.221-21.797c19.816-10.573,28.402-18.494,27.086-23.119c-0.664-1.98-1.986-2.639-3.967-3.303
				c-7.928-1.98-24.442,2.638-50.864,11.889c-26.423,9.908-42.937,19.159-49.542,27.081l-3.303,7.27v1.98
				c1.322,3.961,5.947,3.961,12.553,0c-4.625,0.658-7.264,0-7.928-1.98c-1.322-1.979,1.98-5.283,7.928-9.244
				c11.225-8.592,29.067-16.514,52.845-23.784c21.798-7.928,35.009-10.573,38.312-8.586C96.284,259.4,84.402,267.328,60.618,278.559
				z"/>
		</g>
	</g>
	<g>
		<g>
			<path fill="#FFE000" d="M98.271,255.439c0.658-6.605-15.855-13.211-50.199-19.159c-34.357-6.605-52.188-3.961-52.846,5.948
				c-1.328,9.908,15.85,16.514,50.2,18.494C79.112,263.36,96.949,261.387,98.271,255.439z"/>
		</g>
	</g>
	<g>
		<g>
			<path d="M12.398,252.794c-2.645,0-3.96-0.658-5.947-2.645c1.322,1.329,2.645,1.987,3.303,2.645
				C11.076,252.794,11.741,253.452,12.398,252.794z"/>
			<path d="M62.599,258.742c-20.475,0-36.989-1.322-50.2-5.948c3.961,4.625,9.251,7.928,16.515,8.593l44.252,1.974
				c17.179-0.658,26.423-3.303,27.087-7.921c0.664-1.322,0-3.303-1.98-5.29c-6.605-5.941-22.462-10.566-45.581-15.185l-52.845-1.329
				c-3.961,1.987-7.264,4.632-7.264,8.593v0.658c0,5.29,4.619,7.928,13.869,7.264c-6.605-1.316-9.908-3.961-9.25-7.921
				c0.664-3.303,4.631-5.29,12.553-6.606c13.211-1.322,31.048,0.658,53.503,6.606c20.481,5.283,31.712,9.25,32.37,12.553
				C94.311,257.419,83.073,258.742,62.599,258.742z"/>
		</g>
	</g>
	<g>
		<g>
			<path fill="#FFE000" d="M123.371,205.897c9.908-34.351,9.908-52.845-1.322-55.489c-9.908-1.98-18.494,14.533-23.777,49.542
				c-5.947,34.35-5.947,52.844,0.658,55.489C104.877,256.755,112.799,240.905,123.371,205.897z"/>
		</g>
	</g>
	<g>
		<g>
			<path d="M131.299,157.014c-1.322-4.619-4.625-7.264-7.928-8.586c-9.908-1.98-17.836,8.586-24.441,33.028
				c-3.303,14.533-5.283,29.725-6.605,46.239c-0.658,17.836,1.322,27.745,5.947,29.725c1.316,0,3.303,0,5.283-1.98
				c5.283-5.948,11.23-17.836,18.494-37.653c6.605-20.481,9.908-37.653,9.908-50.206L131.299,157.014z M127.996,167.58
				c0,13.875-4.625,31.712-12.553,53.509c-7.264,20.481-13.211,31.047-16.514,31.705c-3.303-1.98-3.303-13.869-1.316-35.008
				c2.639-22.455,5.941-40.298,12.547-52.845c3.303-8.586,7.928-13.211,11.889-11.889
				C125.352,153.711,127.996,158.336,127.996,167.58z"/>
		</g>
	</g>
	<g>
		<g>
			<path fill="#FFE000" d="M93.646,205.897c-9.908-27.745-18.494-40.956-27.087-37.653c-9.244,3.303-7.264,18.495,5.29,46.239
				c11.889,27.745,20.475,40.297,26.422,37.653C103.555,250.149,102.232,234.3,93.646,205.897z"/>
		</g>
	</g>
	<g>
		<g>
			<path d="M91.666,195.331c-1.987-5.29-5.947-9.25-10.566-11.895c5.941,11.23,11.225,24.442,14.527,40.956
				c3.303,15.191,3.961,24.442,1.322,25.758c-2.639,0.665-7.928-7.264-16.514-21.791c-7.929-15.856-13.212-29.725-15.85-42.278
				c-1.987-9.25-0.665-14.534,2.638-15.856c3.303-0.658,7.271,2.645,11.889,11.231c-2.645-11.889-7.263-16.514-13.211-15.191
				c-3.961,1.98-5.948,3.96-6.605,8.586v3.303c0,10.573,3.961,24.442,12.554,41.614c7.263,17.172,14.526,27.745,20.475,33.027
				c2.645,2.645,4.625,2.645,6.605,1.323c4.625-1.323,4.625-9.244,2.645-23.12C99.588,218.45,96.284,206.555,91.666,195.331z"/>
		</g>
	</g>
	<g>
		<g>
			<path fill="#D96038" d="M75.152,202.595c-19.817-29.067-34.351-39.633-42.279-33.028c-7.921,7.263-0.657,23.119,22.462,49.542
				c23.777,25.1,36.989,36.331,42.278,31.706C102.232,247.511,95.627,230.997,75.152,202.595z"/>
		</g>
	</g>
	<g>
		<g>
			<path d="M27.59,176.172c0,8.586,6.605,21.132,19.817,36.988c8.586,9.909,17.837,19.817,28.402,28.409
				c11.896,10.566,19.817,14.527,23.12,11.224c1.986-0.658,2.645-3.303,1.322-6.605c-1.322-9.908-8.586-23.777-21.797-42.936
				c-14.534-20.475-26.423-33.028-35.674-36.331c-4.618-1.98-8.586-0.658-11.224,1.322C28.913,169.567,27.59,172.87,27.59,176.172z
				 M34.195,171.547c3.304-1.98,7.929-0.664,15.192,4.625c9.908,8.586,21.139,22.461,33.028,41.614
				c10.565,17.836,15.197,28.402,13.211,31.705c-3.303,1.323-11.889-5.283-26.423-19.816
				c-15.856-15.191-26.423-28.403-33.028-40.949C32.216,180.133,31.558,174.85,34.195,171.547z"/>
		</g>
	</g>
	<g>
		<g>
			<path fill="#FFE000" d="M69.204,210.516c-23.119-21.133-37.646-27.08-44.252-17.172c-6.605,10.566,3.303,24.442,29.061,40.956
				c25.1,16.514,39.634,22.455,43.601,16.514C101.574,245.531,91.666,232.319,69.204,210.516z"/>
		</g>
	</g>
	<g>
		<g>
			<path d="M32.873,221.089c5.948,5.941,12.554,11.23,20.475,15.85c7.271,5.29,15.856,9.908,25.107,13.875
				c11.889,4.625,18.494,5.283,21.133,1.322c1.328-1.987,0.664-5.29-1.316-9.908c-5.947-9.909-15.198-21.804-28.409-34.35
				c-14.527-13.876-27.081-21.139-35.667-21.139c-4.625-0.658-8.586,1.322-11.23,5.947c-1.315,1.98-1.98,3.961-1.98,6.606
				C20.984,205.897,24.952,213.161,32.873,221.089z M26.926,194.667H43.44c11.238,5.283,23.12,15.191,35.673,29.725
				c12.554,14.534,17.837,23.12,16.515,25.758c-1.98,1.987-9.908-1.316-23.12-7.264c-13.869-7.264-25.765-15.191-35.008-23.777
				C26.268,208.542,22.965,200.608,26.926,194.667z"/>
		</g>
	</g>
	<g>
		<g>
			<path fill="#D96038" d="M97.613,250.814c1.316-5.283-13.875-15.192-46.903-29.725c-33.028-14.534-50.864-17.836-53.509-8.586
				c-1.975,7.921,13.211,18.494,46.903,29.725C78.455,254.117,95.627,257.419,97.613,250.814z"/>
		</g>
	</g>
	<g>
		<g>
			<path d="M96.949,245.531c-7.271-7.928-22.455-16.514-44.917-26.422c-25.106-11.23-42.278-15.856-50.864-13.211
				c-3.303,0.658-5.283,3.303-5.941,5.283v1.98c0,7.928,9.908,15.856,31.041,24.442l33.028,11.889
				c25.765,7.264,38.976,7.928,40.956,2.645C100.252,249.491,98.93,247.511,96.949,245.531z M60.618,245.531
				c-21.14-6.605-38.312-13.211-50.864-21.139c-7.922-5.283-11.225-8.586-9.908-11.889l0,0c0-2.645,3.303-3.303,9.25-2.645
				c12.554,1.323,29.726,7.928,52.845,19.159c21.798,10.566,33.028,17.83,33.687,21.797
				C92.981,252.794,81.758,250.814,60.618,245.531z"/>
		</g>
	</g>
	<g>
		<g>
			<path fill="#D96038" d="M97.613,250.814c-1.986-5.283-19.158-5.941-52.845,0c-33.692,5.283-49.542,12.546-48.226,21.797
				c1.986,9.25,19.816,9.25,52.845,0.658C83.738,264.025,99.588,257.419,97.613,250.814z"/>
		</g>
	</g>
	<g>
		<g>
			<path d="M70.526,245.531c-15.191,0.658-29.725,2.645-44.259,6.605c-21.133,5.283-31.705,11.889-31.705,19.159v1.316
				c0,3.961,2.639,5.948,7.27,7.928c9.909,2.639,27.081,1.323,51.516-5.941c23.785-5.948,38.318-12.553,44.924-18.5l1.98-5.283
				C98.93,246.188,89.021,244.208,70.526,245.531z M63.921,267.328c-22.455,6.605-39.634,9.908-52.845,9.908
				c-7.928,0-11.23-1.98-11.889-5.283c-0.658-3.303,2.645-6.605,10.566-9.908c13.211-5.947,30.383-9.908,52.187-11.23l33.687,1.322
				C94.969,255.439,83.738,260.058,63.921,267.328z"/>
		</g>
	</g>
	<g>
		<g>
			<path fill="#D96038" d="M98.271,251.478c-5.947-2.645-19.159,9.244-40.291,36.331c-21.805,27.738-27.752,43.595-18.502,48.876
				c8.594,4.627,21.805-7.27,39.634-36.33C96.949,270.63,103.555,254.117,98.271,251.478z"/>
		</g>
	</g>
	<g>
		<g>
			<path d="M98.93,249.491c-1.98-0.658-4.619-0.658-7.264,1.323c-9.908,5.283-21.14,17.836-35.673,35.666
				c-15.191,19.817-22.462,33.692-22.462,43.6c0,3.968,1.987,6.605,4.632,7.929c3.961,1.979,7.922,1.979,12.547-1.323
				c9.908-5.281,21.14-18.494,33.028-39.633c11.889-19.817,17.836-34.35,17.836-42.936
				C101.574,252.136,100.916,250.814,98.93,249.491z M96.949,253.452c1.98,2.645-1.98,12.553-11.23,29.725
				c-9.251,17.843-18.495,32.37-28.403,42.937c-7.928,7.27-13.211,10.572-16.514,7.935c-3.303-1.329-3.303-5.29-1.323-11.896
				c4.626-11.889,14.534-27.08,29.726-44.917C84.402,260.722,93.646,252.794,96.949,253.452z"/>
		</g>
	</g>
	<g>
		<g>
			<path fill="#FFE000" d="M46.085,278.559c-29.726,22.46-40.292,37.646-33.028,44.916c7.928,6.605,24.442-2.638,51.529-27.744
				c27.08-25.1,37.646-40.292,33.027-44.917C92.981,246.847,75.81,255.439,46.085,278.559z"/>
		</g>
	</g>
	<g>
		<g>
			<path d="M20.984,297.053c-7.928,9.244-12.546,16.514-12.546,21.139c0,1.98,1.315,4.619,3.303,6.605
				c9.243,8.586,30.383-3.303,64.068-37.652c20.475-20.481,28.409-33.028,23.12-37.653c-3.303-3.96-15.191,1.323-34.344,13.211
				C46.085,273.933,32.216,285.822,20.984,297.053z M32.873,317.534c-9.25,5.94-15.191,6.604-18.494,3.96
				c-1.98-1.986-1.322-5.947,1.98-11.23c7.264-11.229,21.804-24.442,43.594-38.311c20.482-14.533,32.371-20.475,36.331-19.159
				c0.665,3.303-5.94,13.211-20.475,29.067C59.953,297.717,46.085,310.264,32.873,317.534z"/>
		</g>
	</g>
	<g>
		<g>
			<path fill="#FFE000" d="M97.613,250.814c-5.947-0.665-15.855,16.514-28.409,51.522c-13.211,35.016-13.211,53.502-2.645,55.489
				c10.573,1.979,20.481-14.533,29.067-50.864C103.555,270.63,103.555,252.136,97.613,250.814z"/>
		</g>
	</g>
	<g>
		<g>
			<path d="M98.271,248.833c-5.29-1.322-12.553,9.25-22.462,30.383c-8.586,20.476-15.191,37.653-17.172,52.187l-1.322,12.554
				c0,9.908,2.638,15.185,8.586,15.851c9.251,1.979,16.515-6.605,23.777-26.424c3.968-10.572,7.271-23.119,9.909-36.994
				C105.535,266.005,104.877,250.814,98.271,248.833z M96.949,253.452c3.303,1.987,2.639,13.875,0,34.356
				c-3.303,22.456-8.586,39.633-15.191,53.502c-5.29,9.908-9.908,15.191-14.534,14.526c-3.967-1.315-5.283-5.276-5.283-11.882
				c0-13.211,5.283-31.712,15.192-55.489C87.041,266.005,93.646,254.117,96.949,253.452z"/>
		</g>
	</g>
	<g>
		<g>
			<path fill="#FFE000" d="M135.26,211.845c19.816-29.067,24.441-45.581,15.197-50.87c-9.25-4.619-21.803,8.592-37.658,38.975
				c-15.85,31.047-20.475,48.226-15.186,50.864C103.555,254.117,115.443,240.905,135.26,211.845z"/>
		</g>
	</g>
	<g>
		<g>
			<path d="M108.838,203.252c-10.566,21.139-15.191,35.673-15.191,44.259c0,3.303,1.322,4.625,3.303,5.941l6.605-1.316
				c8.586-5.948,19.816-17.836,32.363-36.989c13.875-20.481,20.48-35.672,20.48-45.581v-1.323c0-4.625-1.322-7.27-4.625-9.244
				c-3.961-1.987-7.922-1.329-12.553,1.316C129.977,166.922,119.404,181.456,108.838,203.252z M107.521,217.786
				c7.922-19.817,17.172-35.008,25.758-46.239c7.27-7.27,12.547-9.908,15.85-8.585c3.303,1.98,3.967,6.605,1.986,13.869
				c-3.961,13.211-12.553,29.067-27.08,47.562c-13.211,16.514-21.803,25.1-25.105,24.442
				C96.949,246.188,99.588,235.622,107.521,217.786z"/>
		</g>
	</g>
	<g>
		<g>
			<path fill="#D96038" d="M106.193,198.634c-0.658-32.37-5.941-48.884-15.85-46.903c-8.586,0.665-11.231,17.836-7.271,49.542
				c3.968,32.363,9.251,48.219,15.198,47.562C104.877,247.511,106.857,230.997,106.193,198.634z"/>
		</g>
	</g>
	<g>
		<g>
			<path d="M90.344,149.092c-3.303,0.658-6.605,2.638-7.928,7.263c-1.98,5.283-3.304,12.553-3.304,21.797
				c0,13.211,1.323,26.422,4.626,40.956c3.303,15.191,6.605,25.1,9.908,29.067c1.98,1.974,3.303,2.639,5.283,2.639
				c4.625-0.665,7.264-9.909,9.25-27.745c0.658-15.856,0.658-30.383-1.322-44.917c-0.664-5.283-3.303-9.909-7.27-13.211
				c3.967,12.547,5.289,29.061,3.967,49.542c-0.664,19.816-2.639,29.725-5.283,31.705c-3.303-0.658-6.605-10.566-9.908-28.402
				c-4.625-19.817-5.947-35.666-4.625-49.542c1.322-9.244,3.303-14.533,7.27-14.533c2.639-0.658,5.941,2.645,7.264,9.25
				C98.93,153.053,96.284,148.428,90.344,149.092z"/>
			<path d="M99.588,164.941C100.252,164.941,100.252,164.941,99.588,164.941c0-1.322-0.658-1.98-1.316-1.98
				C98.93,163.619,99.588,164.941,99.588,164.941z"/>
		</g>
	</g>
	<g>
		<g>
			<path fill="#FFE000" d="M98.93,255.439c-6.605,0.658-6.605,17.172-0.658,48.883c5.283,32.363,13.869,46.896,23.777,45.574
				c11.23-1.979,11.23-18.494,1.322-49.541C112.799,268.65,104.877,254.117,98.93,255.439z"/>
		</g>
	</g>
	<g>
		<g>
			<path d="M104.877,256.097c-2.645-2.645-4.625-3.961-6.605-3.303c-4.625,1.323-5.947,7.928-5.947,21.139
				c0,9.244,1.322,19.153,3.303,29.725c6.605,33.691,15.855,50.205,27.08,48.877c3.967-1.315,7.27-3.96,8.592-7.922l0.658-9.907
				c0-11.231-3.303-25.106-9.908-43.595C116.102,274.598,110.16,262.703,104.877,256.097z M98.93,257.419
				c3.303,0,9.25,9.908,16.514,28.402c7.928,20.475,12.553,36.332,12.553,48.884c0,7.921-2.645,11.889-5.947,12.553
				c-5.283,1.316-9.908-3.967-14.527-16.514c-5.289-12.555-8.592-27.751-10.572-45.581C95.627,268.65,96.949,258.742,98.93,257.419z
				"/>
		</g>
	</g>
	<g>
		<g>
			<path fill="#FFE000" d="M120.068,270.63c16.514,3.967,25.758,1.98,28.402-5.283c2.645-7.928-5.283-13.211-21.797-15.856
				c-17.178-1.98-26.422,0-27.744,5.948C96.949,260.722,104.219,266.005,120.068,270.63z"/>
		</g>
	</g>
	<g>
		<g>
			<path d="M96.284,254.117c-0.657,3.303,0.665,6.605,5.948,10.573l16.514,7.263l19.816,2.645
				c6.605-0.665,10.566-3.967,12.553-8.592v-3.303c0-5.948-5.289-10.566-15.197-13.211l-23.777-1.98
				C102.891,247.511,97.613,250.149,96.284,254.117z M105.535,261.387c-3.961-2.645-5.283-3.967-5.283-5.948
				c1.322-1.987,5.283-3.303,11.889-3.303l22.461,1.98c8.586,1.98,13.211,5.941,11.225,10.573c-0.658,2.638-3.303,4.619-9.244,5.276
				l-16.514-2.638C114.127,266.005,108.838,264.025,105.535,261.387z"/>
		</g>
	</g>
	<g>
		<g>
			<path fill="#FFE000" d="M117.43,285.164c15.85,16.514,27.738,22.461,34.344,17.172c5.947-5.283,0-15.191-18.494-30.383
				c-17.836-15.855-28.402-21.139-33.027-17.836C95.627,258.084,101.574,268.65,117.43,285.164z"/>
		</g>
	</g>
	<g>
		<g>
			<path d="M98.271,252.136c-1.322,1.98-1.987,3.303-1.322,6.605c0.664,6.605,6.605,15.191,16.514,25.764
				c9.908,10.565,19.816,17.83,27.744,20.476l11.225-1.322c2.645-1.322,3.303-3.303,3.303-5.941c0-3.967-2.639-9.908-7.922-15.855
				c-6.605-7.928-15.855-15.856-25.764-22.461C110.16,252.136,102.232,249.491,98.271,252.136z M101.574,257.419v-1.322
				c1.316-1.98,7.264,0.658,17.172,6.605c9.908,6.605,18.5,13.869,25.764,22.461c6.605,7.922,7.922,12.553,5.283,15.19h-7.27
				c-7.264-2.639-15.85-9.244-25.758-19.816C107.521,270.63,102.232,262.703,101.574,257.419z"/>
		</g>
	</g>
	<g>
		<g>
			<path fill="#FFE000" d="M133.279,257.419c23.119-3.967,34.35-9.908,33.027-18.494c-0.664-7.928-11.889-8.593-35.008-2.645
				c-22.461,5.948-33.686,12.553-33.027,17.836C98.93,260.722,110.16,261.387,133.279,257.419z"/>
		</g>
	</g>
	<g>
		<g>
			<path d="M95.627,254.781c0,1.974,1.322,3.961,3.961,4.619l30.389,0.658c15.191-1.974,25.758-5.941,32.363-10.566
				c4.632-3.303,6.605-5.947,6.605-9.908v-0.658c-0.658-6.606-7.922-9.909-21.133-7.928c-10.566,0.665-21.803,3.303-33.027,8.586
				C101.574,245.531,95.627,250.149,95.627,254.781z M129.313,255.439h-27.738l-1.322-1.322c0-1.98,5.283-5.283,15.191-9.909
				c11.23-5.283,22.461-7.928,33.027-8.586c9.908-1.322,15.855,0,15.855,3.961l-4.625,5.948
				C153.76,250.814,143.188,254.117,129.313,255.439z"/>
		</g>
	</g>
	<g>
		<g>
			<path fill="#D96038" d="M73.165,276.572c-12.547,18.5-15.85,31.711-7.921,37.661c7.263,6.604,16.514-0.666,26.422-22.462
				c9.908-21.139,12.553-33.686,7.264-37.653C94.969,250.149,85.719,257.419,73.165,276.572z"/>
		</g>
	</g>
	<g>
		<g>
			<path d="M59.953,300.355c-1.315,6.604,0,12.547,3.968,16.514c5.283,4.625,11.889,2.639,18.495-5.941
				c6.605-7.27,12.553-18.5,17.172-32.369c4.631-14.534,5.289-23.12,1.328-26.422h-5.947c-5.947,1.98-12.553,7.921-20.475,18.494
				C65.901,281.861,61.94,291.111,59.953,300.355z M63.921,304.98l0.665-3.961c1.315-7.935,5.94-17.179,13.869-27.75
				c7.264-9.909,13.211-15.85,17.829-17.172l1.987-0.658c1.98,1.98,0.658,9.908-3.303,21.797
				c-4.625,13.211-9.25,23.784-15.856,31.047c-5.282,5.283-9.25,7.264-11.889,4.619C65.244,310.928,63.921,308.941,63.921,304.98z"
				/>
		</g>
	</g>
	<g>
		<g>
			<path fill="#FFE000" d="M67.224,240.905c-21.797-2.638-33.028,1.323-33.692,11.889c-0.658,10.566,9.908,15.198,32.37,13.211
				c21.804-0.658,33.028-5.283,33.687-11.225C100.252,248.833,89.679,244.208,67.224,240.905z"/>
		</g>
	</g>
	<g>
		<g>
			<path d="M31.558,254.117c0,8.586,7.264,13.211,22.455,14.533l30.39-3.303c11.225-2.645,17.172-6.605,17.83-10.566
				c0-2.645-1.98-4.631-5.283-7.27c-5.283-3.967-14.533-6.606-27.087-8.586l-30.384,1.98c-5.283,3.303-7.921,6.606-7.921,11.889
				V254.117z M54.013,264.025c-11.889-0.665-18.494-4.625-17.837-11.231c0-3.303,1.987-5.283,5.948-7.263l27.08-1.323
				c11.896,1.323,19.817,3.967,25.765,7.928l1.98,1.98c0,2.638-4.625,4.625-13.211,7.27L54.013,264.025z"/>
		</g>
	</g>
	<g>
		<g>
			<path fill="#FFE000" d="M112.141,249.491c-0.658-3.303-2.645-4.619-5.947-5.283H95.627c-3.303,1.323-6.605,3.967-7.922,6.606
				c-1.986,3.303-1.986,5.941-0.664,8.586c0.664,3.303,3.303,4.625,6.605,5.947h9.908l7.928-6.605
				C113.463,255.439,113.463,252.136,112.141,249.491z"/>
		</g>
	</g>
	<g>
		<g>
			<path d="M104.219,267.328c4.619-1.98,7.264-4.625,9.244-8.586c1.98-3.303,2.639-6.605,1.322-9.908
				c-1.322-3.303-3.961-5.948-7.928-6.605H94.969c-4.625,1.98-7.928,5.283-9.908,9.25c-1.322,2.639-1.322,5.941-0.658,9.244
				c1.316,3.303,3.961,5.283,6.605,6.605C95.627,268.65,99.588,268.65,104.219,267.328z M104.877,246.188
				c2.645,0.658,4.619,1.987,5.283,4.625l0.664,1.98c0,4.625-2.645,7.928-8.592,9.909c-3.303,1.322-6.605,1.322-9.908,0
				l-3.303-3.961c-0.658-1.987-0.658-3.303,0-5.29c1.322-2.638,3.303-5.277,7.263-6.605L104.877,246.188z"/>
		</g>
	</g>
	<g>
		<g>
			<path fill="#D96038" d="M208.579,403.406l-44.91-50.206l-44.923,15.19c6.605,17.172,16.514,32.369,28.408,44.924
				c12.547,13.868,27.08,25.093,42.272,33.026L208.579,403.406z"/>
		</g>
	</g>
	<g>
		<g>
			<path d="M211.882,404.723c0.664-1.315,0.664-1.98,0-3.962l-46.239-50.198l-3.303-0.664l-44.252,15.19l-2.645,1.322v3.303
				c6.605,17.179,16.514,33.027,29.725,46.239c11.896,13.211,26.422,24.44,42.938,33.027l2.645,0.663l1.98-1.985L211.882,404.723z
				 M188.104,441.711c-15.191-8.58-27.737-18.488-38.976-29.727c-10.566-12.547-19.152-26.422-25.758-41.606l38.969-13.211
				l42.937,46.239L188.104,441.711z"/>
		</g>
	</g>
	<g>
		<g>
			<path fill="#D96038" d="M143.188,219.767l-5.283,17.836c-3.303,14.534-5.947,29.061-7.264,44.259
				c-2.645,46.238,8.58,84.55,35.666,114.274c27.087,29.727,64.076,45.575,111.63,46.903c23.119,0.658,43.602-1.328,62.096-7.271
				L143.188,219.767z"/>
		</g>
	</g>
	<g>
		<g>
			<path d="M145.826,217.786c-0.658-1.323-1.316-1.323-3.303-1.323l-1.975,1.987l-5.947,18.488
				c-3.303,15.198-5.947,30.389-6.605,44.923c-3.303,48.219,8.586,86.53,36.33,116.913c27.081,29.726,64.068,45.581,112.295,46.903
				c23.777,0.664,44.917-1.321,64.068-6.604l2.646-1.98l-0.658-3.303L145.826,217.786z M133.279,295.072
				c0-24.442,3.967-47.562,11.889-69.358l188.916,208.075c-23.777,5.283-46.896,6.604-70.674,4.618
				c-39.635-3.303-71.346-18.487-94.465-44.252C145.826,368.393,133.279,335.363,133.279,295.072z"/>
		</g>
	</g>
	<g>
		<g>
			<path fill="#D96038" d="M198.014,230.997l-54.826-11.23l5.941,54.831c8.592,41.607,23.119,73.319,44.923,96.438
				c21.134,23.776,51.522,41.614,91.819,54.16c20.476,5.947,38.305,9.908,54.161,10.572c0-15.85-1.98-33.691-5.948-54.825
				c-8.579-40.954-23.119-73.318-44.252-97.103C268.693,260.722,238.305,242.886,198.014,230.997z"/>
		</g>
	</g>
	<g>
		<g>
			<path d="M143.852,216.463l-2.645,1.323c-0.658,0-1.322,1.322-1.322,1.98l6.605,57.469c8.586,40.298,23.119,72.662,44.917,96.445
				c21.139,23.12,52.187,41.607,91.819,53.503c20.475,6.605,38.976,10.566,56.806,11.89l1.985-0.665l1.316-2.639
				c0-17.179-1.98-36.331-5.948-56.812c-9.243-40.949-23.776-73.318-45.573-97.097c-21.14-23.12-51.521-40.956-91.155-53.502
				L143.852,216.463z M146.49,223.069c20.481,2.645,40.955,7.928,60.771,14.533c34.344,11.889,60.768,28.403,79.926,48.877
				c19.158,20.481,32.369,48.882,40.955,84.556c5.283,20.475,7.929,40.949,8.586,61.431c-19.816-2.639-40.291-7.271-60.107-13.876
				c-35.016-12.547-61.438-29.061-80.589-48.877c-18.494-21.139-32.363-49.542-40.956-84.55
				C150.457,264.689,147.813,244.208,146.49,223.069z"/>
		</g>
	</g>
	<g>
		<g>
			<path d="M192.729,258.742l-7.271-8.592l-9.908-0.658l8.593,3.303l4.619,8.593l5.947,8.579l-19.817,11.237l-8.586,3.961
				c9.244,0.658,19.817-3.303,32.364-10.566l6.605,8.58v0.665v7.27c1.985,2.639,3.967,4.619,6.604,4.619l3.304-0.657l11.895,15.19
				l1.316,2.639l9.25-1.315l0.657-5.289l1.987-12.547l-1.323-13.875c-7.271-1.316-12.546,0-16.514,1.987l-5.283,3.96l-3.303-3.96
				l3.961-21.804c-5.283-2.638-7.265-4.619-7.923-3.303l-1.327,1.987l-9.244,7.264L192.729,258.742z M208.579,267.328l-1.315,6.605
				l-3.304-3.303L208.579,267.328z M231.04,301.678l-8.586-9.25l5.282-1.98l3.962-2.639L231.04,301.678z"/>
		</g>
	</g>
	<g>
		<g>
			<path d="M192.729,293.75c-0.664,5.941-0.664,11.23-0.664,17.178c5.289,2.639,10.572,3.305,16.515,3.961l13.211-0.656
				c7.271-0.666,11.896-1.33,11.896-3.305l-11.896,0.658l-26.422-3.303l3.303-26.422c0.664-7.928,1.328-11.231,0.664-11.231
				c-0.664-0.665-1.979,3.303-3.967,11.231L192.729,293.75z"/>
		</g>
	</g>
	<g>
		<g>
			<path d="M251.516,285.822l-3.961,5.29l-17.83,19.816l-29.066,25.094l-12.553,7.271c0.656,1.322,4.625,0,13.869-3.968
				c10.571-5.941,21.803-13.211,32.368-23.119l17.173-18.488c0,5.941,0,9.908,0.664,13.212l2.639,13.868l-5.94,6.606l-7.271,17.172
				l-2.64,9.25c-0.663,3.303,0,7.922,1.98,12.553c2.646,2.639,6.604,3.961,9.909,5.277l10.564,1.328h5.948
				c2.646,0,4.625-2.646,6.604-6.605l-5.947-27.751l-3.303-14.526l1.328-0.658c10.566-1.328,17.172,2.639,20.475,10.566
				c2.646,5.947,3.304,15.191,1.316,25.1c2.646,15.191,7.271,27.088,15.197,36.996c3.961,5.275,7.264,8.578,10.566,9.908
				l-7.921-11.238c-6.605-11.225-10.573-22.455-11.237-35.666l0.664-12.547c0.665-5.946,0-10.571-1.322-15.197
				c-1.98-5.283-5.947-9.25-11.889-12.553c-5.283-2.64-11.23-3.961-17.18-2.64h-2.638l-1.979-10.571
				c-1.322-5.277-1.322-9.908-1.322-15.187c-0.665-0.664-0.665-1.328,0.664-3.967C260.107,289.125,257.463,287.145,251.516,285.822z
				 M249.541,350.563c1.975-7.271,5.275-13.211,7.922-16.515l2.645,9.908l3.961,18.487c1.322,7.271,0.658,9.908-2.646,6.605
				c-6.604-0.658-11.882-1.975-14.526-4.619C247.555,358.482,248.212,353.864,249.541,350.563z"/>
		</g>
	</g>
	<g>
		<g>
			<path d="M250.857,265.347c-3.305-1.987-5.948-3.303-9.909-2.645c-2.646,0-5.947,1.322-9.25,2.645l-3.304,2.645l3.967,1.316
				l8.587,1.322h7.264l4.632-1.322C254.16,268.65,253.502,267.328,250.857,265.347z"/>
		</g>
	</g>
	<g>
		<g>
			<path fill="#FFE000" d="M188.104,487.291c1.322,10.566,14.533,24.442,39.633,41.62c27.08,19.152,52.846,29.726,77.287,31.699
				l13.876,0.665c9.243-1.98,14.526-7.271,15.185-15.851c0.665-11.236-10.566-25.105-33.686-42.277
				c-22.461-16.515-42.937-27.08-62.754-32.37c-18.494-5.283-31.705-5.283-39.633-2.646
				C190.091,471.436,186.788,478.041,188.104,487.291z"/>
		</g>
	</g>
	<g>
		<g>
			<path d="M147.154,452.283c1.975,0,5.941,1.321,10.566,3.303l9.908,3.303h21.134l-5.942-0.664l-13.875-2.639l-9.908-3.303
				l-11.225-3.967c-4.625,0-9.25,1.327-13.211,4.631l-11.23,9.909l3.303,2.638C135.26,456.25,141.865,452.283,147.154,452.283z"/>
		</g>
	</g>
	<g>
		<g>
			<path d="M187.445,485.976l1.98,2.64c5.283-3.968,13.211-5.941,25.1-4.626c10.566,1.321,17.836,0.658,21.805-3.304
				c11.882-7.921,17.83-11.889,16.514-12.553l-17.843,10.572c-2.64,2.639-9.908,3.303-20.476,1.323
				C202.639,478.705,193.395,480.028,187.445,485.976z"/>
		</g>
	</g>
	<g>
		<g>
			<path d="M213.868,505.792l2.646,3.303c5.276-7.935,13.869-10.571,25.758-7.935c12.547,3.303,21.797,3.303,25.758-1.975
				l13.212-10.571l4.631-5.283c-0.664,0-6.604,4.618-19.158,13.211c-5.946,4.618-13.211,4.618-23.118,1.98
				c-4.627-3.304-9.252-3.304-15.856-1.98C221.79,498.522,217.171,501.16,213.868,505.792z"/>
		</g>
	</g>
	<g>
		<g>
			<path d="M248.877,523.622l2.639,2.645c4.631-3.961,10.572-7.264,19.158-7.928c9.25-1.979,15.197-2.639,17.172-4.625l13.875-9.251
				l-14.533,6.605l-17.172,3.303C261.423,515.7,254.16,519.003,248.877,523.622z"/>
		</g>
	</g>
	<g>
		<g>
			<path d="M275.963,537.491c4.619-3.303,10.566-4.619,18.488-4.619h16.514c3.968-0.658,5.947-1.986,5.947-5.289
				c-1.315,1.328-3.303,1.986-5.947,2.645l-16.514-0.657c-7.922-0.658-14.527,1.315-20.475,4.619L275.963,537.491z"/>
		</g>
	</g>
	<g>
		<g>
			<path d="M288.51,548.063l0.665,3.968l19.151,0.658l16.515,1.979l11.23-2.638l3.303-1.987l-15.198,1.987l-15.185-3.303
				L288.51,548.063z"/>
		</g>
	</g>
	<g>
		<g>
			<path fill="#858585" d="M178.854,479.37c-3.961-3.303-12.547-5.948-24.436-7.936l-25.764-5.94l-19.816-2.638l-13.211,1.314
				l-11.889-10.566c-6.605-5.288-11.889-7.928-17.179-7.928l-61.424,11.89l1.316,129.466h317.725
				c-4.618-3.303-13.211-11.225-24.436-24.436l-18.5-21.14c-4.619-5.94-16.516-11.889-35.666-18.494
				c-11.231-3.961-24.442-11.229-40.299-21.804L178.854,479.37z"/>
		</g>
	</g>
	<g>
		<g>
			<path d="M186.124,482.008l-5.283-5.283c-4.626-3.303-15.198-6.604-33.028-10.564l-17.836-3.968L96.95,460.87l-6.605-5.283
				c-8.586-9.244-17.179-13.211-24.442-13.211c-8.586,0.664-29.067,4.625-61.431,12.547c-1.98,0-2.639,1.328-2.639,3.303
				l1.316,128.809c0,1.987,0.658,3.304,3.303,3.304h317.725l3.304-1.975c0-1.986,0-3.303-1.315-3.967
				c-5.29-3.304-17.172-15.851-35.673-38.313l-6.605-7.263c-5.947-5.948-18.494-11.896-36.988-18.501
				c-9.907-3.303-21.803-9.251-34.351-17.83L186.124,482.008z M176.215,482.008l5.941,4.626
				c25.765,21.132,46.239,34.344,62.753,39.633c17.179,6.605,29.067,12.555,34.356,17.83l5.276,6.605l30.39,33.027H9.096
				L8.438,460.211c29.061-6.604,48.212-9.908,58.121-11.229c5.29,0,11.896,3.303,19.159,11.229l8.592,6.605l1.974,0.657
				l15.198-1.314l16.514,1.974l18.494,4.632C163.004,476.067,172.912,479.37,176.215,482.008z"/>
		</g>
	</g>
	<g>
		<g>
			<path fill="#858585" d="M126.674,475.402l-21.797-3.304l110.309,91.813l-3.961-11.224l-7.265-10.566
				c-4.625-4.632-7.265-9.251-8.592-11.237l-7.265-21.133l-9.909-6.604l-11.224-5.29l-7.935-9.243l-6.605-8.586L126.674,475.402z"/>
			<path fill="#858585" d="M215.186,563.913v1.329l4.631,9.244l23.119,12.546L215.186,563.913z"/>
		</g>
	</g>
	<g>
		<g>
			<path d="M124.693,472.765l-21.139-3.303l-5.283-5.948l-1.322,1.98l-1.322,0.665l6.605,6.604l21.139,3.96l28.402,5.283
				l6.605,7.929l7.264,9.25l7.935,3.962c7.921,3.961,11.882,5.946,12.547,7.921l5.283,12.554l2.645,7.928
				c1.316,2.639,3.962,7.271,7.923,12.547l7.27,9.908l1.98,3.967c2.645,9.909,4.625,15.851,7.264,17.837l23.783,13.211l2.639-0.657
				v-1.329l-0.658-1.975c-12.553-5.289-20.475-9.907-22.461-11.895c-1.316-1.316-3.961-6.606-7.264-15.856l-1.315-5.275
				l-7.935-11.237l-7.264-10.566l-2.646-7.922l-5.941-13.211c-1.321-2.645-5.941-5.946-13.876-9.25l-7.264-3.961l-7.264-7.935
				l-7.928-9.244L124.693,472.765z"/>
		</g>
	</g>
	<g>
		<g>
			<path fill="#858585" d="M38.821,491.917l-23.12-0.665l74.643,14.54l-23.12-10.572L38.821,491.917z"/>
			<path fill="#858585" d="M90.344,505.792l3.303,1.974c2.638,1.987,9.244,3.969,19.816,5.29l20.48,2.646l10.566,1.315
				L90.344,505.792z"/>
			<path fill="#858585" d="M154.418,516.358l-9.908,0.657l50.2,9.908l-22.462-9.908L154.418,516.358z"/>
		</g>
	</g>
	<g>
		<g>
			<path d="M120.732,515.7l12.547,1.975l22.455,1.328h16.514l21.146,9.908c1.315,0.658,1.975,0,2.639-1.328
				c0.664-1.316,0-1.975-0.664-2.639l-22.456-9.908l-17.836-0.665h-20.475l-13.211-1.974c-15.197-1.986-24.441-3.968-26.422-5.947
				l-26.422-13.211l-52.846-3.961c-1.322,0-1.986,0.658-1.986,1.974c0,1.329,0.664,1.987,1.986,1.987l50.858,3.303l25.765,13.211
				C95.627,512.397,104.877,514.371,120.732,515.7z"/>
		</g>
	</g>
	<g>
		<g>
			<path fill="#858585" d="M127.338,515.036l5.941,5.94l9.908,8.593l2.639,1.315L127.338,515.036z"/>
			<path fill="#858585" d="M153.76,532.214l-7.934-1.328l54.831,46.238l-5.289-7.921l-6.606-9.908l-9.908-10.566l-13.211-11.896
				C163.669,535.518,159.037,534.188,153.76,532.214z"/>
		</g>
	</g>
	<g>
		<g>
			<path d="M126.01,513.056c-0.658,1.315-0.658,2.646,0,3.304l7.27,6.604l9.244,7.922l9.25,3.303l13.211,4.633
				c3.961,1.974,9.908,7.921,19.159,18.486l5.947,7.936c5.277,9.244,9.908,15.185,15.187,18.486c1.328,0.665,2.645,0,2.645-1.314
				c0.658-0.658,0.658-1.987-0.658-1.987c-4.625-2.638-8.592-8.579-13.869-17.172l-3.303-5.283l-3.303-3.967l-19.816-19.151
				c-3.968-1.98-8.593-3.968-14.54-4.625l-7.922-2.646l-15.855-13.869L126.01,513.056z"/>
		</g>
	</g>
	<g>
		<g>
			<path fill="#858585" d="M124.693,552.689l-9.25-5.29h-11.889l-11.23,0.664l-9.908-3.304l-9.909-5.939l-8.586-5.948l-4.625-3.303
				H52.69h-8.586l-7.929-1.986h-5.283c-11.23,3.303-17.836,4.631-17.178,5.947l153.257,50.199
				c-2.646-3.961-7.935-8.579-15.856-13.211l-15.855-9.908L124.693,552.689z"/>
		</g>
	</g>
	<g>
		<g>
			<path d="M79.112,540.794l-5.947-3.303c-1.974-1.316-4.618-3.303-9.244-6.605l-3.968-3.303H44.104l-5.283-1.316l-8.593-0.657
				h-1.315c-10.566,3.303-15.856,5.276-16.515,6.604c-0.657,0.658-0.657,1.976,0.658,2.639l2.645-0.663
				c0.658,0,5.948-1.976,14.527-4.619l1.329-0.658l5.941,0.658l6.605,1.979h14.533l3.303,2.639l9.251,6.605l5.941,3.303
				c6.605,3.967,11.889,5.947,15.191,5.947l9.908-0.658l12.553-0.657l11.889,8.579l13.211,8.594
				c13.875,7.921,22.455,14.525,25.758,19.157h2.645l0.658-2.645c-3.961-5.29-12.547-11.896-26.422-19.816l-6.605-3.961
				l-6.605-4.632c-7.264-5.276-11.225-8.579-13.869-8.579h-13.869l-9.25,0.657C89.679,546.083,85.719,544.097,79.112,540.794z"/>
		</g>
	</g>
	<g>
		<g>
			<path fill="#D96038" d="M272.66,73.786l1.316,3.303c1.321,2.645,4.625,5.283,9.25,8.586c6.604,4.625,13.869,6.605,21.133,5.283
				l-9.244,5.948c-5.283,5.947-8.586,11.889-9.244,19.159c-1.328,8.58,1.316,15.849,6.605,20.475
				c5.94,5.947,15.186,8.586,27.737,7.921l-4.618,7.27c-1.986,5.283-1.986,9.908,0.658,15.191
				c2.646,4.625,11.889,7.928,27.738,9.908l23.783,1.323V7.073L89.021,5.086c-7.264,7.264-10.566,13.869-9.909,20.475
				c0,3.967,2.646,7.27,6.606,9.25l17.836,3.303l62.752-3.303l22.456,0.658c7.934,1.987,11.896,3.967,11.236,6.605
				c-0.664,1.987-1.986,2.645-5.289,3.967c-2.646,1.98-5.283,4.625-5.283,7.928c-0.664,3.303,2.639,6.605,7.928,8.586l14.527,2.638
				l19.816-3.961l-0.658,3.961c-0.657,2.645,0.658,5.29,3.303,7.27c3.303,3.303,7.93,4.625,15.855,5.283
				C258.12,77.747,265.391,76.431,272.66,73.786z"/>
		</g>
	</g>
	<g>
		<g>
			<path d="M371.079,7.073c0-2.645-0.664-3.303-2.638-3.303L89.021,1.783c-0.658,0-1.98,0-1.98,0.658
				c-8.586,8.592-11.889,15.856-11.231,23.12c0.658,10.573,9.909,15.856,27.745,15.856l63.417-3.303l19.152,0.658
				c5.94,0.665,9.244,1.987,10.571,3.303l-1.985,0.665c-5.283,2.638-7.922,5.941-8.586,10.573c-0.665,2.638,0.664,5.941,2.638,7.921
				c3.969,4.625,12.555,7.264,23.12,7.264l15.854-2.638c0,3.303,0.658,6.605,3.962,9.244c3.303,2.645,9.25,5.29,16.514,5.29
				l22.462-2.645c1.322,2.645,5.289,6.605,10.566,10.566c3.967,2.645,8.592,4.631,13.211,5.29
				c-7.264,6.605-11.225,13.869-11.883,21.797l-0.664,4.625c0,7.264,2.639,13.211,7.271,17.83c5.276,5.948,13.868,9.25,25.093,9.908
				c-2.639,3.967-3.303,7.27-3.303,10.573c0,3.303,0.664,6.605,2.646,9.908c3.961,8.586,22.462,13.211,54.832,13.211
				c1.974,0,2.638-1.323,2.638-3.303L371.079,7.073L371.079,7.073z M274.635,70.483h-3.303c-6.605,3.303-13.869,3.961-21.133,3.961
				c-6.605-0.658-11.231-1.98-14.534-3.961c-1.979-2.645-2.638-4.625-0.664-6.605c0.664-1.322,0.664-2.645,0-4.625
				c-1.315-0.665-2.64-1.323-3.961-1.323l-19.158,3.961c-9.243,0-15.187-1.316-17.83-4.619l-1.321-3.303
				c0-1.987,1.979-3.303,4.625-4.625c3.303-1.979,5.283-3.967,5.946-6.604l-1.985-5.283c-2.646-2.645-7.265-4.625-15.191-5.948
				h-20.481l-62.088,3.303c-13.876,0-21.139-3.303-21.139-9.909v-0.658c0-4.625,2.645-9.909,7.928-15.856l274.129,1.987V174.85
				l-27.743-2.639c-9.908-1.987-15.856-3.967-17.173-7.27c-1.321-1.98-1.986-3.967-1.986-6.605c0-1.98,0.665-5.283,2.645-7.928
				l1.987-3.961l1.315-1.987l-0.657-1.316c-1.322-1.322-1.987-1.987-2.646-1.987c-12.553,0.665-20.475-1.974-26.422-7.921
				c-3.961-3.961-5.946-9.909-5.282-16.514c1.321-6.605,3.967-11.895,9.243-16.514l7.936-6.605l1.974-3.303
				c-0.658-1.987-2.639-2.645-3.961-2.645c-6.605,1.322-12.553-0.658-19.158-5.283l-7.264-6.605l-1.316-1.98L274.635,70.483z"/>
		</g>
	</g>
	<g>
		<g>
			<path d="M313.609,110.117c-3.96-0.658-5.947,0.658-6.605,4.619c-0.657,2.645,0.658,5.29,1.987,7.27
				c1.974,1.98,5.275,3.967,8.579,4.625c6.604,1.316,12.554-0.658,17.179-5.948c5.94-6.605,7.27-13.869,5.283-21.797
				c-2.646-6.606-8.586-9.909-19.159-11.231l-17.172,1.322c-1.315,0-1.98,1.323-1.315,1.98c0,1.987,0.657,2.645,1.975,1.987
				l17.179-0.665c8.586,0,12.546,3.303,14.533,7.27c1.314,7.264,0.658,12.547-4.625,18.488c-3.304,3.967-7.93,5.29-13.211,4.632
				c-4.626-0.665-7.271-3.967-7.271-7.935C310.965,112.762,311.629,110.775,313.609,110.117z"/>
			<path d="M322.202,107.472c1.974,0,1.974-0.658,1.974-1.98l-2.638-1.98c-3.968,0-7.271,1.98-7.929,6.605
				C316.255,108.13,318.235,107.472,322.202,107.472z"/>
		</g>
	</g>
	<g>
		<g>
			<path d="M369.099,57.93h-1.985c-11.883,9.25-23.777,11.231-36.988,4.625L312.952,48.68l-1.987-0.658l-1.314,1.322
				c-4.626,8.586-11.896,15.191-21.805,19.152l-15.186,2.645c-1.328,0-1.986,1.322-1.986,2.645l2.645,1.98l14.527-3.303
				c10.572-3.967,19.158-9.908,23.783-18.494c6.606,6.605,13.876,11.224,21.798,13.869c12.554,4.625,24.441,2.645,35.672-7.264
				V57.93z"/>
		</g>
	</g>
	<g>
		<g>
			<path d="M230.383,62.556c1.315,1.322,1.979,1.322,3.303,0.664l8.586-9.25c2.639-5.29,2.639-9.25,0.664-13.211
				c-1.986-5.29-7.271-7.263-13.875-7.263c-5.283,0-9.908,1.974-11.89,5.276c-1.985,2.645-1.985,5.948,0.658,9.25
				c0.657,1.322,1.987,1.322,3.303,0.658l0.658-2.638c-1.315-1.98-1.974-3.967-1.315-5.283c1.315-1.987,4.618-3.303,8.586-3.303
				c5.282,0,8.586,1.316,9.907,4.619c2.64,3.967,1.98,8.593-1.979,12.553l-5.947,5.29C230.383,60.575,229.725,61.233,230.383,62.556
				z"/>
		</g>
	</g>
	<g>
		<g>
			<path d="M369.099,22.258c-0.656-1.316-1.985-0.658-2.645,0.664c-13.869,16.514-27.738,25.1-42.278,25.1
				c-9.243,0-18.486-3.303-27.08-9.908l-11.889-10.566l-1.322-0.658l-1.979,1.316c-3.968,9.25-9.244,15.198-16.515,17.836
				l-15.19,1.322l-6.604-1.987c-1.988-1.316-2.646-0.658-2.646,0.665c-0.657,1.322,0,1.98,0.658,2.638l8.593,2.645l17.172-1.316
				c6.604-2.645,12.553-9.25,17.172-17.843c11.896,13.211,25.106,20.481,39.633,20.481c15.856,0,31.055-9.244,44.923-27.745
				C370.415,24.245,370.415,22.922,369.099,22.258z"/>
		</g>
	</g>
	<g>
		<g>
			<path d="M353.243,65.858c-0.658-0.665-1.98,0-2.646,1.322l-5.276,8.586c-5.289,6.605-12.554,10.573-21.805,12.547
				c-1.314,0-1.979,0.664-1.979,1.987c0,1.98,1.322,1.98,2.638,1.98c9.908-2.638,18.501-7.27,24.448-14.533l5.941-9.908
				C355.229,67.181,354.565,65.858,353.243,65.858z"/>
		</g>
	</g>
	<g>
		<g>
			<path d="M317.57,145.125c0.665,1.322,1.986,1.322,3.303,1.322l13.211-3.303c9.251-0.658,17.179,0,23.12,3.303
				c4.632,3.303,7.935,7.264,8.592,13.211c0,1.98,1.316,1.98,2.646,1.98c1.314-0.664,1.974-1.98,1.314-2.638
				c-1.314-7.27-4.618-12.553-10.565-15.856c-6.605-3.303-15.197-4.625-25.106-3.303l-14.526,3.303
				C317.57,143.145,317.57,143.803,317.57,145.125z"/>
		</g>
	</g>
</g>
<path id="PATH77" fill="none" stroke="#000000" stroke-width="3" stroke-miterlimit="100" d="M370.59,585.26H3.92V2.74h366.67
	V585.26L370.59,585.26z"/>
</svg>
