<?xml version="1.0" encoding="utf-8"?>
<!-- Generator: Adobe Illustrator 13.0.0, SVG Export Plug-In . SVG Version: 6.00 Build 14948)  -->
<!DOCTYPE svg PUBLIC "-//W3C//DTD SVG 1.1//EN" "http://www.w3.org/Graphics/SVG/1.1/DTD/svg11.dtd">
<svg version="1.1" id="圖層_1" xmlns="http://www.w3.org/2000/svg" xmlns:xlink="http://www.w3.org/1999/xlink" x="0px" y="0px"
	 width="372px" height="587px" viewBox="0 0 372 587" enable-background="new 0 0 372 587" xml:space="preserve">
<g>
	<g>
		<g>
			<path fill="#D96038" d="M261.456,22.859c6.647-7.31,7.979-13.957,5.982-20.604H6.86L4.864,211.65l30.579,0.662
				c21.273-1.324,36.561-5.985,43.208-13.957c6.648-8.647,9.971-17.949,8.644-29.251l-3.989-13.957l29.914-1.331
				c20.607-3.324,34.564-11.964,39.884-25.921c5.982-13.964,6.647-26.59,2.658-39.223l-7.313-14.626l15.953-5.316
				c9.309-5.985,11.302-15.957,6.648-29.913h27.92l40.551-3.324C248.161,32.831,255.474,28.845,261.456,22.859z"/>
		</g>
	</g>
	<g>
		<g>
			<path d="M240.187,38.816c5.982-2,11.964-4.655,17.28-7.979c4.654-3.992,8.644-7.979,11.302-12.626
				c3.324-5.985,3.324-11.971,1.993-17.288c-0.662-1.331-1.993-1.993-3.323-1.993H6.86c-2.658,0-3.324,0.663-3.324,3.324
				L1.54,211.65c0,1.993,0.666,3.324,2.662,3.324c10.634,0.662,21.271,1.324,32.572,0.662c21.936-1.992,36.562-6.647,44.537-15.288
				c6.647-7.978,9.971-16.618,9.971-26.59c0-5.316-1.328-9.971-2.658-15.288l34.568-3.323c16.619-4.654,27.917-13.295,32.572-25.928
				c3.989-8.64,5.982-16.619,5.982-25.259c0-9.971-2.658-19.273-7.975-27.92c8.641-1.324,15.288-5.317,19.277-10.633
				c2.658-3.986,3.988-7.978,3.988-13.295l-1.996-9.971L240.187,38.816z M265.445,6.903c0,3.324-0.665,5.985-2.658,8.647
				c-1.996,3.324-5.32,6.647-9.972,9.971c-3.989,3.324-9.305,5.317-13.959,6.647l-39.886,3.324h-27.92c-1.328,0-1.993,0-2.659,0.663
				l-0.666,3.324c3.324,9.309,3.324,16.618,0,21.941c-3.986,5.979-10.633,8.634-19.277,9.302c-1.993,0-2.659,0.669-3.324,1.332
				c-0.665,1.992,0,3.323,0.666,3.985l6.647,14.626c3.989,11.302,3.324,23.266-2.658,36.561
				c-5.32,11.964-17.949,19.943-37.892,23.267l-28.583,1.331c-1.331-0.662-1.996,0-3.324,0.662c0,1.331,0,2.662,0,3.323
				l3.989,13.958c1.328,10.64-1.997,18.618-7.979,25.928c-9.306,11.302-31.907,15.294-67.806,12.633L10.184,5.579H264.78
				L265.445,6.903z"/>
		</g>
	</g>
	<g>
		<g>
			<path d="M40.098,142.514l-1.997,0.662l-9.971,7.316c-7.975,5.316-15.953,7.978-22.601,6.647c-1.993,0-2.658,1.331-2.658,1.993
				c0,1.331,0.665,2.661,1.993,2.661c11.968,0,23.932-4.654,35.234-14.625c15.288,9.302,29.913,11.964,43.208,9.302
				c1.993,0,1.993-0.663,1.993-2.655c-0.666-1.331-1.993-1.331-2.659-1.331l-12.63,0.662
				C59.374,151.823,50.069,148.499,40.098,142.514z"/>
		</g>
	</g>
	<g>
		<g>
			<path d="M152.438,84.018c-1.331,0-1.993,1.331-1.993,1.993c-0.666,7.31-1.996,14.625-6.647,21.273
				c-8.644,13.295-23.266,19.942-43.874,21.936c-18.614,1.331-31.244-1.324-37.892-7.972c-3.324-3.992-4.651-9.309-3.324-15.957
				c0-3.324,2.658-6.647,5.982-7.978c-5.982-0.669-9.305,1.993-9.971,7.978c-1.328,7.31,0,13.295,3.989,18.612
				c7.313,7.978,21.273,11.302,41.215,9.302c21.936-1.325,38.554-9.971,47.198-24.59c4.651-7.979,7.309-14.625,7.309-22.604
				L152.438,84.018z"/>
			<path d="M81.975,93.989l-10.637-2.655c-3.324,0.662-5.982,1.986-6.647,5.979c1.996-1.331,3.989-1.993,6.647-1.993l8.644,1.993
				c1.993,0.668,3.989,1.993,4.651,3.992c0.666,2.655-0.662,4.648-2.659,7.31c-3.989,1.993-6.647,1.993-9.306,0
				c-0.666-1.331-1.993-1.331-2.659,0c-1.331,0.662-1.331,1.993,0,2.662l5.982,2.655l7.313-1.993
				c4.651-2.662,6.647-6.647,4.651-11.302C87.295,97.313,85.299,95.319,81.975,93.989z"/>
		</g>
	</g>
	<g>
		<g>
			<path d="M57.382,109.938l-2.662-0.662c-4.651,4.654-9.971,7.979-15.954,9.309c-11.964,3.324-22.601,0.662-31.907-7.979
				c-1.331-1.331-1.996-1.331-2.658,0c-1.331,0.669-1.331,1.331,0,1.993c10.634,10.633,22.601,13.295,35.896,9.309l17.284-9.309
				C58.709,111.938,58.709,110.607,57.382,109.938z"/>
		</g>
	</g>
	<g>
		<g>
			<path d="M113.22,8.24c-1.331-0.668-1.331,0-1.331,1.324l-5.316,22.604c-4.655,15.288-11.968,27.252-21.938,35.23
				C79.982,70.722,74,74.046,68.015,75.377c6.648,1.993,13.295,0,18.615-4.655c11.298-8.64,18.611-21.273,24.594-37.229
				c1.996-7.972,3.988-15.951,3.988-23.267L113.22,8.24z"/>
			<path d="M8.188,60.083c-0.662,0.668-0.662,1.999,0,2.662c7.979,11.301,19.281,17.949,33.237,19.28
				c7.313,1.324,13.961,0,19.281-4.655L42.09,78.701c-13.294-2-23.266-7.979-30.579-17.949L8.188,60.083z"/>
		</g>
	</g>
	<g>
		<g>
			<path d="M76.659,44.801c-0.666,2.655-3.324,4.648-6.648,6.647l-11.302,2.655c-9.306-0.668-15.288-4.655-17.284-11.964
				c-2.658-6.648-1.327-14.626,4.655-22.604l8.641-9.971c0.666-0.662,1.331-1.993,0.666-3.323c-1.328-0.662-1.993-0.662-3.324,0
				c-2.659,2.662-6.648,5.985-9.972,11.971c-5.317,8.634-7.313,17.28-5.317,25.252c3.324,8.647,10.637,13.964,21.936,13.964
				c4.654,0.668,9.306,0,13.295-2.655c4.655-2.662,6.647-5.323,8.644-8.647c1.328-3.985,1.328-7.309-0.665-10.633
				c-1.331-2.661-3.324-4.654-6.647-5.985l-9.972-0.663c-3.989,0.663-6.647,3.324-8.643,6.647c-0.662,1.324,0,2.662,0.666,3.324
				c1.331,0.662,2.658,0,2.658-1.331c3.324-5.317,7.313-7.316,13.96-4.654c1.996,1.331,3.324,2.661,4.655,4.654
				C77.986,39.479,77.986,42.14,76.659,44.801z"/>
		</g>
	</g>
	<g>
		<g>
			<path d="M86.63,65.406v10.633c1.327,7.979,5.981,12.633,14.622,15.957c7.979,3.324,15.292,1.993,21.938-3.986
				c3.324-2.662,5.317-5.985,6.647-10.64c1.993-4.654,1.993-7.978,0.666-11.964c-0.666-2.661-2.662-4.654-5.32-6.647l-8.64-1.331
				c-3.324,0.668-6.647,1.993-8.644,5.317c-2.659,2.661-3.324,6.647-2.659,11.301l1.996,1.993l1.328-1.993
				c0-3.324,1.331-6.647,2.659-8.64c1.996-2.661,3.988-3.324,5.985-3.986l5.981,0.662l3.324,4.648c1.328,2.662,1.328,5.985,0,9.309
				l-6.647,9.309c-4.655,4.648-10.636,5.317-17.949,3.324c-6.647-3.324-9.971-7.31-11.964-13.295v-7.978
				c0.666-1.993,0-2.655-1.331-3.324C87.957,64.075,86.63,64.075,86.63,65.406z"/>
		</g>
	</g>
	<g>
		<g>
			<path d="M130.503,65.406c-0.666-1.331-1.996-1.331-2.662-1.331c-1.328,1.331-1.328,1.993-1.328,3.324
				c4.651,7.316,11.964,9.971,21.936,7.978c1.331,0,1.996,0,1.331-2c0-1.324-0.666-1.324-1.996-1.324
				C139.144,73.377,133.162,70.722,130.503,65.406z"/>
		</g>
	</g>
	<g>
		<g>
			<path d="M144.46,50.111c-1.327-1.324-1.993-2.655-1.327-4.648c0-2.662,2.658-3.323,7.975-3.323
				c-6.647-2.662-11.298-2-11.964,2.661c-0.666,3.324,0,5.979,1.993,7.972c2.661,3.324,6.647,4.655,11.301,4.655l1.993-1.993
				l-1.993-2.662C149.115,54.104,146.457,52.773,144.46,50.111z"/>
			<path d="M170.388,40.14c1.993,0,1.993-0.662,1.993-1.324c0.666-2,0-2.662-1.331-2.662c-5.317-0.663-9.972,0.662-14.623,3.985
				H170.388z"/>
		</g>
	</g>
	<g>
		<g>
			<path d="M56.716,169.104c2.658,4.654,2.658,9.309,0.666,12.633c-1.996,3.324-5.985,5.316-12.633,5.316l-39.885,1.993
				c-1.328,0-2.658,1.331-2.658,2.662l2.658,1.993l39.885-2.655c7.313,0,13.294-2.662,15.957-7.316
				c2.658-5.317,2.658-10.64-0.666-16.619c-1.331-3.324-5.32-5.317-11.302-5.317c-6.647,0-11.964,2.662-13.295,7.31
				c-0.666,3.324,0,5.985,1.996,9.309c1.328,0.662,1.328,0.662,2.659,0c1.327-1.331,1.327-2,0-3.324
				c-1.331-1.331-1.997-3.324-1.331-3.986c1.331-3.324,4.655-5.323,9.971-5.323C53.393,165.78,55.386,167.11,56.716,169.104z"/>
		</g>
	</g>
	<g>
		<g>
			<path fill="#D96038" d="M312.643,58.758c-3.989,7.31-3.989,13.957,1.993,19.942c4.654,6.647,16.619,9.971,33.237,9.971
				l23.932-1.331V3.58h-90.406c-0.665,3.323-0.665,6.647-0.665,10.639c0.665,7.979,3.989,15.289,9.972,21.273
				c5.319,5.316,11.967,9.309,19.941,11.295l9.972,2L312.643,58.758z"/>
		</g>
	</g>
	<g>
		<g>
			<path d="M373.797,0.924l-1.992-0.668h-90.406c-1.993,0-3.323,1.337-3.323,2.662l-0.666,7.309
				c0,11.309,3.324,19.943,10.637,27.259c7.313,7.978,16.618,11.964,25.924,13.295c-4.651,4.654-6.647,9.971-7.31,15.95v2
				c0,4.648,1.993,8.64,5.317,12.633c9.306,10.633,29.248,13.957,59.827,9.303c1.992,0,3.323-1.331,3.323-3.324V3.58L373.797,0.924z
				 M284.058,10.896V6.903h84.423v77.115l-27.255,1.331c-12.63-1.331-20.607-3.986-23.932-7.979
				c-2.658-3.324-3.986-6.647-3.986-8.64v-1.331c0.662-3.993,1.993-7.979,5.317-11.302l3.989-4.648l1.327-2.662v-1.331
				c-0.662-1.331-1.993-1.993-3.323-1.993l-9.307-2c-7.313-1.986-13.294-5.979-18.61-10.633
				C286.719,26.846,284.058,19.536,284.058,10.896z"/>
		</g>
	</g>
	<g>
		<g>
			<path d="M342.557,57.428c1.993,3.324,0.665,7.316-3.324,10.64c-1.996,2.655-4.654,3.986-8.644,1.986
				c-2.658-1.324-3.323-2.655-3.323-4.648c1.33-2.661,2.661-3.324,5.319-2.661l2.659-1.993l-1.331-1.993l-5.982,0.662
				c-2.658,1.331-3.989,2.662-4.651,4.655c-1.331,4.654,1.327,7.979,5.316,9.971c5.317,1.331,9.972,0.669,13.961-3.324
				c4.651-4.654,5.982-9.971,3.324-15.288c-1.997-5.985-10.637-8.647-25.263-8.647c-1.328,0-1.993,0.668-1.993,2
				c0,1.324,0.665,1.993,1.993,1.993C333.913,50.78,341.226,52.773,342.557,57.428z"/>
		</g>
	</g>
	<g>
		<g>
			<path fill="#FCCE00" d="M176.37,278.124l-36.561-1.331l-23.266,6.647l189.452,196.101c14.623-3.324,23.932-7.316,29.249-12.627
				c6.647-6.647,11.302-17.956,13.96-35.236c3.324-15.956-3.989-35.23-20.608-57.165c-13.96-18.618-27.254-30.576-39.219-34.568
				C276.082,335.29,238.856,314.686,176.37,278.124z"/>
		</g>
	</g>
	<g>
		<g>
			<path fill="#FCCE00" d="M226.227,451.62c-1.996,4.654-2.659,9.309-1.996,14.626l14.626,9.303
				c9.97,7.316,15.952,11.971,18.61,15.293l10.637,15.288l7.313,13.964l-3.989,5.311c-3.324,3.992-5.317,7.316-5.317,9.972
				l7.976,1.999l13.96,1.323c4.655-10.632,7.313-19.941,6.648-28.576c-0.666-10.64-3.989-23.265-9.972-37.229
				c-9.306-19.274-19.942-29.914-32.572-31.907C238.856,438.987,230.878,442.311,226.227,451.62z"/>
		</g>
	</g>
	<g>
		<g>
			<path d="M228.885,442.311c-5.982,4.661-7.979,12.633-7.979,21.942v1.993l1.331,2.655c18.611,11.309,29.247,19.941,32.571,23.934
				c7.979,10.64,13.96,19.274,16.619,26.591c-5.317,5.979-7.976,11.302-8.641,14.625v1.325c0,1.337,0.665,1.999,1.993,2.661
				c9.306,3.985,17.284,5.323,23.932,3.324l1.993-1.325c5.319-11.308,7.978-21.279,7.313-29.914
				c0-11.308-3.989-24.604-10.637-39.222c-9.306-19.942-21.271-30.576-35.23-33.238C242.18,436.332,234.867,437.001,228.885,442.311
				z M233.539,446.972c4.651-3.324,10.633-3.992,17.945-2.661c11.968,1.992,21.939,11.964,30.58,29.914
				c5.316,13.295,8.641,25.258,9.306,35.897v1.987c0,4.661-1.993,12.633-5.982,23.267l-14.626-2.655l7.313-10.64l0.665-1.987
				l-0.665-1.337l-7.313-14.619l-11.299-15.295c-2.658-3.985-13.294-12.626-31.909-24.59
				C227.554,456.274,228.885,450.958,233.539,446.972z"/>
		</g>
	</g>
	<g>
		<g>
			<path fill="#FCCE00" d="M133.162,464.915c-3.324-8.641-6.647-14.619-9.971-18.612l8.641-27.258l-15.953-15.95l-27.255,9.972
				c-6.647,1.331-8.64,6.647-5.316,15.949c1.328,4.662,9.971,16.619,25.259,33.238l-0.665,4.66c0,3.324,0.665,5.979,1.996,8.635
				C119.867,472.225,127.842,468.901,133.162,464.915z"/>
		</g>
	</g>
	<g>
		<g>
			<path d="M118.536,401.102l-3.989-0.662l-26.59,9.303c-3.323,0.669-5.982,1.993-7.975,4.655c-0.666,1.992-1.331,4.647-1.331,7.31
				l1.331,7.979c1.328,4.653,9.971,15.949,25.259,33.236l-0.666,4.654c0,3.986,0.666,7.311,3.324,9.972
				c0.665,1.324,1.996,1.993,3.324,1.324c10.636-3.323,18.614-7.31,23.931-11.296l1.331-2.661v-1.324
				c-3.324-7.316-5.982-13.295-9.306-17.288l7.975-26.589v-0.669l-0.666-2.655L118.536,401.102z M119.867,445.635v0.668l1.328,2.655
				c2.662,3.324,5.32,7.985,7.313,13.964c-3.989,3.324-9.971,5.979-16.619,7.979l-0.665-3.324l0.665-4.654v-0.668l-0.665-2.655
				c-15.288-16.619-23.267-27.259-24.594-31.906l-1.331-5.985l0.665-3.986c0.666-0.662,1.993-1.331,2.658-1.331
				c6.647-0.668,15.291-3.992,26.589-9.303l13.295,12.627L119.867,445.635z"/>
		</g>
	</g>
	<g>
		<g>
			<path fill="#FCCE00" d="M74,256.851c-5.32,5.317-9.309,11.302-11.967,18.611c-3.324,6.648-3.324,12.632-2.659,17.281
				c0.666,5.324,3.989,9.972,9.306,11.971c1.331,11.964,5.982,24.591,12.63,37.886c1.996,19.28,8.643,37.229,19.28,53.848
				c5.982,8.641,11.299,15.288,15.954,19.942l-15.292,13.964l-7.975,9.971c-3.989,5.311-6.647,8.634-6.647,11.296l-6.647,33.237
				c-1.331,5.984-1.996,11.97-2.659,18.617l23.928-4.66c1.996-2.655,1.996-5.979,0.666-10.634l-2.658-7.309
				c1.993-2,3.989-7.979,5.316-17.281l0.666-11.971c9.306-2.662,19.277-8.641,31.245-17.942
				c19.942,15.949,43.208,25.921,69.132,29.913l43.208,3.985c5.982,1.325,11.965,5.985,19.277,15.289
				c4.654,6.646,8.644,12.625,10.637,17.948c1.993,4.648,9.306,12.633,21.273,24.591c-2.661,5.323-5.319,11.309-7.313,19.941
				l25.258,1.339l-1.327-19.943c-1.331-9.309-3.989-16.619-7.313-21.279c-1.33-2.655-1.996-7.973-0.665-15.281l3.324-10.64
				c8.641-17.287,13.96-31.245,16.618-41.879c1.993-10.632,1.331-23.928-1.33-38.56c-2.659-15.95-14.623-29.914-35.23-42.539
				c-5.981-3.324-21.936-10.641-47.863-21.937l-35.229-19.28c-14.626-9.308-27.921-15.955-39.219-19.279l-35.234-9.303
				l-24.593-5.316c-6.648-2-14.626-6.648-23.932-13.958L74,256.851z"/>
		</g>
	</g>
	<g>
		<g>
			<path d="M56.051,293.412c0.666,5.979,3.989,9.972,9.306,13.295c1.331,7.316,3.989,15.287,7.313,23.935l5.982,12.626
				c1.331,16.619,6.648,33.237,14.625,47.863c5.317,9.971,11.964,17.943,18.612,24.591l-13.295,12.632l-3.324,3.986
				c-7.313,7.984-11.298,13.963-11.964,18.618l-6.647,33.237c-1.331,5.985-1.996,11.964-2.659,18.611v0.668l1.328,1.987
				c0,0.668,1.331,1.337,2.659,1.337l23.931-4.661l1.996-1.324l1.993-7.309l-2.659-12.633c2.659-5.323,4.652-14.626,5.317-27.253
				c7.979-2.661,17.949-7.316,27.921-15.294c17.284,12.633,35.896,21.273,56.502,26.59l43.209,5.323l11.964,0.662
				c4.654,1.324,10.637,5.316,17.284,13.295c4.654,6.646,8.641,12.632,9.972,17.942c2.658,4.661,9.306,12.633,20.607,24.604
				l-4.654,11.296l-1.993,6.646v0.662c0,1.339,0.666,2.001,1.993,3.324l17.948,1.999l9.307-0.661l2.658-3.992l-1.328-19.274
				l-1.33-9.971c-1.331-5.323-3.324-9.972-6.647-13.296c-0.666-1.337-1.331-4.66,0-9.97l3.323-12.633
				c8.641-17.95,13.961-31.914,16.619-43.21c1.993-11.301,1.331-23.928-1.331-39.222c-2.658-15.288-13.295-28.582-31.24-40.547
				c-9.972-6.647-24.598-14.626-45.205-22.604l-8.64-3.324c-7.979-3.324-17.95-8.641-29.249-15.957
				c-17.949-11.957-33.238-19.273-45.204-23.266c-11.964-3.985-25.925-7.972-42.543-10.633l-17.946-3.986
				c-5.985-1.331-13.96-6.647-22.604-13.294l-11.298-9.972c-1.996-1.999-3.324-1.999-5.32,0c-4.651,4.648-7.975,9.972-11.298,16.619
				c-3.324,5.986-4.654,11.963-4.654,17.281L56.051,293.412z M62.033,291.419v-2.661c0-8.641,4.654-17.943,11.967-27.252
				c12.63,12.633,24.594,19.943,34.565,23.266l19.277,3.986c15.292,2.661,29.251,5.985,41.216,10.634
				c11.963,3.323,25.924,10.64,43.208,21.94l30.579,16.619l8.64,3.323c19.943,7.973,33.903,15.289,43.21,21.268
				c17.283,10.639,26.589,23.934,29.247,37.229l1.996,22.598c0,7.984-0.665,16.618-3.989,24.603l-13.295,31.9
				c-2.658,6.646-3.989,13.295-3.989,19.28c0,3.985,0.666,7.31,2.658,9.309c1.996,3.986,4.655,9.972,5.985,19.942l0.662,15.957
				l-17.279-0.669l5.981-15.288l0.666-1.999l-1.331-1.986c-11.302-11.309-17.949-19.28-19.942-23.936l-10.637-18.61
				c-7.976-9.972-15.288-15.295-22.602-16.619l-12.629-0.662l-41.881-5.323c-20.604-5.316-38.554-13.957-55.172-26.59l-3.989-0.662
				c-11.964,9.309-21.935,15.287-30.579,17.942c-1.328,0-2.658,0.669-2.658,2.662c-0.666,14.626-2.658,24.597-5.317,27.921
				l-0.665,1.331l0.665,1.993l2.659,10.64l-0.666,2.654l-17.284,3.323l8.643-47.2c0-2.655,3.324-7.972,9.971-15.95l3.989-3.992
				l14.623-13.957l1.331-1.993l-1.331-3.323c-4.651-3.992-9.971-9.972-15.288-18.612c-10.637-16.618-16.618-33.898-18.614-52.517
				v-1.325c-6.647-12.633-11.299-24.604-12.63-36.561l-1.993-1.999C66.022,300.06,63.363,296.735,62.033,291.419z"/>
		</g>
	</g>
	<g>
		<g>
			<path d="M129.838,424.368l-3.989,0.662c-1.331,1.331-1.331,2.662,0.665,3.985l8.641,7.316l3.989-0.669
				c0.666-1.324,0.666-2.655-0.666-3.323L129.838,424.368z"/>
		</g>
	</g>
	<g>
		<g>
			<path d="M248.161,444.311c0.665-3.986,2.658-6.648,4.654-9.972l3.989-3.323c1.993-0.662,1.993-2,1.327-3.985
				c-1.992-0.669-2.658-1.338-3.988-0.669l-4.651,4.654c-3.323,3.323-5.32,7.972-6.647,11.964
				c-1.33,6.647-0.665,13.295,2.659,19.942l6.646,9.303l3.989-0.662c1.327-1.324,1.327-1.993-0.666-3.986l-4.654-6.647
				C247.495,455.606,246.169,449.627,248.161,444.311z"/>
		</g>
	</g>
	<g>
		<g>
			<path d="M68.015,302.715c-1.993,0.669-2.658,1.337-1.993,3.324c0.665,1.337,1.993,1.999,3.324,1.337
				c5.982-1.337,9.306-7.984,12.629-19.281c1.331-7.309,1.331-14.625-0.665-21.272c-1.328-5.317-2.659-8.641-3.324-9.303
				c-1.328-1.999-1.993-1.999-3.324-0.668c-1.993,0.668-2.659,1.331-1.328,3.324l3.324,7.979c1.328,6.647,1.328,12.633,0,18.611
				C74,295.405,71.338,300.728,68.015,302.715z"/>
		</g>
	</g>
	<g>
		<g>
			<path d="M81.31,282.11h-2.659c-1.328,1.33-1.328,1.999-0.665,2.661l6.647,6.647c5.319,5.316,10.636,8.641,15.291,9.972
				c1.328,0.662,1.993,0,2.659-1.331c0.665-0.668,0-1.992-1.331-1.992l-13.957-9.31L81.31,282.11z"/>
		</g>
	</g>
	<g>
		<g>
			<path d="M76.659,296.067l-1.996-0.662c-1.328,1.33-1.993,1.999-1.328,2.662l5.316,8.64l11.302,12.626l3.324-0.662l-0.666-2.662
				l-10.636-12.625L76.659,296.067z"/>
		</g>
	</g>
	<g>
		<g>
			<path d="M152.438,306.039l-19.277-2.655c-1.996,0-2.658,1.33-2.658,3.323c0.662,1.331,1.328,2.654,2.658,1.993l17.946,1.999
				c11.302,3.324,19.943,11.957,24.597,23.928c0,1.993,1.993,1.993,3.324,1.993c1.993-0.668,1.993-2.655,1.331-3.992
				C175.705,319.333,165.734,310.031,152.438,306.039z"/>
		</g>
	</g>
	<g>
		<g>
			<path d="M163.075,320.001c0.666-2.654,0-3.992-0.665-5.978c-0.666-1.338-2.659-2.661-4.655-3.324l-5.317,0.663
				c-1.331,1.323-3.324,2.661-3.324,5.315l0.666,4.654c1.328,1.993,2.658,3.324,4.651,3.324l5.32-0.662L163.075,320.001z"/>
		</g>
	</g>
	<g>
		<g>
			<path d="M129.838,313.354c0-1.33-1.331-1.992-2.658-1.992c-1.996,0-1.996,1.323-1.996,2.661l5.982,13.956
				c6.647,9.31,17.284,15.957,31.91,20.605l3.324-1.993c1.328-1.993,0-3.324-1.331-3.324c-13.96-3.323-23.266-9.971-29.914-17.287
				C131.831,320.671,129.838,316.678,129.838,313.354z"/>
		</g>
	</g>
	<g>
		<g>
			<path d="M83.306,340.612l-3.324-0.668c-1.331,1.33-1.331,2.655-0.666,3.992c2.658,3.986,7.313,9.972,14.625,15.95
				c11.299,9.972,23.267,14.626,35.23,14.626l1.993-0.662l0.666-2c0-1.992-1.328-2.662-3.324-2.662
				c-9.971,0.67-20.607-4.647-31.907-13.294L83.306,340.612z"/>
		</g>
	</g>
	<g>
		<g>
			<path fill="#FFFFFF" d="M116.543,369.858l11.964,1.992l-5.317-20.604c-4.654-13.295-7.313-18.618-8.644-17.949
				c-4.651,2.655-5.982,9.303-5.982,19.273l2.659,15.295L116.543,369.858z"/>
		</g>
	</g>
	<g>
		<g>
			<path d="M115.878,330.642h-3.324c-7.313,4.648-8.641,17.281-3.989,37.886l1.331,1.331l5.982,3.322l13.295,1.332
				c0.665,0,1.993-0.662,1.993-1.332l0.666-1.992C124.518,345.923,119.867,332.628,115.878,330.642z M113.22,366.534l-1.331-16.619
				c0-5.979,0.666-9.971,2.658-12.626c2.662,5.311,6.647,15.95,10.637,31.899L113.22,366.534z"/>
		</g>
	</g>
	<g>
		<g>
			<path d="M101.917,480.21c-0.666-1.338-1.993-2.662-3.324-1.338l-12.629,3.323h-5.982c-1.331,0-1.996,0.67-1.996,2.662
				c0,1.331,0.665,2.662,1.996,2.662l6.647-0.662l13.294-3.324C101.917,482.865,102.583,482.195,101.917,480.21z"/>
		</g>
	</g>
	<g>
		<g>
			<path d="M301.342,523.418c-1.993-1.337-2.659,0-3.989,1.324c0,1.999,0,2.661,1.33,3.324l5.316,1.33l12.633,0.669
				c1.993-0.669,2.658-1.337,2.658-3.324c-0.665-1.999-1.331-2.661-3.323-2.661H305.33L301.342,523.418z"/>
		</g>
	</g>
	<g>
		<g>
			<path d="M169.723,275.462c0-1.993-0.666-1.993-1.997-1.993l-22.601,6.648l-10.636,4.654c-1.328,0.662-1.328,1.993-0.662,3.323
				c0.662,0.663,1.328,0.663,2.659,0.663c0-0.663,3.324-1.993,9.971-4.648c7.975-2.661,15.288-5.323,21.935-5.985L169.723,275.462z"
				/>
		</g>
	</g>
	<g>
		<g>
			<path d="M173.712,288.758l-10.637,3.323c-0.665,0.662-0.665,1.331-0.665,2.662c0,1.992,1.331,1.992,2.658,1.324l9.971-3.324
				l19.277-1.986l1.996-1.999l-1.996-1.993L173.712,288.758z"/>
		</g>
	</g>
	<g>
		<g>
			<path d="M201.629,300.06c-5.982,0.668-9.972,1.331-11.963,2.655c-0.667,0.669-1.332,0.669-0.667,1.999
				c0,1.993,0.667,1.993,1.993,1.993l11.302-3.323c8.641-1.331,15.954-1.331,22.602,0l2.658-1.993c0-1.331-1.327-1.999-1.993-1.999
				C218.913,298.067,210.935,298.067,201.629,300.06z"/>
		</g>
	</g>
	<g>
		<g>
			<path d="M224.23,312.686l-15.288,0.669c-1.331,0-1.993,0.669-1.993,1.992c0,1.331,0.662,2,1.993,1.331h13.96l22.602,0.669
				l2.657-1.338c0-1.323,0-2.654-1.992-2.654L224.23,312.686z"/>
		</g>
	</g>
	<g>
		<g>
			<path d="M251.484,329.305h-15.287c-1.33,0-1.996,0.668-1.996,1.999l1.996,1.993h15.287l25.263,1.33l1.993-1.33
				c0.665-1.331,0-1.993-0.665-1.993L251.484,329.305z"/>
		</g>
	</g>
	<g>
		<g>
			<path d="M284.723,345.261l-9.972,1.331c-1.327,0-1.993,0-1.327,1.993c0,1.33,0.662,1.33,1.993,1.33l9.306-0.668l19.276,1.999
				c1.331,0.662,1.996,0,1.996-1.331c0.665-0.668,0-1.992-0.665-2.655L284.723,345.261z"/>
		</g>
	</g>
	<g>
		<g>
			<path d="M296.024,357.231c-0.665,0-1.33,0-1.996,1.987c0,0.668,0.666,1.999,1.331,1.999l11.963,2.661
				c7.313,1.987,13.296,3.986,16.619,5.979c1.331,0.668,1.996,0.668,2.662,0c1.327-1.331,0.662-1.993-0.666-3.324
				c-3.989-1.993-9.971-3.992-17.284-6.647L296.024,357.231z"/>
		</g>
	</g>
	<g>
		<g>
			<path d="M319.29,377.836c-0.665-0.662-1.996,0-2.658,1.324c-0.665,0.668,0,1.999,1.327,1.999l7.313,4.648l13.295,9.972
				c0.665,0.668,1.993,0.668,3.324,0c0.665-1.325,0.665-2.655,0-3.324c-3.324-3.324-7.979-6.647-13.961-9.972L319.29,377.836z"/>
		</g>
	</g>
	<g>
		<g>
			<path d="M328.596,402.427c-0.665-1.325-1.33-0.662-2.658,0.668c-0.665,0.669,0,1.993,1.328,2.655
				c10.637,6.647,16.618,11.971,18.615,15.957l3.323,0.662l0.665-2.655l-11.302-10.64L328.596,402.427z"/>
		</g>
	</g>
	<g>
		<g>
			<path d="M330.589,423.706l-2.658,0.662c-0.665,1.324-0.665,1.993,0.665,2.662l5.982,5.31c3.989,3.992,7.313,8.646,9.306,13.295
				c0.666,0.668,1.331,1.337,1.997,0.668c1.992,0,1.992-1.33,1.327-2.655c-1.993-3.992-5.316-9.309-9.306-13.962L330.589,423.706z"
				/>
		</g>
	</g>
	<g>
		<g>
			<path d="M330.589,441.648c0-1.993-1.327-1.993-2.658-1.324c-1.327,0.662-1.993,1.986-0.665,2.655
				c4.654,10.64,7.313,17.949,7.313,20.611c0,1.986,0.666,2.655,1.331,2.655l2.658-1.993c0-2.662-1.331-7.31-3.323-13.295
				L330.589,441.648z"/>
		</g>
	</g>
	<g>
		<g>
			<path d="M204.287,323.325l-2.658,0.669c-0.665,0.662-0.665,1.986,0,2.655l5.982,4.654l11.302,6.647
				c0.666,1.324,1.993,1.324,2.658-0.662l-1.327-2.662l-10.637-6.647L204.287,323.325z"/>
		</g>
	</g>
	<g>
		<g>
			<path d="M202.96,337.951l-2.658,0.662c-0.666,1.331-0.666,1.331,0.662,2.661c6.647,5.317,11.302,8.641,13.96,8.641
				c0.666,0,1.331,0,1.996-1.992l-1.33-2C212.931,345.923,208.942,343.268,202.96,337.951z"/>
		</g>
	</g>
	<g>
		<g>
			<path d="M198.306,350.584c-1.328-0.669-2.659,0-2.659,0.662c0,1.993,0,2.662,0.666,2.662c1.993,0,4.651,1.986,8.641,5.979
				l2.658-0.668c1.331-0.663,1.331-1.987,0-2.655C202.96,352.57,200.302,350.584,198.306,350.584z"/>
		</g>
	</g>
	<g>
		<g>
			<path d="M191.657,363.211c-1.326-0.669-2.658-0.669-2.658,0.668c-0.665,1.324,0,2.655,0.667,2.655l8.64,3.992
				c0.665,0,1.996,0,2.658-0.668l-1.328-3.324L191.657,363.211z"/>
		</g>
	</g>
	<g>
		<g>
			<path d="M238.856,343.268c-0.666-0.668-1.993-0.668-2.659,0.669c-0.665,1.324-0.665,2.655,1.328,2.655l6.646,3.992
				c4.654,2.655,7.979,3.986,11.302,5.311c1.331,0.669,2.658,0,2.658-1.324c0.666-1.331,0-2-1.327-2.662l-11.301-5.316
				L238.856,343.268z"/>
		</g>
	</g>
	<g>
		<g>
			<path d="M239.521,357.231h-1.996c-1.328,1.324-1.328,1.987,0,2.655l5.319,3.992l6.647,3.986l2.658-1.331l-1.331-2.655
				L239.521,357.231z"/>
		</g>
	</g>
	<g>
		<g>
			<path d="M232.874,368.527c-0.666-0.662-1.331,0-1.996,1.331c-1.328,0.668-0.662,1.992,1.33,2.654l9.972,5.985h2.658
				c0.666-1.324,0.666-1.993,0-2.662l-7.313-5.31L232.874,368.527z"/>
		</g>
	</g>
	<g>
		<g>
			<path d="M230.878,379.828c-1.328-0.668-1.993-0.668-2.658,0.669c-1.328,1.324-0.666,2.655,0.665,2.655l5.982,3.992
				c1.33,0.662,2.658,0.662,2.658-0.669c0.665-0.668,0.665-1.992-0.662-2.654L230.878,379.828z"/>
		</g>
	</g>
	<g>
		<g>
			<path d="M275.417,360.556c-0.666-0.669-1.331,0-1.993,0.662c-0.666,1.993,0,2.661,1.327,2.661
				c7.313,2.655,12.63,6.647,15.292,10.634l2.658,0.661c1.327-0.661,1.993-1.323,0.665-2.661
				C290.043,367.203,284.058,363.211,275.417,360.556z"/>
		</g>
	</g>
	<g>
		<g>
			<path d="M275.417,373.181c-1.993,0-2.659,0-3.324,1.332c0,1.323,0,1.992,1.331,1.992c5.316,1.993,9.306,4.654,12.63,7.979
				c1.327,1.324,1.992,1.324,2.658,0c0.665-1.331,0.665-2,0-3.324C285.388,377.836,280.733,375.174,275.417,373.181z"/>
		</g>
	</g>
	<g>
		<g>
			<path d="M270.762,385.808h-3.323c-1.328,0.668-0.662,1.337,0.665,2.661l3.324,2.662l7.313,4.648
				c1.331,0.668,2.658,0.668,2.658-1.325l-0.665-2.661c-2.658-1.324-5.316-1.993-7.31-3.986L270.762,385.808z"/>
		</g>
	</g>
	<g>
		<g>
			<path d="M264.114,397.778c-1.327,0-1.993,0-2.658,1.324c-0.665,1.337-0.665,1.999,0.665,2.662l8.641,3.985
				c1.331,0.669,1.996,0,1.996-1.324l-0.665-1.999L264.114,397.778z"/>
		</g>
	</g>
	<g>
		<g>
			<path d="M307.988,384.483c-0.666-0.662-1.993-0.662-2.658,0c-0.666,1.324-0.666,1.992,0,3.323l3.988,5.317l7.976,9.971
				c0,1.331,1.331,1.993,1.996,0.669c1.993,0,1.993-0.669,1.328-2.662l-7.976-11.302L307.988,384.483z"/>
		</g>
	</g>
	<g>
		<g>
			<path d="M302.007,403.095c-1.331,0-2.658,0-3.324,0.669c-0.665,1.324,0,1.986,0.666,2.655l3.323,2.655l5.981,5.323
				c0,1.324,0.665,1.992,2.658,0.662c0.666-0.662,0.666-1.993,0.666-2.662l-6.647-6.647L302.007,403.095z"/>
		</g>
	</g>
	<g>
		<g>
			<path d="M295.359,416.39c-0.665,0-1.331,0-2.658,0.669c0,1.986,0,2.655,1.327,2.655l7.979,4.654c1.331,0,2.657,0,2.657-1.33
				c0.666-0.669,0.666-1.993-0.665-2.655L295.359,416.39z"/>
		</g>
	</g>
	<g>
		<g>
			<path d="M354.521,297.404c-20.607-27.927-45.202-49.194-72.456-65.15c-27.256-15.288-57.834-26.59-91.072-33.237l-41.877-5.317
				c-1.331,0-2.658,1.331-2.658,2.655c0,2,1.327,2.662,2.658,2.662l40.551,5.323c32.571,5.979,62.484,17.281,89.739,32.569
				c26.59,14.625,50.521,36.561,71.127,63.151c9.97,13.964,16.617,26.59,21.272,37.229c1.33,1.986,1.992,2.655,3.988,1.324
				c1.328-0.662,2.659-1.993,1.328-3.323C371.805,323.994,365.156,311.362,354.521,297.404z"/>
		</g>
	</g>
	<g>
		<g>
			<path fill="#D96038" d="M115.878,200.348c0.666,3.992,1.993,6.647,3.323,7.316l13.96,1.324
				c5.982-0.662,11.299-2.662,15.953-6.647l3.989-5.985l-5.32-4.648c-5.316-3.324-10.633-3.985-16.619-3.324
				c-7.31,0.662-11.299,1.993-13.295,4.648C115.878,195.031,115.212,197.024,115.878,200.348z"/>
		</g>
	</g>
	<g>
		<g>
			<path d="M117.209,208.988c2.658,2.662,7.975,3.323,15.953,2.662c7.313-0.662,12.629-3.324,17.946-7.31l4.654-6.647v-2.662
				c-1.331-2.661-3.324-3.985-6.647-5.985c-5.981-3.324-11.302-3.985-18.611-3.324c-7.313,1.331-11.967,2.662-15.292,5.324
				c-1.992,2.655-1.992,5.31-1.992,9.302C113.22,205.002,115.212,207.664,117.209,208.988z M118.536,198.355
				c0-3.986,3.989-6.648,12.629-7.31c7.313-0.669,13.96,0.662,18.615,5.979c-2.658,5.317-8.643,8.641-16.619,9.971l-12.629-1.993
				l-1.996-4.655V198.355z"/>
		</g>
	</g>
	<g>
		<g>
			<path d="M176.37,182.398l-3.989,0.662c-0.666,2-0.666,2.661,0.666,3.992l19.941,15.288l3.324-0.662c1.327-0.663,1.327-2,0-3.324
				L176.37,182.398z"/>
		</g>
	</g>
	<g>
		<g>
			<path fill="#D96038" d="M152.438,156.471c-2.658,0-4.654,1.337-6.647,3.992c-2.658,3.324-3.323,5.317-3.323,7.979
				c0.666,2.661,3.323,6.647,9.306,10.633c4.654,3.986,9.971,5.985,15.953,5.985h7.313l-0.665-7.979
				c-1.993-5.316-4.651-9.971-9.306-14.625C159.086,158.47,155.097,155.808,152.438,156.471z"/>
		</g>
	</g>
	<g>
		<g>
			<path d="M166.399,160.463c-5.32-4.655-10.637-6.647-13.96-6.647s-6.647,1.331-9.305,5.316c-2.659,3.324-3.989,6.647-3.324,9.309
				c1.328,3.986,4.651,7.972,9.971,13.295c5.317,3.985,11.299,6.647,17.946,6.647l7.978-1.331l1.993-1.993
				C179.028,175.751,175.039,167.779,166.399,160.463z M145.791,167.11c0-1.993,0-3.324,1.993-4.654
				c1.331-1.993,3.324-3.324,4.654-3.324c2.659,0,5.982,2,10.637,5.985c5.982,3.986,8.641,9.972,9.306,17.281
				c-6.647,1.331-13.295-0.662-19.277-5.317C148.45,172.427,145.791,169.104,145.791,167.11z"/>
		</g>
	</g>
	<g>
		<g>
			<path d="M218.913,187.722l-3.323-0.669c-1.331,1.331-1.331,2.655,0,3.993l19.942,25.921h3.989c1.327-1.331,1.327-2.655,0-3.323
				L218.913,187.722z"/>
		</g>
	</g>
	<g>
		<g>
			<path fill="#D96038" d="M200.964,157.139c-1.993,0-4.651,0-7.311,2.655c-2.661,1.999-4.654,3.992-4.654,6.647
				c0,2.662,1.993,7.316,6.647,12.633c3.324,4.655,8.641,7.978,13.961,9.309l7.975,0.662l0.666-7.309
				c0-5.323-2.658-11.302-5.982-15.957C207.611,160.463,204.287,157.139,200.964,157.139z"/>
		</g>
	</g>
	<g>
		<g>
			<path d="M201.629,154.484c-2.658-0.668-5.982,0.662-9.306,3.324c-3.989,2.655-5.982,5.979-5.982,8.634
				c0,3.992,2.658,8.647,6.647,13.964c4.651,5.316,9.306,9.302,15.954,11.301h8.64l1.997-1.331c2.658-8.64,1.327-17.949-5.32-26.59
				C209.607,158.47,205.618,155.146,201.629,154.484z M195.646,161.793l5.317-1.999c1.996,0.668,4.654,2.662,8.644,7.316
				c3.989,5.317,5.982,10.64,5.982,15.288l-0.666,4.654c-6.647,0-12.63-3.323-17.284-9.971c-3.323-4.654-5.316-7.978-5.316-9.971
				S192.988,163.787,195.646,161.793z"/>
		</g>
	</g>
	<g>
		<g>
			<path d="M273.424,232.254c1.993-0.662,1.993-1.993,1.327-3.986l-12.63-21.942c0-1.324-1.33-1.986-3.323-1.324
				c-1.331,0.662-1.993,1.993-0.666,3.986l11.303,22.604C270.762,232.917,272.093,233.585,273.424,232.254z"/>
		</g>
	</g>
	<g>
		<g>
			<path fill="#D96038" d="M262.121,200.348c1.331-5.317,0-11.302-2.658-16.618c-3.323-6.648-6.647-9.972-9.306-11.302
				c-1.996-0.662-4.653,0-7.978,1.331c-2.658,1.993-4.654,3.324-4.654,5.979c-1.328,2.662,0.665,7.316,3.323,13.964
				c4.655,8.641,11.302,13.295,19.28,13.964L262.121,200.348z"/>
		</g>
	</g>
	<g>
		<g>
			<path d="M262.121,182.398c-3.323-6.647-6.647-10.633-10.637-11.964c-2.658-1.331-5.98-0.668-9.97,1.331
				c-3.989,1.993-5.982,4.648-6.647,7.31c-0.666,3.986,0.665,9.309,3.989,15.956c2.658,5.985,7.313,9.972,13.294,13.295l7.313,1.993
				l2.658-1.331C267.438,201.016,266.776,191.707,262.121,182.398z M242.845,192.37c-1.996-4.648-3.323-8.64-3.323-10.633
				c0-2,1.327-3.324,4.65-5.323l5.32-1.324c2.658,1.324,4.651,3.986,7.975,9.971l2.662,11.964l-1.331,7.979
				C252.15,203.671,246.834,199.017,242.845,192.37z"/>
		</g>
	</g>
	<g>
		<g>
			<path d="M203.625,202.341c-0.665-1.325-1.996-1.993-3.989-0.662l-21.938,10.633c-1.993,1.332-1.993,2.662-1.328,3.986
				c1.328,1.337,1.993,1.999,3.324,0.668l22.6-10.64C204.287,205.002,204.953,204.34,203.625,202.341z"/>
		</g>
	</g>
	<g>
		<g>
			<path fill="#D96038" d="M143.133,223.614c-0.666,1.331-0.666,4.654,1.327,7.316c1.331,3.324,3.324,5.31,5.32,5.979
				c2.658,1.331,7.313,0,13.295-3.324c5.982-2.655,9.972-6.647,12.629-11.964l3.324-6.647l-7.313-2.662
				c-5.982-0.662-11.964-0.662-17.284,2.662C148.45,217.635,144.46,220.29,143.133,223.614z"/>
		</g>
	</g>
	<g>
		<g>
			<path d="M141.137,221.621c-1.328,3.324-1.328,6.647,0.665,10.634c1.331,3.324,3.989,5.985,7.313,6.647l15.954-2.662
				c9.306-4.647,14.625-11.295,16.619-21.266l-1.993-2.662l-7.313-2.662c-6.647-1.324-12.63-0.662-19.277,2
				C146.457,214.974,142.468,218.297,141.137,221.621z M145.791,225.607c0-2.662,3.324-5.317,9.971-8.641l19.942-0.668
				c-1.993,7.316-6.647,11.97-13.294,15.294l-11.302,2.661l-4.651-3.992L145.791,225.607z"/>
		</g>
	</g>
	<g>
		<g>
			<path d="M244.838,214.974l-3.323-1.331l-22.602,11.301c-1.993,1.325-2.658,1.993-1.331,3.324
				c0.666,1.993,1.331,2.662,3.324,1.993l22.604-11.302C245.504,218.297,245.504,216.966,244.838,214.974z"/>
		</g>
	</g>
	<g>
		<g>
			<path fill="#D96038" d="M185.01,235.578c-1.327,2.662-0.665,4.654,0.666,7.979c0.665,3.323,2.658,4.654,5.316,5.316l13.961-2.661
				c5.319-2.655,9.971-6.648,12.629-11.295l1.997-7.31l-7.313-2.662c-5.316-1.331-10.637,0-16.619,1.993
				C188.999,230.261,185.676,232.917,185.01,235.578z"/>
		</g>
	</g>
	<g>
		<g>
			<path d="M221.571,224.944l-8.641-2.661c-5.981-1.324-11.967-0.663-17.949,2.661c-6.647,2.662-10.636,5.985-12.629,9.972
				c-1.331,2.661-0.665,5.985,0.665,9.971c1.993,3.985,4.653,6.647,7.314,6.647c3.985,1.325,8.64,0,15.287-3.324
				c9.972-3.985,15.953-11.302,16.619-19.942L221.571,224.944z M186.341,238.24c0-2.662,3.325-5.985,9.971-8.647l19.942-0.662
				c-0.665,6.647-5.32,11.302-13.295,14.626l-11.303,3.323l-3.987-4.655L186.341,238.24z"/>
		</g>
	</g>
	<g>
		<g>
			<path d="M283.395,233.585c-0.665-1.993-1.33-1.993-3.323-1.993l-24.598,7.971c-1.33,0.669-1.33,2-1.33,3.324l3.323,2
				l23.932-7.979C282.729,236.909,284.058,234.916,283.395,233.585z"/>
		</g>
	</g>
	<g>
		<g>
			<path fill="#D96038" d="M220.906,244.887c-1.327,1.993-1.327,4.648,0,8.64c0.665,3.324,1.996,4.654,3.989,5.979l13.961-1.325
				c6.647-1.331,10.636-4.654,14.624-9.309l3.324-6.647l-5.985-3.985h-17.945C226.227,240.232,222.237,242.225,220.906,244.887z"/>
		</g>
	</g>
	<g>
		<g>
			<path d="M259.463,242.887l-0.665-2.655c-1.993-1.993-4.654-3.324-7.313-3.993l-19.276-0.662
				c-6.647,2.662-11.302,4.654-13.295,7.979c-1.993,2.655-2.658,5.979-0.665,9.971c0.665,4.654,3.323,7.316,5.982,8.641
				l15.291-0.663C250.157,258.182,256.805,251.534,259.463,242.887z M234.201,240.901c7.313-2.662,13.96-2,19.279,2.655
				c-2.661,5.979-7.977,9.971-15.29,11.964l-11.964,1.331c-1.331,0-1.996-1.993-3.324-4.655l-0.665-3.324
				C222.237,245.549,226.227,243.557,234.201,240.901z"/>
		</g>
	</g>
	<g>
		<g>
			<path fill="#858585" d="M286.054,288.095c7.975-0.662,13.295-4.654,18.61-10.632l5.32-9.31l-7.978-6.648
				c-5.982-4.654-13.295-6.647-19.942-5.985c-7.313,1.331-13.961,4.654-19.943,11.302l-6.647,9.303l9.307,7.315
				C272.093,287.433,278.74,289.42,286.054,288.095z"/>
		</g>
	</g>
	<g>
		<g>
			<path d="M311.978,266.822l-7.979-8.641c-7.309-4.654-14.622-6.647-22.601-5.323c-7.975,1.337-15.288,5.323-20.607,11.971
				l-7.976,9.971c0,1.325,0,1.993,0.665,3.324l9.307,7.31c7.975,4.655,15.953,6.647,23.932,5.323
				c7.976-0.668,14.623-4.66,19.941-11.309l5.317-10.633V266.822z M307.322,268.815c-4.65,9.971-11.298,15.956-21.269,16.618
				c-9.972,1.999-18.615-1.993-27.256-9.971c6.647-10.633,14.626-15.956,23.267-17.281
				C292.035,256.851,300.676,260.175,307.322,268.815z"/>
		</g>
	</g>
	<g>
		<g>
			<path d="M325.938,265.492c-0.665-1.993-1.331-1.993-3.323-1.993l-13.296,1.993l-1.33,1.331l-0.666,1.993
				c0.666,1.331,1.331,2.662,3.324,2l13.295-2.662L325.938,265.492z"/>
		</g>
	</g>
	<g>
		<g>
			<path fill="#858585" d="M292.035,304.714l6.647,8.641c6.647,6.646,13.295,9.971,20.607,10.64
				c7.313,0.662,13.961-1.338,19.942-6.647l7.313-7.315l-5.32-9.304c-5.316-5.984-11.964-9.309-19.277-9.971
				c-7.313-0.668-14.626,1.986-21.272,6.647C296.69,300.06,294.028,302.715,292.035,304.714z"/>
		</g>
	</g>
	<g>
		<g>
			<path d="M299.349,294.743c-4.654,3.324-7.979,5.984-9.306,8.641c-0.666,0.668-0.666,1.33-0.666,2.655l7.976,9.97
				c6.646,6.647,13.959,9.972,21.272,10.641c8.641,0.668,15.953-1.993,22.601-6.648l7.313-9.302l0.665-1.999l-6.647-9.309
				c-5.32-6.648-11.968-10.634-20.608-11.297C314.636,287.433,306.66,290.089,299.349,294.743z M295.359,304.714
				c8.64-7.979,17.283-11.971,26.589-11.302c5.982,0.669,11.303,3.323,15.954,7.315l5.981,8.634
				c-5.981,8.648-14.622,12.633-24.594,11.971C309.984,320.001,302.007,314.686,295.359,304.714z"/>
		</g>
	</g>
	<g>
		<g>
			<path d="M347.208,306.707c-1.993,0-2.658,0.669-3.324,2.654c0,2.001,1.331,3.324,2.662,3.324l13.956,0.669
				c1.332,0,2.663-1.33,2.663-3.323c0-1.331-1.331-2.655-2.663-2.655L347.208,306.707z"/>
		</g>
	</g>
	<g>
		<g>
			<path fill="#858585" d="M331.92,336.62l2.658,11.303c2.658,8.641,7.313,14.619,13.961,18.611
				c5.981,3.324,13.295,4.654,20.606,3.324c3.989-1.331,7.313-2.655,9.972-3.992l-1.331-10.634
				c-1.993-7.973-5.981-13.295-12.63-17.281c-5.98-3.986-13.294-4.654-21.935-3.986L331.92,336.62z"/>
		</g>
	</g>
	<g>
		<g>
			<path d="M380.445,353.908c-1.993-7.985-6.648-13.964-13.296-17.956c-7.309-4.648-15.287-5.979-23.928-4.648l-11.967,3.323
				c-0.666,0-1.993,1.325-1.993,2.662l2.658,12.626c3.324,7.979,7.979,13.964,15.288,18.612c6.647,4.653,13.96,5.323,22.604,3.985
				l10.634-4.647l1.33-1.999L380.445,353.908z M363.826,339.944c7.979,5.316,12.633,13.295,12.633,23.935
				c-9.31,5.31-17.949,5.31-27.255,0c-8.644-5.323-13.295-13.964-13.96-25.266C345.881,333.965,355.187,334.627,363.826,339.944z"/>
		</g>
	</g>
	<g>
		<g>
			<path d="M380.445,363.211c-1.993-0.669-2.659,0-3.324,0.668c-1.328,1.987-0.662,3.324,0.665,3.986l11.968,6.647
				c1.328,1.323,2.658,0.661,3.986-1.332c0.665-1.33,0-2.654-1.993-3.322L380.445,363.211z"/>
		</g>
	</g>
	<g>
		<g>
			<path d="M188.334,504.8c0-1.325-1.993-1.993-3.324-1.325c-1.993,0-1.993,1.325-1.993,3.324l21.27,42.54
				c20.608,30.582,47.863,53.179,80.436,67.143c1.331,0.662,3.323,0,3.323-1.337c0.666-1.986,0.666-2.655-1.327-3.986
				c-31.91-13.294-57.834-34.561-77.776-64.474L188.334,504.8z"/>
		</g>
	</g>
	<g>
		<g>
			<path fill="#D96038" d="M179.028,492.835c-3.324,1.331-5.316,3.324-5.981,5.317c-0.666,2.661,0,7.31,2.658,13.957
				c3.324,5.323,6.647,9.972,11.965,12.633l7.312,1.999l2.658-6.647c0.666-5.985,0-11.309-2.658-16.619
				c-2.658-6.647-5.982-10.64-8.64-11.308L179.028,492.835z"/>
		</g>
	</g>
	<g>
		<g>
			<path d="M187.006,489.512l-9.308,0.669c-3.324,1.986-5.982,3.324-6.647,6.646c-1.993,3.986-0.663,9.303,2.661,16.619
				c4.651,9.972,11.298,15.282,20.604,16.619l2.661-1.337l2.658-7.973c1.328-6.647,0.666-12.633-1.996-18.618
				C194.316,494.828,190.992,490.181,187.006,489.512z M179.694,495.49l5.982-1.324c1.994,1.324,3.99,4.648,6.647,9.972
				c1.993,3.323,3.323,6.647,3.323,10.633l-2.658,9.31c-6.647-1.999-11.301-6.647-14.625-13.295
				c-1.993-3.986-2.658-7.311-2.658-10.634v-1.337C176.37,497.489,177.698,496.159,179.694,495.49z"/>
		</g>
	</g>
	<g>
		<g>
			<path d="M192.323,547.347c-1.992-0.662-3.324,0-3.324,1.992c-0.665,1.33-0.665,2.655,0.667,3.323l23.931,9.303l3.985-1.986
				l-1.992-3.324L192.323,547.347z"/>
		</g>
	</g>
	<g>
		<g>
			<path fill="#D96038" d="M161.079,530.065c-1.993,0.662-3.986,2.655-5.317,5.979c-0.665,3.324-1.331,5.979,0,7.979
				c1.331,2.662,5.317,5.985,11.302,7.972l17.281,1.338c3.325-0.67,4.654-1.338,6.647-3.324l-2.658-6.647
				c-2.658-4.662-7.313-8.646-13.295-11.309C169.058,530.065,164.403,528.729,161.079,530.065z"/>
		</g>
	</g>
	<g>
		<g>
			<path d="M153.104,535.376c-1.331,3.322-1.331,6.646,0,9.97c1.993,3.324,5.982,6.648,12.63,8.647l19.276,1.993l7.313-3.992
				l1.33-1.986c-1.33-9.309-7.977-15.957-17.949-19.942c-6.647-3.324-11.302-3.324-15.288-2.662
				C157.755,528.729,155.097,530.728,153.104,535.376z M168.392,549.339c-7.313-2.654-10.637-5.979-10.637-8.64l0.666-3.986
				c0.666-1.999,1.996-3.324,3.989-3.992c1.993-0.669,5.982-0.669,11.964,1.993c7.313,2.661,11.302,7.978,13.96,13.956
				L168.392,549.339z"/>
		</g>
	</g>
	<g>
		<g>
			<path fill="#858585" d="M244.172,510.122l-9.971,5.311c-6.647,5.323-11.299,11.971-12.63,18.618
				c-1.992,7.972,0,14.619,3.989,21.267l6.647,7.984c3.324-0.668,6.648-2.661,9.972-4.66c6.646-4.648,9.971-9.972,11.964-17.942
				c1.33-6.648,0.665-13.958-3.324-21.942L244.172,510.122z"/>
		</g>
	</g>
	<g>
		<g>
			<path d="M245.504,507.461l-2.659-0.662l-10.637,6.647c-6.647,5.311-11.302,12.627-13.295,19.942
				c-1.331,8.634,0,15.95,3.989,23.266c3.324,4.648,5.982,7.31,7.976,8.635l1.996,0.668c3.989-0.668,7.313-2.655,11.298-5.316
				c6.647-4.654,11.302-10.633,12.633-18.618c1.993-7.972,0.662-15.949-3.989-23.928L245.504,507.461z M224.23,540.036v-4.66
				c1.996-9.972,7.978-17.281,18.614-21.93c5.981,6.647,9.306,13.957,9.306,21.93l-0.666,5.323
				c-1.327,5.985-3.989,10.632-9.305,14.618c-2.658,1.999-5.982,3.992-9.306,4.661C226.892,555.317,224.23,548.67,224.23,540.036z"
				/>
		</g>
	</g>
	<g>
		<g>
			<path d="M232.874,560.641c-1.331,0-2.658,0.662-3.324,2.661l-1.996,13.296c0,1.986,0.666,2.654,1.996,2.654l3.324-1.992
				l2.658-13.296C235.532,561.965,234.867,560.641,232.874,560.641z"/>
		</g>
	</g>
	<g>
		<g>
			<path d="M363.165,223.614c-25.929-13.964-49.195-35.23-70.464-63.151c-14.626-21.935-31.91-39.884-50.521-56.503l-23.267-18.611
				c-1.993-0.662-3.323,0-3.989,1.325c-0.665,1.999-0.665,2.661,0.666,3.992l23.267,17.949
				c18.61,15.288,35.229,33.899,49.855,54.504c21.935,29.251,45.866,51.193,71.79,65.813c13.295,7.309,25.263,11.302,35.234,13.294
				c1.993,0,2.658-0.662,2.658-1.993c0.665-1.993,0-3.324-1.993-3.324C387.093,235.578,376.459,231.592,363.165,223.614z"/>
		</g>
	</g>
	<g>
		<g>
			<path fill="#D96038" d="M191.657,72.054c-1.991,3.323-2.658,5.316-1.991,7.971c1.326,2.662,4.65,5.985,9.97,9.309
				c8.641,5.985,16.619,5.985,24.595,2.662l-1.993-7.31c-2.658-5.985-6.647-9.971-11.303-12.632
				c-5.981-3.986-10.633-5.324-13.295-4.655C194.981,67.399,192.988,69.392,191.657,72.054z"/>
		</g>
	</g>
	<g>
		<g>
			<path d="M196.978,64.075c-2.661,0.668-5.32,3.324-7.979,6.647c-1.993,3.324-2.658,6.647-1.993,9.303
				c1.328,3.993,4.651,7.316,11.3,11.971c9.971,5.317,17.949,6.647,26.59,1.993l1.331-1.993c0-9.971-4.655-16.619-13.961-22.604
				C205.618,65.406,200.964,64.075,196.978,64.075z M193.653,74.046c1.328-2.655,2.659-3.992,4.652-4.654
				c1.996,0,5.981,1.331,10.637,4.654c6.647,3.324,10.637,8.641,11.964,15.951c-5.982,2.661-12.63,1.999-19.277-2.655
				c-5.982-3.324-9.306-6.647-9.306-8.641v-0.662L193.653,74.046z"/>
		</g>
	</g>
	<g>
		<g>
			<path d="M228.22,113.262c-1.993-0.662-2.659,0.668-2.659,2c0,1.993,0,3.324,2.659,3.324l24.596,1.993
				c1.993,0,2.658-0.668,2.658-1.993c0.666-2.662,0-3.324-1.993-3.324L228.22,113.262z"/>
		</g>
	</g>
	<g>
		<g>
			<path fill="#D96038" d="M193.653,105.291c-1.33,0.662-2.661,3.324-3.322,6.647c-0.665,3.324,0,5.985,1.992,7.31
				c1.993,2.662,6.647,4.655,13.295,4.655c6.647,1.331,11.964,0,16.619-3.324l5.982-4.655l-4.652-5.317
				c-4.654-4.654-9.309-6.647-15.956-7.316L193.653,105.291z"/>
		</g>
	</g>
	<g>
		<g>
			<path d="M187.67,111.938c0,3.986,0.664,7.31,2.661,9.971c2.657,2.662,7.975,3.986,15.287,5.316
				c10.637,0.669,19.277-1.993,24.598-9.971l0.662-2.655l-5.317-5.985c-4.654-4.655-10.637-7.31-17.284-7.979l-15.953,1.993
				C189.666,103.959,188.334,107.283,187.67,111.938z M192.988,111.938c0-2.662,1.328-3.986,2.658-4.655l11.965-1.331
				c7.979,1.331,13.96,3.986,17.284,9.309c-5.316,5.317-11.965,6.647-19.277,6.647c-7.979-1.331-12.63-3.324-12.63-7.979V111.938z"
				/>
		</g>
	</g>
	<g>
		<g>
			<path d="M282.064,146.5c0-1.324-0.666-2.655-2.659-2.655l-34.567,0.669c-2.658,0-2.658,0.662-2.658,2.655
				c0,1.331,0.665,2.655,2.658,2.655l34.567-0.662C281.398,149.161,282.064,148.499,282.064,146.5z"/>
		</g>
	</g>
	<g>
		<g>
			<path fill="#D96038" d="M208.942,139.852c-1.331,1.337-1.993,3.992-2.659,7.316c0,3.324,1.328,5.316,2.659,7.316
				c2.658,1.986,6.647,2.655,13.96,3.324c5.982,0,11.965-2,16.619-5.323l5.316-5.316l-5.316-5.317
				c-4.654-3.324-9.972-5.323-16.619-5.323S211.601,137.197,208.942,139.852z"/>
		</g>
	</g>
	<g>
		<g>
			<path d="M207.611,156.471c3.323,1.999,7.979,3.992,15.291,3.992c11.299,0,19.277-3.992,23.932-11.964v-2.662
				c-4.654-7.972-12.633-11.964-23.932-11.964c-7.313,0-11.968,1.331-15.291,3.324c-1.993,1.993-3.324,5.317-3.324,9.972
				C204.287,151.823,205.618,154.484,207.611,156.471z M211.601,141.852c1.33-2,5.981-2.662,11.302-2.662
				c8.641,0,14.623,2.662,18.612,7.979c-3.989,5.316-9.972,7.978-18.612,7.978l-11.968-2.662c-1.327-0.662-1.992-2.662-1.992-5.316
				C209.607,143.844,210.272,142.514,211.601,141.852z"/>
		</g>
	</g>
	<g>
		<g>
			<path d="M284.058,175.089c-1.993-0.662-2.659,0-3.324,1.993c0,1.331,0.665,2.655,1.996,3.324l24.593,4.654
				c1.331,0,3.324,0,3.324-2c0-1.986-0.662-2.655-1.993-2.655L284.058,175.089z"/>
		</g>
	</g>
	<g>
		<g>
			<path fill="#D96038" d="M283.395,177.082l-3.989-5.979c-3.988-4.661-8.644-7.316-14.625-9.309
				c-6.648-1.331-11.965-1.331-13.961,0c-1.993,1.325-3.324,3.324-4.65,7.31c-0.665,3.324-0.665,5.985,1.326,7.978
				c1.331,1.993,5.32,3.993,11.968,5.317l17.946-0.662L283.395,177.082z"/>
		</g>
	</g>
	<g>
		<g>
			<path d="M285.388,176.413l-3.989-7.31c-3.989-4.648-9.306-7.31-15.953-9.309c-7.313-1.325-12.63-1.325-15.953,0
				c-3.323,1.999-4.654,3.992-5.981,8.647c-1.331,3.986-0.666,7.31,1.327,9.971c2.657,3.324,7.313,5.317,13.96,6.647
				c10.637,2.662,19.942,0.662,26.59-5.985V176.413z M252.15,164.455l11.964,0.662c7.313,1.325,11.968,5.317,15.957,11.964
				c-5.32,3.324-11.968,4.655-19.28,3.324c-8.641-1.993-11.965-4.655-11.965-7.979v-3.324
				C249.492,167.11,250.819,165.117,252.15,164.455z"/>
		</g>
	</g>
	<g>
		<g>
			<path d="M258.798,125.233c1.331,0,1.993-1.331,1.993-3.324l-5.982-24.597c0-1.993-1.993-1.993-3.324-1.993
				c-1.992,0.662-2.658,1.993-1.992,3.324l5.981,24.59C255.474,125.233,256.805,125.233,258.798,125.233z"/>
		</g>
	</g>
	<g>
		<g>
			<path fill="#D96038" d="M256.14,91.996c2.658-5.323,2.658-11.302,1.992-17.281c-1.992-6.647-3.988-10.64-5.981-12.633
				l-7.979-1.331c-3.323,1.331-5.981,2.655-6.646,4.654c-1.993,2.662-1.993,7.31,0,13.957c1.331,5.985,3.989,11.302,7.979,14.626
				l6.646,3.992L256.14,91.996z"/>
		</g>
	</g>
	<g>
		<g>
			<path d="M234.867,64.075c-1.993,3.324-1.993,8.64,0,15.288c1.33,6.647,3.989,12.633,9.305,16.619l7.313,4.654l2.659-0.668
				c6.647-6.647,8.644-15.281,6.647-25.921c-1.993-6.647-4.651-11.964-7.311-14.625l-9.97-0.662
				C238.856,59.42,236.197,60.751,234.867,64.075z M238.856,70.722c0-1.993,0.665-4.654,1.992-5.316l3.989-1.331h5.981
				c1.331,1.331,3.324,5.316,4.654,11.302v5.317c0,5.979-0.665,9.971-3.989,13.963c-5.98-2.662-9.97-7.984-11.963-15.957
				L238.856,70.722z"/>
		</g>
	</g>
	<g>
		<g>
			<path d="M285.388,119.248c-1.993-0.662-3.323,0-3.323,2l-5.317,24.59c-0.665,2,0.662,2.662,1.993,3.324l3.324-1.993l5.316-25.259
				C287.381,120.579,286.719,119.248,285.388,119.248z"/>
		</g>
	</g>
	<g>
		<g>
			<path fill="#D96038" d="M299.349,88.672c-0.666-1.331-3.324-3.324-6.647-3.986l-7.979,0.662
				c-2.658,1.993-3.989,6.647-5.982,13.295c-1.331,5.985-0.665,11.964,1.993,16.619l3.989,6.647l5.982-3.986
				c4.654-3.993,7.313-8.647,8.644-15.294C301.342,95.981,301.342,91.996,299.349,88.672z"/>
		</g>
	</g>
	<g>
		<g>
			<path d="M301.342,87.341c-1.993-2.655-3.989-3.993-8.641-5.317l-9.972,1.993c-2.658,1.993-4.654,6.647-6.647,13.963
				c-1.331,6.647-0.665,12.626,1.993,18.605l3.989,7.316h3.323c8.641-2.655,13.961-9.972,16.619-19.943
				C303.999,95.981,303.338,90.665,301.342,87.341z M292.035,87.341c2.659,0.668,3.989,1.331,4.655,2.655l1.327,4.661l-1.327,7.31
				c-1.331,7.972-5.32,13.295-11.303,16.619c-3.323-3.986-4.654-8.647-4.654-13.295l0.665-6.647
				c1.331-5.985,3.324-9.309,4.655-10.633L292.035,87.341z"/>
		</g>
	</g>
	<g>
		<g>
			<path d="M313.97,161.132l-2.658-2.662c-2.658,0-2.658,0.663-2.658,2.662v25.252c0,1.999,0.665,2.661,2.658,2.661
				c1.331,0,2.658-0.662,2.658-2.661V161.132z"/>
		</g>
	</g>
	<g>
		<g>
			<path fill="#D96038" d="M318.625,125.896c-1.331-1.993-3.324-2.662-7.313-2.662c-3.323,0-5.981,0.669-7.313,2
				c-1.992,2.662-2.657,7.31-3.323,13.957c0,6.647,1.331,11.971,5.319,16.618l5.316,5.324l5.32-5.324
				c3.323-3.985,5.316-9.971,5.316-16.618S321.283,128.557,318.625,125.896z"/>
		</g>
	</g>
	<g>
		<g>
			<path d="M298.018,139.19c0,7.31,1.996,13.295,5.981,17.949l5.319,6.647h3.324l5.982-6.647c3.323-4.654,5.981-10.64,5.981-17.949
				c0-7.31-1.327-11.964-3.323-15.288c-2.658-1.993-5.982-3.324-9.972-3.324s-7.313,1.331-9.305,3.324
				C299.349,127.226,298.683,131.88,298.018,139.19z M319.29,139.19c0,7.979-2.658,13.957-7.979,18.618
				c-5.316-3.992-7.974-9.971-7.974-18.618c0.661-5.317,1.326-9.971,2.657-11.964c1.327-0.668,2.658-1.33,5.316-1.33
				s4.655,0.662,5.982,1.33C318.625,129.219,319.29,133.205,319.29,139.19L319.29,139.19z"/>
		</g>
	</g>
	<g>
		<g>
			<path fill="#858585" d="M271.428,212.312l7.313,7.979c6.647,5.317,13.295,7.978,20.608,8.641c7.974,0,14.621-2.662,19.941-8.641
				l6.647-7.979l-6.647-8.64c-5.32-5.316-11.968-7.978-19.941-7.978c-7.313,0-13.961,2.662-20.608,7.978L271.428,212.312z"/>
		</g>
	</g>
	<g>
		<g>
			<path d="M299.349,193.032c-7.313,0-14.626,2.662-21.939,8.647l-8.641,8.64c-0.665,1.331-0.665,1.993,0,3.324l8.641,8.64
				c7.313,5.985,14.626,9.309,21.939,9.309c8.64,0,15.287-3.324,21.935-8.647l7.313-9.302v-2.655l-7.313-9.309
				C314.636,195.693,307.988,193.032,299.349,193.032z M299.349,226.269c-8.644-0.662-17.284-4.648-24.598-13.958
				c6.647-9.309,15.292-13.957,24.598-13.957c9.305,0,17.283,4.648,23.266,13.957C316.632,221.621,308.653,226.269,299.349,226.269z
				"/>
		</g>
	</g>
	<g>
		<g>
			<path d="M341.892,211.65c0-2-0.666-2.662-2.659-2.662l-13.295,0.662c-1.331,0-2.658,0.669-2.658,2.662
				c0,1.332,1.327,2.662,2.658,2.662h13.295C341.226,214.312,341.892,213.643,341.892,211.65z"/>
		</g>
	</g>
	<g>
		<g>
			<path fill="#858585" d="M318.625,253.527l9.971,6.647c7.313,3.324,15.288,4.655,21.937,2.655
				c7.313-1.325,13.294-5.979,17.283-12.626l3.989-9.971c-1.331-1.993-4.655-4.654-7.979-6.647
				c-6.646-3.324-13.294-4.654-21.27-3.324c-6.647,1.993-13.295,6.647-17.95,13.295L318.625,253.527z"/>
		</g>
	</g>
	<g>
		<g>
			<path d="M365.156,231.592c-7.977-4.655-15.287-5.323-23.265-3.324c-7.313,1.993-13.961,6.648-19.943,13.295l-5.981,10.633
				l1.327,3.324l9.972,6.647c7.979,3.985,16.618,4.654,23.932,2.662c7.313-1.331,13.959-5.985,18.614-13.295l5.316-10.633
				l-1.331-2.662L365.156,231.592z M343.222,233.585c9.972-2.655,18.612,0,25.924,7.979c-2.658,9.971-9.305,16.618-19.276,18.611
				c-9.309,1.993-18.614,0-27.921-7.979C327.266,241.563,333.913,235.578,343.222,233.585z"/>
		</g>
	</g>
	<g>
		<g>
			<path d="M387.758,235.578c-0.665-1.325-1.328-1.993-3.324-1.325l-12.629,3.986c-1.993,0-2.659,1.324-1.993,3.324
				c0,1.993,1.327,1.993,3.323,1.324l12.63-3.985C387.093,238.902,388.423,237.577,387.758,235.578z"/>
		</g>
	</g>
	<g>
		<g>
			<path fill="#858585" d="M346.546,147.168l-8.644,7.978c-5.982,5.985-8.641,13.295-9.307,19.942
				c0,7.972,2.659,14.619,7.979,20.604l8.641,6.647l7.979-6.647c5.316-5.317,8.641-11.964,8.641-19.28
				c0.664-7.31-1.993-14.62-7.313-21.267L346.546,147.168z"/>
		</g>
	</g>
	<g>
		<g>
			<path d="M347.873,145.175c-0.665-1.331-1.992-1.331-2.658,0l-9.971,8.641c-5.982,6.647-8.641,13.294-9.307,21.273
				c0,8.641,2.658,15.288,8.641,21.935c3.324,3.324,5.982,5.979,9.306,7.979h1.997l9.306-7.31c6.647-5.985,9.305-12.632,9.97-20.611
				c0-8.64-2.658-15.95-7.977-23.266L347.873,145.175z M359.841,175.751v0.662c-0.665,9.971-5.985,17.287-14.626,22.604
				l-7.979-6.647c-3.323-5.317-5.316-10.633-5.316-15.957v-0.662c0-9.971,4.654-17.943,13.961-25.259
				C355.187,157.808,359.841,165.78,359.841,175.751z"/>
		</g>
	</g>
	<g>
		<g>
			<path d="M347.873,201.679l-3.323-2c-1.993,0-2.658,0.668-2.658,2.662v13.294c0,1.331,1.33,2.662,3.323,2.662
				c1.331,0,2.658-1.331,2.658-2.662V201.679z"/>
		</g>
	</g>
	<g>
		<g>
			<path d="M28.796,456.274c0-1.993-1.328-1.993-3.324-1.993c-1.328,1.325-1.328,1.993-1.328,3.324l9.305,19.942
				c7.975,15.957,17.285,30.575,27.917,44.533c33.903,43.208,75.119,69.798,123.643,79.769l3.324-1.986
				c0-1.338-0.664-3.323-2.658-3.323c-47.198-9.972-87.083-35.899-120.32-77.783c-9.971-13.295-19.942-27.915-27.255-43.208
				L28.796,456.274z"/>
		</g>
	</g>
	<g>
		<g>
			<path fill="#D96038" d="M13.508,427.692c-3.324,1.993-5.32,3.323-5.982,5.315c-0.666,3.324,0,7.316,3.324,13.964
				c1.993,5.979,5.982,9.972,11.299,12.627l6.647,3.323l2.658-7.315c1.331-5.979,0.666-11.296-1.327-16.619
				c-2.658-6.647-5.32-9.972-8.644-11.957L13.508,427.692z"/>
		</g>
	</g>
	<g>
		<g>
			<path d="M4.864,435.663c0,3.992,0.666,7.316,3.324,11.971c3.989,10.634,11.302,15.957,20.608,17.943l2.658-1.986
				c4.655-7.316,5.32-16.619,0.666-26.59c-3.323-6.647-6.647-10.64-9.971-12.633l-9.972,1.324c-3.324,1.338-5.317,3.323-6.647,5.985
				L4.864,435.663z M12.842,446.303c-1.331-3.992-2.658-7.315-2.658-10.64l0.665-1.985l3.986-3.324l5.32-0.668
				c1.993,0.668,4.651,3.992,7.313,9.97l2.658,9.972l-2.658,9.972C20.821,457.605,15.5,452.951,12.842,446.303z"/>
		</g>
	</g>
	<g>
		<g>
			<path d="M26.803,488.181c-1.331-1.323-2.658-0.661-3.324,1.331c-0.666,1.33,0,3.323,1.328,3.323l23.266,9.972
				c1.996,0.668,3.324,0,3.324-1.993c0.666-1.331,0.666-1.999-1.328-3.324L26.803,488.181z"/>
		</g>
	</g>
	<g>
		<g>
			<path fill="#D96038" d="M23.479,483.533c-3.324-4.661-7.979-9.309-13.295-11.309c-6.648-2.655-11.302-3.323-13.96-2.655
				c-1.993,0.669-3.989,2.655-5.316,5.979c-1.331,3.323-1.996,5.985-0.666,7.984c1.328,2.655,5.317,5.979,11.298,8.634l17.284,1.338
				l6.648-3.324L23.479,483.533z"/>
		</g>
	</g>
	<g>
		<g>
			<path d="M25.472,482.195c-3.324-5.979-7.976-9.302-14.623-12.626c-6.647-2.655-11.967-3.323-15.956-1.993
				c-3.324,1.325-4.651,3.324-6.647,6.648c-1.328,4.647-1.328,7.971,0,10.633c1.331,3.323,5.985,5.984,12.633,9.309l26.59-1.331
				l1.328-2.654L25.472,482.195z M22.148,489.512c-5.317,3.323-11.964,3.323-19.943,0c-6.647-3.323-9.971-6.646-9.971-9.302
				l1.331-3.993l3.324-3.992c1.993-1.324,6.647,0,11.964,2.662C15.5,477.548,20.821,482.865,22.148,489.512z"/>
		</g>
	</g>
	<g>
		<g>
			<path d="M53.393,478.872c-1.331-0.662-1.996,0.669-2.658,2l-0.666,25.258c0,1.331,1.328,2.655,3.324,2.655l1.993-1.986
				l0.665-25.927C56.716,479.541,55.386,478.872,53.393,478.872z"/>
		</g>
	</g>
	<g>
		<g>
			<path fill="#D96038" d="M62.033,446.303c-1.327-1.992-3.324-3.323-6.647-3.323c-3.989,0-6.648,0.668-7.976,2.655
				c-1.996,1.999-3.324,6.647-3.989,13.295c0,6.647,1.993,11.971,5.316,17.287l4.655,4.655l5.316-4.655
				c3.989-4.654,5.982-9.971,6.647-16.618C65.356,452.951,64.691,448.296,62.033,446.303z"/>
		</g>
	</g>
	<g>
		<g>
			<path d="M64.029,443.647c-1.996-1.999-5.32-3.323-8.643-3.323c-4.651,0-7.976,1.324-9.972,3.323
				c-2.658,2.655-3.989,7.973-3.989,15.282c-0.662,7.316,0.666,13.295,4.655,17.956l5.982,5.979l2.658,0.668
				c8.643-4.661,12.632-12.633,13.294-23.935v-1.993C68.015,450.958,66.687,446.303,64.029,443.647z M49.403,446.972
				c0.666-0.669,2.659-1.337,5.317-0.669l5.32,0.669c1.993,2.655,1.993,5.979,1.993,10.634v1.993c0,7.315-2.659,13.295-8.64,17.949
				c-4.655-4.654-6.647-9.972-6.647-17.281v-0.668C46.745,452.951,48.073,449.627,49.403,446.972z"/>
		</g>
	</g>
	<g>
		<g>
			<path d="M81.31,516.771c0-2.662-1.328-3.324-2.659-2.662c-1.993,0-3.324,1.324-2.658,2.662l3.324,25.252
				c0.666,1.338,1.331,2,2.658,2c2.659,0,3.324-0.662,2.659-2.661L81.31,516.771z"/>
		</g>
	</g>
	<g>
		<g>
			<path fill="#D96038" d="M81.975,480.21c-1.993-1.338-3.989-1.338-7.975-1.338c-3.324,0.669-5.32,1.338-7.313,3.323
				c-1.331,2.662-1.996,7.316-1.331,13.964c1.331,6.647,3.324,11.302,7.313,15.95l5.982,4.661l4.655-5.985
				c3.324-5.323,3.989-10.634,3.324-17.28C85.299,486.857,83.972,482.865,81.975,480.21z"/>
		</g>
	</g>
	<g>
		<g>
			<path d="M83.306,478.21l-9.971-1.993c-3.324,0.669-6.648,1.993-7.979,3.993c-1.993,2.655-3.324,5.979-3.324,9.971l0.666,6.646
				c0.665,6.647,3.989,12.627,7.978,17.281l6.647,4.648h2.659l5.317-6.647c3.323-5.311,4.654-11.958,3.323-18.604
				C87.957,486.188,85.964,480.21,83.306,478.21z M69.346,483.533l5.317-1.999l5.32,1.331c1.993,0.668,3.324,4.654,3.324,11.301
				l0.666,3.323c0,6.648-1.997,11.965-5.985,15.957c-5.982-4.661-9.306-9.972-9.972-17.287v-5.979
				C68.015,487.52,68.68,485.519,69.346,483.533z"/>
		</g>
	</g>
	<g>
		<g>
			<path d="M50.069,527.403c-1.996,0-3.324,1.325-3.324,2.662c0,1.986,0.665,3.323,2.658,3.323l25.259,3.324
				c1.331,0,1.996-0.669,2.661-2.662c0.663-1.999-0.665-2.661-1.996-3.323L50.069,527.403z"/>
		</g>
	</g>
	<g>
		<g>
			<path fill="#D96038" d="M15.5,517.433c-1.328,1.324-2.658,3.323-3.324,7.31c0,3.986,0,5.985,1.331,7.31
				c1.993,2.662,6.647,4.661,13.295,5.323c6.647,1.323,11.964,0,16.619-1.999l6.647-5.311l-4.655-5.985
				c-3.989-3.986-9.306-6.647-15.288-7.31L15.5,517.433z"/>
		</g>
	</g>
	<g>
		<g>
			<path d="M52.062,529.396l-5.317-6.647c-3.989-4.654-9.972-7.316-16.619-8.641l-15.291,1.324
				c-2.659,1.338-4.651,4.661-5.317,8.647c-0.666,4.648,0,7.972,2.658,9.971c1.996,3.324,6.647,5.317,14.626,5.985
				c9.971,1.986,18.611-1.338,25.259-7.984V529.396z M17.497,520.094l11.965-0.668c8.64,1.33,13.96,4.654,17.284,10.64
				c-6.647,3.985-12.63,5.979-19.277,5.311c-8.644-1.987-12.633-3.986-12.633-7.973v-1.999
				C15.5,522.081,16.166,520.756,17.497,520.094z"/>
		</g>
	</g>
	<g>
		<g>
			<path d="M104.576,559.979c0-2.662-1.328-3.324-2.658-2.662l-25.259,2.662c-1.331,0-2.659,0.662-1.996,2.655
				c0,1.33,0.665,2.655,2.661,2.655l24.594-3.324C104.576,561.965,105.241,561.303,104.576,559.979z"/>
		</g>
	</g>
	<g>
		<g>
			<path fill="#D96038" d="M41.425,557.979c-1.993,1.331-2.658,3.986-2.658,7.311c0.666,3.323,1.996,5.985,3.324,7.315l14.626,1.993
				c5.982-0.662,11.298-2.661,15.288-6.647l4.655-5.985l-5.32-4.648c-4.651-2.661-10.633-3.984-16.618-3.984
				C47.41,553.993,43.421,555.317,41.425,557.979z"/>
		</g>
	</g>
	<g>
		<g>
			<path d="M78.651,560.641l-5.982-5.323c-5.317-3.323-11.302-4.648-17.949-4.648c-7.975,1.325-12.63,2.663-15.288,5.317
				c-2.659,1.992-3.324,5.316-2.659,9.303c0,4.66,1.993,7.984,3.989,9.971l15.954,2c6.647-0.662,11.964-3.324,17.284-7.311
				l5.317-6.647L78.651,560.641z M42.09,563.302c0-3.992,3.989-6.647,12.63-6.647c7.313-1.337,13.96,0.662,18.615,5.979
				c-3.324,5.979-9.972,8.641-17.284,9.303l-11.964-1.324c-1.331-0.663-1.996-2.662-1.996-5.323V563.302z"/>
		</g>
	</g>
	<g>
		<g>
			<path d="M115.878,545.346c-0.666-1.985-1.331-1.985-2.658-1.985c-1.996,0-2.659,1.323-2.659,3.324l3.986,24.59
				c0.665,1.999,1.997,2.661,3.324,1.999c1.996,0,1.996-1.337,1.996-2.661L115.878,545.346z"/>
		</g>
	</g>
	<g>
		<g>
			<path fill="#D96038" d="M115.212,510.122l-7.312-1.337c-3.324,0-5.982,1.337-6.648,3.324c-1.993,2.661-2.658,7.316-1.328,13.964
				c0.666,5.979,3.324,11.302,7.313,15.949l5.982,3.993l4.651-5.979c2.662-4.66,3.989-10.64,2.662-16.618
				C119.867,516.771,117.871,512.109,115.212,510.122z"/>
		</g>
	</g>
	<g>
		<g>
			<path d="M123.19,522.749c-1.331-7.316-3.324-12.627-5.32-14.626c-2.659-1.993-5.982-2.661-9.971-2.661
				c-4.652,1.337-7.976,2.661-9.306,5.323c-1.993,3.323-1.993,8.641-1.328,15.956c1.328,10.634,6.647,17.942,14.623,21.929
				l3.323-0.662C121.86,542.022,125.184,533.389,123.19,522.749z M113.885,512.109c1.327,1.337,2.659,5.323,3.986,11.309
				l0.666,3.985c0,5.985-1.993,11.295-5.316,15.288c-5.982-2.655-9.972-8.641-11.302-17.287v-5.979c0-3.324,0.666-5.979,1.996-6.648
				c1.328-0.668,2.659-1.33,4.651-1.992C111.224,510.785,113.22,510.785,113.885,512.109z"/>
		</g>
	</g>
	<g>
		<g>
			<path fill="#858585" d="M72.004,603.188l9.971,5.31l22.601,1.338c6.648-1.338,11.968-6.647,15.957-13.295l3.986-9.972
				c-2.658-1.999-4.651-3.992-8.64-5.985c-7.313-3.323-13.96-3.985-21.273-1.999c-6.647,1.999-12.629,6.647-17.946,14.632
				C74.663,596.54,72.669,599.863,72.004,603.188z"/>
		</g>
	</g>
	<g>
		<g>
			<path d="M105.241,613.158c7.313-2.662,13.295-7.985,17.949-14.633c1.993-5.31,3.324-8.633,3.324-11.295v-1.999
				c-1.331-1.986-4.654-4.648-9.971-6.647c-7.313-3.986-15.292-5.311-23.267-2.655c-7.313,2.655-13.294,7.316-17.949,14.626
				c-3.324,3.986-5.317,7.971-5.982,11.295l0.665,3.323l11.299,5.985C89.288,614.482,97.266,615.145,105.241,613.158z
				 M121.86,587.893c-3.324,10.633-9.971,17.28-18.612,19.942c-8.644,2.661-17.949,0.662-27.92-5.985
				c3.989-11.295,10.637-17.942,19.942-20.604C104.576,578.584,113.22,580.583,121.86,587.893z"/>
		</g>
	</g>
	<g>
		<g>
			<path d="M139.81,581.907c-0.666-1.986-1.997-1.986-3.324-1.986l-13.295,3.986c-1.331,1.324-1.996,2.661-1.331,3.985
				c0,2,1.331,2,3.324,2l13.295-4.661C139.81,584.569,139.81,583.245,139.81,581.907z"/>
		</g>
	</g>
	<g>
		<g>
			<path fill="#858585" d="M143.798,522.081l-7.313,9.309c-4.655,7.309-5.982,14.626-4.655,21.942
				c0.666,7.309,4.655,13.294,10.637,18.604l9.306,4.661l7.313-7.985c4.654-5.979,6.647-13.295,5.316-19.942
				c-1.328-7.971-5.316-14.619-11.299-19.941L143.798,522.081z"/>
		</g>
	</g>
	<g>
		<g>
			<path d="M134.489,530.065c-4.651,7.31-6.647,15.28-5.982,23.267c1.331,8.633,5.982,15.28,12.63,19.941
				c3.323,3.324,6.647,5.311,9.971,5.979l1.996-0.668l8.641-7.972c4.654-7.311,6.647-14.626,5.32-22.604
				c-1.331-7.972-5.32-14.619-11.967-21.267c-3.989-3.323-7.313-5.985-9.972-6.647h-3.323L134.489,530.065z M134.489,553.332
				l-0.662-4.662c0-7.309,3.324-15.281,10.633-23.266c9.971,5.985,15.291,13.294,17.284,23.266l0.666,3.992
				c0,7.979-3.989,14.626-10.637,20.611C141.137,569.949,135.155,562.634,134.489,553.332z"/>
		</g>
	</g>
	<g>
		<g>
			<path d="M154.432,576.598c0-2-1.328-2.662-2.658-2.662c-2.659,0-2.659,1.324-2.659,3.324l2.659,13.295l0.665,1.324l2.659,0.669
				c1.331,0,1.996-0.669,1.331-2.655L154.432,576.598z"/>
		</g>
	</g>
</g>
<path id="PATH77" fill="none" stroke="#000000" stroke-width="3" stroke-miterlimit="100" d="M370.59,585.26H3.92V2.74h366.67
	V585.26L370.59,585.26z"/>
</svg>
