<?xml version="1.0" encoding="utf-8"?>
<!-- Generator: Adobe Illustrator 13.0.0, SVG Export Plug-In . SVG Version: 6.00 Build 14948)  -->
<!DOCTYPE svg PUBLIC "-//W3C//DTD SVG 1.1//EN" "http://www.w3.org/Graphics/SVG/1.1/DTD/svg11.dtd">
<svg version="1.1" id="圖層_1" xmlns="http://www.w3.org/2000/svg" xmlns:xlink="http://www.w3.org/1999/xlink" x="0px" y="0px"
	 width="372px" height="587px" viewBox="0 0 372 587" enable-background="new 0 0 372 587" xml:space="preserve">
<g>
	<g>
		<g>
			<path fill="#333333" d="M47.121,397.564c0-3.494-2.101-4.896-5.591-4.896c-2.789,0-4.188,1.402-4.188,4.896
				c0,3.49,1.398,5.578,4.188,5.578C45.021,403.145,47.121,401.057,47.121,397.564z"/>
		</g>
	</g>
	<g>
		<g>
			<path fill="#333333" d="M62.479,413.617c0-2.789-1.392-4.883-4.883-4.883c-3.491,0-5.592,2.094-5.592,4.883l2.101,4.193
				c0.695,0.703,2.093,1.397,3.491,1.397l3.492-1.397L62.479,413.617z"/>
		</g>
	</g>
	<g>
		<g>
			<path fill="#333333" d="M47.817,361.947c0-3.492-2.093-4.891-4.883-4.891c-3.492,0-4.896,1.397-4.896,4.891
				c0,3.49,1.404,4.889,4.896,4.889C45.724,366.836,47.817,365.438,47.817,361.947z"/>
		</g>
	</g>
	<g>
		<g>
			<path fill="#333333" d="M32.459,414.318c0-3.49-2.1-5.584-4.896-5.584c-3.492,0-5.578,2.094-5.578,5.584
				c0,3.492,2.086,4.891,5.578,4.891C30.359,419.209,32.459,417.811,32.459,414.318z"/>
		</g>
	</g>
	<g>
		<g>
			<path fill="#333333" d="M84.13,392.668c0-3.491-1.398-5.579-4.889-5.579c-2.796,0-4.883,2.088-4.883,5.579
				c0,3.492,2.087,4.896,4.883,4.896C82.732,397.564,84.13,396.16,84.13,392.668z"/>
		</g>
	</g>
	<g>
		<g>
			<path fill="#333333" d="M61.783,462.498c0-2.79-2.094-4.882-5.585-4.882c-3.491,0-4.89,2.092-4.89,4.882l1.398,4.193l3.492,1.398
				l3.492-1.398L61.783,462.498z"/>
		</g>
	</g>
	<g>
		<g>
			<path fill="#333333" d="M37.342,446.445c0-3.491-2.093-5.594-5.585-5.594c-2.789,0-4.889,2.103-4.889,5.594
				c0,2.79,2.1,4.188,4.889,4.188C35.249,450.633,37.342,449.235,37.342,446.445z"/>
		</g>
	</g>
	<g>
		<g>
			<path fill="#333333" d="M32.459,490.43c0-2.788-2.1-4.883-4.896-4.883c-3.492,0-5.578,2.095-5.578,4.883
				c0,3.49,2.086,5.594,5.578,5.594C30.359,496.022,32.459,493.92,32.459,490.43z"/>
		</g>
	</g>
	<g>
		<g>
			<path fill="#333333" d="M51.308,488.345c0-3.493-2.093-4.896-5.584-4.896c-3.491,0-4.89,1.403-4.89,4.896l1.398,3.49
				c1.397,1.39,2.789,2.085,3.492,2.085C49.215,493.92,51.308,491.835,51.308,488.345z"/>
		</g>
	</g>
	<g>
		<g>
			<path fill="#333333" d="M70.866,435.972c0-3.493-1.404-4.896-4.896-4.896c-1.391,0-2.79,0.703-3.491,1.403
				c-0.696,1.394-1.392,2.089-1.392,3.493c0,3.49,1.392,5.578,4.883,5.578C69.462,441.55,70.866,439.462,70.866,435.972z"/>
		</g>
	</g>
	<g>
		<g>
			<path fill="#333333" d="M28.968,349.379c0-3.492-1.405-4.891-4.896-4.891c-3.491,0-5.578,1.398-5.578,4.891
				c0,3.491,2.086,5.585,5.578,5.585C27.563,354.964,28.968,352.87,28.968,349.379z"/>
		</g>
	</g>
	<g>
		<g>
			<path fill="#333333" d="M47.121,429.684c0-3.49-2.101-4.89-5.591-4.89c-3.492,0-4.883,1.398-4.883,4.89
				c0,3.49,1.392,4.884,4.883,4.884C45.021,434.566,47.121,433.174,47.121,429.684z"/>
		</g>
	</g>
	<g>
		<g>
			<path fill="#333333" d="M27.563,467.396l-0.695-3.492l-4.188-1.404c-2.796,0-4.89,1.404-4.89,4.896
				c0,3.49,2.094,5.577,4.89,5.577C26.172,472.973,27.563,470.886,27.563,467.396z"/>
		</g>
	</g>
	<g>
		<g>
			<path fill="#333333" d="M66.672,373.123l-1.397-3.491l-4.188-1.405c-1.398,0-2.1,0.705-3.492,1.405
				c-1.398,0.695-1.398,2.087-1.398,3.491c0,2.79,1.398,4.883,4.89,4.883C64.579,378.006,66.672,375.913,66.672,373.123z"/>
		</g>
	</g>
	<g>
		<g>
			<path fill="#333333" d="M37.342,327.031c0-3.491-2.093-5.586-5.585-5.586c-2.789,0-4.889,2.095-4.889,5.586
				c0,3.492,2.1,4.89,4.889,4.89C35.249,331.921,37.342,330.523,37.342,327.031z"/>
		</g>
	</g>
	<g>
		<g>
			<path fill="#333333" d="M32.459,379.404c0-3.491-2.1-5.586-4.896-5.586c-3.492,0-5.578,2.095-5.578,5.586
				c0,3.49,2.086,4.89,5.578,4.89C30.359,384.294,32.459,382.896,32.459,379.404z"/>
		</g>
	</g>
	<g>
		<g>
			<path fill="#333333" d="M39.442,519.768l-1.404-3.491c-0.696-0.702-2.087-1.404-3.492-1.404c-3.491,0-5.578,1.404-5.578,4.896
				c0,3.49,2.087,4.882,5.578,4.882C38.038,524.648,39.442,523.258,39.442,519.768z"/>
		</g>
	</g>
	<g>
		<g>
			<path fill="#333333" d="M28.968,552.581l-1.405-3.49c-1.391-0.695-2.79-1.393-4.187-1.393c-1.391,0-2.796,0.695-3.492,1.393
				c-1.391,1.396-1.391,2.795-1.391,3.49c0,3.491,1.391,4.89,4.882,4.89S28.968,556.072,28.968,552.581z"/>
		</g>
	</g>
	<g>
		<g>
			<path fill="#333333" d="M315.968,28.16c0-3.492-1.397-4.89-4.188-4.89c-1.405,0-2.796,0-3.491,1.398l-2.102,3.492
				c0,3.491,2.102,4.883,5.593,4.883C314.569,33.043,315.968,31.651,315.968,28.16z"/>
		</g>
	</g>
	<g>
		<g>
			<path fill="#333333" d="M339.713,47.711c0-3.492-2.102-5.585-4.896-5.585c-3.492,0-5.579,2.094-5.579,5.585
				c0,3.491,2.087,4.889,5.579,4.889C337.611,52.601,339.713,51.202,339.713,47.711z"/>
		</g>
	</g>
	<g>
		<g>
			<path fill="#333333" d="M350.188,28.16l-0.703-3.492l-4.192-1.398c-1.393,0-2.088,0-3.492,1.398
				c-1.391,0.695-2.086,2.093-2.086,3.492c0,3.491,2.086,4.883,5.578,4.883C348.782,33.043,350.188,31.651,350.188,28.16z"/>
		</g>
	</g>
	<g>
		<g>
			<path fill="#333333" d="M333.425,19.779c0-3.492-1.396-5.585-4.89-5.585c-3.491,0-5.586,2.093-5.586,5.585
				c0,3.491,2.095,4.889,5.586,4.889C332.027,24.668,333.425,23.271,333.425,19.779z"/>
		</g>
	</g>
	<g>
		<g>
			<path fill="#333333" d="M346.695,89.609c0-3.491-1.404-5.585-4.896-5.585s-5.579,2.094-5.579,5.585
				c0,3.491,2.087,4.889,5.579,4.889S346.695,93.101,346.695,89.609z"/>
		</g>
	</g>
	<g>
		<g>
			<path fill="#333333" d="M327.833,140.584c0-2.796-2.087-4.188-5.579-4.188c-2.795,0-4.194,1.391-4.194,4.188
				c0,3.491,1.399,5.592,4.194,5.592l4.188-1.405L327.833,140.584z"/>
		</g>
	</g>
	<g>
		<g>
			<path fill="#333333" d="M325.044,96.592c0-3.492-2.095-5.585-5.585-5.585c-0.695,0-2.101,0.695-3.491,2.093l-1.397,3.492
				c0,3.492,1.397,4.89,4.89,4.89C322.949,101.482,325.044,100.084,325.044,96.592z"/>
		</g>
	</g>
	<g>
		<g>
			<path fill="#333333" d="M315.271,117.542c0-2.789-1.403-4.89-4.896-4.89c-3.491,0-5.578,2.101-5.578,4.89l2.087,4.194
				l3.491,1.391C313.867,123.126,315.271,121.033,315.271,117.542z"/>
		</g>
	</g>
	<g>
		<g>
			<path fill="#333333" d="M344.594,140.584l-1.391-3.492c-0.702-0.696-2.795-1.391-3.49-1.391c-3.493,0-4.896,1.391-4.896,4.883
				c0,3.491,1.402,4.889,4.896,4.889C343.203,145.473,344.594,144.075,344.594,140.584z"/>
		</g>
	</g>
	<g>
		<g>
			<path fill="#333333" d="M339.713,109.161c0-3.491-2.102-4.883-4.896-4.883c-2.087,0-2.789,0.696-3.492,1.392l-2.087,3.491
				c0,3.491,2.087,4.889,5.579,4.889C337.611,114.05,339.713,112.652,339.713,109.161z"/>
		</g>
	</g>
	<g>
		<g>
			<path fill="#333333" d="M350.188,199.244l-1.404-3.492c-1.392-1.397-2.087-1.397-3.491-1.397c-3.492,0-5.578,1.397-5.578,4.889
				c0,2.796,2.086,4.882,5.578,4.882C348.782,204.126,350.188,202.04,350.188,199.244z"/>
		</g>
	</g>
	<g>
		<g>
			<path fill="#333333" d="M322.254,169.914c0-3.492-1.404-5.585-4.194-5.585c-2.092,0-2.788,1.392-3.489,2.093l-2.095,3.492
				l2.095,3.492c0.701,1.398,1.397,1.398,3.489,1.398C320.85,174.804,322.254,173.405,322.254,169.914z"/>
		</g>
	</g>
	<g>
		<g>
			<path fill="#333333" d="M359.959,222.287l-2.093-3.492l-3.492-2.093c-1.397,0-2.101,1.391-3.492,2.093
				c-0.694,0.702-1.397,2.094-1.397,3.492l1.397,3.492c1.393,1.397,2.095,1.397,3.492,1.397l3.492-1.397L359.959,222.287z"/>
		</g>
	</g>
	<g>
		<g>
			<path fill="#333333" d="M308.984,146.871l-0.695-3.491l-4.195-1.397c-2.788,0-4.889,1.397-4.889,4.889s2.101,5.586,4.889,5.586
				l4.195-2.094L308.984,146.871z"/>
		</g>
	</g>
	<g>
		<g>
			<path fill="#333333" d="M357.866,116.144c0-3.492-1.399-4.883-4.891-4.883c-3.492,0-5.585,1.391-5.585,4.883
				c0,3.491,2.093,5.592,5.585,5.592C356.467,121.735,357.866,119.635,357.866,116.144z"/>
		</g>
	</g>
	<g>
		<g>
			<path fill="#333333" d="M357.169,52.601c0-3.491-1.403-5.592-4.896-5.592c-3.491,0-5.578,2.101-5.578,5.592
				c0,2.796,2.087,4.187,5.578,4.187C355.766,56.788,357.169,55.397,357.169,52.601z"/>
		</g>
	</g>
	<g>
		<g>
			<path fill="#333333" d="M357.866,73.549c0-3.491-1.399-4.889-4.891-4.889c-3.492,0-5.585,1.397-5.585,4.889
				c0,3.492,2.093,4.883,5.585,4.883C356.467,78.433,357.866,77.041,357.866,73.549z"/>
		</g>
	</g>
	<g>
		<g>
			<path fill="#333333" d="M305.493,91.703c0-2.795-1.399-4.187-4.891-4.187s-5.585,1.392-5.585,4.187
				c0,3.492,2.094,5.592,5.585,5.592C304.094,97.294,305.493,95.195,305.493,91.703z"/>
		</g>
	</g>
	<g>
		<g>
			<path fill="#333333" d="M329.237,195.752c0-3.492-2.101-4.89-4.896-4.89c-2.088,0-2.789,0.703-3.492,1.398l-2.086,3.492
				l2.086,4.187c0.703,1.398,1.404,1.398,3.492,1.398C327.138,201.338,329.237,199.244,329.237,195.752z"/>
		</g>
	</g>
	<g>
		<g>
			<path fill="#333333" d="M355.766,166.422c0-3.491-2.088-4.889-5.579-4.889c-3.49,0-4.896,1.398-4.896,4.889l1.404,3.492
				c1.392,1.398,2.788,1.398,3.49,1.398C353.678,171.312,355.766,169.914,355.766,166.422z"/>
		</g>
	</g>
	<g>
		<g>
			<path fill="#D96038" d="M312.476,267.676l14.662-15.364c7.68-11.169,5.593-17.458-4.884-20.253
				c-9.778-2.789-14.668,2.1-13.965,14.667C308.289,253.709,310.375,260.693,312.476,267.676z"/>
		</g>
	</g>
	<g>
		<g>
			<path d="M323.646,229.27c-6.287-2.094-11.171-0.703-14.661,2.093c-5.593,6.288-4.892,18.855,1.391,37.016l1.405,2.087
				l2.789-1.392l11.873-11.169c6.286-7.686,9.075-14.669,8.374-19.559C333.425,233.464,329.237,230.668,323.646,229.27z
				 M329.237,239.744v0.703c0,6.28-4.896,13.263-14.668,21.644c-2.789-6.983-3.492-12.575-3.492-18.152
				c0-4.194,0.703-6.983,2.79-8.389l8.387-1.391C326.442,235.55,328.535,236.956,329.237,239.744z"/>
		</g>
	</g>
	<g>
		<g>
			<path d="M313.867,264.185c-2.087,0-3.492,0.702-3.492,2.789l-9.069,32.125c-0.702,0.703,0,2.094,2.087,3.491l3.491-2.788
				l8.388-32.126C315.968,266.974,315.271,265.582,313.867,264.185z"/>
		</g>
	</g>
	<g>
		<g>
			<path fill="#FFCDDE" d="M228.68,10.007l-4.89-11.879c-4.192,0.702-9.771,3.491-15.363,6.982l-6.981,4.195l-11.867-6.983
				l-6.982-4.194L177.7,9.305h-11.866c-0.695,6.28,1.391,13.965,4.883,24.44c-4.883,4.194-8.375,8.381-11.866,13.966l-4.89,6.982
				l9.772,6.983l-0.695,11.873c7.679,3.492,15.364,4.883,23.746,4.187c0,6.288,3.489,13.271,10.474,20.254l10.475-6.983l11.17,4.188
				c4.188-4.188,5.594-11.171,6.984-20.95l18.854-2.093l-1.397-11.177l8.381-8.374c-3.49-4.889-7.686-9.083-12.566-12.575
				l-6.287-3.491c4.889-7.679,6.287-15.357,5.591-22.34L228.68,10.007z"/>
		</g>
	</g>
	<g>
		<g>
			<path d="M241.95,16.99v-3.491l-2.101-2.796l-8.373-3.492l-4.194-10.475c-0.702-1.398-2.095-2.796-4.194-2.1
				c-6.982,2.1-13.966,5.591-21.645,11.177L184.681-4.662c-2.788-1.398-4.186-0.702-4.881,1.398l-4.89,9.077h-9.772
				c-2.101,0.702-2.796,2.093-2.796,3.492v1.397c0,4.187,1.391,12.568,4.883,23.042l-11.866,12.568l-4.187,6.288l-0.703,2.093
				l1.398,2.094l8.375,6.288l-0.696,10.474c0,2.094,0.696,2.796,2.101,3.492c6.281,2.796,13.264,4.187,22.34,4.187
				c1.397,6.288,4.89,13.271,11.171,19.558l4.193,0.697l9.076-6.984l9.083,3.492h4.187c3.492-4.89,6.289-11.17,6.984-20.254
				l16.762-2.093c2.088,0,2.789-1.398,2.789-3.492l0,0l-0.701-9.772l6.287-6.982l1.396-2.796l-0.701-1.398
				c-4.188-6.982-9.772-12.567-16.756-16.059C240.547,28.16,241.95,21.873,241.95,16.99z M234.968,16.288v0.702
				c0,6.281-1.403,12.562-4.896,18.153l-0.696,1.392l0.696,0.702l1.404,2.789l5.578,2.796l9.779,9.779l-5.586,5.584l-1.396,2.79
				v0.702l1.396,8.381l-14.668,0.696c-2.087,0-3.492,1.398-4.188,3.491c-0.697,6.983-2.094,12.575-4.884,16.762l-8.388-3.492h-2.788
				l-7.688,6.288c-5.576-6.288-8.373-11.177-8.373-16.067l-1.397-2.795l-2.093-0.696l-19.559-3.491v-9.077l-1.391-3.492
				l-6.983-4.889c4.882-6.983,9.779-12.568,13.966-16.06l1.391-3.491v-0.702c-2.789-8.375-4.882-14.662-4.882-20.247h8.374
				l2.796-2.094l4.186-7.679l14.67,9.069l4.192,0.703L209.12,8.6l12.573-6.279l3.492,9.076l2.797,2.1L234.968,16.288z"/>
		</g>
	</g>
	<g>
		<g>
			<path d="M214.02,39.33c-1.406-3.492-4.194-5.585-8.39-6.983l-10.474,1.398c-2.789,2.093-4.885,4.89-6.281,8.381
				c-0.702,3.492,0,6.983,1.396,10.475c2.096,3.492,4.885,5.584,8.375,6.983c4.193,0.695,7.688,0,10.476-1.399
				c3.491-2.093,4.896-4.889,6.287-8.38C216.809,45.618,216.105,42.126,214.02,39.33z M210.525,45.618
				c0,3.492-1.403,5.584-4.191,7.679l-6.282,0.695l-4.896-4.187l-1.391-5.585c1.391-2.094,2.092-4.194,4.186-5.585h6.287
				l4.884,3.491L210.525,45.618z"/>
		</g>
	</g>
	<g>
		<g>
			<path d="M195.156,47.711c-1.391-2.094-2.789-2.789-4.188-2.094L177.697,52.6c-2.087,0.696-2.789,2.093-1.391,3.492
				c0,1.391,1.391,2.093,3.492,1.391l13.966-6.281C195.156,49.805,195.857,49.109,195.156,47.711z"/>
		</g>
	</g>
	<g>
		<g>
			<path d="M207.035,58.185c0-2.093-0.701-2.788-2.797-2.788c-1.397,0-2.795,0.695-2.795,2.788l0.695,16.06
				c0,1.398,0.701,2.796,2.101,2.796c2.095,0,2.796-1.397,2.796-2.796V58.185L207.035,58.185z"/>
		</g>
	</g>
	<g>
		<g>
			<path d="M187.479,23.271c-0.695-1.398-2.096-2.093-4.188-0.703c-1.397,0.703-1.397,2.101-0.695,4.194l5.578,4.889l4.194,4.188
				h4.193c0.694-2.093,0.694-3.491-0.703-4.188C190.969,28.16,188.173,25.364,187.479,23.271z"/>
		</g>
	</g>
	<g>
		<g>
			<path d="M216.809,21.177l-4.195,0.695l-9.068,9.778l-0.703,2.094l0.703,1.398c2.086,1.392,3.491,1.392,4.188,0l9.076-9.779
				C218.205,23.973,218.205,22.568,216.809,21.177z"/>
		</g>
	</g>
	<g>
		<g>
			<path d="M214.02,47.711h-3.492c-0.702,1.398-0.702,3.491,0.695,4.194l4.188,2.789l9.084,3.491c2.789,0,3.49-0.702,3.49-2.093
				c0-2.101,0-3.492-2.1-3.492l-7.68-3.491L214.02,47.711z"/>
		</g>
	</g>
	<g>
		<g>
			<path fill="#FFCDDE" d="M353.678,585.403v-7.687l17.459-6.28l-3.493-10.475l6.282-9.771c-4.193-4.896-9.771-7.687-14.669-9.778
				l-6.982-2.103c1.403-5.576,2.101-10.474,1.403-16.053l-0.701-6.981l-10.476-2.102l-6.982-11.169
				c-4.891,2.795-9.771,6.287-13.966,10.474l-6.281,6.288l-13.271-5.593l-7.678-1.391l-2.798,11.169l-11.168,3.492
				c0.694,5.585,4.185,13.271,10.474,22.341c-6.289,7.685-9.778,15.37-11.88,23.049l11.178,5.585l1.396,11.873l23.744-1.397
				c2.089,6.982,6.983,12.567,15.357,18.159l8.382-9.778l11.872,2.094C352.977,595.878,353.678,591.684,353.678,585.403z"/>
		</g>
	</g>
	<g>
		<g>
			<path d="M275.46,572.835L275.46,572.835c0,2.094,0.702,3.491,2.103,3.491l9.074,4.188l1.398,9.778
				c0,2.093,1.391,2.796,2.796,2.796c6.28,2.087,13.263,2.087,23.036,0c2.101,6.28,7.686,11.865,14.668,16.755l4.193-0.702
				l7.68-7.679l9.777,1.397c2.088,0.702,2.79,0,3.491-2.094c2.789-3.491,3.491-9.084,3.491-16.066v-4.187l10.475-3.492l5.579-2.094
				l1.404-3.492v-0.701l-3.49-9.771l5.577-7.687l0.702-2.087l-1.398-2.796c-5.585-6.286-12.566-9.778-19.551-11.171l1.399-10.474
				l-0.697-8.388l-0.702-3.491l-2.789-2.087l-9.084-2.102l-6.287-9.075c-2.087-2.095-2.788-2.095-4.882-1.399
				c-6.981,3.492-12.575,8.382-18.854,14.663l-12.568-4.188l-6.287-1.391c-2.094-0.703-4.188,0-4.188,2.086l-2.101,9.779
				l-9.771,2.795c-2.094,0-2.789,1.392-2.789,3.492l0,0c0.695,5.585,4.188,13.271,9.771,22.341
				C281.053,557.471,277.563,564.454,275.46,572.835z M350.188,519.063l0.694,7.687l-2.1,11.169v1.393l0.701,2.102l2.095,1.391
				l5.591,2.101c4.188,1.392,7.68,3.491,11.866,6.982l-4.882,6.983v2.094v1.397l2.789,7.679l-13.967,4.188
				c-2.095,0.702-2.79,2.101-2.79,3.491v6.982l-1.403,11.178l-9.069-2.094c-0.703,0-2.102,0-3.493,1.392l-6.287,6.982
				c-6.286-4.883-10.474-9.772-11.169-13.265l-1.404-2.79l-2.789-0.7l-20.246,1.396l-1.404-9.778l-2.088-2.094l-7.686-3.492
				c2.789-6.981,6.279-13.264,10.475-19.551l0.703-2.1l-0.703-1.393c-4.194-6.981-6.982-12.573-9.078-18.152l8.377-2.796l2.1-2.798
				l2.797-8.373c6.278,2.088,11.17,3.492,16.053,6.281l4.191-0.703l16.062-13.966l5.593,8.388l2.086,1.392L350.188,519.063z"/>
		</g>
	</g>
	<g>
		<g>
			<path d="M334.12,545.598c-2.093-2.795-5.585-4.186-9.076-4.186c-4.194,0-6.984,0.695-10.475,3.49
				c-2.789,2.796-4.194,6.288-4.194,9.078c0,4.191,0.702,7.685,3.492,10.474c2.101,2.789,5.592,4.193,9.082,4.193
				c3.493,0.695,6.982-0.701,9.779-3.491c3.49-2.796,4.188-5.592,4.883-9.779C338.307,551.886,336.22,548.396,334.12,545.598z
				 M318.764,548.396c1.392-0.696,3.49-2.102,5.578-1.397c2.102,0,4.193,0.701,5.591,2.094l2.096,6.286
				c0,2.094-0.703,4.188-2.79,5.586c-1.404,1.397-3.491,2.093-6.288,2.093l-4.891-2.093c-2.092-2.094-2.788-3.492-2.788-6.281
				L318.764,548.396z"/>
		</g>
	</g>
	<g>
		<g>
			<path d="M317.358,557.471h-4.188l-11.865,8.381c-2.101,1.393-2.101,2.797-0.701,4.188l3.489,0.695l11.874-9.069
				C318.06,560.963,318.06,559.564,317.358,557.471z"/>
		</g>
	</g>
	<g>
		<g>
			<path d="M331.324,565.852c0-1.396-2.087-2.796-3.491-2.101c-2.087,0.703-2.087,1.405-2.087,2.796l3.491,16.067
				c0.694,2.086,2.087,2.789,3.491,2.086c2.088,0,2.789-1.392,2.789-2.789L331.324,565.852z"/>
		</g>
	</g>
	<g>
		<g>
			<path d="M304.797,535.82c-0.703-0.696-2.796-0.696-4.193,0c-0.702,1.402-0.702,2.795,0,4.191l11.872,7.687
				c2.095,0.695,2.796,0,3.492-2.102c1.392-0.694,0.695-2.093-0.696-3.489L304.797,535.82z"/>
		</g>
	</g>
	<g>
		<g>
			<path d="M332.729,528.142c-1.404-1.392-2.797-0.695-3.491,0.695l-6.983,11.879c-0.701,1.393,0,2.789,1.393,4.188
				c1.397,0.694,2.101,0,3.491-1.397l6.287-11.873C334.816,530.241,334.816,528.837,332.729,528.142z"/>
		</g>
	</g>
	<g>
		<g>
			<path d="M336.22,553.276c-1.402-0.695-3.489,0-3.489,2.101c-0.702,1.394,0,2.094,1.391,3.492l4.89,1.391l9.772,1.405
				c1.404,0,2.1-0.702,2.1-2.796c0-1.398-0.694-2.797-2.1-2.797l-9.069-0.695L336.22,553.276z"/>
		</g>
	</g>
	<g>
		<g>
			<path fill="#FFCDDE" d="M86.224,579.121l11.169,4.884l0.703,11.873l24.44-6.983c6.28,6.983,13.966,11.873,20.949,15.364
				l6.281-9.083h12.574c2.094-5.579,2.796-10.476,3.492-16.756l-0.695-6.983c6.28-0.701,13.264-4.89,20.246-12.566l-8.38-9.778
				l4.188-11.172c-2.79-2.099-6.984-4.186-13.264-4.889l-7.686-1.398l-1.391-12.567l-2.1-6.279l-11.17,2.087l-9.077-7.68
				c-7.686,5.593-12.568,12.575-14.668,19.559c-4.882-2.797-10.475-4.193-16.053-4.896l-6.983,0.702l-3.491,9.771l-11.879,5.592
				c2.796,6.983,6.983,14.662,12.575,21.646C92.511,564.454,89.715,570.734,86.224,579.121z"/>
		</g>
	</g>
	<g>
		<g>
			<path d="M139.292,505.098l-4.883-0.7c-6.983,5.591-11.873,11.879-14.662,18.159c-4.193-2.094-9.779-2.789-14.668-3.492h-6.983
				l-2.789,2.095l-2.796,9.083l-10.475,4.188c-1.398,0.695-2.1,2.094-2.1,3.49l0.702,0.696c2.093,6.981,5.585,13.966,11.177,21.645
				c-2.796,4.194-6.288,10.476-9.084,17.458v1.403c0,1.394,0.696,2.79,1.398,2.79l9.772,4.192l0.702,9.773
				c0,2.789,1.399,3.491,3.492,3.491c6.28-0.702,13.966-2.789,23.738-6.28c6.288,6.28,12.575,11.17,20.254,14.661
				c1.397,0.695,2.795,0,4.187-1.397l5.591-7.686h10.475c1.391,0,2.094-1.392,3.492-2.789c2.094-5.585,2.796-11.178,2.796-19.552
				v-2.796c6.281-2.094,13.264-5.584,18.849-12.567l1.397-2.094l-0.702-2.101l-6.982-8.375l3.49-10.476l-1.391-2.795
				c-4.889-3.492-11.873-5.585-20.253-6.287l-1.391-11.867l-1.405-4.889c-0.696-2.094-2.087-2.788-4.188-2.788l-9.076,2.086
				L139.292,505.098z M101.588,525.345c6.28-0.695,11.872,1.405,18.16,4.896h2.789l2.789-2.101
				c1.405-6.288,5.592-11.172,11.177-16.061l6.983,5.585l2.79,0.696l7.685-1.394l2.79,13.967v0.695c0,2.797,0.702,3.492,2.795,3.492
				c6.288,0,11.873,2.1,16.762,4.187l-2.796,9.084v0.696l0.695,2.1l5.593,7.68c-5.593,5.585-11.171,8.374-15.364,9.077
				c-0.703,0-2.094,0-2.094,1.396l-0.695,2.093v4.891l-2.101,15.356h-9.778c-1.392,0-2.087,0-2.79,0.702l-4.889,7.687
				c-6.983-4.193-12.569-8.389-16.762-13.271l-4.188-0.696l-19.55,5.579l-0.703-8.374l-2.789-2.795l-7.686-3.492l8.388-14.661
				l0.696-2.796l-0.696-2.095c-4.194-5.585-8.388-11.873-11.177-18.16l9.077-4.187l2.1-1.391L101.588,525.345z"/>
		</g>
	</g>
	<g>
		<g>
			<path d="M120.442,564.454c2.797,3.492,5.586,5.585,9.077,6.28c3.492,0.702,6.983,0,10.475-2.087
				c3.492-2.102,4.89-4.193,6.281-8.389v-2.789l-2.087-7.685c-2.1-3.492-4.896-4.884-8.388-5.579
				c-4.187-1.404-7.679-0.702-10.475,1.391c-3.492,2.102-4.883,4.891-6.281,8.384C118.342,558.173,119.045,561.665,120.442,564.454z
				 M128.122,550.487l6.288-1.396c2.093,0.695,3.492,2.101,4.883,3.49c1.404,2.101,2.1,3.491,1.404,6.288l-4.194,5.585l-5.585,0.702
				l-4.889-3.491c-1.398-2.101-2.094-4.194-1.398-6.288C125.326,553.276,126.028,551.886,128.122,550.487z"/>
		</g>
	</g>
	<g>
		<g>
			<path d="M137.901,565.852c-0.696-1.396-1.398-2.796-3.492-1.396c-1.398,1.396-2.101,2.093-1.398,3.492l6.983,13.965
				c0.703,1.397,2.094,2.094,3.492,0.703c2.094-0.703,2.79-2.101,1.398-3.493L137.901,565.852z"/>
		</g>
	</g>
	<g>
		<g>
			<path d="M163.732,552.581c0-1.391-1.391-2.094-2.789-2.094l-16.755,1.397c-1.405,0-2.796,0.695-2.796,2.796
				c0,2.088,1.391,2.789,3.491,2.789l16.06-1.397C162.341,556.072,163.732,555.377,163.732,552.581z"/>
		</g>
	</g>
	<g>
		<g>
			<path d="M122.537,563.056l-3.492,1.398l-7.686,8.381c-2.086,1.393-2.086,2.094-1.391,4.188c1.391,1.397,2.094,1.397,4.187,0.695
				l9.084-10.475C123.934,565.852,123.934,564.454,122.537,563.056z"/>
		</g>
	</g>
	<g>
		<g>
			<path d="M111.359,543.505l-4.187,0.702c-0.696,1.391-0.696,2.79,0.695,4.188l10.475,7.678h4.194c0.703-2.092,0-3.491-0.703-4.188
				L111.359,543.505z"/>
		</g>
	</g>
	<g>
		<g>
			<path d="M140.696,530.937c-1.404-0.694-2.795,0-2.795,2.095c-0.696,4.192-2.101,8.382-4.89,11.872
				c-0.702,0.694-0.702,2.796,1.398,3.492c1.391,1.392,2.795,0.695,3.492-0.696c3.491-4.896,4.882-9.083,5.584-13.965
				C143.485,531.632,142.783,530.937,140.696,530.937z"/>
		</g>
	</g>
	<g>
		<g>
			<path fill="#D96038" d="M82.037,68.661l-9.779-5.585l-2.094-11.873l-17.458,2.094l-6.982,2.796
				c-2.79-8.381-7.686-13.966-14.668-18.153l-8.375,5.578l-12.575-3.492C7.317,47.009,5.224,55.398,5.224,65.17
				c-5.592,1.397-11.873,3.492-20.254,7.685l5.592,11.17l-6.983,9.077c4.188,4.194,11.866,7.685,23.036,11.177
				c0,9.772,2.101,18.154,5.592,25.137l11.17-3.492l9.083,8.374c7.679-4.187,13.264-9.069,18.153-16.052
				c4.883,4.187,12.568,4.882,23.042,4.187v-13.271l10.475-5.585c-0.702-3.491-2.789-8.38-6.983-12.568l-4.889-6.288L82.037,68.661z
				"/>
		</g>
	</g>
	<g>
		<g>
			<path d="M73.655,51.202l-3.491-3.491c-7.685,0-15.364,0.703-22.347,3.491c-2.796-4.193-5.585-8.38-9.779-11.872l-4.883-4.187
				c-0.695-0.696-2.1-0.696-3.491,0l-7.678,4.187l-11.177-2.795c-2.093-0.696-3.491,0.702-4.194,2.1
				C4.529,44.923,2.428,52.601,1.732,62.38c-4.889,1.392-11.17,4.187-18.153,7.679l-2.1,2.796l0.695,1.391l4.194,9.083l-5.585,8.374
				l-0.695,1.398l1.391,3.492c4.187,3.492,11.873,6.983,21.645,10.475c0.703,8.381,2.795,16.755,6.287,23.738
				c0.696,2.101,2.101,2.101,4.187,2.101l9.083-2.796l8.375,6.287l3.491,0.696c6.287-2.796,11.879-7.678,17.458-14.661
				c5.592,2.796,13.271,3.491,21.651,3.491l3.492-3.491v-11.17l9.077-5.591l1.398-2.094v-1.397
				c-0.703-4.883-4.194-11.17-11.177-17.458l9.083-14.662v-1.397l-2.101-2.79l-8.374-4.896L73.655,51.202z M70.164,66.566
				l6.983,3.492l-7.685,12.568l-0.695,2.093l0.695,2.796c4.193,3.492,7.685,9.077,10.475,13.967l-7.679,4.187
				c-1.392,1.397-2.094,2.1-2.094,3.491v9.779c-7.685,0-13.966-1.398-17.458-3.492l-3.491-0.695l-1.398,1.391
				c-4.188,5.592-9.076,9.779-14.662,13.271l-7.678-6.288l-3.492-0.695l-7.686,2.796c-2.788-7.686-4.193-14.668-4.193-21.652
				c-0.696-1.397-2.086-2.093-2.789-2.79c-6.281-2.1-13.264-4.193-18.856-8.387l4.89-6.984l0.702-1.391l-0.702-2.101l-3.492-7.678
				c6.281-2.795,11.872-4.883,16.059-5.584c2.101-0.703,2.797-2.094,2.797-3.492C9.41,57.483,10.106,50.5,12.207,44.22l9.779,2.093
				h2.086l6.983-4.187c5.591,3.492,9.778,9.076,11.177,15.357l2.789,2.101h2.796l4.889-2.796l13.966-2.094l2.094,8.381
				L70.164,66.566z"/>
		</g>
	</g>
	<g>
		<g>
			<path d="M50.613,86.118c0-3.492-1.397-6.983-4.187-9.772c-2.101-2.796-5.592-4.194-9.779-4.194s-6.983,1.397-9.778,4.194
				c-2.796,2.79-3.492,6.281-3.492,9.772c0,3.491,0.695,6.982,3.492,9.077c2.795,2.796,5.591,4.889,9.778,4.889
				s7.679-2.093,9.779-4.889C49.215,93.101,50.613,89.609,50.613,86.118z M36.646,94.499c-2.1,0-4.187-1.398-5.591-2.796
				c-2.087-2.093-2.087-3.492-2.087-5.584c0-2.094,0-4.195,2.087-5.585c1.404-2.1,3.491-2.796,6.287-2.796
				c1.398,0,3.491,0.696,4.89,2.796c2.093,1.391,2.789,3.491,2.789,5.585l-2.789,5.584C40.833,93.101,38.741,94.499,36.646,94.499z"
				/>
		</g>
	</g>
	<g>
		<g>
			<path d="M31.055,93.101c-1.392,0-2.79,0-3.492,2.094l-3.492,14.662c0,2.1,0.702,2.795,2.796,3.491l3.491-2.087l3.492-14.668
				C33.851,94.499,33.155,93.101,31.055,93.101z"/>
		</g>
	</g>
	<g>
		<g>
			<path d="M47.817,89.609c0.695,1.398,0.695,2.79,0,4.194l-2.796,0.695l12.575,9.779l3.492-0.702
				c0.696-2.093,0.696-3.491-1.398-4.193L47.817,89.609z"/>
		</g>
	</g>
	<g>
		<g>
			<path d="M23.376,84.72c-0.696-2.093-2.094-2.093-3.492-2.093L8.02,84.72c-1.405-0.696-2.796,0-3.492,2.796
				c0,1.392,0.696,2.094,2.79,2.796l13.263-2.101C22.681,87.516,23.376,86.118,23.376,84.72z"/>
		</g>
	</g>
	<g>
		<g>
			<path d="M27.563,62.379c-0.695-2.1-2.086-2.795-3.492-2.1c-2.086,0-2.086,1.397-2.086,2.796l2.086,13.271
				c0.702,2.087,1.405,2.79,3.492,2.79c1.405-0.703,2.796-2.094,2.1-3.492L27.563,62.379z"/>
		</g>
	</g>
	<g>
		<g>
			<path d="M58.292,72.152l-4.187-0.702c-2.796,2.795-6.288,4.896-10.475,5.591c-2.1,1.392-2.796,2.094-2.1,3.492
				c0,2.094,2.1,2.796,3.491,2.094c5.592-1.398,9.779-3.491,13.271-6.983C59.689,74.245,59.689,72.854,58.292,72.152z"/>
		</g>
	</g>
	<g>
		<g>
			<path fill="#FFCDDE" d="M120.442,192.957l-9.083-4.187l-4.882-11.873c-4.889,0.703-10.474,3.492-15.364,6.983l-7.685,4.194
				c-2.789-2.1-6.281-4.194-11.17-7.686l-6.983-3.492l-5.585,11.177l-11.873,0.696c0,5.585,1.398,13.271,4.889,23.745
				c-6.982,6.281-11.873,13.264-16.06,20.247l9.077,6.983l-0.703,12.568c7.686,3.492,16.067,4.89,24.441,4.187
				c0,6.983,3.492,13.27,10.475,20.949l10.474-7.679l11.177,4.188c2.093-2.789,3.491-6.28,4.889-12.562l2.094-7.686l18.855-2.789
				l-1.397-11.177l7.686-7.685c-2.796-5.579-7.686-9.772-11.88-13.264l-6.28-3.491c2.788-4.194,4.888-9.772,4.888-15.364V192.957
				L120.442,192.957z"/>
		</g>
	</g>
	<g>
		<g>
			<path d="M109.968,175.499c-1.397-2.094-2.795-2.094-4.889-2.094c-6.983,1.398-13.966,5.585-20.949,10.475l-17.458-10.475
				c-2.093-0.702-3.492,0-4.889,2.094l-4.188,9.083l-9.779,0.696c-2.796,0-3.492,1.392-3.492,2.796v1.391
				c0,6.288,1.398,14.662,4.89,22.347c-6.983,6.28-11.873,13.264-15.364,20.247l-0.696,0.702l1.392,3.492l7.686,5.584l-0.702,10.475
				c0,1.397,0.702,2.796,2.795,2.796c6.288,3.491,13.271,4.883,22.347,4.883c1.398,6.983,4.89,13.27,10.475,19.558h4.89l9.076-5.592
				l8.381,3.491l4.882-1.391c3.491-4.187,5.592-10.475,6.983-18.855l16.762-2.789c1.397,0,2.796-1.405,2.796-3.492l0,0l-1.398-9.778
				l6.983-6.983l0.702-2.1l-0.702-2.087c-4.194-7.685-10.474-12.575-16.755-16.066c2.789-6.288,4.882-12.568,4.882-18.153
				l-0.696-3.492l-1.397-2.796l-9.077-2.795L109.968,175.499z M107.868,190.161l2.101,2.1l7.678,2.796v0.696
				c0,6.288-2.092,12.568-5.584,17.458v2.094v1.398l2.092,2.093l4.89,2.789l10.474,9.779l-6.28,6.288
				c-0.703,0-0.703,1.391-0.703,2.093v0.703l0.703,8.374l-14.668,1.398c-2.094,0-3.492,0.703-3.492,2.79
				c-0.703,6.983-2.789,12.574-5.585,16.761l-8.381-3.491l-2.789,0.696l-7.686,5.592c-4.89-5.592-7.685-11.17-7.685-16.066
				l-1.392-2.79l-2.795-0.702c-6.288,0.702-13.271-0.696-19.551-2.79v-10.474l-0.703-2.789l-6.982-4.194
				c3.491-6.983,9.083-12.568,13.966-17.458l0.702-2.79v-0.702c-2.789-9.772-4.194-16.06-4.194-20.247l7.686-0.703l3.491-1.398
				l3.492-7.679l14.669,9.077h4.187l5.584-3.492l13.264-6.28L107.868,190.161z"/>
		</g>
	</g>
	<g>
		<g>
			<path d="M96.003,218.092c-1.399-2.789-4.187-5.578-8.381-6.28l-10.475,0.702c-2.789,2.086-4.889,4.883-5.585,9.07
				c-1.398,3.492-1.398,6.983,1.392,10.475c1.404,3.491,4.193,4.896,7.685,5.592l10.474-0.695c3.491-1.406,5.585-4.194,6.983-8.388
				C98.798,225.076,98.096,221.584,96.003,218.092z M91.113,220.889l1.398,4.187c0,2.795-1.398,4.896-3.492,6.983l-6.288,0.702
				l-5.585-3.491c-0.702-2.094-0.702-4.194-0.702-6.983l4.194-4.194l6.28-1.391L91.113,220.889z"/>
		</g>
	</g>
	<g>
		<g>
			<path d="M77.147,225.778c-0.702-1.397-2.093-2.094-3.492-0.703l-13.966,5.592c-1.398,1.391-2.094,2.093-1.398,4.187
				c0.696,1.398,1.398,2.101,3.492,1.398l13.966-6.281C77.147,229.27,78.545,227.871,77.147,225.778z"/>
		</g>
	</g>
	<g>
		<g>
			<path d="M89.715,236.956c0-1.406-1.391-2.796-2.796-2.796c-2.086,0-2.789,1.391-2.789,2.796v16.052
				c0,1.405,1.398,2.796,2.789,2.796c2.101,0,2.796-1.391,2.796-2.796V236.956z"/>
		</g>
	</g>
	<g>
		<g>
			<path d="M69.462,202.04c-1.392-0.702-2.79-0.702-4.187,0c-0.696,1.391-0.696,2.789,0,3.492l9.779,9.772l3.491-0.703
				c1.392-1.391,1.392-2.789,0-3.491L69.462,202.04z"/>
		</g>
	</g>
	<g>
		<g>
			<path d="M98.798,200.635h-4.194l-8.38,9.779c-0.695,1.398-0.695,2.796,0,4.187h4.187l9.083-10.474
				C100.19,202.735,100.19,201.338,98.798,200.635z"/>
		</g>
	</g>
	<g>
		<g>
			<path d="M96.698,225.778c-0.695-0.703-2.094-0.703-4.187,0.702c-0.695,2.087,0,2.79,1.391,4.188l4.194,2.796l9.077,2.789
				c2.1,0.703,2.795,0,2.795-2.094c0.696-1.398,0-2.796-1.397-3.491l-8.381-2.101L96.698,225.778z"/>
		</g>
	</g>
	<g>
		<g>
			<path fill="#FFCDDE" d="M269.182,364.736c0,5.591,1.396,13.965,4.889,24.439c-6.982,5.592-11.872,12.574-16.067,19.559
				l9.085,6.982l-0.695,12.567c7.678,3.492,16.053,4.889,23.737,4.192c0.702,6.281,4.194,13.266,11.177,20.248l10.476-7.686
				l10.474,4.896c2.79-2.797,4.188-6.982,6.281-13.271l0.702-7.679l19.545-1.405l-2.087-11.865l8.374-8.382l-11.866-12.567
				l-6.983-3.492c5.579-7.678,6.983-15.362,6.281-22.346l-9.771-4.193l-4.896-12.563c-4.884,2.087-9.772,4.188-16.053,6.983
				l-6.983,4.883c-2.796-2.094-6.286-4.883-11.177-7.68l-6.982-3.49l-5.584,10.475L269.182,364.736z"/>
		</g>
	</g>
	<g>
		<g>
			<path d="M265.688,364.04v1.397c0,5.586,1.398,13.264,4.194,22.349c-6.288,6.284-11.176,12.567-14.669,19.55l-0.702,1.398
				l1.405,2.795l7.678,5.578l-0.695,11.178c0,1.397,0.695,2.789,2.789,2.789c6.983,3.492,13.967,4.896,21.652,4.896
				c2.085,6.982,5.578,12.562,11.169,19.544h4.883l8.389-6.279l9.771,4.191l3.491-1.403c3.491-3.491,5.584-9.771,7.686-19.546
				l11.17-0.7l5.585-1.398l2.79-2.796v-1.391l-2.088-9.085l6.982-6.982l1.393-2.789l-0.694-2.093
				c-4.188-6.983-10.476-11.873-16.764-16.065c2.796-6.281,4.891-12.563,4.891-17.459v-3.492l-2.79-2.789l-7.686-3.489
				l-4.891-10.476c-1.391-2.789-2.093-3.492-4.186-2.094c-5.594,1.393-13.271,4.883-21.646,10.475
				c-2.796-2.101-6.287-4.89-10.475-6.982l-6.981-3.491c-1.405-0.696-3.493,0-4.194,2.093l-4.194,8.381l-9.771,1.393
				C266.393,361.244,265.688,361.947,265.688,364.04z M269.883,412.922l-6.982-4.883l13.966-16.764l0.696-2.1v-2.088
				c-2.103-6.287-4.188-13.27-4.891-19.559l8.381-0.694l2.795-1.397l4.188-7.686l14.661,9.083c1.396,1.392,2.101,1.392,4.188,0
				l5.592-4.188l13.271-5.59l3.491,9.082l2.087,2.086l7.686,2.797v0.695c0,6.287-2.094,11.879-5.585,17.458l-0.694,2.101v1.392
				l2.789,1.403l4.89,3.492l9.778,9.771l-5.594,6.281l-1.391,2.101l0,0l1.391,8.374l-14.661,1.403c-2.1,0-3.489,0.697-4.187,3.493
				c0,6.982-2.101,12.562-4.193,16.053l-9.076-2.789l-3.491,0.702l-7.68,5.578c-4.896-6.982-6.981-11.865-7.686-16.055l-0.701-2.795
				c-1.394-0.694-2.088-0.694-2.79-0.694l-20.246-3.493l0.695-9.777L269.883,412.922z"/>
		</g>
	</g>
	<g>
		<g>
			<path d="M308.984,387.089l-10.476,1.394c-3.491,2.1-4.89,5.59-5.591,8.379c-1.393,4.195-1.393,7.687,0.701,10.476
				c2.789,3.492,4.89,5.586,8.381,6.281l10.475-1.392c2.795-1.397,5.584-4.188,6.288-7.68c1.392-4.193,0.695-7.686-0.704-10.477
				C315.968,390.581,313.171,387.786,308.984,387.089z M301.306,393.37l6.983-0.702l4.187,3.492l1.393,4.896
				c0,2.789-1.393,5.577-4.188,6.982h-5.586l-5.584-3.492c-0.693-1.402-1.398-3.49-0.693-6.287L301.306,393.37z"/>
		</g>
	</g>
	<g>
		<g>
			<path d="M297.814,401.751c0-1.397-1.405-2.101-3.491-0.694l-13.966,5.577c-0.703,0.702-1.406,2.101-0.703,3.491
				c0.703,2.102,1.397,2.797,3.49,1.404l13.967-6.286C298.51,404.547,299.205,403.846,297.814,401.751z"/>
		</g>
	</g>
	<g>
		<g>
			<path d="M311.077,412.227c0-1.397-1.397-2.102-2.788-2.102c-2.102,0-3.492,0.703-3.492,2.102l0.696,16.763
				c0,2.086,1.391,2.789,2.796,2.789c2.086,0,2.788-0.703,2.788-2.789V412.227z"/>
		</g>
	</g>
	<g>
		<g>
			<path d="M290.831,378.701c-0.702-2.086-2.101-2.788-3.49-1.391c-1.405,1.391-2.101,2.094-1.405,3.49l10.475,9.779h3.491
				c1.404-1.404,1.404-2.795,0-4.194L290.831,378.701z"/>
		</g>
	</g>
	<g>
		<g>
			<path d="M320.154,375.913h-4.188l-8.382,10.474c-1.397,0.702-1.397,2.79,0,4.194l4.194-0.702l9.068-9.771
				C321.553,378.701,321.553,377.311,320.154,375.913z"/>
		</g>
	</g>
	<g>
		<g>
			<path d="M318.06,401.751l-3.489,0.696c-1.398,2.1-1.398,2.796,0.701,4.187l3.492,2.101l9.771,3.492l3.492-2.102
				c0-2.086-0.703-2.789-2.79-3.491l-7.686-2.087L318.06,401.751z"/>
		</g>
	</g>
	<g>
		<g>
			<path fill="#D96038" d="M164.435,70.058l4.889-11.873l-15.364-4.193l-9.077-1.391l-6.287-17.458l-4.187-6.983l-10.475,5.585
				L113.46,28.16c-4.187,2.796-7.679,6.983-10.474,12.568l-3.492,6.281L84.13,45.618l-8.381,2.094l2.101,11.873l-9.083,8.374
				c2.099,5.591,7.678,10.475,15.363,16.066c-3.491,4.883-5.585,10.475-6.983,17.458l11.177,3.491l4.187,11.17
				c9.077-0.696,17.457-4.187,22.34-9.077c4.194,6.983,10.475,12.568,18.16,15.364l6.983-6.983l13.264,0.696l0.702-17.458
				l-0.702-7.679l18.16-11.872L164.435,70.058z"/>
		</g>
	</g>
	<g>
		<g>
			<path d="M147.679,49.109l-6.287-16.066l-4.188-6.281c-0.702-2.093-2.795-2.093-4.194-1.398l-9.077,4.89l-9.083-5.585h-3.492
				c-5.578,4.883-10.475,10.475-13.966,18.153h-14.66l-7.678,1.398c-2.1,0-2.796,1.398-2.796,3.492l0,0l1.397,11.176l-6.983,6.281
				l-1.397,2.789l0.695,1.404c1.404,4.883,6.288,9.773,13.966,15.357c-2.79,4.89-4.883,10.475-6.281,16.066v0.697
				c0,2.093,1.398,2.795,2.79,3.491l9.083,2.796l3.491,9.772c0.696,1.398,2.093,2.093,3.492,2.093
				c8.374-0.695,15.356-3.491,21.644-7.678c4.89,6.288,11.171,10.475,17.458,13.271l2.796-0.703l6.983-5.585l11.866,0.695
				c2.1,0,3.492-0.695,3.492-2.796l0.702-11.866V93.101l16.755-11.177l0.703-2.788v-2.094l-6.281-8.38l4.187-9.077v-1.399
				l-1.398-2.788C165.833,52.601,158.154,51.202,147.679,49.109z M141.392,53.296l3.491,2.796c6.983,0,13.271,2.093,19.552,4.187
				l-3.492,8.381v1.397l0.702,2.094l5.578,6.281l-15.357,9.083c-1.398,0-2.1,1.392-2.1,3.492l0,0l0.702,13.966v6.983h-9.772h-2.795
				l-5.592,5.585c-6.28-2.094-11.17-6.983-13.966-12.568l-2.788-1.398c-0.703,0-2.094,0-3.492,0.702
				c-4.195,4.188-10.475,6.281-17.458,7.679l-2.788-8.381l-2.101-2.093l-7.679-2.796c0.695-4.883,2.796-9.077,5.585-13.271v-1.391
				l-1.398-3.491c-5.585-3.492-9.779-7.679-12.568-11.872l6.281-5.585l1.405-3.491l0,0l-1.405-9.779
				c7.685-1.391,13.965-1.391,18.16,0h2.094l2.1-1.391l2.789-5.592c2.789-4.187,5.585-7.679,8.381-11.171l9.077,5.585h3.492
				l6.982-4.193C136.502,38.635,139.994,45.618,141.392,53.296z"/>
		</g>
	</g>
	<g>
		<g>
			<path d="M115.554,62.379c-3.492,0.696-6.281,2.79-8.381,6.281c-2.094,2.789-2.796,6.28-2.094,9.772
				c0.702,4.194,2.789,6.287,5.585,9.083l10.474,2.094c4.188-0.702,6.288-2.789,8.381-5.585c2.79-3.491,3.492-6.983,2.79-10.475
				c-1.391-4.187-2.79-6.983-6.28-9.083C123.239,62.379,119.748,61.677,115.554,62.379z M123.239,68.661
				c2.086,1.397,2.789,3.491,2.789,5.584l-0.703,6.288l-4.883,3.491c-2.796,0-4.888,0-6.982-1.397
				c-2.101-2.094-3.492-3.491-3.492-6.983l2.094-4.194c0.702-1.392,2.789-2.789,4.889-3.492L123.239,68.661z"/>
		</g>
	</g>
	<g>
		<g>
			<path d="M123.239,47.009c-1.405,0-2.797,0.703-2.797,2.796l-0.695,15.364l2.789,2.789c1.397,0,2.789-1.392,2.789-2.789
				l0.703-15.364C126.028,47.711,125.326,47.009,123.239,47.009z"/>
		</g>
	</g>
	<g>
		<g>
			<path d="M94.604,61.677c-0.702,0-2.093,0-3.491,1.398c-0.702,2.094,0,3.491,1.398,4.187l13.966,6.287
				c-1.398-0.695-1.398-1.397,0-3.491c0-1.397,1.391-1.397,2.796-1.397L94.604,61.677z"/>
		</g>
	</g>
	<g>
		<g>
			<path d="M149.767,67.958c-0.696-1.392-2.087-2.789-3.492-1.392l-12.561,4.188c-1.405,0-2.101,1.398-1.405,3.491
				c0.702,1.398,2.101,2.796,3.492,1.398l11.879-3.492C149.767,70.754,150.468,70.058,149.767,67.958z"/>
		</g>
	</g>
	<g>
		<g>
			<path d="M132.309,82.626c0-1.398-1.391-2.094-3.492-1.398c-1.391,1.398-2.789,2.101-1.391,3.492l4.883,12.575
				c0.702,1.392,2.101,2.087,3.492,1.392l2.101-3.491L132.309,82.626z"/>
		</g>
	</g>
	<g>
		<g>
			<path d="M114.851,81.228c-0.696-1.391-2.086-2.093-3.492-0.695c-4.882,2.094-8.374,5.585-11.865,9.077
				c-1.398,2.093-0.696,3.491,0.696,4.194l4.187-0.703c2.101-2.789,5.592-5.585,9.083-7.686
				C115.554,84.72,115.554,83.329,114.851,81.228z"/>
		</g>
	</g>
	<g>
		<g>
			<path fill="#D96038" d="M340.408,325.633c-3.492-2.795-8.381-5.585-14.662-8.374l-7.688-2.796l-0.7-13.965l-2.089-7.68
				l-11.177,2.79l-7.685-9.771c-5.578,3.491-10.475,9.771-16.053,19.544l-18.862-2.085l-7.679,0.694l0.695,12.567l-10.475,6.982
				c1.404,7.686,4.896,14.668,11.177,20.947c-5.585,3.492-9.076,10.477-9.771,20.949l11.865,3.494l2.795,11.176
				c6.289,0.694,13.271-1.405,20.949-6.983l13.271,13.966l7.678-7.686l11.866,1.397c2.101-5.592,3.491-11.87,2.796-17.456
				l-1.394-7.68c9.071,0,16.758-3.492,21.646-8.389l-2.796-10.475L340.408,325.633z"/>
		</g>
	</g>
	<g>
		<g>
			<path d="M318.06,290.023l-2.788-0.696l-10.475,2.087l-6.287-6.983l-4.187-1.392c-5.593,4.188-10.476,9.778-16.067,18.848
				l-17.457-2.085l-7.679,0.695c-1.397,0.694-2.796,2.093-2.796,3.491v9.777l-8.374,6.28c-0.702,0.702-1.403,1.397-1.403,3.492l0,0
				c1.403,6.983,4.896,13.967,9.777,20.948c-4.883,4.891-7.68,11.873-8.374,20.949l0,0c0,1.397,0,2.789,2.087,3.492l10.475,2.788
				l2.102,9.779l3.49,2.101c5.586,0.695,11.865-0.703,20.254-5.593l11.865,12.575l4.89-0.702l6.981-6.983l9.773,1.398l3.491-2.1
				l2.796-16.758l-0.695-6.981c8.374-0.702,14.661-4.194,20.254-9.076l0.695-2.103v-1.391l-2.103-8.38l5.593-10.476v-1.398
				l-0.695-2.795c-6.287-4.884-13.271-8.375-21.65-10.475l-0.703-13.26l-2.086-6.981L318.06,290.023z M278.951,308.871
				c1.406,0,2.796,0,4.193-2.086c4.891-7.686,9.076-12.575,12.568-15.371l5.592,6.288l3.491,1.397l7.679-2.095l2.095,15.356v2.101
				c0,2.095,0.7,2.796,2.789,3.491l5.591,2.094c5.586,2.096,9.779,4.194,13.271,6.982l-4.896,7.688l-0.696,2.086v0.703l2.102,8.381
				c-4.896,4.188-11.177,6.286-17.459,6.286l-2.795,2.087l-0.694,1.405v1.392l1.391,8.381l-1.391,11.178l-9.084-0.702
				c-1.392,0-2.094,0-2.796,0.702l-5.577,6.279l-10.477-11.177c-0.701-2.087-2.795-2.087-4.193-1.392
				c-6.279,3.492-11.178,5.586-16.754,6.288l-2.102-8.39l-2.092-2.789l-9.773-2.789c2.086-7.685,4.188-13.27,7.68-15.371
				l2.095-2.789l0,0l-1.399-2.787c-4.883-4.896-7.679-10.477-9.076-17.458l7.687-4.896l2.085-2.789l-0.693-9.078L278.951,308.871z"
				/>
		</g>
	</g>
	<g>
		<g>
			<path d="M292.919,326.329l-10.476,0.702c-2.789,2.094-5.578,4.89-6.281,8.382c-0.702,4.187,0,7.679,1.398,10.474
				c2.094,3.492,4.883,5.586,8.375,6.287l10.474-0.701c3.491-2.094,4.896-4.195,6.287-8.381c1.396-4.188,0.695-7.679-1.392-10.476
				C299.9,329.82,297.111,327.031,292.919,326.329z M285.24,331.921l6.285-0.696l4.884,4.188c1.405,2.094,1.405,3.489,1.405,6.287
				l-4.194,4.882l-6.279,0.695c-2.101-0.695-3.493-2.086-4.897-3.49l-1.391-4.885C281.053,336.107,282.443,334.014,285.24,331.921z"
				/>
		</g>
	</g>
	<g>
		<g>
			<path d="M283.848,331.921c0.694-1.397,0.694-2.796-0.701-3.491l-13.264-6.982c-2.102-1.398-3.49-0.696-4.193,1.392
				c-0.703,1.404-0.703,2.795,0.703,3.491l13.965,6.982C281.747,334.014,283.146,334.014,283.848,331.921z"/>
		</g>
	</g>
	<g>
		<g>
			<path d="M268.477,359.157l1.406-0.702l12.561-9.076c-1.391,0-2.086,0-3.491-1.398c-1.39-0.703-1.39-2.789,0.702-3.491
				l-13.262,9.772c-0.703,1.404-0.703,2.797,0,4.193C266.393,358.455,267.087,359.157,268.477,359.157z"/>
		</g>
	</g>
	<g>
		<g>
			<path d="M297.111,308.871c-2.094-1.393-2.788-0.696-4.192,0.703c-1.394,2.789-1.394,6.982-1.394,13.966
				c0,2.093,0.695,3.491,2.798,3.491c2.086,0,2.788-1.398,2.788-3.491c0-5.586,0.703-9.772,0.703-11.177
				C299.205,310.275,298.51,308.871,297.111,308.871z"/>
		</g>
	</g>
	<g>
		<g>
			<path d="M301.306,329.82c-1.404,0-2.796,0.703-2.796,2.796l1.392,2.102l1.404,0.695l13.265,1.392l3.489-2.791
				c0-2.093-1.396-2.789-2.788-3.49L301.306,329.82z"/>
		</g>
	</g>
	<g>
		<g>
			<path d="M295.714,347.98c0-2.094-1.391-2.789-2.795-2.789c-2.088,0-2.79,0.695-2.79,2.789l0.702,4.89l2.789,9.778
				c0.702,2.088,2.094,2.088,4.194,0.695c1.391-0.695,2.086-1.396,0.694-3.492c-0.694-2.1-1.397-4.889-2.101-7.679L295.714,347.98z"
				/>
		</g>
	</g>
	<g>
		<g>
			<path fill="#D96038" d="M249.629,500.903l-8.381,1.405l-7.686-11.88l-4.883-5.578l-9.082,7.68l-11.172-4.187
				c-2.093,5.575-4.188,13.965-4.883,24.439c-5.593,2.087-11.177,4.882-16.762,7.679l-6.288,4.187l6.288,10.476l-5.592,11.17
				c4.896,5.592,11.177,10.477,19.558,12.575c-2.103,6.981-1.397,13.966,2.093,23.745l11.873-2.795l9.076,8.374
				c4.891-2.79,9.773-7.68,14.669-16.055c5.578,2.789,11.17,4.188,17.458,5.578l3.491-11.171l10.475-4.187
				c-0.702-6.288-2.796-11.17-6.288-16.764l-4.187-5.585c4.883-2.789,9.067-6.981,11.17-11.871l2.796-6.982l-6.982-6.983v-13.271
				C262.197,500.208,255.917,500.208,249.629,500.903z"/>
		</g>
	</g>
	<g>
		<g>
			<path d="M218.9,488.345l-9.076-3.493c-2.789,0-3.49,0-4.194,2.087c-2.086,3.491-3.489,10.476-5.578,23.745
				c-4.896,2.102-9.778,4.188-15.371,7.68l-6.28,4.193l-1.398,2.093l0.695,2.102l4.194,8.374l-4.194,9.778v1.392l0.703,2.101
				c4.889,5.587,11.176,10.476,18.855,13.271l-1.398,4.882c0,6.288,1.398,11.873,3.494,17.458c1.396,1.398,2.789,2.101,4.192,2.101
				l10.476-2.796l6.981,6.983c0.694,1.391,2.789,2.093,3.492,1.391c5.577-2.788,10.475-6.982,14.661-15.356l16.763,4.884l3.491-2.79
				l2.789-9.076l9.074-3.492l2.103-3.49l0,0c-0.702-9.084-4.192-16.066-9.083-21.646l9.777-11.879l2.797-6.28v-1.397l-0.703-2.095
				l-6.279-6.279v-11.881c0-2.085-0.701-3.49-2.796-3.49l-24.44,1.405l-6.982-10.475l-4.188-6.288h-4.896L218.9,488.345z
				 M218.205,496.022l3.49-0.695l6.289-5.592c4.884,5.592,8.373,10.473,10.475,13.965c0,2.101,2.088,2.795,3.491,2.101l6.983-0.703
				l13.965-0.7v9.777l0.695,2.102l6.288,6.28c-2.796,6.28-6.983,11.178-11.881,14.667l-2.085,2.087v0.702l1.391,2.096l3.491,5.591
				c2.101,3.492,4.187,7.679,5.593,12.562l-8.39,2.796l-2.085,2.796l-2.102,7.68l-13.965-4.188
				c-1.393-1.396-3.492-1.396-4.884,0.695c-2.796,6.287-6.983,10.476-11.178,13.271l-6.28-6.288l-3.49-0.695l-9.084,2.094
				c-1.392-4.192-2.095-8.381-2.095-11.873c0-2.093,0-4.187,0.703-5.584l0.694-2.094l-0.694-1.398l-1.403-1.397
				c-6.283-2.796-11.867-6.286-16.758-11.17l4.194-7.68l0.694-2.1l-1.396-1.391l-3.492-7.688c6.281-4.889,12.568-7.685,18.855-9.771
				l2.797-3.491c0.695-8.388,2.087-15.371,3.49-19.561L218.205,496.022z"/>
		</g>
	</g>
	<g>
		<g>
			<path d="M235.663,526.75l-10.476-2.102c-4.188,1.397-6.982,3.492-8.381,6.288c-1.397,2.797-2.094,4.884-2.094,6.981v3.493
				c1.393,3.49,3.491,6.981,6.287,8.374l10.477,2.1l9.069-6.982c1.403-2.795,2.099-6.287,1.403-10.475
				C241.248,530.937,238.459,528.142,235.663,526.75z M221.001,540.716c-0.701-2.797-0.701-4.896,0.694-6.981l4.885-3.492
				l6.288,0.694c2.1,1.392,2.795,2.798,3.489,4.885c0.695,2.795,0.695,4.896-0.694,6.287c-0.695,2.1-2.795,3.489-4.89,4.187
				l-6.28-1.392C222.393,544.207,221.001,542.107,221.001,540.716z"/>
		</g>
	</g>
	<g>
		<g>
			<path d="M220.3,534.429c0-1.397-0.702-2.797-2.79-2.797l-15.369,0.695c-1.393,0-2.789,1.406-2.789,2.797
				c0,2.1,1.396,2.795,2.789,2.795l15.369-0.695C219.598,537.224,220.3,536.521,220.3,534.429z"/>
		</g>
	</g>
	<g>
		<g>
			<path d="M221.695,547.698l-5.59,14.662c-1.393,2.094,0,3.49,1.403,3.49c2.089,0.695,2.79,0,3.491-1.396l6.281-15.363
				c-0.702,2.101-2.094,2.795-3.492,2.101C221.695,550.487,221.695,549.091,221.695,547.698z"/>
		</g>
	</g>
	<g>
		<g>
			<path d="M223.088,509.987c0-2.101-1.393-2.796-3.49-2.796c-2.088,0.695-2.088,2.102-2.088,3.491l2.79,6.982l2.788,5.592
				c0.702,2.087,1.405,2.087,3.492,1.392c1.404-1.392,1.404-2.093,1.404-4.187L223.088,509.987z"/>
		</g>
	</g>
	<g>
		<g>
			<path d="M251.02,519.768c-1.391-2.102-2.086-2.798-4.186-1.404l-11.866,5.591c-1.403,0.695-2.1,2.094-1.403,3.492
				c0.701,2.094,1.403,2.796,3.49,1.392l11.879-5.579C251.02,522.557,251.02,521.158,251.02,519.768z"/>
		</g>
	</g>
	<g>
		<g>
			<path d="M238.459,542.107c-0.702-0.695-2.796-1.393-3.491-0.695c-2.1,0.695-2.796,2.795-1.403,3.49l2.795,4.188l7.679,6.981
				c1.405,1.397,2.101,1.397,3.491-0.695c1.404-1.396,1.404-2.796-0.694-3.491l-5.586-6.288L238.459,542.107z"/>
		</g>
	</g>
	<g>
		<g>
			<path fill="#D96038" d="M248.934,450.633l-7.686,2.795l2.789,12.563l-8.374,8.388c2.796,4.882,8.374,9.069,16.762,13.967
				c-2.796,5.575-4.192,11.863-4.896,18.15l11.178,2.798l4.889,10.475c9.778-2.102,16.762-5.593,21.646-11.178
				c5.591,7.687,11.87,11.873,19.557,13.264l6.983-7.679h13.264c0.702-4.882,0-10.475-0.702-16.762l-2.088-8.373l17.459-13.271
				l-8.389-9.077l3.492-11.177l-15.357-3.491h-9.084l-8.374-16.756l-4.186-6.279l-10.476,6.279l-10.476-5.585
				c-6.287,6.288-10.475,13.271-13.271,20.949C260.104,449.235,255.214,449.235,248.934,450.633z"/>
		</g>
	</g>
	<g>
		<g>
			<path d="M261.494,446.445l-14.66,1.391l-7.68,2.103c-0.695,0.694-1.397,2.086-1.397,3.489v0.696l2.79,10.475l-6.982,6.982
				l-1.393,2.797l0.696,1.392c2.1,4.187,7.679,9.082,15.362,13.967c-2.094,5.592-3.492,11.168-4.193,16.064v0.694
				c0,1.393,1.404,2.798,2.797,3.492l9.083,2.797l4.187,8.374c0.695,2.1,2.095,2.1,3.492,2.1c9.076-1.403,16.059-4.896,21.646-9.778
				c5.591,6.288,11.87,9.778,18.854,11.865c0.703,0,2.096,0,2.79-1.392l6.287-6.287h11.873l3.491-3.491v-4.882l-2.789-18.863
				l10.474-7.678l5.579-4.883l1.404-2.101l-0.702-2.797l-6.982-6.981l2.788-9.069v-1.405c0-2.088-0.694-2.789-2.087-3.491
				l-23.744-3.491l-7.679-16.054l-4.896-6.286l-4.188-0.697l-8.373,5.579l-9.779-4.188l-3.492,0.695
				C269.182,432.479,264.984,439.462,261.494,446.445z M265.688,453.428l1.398-2.1c2.796-6.287,5.585-11.866,9.778-16.762
				l9.771,3.49h2.789l7.686-4.884c4.194,6.983,7.687,13.271,9.772,19.553l3.491,2.789l20.253,2.102l-2.795,8.374v0.701l1.404,2.79
				l5.579,5.592l-13.968,10.474c-1.391,0.696-2.086,1.392-2.086,3.493v0.695l1.392,6.287l1.397,13.271v1.391h-9.771l-2.796,1.397
				l-5.593,5.585c-6.28-1.391-11.171-5.585-15.356-11.171l-2.1-1.397c-1.395,0-2.089,0.703-2.791,0.703
				c-4.193,4.883-10.474,7.679-17.457,9.772l-3.49-7.687l-2.789-2.087l-7.687-2.101c0.702-6.287,2.789-11.17,4.194-13.965v-1.392
				l-1.405-3.493c-6.28-2.795-10.475-6.286-13.965-10.474l5.591-6.287l1.393-2.101v-1.393l-2.088-9.083
				c6.982-2.789,13.266-3.492,17.457-2.088h2.791V453.428z"/>
		</g>
	</g>
	<g>
		<g>
			<path d="M272.672,477.869l0.702,3.492c0,3.489,2.788,6.982,6.28,8.374l10.475,0.693c3.491-0.693,6.28-2.788,7.688-6.278
				c2.085-2.789,2.787-6.281,1.39-10.477c-1.39-4.192-3.491-6.279-6.286-8.38l-10.477-1.393c-3.491,1.393-6.28,3.492-8.373,6.982
				C273.374,472.973,272.672,475.073,272.672,477.869z M288.035,485.547l-5.592-0.695l-4.188-4.896
				c-0.694-2.086-0.694-4.187,0.695-6.28c1.405-2.094,2.796-3.49,4.896-4.192l6.281,0.702l4.193,4.89c0,2.796,0,4.882-0.702,6.288
				L288.035,485.547z"/>
		</g>
	</g>
	<g>
		<g>
			<path d="M290.831,450.633c0-1.396-0.702-2.101-2.796-2.101c-1.398,0-2.1,1.404-2.1,2.796l0.7,14.662
				c0,2.101,0.704,3.491,2.789,3.491c1.405,0,2.101-1.392,2.101-3.491L290.831,450.633z"/>
		</g>
	</g>
	<g>
		<g>
			<path d="M261.494,465.99c-2.086-0.695-2.787,0-3.492,1.404c-0.693,2.087,0,2.789,1.406,3.49l15.355,5.579
				c-1.391,0-2.093-2.087-1.391-3.492c0-1.392,1.391-2.087,2.788-2.087L261.494,465.99z"/>
		</g>
	</g>
	<g>
		<g>
			<path d="M315.968,467.396c0-1.404-0.696-2.797-2.797-2.101c-4.187,0.695-8.374,2.796-12.567,5.591
				c-2.094,1.393-2.094,2.087-0.702,3.492c0.702,2.087,1.404,2.087,3.491,1.392l10.476-4.884
				C315.968,470.886,316.663,469.481,315.968,467.396z"/>
		</g>
	</g>
	<g>
		<g>
			<path d="M300.604,483.447c-0.702-2.086-2.094-2.086-3.492-1.392c-2.092,0.695-2.092,1.392-1.396,3.49l5.592,11.866
				c1.392,1.405,2.788,2.101,4.188,1.405c2.093-0.704,2.093-2.101,1.391-3.491L300.604,483.447z"/>
		</g>
	</g>
	<g>
		<g>
			<path d="M269.883,497.413l3.491-1.391l5.577-5.594l3.492-2.788c1.404-0.704,1.404-2.79,0.701-4.193l-4.193-0.695l-3.491,2.795
				l-6.983,7.678C267.087,495.327,267.781,496.022,269.883,497.413z"/>
		</g>
	</g>
	<g>
		<g>
			<path fill="#D96038" d="M42.232,149.667l6.983,9.07l-4.195,11.88c6.288,5.578,13.967,9.069,21.652,10.474
				c-1.397,6.28,0,13.966,4.89,23.036l11.866-4.882l9.083,7.678c4.882-2.796,9.077-9.076,12.568-18.153l18.855,3.491l2.094-11.17
				l9.772-5.592c-1.391-5.585-4.187-11.17-8.375-16.06l-4.889-4.89c6.982-5.584,10.474-12.567,11.873-19.551l-8.381-6.983
				l-0.703-12.568l-16.755,2.094l-9.077,2.093l-8.381-10.474l-5.584-5.585l-8.381,9.077l-11.177-2.795
				c-2.087,5.591-2.79,13.965-2.087,25.142C55.496,138.49,47.817,143.379,42.232,149.667z"/>
		</g>
	</g>
	<g>
		<g>
			<path d="M137.901,134.999l-1.398-3.491l-6.983-5.585l-0.702-11.17c-0.695-2.101-2.086-2.796-3.491-2.796
				c-6.281-0.696-13.966,0.695-23.738,3.491l-9.077-9.778l-4.89-4.187h-4.89l-6.287,6.982l-9.772-2.101
				c-2.093-0.695-3.492,0.703-4.193,2.101c-1.392,4.187-2.79,10.475-2.79,19.551v4.89c-7.686,3.491-14.669,9.076-19.551,13.965
				l-1.397,2.796l0.702,2.087l5.578,7.685l-3.491,9.772v1.405l1.404,2.789c5.578,4.89,12.562,8.381,20.247,10.475v1.398
				c0,6.288,1.398,13.271,5.586,20.254c0.695,2.086,1.397,2.086,4.187,2.086l9.778-4.187l7.679,6.288h4.193
				c4.89-2.796,8.382-8.381,12.569-16.066l16.761,2.1l3.492-2.796l1.391-9.077l9.084-5.584l1.391-2.796v-0.695
				c-2.79-8.382-6.281-15.364-11.866-20.254C133.011,148.965,136.502,141.982,137.901,134.999L137.901,134.999z M52.706,158.737
				l-0.702-2.087l-4.883-6.288c5.585-5.591,11.866-9.778,18.154-12.575l2.1-2.789l-0.702-6.983l2.094-13.966l7.678,1.398h3.492
				l5.592-6.983l11.865,13.271c0.703,1.391,2.101,2.086,4.195,1.391l6.28-2.093l13.966-2.094l0.703,9.076
				c0,1.398,0.703,2.094,1.397,2.789l6.983,5.592c-1.398,5.585-4.889,11.17-10.475,16.06l-1.397,2.093l0,0l1.397,2.796l4.188,4.188
				l6.983,12.574l-7.679,3.492l-1.397,2.789l-1.398,8.381l-14.661-2.796c-2.101-1.392-3.491-0.696-4.889,1.397
				c-2.094,6.984-4.89,11.177-9.077,14.669l-6.983-4.896l-2.796-0.696l-9.077,2.796c-2.79-4.889-3.491-9.083-3.491-13.966v-3.492
				v-0.695v-1.405l-2.79-2.087c-6.287-1.404-12.575-4.194-18.159-8.388l3.491-9.07v-1.403H52.706z"/>
		</g>
	</g>
	<g>
		<g>
			<path d="M97.393,144.075l-10.474-0.696c-3.491,2.094-6.28,4.188-7.678,7.679l-1.391,5.592c0,6.281,2.789,9.772,8.374,12.562
				l10.475,0.702l7.678-7.685c2.101-3.492,2.101-6.982,0.703-10.474C102.986,148.262,100.885,145.473,97.393,144.075z
				 M84.13,153.854c1.398-2.796,2.789-3.492,4.89-4.889h5.584l4.89,4.889c0.696,2.094,0.696,4.187,0,6.288l-4.89,4.187
				c-2.093,1.392-4.193,1.392-6.28,0l-4.194-4.889C83.428,157.346,83.428,155.246,84.13,153.854z"/>
		</g>
	</g>
	<g>
		<g>
			<path d="M83.428,153.854l-3.491-2.1l-14.662,2.1c-2.094,0-2.796,1.392-2.796,3.492c0.702,2.094,1.404,2.094,3.491,2.094
				l14.668-2.094C82.732,157.346,83.428,155.948,83.428,153.854z"/>
		</g>
	</g>
	<g>
		<g>
			<path d="M87.622,183.88l4.194-16.059c-0.703,2.093-1.405,2.093-3.492,2.093c-1.405,0-2.101-2.093-1.405-3.492l-4.882,15.364
				c0,2.094,0.695,3.492,2.093,3.492L87.622,183.88z"/>
		</g>
	</g>
	<g>
		<g>
			<path d="M82.732,129.414c0-1.398-2.093-2.796-3.491-2.101c-2.094,0.703-2.094,2.101-2.094,3.492l6.983,12.575h3.492
				c2.094-1.397,2.094-2.1,1.398-3.491C85.528,134.999,83.428,131.508,82.732,129.414z"/>
		</g>
	</g>
	<g>
		<g>
			<path d="M111.359,135.701c-1.391-2.101-2.789-2.101-3.492-0.703l-11.865,6.983c-1.399,1.397-1.399,2.093-0.696,3.491
				c0.696,1.397,2.086,2.094,4.187,1.397l10.474-6.982C112.063,138.49,112.063,137.092,111.359,135.701z"/>
		</g>
	</g>
	<g>
		<g>
			<path d="M101.588,159.439h-3.492c-1.398,0.702-2.093,2.094-0.703,3.492l3.492,3.491l7.686,6.281
				c2.093,0.702,3.492,0.702,4.194-1.391c0.695-1.398,0.695-2.101-1.405-3.491c-2.086-1.399-4.187-2.796-6.28-4.89L101.588,159.439z
				"/>
		</g>
	</g>
	<g>
		<g>
			<path fill="#FF0000" d="M275.46,88.211H153.258c2.1,41.203,0.702,90.78-6.281,147.339
				c-13.263,113.134-43.991,207.404-90.779,282.116l138.263,4.188c39.805-67.729,64.947-159.906,75.422-277.916
				C276.162,185.278,277.563,132.906,275.46,88.211z"/>
		</g>
	</g>
	<g>
		<g>
			<path d="M153.258,84.72l-2.79,1.398c-0.702,0-0.702,1.397-0.702,2.093c2.1,42.594,0,92.177-6.281,148.745
				c-13.966,112.423-43.991,205.999-90.077,279.32c-0.703,0.693-0.703,2.087-0.703,3.491l3.492,1.392l138.263,4.187l2.795-1.392
				c39.798-67.032,64.94-159.913,76.118-277.227c6.279-59.355,7.679-111.728,5.577-158.516c0-2.093-2.087-3.491-3.491-3.491
				L153.258,84.72L153.258,84.72z M156.75,91.703h115.219l0.703,30.729c0,62.151-4.195,122.202-13.264,180.16
				c-13.271,88.686-35.618,161.313-67.041,215.771l-129.888-4.188c37.015-60.747,63.549-134.771,78.913-222.058
				c10.474-56.567,16.06-114.518,16.06-171.787L156.75,91.703z"/>
		</g>
	</g>
	<g>
		<g>
			<path d="M183.29,134.999l8.374,1.398h15.371l-11.178,38.407c-13.264,0.695-20.247,2.795-20.948,7.679v1.397
				c0,3.491,1.398,6.983,2.789,9.772c2.101,3.491,4.194,5.592,6.982,6.982c3.492,0.703,5.591,0,7.687-2.789l8.381-17.458h39.799
				l16.064,0.703c2.096,0,2.797-0.703,2.797-2.795c0-1.399-0.701-2.796-2.797-2.796l-16.064-0.695h-38.406l11.879-41.898v-0.696
				l-0.703-2.101l-2.789-0.695l-16.762,1.391l-9.084-1.391c-1.391,0-2.788,0-3.49,2.094
				C181.19,132.906,181.893,133.601,183.29,134.999z M182.595,190.863c-1.404-2.789-2.1-4.889-2.1-6.983l0.696-0.702l13.271-2.79
				l-5.586,13.967l-2.093,0.702L182.595,190.863z"/>
		</g>
	</g>
	<g>
		<g>
			<path d="M237.757,153.158c-2.094,0-2.789,0.696-2.789,2.79c-0.702,17.458-4.896,31.423-13.967,41.898
				c-0.701,1.398-0.701,3.492,0,4.194l4.188-0.702c9.778-11.177,14.662-26.534,15.357-45.39L237.757,153.158z"/>
		</g>
	</g>
	<g>
		<g>
			<path d="M211.223,222.287c-1.397,0-2.101,0.702-2.796,2.789l-6.286,36.319H183.29c-2.1,2.087-2.795,4.883-2.1,9.07
				c2.1,5.591,4.192,8.388,9.082,8.388c2.096,0,5.586-0.702,9.078-3.492l6.279-6.983c7.688,2.79,14.67,5.578,18.863,7.678H218.9
				c-1.392,0-2.795,1.391-2.795,2.796c0,2.086,0.701,2.789,2.1,2.789c9.077,0.702,13.271,0,13.967-3.491v-0.703
				c0-2.789-1.398-4.188-4.188-6.28l-20.949-7.686l6.982-37.704l0,0C214.02,223.684,213.316,222.989,211.223,222.287z
				 M186.782,268.378v-2.796l12.567,1.392c-2.789,4.194-5.584,6.287-9.078,6.287C188.875,273.261,187.479,271.87,186.782,268.378z"
				/>
		</g>
	</g>
	<g>
		<g>
			<path d="M210.525,231.363c-1.403-0.695-3.49,0.696-3.49,2.101c0,2.086,0,2.789,2.087,3.492l5.592,1.39l13.271,2.101
				c1.392,0,2.789-0.703,2.789-2.796c0-1.398-0.701-2.796-2.789-2.796L210.525,231.363z"/>
		</g>
	</g>
	<g>
		<g>
			<path d="M169.324,277.448c-1.398-2.086-2.101-2.789-4.187-1.391c-1.405,0.696-2.101,2.094-0.702,3.492l1.397,4.883l2.094,10.475
				c0.702,4.192,0,13.965-2.094,26.54c-1.397,13.967-4.187,23.744-6.983,30.025c-2.796,8.381-1.398,16.754,3.491,23.737
				c3.492,5.593,8.375,8.388,13.966,8.388c8.374,0,16.762-4.192,26.534-11.879c9.077-8.373,16.758-18.849,22.348-30.722
				c0.696-1.397,0-2.789-1.397-3.49c-2.095-0.702-2.789-0.702-3.49,0.701c-5.586,11.867-12.569,20.949-20.948,28.628
				c-8.383,6.982-16.062,11.17-23.043,11.17c-3.492,0-6.983-2.093-9.083-5.585c-4.187-6.28-4.883-12.567-2.789-18.159l6.982-32.119
				c2.094-13.271,2.789-23.043,2.789-27.933l-2.789-12.568L169.324,277.448z"/>
		</g>
	</g>
	<g>
		<g>
			<path d="M177.698,420.6c-8.374-4.187-16.755-4.187-26.527-0.695c-7.686,2.797-14.668,7.68-18.862,13.968
				c-4.883,6.286-4.883,11.872-1.391,16.066c2.093,2.086,3.492,2.788,6.287,2.086c6.281,0,16.053-9.069,27.23-26.528l0.702-2.099
				l-0.702-0.696l11.176,2.795c7.679,3.493,11.171,9.071,11.171,16.055v2.101c0,6.982-3.492,13.271-10.475,18.849
				c-6.983,6.983-15.364,11.88-27.236,13.967c-1.392,0-2.094,1.404-2.094,2.795v0.695c0,1.406,1.398,2.102,3.491,2.102
				c12.568-3.491,22.347-8.382,30.722-16.065c6.982-6.282,10.474-13.967,11.177-20.949
				C193.766,433.174,188.875,424.794,177.698,420.6z M136.502,446.445h-2.093v-2.796c0-2.101,0.695-4.188,2.093-6.982
				c5.585-6.983,13.264-11.172,22.347-12.575C149.767,438.76,141.392,446.445,136.502,446.445z"/>
		</g>
	</g>
	<g>
		<g>
			<path fill="#858585" d="M251.723,37.236l15.364-2.093c10.476-3.492,16.06-13.271,16.06-27.932
				c-14.67-0.695-24.438,4.188-29.33,13.966L251.723,37.236z"/>
		</g>
	</g>
	<g>
		<g>
			<path d="M285.936,7.211c0-1.397-1.394-2.796-2.789-2.796c-11.873-0.695-20.948,2.101-27.229,8.381
				c-3.492,4.89-6.288,9.771-6.983,16.059v8.381c0,2.094,0.695,2.789,2.086,2.789l8.39,0.703c6.983-1.398,12.562-3.492,16.754-6.983
				C282.443,28.16,285.936,19.076,285.936,7.211z M254.512,35.143c0-7.679,1.405-13.966,5.592-18.153
				c4.883-4.193,10.476-6.982,19.551-6.982c0,9.069-2.788,15.356-6.981,18.848C268.477,33.043,262.197,35.143,254.512,35.143z"/>
		</g>
	</g>
	<g>
		<g>
			<path fill="#858585" d="M352.977,303.295c11.178-2.797,17.456-11.178,18.855-25.847c-13.966-2.789-24.44,0.703-30.033,10.475
				c-3.492,4.194-4.883,9.779-4.883,14.668L352.977,303.295z"/>
		</g>
	</g>
	<g>
		<g>
			<path d="M334.12,302.591c0,2.095,0.696,2.789,2.1,3.49c9.773,2.79,17.458,1.397,25.138-3.49
				c6.982-4.889,11.865-13.264,13.271-24.44c0-2.094,0-3.492-2.1-3.492c-11.866-2.094-20.949,0-27.236,4.889
				c-4.883,3.492-8.375,9.077-9.772,14.662L334.12,302.591z M348.782,284.432c4.896-4.188,11.177-5.579,19.558-4.883
				c-1.396,9.077-4.187,15.358-9.777,18.85c-4.885,2.795-11.866,4.192-18.85,2.101C340.408,293.515,343.203,287.923,348.782,284.432
				z"/>
		</g>
	</g>
	<g>
		<g>
			<path fill="#858585" d="M341.799,470.886c7.686,7.68,18.16,9.069,32.127,3.492c-5.586-13.966-13.265-20.95-24.441-20.95
				l-15.363,3.493L341.799,470.886z"/>
		</g>
	</g>
	<g>
		<g>
			<path d="M332.729,454.124c-0.701,1.392-1.404,2.094-1.404,2.797c0,2.086,1.404,4.188,3.492,8.374
				c2.795,5.591,6.981,9.778,11.879,12.574l27.932-1.404c2.087,0,2.087-1.392,2.087-3.492
				c-4.187-10.475-10.474-18.151-18.848-20.948l-17.458-1.392C336.22,452.023,333.425,453.428,332.729,454.124z M369.731,472.277
				l-20.248,0.694c-5.585-2.788-9.771-7.678-12.567-15.355l19.551-0.695C361.356,459.007,366.24,463.902,369.731,472.277z"/>
		</g>
	</g>
	<g>
		<g>
			<path fill="#858585" d="M304.797,66.566c-6.98-12.575-16.762-18.855-27.932-16.762l-13.967,6.288l9.772,12.568
				C281.053,74.941,291.525,74.245,304.797,66.566z"/>
		</g>
	</g>
	<g>
		<g>
			<path d="M306.884,65.169c-5.578-9.772-12.561-16.06-20.948-18.16c-5.578-1.391-11.865,0-17.459,2.101l-7.678,4.187
				c-1.391,1.397-1.391,2.101-1.391,3.491l4.883,7.679c4.186,5.592,9.083,8.388,13.965,9.779c8.381,2.796,17.458,1.398,27.237-4.883
				L306.884,65.169z M300.604,65.871c-8.381,4.187-14.668,4.883-20.246,3.491c-6.287-2.1-10.475-6.287-13.965-12.575
				c6.279-4.187,11.863-5.585,17.455-4.187C290.129,53.992,295.714,58.185,300.604,65.871z"/>
		</g>
	</g>
	<g>
		<g>
			<path fill="#858585" d="M84.13,25.364c-0.702-11.17-8.381-18.153-22.347-23.042c-5.585,13.965-3.492,24.439,4.889,32.125
				c4.193,4.188,9.077,6.281,13.966,6.984C83.428,37.236,84.13,31.651,84.13,25.364z"/>
		</g>
	</g>
	<g>
		<g>
			<path d="M83.428,42.822c4.194-9.077,4.194-17.458,0.702-25.136C81.341,9.305,73.655,3.72,62.479,0.228
				c-1.392-1.398-2.79,0-3.492,1.391C54.8,12.796,54.8,21.873,59.689,29.551c3.491,7.685,10.475,12.575,20.949,14.668
				C82.037,44.22,82.732,44.22,83.428,42.822z M79.937,19.779l0.702,8.381l-1.398,10.475c-7.679-3.492-12.568-6.984-14.662-11.873
				c-2.1-3.491-2.796-6.28-2.796-10.474l1.397-9.772C72.258,9.305,77.147,14.194,79.937,19.779z"/>
		</g>
	</g>
	<g>
		<g>
			<path fill="#858585" d="M57.596,551.19c-11.872,0.694-19.558,7.679-23.745,21.645c13.966,5.585,24.44,4.188,32.119-4.188
				l6.983-14.667C68.767,551.886,63.181,551.19,57.596,551.19z"/>
		</g>
	</g>
	<g>
		<g>
			<path d="M75.749,554.682c0.696-1.404,0-2.796-1.391-2.796c-8.388-4.188-17.458-4.889-25.846-2.1
				c-7.679,3.49-13.966,11.177-17.457,22.354c-0.696,1.392,0,2.789,2.1,3.491c11.17,4.188,20.254,4.188,27.933,0
				C69.462,571.437,73.655,564.454,75.749,554.682z M38.038,571.437c3.492-8.381,7.686-13.966,13.27-16.06h18.856
				c-2.79,7.679-6.983,12.569-11.873,15.357L38.038,571.437z"/>
		</g>
	</g>
	<g>
		<g>
			<path fill="#858585" d="M45.021,269.074c-9.069,5.585-12.561,16.06-10.474,30.025c14.669-1.396,23.745-7.685,26.541-18.855
				l-0.696-16.059L45.021,269.074z"/>
		</g>
	</g>
	<g>
		<g>
			<path d="M63.181,263.482l-2.79-2.087l-8.387,2.087c-6.28,1.404-11.17,4.194-14.662,8.387c-5.585,7.679-6.983,16.755-4.883,27.933
				c0,2.085,1.392,2.788,3.492,2.788c11.17-2.093,19.544-6.279,23.738-13.966c3.491-4.193,4.89-9.772,4.89-16.755L63.181,263.482z
				 M37.342,290.719c0-5.586,0.696-11.171,4.188-14.663c3.491-4.889,9.778-7.678,16.762-8.38l0.696,5.584
				c0,4.89-0.696,9.083-3.492,12.575c-2.79,4.883-9.772,8.374-18.153,9.771L37.342,290.719L37.342,290.719z"/>
		</g>
	</g>
	<g>
		<g>
			<path fill="#D96038" d="M89.715,301.191l-16.06,13.271c-8.38,10.475-6.983,17.458,2.79,20.95
				c10.474,4.187,15.371-0.695,16.066-13.271L89.715,301.191z"/>
		</g>
	</g>
	<g>
		<g>
			<path d="M91.113,298.396l-2.789,0.703c-16.066,11.176-23.745,20.947-23.049,28.633c0.695,4.188,4.187,7.681,10.474,10.476
				l13.966-0.701c4.187-3.493,5.592-10.476,4.889-20.948l-2.093-16.061L91.113,298.396z M77.147,333.313
				c-3.492-2.088-5.585-3.49-6.281-6.28l0,0c0-5.585,5.579-12.568,16.756-20.95l2.094,13.967c0,6.983-1.391,11.178-3.492,13.264
				C84.13,334.718,81.341,334.718,77.147,333.313z"/>
		</g>
	</g>
	<g>
		<g>
			<path d="M102.986,267.676c-1.398-0.703-3.492,0-3.492,1.397l-11.873,30.729c-1.398,2.085-0.703,3.492,1.398,3.492
				c1.391,0.694,2.796,0.694,3.492-0.704l12.568-31.423C105.079,269.074,105.079,267.676,102.986,267.676z"/>
		</g>
	</g>
</g>
<path id="PATH77" fill="none" stroke="#000000" stroke-width="3" stroke-miterlimit="100" d="M370.59,585.26H3.92V2.74h366.67
	V585.26L370.59,585.26z"/>
</svg>
