<?xml version="1.0" encoding="utf-8"?>
<!-- Generator: Adobe Illustrator 13.0.0, SVG Export Plug-In . SVG Version: 6.00 Build 14948)  -->
<!DOCTYPE svg PUBLIC "-//W3C//DTD SVG 1.1//EN" "http://www.w3.org/Graphics/SVG/1.1/DTD/svg11.dtd">
<svg version="1.1" id="圖層_1" xmlns="http://www.w3.org/2000/svg" xmlns:xlink="http://www.w3.org/1999/xlink" x="0px" y="0px"
	 width="372px" height="587px" viewBox="0 0 372 587" enable-background="new 0 0 372 587" xml:space="preserve">
<g>
	<g>
		<path fill="#858585" d="M326.002,106.543c-2.718,0-4.753,2.029-7.471,4.071c-3.396,3.394-4.755,6.112-4.755,9.508l-6.789,126.957
			c-0.678,13.578-4.07,25.121-10.186,37.341l-21.721,31.229l-2.718-126.279l-6.79,2.718c-4.07,2.036-6.113,4.748-6.789,8.143
			c-2.72,67.895-3.396,114.745-3.396,137.829c-25.121,28.512-60.429,65.176-105.913,109.309
			c-48.885,48.202-78.079,73.331-85.551,76.043c-8.148,2.036-20.369,0-36.659-6.789l-22.41-11.543l-4.071,40.735
			c6.113,4.07,12.902,7.466,21.044,10.859c16.297,6.791,30.553,8.832,42.096,6.791c16.297-2.03,56.351-38.695,121.534-109.307
			c38.018-42.091,72.646-82.15,103.876-120.853c8.825-10.184,16.974-22.404,24.439-36.658c8.832-15.621,12.902-28.522,12.902-38.708
			l0.675-68.57l2.043-59.746C330.073,114.008,328.714,106.543,326.002,106.543z"/>
	</g>
</g>
<g>
	<g>
		<path d="M330.073,105.177l-4.071-2.029c-4.077,0-7.471,2.712-11.543,6.79c-2.035,3.395-4.077,6.106-4.077,8.818v3.395
			c0,16.974-2.036,58.394-6.79,124.929c-0.675,10.86-3.395,21.727-8.142,31.229l-16.974,27.157l-2.719-116.096l-0.677-2.718
			l-3.396-0.676c-2.72,0.676-6.112,2.042-8.83,4.071c-4.071,3.395-6.791,6.113-7.467,9.508
			c-2.037,71.289-3.396,114.068-3.396,130.358v6.789c-26.481,29.868-62.466,66.534-107.954,110.666
			c-46.843,46.174-74,70.613-80.79,72.647c-6.79,1.359-16.297,0-29.876-5.43c-9.501-3.396-19.009-7.467-26.474-12.902H3.505
			l-1.359,2.718l-4.754,40.736l1.36,3.396c4.071,3.395,12.219,7.466,22.403,11.537c16.973,6.789,31.229,8.832,43.455,6.789
			c15.614-2.028,50.92-32.581,105.237-90.976c35.981-38.701,76.036-84.866,121.526-139.183l0.684-0.684
			c9.501-10.184,17.648-23.08,24.438-37.342c8.826-16.974,13.579-30.552,13.579-40.737l0.677-67.894l2.043-59.739
			C333.468,116.044,332.108,107.896,330.073,105.177z M319.213,115.361c2.036-2.712,4.071-4.747,6.107-4.747l1.358,10.184
			l-0.678,8.142l-2.041,60.428l-0.677,68.57c0,9.508-4.071,21.734-12.902,37.341c-6.79,14.262-14.932,26.482-23.763,36.666
			l-0.677,0.677C235.02,394.41,190.213,445.33,151.512,485.383c-46.167,48.894-75.366,74.008-87.586,75.374
			c-10.184,1.354-22.404-0.688-35.982-5.438c-8.825-3.396-16.974-7.465-23.763-11.535l4.071-33.271
			c25.122,13.578,44.814,19.001,56.357,15.607c8.825-2.029,38.018-27.835,88.263-76.713c44.808-44.813,79.43-80.798,105.235-109.313
			l0.677-2.035v-8.147c0-21.052,1.358-63.817,3.394-129.682c0.678-2.029,2.719-3.395,6.789-6.107l2.721,121.526l2.035,2.719
			l4.07-1.354l0.684-0.683l21.045-31.236c6.789-11.536,10.184-24.439,10.859-38.017l6.79-124.929v-3.395L319.213,115.361z"/>
	</g>
</g>
<g>
	<g>
		<path d="M326.68,261.333c-1.358-0.676-2.719,0-2.719,0.684c-4.07,12.896-23.764,39.377-58.387,79.438
			c-30.553,35.982-51.598,57.71-61.781,66.535l-32.594,33.265c-59.063,63.146-94.369,96.417-105.236,100.488
			c-9.501,2.718-23.081,1.353-39.377-5.438c-8.825-2.706-16.291-6.791-23.08-10.859c-0.683-0.678-1.359-0.678-2.718,0.676
			c0,1.366,0,2.719,0.676,3.394c7.472,4.085,15.621,8.156,24.446,11.552c16.973,6.112,31.228,7.466,41.413,4.07
			c7.472-2.042,22.404-14.255,45.491-37.342l61.781-63.823l31.911-32.588c10.867-8.824,31.236-31.912,62.463-67.211
			c34.624-40.736,54.316-67.894,59.071-80.797C328.714,262.017,328.039,261.333,326.68,261.333z"/>
	</g>
</g>
<g>
	<g>
		<path fill="#858585" d="M81.584,88.203c-0.684,4.078,3.394,44.132,12.22,120.181c8.148,76.036,14.254,120.843,16.291,135.105
			c2.718,13.579,6.113,23.764,11.543,32.588c4.078,6.791,10.867,14.938,20.369,23.764c7.472,7.466,24.445,19.015,50.92,35.988
			l71.289,46.16c18.333,12.227,42.097,31.919,69.253,59.076l35.983,35.3l4.754-90.298c-25.799-23.764-50.244-42.771-74.008-56.352
			l-78.078-42.778l-64.499-33.946c-6.79-4.071-13.579-12.896-19.01-24.438c-4.753-10.186-8.148-21.045-10.184-32.589l-16.29-112.025
			c-8.149-65.183-12.902-100.482-12.902-104.553c-2.036-5.437-6.114-8.155-11.544-6.79c-3.395,0.676-5.43,2.029-6.106,5.424
			L81.584,88.203L81.584,88.203z"/>
	</g>
</g>
<g>
	<g>
		<path d="M97.198,71.23c-2.718-2.029-6.114-2.712-10.185-2.029c-3.395,0.677-6.113,2.029-7.472,5.424
			c-1.353,1.366-1.353,4.761-1.353,8.156v5.423c-0.683,4.761,3.395,45.498,12.219,122.21c8.826,76.726,14.255,121.533,16.291,133.76
			c2.719,13.578,6.79,25.115,11.544,33.266c4.078,7.472,11.543,16.289,21.051,25.797c9.501,8.148,37.341,27.159,83.508,56.357
			l39.377,25.115c18.334,12.226,41.413,31.912,68.571,58.387l36.666,35.989c0.676,0.676,2.035,1.354,3.395,0.676l2.035-2.719
			l4.754-90.974l-1.358-2.712c-25.798-24.446-50.238-42.778-74.001-56.357l-99.13-54.315l-43.447-23.086
			c-6.789-3.396-12.226-10.859-17.656-22.396c-4.754-9.508-8.149-20.369-10.185-31.919L115.53,183.94
			c-8.832-65.183-12.902-100.482-12.902-104.553l-0.676-1.365L97.198,71.23z M88.373,75.991c2.711,0,5.431,0.676,7.466,4.071
			l14.255,107.271c8.148,63.141,13.579,99.129,14.938,109.313c2.036,11.535,5.43,22.396,10.184,32.58
			c5.431,12.902,12.903,21.734,21.051,26.481l43.449,23.763c50.921,25.807,83.509,44.132,99.129,52.964
			c13.579,8.143,28.511,19.002,45.483,32.581l26.481,22.409l-4.07,81.476c-12.902-13.58-27.157-27.835-42.778-41.413
			c-22.403-21.053-42.09-37.344-58.387-48.209l-39.377-25.121c-46.167-29.877-74.008-48.88-82.156-56.354
			c-8.825-8.825-15.615-16.974-19.685-23.763c-4.754-8.148-8.149-18.333-10.867-31.234c-2.036-13.58-8.142-57.71-16.291-132.395
			c-8.825-73.317-12.22-114.054-12.22-120.843v-6.79l0.676-4.76C86.331,76.667,87.014,75.991,88.373,75.991z"/>
	</g>
</g>
<g>
	<g>
		<path d="M151.513,346.201l-2.035-2.713c-1.359,0-2.042,0.685-2.042,2.713l2.042,7.473c2.711,6.789,6.789,12.896,11.537,19.01
			c5.437,4.754,22.41,15.621,51.604,32.594l37.342,21.722l25.799,16.974c46.166,29.199,78.078,51.598,95.729,66.542h2.719
			c1.359-0.684,0.676-2.043,0-2.719c-11.543-10.184-27.158-21.728-47.525-35.306l-48.203-31.912l-26.48-16.974
			c-4.753-3.396-17.648-10.86-37.342-22.403c-28.517-15.615-44.806-26.475-50.244-31.912c-4.747-4.747-8.142-10.184-10.861-16.297
			L151.513,346.201z"/>
	</g>
</g>
<g>
	<g>
		<path d="M129.11,294.604c-2.042-0.677-2.718,0-2.718,1.359l-0.676,27.84c0,19.687,3.395,33.947,7.465,43.449
			c4.071,7.473,10.861,15.615,21.044,23.079c5.438,4.079,16.974,10.868,32.595,19.692l16.291,10.184
			c15.613,8.832,35.306,21.729,59.068,37.343l45.49,31.912l10.861,8.823c27.156,22.411,44.131,38.708,50.92,49.569l2.718,0.676
			l0.677-2.719c-6.789-11.536-23.763-28.511-52.279-50.244l-10.185-8.817c-7.465-6.114-22.403-16.974-45.483-32.594l-59.752-37.344
			l-16.291-10.184l-32.587-19.011c-8.831-7.472-15.621-14.938-19.692-22.403c-4.071-8.83-6.113-22.41-6.79-42.095l0.676-27.158
			L129.11,294.604z"/>
	</g>
</g>
<g>
	<g>
		<path fill="#D96038" d="M217.372,320.41l-14.263-2.043c-1.358-4.071-2.711-8.143-5.43-11.537
			c-5.431-8.154-12.903-11.55-21.728-12.902c-9.502-0.676-16.291,3.395-21.729,12.22c-3.394,4.078-5.43,9.5-6.789,13.578
			l-11.537,1.358c-8.831,2.037-13.579,8.144-14.262,16.974c-1.359,8.826,2.036,15.615,10.184,21.723l12.22,6.113l63.824-1.354
			c4.07-0.684,8.822-2.719,12.9-5.438c7.467-6.112,11.536-12.902,10.861-21.721C231.628,329.229,226.873,323.122,217.372,320.41z"/>
	</g>
</g>
<g>
	<g>
		<path d="M155.584,298.676c-4.754,4.762-8.148,10.186-10.184,17.656c-6.106-0.684-11.543,0.684-16.291,4.078
			c-6.113,3.395-10.185,8.816-10.867,16.974c-1.359,8.817,0.683,15.607,7.473,22.396c4.747,4.078,10.86,7.474,18.326,9.509
			l64.499-1.353c4.754-0.684,9.508-3.396,13.579-6.789c8.831-5.438,12.902-12.902,12.902-21.735v-2.027
			c0-8.155-4.071-13.579-10.86-17.657c-5.437-2.711-11.543-4.752-19.017-4.752c-1.353-5.433-4.069-9.51-8.142-13.58
			c-5.437-6.113-12.227-9.507-20.369-10.86C167.804,289.857,161.015,292.568,155.584,298.676z M137.251,323.805l10.185-0.683
			c2.042,0,3.395-0.685,3.395-2.712c1.358-4.078,3.394-8.156,5.437-12.229c5.43-8.142,11.537-11.535,19.686-10.859
			c7.472,0.677,14.262,4.748,19.009,11.537l4.754,10.185c0.684,1.366,2.035,2.72,3.395,2.72l12.221,1.358
			c8.831,2.712,12.902,7.472,12.902,14.937v1.354c0,10.186-6.791,16.975-21.045,21.734l-62.463,1.354
			c-3.395-0.678-7.473-2.719-10.867-5.432c-6.789-4.076-9.501-9.5-9.501-15.613l0.676-2.719
			C125.715,331.271,130.462,326.516,137.251,323.805z"/>
	</g>
</g>
<g>
	<g>
		<path fill="#FFF000" d="M150.831,342.807c-3.395,6.113-4.748,10.867-4.748,16.299c10.184,6.111,25.116,8.147,42.089,6.111
			l23.764-5.438c-1.353-5.424-3.396-10.859-6.789-16.973c-6.106-10.861-15.615-16.974-27.159-16.291
			C165.769,326.516,156.267,332.623,150.831,342.807z"/>
	</g>
</g>
<g>
	<g>
		<path fill="#D96038" d="M178.671,368.611c0.676-4.754-0.684-8.148-4.078-12.227c-3.395-3.395-8.143-5.424-13.579-6.105
			c-5.43-0.684-10.184,0-14.932,2.712c-4.077,2.718-6.789,6.112-6.789,10.866c-0.684,4.078,0.676,7.473,4.071,11.543
			s7.466,5.431,13.579,6.789c5.43,0.679,10.185-0.676,14.255-2.719C175.953,376.754,177.988,372.684,178.671,368.611z"/>
	</g>
</g>
<g>
	<g>
		<path d="M182.742,367.253c0-4.078-1.359-7.474-4.754-10.867c-3.394-6.106-8.825-8.817-16.291-9.501
			c-7.473-0.684-13.579,0-19.009,4.077c-4.078,3.396-6.79,8.144-6.79,12.213c-0.683,4.761,0.676,9.509,4.748,14.263
			c4.078,4.078,8.832,6.789,15.621,7.473c6.79,1.354,13.58,0,19.009-4.078c4.754-3.395,6.107-6.789,6.79-11.543L182.742,367.253z
			 M173.241,359.779c1.353,3.396,2.712,6.113,2.712,8.156l-4.754,7.465c-4.071,2.719-8.825,4.07-13.579,3.396
			c-4.747-0.678-8.142-2.72-11.537-5.438c-2.718-2.713-4.077-6.106-3.395-9.502c0-3.396,1.353-5.431,4.071-7.473
			c4.071-2.712,8.825-3.395,14.255-3.395C165.769,353.674,169.847,356.386,173.241,359.779z"/>
	</g>
</g>
<g>
	<g>
		<path fill="#D96038" d="M218.725,364.541c-0.677-4.762-2.711-8.155-6.789-10.867c-4.748-2.712-8.824-3.395-14.932-3.395
			c-5.438,0.683-10.184,2.712-13.579,6.105c-3.395,3.395-5.437,7.473-4.753,12.227c0.676,4.07,2.712,8.143,7.465,10.859
			c4.078,2.719,8.825,3.396,14.261,3.396c5.431-0.678,10.186-2.719,13.58-6.791C218.048,372.684,218.725,369.288,218.725,364.541z"
			/>
	</g>
</g>
<g>
	<g>
		<path d="M222.119,363.857c-0.678-4.078-3.395-8.148-6.789-11.543c-4.747-4.07-10.859-6.113-18.326-5.431
			c-6.789,0.683-12.227,3.396-16.298,7.472c-4.071,4.748-6.112,9.502-5.43,14.933c0.677,4.754,3.396,9.509,8.149,12.901
			c5.431,2.72,10.86,4.072,16.974,4.072c6.789-1.354,11.537-3.395,16.291-8.144C220.768,374.042,222.119,369.288,222.119,363.857z
			 M215.33,365.895c0,3.395-1.354,6.789-4.747,8.832c-2.718,2.711-6.112,4.07-10.185,4.746c-4.754,0-8.832-0.676-12.228-2.719
			c-3.395-2.027-5.43-4.747-6.106-8.818c-0.682-3.395,1.359-6.112,4.071-8.83c3.393-2.719,6.789-4.748,10.867-5.432
			c6.106-0.683,10.185,0.684,13.579,4.077c2.711,2.029,4.07,4.748,4.747,6.79L215.33,365.895L215.33,365.895z"/>
	</g>
</g>
<g>
	<g>
		<path d="M167.128,319.727c-0.677-1.358-1.359-1.358-2.719-1.358c-1.353,0.677-1.353,1.358-1.353,2.043l6.791,22.396l2.035,1.366
			c1.359-0.685,1.359-1.366,1.359-2.043L167.128,319.727z"/>
	</g>
</g>
<g>
	<g>
		<path d="M190.891,319.727c-1.359-0.683-2.719,0-2.719,0.685l-2.711,6.789l-4.078,16.29c0,2.035,0.682,2.712,2.042,2.712
			c0.677,0,1.353,0,2.036-2.028l4.068-14.945l2.037-6.789C192.25,321.764,191.566,320.41,190.891,319.727z"/>
	</g>
</g>
<g>
	<g>
		<path d="M206.505,329.911c1.36-0.685,1.36-1.359,0-2.712c-1.358-1.365-1.358-1.365-2.712,0l-8.148,12.896
			c-0.683,2.034,0,2.711,1.359,2.711c1.354,1.366,2.035,0.684,2.712-0.677L206.505,329.911z"/>
	</g>
</g>
<g>
	<g>
		<path d="M150.154,328.552h-2.718c-1.353,0.677-1.353,1.359,0,2.72l8.831,12.219l3.395,0.684c0.676,0,1.353-1.365,0.676-2.043
			C158.979,338.059,155.584,333.307,150.154,328.552z"/>
	</g>
</g>
<g>
	<g>
		<path fill="#D96038" d="M64.61,296.646c4.747,2.713,8.825,4.746,12.896,5.424l63.14-2.029c4.754-1.365,8.832-3.395,12.227-6.113
			c8.142-5.437,12.219-12.901,11.536-21.728c-0.676-7.472-5.43-13.579-14.931-16.973l-14.262-1.359
			c-1.359-4.07-2.712-8.142-5.43-11.537c-6.113-7.472-12.902-11.55-21.728-12.227c-9.501,0-16.974,4.072-22.404,12.903
			c-2.718,4.748-4.754,8.826-5.43,13.579l-12.22,1.353c-7.473,2.718-12.226,8.155-14.262,16.973
			C53.067,284.42,56.461,291.21,64.61,296.646z"/>
	</g>
</g>
<g>
	<g>
		<path d="M108.058,226.71c-8.148,0-14.938,2.042-21.044,8.831c-4.078,4.748-7.472,10.185-9.507,17.65
			c-6.107,0-11.543,1.353-16.291,4.747c-5.437,3.394-9.507,9.508-10.867,16.973c-0.676,8.155,2.036,15.621,8.824,21.733
			c4.754,4.748,10.868,7.467,17.657,8.818l65.176-2.027c4.754-1.365,8.825-3.396,13.579-6.791
			c8.148-6.113,12.219-13.579,12.219-21.733V272.2c-0.676-7.472-4.747-13.579-11.537-16.973c-5.437-3.394-11.543-4.753-19.016-4.753
			C131.821,235.542,122.32,227.387,108.058,226.71z M57.137,278.308v-2.711c1.359-7.472,5.431-11.544,12.22-14.263l10.185-1.351
			c2.042,0.675,3.394-0.677,4.077-2.719c0.676-4.747,2.712-8.825,4.754-12.903c5.431-7.466,11.537-10.86,19.009-10.86
			c8.148,0.676,14.255,4.071,19.686,10.86c3.394,4.078,4.753,7.473,4.753,10.184c0.683,1.366,2.036,2.719,3.395,2.719l12.903,1.358
			c8.148,2.712,12.896,7.473,12.896,14.263v2.028c0,9.508-6.79,16.975-20.368,21.733l-62.457,2.029
			C63.927,295.279,57.137,288.491,57.137,278.308z"/>
	</g>
</g>
<g>
	<g>
		<path fill="#FFF000" d="M78.189,295.964c11.536,6.106,25.798,7.474,43.448,5.431l23.087-6.113
			c-0.683-5.423-2.718-10.86-6.114-16.973c-6.789-10.861-16.29-16.291-28.516-15.607c-12.22,0.676-21.045,6.106-26.475,16.973
			C80.9,285.096,78.866,291.21,78.189,295.964z"/>
	</g>
</g>
<g>
	<g>
		<path fill="#D96038" d="M112.136,304.789c0-4.748-0.683-8.143-4.078-12.221c-4.071-3.394-8.148-5.43-14.254-6.106
			c-5.431-0.683-10.185,0.676-14.262,3.395c-4.748,2.711-6.79,6.106-6.79,10.184c-0.676,4.748,0.683,8.818,4.078,12.213
			c4.07,3.395,8.148,6.113,13.578,6.79c5.431,0,10.185-0.677,14.938-3.396C109.417,312.254,112.136,308.859,112.136,304.789z"/>
	</g>
</g>
<g>
	<g>
		<path d="M75.471,288.491c-4.071,2.719-6.113,6.788-6.113,11.55c-1.353,5.424,0.683,10.186,4.754,14.934
			c4.078,4.069,9.508,6.11,16.297,7.465c7.466,0,13.579-1.354,18.333-5.424c3.395-3.395,6.106-7.474,6.79-11.551v-2.027
			c0-4.078-1.359-8.156-4.078-11.55c-4.071-4.748-9.501-7.467-16.973-8.819C87.69,282.384,81.584,284.42,75.471,288.491z
			 M80.225,293.252c3.395-2.719,8.148-4.077,13.579-3.395c4.753,0.676,9.501,2.711,12.219,6.106
			c2.036,2.712,2.719,6.107,2.719,8.825c0,2.719-2.042,4.753-4.078,6.79c-3.394,3.395-8.148,4.068-13.579,4.068
			c-4.753-0.674-8.148-2.711-11.542-5.422c-2.712-2.719-4.071-5.438-3.395-9.508C76.147,297.999,77.506,295.279,80.225,293.252z"/>
	</g>
</g>
<g>
	<g>
		<path fill="#D96038" d="M152.189,299.359c-0.676-4.08-2.711-7.473-7.465-10.186c-4.078-2.712-8.825-4.079-14.938-2.712
			c-5.43,0.676-9.508,2.712-12.902,6.106c-3.395,4.079-4.747,7.473-4.747,12.221c0,4.07,2.711,8.148,6.789,10.859
			c4.748,2.719,9.501,3.396,14.932,2.719c5.437-1.354,10.184-2.719,13.579-6.788C150.831,308.184,152.189,304.111,152.189,299.359z"
			/>
	</g>
</g>
<g>
	<g>
		<path d="M116.883,318.367c5.437,2.718,11.543,4.07,17.656,3.396c6.107-1.354,10.861-3.396,14.938-6.789
			c3.395-4.072,6.106-8.826,6.106-13.58v-2.035c-1.36-4.754-3.396-8.825-7.466-11.544c-5.43-4.747-10.867-6.112-19.009-4.747
			c-6.113,0.677-10.867,2.712-15.621,7.466c-3.395,4.747-5.431,9.508-4.748,14.932C109.417,310.227,112.136,314.975,116.883,318.367
			z M121.637,312.254c-3.395-2.027-6.106-4.07-6.106-7.465c0-4.07,0.676-6.79,3.395-9.51c3.395-3.394,6.79-5.422,11.537-6.104
			c5.437,0,10.185,0.683,13.579,3.394c2.719,2.712,4.078,5.431,4.754,7.473c0,3.396-1.359,6.789-4.071,9.501
			c-2.718,2.712-6.79,4.754-10.867,5.432L121.637,312.254z"/>
	</g>
</g>
<g>
	<g>
		<path d="M99.234,255.91c-0.677-1.366-1.359-1.366-2.036-1.366c-2.036,0-2.036,1.366-2.036,2.719l6.79,21.727
			c0,1.359,1.353,2.036,2.711,2.036c1.359-0.677,2.036-2.036,1.359-2.719L99.234,255.91z"/>
	</g>
</g>
<g>
	<g>
		<path fill="#DA8E55" d="M116.207,279.673l6.113-21.734l-2.042,6.113L116.207,279.673z"/>
	</g>
</g>
<g>
	<g>
		<path d="M122.997,255.227c-1.36,0-2.719,0-2.719,1.359l-2.035,6.79c-2.036,5.43-3.395,10.86-4.071,16.297
			c-0.683,1.353,0,2.029,1.359,2.029l2.712-1.353l3.395-15.621l2.036-6.79C124.356,257.263,123.673,255.91,122.997,255.227z"/>
	</g>
</g>
<g>
	<g>
		<path d="M139.294,262.7c-1.359-1.367-2.042-1.367-3.395,0l-7.473,13.579c0,1.352,0,2.028,0.684,2.711c1.352,0,2.711,0,3.394-0.683
			l6.79-12.896C139.97,264.729,139.97,264.052,139.294,262.7z"/>
	</g>
</g>
<g>
	<g>
		<path d="M82.936,264.729c-1.352,0-2.036,0-3.394,0c-1.353,1.366-0.676,2.718,0.683,3.396l4.071,4.076l7.473,8.149l2.712,0.677
			c0.683-0.677,1.359-2.036,0.683-2.719l-7.473-8.819L82.936,264.729z"/>
	</g>
</g>
<g>
	<g>
		<path fill="#D96038" d="M167.128,492.856c8.825-4.754,12.902-11.543,12.902-20.367c0-8.149-4.077-14.264-13.579-18.332
			l-13.578-3.396l-4.078-11.536c-5.43-7.473-12.22-12.227-21.044-14.262c-8.825-1.359-16.297,2.035-23.087,10.185
			c-2.711,4.754-5.429,8.824-6.789,13.578H86.331c-8.825,2.035-14.255,7.474-16.291,16.291c-2.036,8.154,0.676,15.62,8.149,22.409
			c4.747,2.719,8.824,5.432,12.895,6.79l63.14,4.07C158.979,496.934,163.057,495.568,167.128,492.856z"/>
	</g>
</g>
<g>
	<g>
		<path d="M155.584,448.043c-1.36-5.424-3.396-10.185-6.79-14.255c-5.43-6.79-12.22-10.186-20.369-12.222
			c-8.148-1.358-14.938,0.685-21.728,6.791c-4.747,4.077-8.824,10.185-11.536,16.974c-5.437-0.683-10.867,0-15.621,2.712
			c-6.79,2.718-11.537,8.155-12.896,16.297c-2.035,8.149,0,15.621,6.106,22.411c4.754,4.746,10.184,8.142,16.974,10.86h1.359
			l63.824,4.07c4.754-1.354,10.184-3.396,14.939-6.113c8.824-6.105,13.578-13.579,13.578-23.079l0,0
			c0-7.474-3.395-13.58-10.184-18.332C168.486,450.761,163.057,448.726,155.584,448.043z M145.4,440.577
			c2.718,4.754,4.078,8.147,4.078,11.543c0,1.359,1.353,2.037,3.395,2.037l12.219,3.394c8.149,3.396,11.543,8.148,11.543,14.938l0,0
			c0,6.789-3.394,12.895-10.184,16.974l-12.227,5.43l-62.457-4.069c-3.395-1.359-6.79-2.72-10.184-5.438
			c-6.113-4.747-8.832-9.501-8.832-15.605l0.683-4.078c1.359-6.79,6.107-11.542,12.896-13.579h10.867c2.036,0,3.395,0,4.071-2.712
			c0.683-4.077,3.394-8.154,6.113-12.228c5.43-6.788,11.543-10.184,19.686-8.823C135.216,429.717,140.646,433.788,145.4,440.577z"/>
	</g>
</g>
<g>
	<g>
		<path fill="#FFF000" d="M93.12,487.426c10.185,7.467,23.763,10.187,42.096,9.508l23.087-3.394
			c-0.683-5.438-2.036-10.868-4.754-17.657c-6.112-11.543-14.254-17.656-26.48-18.332c-12.22,0-21.721,4.754-28.511,14.938
			C95.839,477.242,93.804,482.672,93.12,487.426z"/>
	</g>
</g>
<g>
	<g>
		<path fill="#D96038" d="M125.032,499.646c0.683-4.077,0-8.148-3.395-12.221c-2.712-4.07-7.466-6.789-12.896-7.465
			c-5.437-0.683-10.184-0.683-14.938,1.354c-4.078,2.719-6.79,6.111-7.473,10.184c-1.353,4.755,0,8.832,3.395,12.228
			c2.719,4.07,7.473,6.789,12.227,7.464l14.931-1.357C121.637,507.118,123.673,504.399,125.032,499.646z"/>
	</g>
</g>
<g>
	<g>
		<path d="M125.715,486.751c-3.395-4.762-8.832-8.831-16.298-10.185c-7.465-1.365-13.579-0.685-19.009,3.395
			c-4.077,2.711-6.789,6.106-7.472,10.861c-1.352,4.746-0.676,8.823,2.042,13.577c4.071,5.431,9.502,9.509,16.974,10.186
			c6.789,2.035,13.579,0.675,18.326-3.396c4.754-2.718,6.79-6.11,8.148-10.858l0.684-3.396L125.715,486.751z M89.049,492.856
			c0.676-3.395,2.035-5.432,5.431-7.474c3.395-2.712,8.148-2.712,13.578-2.028c5.431,0.678,9.508,3.396,12.22,7.468
			c1.359,2.034,2.042,5.43,1.359,8.823l-4.754,6.789c-3.395,2.035-8.142,2.713-13.579,1.359c-5.43-0.677-9.501-3.396-12.22-7.466
			C89.726,498.286,88.373,495.568,89.049,492.856z"/>
	</g>
</g>
<g>
	<g>
		<path fill="#D96038" d="M165.092,498.286c-0.683-4.07-2.036-8.143-6.113-10.86c-4.071-3.394-8.825-4.754-14.255-4.754
			c-5.43,0.685-10.867,2.036-14.262,5.433c-3.394,3.394-5.43,7.465-5.43,11.543c0.683,4.753,2.036,8.147,6.113,11.542
			c4.071,2.72,8.825,4.07,14.255,4.07c5.43-0.675,10.867-2.034,14.262-5.43C163.057,507.118,165.769,503.041,165.092,498.286z"/>
	</g>
</g>
<g>
	<g>
		<path d="M161.015,484.708c-4.748-3.395-10.184-5.43-16.974-5.43c-6.106,0.683-11.537,3.394-15.615,6.789
			c-4.753,3.396-6.789,8.147-6.789,13.579c0.683,5.431,2.719,10.184,7.473,14.262c4.747,3.395,10.184,4.747,16.973,4.747
			c6.106-0.676,11.537-2.035,16.291-6.113c4.078-4.071,6.79-8.817,6.113-14.256C167.804,492.856,165.769,488.779,161.015,484.708z
			 M144.724,486.067c4.754,0,8.149,1.357,11.543,4.076c3.395,2.713,4.748,4.748,5.43,8.143v0.678c0,3.396-2.035,6.113-4.754,8.831
			c-2.719,2.035-7.465,3.395-11.543,4.071c-4.754,0-8.149-1.354-11.543-3.396c-3.395-2.035-4.747-5.43-5.431-8.824
			c0-3.395,1.359-6.789,4.754-9.502C135.899,488.104,140.646,486.751,144.724,486.067z"/>
	</g>
</g>
<g>
	<g>
		<path d="M116.883,450.085l-2.036-1.359c-1.359,0-2.035,0.684-2.035,2.035l4.754,22.41c0.676,1.354,1.359,2.03,2.711,1.354
			l1.359-2.034L116.883,450.085z"/>
	</g>
</g>
<g>
	<g>
		<path fill="#DA8E55" d="M131.821,475.883l7.473-21.726l-2.719,5.436L131.821,475.883z"/>
	</g>
</g>
<g>
	<g>
		<path d="M140.646,452.12c-1.353-0.684-2.036,0-2.712,0.684l-2.719,6.105l-6.106,15.614c0,1.358,0,2.719,2.035,2.719l2.712-1.359
			l4.753-14.938l2.719-6.113C142.688,454.157,142.006,452.804,140.646,452.12z"/>
	</g>
</g>
<g>
	<g>
		<path d="M156.267,460.269c-1.359-1.358-2.042-1.358-3.394,0c-2.042,2.036-4.754,5.432-8.832,12.222
			c-1.353,1.358-0.676,2.034,0.683,3.394c1.359,0,2.712,0,2.712-1.358l8.148-11.536L156.267,460.269z"/>
	</g>
</g>
<g>
	<g>
		<path d="M99.91,457.551c-1.353-1.353-2.036-1.353-2.712,0c-2.036,0.676-2.036,1.358-0.683,2.718l8.148,12.902
			c0.684,0.678,2.036,1.354,2.719,0.678c1.359,0,1.359-1.358,1.359-2.719L99.91,457.551z"/>
	</g>
</g>
<g>
	<g>
		<path fill="#D96038" d="M98.557,179.861c2.712-5.424,2.712-10.86,1.353-16.974c-2.036-6.106-6.106-10.184-11.537-12.896
			l-16.974-0.683c-5.437,1.366-10.184,4.761-12.227,10.184c-2.711,6.113-3.394,11.55-2.036,16.974
			c2.036,6.112,6.114,10.184,10.868,12.902l16.973,1.359C91.084,188.692,95.163,184.622,98.557,179.861z"/>
	</g>
</g>
<g>
	<g>
		<path d="M70.717,145.914c-6.79,2.718-10.861,6.79-14.255,12.902c-2.718,5.437-3.395,11.544-1.359,18.333
			c2.035,6.79,6.113,11.543,12.219,14.262l19.009,2.029c6.113-2.712,11.543-6.789,14.262-12.896
			c1.359-3.395,2.712-7.472,2.712-10.867c0-4.071-1.353-8.818-3.395-12.896c-2.712-4.078-5.43-6.79-10.185-9.502L70.717,145.914z
			 M72.752,151.351l14.938,1.353c4.078,2.042,7.473,6.113,9.508,10.867c1.359,5.431,0.676,10.185-2.036,14.938
			c-1.359,4.747-5.437,8.142-10.867,9.507l-14.255-1.365c-5.43-2.712-8.825-6.106-9.508-10.86
			c-2.036-5.43-1.359-10.185,0.683-14.932C63.927,156.098,67.322,152.703,72.752,151.351z"/>
	</g>
</g>
<g>
	<g>
		<path d="M63.251,153.386l-2.719,0.683c-0.676,1.353,0,2.029,0.683,2.712c7.466,4.077,12.896,10.867,16.974,21.051l3.395,13.579
			l2.035,2.029l1.359-2.712c0-3.395-0.683-8.149-3.394-14.938C77.506,165.605,71.399,157.464,63.251,153.386z"/>
	</g>
</g>
<g>
	<g>
		<path d="M99.234,158.816l-2.036-2.718c-5.43,0.683-10.185,3.394-14.262,8.154l-6.106,8.819c-0.683,1.365-0.683,2.718,1.359,2.718
			c0.676,0.676,2.035,0.676,2.711-0.676c0-1.359,1.359-3.395,4.078-7.466c4.071-4.761,8.142-6.79,12.896-7.473L99.234,158.816z"/>
	</g>
</g>
<g>
	<g>
		<path fill="#D96038" d="M237.741,267.447c5.43-2.718,9.501-6.114,12.219-11.537c2.712-5.437,2.712-10.867,1.358-16.974
			c-2.043-5.437-6.113-10.184-10.866-12.226l-16.974-1.353c-5.432,2.029-10.186,5.423-12.896,10.86
			c-2.719,5.43-3.396,11.537-0.684,16.974c1.358,5.429,4.754,9.508,10.867,12.22L237.741,267.447z"/>
	</g>
</g>
<g>
	<g>
		<path d="M222.119,222.64c-6.105,2.035-10.86,6.113-13.579,12.219c-3.396,6.106-3.396,12.896-1.353,19.009
			c2.037,6.79,6.789,11.544,12.22,14.256l19.009,1.364c6.789-2.042,10.859-6.112,14.256-12.225c2.042-3.396,2.719-6.79,2.719-11.537
			l-1.358-7.473c-2.036-6.789-6.107-10.867-12.22-14.261L222.119,222.64z M213.294,237.571c2.036-4.748,5.431-8.142,10.867-10.184
			l14.932,1.366c4.755,2.028,8.149,6.106,9.509,11.536c2.035,4.754,1.358,10.185-0.678,14.255
			c-2.719,4.76-6.111,8.156-11.543,10.184l-14.938-1.353c-4.754-2.043-7.465-6.113-9.508-11.543
			C210.583,247.079,210.583,242.331,213.294,237.571z"/>
	</g>
</g>
<g>
	<g>
		<path d="M230.95,223.992c0-2.029-1.359-2.029-2.718-2.029c-1.359,0.677-1.359,2.029-1.359,2.712
			c2.036,8.148,1.359,16.974-2.034,26.475l-7.467,12.226c-0.685,1.353-0.685,2.036,0.676,2.718h2.72l7.465-13.578
			C232.303,242.331,233.662,232.823,230.95,223.992z"/>
	</g>
</g>
<g>
	<g>
		<path d="M237.057,245.043l-10.184,2.712c-1.359,0-2.034,0.683-1.359,2.718c0,0.676,1.359,1.359,2.719,0.676l8.148-2.029
			c6.105,0,10.861,1.353,14.256,3.395h2.717c0.679-0.683,0.679-1.366-0.682-2.719C249.275,245.726,243.848,244.36,237.057,245.043z"
			/>
	</g>
</g>
<g>
	<g>
		<path fill="#D96038" d="M349.766,299.359c-2.042-6.107-5.438-10.186-10.866-12.897c-5.432-3.395-11.544-4.078-16.975-2.042
			c-5.431,1.359-10.185,5.438-12.896,10.859c-2.72,4.762-3.396,10.186-2.042,16.3c2.042,5.437,5.437,10.185,10.185,13.577
			l16.975,1.359c6.11-1.359,10.183-4.754,13.577-10.867C350.442,310.227,351.118,305.465,349.766,299.359z"/>
	</g>
</g>
<g>
	<g>
		<path d="M340.257,283.745c-6.11-2.718-12.901-4.071-19.008-2.042c-6.113,1.365-11.544,6.112-14.938,11.55
			c-3.394,6.106-3.394,12.213-2.033,19.002c2.033,6.79,6.104,11.55,12.218,14.945c6.114,2.712,12.22,3.396,19.01,2.028
			c6.112-2.028,11.543-6.105,14.262-12.213c2.036-3.395,3.396-7.474,3.396-11.551l-1.358-6.789
			C350.442,291.887,346.371,287.139,340.257,283.745z M323.284,286.462l14.255,2.029c4.755,3.396,8.148,6.788,9.508,11.55
			c1.359,5.424,0.677,10.186-2.035,14.934c-2.036,4.069-6.112,7.465-11.544,8.83l-14.255-1.365
			c-4.754-2.713-7.473-6.791-9.508-11.537c-1.359-5.438-0.676-10.184,2.035-14.938C313.776,291.887,317.854,288.491,323.284,286.462
			z"/>
	</g>
</g>
<g>
	<g>
		<path d="M334.146,308.184c-10.186-5.431-19.011-6.111-28.512-4.07c-1.357,0.677-2.043,1.353-1.357,2.035l2.033,2.035
			c8.825-2.035,16.975-0.676,27.157,4.07l11.544,6.79h2.712c1.359-0.677,1.359-2.028,0-2.712
			C343.653,312.938,339.582,310.227,334.146,308.184z"/>
	</g>
</g>
<g>
	<g>
		<path d="M336.188,283.067c-1.359-1.365-2.72-1.365-3.395,0c-6.113,5.424-6.791,14.932-3.396,25.792
			c0.676,1.365,1.353,2.041,2.711,1.365c1.358,0,1.358-0.684,1.358-2.043l-1.358-8.822c-0.676-6.107,0.685-10.868,4.077-13.581
			C336.863,285.096,336.863,284.42,336.188,283.067z"/>
	</g>
</g>
<g>
	<g>
		<path fill="#D96038" d="M224.839,531.558c6.789-0.676,10.859-4.069,14.254-8.831c3.396-5.424,4.755-10.859,3.396-16.291
			c-0.676-6.105-3.396-10.866-8.143-14.261c-5.437-3.396-10.867-4.749-16.974-4.071c-5.437,1.359-10.185,4.754-13.579,9.509
			c-3.395,5.43-5.438,10.184-4.077,16.297c0.683,6.105,4.077,10.184,8.824,14.254C213.979,531.558,219.407,532.91,224.839,531.558z"
			/>
	</g>
</g>
<g>
	<g>
		<path d="M235.021,489.463c-4.754-3.396-10.86-4.755-17.649-3.396c-6.789,0.684-12.228,4.076-16.297,10.185
			c-4.071,5.431-5.431,11.543-4.071,17.656c1.354,6.789,4.747,12.213,10.184,16.297c6.106,4.071,11.537,4.747,18.326,4.071
			c6.789-1.366,12.229-4.763,16.299-10.186c3.394-6.111,5.431-12.226,3.394-18.34C244.529,498.964,241.135,493.54,235.021,489.463z
			 M218.048,490.822c5.431-0.679,10.185,0,14.255,3.394c4.754,2.718,6.79,6.79,8.149,12.22v3.396c0,4.755-1.359,8.148-3.396,10.867
			c-2.711,4.748-6.789,7.465-12.219,8.816c-4.755,0.69-10.186-0.675-14.256-4.068c-4.755-2.719-6.79-6.79-8.148-11.537
			c-0.684-5.438,0-10.867,2.711-14.944C208.54,494.216,213.294,491.497,218.048,490.822z"/>
	</g>
</g>
<g>
	<g>
		<path d="M224.839,487.426c0-0.675-0.678-1.357-2.037-1.357c-1.358,0-2.034,1.357-1.358,2.036
			c0.677,8.829-0.676,16.974-6.789,25.805l-8.825,11.537c-0.683,0.676-1.358,2.042-0.683,2.717c1.358,1.353,2.041,1.353,3.395,0
			l9.508-11.542C224.161,506.436,226.873,496.934,224.839,487.426z"/>
	</g>
</g>
<g>
	<g>
		<path d="M227.557,509.83l-10.185,0.684c-1.358,0.675-2.042,1.354-1.358,2.712c0,0.684,0.676,1.359,2.034,1.359l8.825-0.677
			c6.113,0.677,10.868,2.712,13.579,6.105h2.034c1.359-0.683,2.043-2.034,0.685-2.712
			C240.452,513.226,235.021,510.514,227.557,509.83z"/>
	</g>
</g>
<g>
	<g>
		<path fill="#D96038" d="M83.619,338.059c-4.077-4.752-9.508-6.111-15.614-6.787c-5.437-0.678-10.868,1.353-15.621,5.43
			c-4.071,4.076-6.79,9.501-7.466,15.613c0,5.438,2.036,11.543,6.113,15.621c4.071,4.748,9.501,6.791,15.614,6.791
			c6.106,0.676,11.544-1.367,15.614-5.438c4.754-4.071,6.113-9.508,6.79-15.614C89.726,347.568,87.69,342.807,83.619,338.059z"/>
	</g>
</g>
<g>
	<g>
		<path d="M84.978,336.018c-4.078-4.746-10.184-6.789-16.973-7.466c-6.79,0-12.226,2.042-17.656,6.79
			c-4.754,4.069-7.466,10.184-7.466,16.973c-0.683,6.791,1.359,12.228,6.107,17.65c4.754,4.762,10.184,7.473,17.656,7.473
			c6.79,0.683,12.22-1.359,17.65-6.106c4.754-4.077,7.473-10.185,7.473-17.656C91.768,346.885,89.726,341.454,84.978,336.018z
			 M68.005,333.988c5.43,0,9.501,2.029,13.579,6.105c3.394,3.395,4.747,8.149,4.747,12.896c0,6.113-2.036,10.865-6.106,14.262
			c-4.078,3.395-8.825,5.43-13.579,5.43c-5.43,0-9.508-2.035-13.579-6.789c-3.395-3.395-5.43-8.824-4.754-13.578
			c0-5.431,2.036-9.508,5.43-12.903C57.821,335.342,62.568,333.307,68.005,333.988z"/>
	</g>
</g>
<g>
	<g>
		<path d="M74.111,352.314c-11.543,0.677-20.368,3.395-27.157,9.508c-1.36,1.353-1.36,2.035-0.676,2.719
			c0.676,1.354,2.035,1.354,3.395,0c6.106-4.762,14.255-8.155,25.122-8.155l13.579,1.365l2.711-1.365c0-0.677,0-2.028-1.359-2.712
			L74.111,352.314z"/>
	</g>
</g>
<g>
	<g>
		<path d="M63.927,329.229c-1.359,0-2.712,0-2.712,1.365c-2.719,8.143,0,16.291,8.825,25.792c1.359,0.683,1.359,0.683,2.711,0
			c1.359-1.353,1.359-2.712,0-3.395c-6.789-7.466-9.501-14.255-7.465-20.368C65.963,330.594,65.287,329.911,63.927,329.229z"/>
	</g>
</g>
<g>
	<g>
		<path fill="#D96038" d="M63.927,507.118c2.036-3.395,2.718-7.473,0.683-12.227c-0.683-4.748-4.078-7.467-7.473-9.509
			l-12.896-1.352c-4.078,2.035-7.472,4.07-9.508,8.143c-2.035,4.077-2.035,8.154-1.359,12.226c1.359,4.748,4.754,7.467,8.149,10.186
			l12.903,0.675C59.173,513.908,61.892,511.188,63.927,507.118z"/>
	</g>
</g>
<g>
	<g>
		<path d="M68.005,494.216c-2.042-4.753-4.754-8.832-10.184-11.544l-14.262-1.357c-5.43,2.042-8.825,5.438-10.86,9.509
			c-2.719,4.746-2.719,9.507-1.359,14.93c1.359,4.762,4.753,8.833,8.824,11.551l14.938,0.678c5.43-1.359,8.825-4.071,11.543-9.51
			C68.681,503.725,69.357,499.646,68.005,494.216z M36.77,493.54c2.036-3.396,4.754-5.438,8.148-6.789l10.861,0.675
			c3.394,2.037,5.437,4.749,6.79,8.826l0.683,3.396l-2.036,6.788c-1.359,3.396-4.078,5.432-7.472,6.79l-10.861-1.358
			c-2.718-1.354-4.754-4.071-6.789-8.143C34.734,500.329,35.41,496.934,36.77,493.54z"/>
	</g>
</g>
<g>
	<g>
		<path fill="#D96038" d="M337.539,196.834c2.718-4.071,2.718-8.142,1.359-12.896c-2.035-4.078-4.754-7.472-8.825-9.501
			l-12.221-0.683c-4.754,2.036-7.472,4.078-9.508,8.824c-2.035,4.072-2.035,7.466-0.676,12.227c1.359,4.748,4.07,7.466,8.149,9.502
			l12.895,0.683C332.793,203.624,336.188,200.912,337.539,196.834z"/>
	</g>
</g>
<g>
	<g>
		<path d="M340.257,198.2c2.719-4.761,2.719-9.508,0.678-14.945c-1.353-4.747-4.747-8.818-9.501-10.86l-14.938-1.353
			c-4.07,2.029-8.148,5.424-10.185,10.184c-2.719,4.748-3.394,9.501-1.358,14.931c1.358,4.072,4.754,8.149,9.508,10.86l14.938,0.683
			C334.146,206.342,337.539,202.948,340.257,198.2z M319.213,176.466l10.186,0.683c4.748,2.712,7.466,6.79,7.466,12.896
			l-1.359,6.113c-2.036,2.719-4.754,4.754-8.148,6.79l-10.184-1.353c-3.396-1.366-5.432-4.078-7.467-7.473
			c-0.676-4.078-0.676-7.472,0.677-10.868C312.424,179.861,315.136,177.832,319.213,176.466z"/>
	</g>
</g>
<g>
	<g>
		<path fill="#D96038" d="M266.25,376.077c-1.354,4.754-2.035,8.149-0.676,12.901c2.035,4.072,4.07,7.467,8.824,9.51l12.221,1.353
			c4.754-2.036,7.472-4.748,9.508-8.825c2.035-4.078,2.035-8.146,0.676-12.896c-1.353-4.077-4.07-7.472-8.142-8.831l-12.902-1.354
			C271.688,369.288,268.968,372.684,266.25,376.077z"/>
	</g>
</g>
<g>
	<g>
		<path d="M264.215,374.727c-2.035,4.746-2.711,10.184-1.357,14.931c2.041,4.755,4.752,8.147,9.508,11.544l14.938,0.682
			c5.43-2.041,8.825-5.438,11.543-9.508V391.7c2.035-4.079,2.035-8.831,0.678-14.263c-2.037-4.754-4.754-8.148-10.186-10.867
			l-14.255-0.676C269.646,367.253,266.25,370.646,264.215,374.727z M268.293,388.305c-0.684-4.078-0.684-7.474,0.675-10.867
			c2.037-3.396,4.072-5.431,7.468-6.789l10.866,0.683c5.431,2.712,7.466,6.789,7.466,12.896l-1.358,5.431l-7.466,6.788h-10.86
			C271.688,394.411,268.968,391.699,268.293,388.305z"/>
	</g>
</g>
<path id="PATH77" fill="none" stroke="#000000" stroke-width="3" stroke-miterlimit="100" d="M370.59,585.26H3.92V2.74h366.67
	V585.26L370.59,585.26z"/>
</svg>
