<?xml version="1.0" encoding="UTF-8" standalone="no"?>
<!-- Generator: Adobe Illustrator 13.0.0, SVG Export Plug-In . SVG Version: 6.00 Build 14948)  -->

<svg
   xmlns:dc="http://purl.org/dc/elements/1.1/"
   xmlns:cc="http://creativecommons.org/ns#"
   xmlns:rdf="http://www.w3.org/1999/02/22-rdf-syntax-ns#"
   xmlns:svg="http://www.w3.org/2000/svg"
   xmlns="http://www.w3.org/2000/svg"
   xmlns:sodipodi="http://sodipodi.sourceforge.net/DTD/sodipodi-0.dtd"
   xmlns:inkscape="http://www.inkscape.org/namespaces/inkscape"
   version="1.1"
   id="圖層_1"
   x="0px"
   y="0px"
   width="372px"
   height="587px"
   viewBox="0 0 372 587"
   enable-background="new 0 0 372 587"
   xml:space="preserve"
   sodipodi:docname="Hanafuda_koi-2-trans.svg"
   inkscape:version="0.92.4 (5da689c313, 2019-01-14)"><metadata
   id="metadata4233"><rdf:RDF><cc:Work
       rdf:about=""><dc:format>image/svg+xml</dc:format><dc:type
         rdf:resource="http://purl.org/dc/dcmitype/StillImage" /><dc:title></dc:title></cc:Work></rdf:RDF></metadata><defs
   id="defs4231" /><sodipodi:namedview
   pagecolor="#ffffff"
   bordercolor="#666666"
   borderopacity="1"
   objecttolerance="10"
   gridtolerance="10"
   guidetolerance="10"
   inkscape:pageopacity="0"
   inkscape:pageshadow="2"
   inkscape:window-width="2560"
   inkscape:window-height="1332"
   id="namedview4229"
   showgrid="false"
   inkscape:zoom="1.9454855"
   inkscape:cx="93.144099"
   inkscape:cy="295.08365"
   inkscape:window-x="0"
   inkscape:window-y="33"
   inkscape:window-maximized="1"
   inkscape:current-layer="圖層_1" />

<path
   id="PATH77"
   stroke-miterlimit="100"
   d="M 370.59,585.26 H 3.92 V 2.74 h 366.67 z"
   inkscape:connector-curvature="0"
   style="display:inline;fill:none;stroke:#000000;stroke-width:3;stroke-miterlimit:100" />
<g
   id="g497"
   transform="matrix(0.70625171,0,0,0.70748678,20.462514,45.123204)"><path
     id="path2"
     d="m 351.6908,472.83467 c -19.96,36.076 -139.569,27.791 -141.455,65.249 -1.996,39.633 77.824,12.989 77.824,12.989 0,0 -37.71,42.524 16.761,42.524 52.522,0 62.725,-90.614 85.796,-113.89 z"
     style="fill:#f75534"
     inkscape:connector-curvature="0" /><path
     id="path4"
     d="m 234.3888,534.67067 c 0.446,-8.863 20.121,-22.627 51.577,-32.302 -36.712,8.108 -74.675,14.741 -75.731,35.715 -1.358,26.983 35.202,23.245 58.68,18.11 -14.453,-0.836 -35.302,-6.117 -34.526,-21.523 z"
     style="fill:#bd391e"
     inkscape:connector-curvature="0" /><path
     id="path6"
     d="m 117.0858,229.30467 c 19.96,-36.076 139.569,-27.791 141.455,-65.249 1.996,-39.633 -77.824,-12.989 -77.824,-12.989 0,0 37.71,-42.524 -16.761,-42.524 -52.522,0 -62.725,90.614 -85.797006,113.89 z"
     style="fill:#f75534"
     inkscape:connector-curvature="0" /><path
     id="path8"
     d="m 106.2958,222.43167 c 21.181,-21.369 31.52,-99.481 73.711,-112.141 -4.138,-1.112 -9.404,-1.749 -16.052,-1.749 -52.522,0 -62.725,90.614 -85.797006,113.89 l 38.927006,6.872 c 0.859,-1.554 1.916,-3.019 3.127,-4.415 z"
     style="fill:#bd391e"
     inkscape:connector-curvature="0" /><g
     id="g22"
     transform="translate(-21.612206,95.068675)"><path
       id="path10"
       d="m 452.751,83.393 c 0,0 40.379,17.316 55.434,13.665 15.055,-3.651 -15.496,-47.716 -72.799,-35.025 0,0 -6.774,14.939 17.365,21.36 z"
       style="fill:#f75534"
       inkscape:connector-curvature="0" /><path
       id="path12"
       d="m 356.975,140.73 c 0,0 4.282,43.727 -3.754,56.971 -8.036,13.244 -40.787,-29.211 -11.348,-79.987 0.001,0 16.287,-1.935 15.102,23.016 z"
       style="fill:#f75534"
       inkscape:connector-curvature="0" /><path
       id="path14"
       d="m 59.251,428.609 c 0,0 -40.379,-17.316 -55.434,-13.665 -15.055,3.651 15.496,47.716 72.799,35.025 0,-10e-4 6.774,-14.94 -17.365,-21.36 z"
       style="fill:#f75534"
       inkscape:connector-curvature="0" /><path
       id="path16"
       d="m 155.027,371.272 c 0,0 -4.282,-43.727 3.754,-56.971 8.036,-13.244 40.787,29.211 11.348,79.987 -0.001,0 -16.288,1.935 -15.102,-23.016 z"
       style="fill:#f75534"
       inkscape:connector-curvature="0" /><path
       id="path18"
       d="m 202.334,491.045 c -10.853,7.705 -25.567,8.277 -38.31,6.884 C 114.51,492.519 73.239,454.019 49.625,413.682 -31.876,274.461 66.707,115.738 202.334,56.001 105.45,137.821 80.822,268.174 155.257,374.34 c 16.633,23.723 72.162,82.956 47.077,116.705 z"
       style="fill:#f75534"
       inkscape:connector-curvature="0" /><path
       id="path20"
       d="m 137.753,345.539 c -1.111,3.471 -2.662,6.219 -5.572,6.92 -10.208,2.447 -21.17,-19.068 -31.302,-16.88 -10.23,2.21 -4.56,26.248 -13.959,29.039 -10.725,3.19 -21.731,-22.83 -32.531,-20.168 -10.477,2.587 -4.635,29.589 -12.72,32.327 -3.352,1.132 -7.243,-1.649 -11.339,-5.67 -12.363,-37.587 -13.097,-75.713 -4.872,-112.169 6.651,-7.093 11.996,-24.943 21.116,-23.585 10.639,1.596 11.318,27.465 21.04,27.778 9.108,0.302 15.792,-24.286 26.43,-23.002 9.076,1.089 10.552,20.394 18.928,23.865 2.889,27.541 11.027,55.06 24.781,81.545 z"
       style="fill:#f75534"
       inkscape:connector-curvature="0" /></g><path
     id="path24"
     d="m 30.029794,341.09767 c 0.905,-0.964 1.785,-2.133 2.653,-3.42 -1.977,-3.799 -4.348,-6.75 -7.722,-7.256 -9.119,-1.358 -14.466,16.493 -21.1160003,23.584 -8.224,36.455 -7.491,74.582 4.872,112.169 4.0960003,4.021 7.9870003,6.801 11.3390003,5.67 7.607,-2.576 2.888,-26.627 11.031,-31.617 -8.591,-33.329 -8.332,-66.883 -1.057,-99.13 z"
     style="fill:#bd391e"
     inkscape:connector-curvature="0" /><g
     id="g32"
     transform="translate(-21.612206,95.068675)"><path
       id="path26"
       d="m 93.798,250.223 c 2.534,0.084 4.88,-1.761 7.175,-4.436 -1.84,-3.027 -3.983,-5.304 -6.929,-5.657 -2.745,-0.331 -5.224,1.067 -7.553,3.308 1.912,3.833 4.124,6.682 7.307,6.785 z"
       style="fill:#f75534"
       inkscape:connector-curvature="0" /><path
       id="path28"
       d="m 80.573,331.541 c -7.369,1.819 -6.669,15.71 -8.416,24.748 4.949,5.187 9.884,9.781 14.762,8.33 7.064,-2.098 5.618,-16.192 8.803,-24.007 -5.061,-5.345 -10.127,-10.31 -15.149,-9.071 z"
       style="fill:#f75534"
       inkscape:connector-curvature="0" /><path
       id="path30"
       d="m 127.062,322.669 c -7.432,1.605 -6.475,14.728 -8.999,22.858 4.763,4.268 9.516,8.035 14.117,6.932 2.91,-0.701 4.463,-3.449 5.572,-6.92 -3.926,-7.56 -7.379,-15.206 -10.398,-22.911 -0.096,0.015 -0.194,0.021 -0.292,0.041 z"
       style="fill:#f75534"
       inkscape:connector-curvature="0" /></g><path
     id="path34"
     d="m 3.8457937,354.00767 c 19.7150003,-87.312 90.8340053,-165.041 176.8720063,-202.94 -64.922,54.834 -97.398001,131.463 -89.358001,207.995 -8.375,-3.471 -9.852,-22.777 -18.928005,-23.865 -10.639,-1.283 -17.321,23.304 -26.43,23.002 -9.723,-0.312 -10.402,-26.183 -21.04,-27.778 -9.119,-1.358 -14.466,16.493 -21.1160003,23.586 z"
     style="fill:#f7ede3"
     inkscape:connector-curvature="0" /><path
     d="m 180.7178,586.11567 c -10.854,7.707 -25.568,8.279 -38.308,6.878 -49.507001,-5.412 -90.781006,-43.903 -114.396006,-84.24 -8.214,-14.034 -14.606,-28.263 -19.2940003,-42.577 4.0960003,4.021 7.9870003,6.801 11.3390003,5.67 8.084,-2.738 2.242,-29.74 12.72,-32.327 10.8,-2.662 21.806,23.359 32.531,20.168 9.399,-2.792 3.729,-26.83 13.959005,-29.039 10.132,-2.188 21.094001,19.327 31.302001,16.88 2.91,-0.701 4.463,-3.449 5.572,-6.92 5.066,9.755 10.897,19.37 17.505,28.802 16.63,23.724 72.163,82.956 47.07,116.705 z"
     style="fill:#f7ede3"
     id="SVGCleanerId_0"
     inkscape:connector-curvature="0" /><g
     id="g38"
     transform="translate(-21.612206,95.068675)"><path
       d="m 202.33,491.047 c -10.854,7.707 -25.568,8.279 -38.308,6.878 -49.507,-5.412 -90.781,-43.903 -114.396,-84.24 -8.214,-14.034 -14.606,-28.263 -19.294,-42.577 4.096,4.021 7.987,6.801 11.339,5.67 8.084,-2.738 2.242,-29.74 12.72,-32.327 10.8,-2.662 21.806,23.359 32.531,20.168 9.399,-2.792 3.729,-26.83 13.959,-29.039 10.132,-2.188 21.094,19.327 31.302,16.88 2.91,-0.701 4.463,-3.449 5.572,-6.92 5.066,9.755 10.897,19.37 17.505,28.802 16.63,23.724 72.163,82.956 47.07,116.705 z"
       style="fill:#f7ede3"
       id="SVGCleanerId_0_1_"
       inkscape:connector-curvature="0" /></g><path
     id="path40"
     d="m 171.4858,585.81967 c -53.529,-6.919 -98.154006,-56.142 -123.689006,-107.723 -6.263,-12.656 -11.525,-25.437 -15.874,-38.292 -9.298,3.827 -4.012,29.381 -11.866,32.042 -3.352,1.132 -7.243,-1.649 -11.3390003,-5.67 4.6880003,14.315 11.0810003,28.543 19.2940003,42.577 23.617,40.336 64.889005,78.828 114.396006,84.24 12.496,1.374 26.881,0.834 37.671,-6.459 -2.916,-0.101 -5.799,-0.352 -8.593,-0.715 z"
     style="fill:#dbd2ca"
     inkscape:connector-curvature="0" /><g
     id="g46"
     transform="translate(-21.612206,95.068675)"><path
       id="path42"
       d="m 309.668,20.956 c 10.854,-7.705 25.567,-8.277 38.31,-6.884 49.514,5.41 90.785,43.91 114.399,84.247 C 543.878,237.54 445.295,396.263 309.668,456.001 406.552,374.181 431.18,243.828 356.745,137.662 340.112,113.939 284.583,54.705 309.668,20.956 Z"
       style="fill:#f75534"
       inkscape:connector-curvature="0" /><path
       id="path44"
       d="m 374.249,166.462 c 1.111,-3.471 2.662,-6.219 5.572,-6.92 10.208,-2.447 21.17,19.068 31.302,16.88 10.23,-2.21 4.56,-26.248 13.959,-29.039 10.725,-3.19 21.731,22.83 32.531,20.168 10.477,-2.587 4.635,-29.589 12.72,-32.327 3.352,-1.132 7.243,1.649 11.339,5.67 12.363,37.587 13.097,75.713 4.872,112.169 -6.651,7.093 -11.997,24.943 -21.116,23.585 -10.639,-1.596 -11.318,-27.465 -21.04,-27.778 -9.108,-0.302 -15.792,24.285 -26.43,23.002 -9.076,-1.089 -10.552,-20.394 -18.928,-23.865 -2.89,-27.54 -11.027,-55.06 -24.781,-81.545 z"
       style="fill:#f75534"
       inkscape:connector-curvature="0" /></g><path
     id="path48"
     d="m 392.9038,269.43967 c -0.886,1.019 -1.984,1.747 -3.393,2.051 -10.132,2.188 -21.094,-19.327 -31.302,-16.88 -2.91,0.701 -4.463,3.449 -5.572,6.92 13.754,26.485 21.892,54.003 24.781,81.545 8.375,3.471 9.852,22.777 18.928,23.865 5.258,0.634 9.549,-5.048 13.644,-10.923 -1.386,-8.485 -8.919,-62.06 -17.086,-86.578 z"
     style="fill:#bd391e"
     inkscape:connector-curvature="0" /><g
     id="g54"
     transform="translate(-21.612206,95.068675)"><path
       id="path50"
       d="m 486.544,253.063 c -19.715,87.312 -90.834,165.041 -176.872,202.94 64.922,-54.834 97.398,-131.463 89.358,-207.995 8.375,3.471 9.852,22.777 18.928,23.865 10.639,1.283 17.321,-23.304 26.43,-23.002 9.723,0.312 10.402,26.183 21.04,27.778 9.118,1.357 14.465,-16.494 21.116,-23.586 z"
       style="fill:#f7ede3"
       inkscape:connector-curvature="0" /><path
       id="path52"
       d="m 309.672,20.954 c 10.854,-7.707 25.568,-8.279 38.308,-6.878 49.507,5.412 90.781,43.903 114.397,84.24 8.214,14.034 14.606,28.263 19.294,42.578 -4.096,-4.021 -7.987,-6.801 -11.339,-5.67 -8.084,2.738 -2.242,29.74 -12.72,32.327 -10.8,2.662 -21.806,-23.359 -32.531,-20.168 -9.399,2.792 -3.729,26.83 -13.959,29.039 -10.132,2.188 -21.094,-19.327 -31.302,-16.88 -2.91,0.701 -4.463,3.449 -5.572,6.92 -5.066,-9.755 -10.897,-19.37 -17.505,-28.802 C 340.112,113.935 284.579,54.703 309.672,20.954 Z"
       style="fill:#f7ede3"
       inkscape:connector-curvature="0" /></g><path
     id="path56"
     d="m 371.3368,238.22767 c -18.827,-25.571 -78.089,-86.921 -62.578,-129.327 -7.424,0.76 -14.66,2.834 -20.699,7.122 -25.093,33.75 30.44,92.981 47.072,116.707 6.608,9.432 12.438,19.046 17.505,28.802 1.111,-3.471 2.662,-6.219 5.572,-6.92 10.208,-2.447 21.17,19.068 31.302,16.88 1.001,-0.216 1.845,-0.647 2.572,-1.241 -6.182,-10.932 -13.094,-21.623 -20.746,-32.023 z"
     style="fill:#dbd2ca"
     inkscape:connector-curvature="0" /><g
     id="g62"
     transform="translate(-21.612206,95.068675)"><circle
       id="circle58"
       r="8.0839996"
       cy="460.341"
       cx="153.883"
       style="fill:#bd391e" /><circle
       id="circle60"
       r="8.0839996"
       cy="55.999001"
       cx="366.19601"
       style="fill:#bd391e" /></g><g
     id="g68"
     transform="translate(-21.612206,95.068675)"><path
       id="path64"
       d="m 81.775,222.395 c -0.227,0 -0.455,-0.009 -0.684,-0.029 -4.449,-0.373 -7.753,-4.282 -7.38,-8.731 3.227,-38.486 25.88,-79.207 65.509,-117.764 29.517,-28.718 57.714,-46.049 58.9,-46.772 3.811,-2.326 8.787,-1.122 11.111,2.69 2.325,3.81 1.122,8.783 -2.686,11.11 v 0 c -1.096,0.67 -109.667,67.964 -116.722,152.088 -0.355,4.218 -3.89,7.407 -8.048,7.408 z"
       style="fill:#f75534"
       inkscape:connector-curvature="0" /><path
       id="path66"
       d="m 309.679,464.088 c -2.725,0 -5.385,-1.377 -6.909,-3.874 -2.325,-3.81 -1.122,-8.783 2.686,-11.11 v 0 c 1.096,-0.67 109.667,-67.964 116.722,-152.088 0.373,-4.448 4.278,-7.752 8.731,-7.38 4.449,0.373 7.753,4.282 7.38,8.731 -3.228,38.486 -25.88,79.207 -65.509,117.764 -29.517,28.718 -57.714,46.049 -58.9,46.772 -1.312,0.803 -2.765,1.185 -4.201,1.185 z"
       style="fill:#f75534"
       inkscape:connector-curvature="0" /></g><g
     id="g70"
     transform="translate(-21.612206,95.068675)" /><g
     id="g72"
     transform="translate(-21.612206,95.068675)" /><g
     id="g74"
     transform="translate(-21.612206,95.068675)" /><g
     id="g76"
     transform="translate(-21.612206,95.068675)" /><g
     id="g78"
     transform="translate(-21.612206,95.068675)" /><g
     id="g80"
     transform="translate(-21.612206,95.068675)" /><g
     id="g82"
     transform="translate(-21.612206,95.068675)" /><g
     id="g84"
     transform="translate(-21.612206,95.068675)" /><g
     id="g86"
     transform="translate(-21.612206,95.068675)" /><g
     id="g88"
     transform="translate(-21.612206,95.068675)" /><g
     id="g90"
     transform="translate(-21.612206,95.068675)" /><g
     id="g92"
     transform="translate(-21.612206,95.068675)" /><g
     id="g94"
     transform="translate(-21.612206,95.068675)" /><g
     id="g96"
     transform="translate(-21.612206,95.068675)" /><g
     id="g98"
     transform="translate(-21.612206,95.068675)" /></g></svg>