<?xml version="1.0" encoding="utf-8"?>
<!-- Generator: Adobe Illustrator 13.0.0, SVG Export Plug-In . SVG Version: 6.00 Build 14948)  -->
<!DOCTYPE svg PUBLIC "-//W3C//DTD SVG 1.1//EN" "http://www.w3.org/Graphics/SVG/1.1/DTD/svg11.dtd">
<svg version="1.1" id="圖層_1" xmlns="http://www.w3.org/2000/svg" xmlns:xlink="http://www.w3.org/1999/xlink" x="0px" y="0px"
	 width="372px" height="587px" viewBox="0 0 372 587" enable-background="new 0 0 372 587" xml:space="preserve">
<g>
	<g>
		<g>
			<g>
				<path fill="#858585" d="M42.055,314.632l-9.535-2.036l-27.937,6.129v55.866l20.439,8.854l8.176,1.364l6.135,1.358
					c5.449,4.09,8.177,7.495,7.492,9.54l-3.406,6.813l-2.722,6.813c0,1.364,2.722,4.086,7.493,5.456l12.26,1.356
					c5.45-1.356,12.264-4.084,19.075-7.491c10.22-4.77,15.675-10.898,17.033-17.032c1.364-4.771,6.813-11.583,15.674-18.396
					l12.94-8.856l4.091-35.428l-17.032-8.177h-3.405l-7.499,2.729l-8.177-0.68l-6.813-7.499
					c-8.171-6.813-12.94-10.904-14.984-14.311c-0.684-2.036-4.091-3.406-9.54-4.763l-11.583,2.043
					c-2.042,0.684-2.721,3.405-0.678,7.498c1.363,4.763,1.363,6.813,0.678,8.168L42.055,314.632z"/>
			</g>
		</g>
		<g>
			<g>
				<path d="M40.697,311.91l-8.176-2.043c-4.77,0-14.31,2.043-28.616,6.135c-1.363,0.678-2.042,2.036-2.042,2.723v55.866
					l1.364,2.726l20.438,9.535l9.533,0.687l4.093,0.677l1.357,1.358l5.454,5.454l-2.726,5.45c-2.728,4.091-3.408,6.813-3.408,8.855
					l2.728,4.77c2.043,1.364,4.765,3.407,9.535,4.093l10.905,0.678l19.753-8.176c10.219-5.448,16.353-11.583,17.718-17.717
					c2.72-8.171,11.575-16.348,27.93-26.568l0.677-2.042l4.771-35.428l-2.042-2.723l-17.711-8.182l-3.405,0.687l-8.862,2.72
					l-3.407,0.686l-4.764-4.092l-4.091-4.765l-13.626-13.624c-1.363-2.051-4.77-4.087-10.219-5.457l-15.667,1.37
					c-2.728,2.723-3.408,6.128-0.68,12.257l0.68,4.091H40.697z M50.916,300.327l11.577-0.678l6.813,2.726l14.989,14.985l3.408,4.084
					l6.133,4.775h8.178l9.532-2.726l14.313,6.813l-3.408,32.699c-17.029,9.535-25.893,19.075-28.615,27.938
					c-1.363,5.442-6.133,10.219-14.989,14.982c-6.134,4.087-12.947,6.136-19.075,7.493l-9.541-1.357l-6.813-3.407l2.728-5.456
					l3.407-6.813c0.678-3.405-2.043-6.813-7.498-11.576l-1.358-1.364c-2.048-1.364-4.771-2.043-7.499-1.364l-7.49-1.355
					l-18.396-7.499v-51.782l25.209-6.129l6.813,1.364l11.583-0.678l2.722-4.776l-1.365-6.128
					C50.916,302.375,50.916,301.005,50.916,300.327z"/>
			</g>
		</g>
		<g>
			<g>
				<path d="M110.183,356.881l-25.888-3.409l-35.428-4.775l-42.235-6.129c-2.049,0-2.728,0.687-2.728,2.044
					c0,1.364,0.679,2.048,2.043,2.048l41.563,5.442l36.108,5.456l25.209,3.407c2.042,0,2.719,0,2.719-1.364
					C112.232,358.236,111.546,356.881,110.183,356.881z"/>
			</g>
		</g>
		<g>
			<g>
				<path d="M63.857,305.783h-2.721c-1.364,0.679-2.05,2.036-0.687,2.72l8.857,13.627c6.813,10.904,12.269,22.481,17.717,34.751
					c0.679,0.677,1.364,1.355,2.721,0.677c1.364,0,2.05-1.363,1.364-2.049c-4.771-12.941-11.584-24.523-18.396-36.101
					L63.857,305.783z"/>
			</g>
		</g>
		<g>
			<g>
				<path d="M60.45,323.494h-2.72c-1.363,1.355-1.363,2.042-0.686,2.726c4.092,4.766,10.905,8.171,21.124,10.222l2.722-1.37
					c0.686-2.037,0-2.723-1.365-2.723C69.307,330.307,62.493,326.9,60.45,323.494z"/>
			</g>
		</g>
		<g>
			<g>
				<path d="M35.242,321.444c0-1.358-1.357-2.036-2.721-0.679c-0.686,0.679-0.686,1.364-0.686,2.729l8.862,12.261
					c6.813,8.856,13.627,14.312,18.39,18.397l3.407-0.681c1.364-0.684,0.685-2.048-0.678-2.727
					c-4.771-3.405-10.899-8.861-17.712-17.711L35.242,321.444z"/>
			</g>
		</g>
		<g>
			<g>
				<path d="M22.301,325.536c-0.685-1.363-2.043-0.687-2.727,0c-0.68,1.364-0.68,2.721,0.684,3.406
					c5.45,3.406,13.627,6.813,24.524,10.904l2.728-1.37c0-1.357,0-2.035-2.048-2.722C35.926,332.349,28.428,328.942,22.301,325.536z
					"/>
			</g>
		</g>
		<g>
			<g>
				<path d="M52.96,350.066c-0.687-0.685-1.364-1.37-2.044-0.685c-17.718,6.813-32.021,10.904-44.283,11.583
					c-1.363,0-2.049,1.356-2.049,2.728l2.049,2.036c12.941-1.358,27.93-5.442,45.641-12.94
					C53.638,352.788,54.324,351.424,52.96,350.066z"/>
			</g>
		</g>
		<g>
			<g>
				<path d="M87.703,354.83c-1.365-1.358-2.043-1.358-2.722-1.358c-20.438,10.221-34.065,16.349-42.241,17.711
					c-0.685,0-2.043,1.358-2.043,2.729l2.722,2.035c8.854-2.035,22.481-8.17,42.919-18.389L87.703,354.83z"/>
			</g>
		</g>
		<g>
			<g>
				<path d="M102.693,356.194h-2.728L83.618,369.82l-26.574,20.438c-1.364,0.686-1.364,1.364-0.678,2.723l2.72,0.683
					c6.134-4.09,14.99-10.904,27.252-21.122l15.675-12.94L102.693,356.194z"/>
			</g>
		</g>
		<g>
			<g>
				<path d="M78.847,373.911c-0.68,0-2.042,0.68-2.728,2.035l-1.357,10.222c-2.049,6.813-4.771,12.269-8.862,14.994
					c-0.68,1.358-0.68,2.723,0,2.723l3.407,0.684c3.407-4.091,6.813-9.541,8.861-17.03l2.722-10.905
					C80.89,374.591,80.89,373.911,78.847,373.911z"/>
			</g>
		</g>
		<g>
			<g>
				<path fill="#858585" d="M322.068,194.727c-2.043,0-4.771,2.728-8.177,8.862l-6.813,9.535c-4.086,0.685-7.491-2.042-10.898-6.813
					c-1.364-2.042-4.771-2.042-9.541,2.042c-5.449,3.407-8.177,8.177-9.54,12.269c-0.679,2.721,0,6.813,1.363,10.898l2.728,8.855
					c0,6.127-2.728,8.177-8.177,7.498c-2.728-0.686-4.085-2.049-5.449-5.455l-1.364-10.898c0-3.407-2.727-4.77-6.813-3.407
					c-4.085,0.679-7.49,2.729-10.897,5.45c-2.728,2.042-4.092,5.449-4.771,10.219c-0.686,5.449,0,10.219,1.364,15.668
					c2.042,6.813-0.686,18.397-9.541,35.429c0,8.177,3.406,14.989,8.855,20.438c4.771,4.093,11.584,8.179,21.802,11.585
					c7.493,2.729,21.119,2.042,40.199-3.406c16.347-4.086,26.567-8.179,29.973-10.898c2.044-1.37,3.406-6.813,4.771-14.997
					c0-9.535,0-14.305-1.364-15.662l-8.854-2.728c-4.771-0.679-7.492-1.363-7.492-2.728c-0.686-1.357,1.358-3.406,6.128-5.449
					l9.541-4.091c2.042-1.358,2.721-4.764,2.721-10.898l-0.679-10.897l-6.813-2.728c-3.406,0-5.449-0.679-6.135-2.043
					c0-1.364,0.686-3.407,2.729-4.77l6.134-5.449c0.679-2.043,1.358-6.813,0.679-14.311l-2.729-14.983
					C335.008,196.776,330.924,194.727,322.068,194.727z"/>
			</g>
		</g>
		<g>
			<g>
				<path d="M306.399,210.402c-2.729,0.679-5.455-1.371-7.498-5.456c-1.364-2.043-3.405-3.407-6.127-2.043
					c-3.406,0-6.813,2.043-10.904,5.449c-3.407,4.085-6.128,8.177-6.813,11.583c-1.363,4.092-0.679,8.855,1.364,14.989l2.042,5.449
					l-1.363,4.771h-4.086c-1.364,0-3.405-3.406-3.405-10.898l-0.68-2.728c0-2.728-2.049-4.77-3.405-6.134l-10.221,1.364l-8.862,4.77
					c-3.406,2.043-4.764,6.813-5.448,12.262c0,5.449,0,10.904,1.364,17.032c1.363,2.721,0,8.177-2.728,16.346l-6.813,15.676v2.043
					c0,9.533,3.406,17.032,10.219,23.847c5.456,3.405,12.948,7.495,22.489,10.904c7.49,2.72,21.796,2.033,41.556-3.409
					c16.353-4.09,27.251-7.495,30.657-10.904c2.728-2.042,4.771-8.854,6.135-20.438v-5.45c0-4.77-0.686-8.176-2.05-8.862
					l-9.534-3.407l-5.448-1.356c0.678-0.68,4.085-2.05,9.533-4.771l4.092-2.042c3.407-1.364,4.086-6.134,4.086-13.625l-1.364-11.583
					c-1.364-2.042-3.407-3.406-8.855-3.406l-3.406-1.364l3.406-2.043l5.448-5.449l1.364-6.813l-2.042-14.99l-1.364-8.855
					c0-6.134-4.77-8.862-15.668-8.862c-2.728,0-6.813,4.092-10.904,10.904L306.399,210.402z M290.047,209.031l4.085-1.357
					c3.405,6.813,8.177,8.855,12.947,7.491c2.727,0,5.448-3.406,8.854-8.855c3.407-6.127,4.771-8.855,6.135-8.855
					c7.491,0,10.898,0.679,10.898,3.406l0.685,8.855l1.356,14.99l-0.678,3.406l-3.406,4.764c-3.407,2.728-4.771,5.456-4.771,6.813
					v1.371c0.686,2.721,3.406,4.085,8.177,4.085l4.086,0.678l1.362,8.177l-2.042,10.22l-3.406,2.042
					c-9.54,3.407-13.625,6.813-13.625,10.219v0.678c0,2.729,3.405,4.092,10.897,5.457l6.134,1.358l0.68,4.777l-0.68,12.94
					l-3.406,9.535c-3.406,2.048-12.948,5.454-28.615,10.219c-18.396,4.775-31.337,5.456-38.835,3.405
					c-8.855-3.405-15.668-7.489-20.439-11.576c-4.764-4.771-7.491-10.898-8.169-18.396l6.127-12.941
					c2.728-7.498,4.092-14.311,4.092-19.082l-0.686-4.085l-2.042-10.898c0-6.134,2.042-10.219,4.085-12.268
					c2.728-2.042,4.771-3.407,7.499-4.085l5.448-0.678l0.679,0.678v3.406l2.05,10.22c1.356,3.407,3.405,5.448,6.812,5.448
					c3.407,0.686,6.128,0,8.171-2.042c2.729-1.365,3.405-4.085,3.405-8.177l-2.041-8.177c-2.043-4.085-2.043-8.17-2.043-10.898
					s2.043-4.771,4.084-6.813L290.047,209.031z"/>
			</g>
		</g>
		<g>
			<g>
				<path d="M296.181,220.621c0-2.049-1.364-2.049-2.728-2.049c-1.364,0-1.364,1.364-1.364,2.728
					c1.364,10.219,4.771,20.439,8.855,31.336C301.63,254,302.993,254,303.671,254c1.364-0.685,2.044-2.042,1.364-3.407
					C300.266,240.375,297.537,230.155,296.181,220.621z"/>
			</g>
		</g>
		<g>
			<g>
				<path d="M333.651,254c-0.685-2.042-2.049-2.042-2.728-2.042l-21.118,4.085l-10.218,1.364c-2.051,0-2.729,0-2.729,1.364
					c0,2.042,0.678,2.042,2.729,2.042l10.896-0.685l21.118-4.085C333.651,256.042,333.651,255.364,333.651,254z"/>
			</g>
		</g>
		<g>
			<g>
				<path d="M313.892,272.396c0-1.363-0.679-1.363-2.043-1.363l-14.312,2.721l-8.854,0.686c-1.363,0.685-2.043,1.364-2.043,2.72
					c0,1.371,0.68,2.05,2.729,1.371l9.533-0.685l14.312-2.722C313.892,274.439,314.57,273.753,313.892,272.396z"/>
			</g>
		</g>
		<g>
			<g>
				<path d="M330.245,300.327c0-1.358-1.364-2.042-2.729-1.358l-60.637,7.493c-1.356,0-2.042,0.677-2.042,2.041l2.042,2.043
					l27.252-2.727l34.063-5.444L330.245,300.327z"/>
			</g>
		</g>
		<g>
			<g>
				<path d="M328.881,289.428c-0.686-1.364-1.364-1.364-2.728-1.364c-3.407,1.364-8.856,4.092-15.669,8.178l-9.54,6.133
					c-0.679,1.358-1.356,2.723-0.679,3.408h3.405l8.856-5.456c6.134-4.085,11.583-6.813,14.989-8.171
					C328.881,291.471,329.56,290.786,328.881,289.428z"/>
			</g>
		</g>
		<g>
			<g>
				<path d="M279.148,294.192l0.679-2.722c-7.492-10.219-12.947-20.438-17.032-32.7l-3.407-14.99l-2.041-2.042
					c-1.364,0-2.044,0.679-1.364,2.728c0,2.721,0.678,8.169,3.405,15.662c3.407,12.268,9.541,23.166,17.033,34.064H279.148z"/>
			</g>
		</g>
		<g>
			<g>
				<path d="M285.961,256.721c0-1.357-1.363-1.357-2.727-1.357c-0.68,0-1.364,1.357-0.68,2.728
					c2.721,9.534,4.765,14.983,6.813,16.347h3.406c0.679-0.686,0.679-1.364,0-2.043
					C290.047,269.668,288.683,264.905,285.961,256.721z"/>
			</g>
		</g>
		<g>
			<g>
				<path d="M324.11,206.995c-1.364-0.685-2.729,0-2.729,1.357c-6.127,14.99-14.303,31.336-23.158,49.054
					c-19.075,34.064-37.472,55.867-55.189,66.766c-1.357,0.677-1.357,1.363-0.678,2.728c0.678,1.356,2.042,1.356,2.728,0.678
					c18.39-10.898,37.471-33.386,55.86-67.45l23.846-50.412C325.475,208.353,324.79,207.674,324.11,206.995z"/>
			</g>
		</g>
		<g>
			<g>
				<path fill="#858585" d="M119.045,142.273l-15.674,1.357l8.862,9.541c6.813,5.449,13.626,8.855,20.439,8.855l27.929,1.363
					c4.085,0.679,10.898,3.407,19.075,9.541l-8.177-14.996c-4.085-2.036-8.17-4.085-12.262-5.443l-10.219-6.134
					c-4.771-2.05-8.177-3.407-11.584-3.407L119.045,142.273z"/>
			</g>
		</g>
		<g>
			<g>
				<path d="M153.11,146.358c-6.134-4.085-11.584-6.134-15.675-6.134l-8.17-0.679l-27.25,2.042l-1.364,1.364l0.679,2.042
					l9.541,10.22c7.491,6.127,14.99,8.855,21.803,8.855l26.566,2.049h1.363c4.771,0.679,10.22,4.084,17.033,8.848h3.407l0.677-3.406
					l-7.49-14.983l-0.679-1.363l-13.625-5.449L153.11,146.358z M108.141,144.994h20.439l8.855,0.685
					c3.407,0,7.498,1.357,12.948,4.764l19.76,9.541l2.722,5.449c-5.45-3.406-9.536-4.771-12.264-4.771h-0.678l-27.251-2.042
					C125.173,158.62,116.997,154.528,108.141,144.994z"/>
			</g>
		</g>
		<g>
			<g>
				<path fill="#858585" d="M273.693,139.545c6.134-8.177,8.861-14.99,6.134-18.396c-0.679-2.042-4.085-3.406-9.541-3.406
					l-12.262,3.406l-10.898,4.77l-10.904,3.407c-7.491,0-14.982,1.357-22.48,4.764c-2.722,2.049-5.449,5.456-6.813,10.904
					l-5.449,10.22c-6.813,5.449-12.946,14.989-17.031,29.293l6.813,1.364l4.085-7.498c3.406-5.442,6.813-9.534,10.905-10.897
					l14.304,0.678l14.989,2.049c3.406-1.363,6.134-3.406,8.855-6.813c3.406-4.77,6.813-7.491,9.54-9.541l12.262-7.491
					L273.693,139.545z"/>
			</g>
		</g>
		<g>
			<g>
				<path d="M275.742,140.902c7.492-9.534,9.533-16.347,6.813-21.117c-2.049-3.407-6.134-4.764-12.269-4.085
					c-4.763,0-8.855,0.678-13.626,3.406l-4.085,2.042l-16.354,4.77c-8.17,0-16.346,2.043-23.845,5.45
					c-4.085,2.042-6.813,6.813-8.171,13.625l-4.77,8.177c-6.135,4.764-12.262,14.982-18.396,30.657v2.042l2.042,1.364l7.499,2.042
					c1.356,0,2.721,0,2.721-2.042c4.093-8.862,8.856-14.99,14.312-17.033l12.263,0.679l15.667,1.363
					c4.771-1.363,8.855-4.092,11.583-8.176l8.177-8.17l10.221-6.134L275.742,140.902z M215.104,136.139
					c6.813-2.728,13.626-4.77,21.117-4.77l18.396-5.45l4.092-2.049l11.576-2.721c4.092-0.685,6.135,0,7.499,1.364
					c1.363,2.728-0.686,7.492-6.136,14.983l-8.854,7.499l-10.22,6.813l-10.219,8.855l-8.178,6.813l-12.939-2.042h-16.354
					c-6.135,2.042-10.898,8.176-14.989,17.717l-2.044-0.685c4.771-12.262,9.542-21.124,14.306-25.209
					c2.728-1.357,5.455-5.449,6.813-10.897C211.02,141.587,212.377,138.181,215.104,136.139z"/>
			</g>
		</g>
		<g>
			<g>
				<path d="M268.929,128.647l-2.729-0.686c-8.176,5.449-16.353,9.534-25.208,12.262c-10.22,3.406-19.753,9.541-29.294,17.711
					l-12.947,12.268c-0.679,0.679-0.679,2.042,0.686,2.729l2.722-0.686l11.583-10.904c9.54-8.17,19.074-14.305,28.615-17.033
					c9.541-2.721,17.711-7.491,25.888-12.94L268.929,128.647z"/>
			</g>
		</g>
		<g>
			<g>
				<path fill="#FFE000" d="M222.596,55.063c6.813-10.219,12.268-19.075,15.676-27.93c-9.541,3.406-19.082,9.541-28.615,17.033
					c-19.075,15.668-30.658,32.7-32.7,51.096C193.987,88.448,209.656,74.823,222.596,55.063z"/>
			</g>
		</g>
		<g>
			<g>
				<path d="M239.629,25.083h-2.722c-10.22,4.091-19.76,10.219-29.979,17.717c-19.075,15.668-29.972,32.701-32.7,52.46
					c0,0.679,0,1.357,0.679,2.042h2.728c17.71-6.813,33.385-20.438,47.011-39.513c6.813-10.219,11.576-20.439,14.983-29.979V25.083z
					 M204.886,51.656c8.177-7.491,17.71-14.305,27.93-19.76c-13.626,29.301-31.337,48.376-52.454,58.595
					C183.77,76.865,191.26,63.925,204.886,51.656z"/>
			</g>
		</g>
		<g>
			<g>
				<path fill="#D96038" d="M118.359,60.519L86.338,49.614l23.845,25.888c20.438,17.031,39.521,25.208,57.911,24.522
					C157.873,83.678,141.526,70.738,118.359,60.519z"/>
			</g>
		</g>
		<g>
			<g>
				<path d="M168.094,102.074l2.727-1.364l-0.678-2.042c-10.219-16.353-26.573-29.979-49.739-40.198L87.024,47.571l-2.729,0.678
					l0.686,2.728l25.202,27.252C129.264,95.261,149.019,103.431,168.094,102.074z M119.045,80.272
					c-9.541-7.499-18.396-16.347-25.894-25.888c32.021,8.855,55.867,23.167,70.178,42.92
					C149.019,96.619,134.028,90.491,119.045,80.272z"/>
			</g>
		</g>
		<g>
			<g>
				<path fill="#D96038" d="M91.794,102.753c-14.311,4.77-25.895,9.541-36.115,14.99l42.243,1.364
					c30.657-2.049,51.782-10.219,63.358-25.209C142.891,90.491,119.045,93.897,91.794,102.753z"/>
			</g>
		</g>
		<g>
			<g>
				<path d="M163.329,95.261v-2.049l-2.049-1.357c-18.389-3.406-41.556-0.678-69.486,8.17c-13.627,4.777-25.895,9.541-37.471,15.676
					l-1.364,2.728l2.042,1.357l44.285,1.364C129.264,119.106,151.062,110.93,163.329,95.261z M108.827,115.7
					c-14.311,2.042-29.302,2.042-44.284,0.678c36.106-16.354,66.765-23.167,91.288-20.438
					C145.613,105.48,129.944,112.293,108.827,115.7z"/>
			</g>
		</g>
		<g>
			<g>
				<path fill="#D96038" d="M173.548,41.437c-2.728-10.219-6.134-19.76-10.219-26.573c-3.406,7.499-6.134,17.032-6.812,27.937
					c-2.728,21.803,1.355,40.192,11.576,55.867C176.956,81.636,178.313,63.239,173.548,41.437z"/>
			</g>
		</g>
		<g>
			<g>
				<path d="M164.686,13.507l-1.357-1.364l-2.728,2.042c-3.406,8.177-6.134,18.396-6.812,29.301
					c-2.728,21.796,2.042,40.192,12.946,56.539l1.358,0.686l2.727-1.364c5.45-10.219,6.135-21.117,2.728-33.386
					c0.679,8.862-2.049,17.718-6.134,26.573c-6.134-10.897-9.542-24.523-9.542-38.149c0-10.219,2.05-21.803,5.456-33.386
					c7.492,14.99,10.898,29.301,10.898,43.605c3.407-6.813,3.407-14.305,2.043-22.488C173.548,31.218,170.143,21.677,164.686,13.507
					z"/>
			</g>
		</g>
		<g>
			<g>
				<path fill="#D96038" d="M236.907,80.272c10.897-6.813,19.753-13.626,26.566-20.438l-33.38,4.091
					c-24.53,6.127-42.241,16.347-53.138,31.336C195.345,97.304,215.104,92.533,236.907,80.272z"/>
			</g>
		</g>
		<g>
			<g>
				<path d="M263.474,57.791l-34.743,4.085c-24.524,6.134-42.92,16.354-54.503,32.022v2.042l2.043,1.364
					c19.074,2.721,39.513-2.042,61.315-14.989l27.938-20.439l0.677-2.728L263.474,57.791z M221.917,68.688
					c10.898-3.406,22.481-5.449,34.743-6.134l-28.608,19.76c-16.354,8.176-32.021,11.583-46.334,10.897
					C191.26,82.314,204.886,74.823,221.917,68.688z"/>
			</g>
		</g>
		<g>
			<g>
				<path fill="#FFE000" d="M196.709,46.207c1.363-8.855,1.363-17.032-0.679-23.845c-5.449,4.77-11.583,11.583-16.354,19.753
					c-9.534,16.354-12.262,33.387-6.812,51.782C185.811,80.957,193.987,65.282,196.709,46.207z"/>
			</g>
		</g>
		<g>
			<g>
				<path d="M194.666,20.998c-6.813,4.771-11.583,11.583-17.032,19.76c-6.813,11.577-8.177,23.845-4.77,35.422
					c0-18.39,7.497-34.744,21.801-49.048v8.855c0,19.754-6.813,37.471-20.438,52.46l-1.363-11.583
					c-2.722,6.128-3.408,11.583-2.722,17.718l1.357,1.357h2.728c13.625-13.625,22.481-29.294,24.523-48.369
					c1.364-10.22,1.364-18.396-0.679-25.209l-1.363-2.043L194.666,20.998z"/>
			</g>
		</g>
		<g>
			<g>
				<path fill="#FFE000" d="M140.163,44.843l-23.166-21.118c2.048,9.541,5.454,20.439,10.219,31.337
					c9.541,23.167,23.167,37.471,40.878,44.962C166.051,81.636,156.518,63.239,140.163,44.843z"/>
			</g>
		</g>
		<g>
			<g>
				<path d="M170.821,99.346c-2.727-19.074-11.583-37.471-27.251-55.181l-24.524-23.167c-0.686-0.679-2.048-0.679-3.406,0
					c0,0.679-0.686,1.364-0.686,2.728c2.043,10.898,5.45,22.481,10.219,34.065c10.219,22.481,24.531,37.471,42.242,44.284h2.728
					L170.821,99.346z M132.672,61.875c-5.457-10.219-8.862-21.117-11.584-32.701c24.525,20.439,38.835,42.242,43.598,66.086
					C152.424,88.448,141.526,78.229,132.672,61.875z"/>
			</g>
		</g>
		<g>
			<g>
				<path fill="#FFE000" d="M103.371,77.551L72.035,76.18l29.293,18.403c22.482,10.897,42.241,12.94,59.952,4.763
					C146.296,88.448,127.215,80.272,103.371,77.551z"/>
			</g>
		</g>
		<g>
			<g>
				<path d="M161.966,102.074l1.363-2.05l-0.686-2.035c-14.989-12.269-34.064-19.76-57.909-23.167l-32.7-1.364
					c-0.68,0-1.364,0.685-2.043,1.364l0.68,3.407l30.657,19.074C123.81,107.523,144.248,109.565,161.966,102.074z M110.183,95.94
					c-10.896-4.085-21.795-10.219-31.336-17.71c31.336,0,56.545,6.813,76.984,20.438C142.206,103.431,127.215,102.074,110.183,95.94
					z"/>
			</g>
		</g>
		<g>
			<g>
				<path fill="#858585" d="M183.77,131.369c0.678-8.856,1.355-17.718,3.405-25.888l2.042-10.219l-8.176-1.364
					c-6.135,0-10.22,2.042-12.947,6.813l-7.493-1.364c-6.134,0-11.583,1.364-16.353,4.771l8.862,10.905l12.941,17.71
					c1.363,3.407,7.497,31.337,17.718,83.797c10.896,57.91,17.709,92.66,21.794,106.285l33.386,116.498
					c17.711,60.637,30.659,98.108,38.15,113.092l-11.576,34.063h23.159c18.396-42.234,29.979-73.578,35.428-93.33
					c3.406-9.541,10.22-30.659,23.166-65.408l23.847-70.172l-4.092-59.272c-39.515,126.039-66.766,203.7-81.756,233.001
					c-22.48-56.553-42.241-117.184-59.272-181.904c-10.898-44.284-21.117-90.611-30.658-138.301
					C187.175,167.476,183.77,141.587,183.77,131.369z"/>
			</g>
		</g>
		<g>
			<g>
				<path d="M367.716,295.563l-2.729,2.723c-37.471,115.817-64.043,191.445-79.712,226.187
					c-22.48-59.272-40.877-117.867-56.545-175.09c-10.898-42.92-20.438-87.883-29.979-134.895
					c-8.17-43.605-12.262-70.856-12.262-81.755v-1.363c0.686-8.856,1.363-17.033,3.407-25.209l2.041-10.219v-0.679l-1.356-2.728
					l-11.583-0.679c-4.771,0-8.856,2.043-11.584,5.449c-8.855-2.042-17.032-0.685-24.523,4.771l-1.365,2.042l0,0l0.68,1.364
					l8.177,10.898l12.946,18.396c1.357,2.043,6.813,28.616,17.032,78.349c10.898,57.909,18.39,95.38,23.16,110.371l7.498,27.93
					c31.337,112.411,52.454,179.183,62.674,200.98l-10.898,32.708v1.355v1.364l2.729,1.364h23.159l2.042-2.051
					c18.396-42.912,30.657-73.569,36.792-93.331l19.76-57.908c13.626-38.15,22.482-63.365,26.567-76.99v-1.358l-3.406-59.272
					L367.716,295.563z M170.821,102.074c3.407-4.771,7.492-6.813,14.99-4.771c-2.041,11.583-4.093,22.481-4.77,34.065v1.363
					c0,12.262,4.084,39.513,12.261,81.755c8.856,47.012,19.075,91.975,30.657,135.58c10.22,40.191,23.167,81.755,38.836,126.718
					l19.76,55.858c0.68,1.372,1.356,1.372,2.721,1.372l2.044-1.372c13.625-27.251,40.197-100.821,78.348-219.369l2.728,44.284
					l-26.573,76.984l-20.439,57.909L286.64,583.74h-17.031l10.219-30.658v-0.678v-1.358
					c-10.219-18.403-30.658-85.847-64.044-200.979l-7.491-27.937c-4.086-16.347-12.262-52.461-23.167-109.692
					c-9.534-50.411-14.982-77.663-17.031-81.069l-19.075-25.888c5.449-3.406,11.583-4.085,18.396-2.728L170.821,102.074z"/>
			</g>
		</g>
		<g>
			<g>
				<path fill="#858585" d="M119.045,204.268c-10.218,3.406-14.989,7.492-13.624,13.626c2.719,8.855,2.719,14.983-0.687,17.711
					c-2.721,2.049-3.407,4.77-4.085,6.813c-0.685,2.728,1.364,6.134,4.085,8.176c9.54,8.177,12.946,14.312,10.904,19.075
					c-2.049,2.727-4.771,4.771-8.863,6.135c-5.448,0.678-8.168,2.042-8.854,2.727c-1.364,2.036-1.364,5.443,0,9.534
					c0.686,4.771,3.406,8.178,5.448,10.221c3.406,2.72,12.269,6.126,25.894,10.218c16.349,4.771,31.337,6.813,44.284,6.813
					c12.262,0,20.439-3.405,23.161-12.261l0.686-11.584c5.448-8.855,8.169-17.032,8.169-23.845l-2.042-9.534
					c-0.679-2.728,0-6.134,1.364-9.54c5.448-17.033,3.406-26.573-6.813-30.658c-4.085-1.364-8.176,0.678-11.583,6.813l-8.176,10.219
					l-8.17-6.813l-9.542-10.219l-10.218-1.364c-4.086,0-8.177-0.685-10.898-2.042l-10.22-8.177
					C125.858,204.268,122.451,202.903,119.045,204.268z"/>
			</g>
		</g>
		<g>
			<g>
				<path d="M127.901,202.903l-9.542-1.364c-5.448,2.049-9.532,3.407-11.583,4.771c-3.406,3.406-4.763,7.498-3.406,12.262
					c2.051,8.177,2.051,12.947,0,14.99c-3.406,2.721-5.448,6.127-5.448,10.219c0,3.406,2.042,6.813,5.448,9.534
					c8.175,6.134,11.583,12.268,9.541,15.675c-0.679,2.042-4.084,3.406-9.541,4.085c-3.406,1.364-6.813,2.728-7.491,4.084
					c-1.363,2.05-2.044,4.778-1.363,9.541c2.042,6.815,4.091,11.585,7.497,13.627c4.085,2.728,12.94,6.812,26.566,10.898
					c17.034,4.776,31.344,7.499,44.969,7.499c10.899,0,17.711-3.409,22.482-8.857c2.721-4.084,4.771-8.177,4.771-14.305
					l-0.686-4.092c5.448-8.177,8.177-16.347,8.177-23.845l-1.364-9.534l-1.364-3.407l1.364-5.456
					c2.044-6.134,3.406-11.576,3.406-16.353c0-8.17-3.406-14.305-10.897-17.032c-6.813-2.721-12.262,0.685-17.719,10.905
					l-3.405,5.449l-6.813-6.813l-10.219-9.541l-10.219-1.357l-10.22-2.728l-4.764-3.407L127.901,202.903z M119.725,206.995
					c2.726-0.685,7.491,0.679,12.947,5.442l5.448,4.092c2.721,2.042,7.493,3.407,12.941,3.407l8.176,0.685l8.177,7.491
					c4.085,6.813,8.856,9.541,11.584,9.541c2.719-0.686,5.449-2.728,8.176-8.862l4.085-7.492h6.135
					c8.169,2.728,9.533,11.577,4.084,25.887c-1.363,5.449-1.363,9.534,0,12.262l1.364,8.177c0,6.813-2.728,13.625-8.177,21.802
					v2.043v5.45c0,4.084-0.679,7.49-3.406,9.541c-3.407,4.764-9.542,6.134-17.711,6.134c-12.947,0-27.252-2.05-42.927-6.813
					c-13.625-4.093-21.794-7.498-25.886-10.221c-2.721-1.37-4.085-4.092-4.77-9.54c0-3.407,0-4.771,0-5.457l5.457-2.036
					c6.811-2.049,10.218-4.091,12.26-7.498c2.043-3.406,1.364-8.177-2.042-12.94l-8.863-9.54c-2.042-1.365-3.406-3.407-3.406-4.771
					c0-2.042,1.364-4.77,3.406-6.127c3.407-3.406,4.092-10.219,2.051-20.438C107.463,213.123,111.546,209.716,119.725,206.995z"/>
			</g>
		</g>
		<g>
			<g>
				<path d="M122.451,216.529c-0.684-1.364-2.047-1.364-3.406,0c-0.686,0-0.686,1.364,0,2.042l22.481,30.658
					c19.075,23.846,40.192,43.605,62.68,59.273l2.722-0.684v-2.722c-22.48-15.67-42.92-34.75-61.995-57.911L122.451,216.529z"/>
			</g>
		</g>
		<g>
			<g>
				<path d="M183.083,285.345l14.312-50.419c0.678-1.363,0-2.049-1.364-2.728c-1.364,0-2.043,0-2.729,1.364l-14.989,51.096
					c0.686-1.364,2.048-2.042,2.728-1.364C182.404,283.974,183.083,284.658,183.083,285.345z"/>
			</g>
		</g>
		<g>
			<g>
				<path d="M153.79,228.112c0-2.049-0.68-2.728-2.043-2.049c-1.363,0.686-2.042,1.371-1.363,2.049l2.042,14.305l2.043,21.802
					c0,0.685,0.686,1.363,2.05,1.363c0.678,0.679,1.355,0,2.042-0.678l0.679-0.685c3.406-8.177,6.134-16.347,8.177-25.888
					l-2.043-2.049c-1.364-0.679-2.042,0-2.042,2.049l-5.456,17.032L153.79,228.112z"/>
			</g>
		</g>
		<g>
			<g>
				<path d="M121.088,242.417c-0.685-1.358-2.043-1.358-2.729,0c-1.363,1.363-1.363,1.363,0,2.728l8.856,6.813
					c6.813,3.407,14.99,6.134,23.167,6.813c1.363,0.678,2.042,0,2.042-1.364c0.686-1.364,0-2.042-2.042-2.042
					c-7.492-1.364-14.305-3.407-21.119-7.492L121.088,242.417z"/>
			</g>
		</g>
		<g>
			<g>
				<path d="M127.215,271.032c-0.677,0-1.357,0-2.042,1.363c0,1.358,0,2.043,1.365,2.728l14.988,3.407l33.38,4.085l2.728-2.05
					l-2.728-2.036l-32.701-4.091L127.215,271.032z"/>
			</g>
		</g>
		<g>
			<g>
				<path fill="#858585" d="M155.153,424.324l-12.262,7.497c-8.863,6.813-13.627,11.576-15.676,14.303
					c-2.042,3.409-2.721,7.493-1.357,12.263l3.406,9.534l-0.685,7.499c-0.679,3.406,0,6.126,2.042,6.813l11.584,0.686l8.177,1.356
					l-10.22,7.493c-7.491,6.134-9.542,12.269-7.491,19.758c1.356,2.729,3.406,4.087,5.448,4.087s4.771,1.37,5.449,4.776
					l3.407,14.305c0.679,5.448,2.728,8.854,4.77,9.54l5.449,4.085c2.042,1.357,4.085,0,6.813-2.049l7.492-7.492
					c2.728-2.729,4.771-4.084,6.813-4.084l8.862,2.728c2.722,0,4.763-1.372,7.491-3.406c7.492-10.22,12.262-19.761,13.626-27.253
					v-12.947c0-3.405,2.042-4.77,4.085-4.77c2.728,0,4.771,2.723,6.135,6.813c0.678,5.45,3.405,8.856,6.812,10.904l16.354,5.444
					l14.306-2.036c4.085-3.408,7.491-8.185,10.218-14.313c2.044-6.127,2.044-10.219,0-12.939c-6.133-4.777-9.54-10.22-10.218-14.313
					l-0.68-10.219l-2.728-10.218c-5.449-10.221-10.219-17.033-14.989-20.439c-8.178-6.128-20.438-9.534-37.471-10.22
					C182.404,416.146,167.415,418.195,155.153,424.324z"/>
			</g>
		</g>
		<g>
			<g>
				<path d="M200.115,414.103c-18.397-0.684-33.379,1.364-46.326,7.499l0,0c-3.407,2.723-8.176,5.442-13.627,9.534
					c-8.176,6.128-12.947,10.219-14.99,13.624c-3.406,5.45-3.406,11.585,0,19.756l0.686,4.09v4.093
					c-0.686,6.128,0,10.22,4.085,12.255l11.582,0.686h1.365c-8.863,6.813-13.627,12.941-13.627,21.123l1.357,5.444
					c1.365,4.776,3.407,6.812,6.813,6.812c2.05,0,2.728,0.685,3.407,2.049l2.728,11.576l2.044,8.863
					c1.363,2.728,2.726,4.764,4.77,5.448l3.407,2.722l5.448,2.05c1.363,0,4.091-0.68,6.813-3.407l6.813-6.813
					c1.363-2.729,4.091-4.085,5.448-4.085l4.77,1.356l6.814,0.68l6.813-3.408c8.177-10.219,12.947-20.437,14.311-29.287v-8.182
					l0.679-6.129l0.679-0.684l2.728,4.775c2.728,6.813,5.449,10.898,9.541,12.255c14.304,7.498,25.202,8.863,32.015,3.408
					c7.499-4.765,11.584-11.577,12.948-20.438c1.364-4.087,0.678-7.493-0.68-9.535l-2.729-3.406l-7.49-10.221l-0.686-6.812
					c0-6.813-2.042-12.261-3.406-14.989c-5.449-10.22-10.22-17.711-15.669-21.117C230.772,418.873,217.832,415.467,200.115,414.103z
					 M156.518,427.044c10.897-6.127,25.2-8.171,42.919-6.813c16.347,0.686,28.615,4.093,36.106,10.218
					c4.086,2.051,9.541,8.863,14.305,18.403c1.364,2.722,2.728,6.813,2.728,12.941l0.679,6.812
					c0.685,4.093,3.406,8.856,9.541,14.313l1.364,2.035l0.679,5.456c-1.364,7.492-5.45,12.946-10.899,17.711
					c-4.77,4.086-14.31,2.05-27.251-4.084c-2.042-0.681-4.771-4.087-6.134-8.863c-2.042-6.128-4.771-8.848-8.177-8.848l-4.764,2.035
					c-2.05,1.37-2.728,4.777-2.728,10.22v8.182c-0.68,7.492-4.771,16.349-12.948,25.203l-3.405,2.05l-4.085-0.686l-5.449-0.687
					c-4.092-1.356-7.499,1.372-10.905,5.456l-5.45,6.135l-2.72,2.036l-2.728-1.358l-4.085-2.728
					c-2.048-0.678-2.727-4.085-3.406-10.897l-3.408-12.269c-2.048-3.405-4.091-5.441-8.176-5.441c-1.364,0-2.042-1.37-2.042-2.728
					c-2.05-5.457,0-11.584,6.128-17.711l9.541-6.136l1.364-2.049v-2.035c-2.727-2.728-6.134-3.407-12.269-2.728h-8.169l-2.051-2.05
					l0.687-4.084l0.679-6.814l-1.365-4.764c-2.042-3.405-2.72-6.813-2.72-9.54l1.363-4.77
					C131.986,444.076,140.841,436.585,156.518,427.044z"/>
			</g>
		</g>
		<g>
			<g>
				<path d="M199.437,415.467l-1.364-2.048c-1.363,0-2.728,0.684-2.728,1.37c-4.085,32.016-8.17,51.097-14.304,57.909
					c-8.856,10.898-16.355,30.657-21.803,58.588c-0.679,1.356,0,2.729,1.363,2.729l2.728-1.372
					c4.765-27.251,12.262-46.317,21.118-57.223c4.085-4.092,7.49-15.669,10.897-33.379L199.437,415.467z"/>
			</g>
		</g>
		<g>
			<g>
				<path d="M175.591,489.045c-0.685-1.364-1.363-2.043-2.042-1.364l-12.947,4.771c-8.855,4.092-14.305,8.178-17.032,12.94
					c0,1.37,0,2.05,0.679,2.729l2.728-0.679c2.042-3.405,6.813-6.813,12.947-10.22l14.304-5.454
					C175.591,491.768,176.271,490.409,175.591,489.045z"/>
			</g>
		</g>
		<g>
			<g>
				<path d="M179.676,480.868c-0.678-1.357-2.042-2.042-2.72-0.678c-2.05,0-2.05,1.355-0.686,2.728l4.771,10.896
					c3.406,9.541,6.134,18.392,7.491,28.61l2.728,1.37l1.363-2.729c-1.363-9.541-4.771-19.081-8.176-28.615L179.676,480.868z"/>
			</g>
		</g>
		<g>
			<g>
				<path d="M187.175,499.949c-1.364-0.685-2.728,0-2.728,0.68l-3.406,6.133c-1.365,5.444-3.407,10.221-3.407,15.663
					c0,1.37,0.679,2.047,2.042,2.047c1.365,0,2.042-0.677,2.042-2.047c0-4.764,1.365-9.535,2.729-13.627l3.405-6.126
					C188.532,501.985,187.853,500.629,187.175,499.949z"/>
			</g>
		</g>
		<g>
			<g>
				<path d="M194.666,442.041c0-0.687,0-1.371-2.043-1.371c-8.176,1.371-19.075,5.454-34.064,11.589l-19.759,7.492
					c-1.365,1.358-1.365,2.043-1.365,2.728c0.686,2.037,2.05,2.721,2.728,1.356l19.761-8.17
					c14.304-5.455,25.887-9.541,34.064-10.905C194.666,444.076,195.345,442.719,194.666,442.041z"/>
			</g>
		</g>
		<g>
			<g>
				<path d="M184.447,444.076c-1.365-1.357-2.729-0.679-3.406,0.684c-8.856,14.991-16.355,24.531-23.168,27.938
					c-0.678,0.678-0.678,2.035-0.678,2.722c0.678,1.364,2.042,2.042,3.406,0.684c6.813-4.09,14.99-13.625,23.846-29.299
					C185.811,445.446,185.125,444.76,184.447,444.076z"/>
			</g>
		</g>
		<g>
			<g>
				<path d="M216.468,424.324c-0.685-1.364-1.363-2.045-2.727-0.687c-1.364,0.687-1.364,1.37-1.364,2.728l36.113,72.215
					c0.679,1.369,1.357,1.369,2.722,1.369c1.363-0.685,1.363-1.369,1.363-3.406l-25.208-49.061L216.468,424.324z"/>
			</g>
		</g>
		<g>
			<g>
				<path d="M226.003,442.041c-1.357,0-2.044,0-2.044,2.035l-0.678,14.311c0,10.219,1.364,19.754,3.406,28.615
					c0.68,2.043,1.364,2.043,2.721,2.043l1.364-2.72c-2.042-8.863-3.405-18.404-3.405-28.624l0.685-12.941
					C228.052,442.719,227.367,442.041,226.003,442.041z"/>
			</g>
		</g>
		<g>
			<g>
				<path d="M204.206,424.324c0-2.045-0.685-2.723-2.728-2.045c-0.678,0-1.363,0.681-1.363,2.045l1.363,21.122
					c0,16.348,0,30.657-2.728,43.599c-0.679,1.364,0,2.723,2.05,2.723l2.042-2.037c2.043-12.946,2.721-27.937,2.721-44.971
					L204.206,424.324z"/>
			</g>
		</g>
		<g>
			<g>
				<path fill="#FFE000" d="M146.976,360.965c-40.877,6.812-59.273,17.032-55.182,31.337c3.406,14.988,23.845,14.988,61.995,1.361
					c38.148-14.31,57.23-24.529,55.182-31.342C208.292,354.83,187.175,354.83,146.976,360.965z"/>
			</g>
		</g>
		<g>
			<g>
				<path d="M183.77,383.445c19.752-10.219,28.607-17.033,27.929-21.803l-4.771-4.085c-10.219-3.405-28.615-3.405-54.503,0
					c-29.293,4.085-48.368,10.219-57.908,19.759c-4.772,4.765-6.813,9.535-5.45,15.664c2.728,11.588,17.032,14.996,42.241,9.54
					C146.976,399.114,164.686,392.98,183.77,383.445z M166.051,360.965l41.562,2.041c-1.363,3.406-13.626,10.221-36.792,20.439
					c-24.524,11.582-44.962,17.032-59.952,17.032c-9.541,0-15.668-2.722-17.717-8.855v-2.049c0-5.442,4.771-9.534,12.27-14.305
					C119.045,367.776,139.484,363.006,166.051,360.965z"/>
			</g>
		</g>
		<g>
			<g>
				<path fill="#FFE000" d="M208.972,362.321c2.048-6.127-17.712-15.662-57.91-25.88c-40.878-10.905-61.317-9.541-64.038,3.405
					c-2.043,13.625,16.347,22.475,57.909,26.565C186.489,370.504,207.613,369.134,208.972,362.321z"/>
			</g>
		</g>
		<g>
			<g>
				<path d="M176.956,369.82c21.795,0,33.378-2.722,34.742-6.814c0-2.041-0.679-3.405-2.727-5.448
					c-7.493-6.813-24.524-14.304-51.776-21.803c-29.294-8.854-50.419-10.219-61.995-6.813c-6.813,2.72-10.219,6.129-10.219,10.904
					c-2.049,10.898,9.536,19.754,35.422,24.523L176.956,369.82z M167.415,343.254c24.523,8.848,38.149,14.304,39.513,19.067
					l-42.92,2.727c-28.616-1.355-49.733-4.762-64.043-11.576c-6.813-3.405-10.898-7.496-10.898-11.588v-1.358
					c0.678-4.771,6.134-7.491,15.668-8.177C119.725,331.662,140.841,335.071,167.415,343.254z"/>
			</g>
		</g>
		<g>
			<g>
				<path fill="#FFE000" d="M215.104,311.91c-3.406-33.38-10.898-49.055-24.523-47.005c-12.947,1.357-14.99,18.389-5.456,50.411
					c9.541,32.702,17.033,47.69,23.847,47.006C215.783,360.965,217.832,343.932,215.104,311.91z"/>
			</g>
		</g>
		<g>
			<g>
				<path d="M215.783,303.055c-3.406-28.616-12.262-42.242-25.202-40.878c-5.456,0.679-9.54,4.085-10.905,8.855
					c-4.085,9.534-2.72,25.21,3.406,47.006c5.45,19.081,11.583,32.707,19.076,42.248c2.728,2.72,5.455,4.762,6.813,4.084
					c4.77-0.678,7.496-8.176,8.86-21.803C218.512,328.942,217.832,316.002,215.783,303.055z M191.26,267.626
					c6.135-1.364,11.583,4.77,15.668,16.348c4.771,12.269,6.813,27.937,6.135,47.012c-0.686,17.711-1.364,27.251-4.771,28.615
					c-3.406-0.685-8.177-9.534-14.99-27.252c-7.491-18.397-11.584-34.063-11.584-47.69v-2.721
					C182.404,273.075,185.125,267.626,191.26,267.626z"/>
			</g>
		</g>
		<g>
			<g>
				<path fill="#D96038" d="M268.244,267.626c-8.177-6.813-21.118,6.813-39.514,40.193c-18.396,32.706-25.209,51.781-20.438,55.187
					c5.449,4.093,18.396-9.534,40.198-40.191C269.608,292.835,276.421,274.439,268.244,267.626z"/>
			</g>
		</g>
		<g>
			<g>
				<path d="M257.347,272.396c4.084-3.406,7.491-4.77,9.533-2.727l1.364,3.407c3.405-2.043,4.091-4.764,1.364-7.492
					C266.2,262.855,262.116,264.905,257.347,272.396z"/>
				<path d="M261.431,307.819c4.093-6.814,4.77-12.941,4.093-19.755c-5.456,13.626-14.99,28.616-29.302,47.007
					c-14.305,17.717-22.48,25.894-26.565,25.894c-1.364-4.084,3.406-17.033,14.989-40.199c11.576-24.523,23.159-40.878,32.701-48.37
					c-4.771,0-8.178,2.043-11.584,5.45c-10.22,12.263-20.439,28.616-29.979,49.055c-10.22,22.481-12.94,34.742-8.855,38.147
					c4.771,3.409,14.989-4.762,31.344-24.522L261.431,307.819z"/>
			</g>
		</g>
		<g>
			<g>
				<path fill="#FFE000" d="M232.137,309.867c9.54-37.472,8.177-57.231-4.085-58.588c-12.269-2.049-19.76,16.347-23.846,53.819
					c-3.405,36.786-2.048,56.545,4.086,57.908C215.104,365.048,222.596,347.34,232.137,309.867z"/>
			</g>
		</g>
		<g>
			<g>
				<path d="M228.73,248.552c-10.898-1.365-18.396,10.219-23.845,33.385c-3.407,15.662-4.771,32.695-4.085,51.776
					c0,19.759,2.721,30.657,7.491,32.016c1.364,0.684,3.406,0,5.449-2.723c6.135-6.812,12.946-23.159,19.76-47.69
					c7.491-27.251,8.855-45.647,5.448-56.545C236.907,252.636,233.501,249.908,228.73,248.552z M235.543,267.626v5.449
					c0,14.989-3.406,32.708-10.897,55.182c-7.498,21.125-12.947,31.344-16.354,32.708c-2.729-2.049-3.406-14.989-2.729-38.15
					c0.687-24.529,3.408-43.605,9.541-57.231c3.407-8.176,8.177-12.947,12.947-11.583C232.137,254,234.863,258.771,235.543,267.626z
					"/>
			</g>
		</g>
		<g>
			<g>
				<path fill="#D96038" d="M196.03,311.91c-14.313-32.022-25.888-45.648-35.429-42.242c-10.218,4.085-5.448,21.118,12.947,51.776
					c17.711,29.979,29.973,43.604,35.423,41.562C215.104,360.286,211.02,343.254,196.03,311.91z"/>
			</g>
		</g>
		<g>
			<g>
				<path d="M159.238,267.626c-2.72,1.364-5.448,3.406-5.448,8.177c-1.365,8.855,4.083,25.202,17.031,46.327
					c12.262,20.438,23.167,33.379,31.337,40.191c2.728,2.727,6.134,3.407,8.176,2.049c1.364,0,2.043-1.364,2.729-4.084
					c1.364-8.185-2.729-23.167-12.262-44.971c-10.22-22.48-19.76-37.47-28.616-44.283
					C167.415,267.626,163.329,266.262,159.238,267.626z M158.559,283.294l-0.686-5.448c0-2.722,1.365-4.771,2.728-5.45
					c4.085-1.363,9.542,1.358,15.669,8.856c8.177,11.583,16.353,27.251,23.845,47.005c7.498,18.402,10.219,29.301,8.177,32.029
					c-4.086,0-12.947-9.541-25.209-27.938C169.457,311.91,160.601,295.563,158.559,283.294z"/>
			</g>
		</g>
		<g>
			<g>
				<path fill="#FFE000" d="M208.972,362.321c3.405-5.44-8.171-20.438-36.107-46.319c-27.251-25.894-44.964-34.75-51.098-27.251
					c-6.813,8.17,5.448,23.16,35.428,46.321C187.853,357.558,204.886,366.412,208.972,362.321z"/>
			</g>
		</g>
		<g>
			<g>
				<path d="M129.944,284.658c-4.085-0.685-8.177,0-10.899,3.406c-6.134,7.499,2.722,21.125,25.888,40.878l36.108,25.21
					c17.031,9.54,26.572,12.946,29.979,8.854c0.679-1.363,0.679-3.405,0-5.448c-2.728-8.861-14.311-22.486-33.385-40.878
					C156.518,297.599,140.841,286.022,129.944,284.658z M123.131,290.786l12.946,0.685c12.941,6.128,27.93,17.719,46.327,36.786
					c17.032,17.719,25.209,28.624,24.523,32.029c-3.406,1.356-15.668-4.777-36.107-17.719
					c-21.117-14.989-36.106-27.936-44.283-39.513c-2.728-4.086-4.087-7.492-4.087-9.54L123.131,290.786z"/>
			</g>
		</g>
		<g>
			<g>
				<path fill="#D96038" d="M208.292,361.643c3.406-5.448-13.626-16.354-50.419-32.7c-36.785-17.032-57.908-20.439-62.673-10.904
					c-4.091,8.862,12.94,20.438,51.776,32.707C185.125,363.006,205.563,367.099,208.292,361.643z"/>
			</g>
		</g>
		<g>
			<g>
				<path d="M204.206,365.729c4.086,0,6.128-1.358,6.813-2.723l-0.686-5.448c-4.771-6.813-19.753-17.032-46.326-28.615
					c-27.252-12.94-47.011-19.075-59.273-17.717c-6.127,0-9.535,1.37-11.583,5.454c-1.357,2.729-1.357,6.135,1.365,8.856
					c5.448,8.854,22.48,17.718,51.78,27.252C172.865,362.321,191.938,366.412,204.206,365.729z M170.143,337.119
					c21.795,11.577,34.063,19.075,35.421,23.167c-4.763,2.035-20.438-0.686-46.326-8.185c-28.617-8.17-47.005-16.347-57.224-25.201
					c-3.406-2.051-4.771-4.771-4.771-6.814l0.68-1.361c1.364-2.723,6.813-3.409,14.31-2.723
					C127.215,318.725,146.976,325.536,170.143,337.119z"/>
			</g>
		</g>
		<g>
			<g>
				<path fill="#FFE000" d="M145.613,350.066c-42.243-2.049-64.724,2.035-66.088,12.255c-0.678,10.22,20.44,14.312,63.366,12.27
					c42.919-1.364,64.722-5.457,65.401-11.585C208.972,356.194,187.853,352.102,145.613,350.066z"/>
			</g>
		</g>
		<g>
			<g>
				<path d="M208.292,358.916c-6.134-5.444-25.209-8.85-55.868-10.22c-32.7-2.721-54.502-1.356-66.086,4.092
					c-5.449,2.721-8.171,5.448-8.855,9.533c0,2.727,0.684,4.777,4.092,7.499c8.169,6.813,28.608,8.854,61.316,7.496
					c30.657-1.37,51.775-4.09,62.672-9.54l5.456-4.771L208.292,358.916z M159.238,353.472c26.573,2.723,42.241,5.444,45.648,8.85
					c-4.085,4.091-21.116,6.813-50.418,8.861l-66.08-3.406c-4.092-1.364-6.813-3.406-6.135-5.455
					c0.679-2.721,4.085-5.44,12.264-7.491C108.827,350.745,130.621,350.745,159.238,353.472z"/>
			</g>
		</g>
		<g>
			<g>
				<path fill="#D96038" d="M149.019,377.316c-38.15,16.347-55.183,28.609-52.46,38.15c3.407,10.221,23.845,5.45,60.637-14.305
					c36.106-19.76,53.139-32.705,51.097-38.156C206.25,356.881,186.489,361.643,149.019,377.316z"/>
			</g>
		</g>
		<g>
			<g>
				<path d="M211.02,362.321c-2.048-5.44-16.354-3.405-41.563,4.777c-19.753,6.813-36.107,14.304-50.412,22.475
					c-5.455,3.407-8.862,7.499-10.904,12.947c11.584-9.54,29.979-19.075,55.188-27.93c23.846-8.179,37.472-12.27,42.234-10.898
					c-2.042,5.441-14.982,14.982-39.512,29.288c-25.889,14.996-44.963,23.845-57.911,24.529c4.092,3.407,9.541,3.407,15.669,1.363
					c15.674-5.454,33.385-14.988,55.188-27.93C201.479,376.633,212.377,367.099,211.02,362.321z"/>
				<path d="M95.2,416.825c1.358,4.092,5.449,4.776,12.263,0.685c-4.77,0.686-7.498,0-8.176-2.721
					c-0.679-2.728,2.042-7.499,8.854-12.269C97.922,407.29,93.151,411.383,95.2,416.825z"/>
			</g>
		</g>
		<g>
			<g>
				<path fill="#FFE000" d="M208.292,363.006c3.406,6.814,21.116,0.687,54.503-17.03c32.701-17.033,45.648-32.702,38.149-45.648
					c-6.813-12.947-24.523-7.492-53.818,16.353C218.512,341.205,204.886,356.194,208.292,363.006z"/>
			</g>
		</g>
		<g>
			<g>
				<path d="M303.671,298.969c-2.727-4.091-6.812-7.498-12.946-7.498c-10.897,0-26.565,7.498-45.641,24.531
					c-17.032,14.305-29.301,27.252-36.112,38.15c-3.408,4.764-4.086,8.169-2.044,10.218l23.845-1.364
					c11.584-4.09,23.166-9.534,34.751-15.666c15.667-8.179,27.251-17.033,33.378-25.21
					C305.715,313.273,307.079,305.783,303.671,298.969z M299.588,301.69l0.678,4.771c0,5.448-3.406,11.576-10.219,18.388
					c-10.898,10.222-26.573,19.082-47.013,27.938c-18.389,7.498-29.293,10.904-32.7,8.854c0-4.085,8.178-14.303,25.209-30.657
					c18.396-18.39,34.065-29.295,47.012-32.7C290.725,294.878,296.859,296.242,299.588,301.69z"/>
			</g>
		</g>
		<g>
			<g>
				<path fill="#FFE000" d="M208.292,363.692l55.867,2.036c36.785-6.128,54.502-16.347,53.138-29.287
					c-0.678-13.627-19.76-14.312-55.866-1.37C225.323,347.34,207.613,356.881,208.292,363.692z"/>
			</g>
		</g>
		<g>
			<g>
				<path d="M205.563,363.692c1.364,6.128,15.676,8.849,44.284,6.128c20.438-2.722,36.792-6.128,49.054-10.904
					c14.99-6.128,21.804-13.627,21.124-22.475c0-4.779-2.729-8.185-6.813-10.222c-9.542-4.09-26.573-2.726-51.097,6.129
					c-21.803,6.813-38.157,14.311-49.739,23.16C208.292,358.916,205.563,360.965,205.563,363.692z M243.034,365.048l-32.7-2.042
					c1.364-3.405,13.625-10.218,36.792-20.438c25.209-10.219,43.599-14.311,57.225-13.625c6.813,0.687,10.904,3.406,10.904,7.499
					v0.678c0,6.813-6.135,12.263-18.396,17.033C282.555,360.286,264.838,363.692,243.034,365.048z"/>
			</g>
		</g>
		<g>
			<g>
				<path fill="#FFE000" d="M208.292,363.692c-1.364,6.128,17.031,12.94,55.182,20.438c38.835,7.491,58.595,6.127,60.637-4.092
					c2.729-9.535-16.354-16.347-55.182-20.438C229.408,356.194,208.972,357.558,208.292,363.692z"/>
			</g>
		</g>
		<g>
			<g>
				<path d="M248.49,377.997c-23.845-5.456-36.792-10.898-38.156-14.305l44.284-2.728c27.937,2.041,47.012,5.447,59.273,10.897
					c-2.728-4.764-6.813-8.17-14.99-9.541c-15.667-4.085-34.063-6.127-55.867-6.127c-23.845,0-36.106,1.363-37.471,6.812
					c-1.357,6.814,14.99,13.627,49.739,21.804l40.193,5.448c19.074,1.364,29.294-2.043,31.343-9.532
					c0.678-4.093-2.729-6.135-9.542-6.135c3.408,1.355,4.771,2.042,4.771,4.763v0.686c-0.687,3.406-4.771,4.771-13.625,6.129
					C293.453,386.852,273.693,384.131,248.49,377.997z"/>
			</g>
		</g>
		<g>
			<g>
				<path fill="#D96038" d="M208.292,363.692c-3.406,6.128,11.584,17.033,44.962,34.063c34.065,17.033,53.825,20.439,59.959,10.221
					c6.128-10.904-8.862-21.809-44.969-34.75C231.458,360.965,211.698,357.558,208.292,363.692z"/>
			</g>
		</g>
		<g>
			<g>
				<path d="M206.25,362.321c-3.407,5.455,8.854,17.032,35.427,32.028c13.626,7.492,25.203,12.94,36.786,17.033
					c19.761,6.813,32.021,6.127,36.792-2.05c1.364-2.043-0.685-3.407-3.406-5.448l-0.685,3.405
					c-2.044,4.093-8.855,4.771-20.439,2.723c-14.304-3.408-31.337-10.898-51.775-23.161c-18.396-10.905-27.93-19.075-28.615-22.481
					c3.407-2.049,17.718-0.678,42.241,6.813c25.888,7.492,43.605,15.669,53.824,23.845c0-4.084-2.049-7.489-6.812-10.218
					c-14.313-8.177-32.708-14.989-54.504-20.439C221.917,358.916,208.292,357.558,206.25,362.321z"/>
			</g>
		</g>
		<g>
			<g>
				<path fill="#FFE000" d="M208.292,363.692c-4.771,3.406,3.406,18.389,25.887,43.598c21.804,25.888,37.471,34.751,44.97,27.938
					c7.491-6.135-0.686-21.126-26.573-43.606C228.052,369.134,213.063,359.601,208.292,363.692z"/>
			</g>
		</g>
		<g>
			<g>
				<path d="M253.938,389.573c-16.353-15.662-29.979-25.203-39.512-27.931c-3.407-2.042-6.135-2.042-7.499,0
					c-4.085,2.728-1.364,11.584,8.177,25.896l16.354,20.438c23.16,27.252,40.191,37.47,49.048,29.972
					c2.729-2.72,4.092-6.127,2.729-10.219C281.87,418.195,272.335,405.249,253.938,389.573z M210.334,365.048
					c3.407-1.355,13.625,5.456,29.979,18.397c17.711,14.311,29.295,27.252,36.107,37.472l2.728,9.532l-2.049,3.406
					c-2.722,2.729-8.171,1.373-16.348-4.762c-11.583-7.492-22.48-19.081-35.429-35.431
					C214.427,377.997,208.972,368.457,210.334,365.048z"/>
			</g>
		</g>
		<g>
			<g>
				<path fill="#D96038" d="M206.928,412.062c4.771,32.015,12.948,46.325,23.166,44.283c9.535-1.363,10.22-17.711,1.364-49.055
					c-9.541-30.657-17.031-44.969-23.166-44.284C201.479,364.37,201.479,380.726,206.928,412.062z"/>
			</g>
		</g>
		<g>
			<g>
				<path d="M225.323,384.131c-6.812-16.354-12.946-24.53-17.71-23.166c-4.092,0.678-6.135,8.169-6.135,21.794
					c0,10.904,1.364,21.126,3.407,32.708c6.134,31.338,14.304,45.643,25.887,43.606c5.449-0.687,6.813-6.814,3.406-16.354
					c0.685,7.491-1.363,11.576-4.771,11.576c-4.085,0.687-7.491-2.721-11.576-12.254c-5.455-11.592-9.54-27.252-10.904-46.333
					c-2.042-18.392-1.364-28.609,1.364-29.979c3.406,0.684,8.855,10.218,15.667,27.935c7.499,19.756,10.904,34.751,10.904,47.007
					c4.086-3.406,4.766-8.849,3.408-14.982C235.543,412.062,231.458,398.437,225.323,384.131z"/>
			</g>
		</g>
		<g>
			<g>
				<path fill="#D96038" d="M157.195,392.98c-29.98,23.845-40.199,40.875-32.022,49.061c8.177,9.533,25.21-0.687,51.098-28.622
					c25.208-28.609,36.106-45.643,32.021-50.413C203.521,358.236,187.175,367.776,157.195,392.98z"/>
			</g>
		</g>
		<g>
			<g>
				<path d="M182.404,371.183c-12.262,8.171-24.531,17.032-35.428,26.573c-23.845,22.476-31.337,37.473-23.166,46.32
					c2.728,3.406,6.811,4.093,12.268,3.406c10.898-2.723,25.888-14.305,44.284-35.421c17.033-19.081,26.566-34.064,29.973-43.604
					c1.364-2.729,1.364-5.451-0.678-6.814C206.928,358.916,198.072,361.643,182.404,371.183z M206.928,365.048
					c0.686,4.086-6.127,14.991-21.803,33.389c-15.668,20.437-30.658,34.063-42.919,40.876c-7.491,4.764-12.941,4.764-14.99,2.042
					l-2.042-5.448c0-2.729,2.042-6.813,4.771-11.582c7.491-12.263,21.802-25.888,41.556-40.193
					C191.26,369.82,202.158,363.692,206.928,365.048z"/>
			</g>
		</g>
		<g>
			<g>
				<path fill="#FFE000" d="M173.548,405.249c-17.717,32.015-22.487,50.416-12.947,55.86c8.856,4.776,20.44-9.535,34.065-43.6
					c14.306-33.379,19.075-51.781,13.626-54.504C202.843,359.601,191.26,373.911,173.548,405.249z"/>
			</g>
		</g>
		<g>
			<g>
				<path d="M206.25,393.663c6.127-19.752,7.491-30.657,2.722-33.377c-4.086-2.05-10.899,4.084-21.797,19.753
					c-9.541,13.624-14.99,21.123-14.99,23.159c-7.499,11.591-12.262,22.489-14.99,32.03c-4.771,14.981-4.085,23.845,2.042,27.25
					c4.091,2.721,6.813,0,8.856-7.497c-2.042,3.405-4.086,4.77-6.813,3.405c-1.357-0.686-2.721-3.405-2.721-6.813l1.364-8.177
					c3.406-12.948,10.897-29.979,23.846-49.734c11.575-19.072,19.752-28.615,23.844-29.293c1.358,3.406-1.363,16.355-9.541,39.515
					c-7.491,22.48-16.354,38.156-24.524,47.689c4.765,0,9.534-3.405,12.941-10.22C193.987,427.729,200.801,412.062,206.25,393.663z"
					/>
				<path d="M172.185,453.617c0.68-0.679,1.363-1.358,1.363-2.043c-1.363,2.721-2.728,3.407-5.455,3.407
					C170.143,455.665,170.821,454.981,172.185,453.617z"/>
			</g>
		</g>
		<g>
			<g>
				<path fill="#FFE000" d="M208.972,360.965c4.77,4.764,17.716-2.049,40.197-20.439c21.804-17.711,29.979-30.658,22.48-38.15
					c-6.812-7.497-20.438-0.685-39.513,20.439C212.377,343.254,204.886,356.194,208.972,360.965z"/>
			</g>
		</g>
		<g>
			<g>
				<path d="M259.388,298.969c-6.813,2.722-13.625,6.814-21.802,14.982c-8.855,8.179-16.347,17.034-22.481,26.574
					c-8.177,12.263-10.219,19.075-7.491,22.48c3.406,3.406,10.898,0.687,23.159-6.125c10.22-6.814,19.761-13.627,28.615-21.81
					c3.407-3.409,5.45-8.171,5.45-12.941c-6.813,8.855-17.033,17.717-30.659,26.566c-12.262,8.185-20.438,12.269-23.159,10.904
					c-0.686-2.72,2.722-10.219,11.576-22.481c10.22-13.625,19.761-22.487,29.979-29.3c8.177-6.129,13.625-6.814,17.033-3.408
					l0.678,2.728c4.771-2.041,5.456-4.084,2.728-6.134C269.608,297.599,265.523,296.242,259.388,298.969z"/>
			</g>
		</g>
		<g>
			<g>
				<path fill="#FFE000" d="M208.292,361.643c0,6.134,13.625,11.584,41.556,16.354c28.615,4.762,42.927,2.042,43.605-8.177
					c1.363-10.22-12.947-16.349-40.878-16.349C223.959,352.788,208.972,355.509,208.292,361.643z"/>
			</g>
		</g>
		<g>
			<g>
				<path d="M228.052,352.102c-14.311,1.37-21.124,4.779-21.802,9.541c-0.687,4.77,6.127,8.861,19.753,12.948
					c12.269,3.406,23.166,6.135,35.428,6.812c21.804,2.043,34.065-1.363,34.75-11.582c0.679-10.22-10.22-16.349-33.386-18.396
					C251.212,350.066,238.949,350.066,228.052,352.102z M234.863,372.541c-15.674-4.084-23.165-7.493-23.844-10.22
					c0.679-2.721,9.534-5.44,24.523-6.127l41.557,2.722c9.54,2.049,14.989,5.454,14.311,10.904
					c-0.686,4.091-5.449,6.813-15.668,7.496C264.159,377.997,250.533,376.633,234.863,372.541z"/>
			</g>
		</g>
		<g>
			<g>
				<path fill="#FFE000" d="M217.147,398.437c10.904,21.795,21.124,29.978,29.293,24.523c8.862-5.45,6.135-18.392-8.854-36.792
					c-14.99-19.756-25.209-27.252-29.973-24.525C202.158,364.37,205.563,377.316,217.147,398.437z"/>
			</g>
		</g>
		<g>
			<g>
				<path d="M245.763,392.98c-5.449-8.85-12.262-17.034-20.439-23.847c-8.176-8.848-14.989-12.253-18.396-9.533
					c-4.085,2.721-4.77,9.533-0.678,20.438c2.722,9.534,7.491,18.397,12.262,27.251c10.896,17.034,21.117,23.159,29.979,17.034
					C256.66,419.553,255.982,408.654,245.763,392.98z M223.959,373.227c8.178,8.176,14.99,17.031,20.439,26.565
					c5.449,10.905,6.135,17.718,1.364,21.125c-5.449,3.407-11.584-0.686-19.76-10.904c-5.449-8.851-10.898-18.391-14.305-29.287
					c-3.406-10.222-4.085-15.678-2.727-17.033C211.02,363.006,215.783,366.412,223.959,373.227z"/>
			</g>
		</g>
		<g>
			<g>
				<path fill="#FFE000" d="M187.175,407.29c-7.499,31.344-6.134,48.375,3.406,51.097c10.22,3.407,17.032-12.263,21.117-44.968
					c3.406-33.38,2.043-50.413-4.085-51.776C201.479,359.601,194.666,375.269,187.175,407.29z"/>
			</g>
		</g>
		<g>
			<g>
				<path d="M213.063,365.729c-1.364-3.407-2.729-6.128-4.771-6.128c-1.364-0.685-3.406,0-5.449,1.364
					c-5.448,6.134-11.583,19.761-16.354,40.877c-6.128,22.482-8.176,39.513-4.771,49.732c1.365,5.448,4.093,8.177,8.179,9.535
					c4.091,0.685,6.813,0,10.219-3.408c6.135-6.127,10.904-21.795,13.626-44.282C215.783,391.622,215.783,375.946,213.063,365.729z
					 M207.613,363.692c2.721,2.72,3.406,13.624,2.721,34.744c-1.362,22.48-4.771,38.827-9.533,49.732
					c-3.406,6.813-6.135,9.532-9.541,8.176c-4.085-1.363-6.135-6.812-6.135-17.032c-0.678-12.947,2.728-28.615,8.862-47.69
					C200.115,373.911,204.206,364.37,207.613,363.692z"/>
			</g>
		</g>
		<g>
			<g>
				<path fill="#FFE000" d="M163.329,374.591c-27.937,13.624-39.519,25.887-34.75,34.742c4.77,8.862,20.439,4.77,45.648-12.261
					c26.573-17.719,38.149-29.974,34.744-34.751C206.25,356.194,191.26,360.286,163.329,374.591z"/>
			</g>
		</g>
		<g>
			<g>
				<path d="M139.484,392.302c9.534-8.171,22.481-15.669,40.192-22.481c15.668-6.128,25.209-8.855,27.937-6.814
					c0.679,3.406-6.813,10.905-21.803,22.481c-14.99,12.269-28.615,19.762-40.197,23.846c4.091,2.05,8.854,2.05,14.31-1.356
					c10.897-5.456,23.159-13.627,34.743-23.846c13.626-10.904,19.761-18.402,17.032-23.166c-2.042-4.084-9.54-4.084-21.802,0
					c-10.22,3.405-19.754,8.169-29.973,12.946c-9.541,4.764-17.718,9.534-23.846,15.662c-9.54,7.499-12.268,14.995-9.54,21.124
					c2.726,4.77,7.49,4.092,15.667-1.364c-6.128,2.05-9.534,2.05-11.584-1.356l-0.677-2.728
					C129.944,401.842,132.672,397.072,139.484,392.302z"/>
			</g>
		</g>
		<g>
			<g>
				<path fill="#FFE000" d="M208.972,360.965c5.455-4.771-0.68-16.354-17.034-34.064c-15.667-18.397-27.93-22.489-35.42-14.305
					c-8.178,8.849-2.728,20.438,17.031,34.744C192.623,361.643,204.886,366.412,208.972,360.965z"/>
			</g>
		</g>
		<g>
			<g>
				<path d="M168.094,307.819c-5.45-2.036-10.221,0-13.626,3.406c-4.084,4.09-4.084,8.183-2.721,14.311
					c2.043,6.126,6.127,11.583,12.94,17.718c8.179,7.491,16.355,12.94,26.574,17.032c10.219,5.442,17.032,6.126,19.76,2.72
					c3.407-3.405,1.357-10.218-4.092-20.438c-5.449-8.854-11.583-17.031-19.075-23.843
					C180.361,311.91,174.228,308.503,168.094,307.819z M157.873,314.632c2.728-3.406,8.178-4.086,13.626-1.358l12.948,8.856
					c7.49,6.813,13.625,14.312,19.074,23.846c4.092,7.496,5.45,11.582,4.092,13.625c-1.363,1.364-6.135,0.686-14.312-3.406
					c-8.854-4.093-17.031-9.535-25.208-16.348c-8.17-7.498-12.263-13.627-12.263-19.761
					C155.831,318.038,156.518,316.002,157.873,314.632z"/>
			</g>
		</g>
		<g>
			<g>
				<path fill="#D96038" d="M208.972,360.965c6.812,1.356,12.945-9.541,18.396-32.022c5.448-23.159,4.091-35.428-4.771-37.472
					c-8.169-1.362-14.304,9.534-17.71,33.379C201.479,347.34,203.521,359.601,208.972,360.965z"/>
			</g>
		</g>
		<g>
			<g>
				<path d="M221.917,294.192c2.042,0,3.406,1.37,4.086,4.093c2.728,6.813,2.728,17.03-1.357,30.657
					c-3.406,13.625-7.498,23.159-12.269,27.938l-2.043,2.035c-2.042,0-3.406-4.764-4.084-12.257c-0.687-8.183,0-17.717,2.042-27.935
					c0.68-5.451,2.728-10.222,4.085-13.627c-4.085,2.041-7.491,6.813-8.855,12.94c-2.043,10.219-2.721,19.759-2.043,28.621
					c0.68,10.222,3.407,16.347,7.493,17.033c2.727,0,5.455-0.687,7.496-4.092c4.086-4.092,7.491-11.583,10.899-22.481
					c3.405-10.899,4.77-21.117,4.77-29.3l-0.679-10.221c-2.05-5.442-4.771-8.171-8.862-8.171c-3.406-0.677-5.448,2.043-4.764,8.171
					C218.512,294.878,220.554,294.192,221.917,294.192z"/>
			</g>
		</g>
		<g>
			<g>
				<path fill="#D96038" d="M242.356,360.286c20.438-6.134,29.979-12.946,27.252-20.439c-3.408-7.498-14.306-7.498-34.065,0.679
					c-19.075,8.856-27.93,15.669-26.571,20.439L242.356,360.286z"/>
			</g>
		</g>
		<g>
			<g>
				<path d="M271.649,339.161c-1.363-3.406-4.085-5.448-8.176-6.127c-7.491-1.372-17.033,0.679-29.295,6.127
					c-12.262,4.771-20.438,10.221-25.207,14.991c-2.044,3.405-2.722,6.134-1.358,8.169c0.679,2.049,2.721,3.407,6.128,4.091
					c6.813,0.687,16.353,0,28.615-3.406c13.626-3.405,22.481-8.854,26.572-13.624l3.406-6.814L271.649,339.161z M262.795,337.797
					c2.729,0.68,4.085,1.364,4.085,2.729c1.364,1.358,0.685,2.729-1.356,5.45c-4.093,4.77-12.27,8.854-24.531,12.261
					c-11.584,3.406-20.438,4.77-26.565,3.406c-2.05-0.678-2.729-0.678-2.729-1.356l1.364-2.729
					c4.085-4.77,11.583-8.861,22.48-14.304C247.805,338.477,255.982,336.441,262.795,337.797z"/>
			</g>
		</g>
		<g>
			<g>
				<path fill="#FFE000" d="M232.815,390.258c19.76,14.311,32.022,17.032,37.471,8.179c6.135-8.179-2.042-18.397-23.846-28.616
					c-21.117-10.22-33.378-13.626-37.469-8.855C205.563,366.412,213.741,375.946,232.815,390.258z"/>
			</g>
		</g>
		<g>
			<g>
				<path d="M207.613,367.099c3.406,6.813,10.898,14.982,21.795,23.159c12.269,9.534,21.804,14.311,29.979,14.991
					c6.136,0.677,10.221-1.364,12.947-4.771c4.765-8.176,0.679-17.032-12.947-25.887c-8.176-5.457-18.396-10.898-29.979-14.305
					c-11.576-4.092-19.074-4.092-21.795-0.686C206.25,361.643,206.25,363.692,207.613,367.099z M220.554,375.946
					c-6.813-6.813-10.22-11.576-8.855-12.94c1.364-2.041,6.813-1.363,17.71,2.042c11.584,3.409,20.439,8.179,29.302,14.306
					c9.534,7.498,12.939,13.627,9.534,17.719c-2.044,3.405-5.449,4.09-10.897,3.405c-4.093-0.686-8.178-2.722-12.263-5.45
					C235.543,390.258,227.367,383.445,220.554,375.946z"/>
			</g>
		</g>
		<g>
			<g>
				<path fill="#FFE000" d="M195.345,391.622c-3.407,20.439-1.357,32.016,6.134,32.702c8.178,0.684,12.948-9.535,14.305-30.661
					c2.049-20.437-0.679-31.342-6.812-32.698C203.521,360.286,198.751,370.504,195.345,391.622z"/>
			</g>
		</g>
		<g>
			<g>
				<path d="M213.063,373.911c1.364,7.491,1.364,16.347,0,25.203l-4.091,14.988c5.455-2.041,8.176-6.813,8.86-14.311
					c0.68-8.849,0.68-17.033,0-25.201c-0.685-10.221-3.405-14.99-8.176-15.675c-2.043,0-4.771,0.685-6.813,4.09
					c-2.728,3.406-4.771,10.221-7.498,18.396c-2.043,8.855-4.085,17.034-4.085,25.202c0,5.457,0.678,10.221,2.728,13.627
					c1.357,4.093,4.085,6.134,7.491,6.813c4.085,0.686,6.135-2.72,5.449-9.534c-1.364,3.407-2.042,4.77-4.77,4.092
					c-1.357,0-2.722-0.685-4.086-3.406c-2.728-6.134-2.728-14.311,0-27.252c2.729-11.59,5.449-20.439,8.855-25.215l2.044-2.036
					C211.02,363.692,211.698,367.099,213.063,373.911z"/>
			</g>
		</g>
		<g>
			<g>
				<path fill="#FFE000" d="M169.457,343.932c-25.888-4.771-38.836-1.364-38.836,10.221c0,12.26,13.627,17.71,40.2,17.03
					c25.888,0,38.835-3.406,38.151-10.218C208.972,354.83,195.345,349.382,169.457,343.932z"/>
			</g>
		</g>
		<g>
			<g>
				<path d="M208.292,366.412c2.728-1.364,3.406-3.406,3.406-5.447c0-4.771-7.492-8.863-23.166-14.306
					c-14.305-4.775-27.931-6.813-39.514-6.813c-14.991,1.358-21.803,6.129-20.439,14.983c0,5.456,2.728,9.54,8.855,12.946
					c8.862,4.765,21.125,6.814,37.472,5.45C190.581,373.227,201.479,370.504,208.292,366.412z M190.581,367.099
					c-12.268,2.722-23.845,2.722-34.75,0.678c-14.99-1.364-22.481-6.134-23.159-13.624c0-4.771,4.084-8.177,12.941-8.863
					c10.904-1.357,23.844,0.687,38.834,4.777c14.304,4.764,21.803,8.17,22.48,10.898
					C206.25,363.006,200.801,365.729,190.581,367.099z"/>
			</g>
		</g>
		<g>
			<g>
				<path fill="#D96038" d="M177.634,371.183c-17.711,11.576-24.524,19.761-20.439,26.573c4.771,6.129,15.669,2.722,32.021-10.218
					c16.347-12.947,23.16-21.126,19.755-26.573C206.25,356.194,195.345,359.601,177.634,371.183z"/>
			</g>
		</g>
		<g>
			<g>
				<path d="M204.886,376.633c6.813-7.499,8.855-13.627,6.813-17.032l-18.396,0.686c-7.491,3.406-14.989,6.813-21.802,12.255
					c-12.262,8.185-17.032,15.674-12.94,21.122c0-4.09,5.449-10.218,15.668-17.717c7.49-5.442,14.989-9.534,22.481-11.576
					c6.134-2.049,10.219-3.405,10.904-1.364c0.679,0.687-0.686,4.093-5.455,9.535l-18.389,17.032
					c-6.135,4.09-11.584,6.813-16.355,7.499l-8.177-0.687l-0.679-2.723c-2.728,2.723-4.092,4.093-2.728,5.451
					c2.042,2.728,5.449,4.771,11.583,3.406c5.45-1.358,11.584-4.765,19.075-9.54C193.302,387.538,199.437,382.759,204.886,376.633z"
					/>
			</g>
		</g>
		<g>
			<g>
				<path fill="#FFE000" d="M224.646,360.965c0-2.729-1.364-5.456-4.092-8.177c-3.406-2.722-6.813-3.406-11.582-3.406
					c-4.086,0-7.493,0.685-10.221,3.406c-3.406,2.721-4.085,5.448-4.085,8.177c0,3.405,0.679,6.134,4.085,8.855
					c2.728,2.042,6.135,3.406,10.221,3.406l11.582-3.406C223.281,367.099,224.646,364.37,224.646,360.965z"/>
			</g>
		</g>
		<g>
			<g>
				<path d="M221.917,350.745c-3.405-2.049-7.49-4.086-12.945-4.086c-4.086,0-8.171,2.037-11.577,4.086
					c-3.407,3.407-5.457,6.813-5.457,10.22c0,4.083,2.05,7.492,5.457,10.218c3.406,2.729,7.491,4.086,11.577,4.086
					c5.455,0,9.54-1.357,12.945-4.086c3.406-2.726,5.45-6.135,5.45-10.218C227.367,357.558,225.323,354.152,221.917,350.745z
					 M218.512,367.776c-2.729,2.044-5.449,2.728-9.54,2.728c-3.408,0-6.129-0.684-8.171-2.728c-2.729-1.364-4.092-4.084-4.092-6.812
					c0-2.049,1.363-4.771,4.092-6.813c2.042-1.364,4.763-2.051,8.171-2.051c4.091,0,6.812,0.687,9.54,2.051
					c2.728,2.042,3.405,4.764,3.405,6.813C221.917,363.692,221.239,366.412,218.512,367.776z"/>
			</g>
		</g>
	</g>
</g>
<path id="PATH77" fill="none" stroke="#000000" stroke-width="3" stroke-miterlimit="100" d="M370.59,585.26H3.92V2.74h366.67
	V585.26L370.59,585.26z"/>
</svg>
