<?xml version="1.0" encoding="utf-8"?>
<!-- Generator: Adobe Illustrator 13.0.0, SVG Export Plug-In . SVG Version: 6.00 Build 14948)  -->
<!DOCTYPE svg PUBLIC "-//W3C//DTD SVG 1.1//EN" "http://www.w3.org/Graphics/SVG/1.1/DTD/svg11.dtd">
<svg version="1.1" id="圖層_1" xmlns="http://www.w3.org/2000/svg" xmlns:xlink="http://www.w3.org/1999/xlink" x="0px" y="0px"
	 width="372px" height="587px" viewBox="0 0 372 587" enable-background="new 0 0 372 587" xml:space="preserve">
<g>
	<g>
		<g>
			<g>
				<path fill="#858585" d="M128.537,166.388l-9.962-4.65c-4.65-1.991-7.97-3.32-11.29-1.991c-1.99,0-5.311,1.991-9.961,4.643
					l-9.961,5.318l-28.555,5.312c-3.319,1.329-0.664,3.32,6.641,8.631l11.287,2.659c5.316,1.991,9.301,3.321,10.627,5.312
					l5.976,6.641l7.306,4.65l9.297,0.661l6.641,1.329l6.641,5.312c2.658,2.659,7.306,4.65,11.955,5.318
					c5.311,0.662,9.961-0.668,15.937-4.657l5.977-5.973l12.616,15.272l4.65-10.622c-6.641-7.303-9.961-13.282-12.617-17.932
					l-5.314-14.611c-2.655-5.979-5.312-9.3-7.967-10.623c-1.329,0-4.65,0-9.961,0H128.537z"/>
			</g>
		</g>
		<g>
			<g>
				<path d="M123.223,161.07c-6.641-3.982-12.617-5.305-15.938-4.644c-3.319,0.662-7.306,3.32-11.952,5.979l-7.97,3.981
					l-29.219,5.979c-1.991,0.662-2.655,1.323-2.655,3.321c-0.666,2.652,1.99,5.973,8.631,10.622l9.297,1.991
					c5.979,1.33,10.626,3.32,11.955,5.312l2.656,2.659c3.984,4.643,7.305,7.302,11.951,9.3l9.962,0.661l5.313,0.662l2.656,2.659
					c5.312,4.643,10.626,7.302,17.267,8.631c7.306,1.33,14.606-1.991,21.913-9.293l10.626,13.282l1.99,0.661l1.994-1.329
					l5.313-11.291l-0.666-2.659c-5.976-7.302-9.96-12.613-11.951-17.264l-1.991-5.311c-4.65-12.614-8.635-19.922-12.621-20.59
					l-12.615-0.661h-8.632L123.223,161.07z M127.208,169.708h10.625h9.961c2.656,0,5.977,6.641,9.961,17.264l1.991,5.317
					l11.291,17.264l-2.656,5.979l-9.296-12.62c-0.665,0-1.33-0.662-1.994-0.662l-2.656,0.662
					c-5.311,7.963-11.951,10.623-19.257,9.96c-4.649-1.329-9.961-3.32-13.282-6.641l-4.649-3.32l-7.305-1.33l-7.967-1.33
					c-3.321-0.662-6.642-3.32-9.962-7.302l-1.993-3.32c-2.656-1.998-7.967-4.65-15.938-5.979l-6.642-1.991l-5.976-4.65l27.228-5.312
					l9.961-5.311c3.984-2.659,7.306-3.981,9.961-4.65c1.991,0,5.977,1.33,11.287,3.988L127.208,169.708z"/>
			</g>
		</g>
		<g>
			<g>
				<path d="M109.279,177.01l-16.602,1.329c-1.329,0-1.995,0-1.995,1.991l2.656,1.33h15.275c11.287,0,19.923,1.991,24.569,5.312
					l21.917,19.26c1.325,0.662,2.654,0.662,3.319,0c1.326-1.33,1.326-1.33,0-2.659c-6.641-7.302-13.946-13.943-23.242-19.922
					C129.862,179.669,120.566,177.672,109.279,177.01z"/>
			</g>
		</g>
		<g>
			<g>
				<path d="M136.504,184.98c-0.662-1.33-1.326-1.991-2.656-1.991l-9.961,3.32l-15.272,3.321c-1.329,0.661-1.329,1.991-1.329,2.659
					l2.656,1.323l25.236-6.641C136.504,186.972,136.504,186.31,136.504,184.98z"/>
			</g>
		</g>
		<g>
			<g>
				<path d="M144.474,176.349c0-1.329-0.665-1.998-1.99-1.329c-1.329,0-1.995,0.668-1.995,1.991l5.977,19.922
					c0,1.329,1.329,1.329,1.994,1.329c1.991,0,1.991-1.329,1.991-1.991L144.474,176.349z"/>
			</g>
		</g>
		<g>
			<g>
				<path fill="#858585" d="M276.624,212.873l10.626-5.979l-17.268-13.943c-5.975-3.982-11.951-6.641-16.602-8.638l-11.287,0.668
					l-9.3,4.65h-9.961c-5.312,0-8.631,0.661-11.952,1.991c-2.655,1.991-6.641,6.641-11.952,13.95l-6.641,10.623l-17.266,13.281
					l-1.994,15.272l24.571-18.593c3.985,5.312,8.632,7.964,12.617,8.631c3.985,1.33,7.97,0,10.625-3.32
					c5.313-3.988,9.961-7.97,15.938-10.629c5.976-2.652,11.291-4.643,15.937-3.982C260.687,218.184,267.992,216.854,276.624,212.873
					z"/>
			</g>
		</g>
		<g>
			<g>
				<path d="M288.579,208.891c1.325-1.335,1.325-2.659,0.661-3.988c-4.646-4.649-9.961-9.293-17.928-13.949
					c-5.976-3.981-11.291-7.302-17.267-9.293c-3.984-1.33-9.961,0-16.602,3.32l-5.977,1.329l-5.976,0.662
					c-5.979-0.662-11.29,0-15.275,2.659c-5.313,2.659-11.952,10.623-19.923,25.233l-16.602,13.281l-1.326,1.33l-1.994,13.943v1.33
					l0.665,1.33c1.329,1.323,1.991,1.323,3.32,0l23.242-16.602c5.311,5.311,9.961,8.632,14.611,8.632
					c3.981,0,7.302-1.991,11.287-4.65c3.985-3.982,9.296-7.964,13.946-10.623c5.976-2.659,10.626-3.32,14.611-3.32
					c7.966,1.991,15.937,0.661,25.233-3.32L288.579,208.891z M252.716,186.972c3.985,1.329,8.636,3.32,14.611,7.302
					c6.641,3.988,11.952,7.977,15.938,11.958c-11.288,7.303-21.249,9.961-29.884,8.632c-5.311-1.329-11.287,0-17.928,3.32
					c-5.314,3.32-11.29,6.641-15.94,11.291l-6.641,3.32c-4.646,0-8.632-3.32-13.281-7.97h-3.32l-19.923,13.282l1.329-6.641
					l16.603-13.282v-0.668c7.306-12.614,13.281-21.245,18.593-23.243c2.659-1.323,7.306-2.652,12.62-1.984l7.302-0.668l6.641-1.991
					C246.076,186.31,250.062,186.31,252.716,186.972z"/>
			</g>
		</g>
		<g>
			<g>
				<path d="M269.982,203.573l-1.99-1.991l-33.868,3.32c-5.976,0.668-13.946,4.65-23.907,10.629l-13.946,9.293
					c-1.327,1.33-1.327,1.991,0,3.32h2.658l12.617-8.631c9.961-6.641,17.928-9.961,22.578-11.291l33.868-1.991L269.982,203.573z"/>
			</g>
		</g>
		<g>
			<g>
				<path d="M222.833,198.262h-2.655c-5.976,3.988-9.297,9.961-11.288,18.593c-0.664,1.33,0,2.659,1.327,2.659l2.655-1.33
					c1.33-7.97,4.649-13.282,9.961-16.602V198.262z"/>
			</g>
		</g>
		<g>
			<g>
				<path d="M256.037,192.951c-1.327-1.33-1.991-1.33-2.656-0.662c-6.641,3.982-11.952,7.964-15.937,12.613
					c-0.665,0.668,0,1.33,0.665,1.991c1.325,1.33,1.99,1.33,2.654,0l13.946-11.284L256.037,192.951z"/>
			</g>
		</g>
		<g>
			<g>
				<path fill="#858585" d="M297.875,267.99H287.25c-1.33,0-3.321,1.329-4.65,3.988l-6.642,7.302l-11.286,0.662l-12.616,1.329
					c-5.315,3.988-9.301,9.292-12.621,15.271c-12.616,8.639-18.593,18.6-17.928,29.223c1.326,5.979,2.656,9.96,5.977,13.942
					l15.937,2.659l20.588,5.311c3.319,1.33,5.975,3.988,6.64,7.971l1.991,11.951c1.329,2.653,5.314,4.65,11.955,5.974l12.617,0.668
					l7.97-5.312l7.968-6.641l6.64-1.329h6.641c2.655-1.33,3.985-3.321,5.977-6.641c0.665-3.32,1.994-5.312,3.32-5.312l6.641,1.322
					c3.32,1.336,6.641,2.66,9.961,2.66c5.979,0,12.62-3.982,19.261-11.952v-51.797l-14.611-5.979
					c-6.64-3.319-10.625-5.312-13.945-5.312c-3.321,0-5.977,1.33-8.632,3.321l-7.306,6.641c-1.99,3.32-4.649,3.988-7.97,3.32
					l-11.288-3.32c-2.655-1.33-3.985-3.321-3.985-4.65l0.665-8.631C304.516,271.31,302.521,269.319,297.875,267.99z"/>
			</g>
		</g>
		<g>
			<g>
				<path d="M303.851,267.99c-3.984-3.321-9.961-4.65-16.601-3.321c-2.656,0.668-4.65,2.652-7.307,6.641l-5.976,5.312l-7.97,1.329
					l-15.272,1.33c-4.649,2.659-9.297,7.964-13.281,15.271c-11.29,7.971-17.267,16.603-18.594,25.896v3.321
					c0,6.64,1.991,13.281,7.304,17.937l1.329,0.662l15.271,2.659l20.588,5.973l3.319,2.651l1.33,5.979l1.99,8.639
					c1.33,3.981,6.642,6.641,13.946,7.964l13.946,0.661l9.961-6.641l6.642-5.973l4.646-0.669l7.97-0.66
					c3.32-1.324,5.977-3.982,7.306-8.632l1.991-3.32l3.984,1.329l11.952,3.32c6.641,0,13.281-4.649,21.252-12.62v-1.99v-51.797
					l-1.329-2.659l-11.952-4.643c-8.632-3.989-13.946-5.979-17.267-5.979c-3.321,0-6.641,0.661-9.961,2.658l-7.307,7.303
					c-1.99,1.991-3.319,2.658-5.311,2.658l-7.305-2.658l-6.642-1.997l0.665-1.984v-7.309
					C307.172,271.978,306.507,269.319,303.851,267.99z M300.531,271.978l1.99,2.652l-1.325,5.972c0,1.998,0,3.988,0.664,5.318
					l5.312,3.982l3.985,1.329l9.296,2.652c3.32,0.667,6.641-1.323,9.296-3.981l5.977-6.642c1.994-1.99,4.649-1.99,7.306-1.99
					c2.655,0,7.306,1.329,15.275,5.311l10.622,4.65v49.137c-6.64,6.642-11.952,9.961-16.602,9.961l-9.296-2.652l-8.632-1.329
					c-1.329,1.329-3.32,2.659-4.65,5.979l-3.985,5.311l-5.311,0.669l-8.632,1.984l-7.971,5.317l-6.64,5.312h-12.617
					c-5.314-0.668-8.636-2.652-9.961-5.312l-1.329-6.641l-1.991-7.97c-0.665-2.653-3.32-3.988-6.641-5.313
					c-7.306-3.319-18.596-5.979-35.198-7.97c-3.319-4.649-5.311-9.293-5.311-13.948v-2.653c0.664-7.309,6.64-15.271,16.601-22.575
					l0.665-0.667c3.32-6.641,6.642-10.629,11.952-13.949l11.291-1.323l12.617-1.329l6.64-7.31l3.985-3.981
					C293.89,269.319,297.875,269.319,300.531,271.978z"/>
			</g>
		</g>
		<g>
			<g>
				<path d="M375.569,313.146c-0.661-1.323-1.99-1.991-2.655-1.323c-21.913,3.982-50.47,4.643-85.664,0.661
					c-15.938-1.329-30.549,0.662-46.486,5.312l-19.922,9.293c-0.664,0.669-1.329,1.336,0,2.658c0,1.33,1.33,1.33,2.656,0.662
					l17.931-8.625c15.938-4.656,30.548-6.641,45.156-4.656c36.524,3.32,65.081,3.32,86.994-1.984L375.569,313.146z"/>
			</g>
		</g>
		<g>
			<g>
				<path d="M292.561,277.283c-1.326-1.323-1.991-0.662-2.656,0.667c-9.296,16.602-17.928,27.894-26.562,35.856
					c-1.327,0.668-1.327,1.336,0,1.998l2.655,0.66c8.635-7.963,17.931-19.26,27.228-36.522
					C293.89,279.28,293.89,277.95,292.561,277.283z"/>
			</g>
		</g>
		<g>
			<g>
				<path d="M264.008,291.232c-0.665,0-1.33,0-2.656,0.668c-2.656,4.643-5.977,12.613-9.961,23.904c0,1.99,0,2.658,1.99,2.658
					c0.665,0.661,1.994,0,2.656-0.668c3.32-11.951,6.641-19.255,8.635-23.243C265.998,292.562,265.998,291.9,264.008,291.232z"/>
			</g>
		</g>
		<g>
			<g>
				<path d="M310.492,298.54c0-0.667-0.665-0.667-2.656-0.667c-3.32,1.329-7.305,3.988-13.946,8.631l-7.97,6.642
					c-1.326,0.661-1.991,1.329-0.661,2.659c1.326,1.322,1.991,1.322,2.655,0l8.632-5.318c5.314-4.643,9.961-7.964,13.281-9.293
					C310.492,301.193,311.157,300.525,310.492,298.54z"/>
			</g>
		</g>
		<g>
			<g>
				<path d="M349.672,290.563c0-1.322-1.326-1.322-2.656-1.322c-6.641,3.32-14.61,8.632-23.242,15.94l-11.952,9.961
					c-1.329,1.322-1.329,1.984-0.664,2.652c1.991,1.329,2.655,1.329,3.32,0l11.286-9.293c8.636-7.309,17.268-12.62,23.243-15.279
					C350.337,292.562,350.337,291.9,349.672,290.563z"/>
			</g>
		</g>
		<g>
			<g>
				<path d="M363.618,297.205c-0.665-1.323-1.329-1.984-1.991-0.662c-7.971,4.65-20.588,7.303-37.188,7.971
					c-1.329,0-1.994,0.668-1.329,2.652l1.329,1.336l15.937-1.336l22.578-7.302L363.618,297.205z"/>
			</g>
		</g>
		<g>
			<g>
				<path d="M271.977,312.483c-1.329,0-1.994,1.323-1.329,1.991l5.311,15.934c3.985,11.297,8.636,21.92,14.611,31.881
					c0.665,1.322,1.991,1.991,2.656,0.662l0.664-2.659c-4.649-9.293-9.961-19.923-14.61-31.868l-5.312-14.617
					C273.968,312.483,273.304,311.822,271.977,312.483z"/>
			</g>
		</g>
		<g>
			<g>
				<path d="M281.273,334.396l-1.994,0.668c-1.326,0.661-1.326,1.985,0,2.652l11.29,8.632c7.306,5.317,13.946,8.639,18.594,9.3
					l1.329-1.329c0.665-1.329,0-2.653-1.329-2.653c-3.982-0.667-9.297-3.32-17.265-9.299L281.273,334.396z"/>
			</g>
		</g>
		<g>
			<g>
				<path d="M297.875,314.475h-1.994c-1.326,0-1.326,1.33-1.326,2.652l7.967,8.639l19.261,17.924h2.656
					c1.325-1.322,1.325-2.651,0-3.32c-7.306-5.305-13.281-10.623-18.597-17.263L297.875,314.475z"/>
			</g>
		</g>
		<g>
			<g>
				<path d="M326.429,315.805c-0.665-1.33-1.99-1.33-2.655,0c-1.329,1.322-1.329,1.99-0.664,2.658l10.625,9.294
					c7.97,6.64,17.267,10.628,27.228,13.281l2.656-1.991l-1.991-1.997c-9.3-2.653-17.932-6.642-25.901-12.614L326.429,315.805z"/>
			</g>
		</g>
		<g>
			<g>
				<path fill="#858585" d="M247.405,400.805l-16.603,1.329c-12.616-4.65-22.577-7.302-30.547-8.639
					c-15.273-2.651-22.579,3.988-22.579,20.591l-3.319,19.254l-7.306,27.898c-5.312,11.284-6.641,20.584-3.984,27.887
					c0.663,3.319,2.658,5.979,5.313,7.97l7.967,2.651l6.641-5.304c1.994-2.659,4.65-3.32,7.971-1.998
					c2.655,1.329,6.641,5.317,11.291,13.943l11.287,15.94l12.617,1.997l11.29-1.335l9.296,8.637
					c3.985,3.321,7.306,4.644,9.297,3.982l9.961-2.658l7.97-5.306l1.33-13.281c0-6.642,0.66-10.63,1.326-12.62l6.641-7.302
					c2.655-3.32,3.985-6.641,4.649-9.3l-0.664-10.623l-2.656-8.638l1.991-8.632c0.665-3.32,0.665-5.973-0.665-8.632
					c-1.326-1.329-3.32-3.981-7.967-5.979c-3.985-1.99-6.641-3.981-7.306-5.979c-0.665-1.985,0-4.644,3.32-6.641
					c2.656-2.652,3.985-5.973,3.321-9.294c0-3.32-1.331-5.311-4.65-5.972c-3.982-0.668-6.641-3.321-8.631-5.318
					C259.357,403.456,254.046,400.805,247.405,400.805z"/>
			</g>
		</g>
		<g>
			<g>
				<path d="M239.435,398.813l-8.632,1.322l-11.29-3.981l-19.257-5.311c-7.307-1.33-13.283-0.669-17.268,2.651
					c-5.312,3.321-8.631,10.629-8.631,19.922l-2.656,19.923l-7.305,27.23c-5.312,11.291-6.642,21.252-3.985,29.884
					c1.329,3.319,3.319,5.973,6.641,8.632c3.32,2.658,6.641,3.981,9.962,2.658c1.329,0,3.984-1.329,6.64-3.982
					c1.994-2.658,3.985-3.319,5.976-3.319c1.994,1.322,5.979,6.641,11.291,15.266c5.312,7.977,8.632,13.282,10.626,14.617
					c3.32,3.32,9.296,3.32,16.603,1.984l7.967-0.661l6.64,5.318l6.642,5.973l7.305,1.329l4.65-1.329
					c7.967-1.33,12.616-3.988,14.606-8.632l1.331-13.943c0-5.979,0.664-9.961,1.99-11.297l4.649-5.306
					c3.985-4.655,6.641-8.637,6.641-12.619c0-3.981,0-7.97-1.329-12.62l-1.99-6.641l1.329-5.312
					c1.99-5.973,1.325-9.961-0.665-13.281c-0.664-1.991-3.985-4.65-8.635-6.641c-3.321-1.991-5.976-3.32-5.976-5.312
					c-0.665-0.662,0-1.329,1.329-3.32c4.646-3.981,5.976-7.97,5.976-11.291c-0.665-4.649-3.319-7.309-7.97-8.631l-6.641-4.65
					c-4.646-5.311-8.632-7.97-13.942-9.293L239.435,398.813z M180.334,414.086L180.334,414.086c0-8.632,1.329-13.95,5.313-16.603
					c5.312-3.32,15.272-1.991,31.874,3.321c6.642,3.319,10.627,3.988,13.281,3.988l9.297-0.669h10.626
					c3.32,0,7.306,2.652,10.626,6.641c2.656,3.321,5.976,5.973,9.961,6.641l2.655,0.669l0.665,2.651
					c0.665,2.653-0.665,4.65-3.32,7.31c-3.32,2.651-3.985,5.973-3.32,9.293c0.664,2.652,3.32,4.65,9.297,7.97
					c3.319,1.991,5.976,2.659,6.64,4.644c0.665,1.336,0.665,3.988,0,8.638l-1.329,7.303l1.329,7.971
					c1.33,4.649,1.991,7.97,1.33,10.628c-0.665,3.321-1.994,5.974-5.315,9.293l-5.976,6.642c-0.664,2.652-1.329,7.308-1.329,13.949
					l-1.326,11.945c-1.33,1.998-4.65,4.657-10.626,5.317l-5.977,1.324c-1.329,0.667-3.984-1.324-7.97-5.306l-8.631-6.641
					c-1.994-1.336-5.977-1.336-10.626,0l-12.617-0.668l-9.297-13.949c-5.979-9.961-10.626-15.266-13.946-16.603
					c-3.984-1.983-7.97,0-11.955,4.657l-3.981,2.652c-1.329,0.667-3.985-0.668-5.979-2.652l-4.646-5.979
					c-1.993-6.641-0.664-15.278,4.646-26.563c1.994-4.65,4.65-13.943,7.307-27.893L180.334,414.086z"/>
			</g>
		</g>
		<g>
			<g>
				<path d="M191.623,396.154l-3.319,0.662c-0.665,0.667-0.665,1.335,0.665,1.997l16.601,17.924
					c11.952,13.949,19.258,25.901,24.569,37.192c11.29,29.216,20.587,51.135,27.893,66.407c1.326,0.668,1.99,1.329,3.32,0.668
					c1.326,0,1.326-1.336,0.664-2.659c-7.97-15.278-17.267-37.185-28.557-66.406c-4.646-11.291-12.617-23.904-24.569-37.854
					L191.623,396.154z"/>
			</g>
		</g>
		<g>
			<g>
				<path d="M185.647,477.841l1.991-0.668c5.976-19.923,12.617-39.845,19.922-61.097c20.588,0,38.516,3.982,53.126,11.291
					c0.665,0.668,1.991,0,2.656-0.669c0.665-1.984,0.665-2.651-0.665-2.651c-9.962-5.313-22.578-9.293-36.523-10.63l-19.923-1.322
					l-1.991,1.322l-7.97,23.911l-11.952,38.516L185.647,477.841z"/>
			</g>
		</g>
		<g>
			<g>
				<path d="M220.178,429.357c-1.327-0.661-2.656,0-2.656,1.329c0,0.669,0,1.991,0.665,2.653l19.258,7.309
					c13.946,5.973,25.233,10.629,33.868,15.272c1.326,0.661,1.991,0.661,2.655-1.323c0.665-0.668,0-1.336-0.664-2.658l-34.53-15.279
					L220.178,429.357z"/>
			</g>
		</g>
		<g>
			<g>
				<path d="M250.726,441.979c-0.664-0.662-1.991-0.662-3.32,0c-0.665,1.322-0.665,1.99,0,2.658l9.961,10.622l18.592,16.603h2.66
					c1.325-1.33,0.661-1.33-0.665-2.659L260.687,452.6L250.726,441.979z"/>
			</g>
		</g>
		<g>
			<g>
				<path d="M237.444,463.223c-1.329-1.322-2.656-1.322-3.32,0.669c-0.665,0.667,0,1.99,0.664,2.651
					c1.327,0,5.312,1.997,12.617,7.31c8.632,5.972,15.272,12.612,19.922,19.254l3.32,0.667c0.665-1.329,0.665-1.99,0-3.319
					c-4.649-6.641-12.616-13.281-21.251-19.923L237.444,463.223z"/>
			</g>
		</g>
		<g>
			<g>
				<path d="M226.154,437.328l-3.321,0.668l-6.641,12.613c-4.646,9.961-7.303,21.252-8.632,33.204c0,0.667,0,1.99,1.991,2.651
					l1.329-2.651c1.991-11.291,4.65-21.913,9.297-31.874l5.977-11.291C226.818,439.98,226.818,438.657,226.154,437.328z"/>
			</g>
		</g>
		<g>
			<g>
				<path d="M216.856,457.919c-0.664-0.669-1.99-1.337-2.654-0.669c-0.665,0-1.33,1.329-0.665,2.653l2.655,11.296
					c1.329,9.962,0.664,20.584-3.32,30.545c0,1.323,0,2.659,1.33,2.659c1.329,0.661,2.654,0,2.654-1.336
					c3.985-11.284,4.65-21.906,3.985-32.536L216.856,457.919z"/>
			</g>
		</g>
		<g>
			<g>
				<path d="M241.429,475.182c-0.665,0-1.329,0-1.994,1.991l-1.99,11.29c-0.665,8.632-1.329,15.94-1.329,21.245l1.994,1.336
					l1.99-1.336c0-5.305,0.664-12.613,1.329-21.245l1.991-10.622C244.085,476.504,243.42,475.182,241.429,475.182z"/>
			</g>
		</g>
		<g>
			<g>
				<path fill="#D96038" d="M147.13,57.478l-37.188-18.593l22.58,31.212c19.258,21.913,41.836,33.204,65.743,35.194
					C190.294,88.69,173.028,73.418,147.13,57.478z"/>
			</g>
		</g>
		<g>
			<g>
				<path d="M200.92,106.621v-2.659c-8.632-16.602-25.897-31.874-51.136-47.808l-39.179-19.261c-0.664,0-1.326,0-1.991,0.662
					c-1.329,0.661-1.329,1.33-0.665,2.659l22.579,31.875c20.586,21.913,43.164,33.203,67.736,35.194L200.92,106.621z
					 M194.279,101.972c-19.257-2.653-36.524-11.291-53.125-25.895c-9.962-9.3-18.594-19.922-25.899-32.542
					C154.435,61.459,180.998,80.72,194.279,101.972z"/>
			</g>
		</g>
		<g>
			<g>
				<path fill="#D96038" d="M169.707,56.154l-22.577-17.27l7.305,28.554c9.296,19.922,23.242,33.204,43.165,39.183
					C194.943,88.022,185.647,71.42,169.707,56.154z"/>
			</g>
		</g>
		<g>
			<g>
				<path d="M147.794,36.894h-2.655l-0.665,1.991l7.97,29.883c9.297,20.59,24.57,33.872,44.491,39.845h1.994l1.327-2.652
					c-3.321-18.6-12.617-35.863-28.555-50.474L147.794,36.894z M194.279,101.972c-14.611-5.312-26.563-15.273-34.533-29.216
					c-5.312-9.299-8.632-19.26-9.962-29.222C174.357,60.136,188.969,79.397,194.279,101.972z"/>
			</g>
		</g>
		<g>
			<g>
				<path fill="#D96038" d="M208.89,99.319c18.594-0.668,37.187-8.638,57.108-23.242c9.3-7.309,17.267-14.617,23.242-21.92
					c-9.961,1.33-21.248,3.321-32.539,7.97C232.794,70.097,217.521,83.379,208.89,99.319z"/>
			</g>
		</g>
		<g>
			<g>
				<path d="M291.234,53.496l-1.994-1.33c-11.287,1.33-22.578,3.32-35.194,7.97c-23.243,8.631-39.18,20.583-47.15,37.847v1.997
					l1.994,1.991c18.594-1.33,37.851-8.632,57.108-23.243c9.96-7.309,17.931-15.272,24.571-22.575L291.234,53.496z M214.202,95.999
					c6.64-11.958,18.592-21.258,35.194-28.56c10.625-4.644,21.251-7.964,33.868-9.961C260.021,80.72,237.444,93.339,214.202,95.999z
					"/>
			</g>
		</g>
		<g>
			<g>
				<path fill="#D96038" d="M222.833,60.797c0.665-8.631,0-16.602-1.991-23.242c-6.64,4.649-12.616,10.623-16.602,19.26
					c-9.961,15.273-9.961,33.204-1.33,51.797C214.866,95.331,221.507,79.397,222.833,60.797z"/>
			</g>
		</g>
		<g>
			<g>
				<path d="M220.842,35.564h-1.329c-6.641,4.65-12.617,11.291-17.928,19.922c-9.297,16.602-9.962,34.533-1.329,54.456l1.994,1.323
					l1.99-1.323c12.616-13.282,19.258-29.883,20.587-48.482c0.665-9.293,0-17.264-1.994-24.566L220.842,35.564z M219.513,41.537
					l0.665,14.617c0,17.925-5.976,33.865-16.603,47.808c-3.319-7.302-4.646-13.943-4.646-21.245
					C198.929,66.115,205.569,52.166,219.513,41.537z"/>
			</g>
		</g>
		<g>
			<g>
				<path fill="#FFE000" d="M214.202,95.331c11.29,14.611,25.897,23.243,43.164,27.893l23.242,1.991
					c-3.319-6.641-9.296-11.952-16.601-17.931C248.734,96.66,232.133,92.678,214.202,95.331z"/>
			</g>
		</g>
		<g>
			<g>
				<path d="M283.265,125.882v-2.659c-4.646-5.979-10.626-11.958-18.593-17.932c-15.275-11.29-32.539-15.272-51.135-11.952
					c-0.665,0-1.991,0-1.991,1.323l0.665,1.998c11.952,15.272,26.563,23.904,45.155,28.554l23.907,1.991L283.265,125.882z
					 M218.851,97.321c13.943-1.323,25.898,1.33,38.516,8.639c7.306,3.982,13.281,9.961,19.258,16.602l-25.233-3.988
					C238.773,114.585,227.483,107.283,218.851,97.321z"/>
			</g>
		</g>
		<g>
			<g>
				<path fill="#D96038" d="M125.881,112.601c-7.306,4.643-13.945,9.961-17.932,15.266l24.572,0.668
					c18.593-3.32,33.204-11.952,43.826-27.231C157.755,99.319,141.154,103.301,125.881,112.601z"/>
			</g>
		</g>
		<g>
			<g>
				<path d="M177.677,102.639l0.666-2.659c-0.666-0.662-0.666-1.33-1.329-1.33c-19.259-1.991-36.525,1.991-51.797,11.952
					c-7.971,4.65-14.611,9.961-18.597,15.94c-1.325,0-1.325,0.661-0.661,1.991l1.326,1.329h25.898
					C151.779,127.205,167.052,117.905,177.677,102.639z M171.701,103.301c-8.634,9.961-19.922,17.263-33.203,20.583l-25.236,2.659
					c5.313-6.641,11.955-11.291,19.922-15.279C145.139,105.292,157.755,102.639,171.701,103.301z"/>
			</g>
		</g>
		<g>
			<g>
				<path fill="#FFE000" d="M275.958,96.66c13.946-3.321,25.238-7.97,35.199-13.281l-39.181-3.32
					c-28.557,0.661-49.805,7.302-62.425,19.922C226.818,105.292,249.396,103.962,275.958,96.66z"/>
			</g>
		</g>
		<g>
			<g>
				<path d="M313.813,83.379l-1.991-2.659l-41.174-2.659c-28.554,0.668-49.806,7.308-63.087,20.59l-0.665,1.991l1.33,1.997
					c17.929,5.973,40.509,3.982,67.732-3.32c13.282-3.988,25.238-8.638,36.525-13.95L313.813,83.379z M214.866,99.319
					c11.288-9.299,26.563-13.95,47.149-15.94l41.171,1.323C267.327,99.98,237.444,103.962,214.866,99.319z"/>
			</g>
		</g>
		<g>
			<g>
				<path fill="#FFE000" d="M252.056,64.118c5.311-8.632,9.296-17.264,11.952-24.566c-7.971,2.652-16.603,7.302-24.573,13.943
					c-17.263,13.281-27.224,28.554-29.883,46.485C226.818,94.001,240.764,82.049,252.056,64.118z"/>
			</g>
		</g>
		<g>
			<g>
				<path d="M265.337,37.555h-1.994c-9.297,3.32-17.929,7.97-26.563,14.611c-16.602,13.282-26.563,29.215-29.884,47.814
					c0,0.662,0,1.991,0.665,1.991l2.656,0.667c17.267-5.979,31.877-18.599,43.164-35.862c5.977-9.299,10.627-17.931,12.617-26.563
					L265.337,37.555z M234.788,60.136c7.306-6.641,15.938-11.958,25.233-16.602c-3.32,9.3-8.631,17.925-14.607,25.902
					c-8.635,12.613-19.922,20.583-32.542,26.563C216.192,82.717,223.498,70.759,234.788,60.136z"/>
			</g>
		</g>
		<g>
			<g>
				<path fill="#FFE000" d="M194.279,48.846c-3.985-9.961-8.632-18.593-13.281-25.233c-2.655,8.631-3.321,18.592-3.321,29.883
					c0,21.913,6.642,39.844,19.923,53.125C202.91,88.69,201.585,70.097,194.279,48.846z"/>
			</g>
		</g>
		<g>
			<g>
				<path d="M180.334,50.836c0-7.302,0.664-14.604,1.329-21.245c11.286,19.254,16.602,37.186,16.602,54.449
					c3.32-10.622,2.655-21.913-1.33-34.526l-13.946-27.231l-2.654-1.329c-0.666,0.661-1.991,0.661-1.991,1.997
					c-1.995,9.293-3.32,19.922-3.32,31.206c1.325,22.581,7.966,39.845,21.248,53.788c0,0.668,0.664,0.668,1.329,0.668l1.991-1.33
					c1.994-7.302,1.994-15.272-1.326-23.243l-1.994,16.602C184.982,87.36,180.334,70.759,180.334,50.836z"/>
			</g>
		</g>
		<g>
			<g>
				<path fill="#FFE000" d="M131.857,76.738H99.979l30.549,19.922c23.906,11.284,43.829,13.282,60.431,6.641
					C175.687,88.69,156.426,80.059,131.857,76.738z"/>
			</g>
		</g>
		<g>
			<g>
				<path d="M193.614,103.301l-0.665-1.998c-15.272-14.604-35.194-23.242-59.766-25.895l-33.204-1.33l-2.655,1.998
					c0,0.661,0,1.984,1.329,2.652l31.875,19.922c23.906,11.291,44.494,13.282,61.76,6.641L193.614,103.301z M186.31,101.972
					c-13.281,4.649-29.219,2.652-47.146-4.65c-11.292-3.982-21.917-10.623-33.204-18.592l34.529,1.991
					C158.42,84.702,174.357,92.01,186.31,101.972z"/>
			</g>
		</g>
		<g>
			<g>
				<path fill="#858585" d="M182.988,101.972l-1.325,11.952l2.655,14.61l0.664,17.932c-11.29,43.165-22.577,89.649-33.868,139.455
					c-21.913,98.949-32.539,181.29-32.539,245.046c-21.251-13.282-33.203-22.582-34.532-27.899
					c-0.665-3.981-1.99-12.613-2.656-25.895l-1.329-18.594l-11.951,8.632l-0.666,13.95c-0.664,10.622,0.666,18.585,3.32,25.227
					c2.656,4.656,6.642,9.961,11.955,15.94c5.977,5.317,9.297,9.299,10.623,12.62l13.281,21.913
					c7.305,11.29,10.626,21.252,10.626,30.551h21.252c-3.32-37.191-5.314-70.396-4.65-100.278
					c1.33-22.575,9.961-79.689,27.229-170.007c17.267-92.302,29.218-145.428,36.523-160.7l11.29-21.252l8.632-14.611
					c5.977-11.284,7.306-18.592,5.312-21.913c-8.631,0-15.272,1.33-18.593,3.321l-19.922-6.641L182.988,101.972z"/>
			</g>
		</g>
		<g>
			<g>
				<path d="M182.988,93.339l-1.99,1.991l-0.664,5.973l-1.327,12.621l1.991,11.958l1.99,15.933v4.65l-7.966,30.544
					c-15.276,60.428-27.229,111.569-35.859,154.066c-15.276,76.368-22.581,142.108-23.243,195.233
					c-18.596-11.945-27.892-19.922-28.557-24.565c-1.326-3.32-1.991-11.29-3.32-24.571l-1.99-18.594c0-1.329,0-1.997-1.33-1.997
					h-1.991l-11.955,8.639l-1.327,1.99l-1.329,14.611c0,11.284,1.329,19.261,3.986,25.9c2.654,4.645,7.305,10.623,13.946,17.265
					l8.63,11.283l6.642,11.297c11.29,16.603,17.267,29.884,17.931,39.845c0,1.322,0.665,1.984,1.991,1.984h21.252
					c1.326,0,1.99,0,1.99-0.662l0.666-1.99c-3.985-37.192-5.313-70.396-3.985-99.61c0-22.575,9.296-79.021,26.562-169.339
					c16.604-91.641,29.219-144.767,35.86-160.045c3.984-7.964,7.97-15.934,14.611-25.895l5.311-9.961
					c3.985-7.309,6.642-13.281,6.642-18.593l-1.327-5.979l-1.994-0.661l-18.593,2.659l-19.922-5.979H182.988z M186.31,98.651
					l16.601,5.973h1.994c3.321-1.985,8.633-2.652,15.938-2.652l0,0c0,3.988-1.991,9.961-5.976,17.931l-5.314,9.299
					c-6.642,10.623-11.952,19.254-14.608,25.895c-7.305,15.272-19.257,69.06-37.188,162.03
					c-16.601,90.317-25.897,146.765-25.897,170.007l-0.665,13.949c0,24.565,1.329,52.457,3.985,83.009h-15.276
					c-1.326-9.961-7.302-23.242-17.927-39.844l-6.642-9.962l-9.961-13.281c-5.314-5.318-9.961-10.629-11.955-15.94
					c-2.656-5.318-3.981-11.958-3.981-20.584l1.325-15.94l6.642-4.648c1.329,21.251,3.32,34.532,4.65,39.176
					c1.325,6.641,13.28,16.602,35.193,29.884h2.655l1.33-1.984v-1.998c0-52.465,7.306-118.204,23.242-195.24
					c7.97-42.496,19.923-94.293,35.86-155.389l7.305-31.874v-4.65l-1.329-16.602l-1.991-11.29L186.31,98.651z"/>
			</g>
		</g>
		<g>
			<g>
				<path fill="#858585" d="M51.503,401.472c-3.984,1.984-7.97,4.644-12.616,9.293l-7.969,5.973l-8.633-1.322
					c-3.32,0-5.976,1.99-8.635,3.981c-2.655,2.659-3.982,7.302-4.646,12.62c-0.665,5.312,0,8.632,0.664,10.622l7.304,5.979
					c3.984,3.321,5.979,5.979,5.313,9.301l-5.976,12.612c-3.985,5.973-5.979,9.961-5.979,11.952
					c-0.662,2.659,1.994,5.318,7.305,7.971l13.283,3.319c3.319,0.669,6.64-0.667,11.289-3.319c3.986-2.652,7.306-3.32,9.962-2.652
					l8.631,1.983l7.307-3.32l7.305-8.624c1.991-3.988,3.984-5.318,6.642-4.656c1.99,0,4.646,1.997,6.64,5.979
					c3.32,4.65,5.312,7.302,7.967,7.971l11.955-0.669l9.961-9.292c3.32-3.988,5.312-14.611,6.642-31.213
					c1.325-18.593,0.664-31.874-1.994-41.167c-3.321-2.659-7.303-4.657-12.617-6.642c-9.961-3.319-18.593-2.659-27.228,2.653
					l-11.952-1.991C62.794,398.813,56.153,399.475,51.503,401.472z"/>
			</g>
		</g>
		<g>
			<g>
				<path d="M111.936,396.154c-10.627-3.981-19.923-2.659-29.22,1.329l-31.877,1.33c-5.312,1.991-9.296,5.311-13.281,10.622
					l-6.64,4.65h-3.321c-7.306-1.33-11.953,0-15.938,3.319c-2.655,3.32-3.985,7.309-5.312,13.95c-0.664,5.973,0,9.961,0.662,12.613
					l5.314,4.649c5.311,3.321,7.967,6.641,7.967,8.632c-0.661,3.32-2.656,6.642-6.641,12.614c-3.32,5.317-5.977,9.96-5.977,11.958
					l1.33,5.979c3.32,3.981,10.626,7.302,21.914,8.625c3.319,0,7.305-0.662,12.615-3.32c3.32-2.652,5.979-2.652,8.636-2.652h1.325
					l7.971,1.329l7.971-3.32l7.301-7.971c1.995-3.319,3.986-5.311,4.65-5.311l5.312,5.311c2.659,4.65,5.314,7.971,8.635,9.293
					l14.608-1.322c4.649-1.998,8.634-5.317,11.29-9.961c2.655-4.649,5.311-15.94,5.977-33.204
					c1.329-17.931,1.329-31.212-1.991-41.174l-0.665-0.668C121.231,400.136,117.246,397.483,111.936,396.154z M52.169,404.124
					l18.592-2.652l11.292,1.984l1.99-0.661c7.97-4.644,15.937-5.312,24.571-2.659c4.647,1.336,8.632,3.32,11.952,6.641
					c1.329,5.318,2.656,13.282,2.656,23.243l-2.656,27.899c-0.665,9.292-1.991,15.934-3.32,17.925l-9.297,7.97l-10.625,0.667
					l-5.976-6.64c-3.985-4.656-6.642-7.31-9.296-7.31c-3.321-0.667-6.642,1.33-9.962,6.642l-5.314,6.641l-5.977,3.32l-5.977-1.33
					l-1.991-0.661c-3.984-1.329-7.305,0-11.955,3.32c-3.984,1.991-7.305,2.659-9.296,2.659c-9.961-1.337-15.938-3.988-17.931-6.642
					l-0.661-1.335c0-2.653,1.325-5.973,5.312-10.623l6.641-14.604c0.664-3.989-1.991-7.978-9.298-13.95l-3.319-2.652
					c-1.329-1.336-1.329-4.656-0.665-9.3c0.665-4.649,1.991-8.638,3.984-10.623c1.991-2.659,5.313-3.319,11.288-2.659l3.986,0.662
					c3.319,0,6.64-1.991,9.959-6.641C45.527,408.113,48.848,405.454,52.169,404.124z"/>
			</g>
		</g>
		<g>
			<g>
				<path d="M115.255,411.433c-0.664-1.335-1.33-1.335-3.319-1.335c-14.611,5.979-29.883,12.619-45.159,20.589
					c-30.545,14.611-50.467,27.893-60.429,39.845c-0.664,0.668-0.664,1.33,0,2.653h3.32c9.297-11.284,29.219-24.566,60.429-39.177
					c25.902-13.282,40.509-19.922,43.828-19.922L115.255,411.433z"/>
			</g>
		</g>
		<g>
			<g>
				<path d="M107.285,415.415l-1.99-1.998c-1.329,0-1.995,0.669-1.995,1.998l-0.662,21.245c-0.663,14.617-1.993,27.231-3.984,35.201
					c0,1.323,0,1.991,1.991,1.991c0.664,0.667,1.33,0,1.993-1.33c1.991-8.631,3.321-20.583,3.982-35.862L107.285,415.415z"/>
			</g>
		</g>
		<g>
			<g>
				<path d="M83.378,423.379c-1.325-0.662-1.991,0-2.655,0.668l-9.297,21.913l-15.937,29.222c-1.329,1.322-1.329,1.991,0,2.659
					h2.655c3.985-4.656,9.296-14.618,16.602-29.884l9.961-22.581C85.372,424.714,84.707,424.047,83.378,423.379z"/>
			</g>
		</g>
		<g>
			<g>
				<path d="M73.417,450.609c-0.662-1.329-1.326-1.991-2.656-1.329l-13.281,5.317c-9.296,5.306-15.937,10.623-19.922,16.602
					c-1.326,1.323-0.665,1.985,0,2.653h3.319c3.321-5.973,9.962-10.63,19.259-15.934l11.955-4.657
					C73.417,452.6,73.417,451.277,73.417,450.609z"/>
			</g>
		</g>
		<g>
			<g>
				<path d="M10.995,432.017l-1.991,1.991c0,1.329,0.664,2.652,1.991,2.652c9.961,0,20.586,3.32,33.203,9.3
					c1.329,0.661,1.329,0.661,2.655-1.323c0.665-0.668,0-1.336-1.326-2.658C32.91,435.999,20.956,432.678,10.995,432.017z"/>
			</g>
		</g>
		<g>
			<g>
				<path d="M60.8,420.059l-15.272,1.335c-1.329,0.662-1.994,1.985-1.329,2.653l1.995,1.329l14.606-1.329
					c9.961-0.668,16.603,0,21.253,2.651h1.99c1.329-1.322,1.329-2.651,0-3.319C78.731,420.726,71.426,418.734,60.8,420.059z"/>
			</g>
		</g>
		<g>
			<g>
				<path fill="#D96038" d="M125.881,315.805C103.3,292.562,88.028,284.591,80.723,291.9c-7.306,7.964,1.993,22.574,27.892,43.825
					c26.563,21.246,41.836,29.223,45.82,23.904C157.755,354.319,148.459,339.708,125.881,315.805z"/>
			</g>
		</g>
		<g>
			<g>
				<path d="M111.936,299.864c-15.937-11.952-26.563-15.273-33.204-9.301c-1.329,1.998-1.995,4.657-1.995,7.31l0.666,5.312
					c3.32,9.299,14.61,21.919,33.203,37.185c17.932,13.95,31.212,21.258,39.845,22.582c2.655,0.66,3.984-0.662,5.976-1.991
					c1.994-3.988-1.991-13.282-12.617-27.231C133.848,320.447,123.223,308.502,111.936,299.864z M82.053,293.885
					c3.319-3.321,9.96-2.652,17.927,3.32c11.956,7.309,23.907,18.6,36.524,34.54c11.29,14.604,17.267,23.242,15.275,26.563
					c-2.655,1.322-11.955-3.32-27.893-13.95c-16.602-11.952-28.554-23.242-36.523-33.871
					C81.387,302.522,80.058,297.205,82.053,293.885z"/>
			</g>
		</g>
		<g>
			<g>
				<path fill="#FFE000" d="M151.114,306.504c-7.306-33.203-15.937-47.808-25.233-43.826c-8.635,3.321-7.97,21.246,2.656,52.464
					c11.287,31.868,19.257,46.484,25.897,44.487C159.746,357.639,158.42,339.708,151.114,306.504z"/>
			</g>
		</g>
		<g>
			<g>
				<path d="M125.217,260.02c-3.321,1.329-5.976,5.317-6.642,11.29c-1.993,10.63,1.991,27.23,9.962,49.806
					c7.967,21.252,14.607,34.533,21.247,39.845c1.33,0.667,3.986,1.329,5.316,0.667c4.646-1.335,5.976-13.281,2.654-33.87
					c-3.32-18.594-6.641-34.534-12.616-47.814C139.163,264.001,131.857,257.36,125.217,260.02z M122.561,275.96
					c0-6.641,1.326-9.961,4.647-11.291c1.993-1.33,5.313,1.33,9.296,7.309c6.641,10.623,11.29,27.886,15.275,50.466
					c3.321,21.245,3.984,32.543,1.326,35.194c-2.655,0-8.632-9.293-15.272-25.894c-7.971-17.271-12.616-33.872-14.61-47.821
					L122.561,275.96z"/>
			</g>
		</g>
		<g>
			<g>
				<path fill="#D96038" d="M180.998,311.154c10.625-33.204,10.625-50.474-0.664-51.796c-11.953-1.329-19.923,15.272-26.563,48.476
					c-5.977,33.871-5.977,50.474,0.664,51.796C161.076,360.96,169.707,344.357,180.998,311.154z"/>
			</g>
		</g>
		<g>
			<g>
				<path d="M188.969,263.339c-1.33-3.32-4.65-5.311-7.971-6.64c-8.632-0.662-15.938,6.64-22.578,23.243
					c-3.985,11.958-7.306,27.224-9.961,43.826c-1.994,24.577-0.665,37.191,5.312,37.858c2.655,0.662,5.314-1.335,8.635-5.979
					c7.967-9.962,14.608-25.24,21.248-45.823C190.959,287.912,192.949,271.978,188.969,263.339z M180.334,261.349
					c3.984,1.33,5.976,4.65,5.976,11.952v1.33c0,12.614-4.646,29.883-13.281,51.135c-8.632,19.921-15.273,31.206-18.594,31.873
					c-2.655-1.99-3.32-11.952-1.329-29.215c1.329-17.938,5.314-33.872,10.625-47.152
					C168.381,267.99,174.357,261.349,180.334,261.349z"/>
			</g>
		</g>
		<g>
			<g>
				<path fill="#FFE000" d="M210.881,266.66c-9.961-3.982-23.242,9.3-39.844,41.174c-17.267,31.874-23.243,49.138-16.603,51.796
					c5.977,2.659,19.258-11.284,39.845-41.167C214.866,287.912,220.842,271.31,210.881,266.66z"/>
			</g>
		</g>
		<g>
			<g>
				<path d="M211.546,264.669c-7.306-3.32-16.603,3.321-27.893,18.593c-8.631,11.29-16.602,25.901-23.907,41.842
					c-9.296,22.574-11.952,34.526-6.641,36.523c1.995,0.662,5.314,0,8.635-2.658c9.961-7.303,21.913-20.584,34.53-39.183
					c13.946-20.584,21.251-35.195,21.251-45.156v-1.991C216.856,269.319,214.866,265.999,211.546,264.669z M210.217,269.319
					c2.655,0.662,3.32,4.643,1.329,10.624c-3.32,12.619-12.617,29.221-27.893,49.144c-15.272,19.26-25.233,28.553-29.219,28.553
					c-1.329-3.319,1.991-13.281,9.962-30.551c7.97-19.254,17.267-35.188,26.563-46.485
					C199.591,271.31,205.569,266.66,210.217,269.319z"/>
			</g>
		</g>
		<g>
			<g>
				<path fill="#D96038" d="M154.435,359.63c3.32,5.318,22.579,0.662,55.782-14.604c33.868-15.28,47.149-27.899,40.509-37.192
					c-5.977-9.961-24.571-5.312-55.782,13.949C163.73,341.705,150.45,354.319,154.435,359.63z"/>
			</g>
		</g>
		<g>
			<g>
				<path d="M253.381,305.844c-2.655-3.321-7.305-5.318-13.946-4.65c-12.616,0.668-29.883,7.97-51.796,22.575
					c-19.922,13.948-31.875,23.909-35.859,31.88c-0.665,1.99-0.665,3.32,0,5.312c3.321,3.988,15.938,2.651,36.524-5.312
					c20.586-6.641,36.523-14.61,49.141-23.243c11.29-7.97,16.602-14.61,16.602-21.251L253.381,305.844z M228.148,307.834
					l21.248,0.668c1.994,3.981,0,8.625-5.977,13.281c-9.961,9.293-26.563,18.586-49.806,27.225
					c-21.913,8.631-34.529,11.952-37.851,9.3c0-3.988,8.633-11.297,25.234-23.911C198.929,321.115,214.866,312.483,228.148,307.834z
					"/>
			</g>
		</g>
		<g>
			<g>
				<path fill="#FFE000" d="M260.687,333.067c-2.655-10.623-21.252-10.623-57.111,1.329c-35.858,10.63-51.796,19.254-49.141,25.233
					c1.991,5.979,21.252,5.979,56.446-0.661C247.405,351.666,264.008,343.689,260.687,333.067z"/>
			</g>
		</g>
		<g>
			<g>
				<path d="M263.343,332.405c-1.327-4.648-4.647-7.302-9.962-7.97c-11.952-2.652-30.548,0-55.781,9.293
					c-23.907,7.977-39.18,15.279-43.829,21.259c-1.991,2.651-2.656,3.981-1.991,5.973c2.655,3.988,13.281,5.973,34.53,3.32
					c19.922-1.329,37.188-5.312,51.8-9.961c16.601-5.974,25.233-11.952,25.233-19.255V332.405z M243.42,327.757
					c9.296,0,13.946,2.651,15.275,5.972c1.326,3.321-2.658,7.31-10.625,11.298c-11.955,6.64-30.549,11.283-54.456,13.942
					c-22.577,2.658-35.194,2.658-37.188-0.661c0.665-3.32,11.291-9.3,31.878-17.27C210.881,333.067,228.813,328.424,243.42,327.757z
					"/>
			</g>
		</g>
		<g>
			<g>
				<path fill="#D96038" d="M198.265,392.834c31.209,15.94,48.476,18.599,51.132,7.971c3.319-9.961-11.952-20.591-44.492-33.205
					c-31.876-11.29-49.141-13.949-50.47-7.97C152.443,365.609,167.052,377.562,198.265,392.834z"/>
			</g>
		</g>
		<g>
			<g>
				<path d="M252.056,398.813c0-7.303-7.971-14.611-22.582-23.243c-11.952-5.979-25.233-11.29-40.505-15.278l-37.189-1.323
					c-0.665,1.991,0.664,5.312,4.646,8.631c7.971,9.294,22.581,17.932,42.503,27.893c21.913,11.284,37.187,15.272,45.156,13.282
					c3.985-1.33,6.641-3.32,7.306-7.303L252.056,398.813z M156.426,360.292c1.994-1.984,11.955-0.662,29.222,3.988
					c18.593,4.649,33.865,10.629,45.82,18.593c11.952,7.302,16.603,12.619,15.938,17.932c-0.665,3.319-4.65,3.988-11.952,3.319
					c-12.62-1.99-29.222-8.632-49.806-20.59C166.388,371.588,156.426,364.28,156.426,360.292z"/>
			</g>
		</g>
		<g>
			<g>
				<path fill="#FFE000" d="M141.154,391.511c-3.985,21.906-1.991,32.536,6.64,33.203c7.97,0.662,13.282-9.96,15.273-31.219
					c1.329-22.574-0.662-33.203-6.642-34.526C150.45,358.969,145.139,369.591,141.154,391.511z"/>
			</g>
		</g>
		<g>
			<g>
				<path d="M164.396,370.253c-1.329-8.626-3.985-12.614-7.971-13.281c-1.991,0-5.312,1.336-7.302,4.655
					c-2.659,5.306-5.979,11.946-8.636,20.584c-1.99,9.3-3.319,17.925-3.319,25.233c0,6.642,0.664,10.63,2.655,13.949
					c1.33,3.32,3.984,5.974,7.97,5.974c4.649,0,9.297-3.32,11.952-10.63c3.321-5.973,4.65-14.604,5.314-24.564
					C165.726,384.202,165.061,376.894,164.396,370.253z M156.426,361.627c1.329,0,1.994,2.653,3.32,8.626
					c1.33,5.979,1.33,13.949,0.665,21.92c-0.665,8.632-2.656,16.602-4.647,21.913c-1.993,5.973-4.649,9.293-7.97,8.631l-3.985-3.32
					c-2.654-5.311-2.654-14.604,0-27.886c1.994-11.959,5.315-21.258,9.297-27.23L156.426,361.627z"/>
			</g>
		</g>
		<g>
			<g>
				<path fill="#FFE000" d="M103.966,364.948c34.532,2.651,52.46,0.661,52.46-5.979s-17.928-13.942-52.46-21.252
					c-35.196-8.631-51.797-6.641-52.463,5.312C50.839,354.319,68.77,361.627,103.966,364.948z"/>
			</g>
		</g>
		<g>
			<g>
				<path d="M158.42,358.969c0-1.997-1.994-4.649-6.641-7.303c-11.291-6.64-27.228-12.619-48.479-17.27
					c-24.568-5.311-39.844-5.311-48.477-0.668c-3.984,1.997-5.976,4.656-5.976,9.3c0,7.971,8.632,14.61,25.234,19.261l45.819,5.311
					C145.139,368.269,158.42,365.609,158.42,358.969z M124.552,363.611c-19.257,0-36.523-1.984-50.47-5.973
					s-20.588-9.293-19.922-14.61c0-3.981,3.319-5.979,9.96-7.303c13.282-1.329,31.213,1.324,54.455,7.964
					c22.579,6.641,34.53,11.959,35.859,15.279C152.443,361.627,142.483,363.611,124.552,363.611z"/>
			</g>
		</g>
		<g>
			<g>
				<path fill="#FFE000" d="M156.426,358.969c4.65-3.32,1.329-17.264-11.287-40.506c-11.955-23.242-22.578-32.542-31.214-27.23
					c-8.63,4.649-4.646,17.931,11.292,40.513C140.488,354.319,151.114,362.951,156.426,358.969z"/>
			</g>
		</g>
		<g>
			<g>
				<path d="M141.154,307.166c-10.626-16.603-19.923-22.575-27.893-18.587c-3.32,2.653-5.313,5.973-5.313,9.961v0.662
					c0.665,9.3,5.976,21.245,16.603,35.194c10.626,13.949,19.257,23.242,26.563,26.563h6.641c3.321-2.652,3.321-9.961-1.329-23.243
					C152.443,327.088,147.794,316.465,141.154,307.166z M115.255,292.562c5.312-2.658,12.616,2.659,21.914,15.94
					c5.976,9.293,11.29,19.922,15.274,31.206c3.982,10.622,4.647,15.94,2.657,17.931c-1.995,0.669-7.971-3.319-16.603-13.281
					c-9.297-9.961-16.603-19.922-21.252-30.551C111.936,302.522,111.271,295.221,115.255,292.562z"/>
			</g>
		</g>
		<g>
			<g>
				<path fill="#FFE000" d="M156.426,358.969c4.65,3.982,17.932-4.649,40.509-27.224c22.578-22.582,30.549-36.524,23.907-41.182
					c-5.976-5.973-19.922,3.988-39.844,27.231C159.746,341.705,151.779,355.648,156.426,358.969z"/>
			</g>
		</g>
		<g>
			<g>
				<path d="M222.833,287.912c-5.312-3.321-12.616-0.668-24.568,9.293c-7.306,5.317-14.611,13.281-21.917,22.581l-15.937,21.252
					c-6.641,10.628-8.632,17.27-5.977,19.922h7.306c9.297-3.321,21.248-12.614,36.524-27.231
					c16.602-15.934,25.233-28.547,26.563-37.186l0.665-1.991C225.492,291.232,224.163,289.241,222.833,287.912z M220.178,291.9
					c1.329,1.984,0.664,5.973-2.656,11.945c-6.641,10.629-17.266,23.242-33.203,36.523c-13.946,13.281-23.242,18.6-26.563,17.27
					c-1.329-3.319,3.321-11.29,13.946-25.233c11.287-14.61,22.578-26.562,32.539-34.532
					C212.211,291.9,217.521,289.903,220.178,291.9z"/>
			</g>
		</g>
		<g>
			<g>
				<path fill="#FFE000" d="M204.24,373.573c30.548,1.997,45.821-1.985,45.156-11.946c-0.662-10.628-16.603-14.616-47.812-13.949
					c-30.548,1.33-45.821,5.313-45.159,11.291C157.091,365.609,173.028,370.253,204.24,373.573z"/>
			</g>
		</g>
		<g>
			<g>
				<path d="M251.391,361.627c0-3.988-2.656-7.977-7.971-10.628c-9.961-5.313-25.898-6.642-46.485-5.313
					c-19.921,1.324-33.204,4.644-39.844,8.633c-2.656,1.329-3.32,3.319-2.656,5.311c0,4.65,9.962,8.639,27.893,12.62l45.821,3.32
					c15.937-1.329,23.907-5.317,23.907-13.281L251.391,361.627z M247.405,361.627c0,3.982-3.985,6.642-12.617,8.626l-47.149-1.984
					c-17.932-3.32-27.893-6.642-29.219-9.3c1.326-1.997,9.297-4.649,24.568-7.303c15.94-1.997,30.549-1.997,43.83-0.667
					C240.1,352.99,247.405,356.972,247.405,361.627z"/>
			</g>
		</g>
		<g>
			<g>
				<path fill="#FFE000" d="M180.334,406.115c20.586,25.901,35.197,35.201,44.493,27.225c9.297-8.626,1.327-24.565-23.907-47.146
					c-24.572-22.582-39.844-31.874-44.494-27.225C151.114,364.28,159.746,380.214,180.334,406.115z"/>
			</g>
		</g>
		<g>
			<g>
				<path d="M161.74,356.972l-7.306,0.667c-3.32,3.321,0,12.614,8.633,27.231c7.97,13.281,16.601,25.228,26.562,35.855
					c15.94,16.603,27.893,21.253,36.525,13.949c3.319-2.658,4.648-5.979,4.648-9.299l-0.664-3.982
					c-2.655-10.629-12.617-23.91-29.883-39.183C183.653,367.6,171.037,358.969,161.74,356.972z M157.755,360.96
					c3.321-1.33,13.282,3.32,27.893,15.272c15.938,11.958,27.89,24.572,35.194,35.862c5.313,8.631,6.642,15.272,2.656,19.261
					c-4.647,3.981-11.952,2.652-21.248-5.317c-11.291-8.633-21.252-21.245-31.878-37.848
					C161.076,372.912,156.426,364.28,157.755,360.96z"/>
			</g>
		</g>
		<g>
			<g>
				<path fill="#D96038" d="M137.169,406.776c-6.641,31.881-6.641,48.482,1.994,49.806c8.631,0.668,14.607-15.934,18.592-48.469
					c4.65-31.881,3.321-48.483-2.654-49.145C149.784,358.308,143.145,374.241,137.169,406.776z"/>
			</g>
		</g>
		<g>
			<g>
				<path d="M138.498,458.579c7.967,0.662,13.281-9.299,18.593-30.544c3.32-13.949,4.649-25.24,4.649-33.203
					c1.99-24.579,0-37.86-5.977-37.86c-1.993,0-4.649,0.667-5.979,3.988c-4.646,6.64-9.296,17.932-12.615,34.532
					c-4.647,16.603-6.641,31.206-6.641,43.165c0,6.641,0.664,11.952,2.655,15.272L138.498,458.579z M155.101,360.96
					c2.654,1.991,3.319,12.613,2.654,30.551c-1.329,19.254-4.649,35.188-9.296,48.47c-2.656,9.961-5.976,13.949-8.635,13.949
					c-2.655,0-3.982-3.32-4.646-9.961c-1.33-11.952,1.326-28.554,6.64-49.806C147.794,372.912,151.779,362.289,155.101,360.96z"/>
			</g>
		</g>
		<g>
			<g>
				<path fill="#D96038" d="M103.966,392.173c-29.884,26.562-40.51,42.502-33.205,48.476c7.971,6.641,25.238-4.649,52.462-33.204
					c26.562-28.553,37.188-44.493,31.878-48.476C150.45,354.987,133.184,366.271,103.966,392.173z"/>
			</g>
		</g>
		<g>
			<g>
				<path d="M141.154,390.175c15.271-19.254,20.586-29.883,15.937-32.536c-3.985-3.319-16.603,2.653-36.524,17.932
					c-19.922,15.273-33.868,28.554-44.49,41.835c-5.979,7.971-9.3,13.95-9.3,19.255c0,2.659,0.664,4.656,2.659,6.641
					c4.646,3.32,11.287,0.668,20.584-9.293c-9.297,5.973-14.608,7.309-17.929,5.312c-1.33-1.991-1.33-5.312,1.326-9.3
					c6.641-12.614,20.587-27.225,43.165-45.149c21.251-17.271,33.868-24.578,37.853-23.91c0.666,3.32-5.976,13.949-20.587,31.213
					c-15.937,19.26-30.548,32.541-43.828,41.835c5.313,0,10.625-2.652,15.939-6.641
					C118.575,416.737,130.528,404.124,141.154,390.175z"/>
			</g>
		</g>
		<g>
			<g>
				<path fill="#FFE000" d="M119.241,401.472c-18.597,30.545-22.582,47.146-12.621,51.128c9.3,3.982,21.917-10.621,36.524-41.835
					c13.946-32.535,17.932-49.805,11.956-51.796C149.784,356.972,137.169,370.921,119.241,401.472z"/>
			</g>
		</g>
		<g>
			<g>
				<path d="M156.426,356.972c-1.991-1.323-5.312,0-8.632,3.32c-8.631,7.308-18.593,19.922-29.883,38.521
					c-12.616,19.921-17.932,35.194-17.932,45.155v3.32c0.665,3.988,2.658,6.641,5.315,7.309c7.967,2.652,16.601-3.32,25.897-17.938
					c7.306-11.284,13.946-25.228,19.922-41.168C160.411,371.588,161.74,358.969,156.426,356.972z M154.435,360.96
					c2.656,2.651,0,13.281-6.641,30.551c-6.64,19.254-13.946,33.865-22.577,45.817c-7.971,10.629-13.946,14.611-17.932,13.281
					c-3.319-1.329-3.985-5.312-2.656-11.952c2.656-12.619,10.626-28.56,25.233-49.144
					C142.483,370.921,151.114,360.96,154.435,360.96z"/>
			</g>
		</g>
		<g>
			<g>
				<path fill="#D96038" d="M95.999,358.308c-38.52,5.973-55.785,13.942-52.466,23.903c2.66,10.623,23.243,10.623,60.433,0.662
					c37.188-9.961,54.454-17.925,52.46-23.904C153.771,352.328,133.848,352.328,95.999,358.308z"/>
			</g>
		</g>
		<g>
			<g>
				<path d="M157.091,362.951c1.329-1.991,1.329-3.321,1.329-5.313c-1.329-4.648-14.611-5.973-38.519-3.988
					c-23.242,1.337-42.499,4.657-57.107,9.961c-17.267,5.318-23.907,11.959-21.917,19.923c1.33,3.988,4.65,6.641,11.292,7.31
					c11.951,3.319,31.209,0,58.437-7.31C135.842,376.232,151.114,368.93,157.091,362.951z M45.527,381.55
					c-1.329-3.32,1.991-5.979,7.967-9.3c11.955-5.979,31.878-10.623,58.441-13.942l42.499,1.322
					c-1.329,3.981-13.28,8.639-34.533,15.94c-23.242,7.964-42.499,11.952-57.771,11.952
					C52.169,387.522,46.854,385.531,45.527,381.55z"/>
			</g>
		</g>
		<g>
			<g>
				<path fill="#FFE000" d="M101.975,373.573c-31.878,14.617-45.16,26.563-39.181,34.54c5.976,8.624,23.904,3.319,54.452-13.95
					c29.884-18.593,42.5-29.883,39.18-35.194C151.779,353.65,133.848,358.308,101.975,373.573z"/>
			</g>
		</g>
		<g>
			<g>
				<path d="M157.755,357.639c-1.329-1.99-3.984-2.651-9.296-2.651c-11.955,1.984-27.893,7.302-49.141,16.601
					c-21.916,10.623-35.198,19.923-39.183,28.548c-1.327,3.988-1.327,6.641,0.664,9.3l33.204-1.322
					c13.281-5.318,26.563-13.281,41.174-23.911C153.771,370.921,161.076,361.627,157.755,357.639z M64.12,406.776v-2.652
					c0-1.99,1.329-4.649,4.649-7.97c8.633-8.632,25.234-17.925,48.477-26.563c21.252-8.631,33.868-11.952,37.188-9.299
					c0,3.319-7.305,9.961-22.577,20.59c-16.603,11.952-31.213,19.923-44.494,25.233L64.12,406.776z"/>
			</g>
		</g>
		<g>
			<g>
				<path fill="#FFE000" d="M150.45,413.417c2.655,34.54,9.296,51.142,20.587,50.475c10.626-0.669,12.616-19.255,5.311-53.794
					c-6.641-35.188-13.942-52.459-19.922-51.129C149.784,360.292,147.794,378.229,150.45,413.417z"/>
			</g>
		</g>
		<g>
			<g>
				<path d="M161.076,360.292c-1.33-2.653-3.321-3.32-5.313-3.32c-4.649,0.667-7.305,9.961-7.97,27.23
					c-0.664,13.949,0,29.215,1.99,43.165c3.986,26.563,10.627,39.844,21.253,39.176c3.985-0.661,6.64-3.32,8.631-7.964
					c4.65-9.299,3.985-27.224-1.991-52.464C173.028,382.211,167.717,367.6,161.076,360.292z M157.091,360.96
					c3.32,1.329,7.306,12.613,13.281,33.203c5.976,23.242,7.971,40.512,7.305,54.455c-0.663,8.632-3.319,12.62-7.305,12.62
					c-4.646,0.662-8.632-4.656-11.952-15.278c-3.985-13.943-6.641-31.206-6.641-51.797
					C151.779,374.241,153.771,363.611,157.091,360.96z"/>
			</g>
		</g>
		<g>
			<g>
				<path fill="#FFE000" d="M179.668,378.892c16.603,6.64,25.901,6.64,27.893-1.33c2.656-7.971-4.65-14.61-22.578-19.923
					c-17.266-4.648-27.228-3.988-28.557,1.33C154.435,364.948,162.405,371.588,179.668,378.892z"/>
			</g>
		</g>
		<g>
			<g>
				<path d="M210.217,378.229l0.664-3.32c0-7.31-7.971-13.949-24.571-19.261l-19.258-2.658c-7.306,0.66-11.951,1.997-12.617,5.317
					c-0.664,3.319,0,5.973,3.32,9.292c4.65,5.313,11.952,9.962,20.588,13.282c9.961,3.988,18.592,5.974,23.907,3.988
					C206.896,384.202,209.552,381.55,210.217,378.229z M161.076,364.948l-2.656-4.656c0.665-1.984,3.32-2.653,8.632-2.653
					l17.931,3.321c5.977,1.329,11.952,3.32,15.273,6.64c3.984,3.321,6.64,6.642,5.313,9.294l-4.649,3.988
					c-4.649,0.668-11.291,0-19.922-3.988C172.366,373.573,165.726,368.93,161.076,364.948z"/>
			</g>
		</g>
		<g>
			<g>
				<path fill="#FFE000" d="M133.184,377.562c-11.288,14.611-12.617,23.91-5.313,27.893c7.307,4.644,15.273-1.33,23.908-17.932
					c8.632-15.935,9.961-25.233,4.646-28.554C151.114,356.972,143.145,362.289,133.184,377.562z"/>
			</g>
		</g>
		<g>
			<g>
				<path d="M157.755,357.639c-2.654-1.99-5.976-0.667-9.961,1.33c-5.977,3.32-11.29,9.3-17.266,17.264
					c-5.977,8.638-8.633,15.94-8.633,21.919v0.662c0,3.981,1.327,6.641,5.313,9.3c3.984,2.651,8.634,1.322,13.946-3.32
					c3.984-3.321,8.63-8.639,12.616-15.94l6.641-17.932C161.74,363.611,161.076,358.969,157.755,357.639z M155.101,360.96
					c1.99,0.667,1.99,3.32,1.325,8.631l-6.642,17.265c-7.967,13.949-14.606,19.921-21.247,17.269
					c-1.329-1.329-1.995-3.319-1.995-5.311c-0.661-4.65,1.995-11.291,7.306-19.262c5.977-7.964,10.626-13.281,16.603-16.601
					C152.443,360.96,154.435,360.96,155.101,360.96z"/>
			</g>
		</g>
		<g>
			<g>
				<path fill="#D96038" d="M159.746,358.969c5.314,1.991,13.282-6.641,21.252-24.572c8.631-18.592,8.631-29.215,0.665-31.874
					c-7.971-1.997-14.611,5.979-21.252,25.234C154.435,347.011,154.435,357.639,159.746,358.969z"/>
			</g>
		</g>
		<g>
			<g>
				<path d="M180.998,304.514l3.32,4.649c0.664,5.312-0.665,13.281-5.312,23.904c-4.649,9.961-9.3,17.263-14.61,21.252l-3.32,2.652
					c-1.33-0.662-2.656-3.321-1.991-9.294c0-5.973,1.326-12.613,3.982-19.921c1.329-5.313,3.984-9.294,5.979-13.282
					c-4.65,1.33-7.971,5.312-10.627,11.291c-1.994,7.963-3.985,15.272-3.985,21.912c0,7.971,0.666,12.614,4.65,13.282
					c2.655,0.667,5.312,0,8.632-2.652c5.312-3.988,9.96-11.297,13.946-20.591c5.31-9.96,7.966-18.593,7.966-25.233l-0.66-3.981
					c-0.665-3.988-2.659-6.641-6.642-7.977c-3.984-1.323-5.979,1.336-7.305,7.309C177.014,305.182,179.007,304.514,180.998,304.514z
					"/>
			</g>
		</g>
		<g>
			<g>
				<path fill="#FFE000" d="M159.746,358.969c5.979-1.33,7.306-13.282,2.659-34.533c-4.65-21.913-10.626-31.874-18.597-29.884
					c-7.967,1.991-8.631,13.282-2.654,34.534C147.794,350.999,154.435,360.96,159.746,358.969z"/>
			</g>
		</g>
		<g>
			<g>
				<path d="M153.105,295.882c-2.655-3.32-5.976-4.649-9.297-3.981c-5.976,1.984-8.631,6.64-8.631,15.934
					c0,3.988,1.326,9.961,2.655,16.602c2.655,9.961,5.976,17.932,9.961,25.895c3.985,7.978,8.632,11.959,12.617,10.63
					c2.656,0,3.985-2.652,4.649-5.973c2.656-6.642,1.991-16.603-0.664-29.884C161.74,311.154,157.755,301.193,153.105,295.882z
					 M144.474,297.205c1.991-1.323,3.32,0,5.311,1.335c4.65,5.306,7.971,13.943,10.627,27.226
					c1.994,11.951,2.656,21.912,0.665,28.554l-1.33,2.652c-1.991,0.667-4.646-2.652-8.632-9.294
					c-3.32-6.64-6.641-15.272-9.297-23.909c-1.329-7.964-1.993-13.943-1.329-18.587
					C140.488,300.525,141.817,297.873,144.474,297.205z"/>
			</g>
		</g>
		<g>
			<g>
				<path fill="#FFE000" d="M207.561,330.408c-4.65-6.64-14.611-5.305-29.884,5.317c-14.609,9.961-20.586,18.594-17.931,23.243
					c3.321,5.312,13.282,3.32,29.883-5.318C205.569,345.026,211.546,337.717,207.561,330.408z"/>
			</g>
		</g>
		<g>
			<g>
				<path d="M210.881,334.396l-1.991-5.311c-1.994-3.982-5.979-4.65-11.29-4.65c-5.312,0.668-11.29,3.321-17.932,7.31
					c-7.302,4.643-12.616,9.293-17.263,14.604c-5.314,5.979-7.305,10.623-4.65,13.943c1.991,1.997,4.65,3.319,9.297,3.319
					c6.641,0,13.946-2.651,23.242-7.963c9.962-4.649,15.938-9.962,19.258-15.279L210.881,334.396z M181.663,335.726
					c12.616-7.969,19.922-8.638,23.241-3.98c1.327,1.983,1.327,3.98,0,5.972c-1.994,4.65-7.97,9.294-16.601,13.949
					c-8.636,3.982-15.938,6.642-21.916,7.303l-4.647-1.33c-0.664-0.667,0.665-3.988,4.647-8.631L181.663,335.726z"/>
			</g>
		</g>
		<g>
			<g>
				<path fill="#D96038" d="M165.061,398.813c9.297,23.242,17.928,33.203,25.898,29.883c8.632-3.982,6.641-17.264-4.649-39.844
					c-11.952-23.243-21.249-33.204-26.563-30.545C154.435,361.627,156.426,374.909,165.061,398.813z"/>
			</g>
		</g>
		<g>
			<g>
				<path d="M165.726,357.639c-2.658-1.99-4.649-1.99-7.306-0.667c-3.985,1.997-3.985,9.299-1.329,21.92
					c1.994,11.283,5.977,21.244,10.626,31.206c8.631,17.27,16.602,23.91,24.571,20.589c3.982-1.329,5.312-4.648,5.977-9.961v-1.329
					c0-8.632-3.985-20.583-11.955-34.526C178.343,370.921,171.701,361.627,165.726,357.639z M161.076,376.894
					c-1.991-9.961-1.991-15.267,0-15.934c1.329-0.668,5.312,3.32,11.29,10.628c5.977,8.626,11.952,18.587,15.938,28.548
					c6.64,15.279,7.305,23.911,1.99,26.563c-5.312,1.998-11.951-3.981-18.593-19.254
					C167.052,397.483,163.067,387.522,161.076,376.894z"/>
			</g>
		</g>
		<g>
			<g>
				<path fill="#D96038" d="M125.881,360.96c-19.922,7.309-27.892,13.949-23.906,21.913c3.32,7.971,14.607,6.641,33.203-1.991
					c19.257-9.294,27.228-16.602,24.568-21.913C157.091,353.65,145.803,354.319,125.881,360.96z"/>
			</g>
		</g>
		<g>
			<g>
				<path d="M161.74,357.639c-0.664-1.99-3.985-3.319-7.97-3.319c-7.968-0.669-17.267,0.668-29.219,4.649
					c-12.616,4.643-20.586,9.3-23.907,15.272c-1.326,1.329-1.991,3.32-1.991,5.973c0,1.336,0,2.659,1.326,3.988
					c1.995,3.988,7.306,6.642,14.611,5.312c6.641-0.661,13.946-2.658,22.578-7.303l17.932-11.29
					C161.076,365.609,163.73,361.627,161.74,357.639z M153.105,358.308l4.649,1.984l-4.649,6.641
					c-4.646,3.988-10.622,7.309-17.928,10.629c-7.97,3.988-14.611,6.641-20.587,7.309c-5.977,0.661-9.296,0-10.625-3.32
					c-0.666-1.336-0.666-3.32,0-4.656c3.319-4.644,11.289-9.294,21.915-12.613C137.169,360.292,146.465,358.308,153.105,358.308z"/>
			</g>
		</g>
		<g>
			<g>
				<path fill="#FFE000" d="M131.857,333.729c-21.252-11.945-33.204-13.281-36.524-5.972c-3.32,7.308,6.642,16.601,28.554,25.894
					c21.252,9.301,33.868,10.63,35.859,5.318C161.74,353.65,153.105,345.026,131.857,333.729z"/>
			</g>
		</g>
		<g>
			<g>
				<path d="M146.465,362.951c8.636,1.329,13.946,0.66,15.275-2.659c1.327-2.653,0-5.305-1.994-8.626
					c-5.312-6.64-14.607-13.281-27.225-20.59c-13.946-6.641-23.907-9.961-31.877-9.293c-3.985,0.661-6.641,2.652-7.306,5.305
					l-0.661,3.32c0,4.656,4.646,10.63,12.617,15.94l18.592,9.3L146.465,362.951z M156.426,354.319l1.329,3.988h-9.296l-23.242-6.642
					c-8.635-3.988-16.603-7.977-21.251-12.619c-5.313-3.982-7.307-7.302-6.642-10.623c0.665-0.667,1.994-1.997,4.65-2.658
					c5.975-0.662,15.937,2.658,28.554,9.96C143.145,342.367,151.114,348.346,156.426,354.319z"/>
			</g>
		</g>
		<g>
			<g>
				<path fill="#FFE000" d="M173.028,352.99c-1.991-2.66-3.981-4.645-7.303-5.313l-10.625,1.33
					c-3.986,1.991-5.977,3.982-7.307,6.641c-1.991,3.32-1.991,5.979-0.664,9.3c0.664,2.651,3.32,4.643,7.305,5.305l9.962-1.323
					c3.32-1.33,6.641-3.981,7.97-7.303C174.357,358.969,174.357,355.648,173.028,352.99z"/>
			</g>
		</g>
		<g>
			<g>
				<path d="M166.388,345.687l-11.953,1.324c-5.311,1.997-7.97,5.317-9.961,9.961c-0.665,3.32-0.665,6.64,0,8.638
					c1.991,3.32,3.985,5.312,7.306,6.641l13.281-1.329c5.312-1.991,8.632-5.312,9.962-9.961c1.325-2.652,1.325-5.973-0.665-8.632
					C173.028,348.346,170.372,347.011,166.388,345.687z M149.124,358.308c1.326-3.32,3.319-5.979,7.302-7.309l8.635-0.669
					c2.656,0,4.646,1.336,5.977,3.989v2.652v3.32c-1.33,3.319-3.985,5.317-7.307,6.641l-9.96,0.667c-2.656,0-3.32-1.99-4.646-3.319
					C147.794,362.289,147.794,360.292,149.124,358.308z"/>
			</g>
		</g>
	</g>
</g>
<path id="PATH77" fill="none" stroke="#000000" stroke-width="3" stroke-miterlimit="100" d="M370.59,585.26H3.92V2.74h366.67
	V585.26L370.59,585.26z"/>
</svg>
