<?xml version="1.0" encoding="utf-8"?>
<!-- Generator: Adobe Illustrator 13.0.0, SVG Export Plug-In . SVG Version: 6.00 Build 14948)  -->
<!DOCTYPE svg PUBLIC "-//W3C//DTD SVG 1.1//EN" "http://www.w3.org/Graphics/SVG/1.1/DTD/svg11.dtd">
<svg version="1.1" id="圖層_1" xmlns="http://www.w3.org/2000/svg" xmlns:xlink="http://www.w3.org/1999/xlink" x="0px" y="0px"
	 width="372px" height="587px" viewBox="0 0 372 587" enable-background="new 0 0 372 587" xml:space="preserve">
<g>
	<g>
		<g>
			<path fill="#333333" d="M72.677,38.776l-1.361-3.402c-1.363-1.363-2.043-2.043-3.402-2.043c-1.362,0-2.722,0.68-3.403,2.043
				l-2.043,3.402c0,3.405,2.043,4.764,5.447,4.764C71.316,43.54,72.677,42.181,72.677,38.776z"/>
		</g>
	</g>
	<g>
		<g>
			<path fill="#333333" d="M52.259,29.926c0-3.402-2.042-4.763-5.445-4.763c-2.721,0-4.765,1.36-4.765,4.763
				c0,3.404,2.045,5.447,4.765,5.447C50.218,35.373,52.259,33.33,52.259,29.926z"/>
		</g>
	</g>
	<g>
		<g>
			<path fill="#333333" d="M44.093,85.057c0-3.403-2.044-4.766-5.447-4.766c-2.721,0-4.762,1.362-4.762,4.766
				c0,3.402,2.042,5.444,4.762,5.444C42.049,90.5,44.093,88.459,44.093,85.057z"/>
		</g>
	</g>
	<g>
		<g>
			<path fill="#333333" d="M141.418,27.206c0-3.404-1.357-5.444-4.762-5.444c-2.725,0-4.765,2.04-4.765,5.444
				c0,2.72,2.04,4.765,4.765,4.765C140.061,31.972,141.418,29.926,141.418,27.206z"/>
		</g>
	</g>
	<g>
		<g>
			<path fill="#333333" d="M108.069,29.246c0-3.403-1.364-5.444-4.764-5.444c-3.404,0-4.764,2.041-4.764,5.444
				c0,2.726,1.36,4.765,4.764,4.765C106.706,34.011,108.069,31.972,108.069,29.246z"/>
		</g>
	</g>
	<g>
		<g>
			<path fill="#333333" d="M223.771,9.51c-3.398,0-4.763,2.042-4.763,5.445c0,3.403,1.364,4.762,4.763,4.762
				c3.405,0,4.77-1.359,4.77-4.762C228.54,11.552,227.176,9.51,223.771,9.51z"/>
		</g>
	</g>
	<g>
		<g>
			<path fill="#333333" d="M185.66,31.29c0-3.403-2.043-5.447-5.446-5.447c-2.721,0-4.083,2.043-4.083,5.447
				c0,2.721,1.364,4.761,4.083,4.761C183.617,36.051,185.66,34.011,185.66,31.29z"/>
		</g>
	</g>
	<g>
		<g>
			<path fill="#333333" d="M36.606,122.49c0-3.403-1.361-5.444-4.767-5.444c-1.358,0-2.722,0.677-3.402,2.04
				c-0.679,0.682-1.36,1.362-1.36,3.402l1.36,3.404c0.68,1.361,2.043,1.361,3.402,1.361
				C35.245,127.254,36.606,125.894,36.606,122.49z"/>
		</g>
	</g>
	<g>
		<g>
			<path fill="#333333" d="M59.063,154.48c0-3.403-1.357-4.766-4.761-4.766c-1.363,0-2.043,0.681-3.404,1.362
				c-1.36,1.359-1.36,2.041-1.36,3.403l1.36,4.08l3.404,1.364C57.707,159.923,59.063,157.882,59.063,154.48z"/>
		</g>
	</g>
	<g>
		<g>
			<path fill="#333333" d="M48.177,181.705c0-3.403-2.043-5.448-5.446-5.448c-3.403,0-4.763,2.044-4.763,5.448
				c0,2.72,1.36,4.079,4.763,4.079C46.134,185.784,48.177,184.425,48.177,181.705z"/>
		</g>
	</g>
	<g>
		<g>
			<path fill="#333333" d="M35.924,51.708c0-3.403-2.042-5.447-5.443-5.447c-2.723,0-4.768,2.044-4.768,5.447
				c0,3.402,2.044,4.762,4.768,4.762C33.883,56.47,35.924,55.11,35.924,51.708z"/>
		</g>
	</g>
	<g>
		<g>
			<path fill="#333333" d="M34.566,14.955c0-3.402-2.044-5.445-5.447-5.445c-2.722,0-4.085,2.042-4.085,5.445
				c0,3.403,1.363,4.762,4.085,4.762C32.521,19.717,34.566,18.358,34.566,14.955z"/>
		</g>
	</g>
	<g>
		<g>
			<path fill="#333333" d="M314.292,19.037l-1.363-3.404l-4.083-2.04c-2.723,0-4.078,2.04-4.078,5.444s1.355,4.766,4.078,4.766
				l4.083-1.362L314.292,19.037z"/>
		</g>
	</g>
	<g>
		<g>
			<path fill="#333333" d="M281.624,25.163l-1.365-3.401l-3.399-2.045c-3.407,0-5.446,2.045-5.446,5.446
				c0,3.404,2.039,4.763,5.446,4.763l3.399-1.359L281.624,25.163z"/>
		</g>
	</g>
	<g>
		<g>
			<path fill="#333333" d="M343.558,38.776c0-3.402-1.358-4.765-4.761-4.765s-5.451,1.363-5.451,4.765
				c0,3.405,2.048,5.443,5.451,5.443C342.199,44.219,343.558,42.181,343.558,38.776z"/>
		</g>
	</g>
	<g>
		<g>
			<path fill="#333333" d="M355.812,61.916c0-3.402-2.045-5.447-4.766-5.447c-1.36,0-2.038,1.362-3.403,2.044
				c-1.362,0.681-1.362,2.041-1.362,3.402c0,2.722,1.362,4.761,4.766,4.761C353.767,66.679,355.812,64.638,355.812,61.916z"/>
		</g>
	</g>
	<g>
		<g>
			<path fill="#333333" d="M240.785,28.568c0-3.403-1.362-5.447-4.766-5.447c-2.718,0-4.763,2.043-4.763,5.447
				c0,2.722,2.046,4.081,4.763,4.081C239.426,32.649,240.785,31.29,240.785,28.568z"/>
		</g>
	</g>
	<g>
		<g>
			<path fill="#333333" d="M357.168,15.633l-1.356-3.402c-0.684-0.677-2.723-1.359-3.402-1.359c-3.4,0-5.449,1.359-5.449,4.761
				c0,3.404,2.049,5.447,5.449,5.447l3.402-1.363L357.168,15.633z"/>
		</g>
	</g>
	<g>
		<g>
			<path fill="#333333" d="M322.458,40.817l-1.362-4.083l-3.4-1.361c-3.403,0-5.443,1.361-5.443,5.444
				c0,3.402,2.04,4.766,5.443,4.766c1.36,0,2.042,0,3.4-1.364L322.458,40.817z"/>
		</g>
	</g>
	<g>
		<g>
			<path fill="#333333" d="M352.409,85.057l-2.047-3.403l-3.402-1.362c-3.401,0-4.759,1.362-4.759,4.766
				c0,3.402,1.357,5.444,4.759,5.444l3.402-1.361L352.409,85.057z"/>
		</g>
	</g>
	<g>
		<g>
			<path fill="#333333" d="M328.587,87.098l-1.363-3.405c-1.359-0.677-2.038-1.358-4.087-1.358c-2.718,0-4.081,1.358-4.081,4.763
				c0,3.403,1.364,5.445,4.081,5.445l4.087-1.362L328.587,87.098z"/>
		</g>
	</g>
	<g>
		<g>
			<path fill="#333333" d="M352.409,131.337l-2.047-3.404l-3.402-2.04c-3.401,0-4.759,2.04-4.759,5.444
				c0,3.401,1.357,4.764,4.759,4.764l3.402-1.363L352.409,131.337z"/>
		</g>
	</g>
	<g>
		<g>
			<path fill="#333333" d="M339.474,110.241l-0.677-3.403c-1.363-1.363-2.724-2.046-4.087-2.046c-2.719,0-4.768,2.046-4.768,5.449
				c0,3.401,2.049,4.762,4.768,4.762l4.087-1.36L339.474,110.241z"/>
		</g>
	</g>
	<g>
		<g>
			<path fill="#333333" d="M358.53,156.519c0-3.402-2.04-4.767-5.441-4.767c-3.402,0-4.769,1.364-4.769,4.767
				c0,3.403,1.366,4.766,4.769,4.766C356.49,161.286,358.53,159.923,358.53,156.519z"/>
		</g>
	</g>
	<g>
		<g>
			<path fill="#333333" d="M264.608,14.273c0-3.401-1.364-5.446-4.764-5.446c-2.721,0-4.768,2.044-4.768,5.446
				c0,2.722,2.047,4.763,4.768,4.763C263.244,19.037,264.608,16.995,264.608,14.273z"/>
		</g>
	</g>
	<g>
		<g>
			<path fill="#333333" d="M165.92,14.955c0-3.402-1.363-5.445-4.764-5.445c-2.723,0-4.761,2.042-4.761,5.445
				c0,3.403,2.039,4.762,4.761,4.762C164.557,19.717,165.92,18.358,165.92,14.955z"/>
		</g>
	</g>
	<g>
		<g>
			<path fill="#333333" d="M86.971,15.633c0-3.402-2.042-4.761-5.445-4.761c-3.399,0-4.764,1.359-4.764,4.761
				c0,3.404,1.363,5.447,4.764,5.447C84.929,21.08,86.971,19.037,86.971,15.633z"/>
		</g>
	</g>
	<g>
		<g>
			<path fill="#333333" d="M56.342,52.388c0-3.402-2.041-4.765-5.445-4.765c-2.72,0-4.765,1.362-4.765,4.765
				c0,3.404,2.045,5.444,4.765,5.444C54.302,57.833,56.342,55.792,56.342,52.388z"/>
		</g>
	</g>
	<g>
		<g>
			<path fill="#333333" d="M35.924,145.629c0-3.404-2.042-4.763-5.443-4.763c-2.723,0-4.768,1.359-4.768,4.763
				c0,3.403,2.044,5.446,4.768,5.446C33.883,151.076,35.924,149.033,35.924,145.629z"/>
		</g>
	</g>
	<g>
		<g>
			<path fill="#333333" d="M36.606,225.263c0-3.404-1.361-5.448-4.767-5.448c-3.402,0-4.763,2.044-4.763,5.448
				c0,2.722,1.36,4.761,4.763,4.761C35.245,230.023,36.606,227.984,36.606,225.263z"/>
		</g>
	</g>
	<g>
		<g>
			<path fill="#333333" d="M65.191,113.643c0-3.401-2.042-4.766-4.764-4.766c-3.403,0-4.768,1.364-4.768,4.766
				c0,3.403,1.365,5.444,4.768,5.444C63.149,119.086,65.191,117.046,65.191,113.643z"/>
		</g>
	</g>
	<g>
		<g>
			<path fill="#333333" d="M44.774,108.877c0-3.402-2.044-5.444-5.447-5.444c-2.722,0-4.083,2.042-4.083,5.444
				c0,3.403,1.361,4.766,4.083,4.766C42.73,113.643,44.774,112.28,44.774,108.877z"/>
		</g>
	</g>
	<g>
		<g>
			<path fill="#333333" d="M33.883,74.849c0-3.404-2.043-4.766-5.445-4.766c-2.723,0-4.763,1.362-4.763,4.766
				c0,3.401,2.04,4.766,4.763,4.766C31.84,79.614,33.883,78.249,33.883,74.849z"/>
		</g>
	</g>
	<g>
		<g>
			<path fill="#333333" d="M206.081,19.717c0-3.402-2.051-4.762-5.452-4.762c-2.718,0-4.079,1.36-4.079,4.762
				c0,3.403,1.362,5.446,4.079,5.446C204.03,25.163,206.081,23.121,206.081,19.717z"/>
		</g>
	</g>
	<g>
		<g>
			<path fill="#333333" d="M229.899,46.261c0-3.403-2.046-4.762-5.451-4.762c-3.399,0-4.757,1.358-4.757,4.762
				c0,3.402,1.357,4.765,4.757,4.765C227.854,51.026,229.899,49.663,229.899,46.261z"/>
		</g>
	</g>
	<g>
		<g>
			<path fill="#333333" d="M91.735,51.026c0-3.402-1.362-5.443-4.764-5.443c-3.403,0-5.445,2.041-5.445,5.443
				c0,2.723,2.042,4.766,5.445,4.766C90.373,55.792,91.735,53.749,91.735,51.026z"/>
		</g>
	</g>
	<g>
		<g>
			<path fill="#333333" d="M122.363,12.912c0-3.402-1.364-4.761-4.766-4.761c-3.404,0-5.445,1.359-5.445,4.761
				c0,2.721,2.042,4.765,5.445,4.765S122.363,15.633,122.363,12.912z"/>
		</g>
	</g>
	<g>
		<g>
			<path fill="#333333" d="M64.51,13.592c0-3.403-2.043-4.765-5.447-4.765c-2.721,0-4.761,1.362-4.761,4.765
				c0,3.403,2.042,4.766,4.761,4.766C62.467,18.358,64.51,16.995,64.51,13.592z"/>
		</g>
	</g>
	<g>
		<g>
			<path fill="#333333" d="M297.276,11.552l-2.041-3.401l-3.403-1.365c-3.398,0-4.764,1.365-4.764,4.766
				c0,3.402,1.365,5.443,4.764,5.443l3.403-1.363L297.276,11.552z"/>
		</g>
	</g>
	<g>
		<g>
			<path fill="#333333" d="M336.75,13.592l-1.355-3.403c-0.685-0.679-2.725-1.362-3.402-1.362c-3.404,0-5.449,1.362-5.449,4.765
				c0,3.403,2.045,5.444,5.449,5.444l3.402-1.358L336.75,13.592z"/>
		</g>
	</g>
	<g>
		<g>
			<path fill="#858585" d="M265.286,79.614c-16.33,10.887-33.345,31.987-49.683,63.294
				c-34.029,61.935-51.046,142.927-51.046,241.616l-25.181,200.779h227.321V384.524c0-98.688-17.013-179.681-50.365-241.616
				C299.318,111.601,282.302,90.5,265.286,79.614z"/>
		</g>
	</g>
	<g>
		<g>
			<path d="M267.334,76.21c-0.685-0.682-2.726-0.682-3.403,0c-19.062,12.93-36.755,34.709-53.091,66.698
				c-32.669,61.253-49.683,142.246-49.683,241.616l-25.18,200.091v0.688l1.357,2.041c0.682,0.676,1.364,1.359,2.043,1.359h227.321
				c2.725,0,3.405-0.684,3.405-3.399v-200.78c0-99.37-17.016-180.362-49.685-241.616C304.082,110.918,285.704,89.14,267.334,76.21z
				 M212.2,156.519c15.653-32.666,34.032-57.851,53.086-73.504c19.74,15.653,38.118,40.838,53.77,73.504
				c29.952,61.255,44.241,136.802,44.241,228.003v197.374H143.461l24.501-196.691v-0.683
				C167.962,293.321,182.934,217.774,212.2,156.519z"/>
		</g>
	</g>
	<g>
		<g>
			<path d="M265.286,102.071c-1.355,0-2.042,1.361-2.042,2.722c-2.039,38.797-4.081,87.798-5.44,147.013
				c-3.404,118.42-4.081,231.404-2.727,338.263c0,2.039,1.363,2.724,2.727,2.724c2.041,0,2.723-0.686,2.723-2.724l-0.682-110.259
				c0-98.69,2.037-201.463,5.441-309.679c4.087,108.216,6.128,210.988,6.128,309.679l-0.678,110.259
				c0,2.039,0.678,2.724,2.716,2.724c1.366,0,2.044-0.686,2.044-2.724c2.047-106.858,1.363-219.157-1.354-338.263l-6.128-147.013
				C268.013,103.433,267.334,102.071,265.286,102.071z"/>
		</g>
	</g>
	<g>
		<g>
			<path d="M241.465,106.838c-0.68-2.046-1.356-2.727-3.402-2.046c-2.043,0.682-2.721,2.046-1.355,4.085l5.441,11.571
				c5.444,8.848,12.251,17.016,19.731,24.5c1.364,1.361,2.728,1.361,4.091,0c1.363-1.358,1.363-2.722-0.686-4.082
				c-7.482-6.805-13.613-14.974-18.37-23.821L241.465,106.838z"/>
		</g>
	</g>
	<g>
		<g>
			<path d="M237.384,147.674l-11.57-19.74c-1.365-2.04-2.043-2.04-3.404-0.68c-2.038,0.68-2.038,2.042-1.36,3.403l12.935,20.419
				c8.844,14.291,17.69,25.181,26.543,32.668c0.679,1.362,2.719,1.362,3.404,0c1.355-0.681,1.355-2.04,0-3.404
				C256.44,172.173,247.593,161.286,237.384,147.674z"/>
		</g>
	</g>
	<g>
		<g>
			<path d="M263.244,221.177c0.687-2.041,0.687-3.403-0.677-4.084c-14.975-12.931-27.909-26.543-38.797-41.517l-13.611-19.056
				c-0.681-1.361-2.041-2.04-3.402-0.679c-1.364,0.679-2.04,2.042-1.364,4.084l13.613,19.054
				c11.569,14.976,25.185,29.95,39.475,42.199h4.764V221.177z"/>
		</g>
	</g>
	<g>
		<g>
			<path d="M261.205,263.376c1.362-1.362,1.362-2.724,0-3.401c-13.612-10.21-27.902-25.186-44.238-44.241l-20.417-26.545
				c-0.679-1.36-2.729-1.36-4.086-0.678c-1.36,2.04-1.36,3.403,0,4.081l21.099,26.546c16.339,19.737,30.628,34.708,44.242,44.917
				L261.205,263.376z"/>
		</g>
	</g>
	<g>
		<g>
			<path d="M260.526,305.571c0.679-2.041,0.679-2.723-0.682-4.084c-18.38-14.29-36.074-31.306-53.088-51.722L186.34,223.22
				c-0.68-2.042-2.723-2.042-4.085-0.678c-2.04,0.678-2.04,2.039-0.678,3.403c0,2.041,6.805,10.885,21.1,27.222
				c17.017,20.419,35.388,38.112,54.45,52.406h3.4V305.571z"/>
		</g>
	</g>
	<g>
		<g>
			<path d="M176.129,257.93l-2.72,0.68c-0.684,1.365-0.684,2.042,0,3.403l26.542,30.626c21.098,22.459,40.156,40.157,56.488,53.769
				l3.405-0.683l0.683-2.041l-0.683-2.04c-16.331-12.253-35.396-30.627-55.815-52.41l-26.535-30.625
				C176.809,258.61,176.809,257.93,176.129,257.93z"/>
		</g>
	</g>
	<g>
		<g>
			<path d="M172.726,289.236c-0.681-1.361-2.039-2.039-3.402-0.679c-1.362,1.362-2.041,2.722-0.681,4.082l25.177,31.309
				c21.106,24.502,42.199,43.561,61.942,57.856l4.081-0.687c0.683-2.038,0.683-2.717-1.363-3.4
				c-19.733-14.294-39.475-33.351-60.569-57.173L172.726,289.236z"/>
		</g>
	</g>
	<g>
		<g>
			<path d="M162.516,320.545l-4.083-0.68c-0.68,1.362-1.357,2.722,0,4.083l31.311,36.071c24.497,25.186,46.964,44.234,66.021,55.131
				c2.04,0.686,2.718,0.686,4.08-0.686c0.682-2.035,0.682-3.401-1.363-4.081c-18.373-11.566-40.838-29.266-64.661-54.448
				L162.516,320.545z"/>
		</g>
	</g>
	<g>
		<g>
			<path fill="#FFE700" d="M265.286,104.111l9.531-22.458c3.404-14.976,0.678-22.458-9.531-22.458
				c-9.521,0-12.25,7.484-8.162,22.458C258.481,89.14,261.882,96.627,265.286,104.111z"/>
		</g>
	</g>
	<g>
		<g>
			<path d="M275.495,87.098c4.089-11.569,4.089-19.738,1.364-24.501c-2.042-4.083-5.446-6.126-11.573-6.126
				c-4.76,0-8.162,2.044-10.887,6.126c-3.403,4.764-2.726,12.932,0.678,24.501c2.727,6.805,5.449,12.934,8.167,18.377
				c0.687,1.363,1.364,1.363,2.042,1.363c2.048,0,2.727,0,2.727-1.363L275.495,87.098z M265.286,61.916
				c3.402,0,5.45,0.68,6.806,2.722l1.36,6.805c0,6.125-2.716,14.976-8.165,26.544c-4.759-11.568-7.482-20.418-7.482-26.544
				l1.359-6.805C260.526,62.597,262.567,61.916,265.286,61.916z"/>
		</g>
	</g>
	<g>
		<g>
			<path d="M163.88,364.104c-1.365-0.68-2.724-0.68-4.084,0c-1.364,1.363-1.364,3.406,0,4.09l29.947,29.257
				c23.142,21.103,44.915,37.434,66.021,49.011c2.04,0.679,2.718,0.679,4.08-0.687c0.682-2.037,0.682-3.399-1.363-3.399
				c-20.419-12.251-42.192-27.909-65.339-49.686L163.88,364.104z"/>
		</g>
	</g>
	<g>
		<g>
			<path d="M148.906,391.325c-0.684-0.681-2.722-0.681-4.083,0c-0.684,1.364-0.684,3.405,0,4.091l34.028,31.306
				c27.229,22.457,53.09,39.474,77.589,50.368c1.364,0.677,3.404,0,4.086-0.687c0-2.04,0-3.404-2.045-4.085
				c-24.5-10.211-49.002-27.227-76.227-49.678L148.906,391.325z"/>
		</g>
	</g>
	<g>
		<g>
			<path d="M138.016,417.868c-0.682-1.355-2.039-1.355-3.402,0c-2.041,1.371-2.041,2.727,0,4.09l22.462,20.417
				c17.691,14.973,32.667,26.54,46.277,34.029l3.404-0.686c1.363-2.032,0.679-3.4-0.676-4.078
				c-12.937-7.486-27.91-19.057-45.602-33.354L138.016,417.868z"/>
		</g>
	</g>
	<g>
		<g>
			<path d="M293.196,104.793c-1.364-0.681-2.728,0-3.405,2.046c-4.764,10.886-12.248,22.458-24.504,34.029
				c-0.678,2.042-0.678,3.404,0,4.082c1.364,1.361,2.726,1.361,3.403,0c12.935-12.25,21.778-24.5,26.546-36.071
				C295.235,106.838,295.235,105.475,293.196,104.793z"/>
		</g>
	</g>
	<g>
		<g>
			<path d="M308.846,127.254c-1.359-1.36-3.398-1.36-3.398,0.68c-12.937,23.143-25.188,40.158-38.11,52.406
				c-2.05,1.365-2.05,2.042,0,3.404c0.676,1.362,2.719,1.362,3.399,0c13.612-12.25,26.54-29.945,38.79-53.086
				C310.888,129.296,310.888,127.254,308.846,127.254z"/>
		</g>
	</g>
	<g>
		<g>
			<path d="M325.187,155.84c-2.049-1.36-3.402-0.682-4.09,0.679l-12.928,19.056c-12.254,14.974-25.183,28.586-39.48,41.517
				c-1.354,1.364-1.354,2.722-0.676,4.084h4.079c23.144-20.418,41.521-40.837,53.772-61.254
				C326.543,158.56,325.865,157.201,325.187,155.84z"/>
		</g>
	</g>
	<g>
		<g>
			<path d="M338.797,188.51l-4.087,0.678l-20.418,26.545c-16.331,19.056-31.306,34.032-44.237,44.241
				c-1.365,0.677-1.365,2.039,0,3.401l3.397,0.677c21.106-16.333,42.881-40.155,66.021-71.463
				C340.152,191.913,340.152,190.55,338.797,188.51z"/>
		</g>
	</g>
	<g>
		<g>
			<path d="M349.008,222.541c-2.049-1.364-2.728-1.364-3.407,0.678L324.5,249.764c-17.014,20.417-35.392,37.433-53.087,51.722
				c-1.358,1.362-1.358,2.044-0.677,4.085h4.081c18.379-14.292,36.757-31.988,54.446-52.406l20.422-27.223
				C350.362,224.58,350.362,223.219,349.008,222.541z"/>
		</g>
	</g>
	<g>
		<g>
			<path d="M357.168,258.61h-4.079c-27.902,34.711-55.128,62.618-81.675,83.037l-0.678,2.039l0.678,2.041l3.403,0.682
				c17.015-13.61,35.392-31.308,56.489-53.769l26.545-30.625C359.216,260.652,358.53,259.291,357.168,258.61z"/>
		</g>
	</g>
	<g>
		<g>
			<path d="M361.935,288.558l-3.404,0.679l-25.86,31.309c-20.418,23.823-40.837,42.879-60.578,57.173
				c-1.355,0.684-1.355,1.362-0.679,3.4l4.082,0.687c19.74-14.296,40.838-33.354,61.255-57.856l25.869-31.309
				C363.297,291.279,363.297,289.92,361.935,288.558z"/>
		</g>
	</g>
	<g>
		<g>
			<path d="M272.774,410.385c-1.362,1.362-2.039,2.047-1.362,4.081c0.68,1.371,2.728,1.371,4.082,0.686
				c19.74-10.896,40.838-29.944,66.02-55.131l31.312-36.071c0.68-0.682,0.68-2.722,0-4.084l-4.086,0.682l-31.306,35.39
				C312.929,381.119,291.832,398.818,272.774,410.385z"/>
		</g>
	</g>
	<g>
		<g>
			<path d="M271.413,445.774c0.679,1.365,2.039,1.365,3.404,0.687c21.098-11.577,43.562-27.908,67.382-49.011l29.266-29.257
				c1.361-1.37,1.361-2.727-0.687-4.09c-0.675-0.68-2.039-0.68-3.399,0l-28.582,28.586c-23.82,21.776-45.603,37.435-66.705,49.686
				C270.736,442.375,270.736,443.738,271.413,445.774z"/>
		</g>
	</g>
	<g>
		<g>
			<path d="M271.413,476.404c0,0.687,2.039,1.363,3.404,0.687c24.501-10.895,50.369-27.911,77.592-50.368l33.347-31.307
				c1.363-0.684,1.363-2.726,0-4.088c-0.678-0.684-2.041-0.684-3.402,0l-33.345,31.313c-26.55,22.451-52.409,39.467-76.917,49.677
				C270.736,472.999,270.055,474.364,271.413,476.404z"/>
		</g>
	</g>
	<g>
		<g>
			<path d="M426.59,394.047c-0.677-1.357-2.038-1.357-3.401,0l-42.876,38.12c-31.992,27.908-61.257,49.004-85.076,63.292
				c-1.361,1.365-2.04,2.048-0.676,4.084l3.4,0.683c24.498-14.297,53.764-36.071,86.432-63.975l42.197-38.115
				C427.953,397.45,427.953,395.416,426.59,394.047z"/>
		</g>
	</g>
	<g>
		<g>
			<path d="M426.59,434.884c-0.677-1.355-2.038-1.355-3.401,0l-42.876,38.115c-31.992,27.91-61.257,48.33-85.076,62.618
				c-1.361,1.357-2.04,2.725-0.676,4.08l3.4,0.677c24.498-13.608,53.764-35.383,86.432-63.284l42.197-38.118
				C427.953,437.607,427.953,436.251,426.59,434.884z"/>
		</g>
	</g>
	<g>
		<g>
			<path d="M426.59,475.719l-3.401-0.678l-42.876,38.112c-31.992,27.906-61.257,49.012-85.076,63.299
				c-1.361,1.359-2.04,2.042-0.676,3.405l3.4,1.355c24.498-14.29,53.764-35.387,86.432-63.289l42.197-38.801
				C427.953,477.767,427.953,476.404,426.59,475.719z"/>
		</g>
	</g>
	<g>
		<g>
			<path fill="#858585" d="M246.23,386.563c-70.102,25.867-139.525,79.632-208.944,158.586l161.985,140.2
				c68.741-78.945,111.616-155.182,127.271-228.68c5.448-23.143,7.488-44.24,6.127-63.302l-2.728-22.458
				C308.846,368.193,280.944,373.63,246.23,386.563z"/>
		</g>
	</g>
	<g>
		<g>
			<path d="M35.245,547.868l4.765-0.684c63.976-73.499,127.953-123.866,193.972-151.769c35.391-14.982,66.695-22.463,93.922-21.103
				l1.36,25.862c0,33.353-6.806,69.422-22.456,108.896c-21.781,56.494-59.215,115.026-110.258,174.231l-0.679,2.047l0.679,2.726
				l5.44-0.685c68.746-78.953,110.938-155.178,127.952-228.004c5.452-23.138,7.492-44.237,6.808-64.657l-3.403-24.505
				c0-2.032-0.677-2.716-2.04-2.716c-23.82-2.722-53.084,3.4-88.479,16.326c-70.101,27.228-138.842,79.64-207.583,159.267
				C33.883,545.15,33.883,545.827,35.245,547.868z"/>
		</g>
	</g>
	<g>
		<g>
			<path d="M314.978,388.612c-1.364-0.686-2.726-0.686-4.089,0l-87.795,93.915C152.991,557.391,88.331,630.902,28.438,702.366
				c-1.36,2.042-0.679,2.725,0.68,4.078l3.403-0.677c74.869-89.156,157.221-181.038,245.701-274.965
				c-78.271,99.366-157.221,193.296-237.531,282.451l-1.362,1.361c0,1.362,0.681,2.04,1.362,2.719c1.358,1.372,2.722,1.372,4.085,0
				c61.931-69.414,125.229-144.282,191.245-223.915l79.636-100.729C316.333,391.325,315.656,389.289,314.978,388.612z"/>
		</g>
	</g>
	<g>
		<g>
			<path d="M290.469,372.275c-2.037-0.679-2.717,0-3.4,2.038l-3.405,12.929c-2.039,10.895-2.719,21.786-2.039,34.03
				c0,1.37,1.362,2.047,3.402,2.047l2.726-2.723c-1.363-11.567-0.685-21.776,0.68-32.668l3.399-12.252
				C292.511,374.313,291.832,373.63,290.469,372.275z"/>
		</g>
	</g>
	<g>
		<g>
			<path d="M262.567,379.082c-1.362-0.679-2.723,0-3.404,2.038l-4.086,24.507c-2.041,18.372-3.403,33.346-1.354,45.593l2.718,2.048
				c1.364,0,2.042-0.684,2.042-2.725c-0.678-11.57-0.678-25.869,2.046-44.236l4.081-23.823
				C264.608,381.119,264.608,379.082,262.567,379.082z"/>
		</g>
	</g>
	<g>
		<g>
			<path d="M229.899,391.325c-2.046,0-2.724,0-3.4,2.044l-2.729,25.184c-0.677,20.419,0,40.835,3.405,61.257
				c0,1.361,0.678,2.718,2.724,2.718c1.357-0.679,2.719-2.036,2.042-3.403c-2.726-19.734-3.401-40.152-2.042-60.57l2.042-23.822
				C232.618,392.689,231.257,391.325,229.899,391.325z"/>
		</g>
	</g>
	<g>
		<g>
			<path d="M189.743,414.466c-2.04,0-3.403,0.686-3.403,2.724l-1.363,35.394c0,27.226,1.363,50.36,4.767,67.374
				c0,1.372,0.681,2.049,3.399,2.049c1.365-0.678,2.044-2.049,2.044-3.404c-3.403-17.016-5.443-38.793-4.763-65.335l2.04-35.4
				C192.464,415.837,191.104,415.151,189.743,414.466z"/>
		</g>
	</g>
	<g>
		<g>
			<path d="M164.557,428.078c-2.041-0.679-2.72,0-3.4,2.046l-2.041,36.071c-0.684,28.587,2.041,55.812,6.804,79.631l1.363,2.042
				l2.041,0.684c2.042-0.684,2.722-2.046,2.042-3.401c-5.446-24.505-6.809-50.368-6.809-78.954l2.044-35.393
				C166.601,428.76,165.92,428.078,164.557,428.078z"/>
		</g>
	</g>
	<g>
		<g>
			<path d="M132.571,450.542c-2.044,0-3.404,1.354-3.404,2.725l0.684,42.87c1.358,31.997,4.08,59.222,7.483,81.674
				c0.682,1.37,2.043,2.047,3.405,2.047c2.042,0,2.042-1.364,2.042-3.405c-3.403-21.093-6.804-48.318-7.488-80.314l-0.68-42.87
				C134.613,451.896,133.931,450.542,132.571,450.542z"/>
		</g>
	</g>
	<g>
		<g>
			<path d="M107.391,471.64c-2.043,0-2.725,0.679-2.725,2.046l-1.36,44.237c0,33.346,3.4,62.613,8.849,88.481
				c0.68,1.355,2.041,2.034,3.404,2.034c2.042-0.679,2.721-2.034,2.042-3.403c-5.445-25.177-8.849-54.448-8.849-87.111l1.361-43.56
				C110.111,472.999,109.433,472.318,107.391,471.64z"/>
		</g>
	</g>
	<g>
		<g>
			<path d="M77.442,490.017c-1.365,0-2.722,0.684-2.722,2.717v49.691c2.041,38.112,6.805,68.061,14.97,90.521
				c0.68,1.362,1.364,2.044,3.404,1.362c1.361-0.682,2.043-1.362,1.361-3.404c-7.486-21.78-12.249-51.721-14.294-88.479v-49.691
				C80.162,490.7,79.482,490.017,77.442,490.017z"/>
		</g>
	</g>
	<g>
		<g>
			<path fill="#FFE700" d="M314.292,389.289c7.491-2.725,14.972-6.806,21.103-10.886c12.926-8.178,15.651-16.338,8.164-22.467
				c-7.485-6.125-14.293-2.724-21.1,10.888C319.056,374.313,315.656,381.119,314.292,389.289z"/>
		</g>
	</g>
	<g>
		<g>
			<path d="M349.686,364.789c0.677-4.089-0.678-7.49-4.085-10.895c-4.086-3.401-7.487-4.083-12.255-3.401
				c-5.442,1.362-10.888,8.169-15.65,19.732c-2.04,3.404-3.403,9.531-6.121,18.385l0.678,2.715l2.725,0.688
				C336.75,383.837,348.32,374.313,349.686,364.789z M344.92,363.424v0.68c-1.362,6.808-10.21,13.615-26.541,20.421
				c4.758-17.015,10.885-26.544,17.016-28.588c1.355-0.68,4.079,0,6.12,2.044L344.92,363.424z"/>
		</g>
	</g>
	<g>
		<g>
			<path d="M50.897,528.134c0-1.368-1.359-2.727-2.72-2.046c-2.045,0-2.723,0.678-2.723,2.724l3.4,43.56
				c4.083,34.034,10.209,61.937,19.06,85.757c0.681,2.04,2.04,2.725,3.402,1.355c2.042,0,2.042-1.355,1.361-3.403
				c-8.167-23.135-14.971-51.045-18.376-84.387L50.897,528.134z"/>
		</g>
	</g>
	<g>
		<g>
			<path d="M334.71,411.064c-1.364-2.037-2.04-2.722-3.403-1.358c-11.569,6.131-25.859,9.532-44.238,10.21
				c-2.042,0.679-2.042,2.042-2.042,3.402c0,2.039,0.678,2.723,2.726,2.039c18.37-0.685,34.031-4.086,45.594-10.892
				C335.395,413.107,335.395,412.431,334.71,411.064z"/>
		</g>
	</g>
	<g>
		<g>
			<path d="M258.481,455.986c0.682,1.361,2.045,2.719,3.398,2.719c19.743-1.357,42.201-6.121,68.062-16.33
				c2.049-0.688,2.728-2.043,2.049-3.402c-0.686-2.042-2.049-2.722-3.404-1.365c-25.867,9.532-48.328,14.977-67.381,14.977
				C259.845,452.584,258.481,453.947,258.481,455.986z"/>
		</g>
	</g>
	<g>
		<g>
			<path d="M233.983,486.614c0,1.362,1.36,2.719,3.4,2.719c32.671,0,61.254-4.759,85.074-12.929c2.042,0,2.728-1.363,2.042-3.404
				c-0.677-1.359-2.042-2.036-3.403-1.359c-23.82,8.169-51.723,11.569-83.713,11.569
				C235.342,483.209,233.983,484.573,233.983,486.614z"/>
		</g>
	</g>
	<g>
		<g>
			<path d="M206.081,521.329c0,2.034,0.676,2.718,2.717,2.718c27.91,1.36,61.938-2.04,102.091-11.572
				c1.363-0.679,2.041-1.356,1.363-2.726c0-2.031-1.363-2.718-3.405-2.031l-34.028,6.806l-66.021,4.079
				C206.757,518.603,206.081,519.958,206.081,521.329z"/>
		</g>
	</g>
	<g>
		<g>
			<path d="M177.494,555.359c0,2.031,1.357,2.716,2.721,2.716l80.312-4.083l34.71-7.486c2.041-0.679,2.725-1.355,2.725-2.724
				c-0.685-2.035-2.046-2.723-3.4-2.035l-35.396,6.805l-78.948,4.082C178.851,552.633,178.171,553.991,177.494,555.359z"/>
		</g>
	</g>
	<g>
		<g>
			<path fill="#858585" d="M79.482,275.625l-16.333-14.974c-18.375,11.572-36.072,34.03-53.769,66.699
				c-35.392,66.019-53.767,151.772-53.767,257.264h213.71c0-105.491-17.698-191.246-53.087-257.265
				C105.348,306.935,93.096,289.92,79.482,275.625z"/>
		</g>
	</g>
	<g>
		<g>
			<path d="M64.51,257.249c-1.361-0.677-2.043-0.677-3.403,0c-19.736,13.612-38.794,37.433-56.492,70.102
				c-34.708,66.019-52.404,151.772-52.404,257.264c0,2.048,1.359,3.404,3.403,3.404c2.722,0,3.405-1.357,3.405-3.404
				c0-97.315,15.652-178.31,46.278-242.293c17.697-35.387,36.752-61.251,57.853-77.586c20.418,16.335,39.476,42.199,56.493,77.588
				c31.305,63.983,46.279,144.977,46.279,242.292c0,2.048,1.363,3.404,3.404,3.404c2.722,0,3.402-1.357,3.402-3.404
				c0-105.491-17.695-191.246-52.407-257.264c-11.57-20.417-23.139-38.115-36.751-53.089L64.51,257.249z"/>
		</g>
	</g>
	<g>
		<g>
			<path d="M63.149,284.473c-2.042,0-3.402,0.682-3.402,2.043l-5.444,128.636c-3.404,102.772-4.083,200.092-2.043,294.022
				c0,1.354,0.68,2.722,2.723,2.722c1.362,0,2.724-1.368,2.724-2.722l-1.362-95.962c0-91.205,2.043-181.731,6.805-272.928
				c3.406,98.688,6.126,189.885,6.126,272.928l-1.36,95.962c0,1.354,1.36,2.722,2.724,2.722c2.041,0,2.72-1.368,2.72-2.722
				c1.364-92.563,1.364-191.251-2.042-294.022l-5.447-128.636C65.191,285.154,64.51,284.473,63.149,284.473z"/>
		</g>
	</g>
	<g>
		<g>
			<path d="M37.287,289.236c-1.362-1.361-2.042-2.039-3.403-1.361c-2.043,0.683-2.721,2.045-2.043,4.084l6.128,11.571
				c6.125,9.527,12.93,18.375,21.095,26.544c1.364,1.362,2.728,1.362,4.085,0c1.361-0.682,1.361-2.724,0-3.405
				c-8.167-8.168-14.972-17.014-20.418-25.858L37.287,289.236z"/>
		</g>
	</g>
	<g>
		<g>
			<path d="M20.954,312.377c-0.681-2.042-2.045-2.042-4.084-1.358c-2.046,1.358-2.046,2.04-1.363,4.08l13.613,21.779
				c9.526,14.976,19.058,26.546,27.905,34.718c2.039,0.679,2.722,0.679,4.083,0c1.36-0.686,1.36-2.727,0-4.087
				c-8.848-7.489-18.376-19.738-28.585-34.032L20.954,312.377z"/>
		</g>
	</g>
	<g>
		<g>
			<path d="M3.938,343.004c-0.679-2.04-2.726-2.04-3.403-1.357c-2.042,1.357-2.724,2.039-1.362,4.079l14.293,20.419
				c12.25,15.661,26.544,31.306,42.194,44.92l4.087-0.68c1.36-1.357,1.36-2.042,0-4.078c-15.654-12.938-29.266-27.225-41.519-42.883
				L3.938,343.004z"/>
		</g>
	</g>
	<g>
		<g>
			<path d="M57.707,452.584c-13.614-10.897-29.269-26.542-46.285-46.957l-22.459-27.908l-3.403-0.686
				c-1.361,0.686-1.361,2.049-0.681,4.086l22.465,27.908c17.013,20.418,33.348,36.747,46.958,46.959h3.405
				C59.747,453.947,59.747,452.584,57.707,452.584z"/>
		</g>
	</g>
	<g>
		<g>
			<path d="M56.342,496.138c-19.056-14.967-38.114-33.347-56.489-54.451l-21.781-28.579c-0.682-1.361-2.04-1.361-3.401-0.677
				c-2.041,0.677-2.041,2.035-0.682,3.405l21.779,29.256c19.055,21.788,38.114,40.836,57.169,55.817
				c2.044,0.677,3.405,0.677,4.085-0.685C57.707,498.864,57.707,497.509,56.342,496.138z"/>
		</g>
	</g>
	<g>
		<g>
			<path d="M56.342,543.104c1.364-1.357,1.364-2.729,0-4.08c-17.697-14.294-37.433-32.676-58.531-55.814l-28.586-32.667h-4.083
				c-0.68,1.354-0.68,2.725,0,4.079l28.588,31.993c21.777,23.821,41.515,42.875,59.21,57.167L56.342,543.104z"/>
		</g>
	</g>
	<g>
		<g>
			<path d="M56.342,580.536c0.682-1.355,0.682-2.725-0.683-4.084c-21.094-14.287-42.194-34.706-64.658-59.896l-26.54-33.348h-4.085
				c-1.358,0.688-1.358,1.364-0.678,3.405l27.224,33.343c21.776,25.869,44.24,45.609,65.334,61.256L56.342,580.536z"/>
		</g>
	</g>
	<g>
		<g>
			<path d="M56.342,615.243c0.682-1.353,0-2.719-1.361-4.082c-19.737-11.564-42.878-29.947-68.739-57.169l-32.672-37.435h-4.082
				c-2.044,0.683-2.044,2.046-0.68,3.4l33.349,37.433c26.543,27.225,49.682,46.968,70.102,59.221
				C54.302,617.291,54.981,616.611,56.342,615.243z"/>
		</g>
	</g>
	<g>
		<g>
			<path fill="#FFE700" d="M63.149,285.836c3.403-8.17,6.805-15.654,8.167-22.459c4.085-14.975,1.361-23.143-8.167-23.143
				c-10.209,0-13.611,8.167-8.847,23.143C56.342,270.182,59.063,277.665,63.149,285.836z"/>
		</g>
	</g>
	<g>
		<g>
			<path d="M63.149,238.194c-5.442,0-9.527,1.362-11.568,4.764c-2.726,5.443-2.726,13.613,1.359,25.862l6.807,17.696
				c1.36,1.36,2.044,2.042,3.402,2.042l2.042-2.042c10.886-20.417,13.613-34.711,8.166-43.558
				C71.316,239.556,67.914,238.194,63.149,238.194z M56.342,246.361c1.364-2.045,3.404-3.404,6.807-3.404
				c2.721,0,4.767,1.359,6.125,3.404l0.68,6.125c0,7.489-2.039,16.333-6.805,26.542c-5.442-10.209-8.167-19.054-8.167-26.542
				L56.342,246.361z"/>
		</g>
	</g>
	<g>
		<g>
			<path d="M56.342,648.596c0.682-1.354,0-2.722-0.683-3.4c-21.776-12.25-44.916-29.951-70.1-51.724l-31.308-30.629h-3.403
				c-1.36,1.357-1.36,2.726-0.681,4.081l31.989,29.948c25.186,23.146,48.326,40.159,70.782,53.087L56.342,648.596z"/>
		</g>
	</g>
	<g>
		<g>
			<path d="M91.735,287.875c-1.362-0.678-2.72,0-3.404,1.361c-4.763,12.252-13.609,24.504-25.864,37.433
				c-1.36,0.683-1.36,2.724,0,3.406c1.365,1.362,2.725,1.362,4.085,0c12.93-12.934,21.778-25.862,27.224-38.116
				C93.776,289.92,93.776,289.236,91.735,287.875z"/>
		</g>
	</g>
	<g>
		<g>
			<path d="M108.749,311.019c-2.043-0.684-3.401-0.684-4.083,1.358c-12.932,24.501-26.541,42.2-40.155,55.133
				c-1.361,1.361-1.361,3.401,0,4.087c1.358,0.679,2.722,0.679,3.403,0c14.294-13.616,28.583-31.995,41.518-56.496
				C110.791,313.059,110.111,312.377,108.749,311.019z"/>
		</g>
	</g>
	<g>
		<g>
			<path d="M125.083,341.646c-1.359-0.681-2.72-0.681-3.399,1.359l-14.293,20.418c-12.252,15.658-25.865,29.945-41.521,42.883
				c-1.358,2.037-1.358,2.721,0,4.078l4.084,0.68c24.503-21.775,43.56-43.555,55.813-65.338
				C127.124,343.686,127.124,343.004,125.083,341.646z"/>
		</g>
	</g>
	<g>
		<g>
			<path d="M139.377,377.033l-3.401,0.686c-23.825,32.666-46.284,57.849-68.061,74.865c-1.363,0.684-1.363,1.363-0.682,3.402h4.083
				c13.612-10.212,29.265-26.541,46.962-46.959l22.461-27.909C141.418,379.082,141.418,377.719,139.377,377.033z"/>
		</g>
	</g>
	<g>
		<g>
			<path d="M150.947,412.431c-1.359-0.685-2.723-0.685-3.403,0.677l-21.776,28.579c-18.377,21.104-37.437,39.483-57.172,54.451
				c-1.364,1.371-1.364,2.727-0.68,4.088c1.359,1.361,2.039,1.361,4.085,0.684c19.734-14.98,38.79-34.029,57.167-55.816
				l22.46-29.256C152.991,414.466,152.991,413.107,150.947,412.431z"/>
		</g>
	</g>
	<g>
		<g>
			<path d="M159.796,450.542h-3.4c-30.628,36.757-59.214,66.015-87.121,88.481c-1.359,1.352-1.359,2.723,0,4.08l3.403,0.678
				c27.903-22.452,57.174-52.404,87.119-89.159C161.157,452.584,161.157,451.896,159.796,450.542z"/>
		</g>
	</g>
	<g>
		<g>
			<path d="M165.239,483.209c-2.041-1.361-3.402-1.361-4.083,0l-26.543,33.348c-22.46,25.189-44.242,45.608-64.659,59.896
				c-2.04,1.359-2.04,2.729-0.681,4.084l4.085,0.677c21.099-15.646,42.88-35.387,64.658-61.256l27.223-33.343
				C166.601,484.573,165.92,483.896,165.239,483.209z"/>
		</g>
	</g>
	<g>
		<g>
			<path d="M169.324,524.047l-4.083,0.683c-35.389,41.516-67.38,70.782-95.287,86.432c-1.358,1.364-2.039,2.729-0.68,4.082
				c0.68,1.369,2.042,2.048,4.083,1.369c29.267-17.699,61.256-46.963,95.967-88.479
				C171.366,526.766,171.366,524.729,169.324,524.047z"/>
		</g>
	</g>
	<g>
		<g>
			<path d="M171.366,566.245c-1.362-0.678-2.042-0.678-3.404,0c-34.031,35.387-66.698,61.253-98.008,78.949
				c-1.358,0.679-2.039,2.046-0.68,3.4c0.68,2.048,2.042,2.726,3.403,1.363c32.67-19.056,66.019-44.924,98.689-79.632
				C172.726,568.971,172.726,567.602,171.366,566.245z"/>
		</g>
	</g>
	<g>
		<g>
			<path fill="#E61F19" d="M93.096,74.167c-4.765,42.879-4.765,92.562,1.362,148.374c12.248,113.657,44.919,204.182,99.363,274.283
				l134.767-5.447c-57.174-66.703-93.928-157.219-109.58-269.518c-8.167-56.492-10.21-106.174-6.807-149.053L93.096,74.167z"/>
		</g>
	</g>
	<g>
		<g>
			<path d="M214.24,70.764l-2.041-1.36l-119.104,1.36c-2.041,0-3.403,0.681-3.403,2.721c-4.763,44.24-4.763,94.607,2.042,151.096
				c12.251,113.663,45.599,204.865,100.048,273.607c0.681,1.355,1.361,2.039,2.038,2.039l135.444-5.443l2.727-2.049l-0.686-3.4
				c-55.812-66.015-91.881-155.175-108.213-266.791c-8.166-55.813-10.893-105.495-7.49-149.057L214.24,70.764z M208.798,76.21
				l-1.362,29.945c0,58.533,6.127,115.704,19.063,171.51c19.055,85.758,51.043,155.864,95.959,210.311l-126.588,5.442
				c-39.476-51.044-67.384-113.662-84.398-189.889c-11.57-52.407-17.695-108.215-17.695-167.429c0-22.458,0-42.199,2.043-58.531
				L208.798,76.21z"/>
		</g>
	</g>
	<g>
		<g>
			<path d="M157.752,113.643c0-1.362-1.357-1.362-3.403-1.362l-25.182,4.084l-13.609-0.68c-2.043,0-3.406,0-3.406,2.04
				c0,2.045,0,2.724,2.042,3.405l14.974,0.681l27.228-4.763C158.432,117.046,158.432,115.685,157.752,113.643z"/>
		</g>
	</g>
	<g>
		<g>
			<path d="M135.977,95.948c-1.363-0.681-2.724,0.679-3.404,2.04l-2.722,33.349c0,24.502,5.442,43.56,16.333,59.212
				c0.681,1.364,2.038,1.364,3.402,0.682c1.36-0.682,2.042-2.043,0.683-4.084c-9.53-13.612-14.976-32.667-14.976-56.49l2.723-31.308
				C138.696,97.306,138.016,96.627,135.977,95.948z"/>
		</g>
	</g>
	<g>
		<g>
			<path d="M152.991,129.296c-1.363-0.682-2.044,0-3.403,1.361l-5.446,16.334c-6.806,2.722-11.568,6.125-15.653,9.527
				c-9.529,8.848-14.973,16.334-14.973,22.458l0.679,2.727c0,2.04,2.045,3.401,5.447,4.08c8.846,1.363,18.374-10.208,28.583-34.709
				l22.463-0.681c5.443,2.723,8.847,6.125,9.527,10.891c1.362,5.443-1.363,11.568-7.488,19.737l-16.332,19.737l-3.405,2.042
				c-4.767,6.127-6.805,11.571-5.447,14.974c2.044,4.767,5.447,6.806,12.252,6.806c2.042,0,2.722-0.68,2.722-2.039
				c0-2.046-0.679-3.405-2.722-3.405c-4.083,0-6.805-1.362-7.488-3.403c-0.679-1.362,0.684-4.084,5.445-8.167l2.043-3.403
				l19.055-21.1c6.125-8.844,8.168-16.333,7.489-23.139c-1.363-6.125-6.126-10.89-13.613-14.293l-21.779-1.358l4.083-11.572v-1.362
				L152.991,129.296z M118.959,178.978c0-4.081,4.765-10.887,13.613-17.692l8.167-6.127c-8.167,17.696-14.972,26.546-20.42,25.182
				h-1.36V178.978z"/>
		</g>
	</g>
	<g>
		<g>
			<path d="M174.767,270.182c4.084-5.446,6.127-10.207,6.809-16.336c0.678-7.484-2.724-14.29-10.21-17.692h-19.739
				c-3.403,2.721-6.805,6.124-8.847,10.209c-2.72,4.762-3.403,8.847-3.403,12.249c0,2.723,2.041,4.766,5.445,6.125l6.805-0.682
				c4.768-3.402,8.168-11.567,10.21-24.498v-0.682c2.043-0.68,4.083,0,6.806,1.36c5.446,3.404,7.488,8.167,7.488,13.612
				c-0.682,4.765-2.721,8.167-6.125,12.934c-2.722,4.082-6.806,6.807-10.21,8.846c-1.362,0-2.042,1.363-1.362,3.403
				c0,1.363,1.362,1.363,3.403,1.363C166.601,279.028,171.366,274.944,174.767,270.182z M147.544,248.4
				c2.043-2.722,4.083-5.443,7.487-6.805l0.681-1.362c-0.681,10.889-3.404,17.014-6.805,19.742h-2.721l-1.361-2.726v-0.677
				C144.823,254.525,146.184,251.805,147.544,248.4z"/>
		</g>
	</g>
	<g>
		<g>
			<path d="M168.643,292.64c-0.681-2.038-2.723-2.038-4.086-2.038l-1.358,2.722v1.358c5.444,11.572,9.527,21.781,11.568,31.308
				c-12.25,0.68-19.736,3.403-21.776,7.489v3.401c0,2.723,1.358,4.767,5.443,7.489c3.403,2.041,7.486,2.722,12.253,2.722
				c5.443,0.682,8.846-0.681,10.889-3.403l1.359-5.442l-1.359-7.489h4.084c8.848,0.682,13.611,2.724,14.291,4.087v1.357
				c0,2.045-1.362,4.766-6.131,6.806c-0.678,0.682-1.356,1.364-1.356,2.043v1.361c0.679,1.362,1.356,2.045,3.407,1.362
				c7.481-2.044,10.886-6.805,10.208-14.292c-0.687-3.403-6.129-6.127-15.657-6.809l-10.208-0.681
				C178.171,316.462,174.089,305.571,168.643,292.64z M177.494,338.243l-0.685,2.041l-6.805,1.362c-4.083,0-6.805-0.681-8.847-2.045
				l-2.723-2.724v-0.68c1.362-2.721,6.807-4.762,17.697-4.762L177.494,338.243z"/>
		</g>
	</g>
	<g>
		<g>
			<path d="M187.703,297.406c-1.365-1.362-2.043-2.043-3.406-1.362l-15.655,3.403c-2.042,0-2.724,0.683-2.724,2.722
				c0,1.361,0.682,2.044,2.724,2.044c7.487,0,14.292-1.363,17.696-3.401C188.378,299.447,189.058,298.766,187.703,297.406z"/>
		</g>
	</g>
	<g>
		<g>
			<path d="M220.371,387.927l-6.809-5.443c-5.442-1.364-13.612-0.678-25.185,4.08l10.211-22.46l0.683-0.68l-1.36-2.043
				c-1.363-0.682-2.04-0.682-3.403,0c-5.45,4.085-11.574,6.128-18.379,4.085c-1.364-0.678-3.403,0-3.403,2.043
				c0,1.36,0,2.717,2.041,3.401h4.767l10.89-2.041l-10.89,22.456l-0.683,0.687l0.683,2.719h3.399
				c4.086-2.042,8.85-3.405,13.614-5.441l15.651-1.363l2.727,2.719c1.362,1.368,0.677,3.402-1.365,5.449
				c-2.04,3.402-6.806,6.127-13.611,8.847l-16.334,3.401c-0.684,0-2.043,0.686-2.043,1.363c-1.36,1.358-1.36,2.041-0.68,2.725
				l22.458,40.836c4.084,7.485,10.21,12.929,17.019,17.015h21.095c6.127-2.725,9.528-11.577,10.894-27.907l0.677-27.224
				c0-1.364-1.364-2.044-2.718-2.044c-0.685,0-2.047,0-2.047,1.358l-0.68,1.371c0,10.886,0,20.414-0.677,29.938
				c-2.047,11.573-4.088,18.38-7.492,20.421l-17.015-1.363c-6.119-2.725-10.887-8.162-14.288-14.29l-19.74-36.755l17.014-4.759
				c6.807-2.722,10.896-6.128,13.612-9.531l2.043-7.484L220.371,387.927z"/>
		</g>
	</g>
</g>
<path id="PATH77" fill="none" stroke="#000000" stroke-width="3" stroke-miterlimit="100" d="M370.59,585.26H3.92V2.74h366.67
	V585.26L370.59,585.26z"/>
</svg>
