<?xml version="1.0" encoding="utf-8"?>
<!-- Generator: Adobe Illustrator 13.0.0, SVG Export Plug-In . SVG Version: 6.00 Build 14948)  -->
<!DOCTYPE svg PUBLIC "-//W3C//DTD SVG 1.1//EN" "http://www.w3.org/Graphics/SVG/1.1/DTD/svg11.dtd">
<svg version="1.1" id="圖層_1" xmlns="http://www.w3.org/2000/svg" xmlns:xlink="http://www.w3.org/1999/xlink" x="0px" y="0px"
	 width="372px" height="587px" viewBox="0 0 372 587" enable-background="new 0 0 372 587" xml:space="preserve">
<g>
	<g>
		<g>
			<path fill="#FFE000" d="M149.968,429.01l-6.612,17.195c-3.306,7.936-5.292,16.529-6.612,23.806
				c-1.985,8.588-1.985,15.866,0,23.144l2.645,7.93c-9.256-3.966-19.174-5.29-29.092-3.966c-6.611,1.316-14.547,3.966-23.142,8.594
				l-11.241,5.947l12.562,14.555c4.629,6.611,10.58,11.895,16.53,14.541c7.274,2.647,13.885,3.964,21.821,3.964l9.256-1.976
				l-5.95,3.307c-5.292,3.964-9.918,9.917-13.885,16.529c-3.968,7.27-4.63,16.529-2.644,27.104
				c0.661,5.953,1.981,10.577,3.306,14.541c1.982-3.307,7.932-5.946,15.868-9.253c9.255-3.971,15.206-7.275,18.512-9.251
				c3.968-3.973,7.936-9.26,11.242-15.873l5.288-9.259v8.602c1.324,7.271,1.986,12.559,4.63,16.53
				c2.644,5.946,10.58,13.224,23.803,21.811c0-4.623,2.646-11.234,7.933-20.493c5.293-9.259,7.938-15.872,7.938-19.178
				l-3.307-16.529l-3.308-8.588l9.919,3.307l21.159-0.666c5.95-1.98,15.206-9.918,25.786-23.806l14.543-19.836l-20.493-5.948
				l-24.466-6.61l-25.786,2.642l-10.579,4.636l1.98-9.26c1.326-7.271,0-15.212-3.965-23.799
				c-3.967-7.942-11.901-16.53-24.463-24.473L149.968,429.01z"/>
		</g>
	</g>
	<g>
		<g>
			<path d="M151.949,425.703l-3.305,0.666l-1.983,1.324l-4.63,14.54c-4.625,9.259-7.273,18.519-8.594,27.112l-1.323,12.56
				c0,3.972,0,8.601,1.323,13.888l-24.465-1.981c-6.612,1.317-13.886,3.966-23.142,8.596c-6.612,3.305-10.58,5.945-11.9,7.275
				c-1.323,0-1.323,1.317-1.323,1.977l1.323,3.306l9.256,9.918c6.612,9.261,13.224,15.214,20.498,18.521l19.174,4.622
				c-3.968,4.636-7.274,8.602-9.256,13.224c-3.307,4.638-4.63,11.248-4.63,19.178c0,8.601,1.323,17.188,4.63,25.129l2.644,1.978
				c1.982,0,2.644-0.658,3.305-1.317c1.982-1.987,7.274-5.295,15.868-8.601c9.256-3.964,14.548-7.271,17.854-9.917
				c3.968-3.308,7.932-8.588,11.9-15.2c0.662,5.283,1.986,10.577,3.968,14.542c3.306,6.611,11.9,13.881,25.785,23.141h3.307
				l1.324-2.646c0-4.623,2.645-10.576,7.934-19.835c4.63-8.588,7.936-15.2,7.936-19.836l0,0c0-5.281-1.324-11.234-3.968-19.17
				c9.256,2.641,17.854,2.641,25.785,0c11.241-3.308,25.128-18.514,42.978-45.618v-3.308l-2.645-1.329l-19.176-5.281l-26.445-7.276
				c-10.579-1.981-21.159-0.666-31.077,3.97v-6.61c0-6.612-1.319-13.89-4.627-20.501c-3.305-9.253-11.902-17.854-25.126-26.447
				L151.949,425.703z M147.981,444.223l4.63-11.24c20.498,10.583,33.059,21.158,37.689,32.394c2.646,5.953,4.625,11.906,4.625,17.86
				c0,5.945-0.659,9.918-2.643,11.894v0.664l0.661,3.307h3.968l10.577-4.629l23.803-1.981c7.273,1.323,15.869,3.305,24.466,7.275
				l15.868,3.967c-15.206,22.481-27.109,35.706-36.365,39.012h-19.175l-8.597-2.646l-3.965,0.658l-1.324,1.988l0.662,1.976
				l2.644,7.941l3.308,15.2l0,0c0,3.306-2.646,8.602-6.612,16.528c-3.968,6.612-6.611,13.225-7.935,17.861
				c-11.24-7.941-17.188-13.89-19.175-17.861c-2.644-5.946-3.968-13.224-3.968-23.142v-0.658c0-1.316-1.32-2.646-2.644-3.306
				c-1.982-0.658-2.644,0.659-3.967,1.988l-4.627,8.588c-3.968,6.611-7.274,11.906-10.58,14.555l-16.53,8.587
				c-4.63,1.989-9.917,4.636-13.886,7.942c-1.982-6.612-3.306-12.565-3.306-18.52s1.324-11.234,3.306-15.872
				c3.968-6.609,7.936-11.894,12.562-15.198l5.291-3.306h0.663c1.32,0,1.982-1.331,1.982-3.307v-0.666
				c-0.662-1.98-1.324-2.641-3.968-2.641l0,0c-9.918,3.307-19.173,3.307-29.091-1.329c-6.612-3.308-12.562-8.589-17.192-16.529
				l-7.932-8.589c11.238-7.277,21.156-11.247,29.091-12.564c9.918-0.659,19.174,0,28.43,3.308l3.305-0.659l0.663-1.988V499.1
				c-3.306-3.971-3.968-9.918-3.968-17.193l0.662-11.896C141.37,462.734,143.355,453.481,147.981,444.223z"/>
		</g>
	</g>
	<g>
		<g>
			<path d="M161.206,449.512c-0.659-1.981-1.982-1.981-2.644-1.981l-1.983,1.981v0.664l7.933,25.783l9.917,47.606l-23.142,23.8
				c-13.224,15.213-22.479,26.446-26.447,35.049v0.658l0.662,1.315c1.324,1.332,2.644,1.332,3.306-0.658
				c3.307-7.929,13.223-19.836,27.771-35.707l21.156-21.811l0.662-1.99c-1.982-12.563-5.288-28.43-9.917-48.264L161.206,449.512z"/>
		</g>
	</g>
	<g>
		<g>
			<path d="M100.378,516.295c-1.985,0-2.644,0-2.644,1.317c0,1.987,0.659,1.987,1.982,1.987l76.698,6.612l22.48-3.971l48.926-5.947
				l1.984-1.989l-1.984-1.98l-49.59,5.945l-22.479,4.637L100.378,516.295z"/>
		</g>
	</g>
	<g>
		<g>
			<path d="M178.397,523.565c0-0.659-1.32-1.323-2.644-0.659c-1.324,0-1.983,0.659-0.662,1.976l5.95,18.521
				c3.968,14.541,7.273,27.104,8.598,37.682l2.645,1.989l1.982-1.989l-9.918-38.341L178.397,523.565z"/>
		</g>
	</g>
	<g>
		<g>
			<path fill="#FFE000" d="M278.236,71.31l-7.272,6.612c-5.289-15.206-9.919-25.124-15.868-31.736l-16.529-11.241l-14.547-9.259
				l-1.983,17.194c-0.66,12.559-1.322,21.159,0,25.783c1.323,7.277,5.29,13.889,11.241,18.519h-27.108l-17.19,9.259
				c-7.273,4.623-11.899,7.271-13.886,7.271l9.256,7.929l17.853,13.889c4.63,2.641,11.241,3.305,19.835,1.982l11.242-2.647
				c-3.967,1.989-7.937,3.971-11.242,6.612c-9.256,5.294-14.546,11.906-16.529,18.518c-1.322,5.954-2.645,15.206-2.645,27.106
				l-0.661,23.8l45.622-27.765c7.936-6.612,13.223-13.225,14.548-21.16l0.661,9.918c1.32,7.935,3.965,13.224,8.595,17.194
				c6.61,5.947,22.479,15.2,46.282,27.106c2.645-23.8,1.982-42.318-2.645-55.542c-2.646-8.595-6.611-15.206-10.58-21.153
				l-6.611-5.954l14.547-6.611c10.576-5.954,16.53-11.242,19.175-17.853c3.968-9.918,7.934-25.125,10.58-44.96
				c-21.821,0.659-37.688,3.306-46.944,6.612L278.236,71.31z"/>
		</g>
	</g>
	<g>
		<g>
			<path d="M344.355,52.798l-2.646-1.982c-21.819,0.658-37.688,3.306-46.944,7.271c-7.937,3.306-15.867,7.935-22.479,14.547
				c-4.63-13.224-9.917-23.142-14.547-28.43c-3.97-3.964-10.579-8.6-20.498-13.882l-11.238-7.278l-3.306-0.665
				c-0.663,0.665-1.323,1.33-1.985,2.647l-1.319,12.565l-1.324,21.818l0.662,9.918c0.662,4.629,3.305,9.253,6.61,13.889
				l-19.836,0.659c-3.967,0.659-10.58,3.965-19.174,9.918l-10.579,6.611c-1.324,0-3.306,0-3.306,1.982
				c-0.662,1.324-0.662,2.642,0,3.306l9.918,8.595l18.512,13.223c3.306,2.647,7.937,3.965,15.209,3.965
				c-7.272,5.294-11.903,11.248-13.886,17.194c-1.323,6.612-2.645,15.207-2.645,26.448v11.242l-0.66,13.224v1.317l0.66,2.647h3.307
				l19.173-10.577l27.108-17.854l11.239-10.583c1.323,7.277,4.63,13.224,8.597,17.195c7.273,6.612,22.48,15.206,47.604,27.771
				l3.307-0.659l1.323-2.648l0.66-23.141c0-14.547-0.66-25.789-3.967-33.06c-3.308-10.576-7.273-19.177-13.225-25.789
				c16.53-5.953,26.447-13.882,29.753-23.8c4.632-9.917,7.938-25.789,10.58-45.624l0.662-0.659L344.355,52.798z M280.221,73.958
				l16.528-9.918c7.936-3.305,21.821-5.294,41.657-5.953c-3.969,19.835-7.274,33.718-9.918,39.671
				c-1.986,5.954-7.937,11.242-17.191,16.53l-13.887,5.953c-1.32,0-1.98,1.317-1.98,2.647l-0.664,0.659l1.983,1.983l5.291,6.612
				c4.626,5.288,7.933,11.9,9.919,19.835c2.643,6.612,3.306,16.53,3.306,30.418l-0.663,18.506
				c-22.479-11.235-36.365-19.836-40.994-24.459c-5.287-4.629-7.933-12.565-7.933-22.483v-1.982c0-1.323-0.661-2.641-3.305-3.306
				c-1.325,0-3.308,1.324-3.308,3.306c-1.322,6.612-5.291,12.559-13.224,17.853l-40.334,25.125l0.662-19.836
				c0-10.583,1.321-18.512,2.646-24.465c1.981-5.288,6.611-11.235,15.205-16.53c3.969-2.647,7.937-5.289,11.242-6.612
				c1.323-0.658,1.981-1.317,1.981-3.306v-0.659c-1.32-1.988-1.981-2.647-4.627-1.988l-13.224,2.647
				c-7.272,1.324-11.902,0-15.209-1.982c-7.934-4.629-15.207-10.583-22.479-17.853l8.598-5.288
				c8.595-5.289,13.882-7.936,17.188-8.594h25.126c1.981,0.658,2.646,0,3.307-1.324l0.662-1.982l-1.323-2.647
				c-5.287-3.964-8.595-9.918-9.919-16.529l-0.661-8.595c0-5.946,0.661-15.206,1.985-27.771l7.271,3.964
				c9.26,5.294,15.209,9.917,18.516,13.224c5.289,5.294,9.919,15.212,15.206,30.418l2.644,1.982c1.325,0.659,1.986,0,2.648-0.658
				L280.221,73.958z"/>
		</g>
	</g>
	<g>
		<g>
			<path d="M308.652,185.036l-36.365-68.101c-2.645-8.601-9.917-21.824-19.836-39.671l-15.209-26.447
				c-1.32-1.324-1.98-1.324-3.307,0c-1.32,0-1.32,0.658,0,1.982l14.549,25.124c10.578,18.518,17.189,32.4,20.496,40.33
				l36.364,68.766c0.662,1.324,1.983,1.989,2.646,1.324C308.652,187.018,309.314,186.36,308.652,185.036z"/>
		</g>
	</g>
	<g>
		<g>
			<path d="M325.844,70.652h-2.647c-5.287,6.612-15.205,15.871-29.091,27.106l-23.805,17.854
				c-15.205-7.277-32.396-11.9-50.908-13.889l-23.143-0.659c-1.324,0-1.984,0.659-1.984,2.648l1.984,1.317l23.143,0.665
				c18.512,1.982,35.703,6.612,50.908,13.889l1.325-0.666l23.14-16.53c15.869-12.558,26.449-21.817,31.736-29.753
				C327.165,71.969,327.165,71.31,325.844,70.652z"/>
		</g>
	</g>
	<g>
		<g>
			<path d="M271.626,118.917l0.661-2.641c-0.661-0.665-1.986-0.665-3.307,0l-26.446,25.782
				c-16.53,17.853-26.448,30.418-27.772,37.03c-0.66,0.659,0,1.976,0.663,2.641c1.323,0,2.644,0,2.644-1.982
				c1.324-5.953,11.242-17.853,28.435-35.707L271.626,118.917z"/>
		</g>
	</g>
	<g>
		<g>
			<path fill="#858585" d="M395.927,48.169l-21.816,3.306c-11.242,0.659-19.175,1.989-23.806,3.306
				c-5.948,2.647-11.235,6.612-15.866,12.565l-6.611,8.594c-0.661-11.242-4.631-21.818-12.563-31.736l-20.499-25.789L282.205,4.533
				l-3.969,23.8l-3.967,29.095c-1.32,11.235,1.983,23.8,9.256,39.012c-5.95-1.988-15.868-0.665-29.754,2.642
				c-8.595,2.64-18.512,7.276-29.754,14.547l-15.205,9.917c3.307,0,10.58,3.307,23.803,9.918c13.225,6.612,22.479,9.918,28.43,9.918
				c9.919,1.317,20.498,0,30.416-4.63l-5.288,7.936c-4.63,7.271-7.937,16.53-11.241,27.106c-2.645,11.241-2.645,24.465,1.981,41.66
				c1.323,7.929,3.968,15.199,6.612,21.153c1.324-2.647,9.26-11.235,23.141-25.124c13.226-13.224,21.16-23.142,23.805-28.43
				c3.967-9.259,5.95-23.142,6.611-40.995l7.272,7.936c5.949,5.289,11.242,8.594,16.529,9.917
				c8.595,1.317,21.818-1.323,40.996-9.258c-2.646-1.983-5.954-6.612-9.26-13.225l-12.563-18.512
				c-4.626-5.288-9.919-9.917-15.868-13.224l-8.594-1.982l8.594-4.629l15.206-13.224C385.351,78.581,390.64,66.022,395.927,48.169z"
				/>
		</g>
	</g>
	<g>
		<g>
			<path d="M405.186,151.312v-0.659l-1.321-1.983c-1.982-1.982-5.288-6.612-8.596-13.223l-12.564-19.171
				c-5.288-5.954-11.238-10.583-18.512-13.889c7.936-3.971,13.885-8.594,18.512-14.547c5.292-7.271,11.242-20.494,16.53-39.013
				v-0.659l-0.658-2.647l-3.308-0.659l-21.158,3.306l-25.125,3.964c-7.273,2.647-13.224,7.942-19.177,15.872
				c-1.981-9.918-5.949-18.512-11.899-26.448L297.41,16.433L284.85,1.886l-3.307-0.659c-1.322,0-2.645,1.317-2.645,3.306
				l-3.306,23.142c-2.645,11.235-3.968,21.818-4.63,29.754l-0.663,3.964c0,9.259,2.648,19.835,7.937,31.077l-25.123,3.971
				c-8.598,2.642-18.516,7.271-30.415,13.882l-15.21,10.577c-1.982,1.324-1.982,2.647-1.32,3.964l3.307,1.989
				c1.982,0,8.594,3.306,19.174,8.594c15.207,7.276,25.785,11.241,31.735,11.241l23.144-1.989c-4.627,8.601-8.596,17.86-11.9,28.437
				c-0.662,5.288-1.325,11.234-1.325,17.188c0,15.871,3.308,31.077,9.919,47.606l3.307,1.982l3.305-1.982
				c1.325-2.64,7.936-9.917,19.178-21.818c15.867-15.871,25.124-26.447,27.106-31.077c3.307-8.594,5.292-19.836,6.611-35.042
				c6.611,6.612,13.225,11.235,20.497,12.565c9.257,1.317,23.144-0.665,42.315-8.601L405.186,151.312z M374.109,54.781l17.19-1.982
				c-5.291,15.865-10.58,26.448-13.886,31.077c-3.306,4.623-7.936,8.594-14.548,11.9l-8.594,4.629c-1.323,0-1.982,1.317-1.982,3.307
				l0,0l2.645,3.306l7.933,1.983c5.953,3.305,10.58,6.611,14.548,11.241c3.306,3.964,7.274,9.918,11.9,18.512l6.61,10.583
				c-16.528,5.947-27.105,8.587-34.38,7.271c-4.629-1.324-9.256-4.63-15.209-9.26l-6.611-7.27c-1.319-1.324-1.981-1.324-3.965-1.324
				c-1.323,0-1.985,1.324-1.985,3.306l-1.32,14.548c-1.323,11.9-2.646,19.835-5.29,25.124c-1.983,3.971-9.919,13.889-25.786,29.753
				l-17.191,18.512c-5.287-16.53-7.273-29.753-7.273-40.33c0-4.629,0.662-9.918,1.322-14.547c3.308-9.918,6.613-18.512,10.58-26.448
				l5.289-7.935l0.66-1.983l-0.66-1.982c-1.319-1.323-2.645-1.323-3.969-1.323c-9.916,4.629-19.836,5.947-29.092,4.629
				c-5.287,0-14.543-3.965-29.091-11.242l-15.206-6.611c15.206-9.918,27.768-16.53,38.348-19.836
				c12.563-3.305,21.817-3.971,27.109-2.641l3.305-0.665l1.32-2.642l-0.657-1.33c-5.952-12.559-9.26-23.801-9.26-33.718l0.662-3.306
				l3.968-29.754l3.307-16.529l27.771,33.718c4.627,5.953,7.934,12.565,9.919,20.5l1.981,10.583c0,1.317,0.661,2.641,2.646,2.641
				c1.323,0.665,3.306,0,3.967-1.324l5.289-7.929c4.629-5.954,9.917-9.918,15.209-11.906L374.109,54.781z"/>
		</g>
	</g>
	<g>
		<g>
			<path d="M294.766,39.575c-0.66-1.324-1.322-1.324-3.305-1.324l-0.662,2.647l0,0l7.938,23.8
				c7.271,17.854,13.884,33.718,19.835,46.283c-7.273,39.013-17.191,70.749-29.093,97.196v1.324l1.32,1.317
				c0.662,0.665,1.986,0,2.645-1.317c11.902-27.106,21.821-59.507,29.753-98.52v-0.659c-6.61-13.224-13.224-28.436-20.492-46.283
				L294.766,39.575z"/>
		</g>
	</g>
	<g>
		<g>
			<path d="M377.415,64.698c-1.323-1.317-1.981-1.982-3.306-0.659c-7.272,5.289-18.513,13.224-33.061,26.448L319.892,109
				l-52.233,8.594l-27.109,3.306c-1.98,0-1.98,1.324-1.98,2.647l0,0l1.98,1.983l27.771-3.306l52.896-9.253l0.66-0.665l20.499-18.512
				c15.206-12.565,26.446-21.159,33.718-26.447C377.415,66.688,377.415,66.022,377.415,64.698z"/>
		</g>
	</g>
	<g>
		<g>
			<path d="M321.875,109c-0.66-0.666-1.322,0-2.643,1.323c-1.324,0.659-0.662,1.317,0.658,1.982l19.835,11.9l40.333,22.483
				c0.661,0.658,1.985,0,2.645-0.659c0-0.665,0-1.989-0.658-2.647l-40.334-22.483L321.875,109z"/>
		</g>
	</g>
	<g>
		<g>
			<path fill="#D96038" d="M196.25,459.428l-20.497,9.919l26.447,19.835c10.579,9.253,19.835,13.891,27.11,14.55
				c12.561,1.315,25.785-1.989,41.652-9.92l-5.289,9.92c-3.968,7.928-7.273,15.869-9.255,22.481
				c-3.308,11.895-1.985,27.105,3.306,48.259l17.188-13.225c10.58-6.611,17.191-13.224,21.158-19.171
				c5.291-5.946,9.258-14.547,12.563-23.806l3.967-13.225l1.983,10.582c1.985,7.277,5.29,13.89,10.58,19.171
				c3.967,4.638,12.562,8.603,23.14,11.906l15.21,2.646c-2.646-3.971-2.646-11.247-1.983-22.482
				c1.322-10.575,0.661-18.519-0.663-23.14c-1.982-5.297-5.287-11.907-10.576-18.521l-7.273-8.588
				c13.224-3.306,24.462-9.258,32.397-16.529c8.595-7.276,17.854-24.472,27.771-50.254c-3.305,0.665-11.239,0.665-24.465,0
				l-28.43,0.665c-7.273,1.976-13.885,5.946-21.159,12.559l-9.917,9.919c0.66-14.549-3.307-26.448-9.918-33.726l-33.061-35.7
				l-5.949,24.465c-3.307,11.9-5.291,21.818-5.291,29.754c-1.321,15.87,0.661,26.447,4.63,31.736l-39.672-1.981
				C223.359,448.846,211.457,452.816,196.25,459.428z"/>
		</g>
	</g>
	<g>
		<g>
			<path d="M195.589,456.123c-9.918,3.971-16.53,7.936-21.159,9.918c-1.321,0.665-1.321,1.324-1.321,3.306
				c-0.662,0.664,0,1.323,1.321,2.642l14.546,11.248c9.256,7.271,15.869,12.558,19.836,15.198
				c7.937,4.638,14.547,7.942,20.498,8.602c9.256,1.316,21.154-0.658,34.381-5.952c-4.627,7.27-7.934,15.212-10.577,24.464
				c-1.323,4.63-1.323,9.253-1.323,13.891c0,11.234,1.323,23.142,5.288,35.699l1.985,2.643c1.319,0,2.644,0,3.307-1.978
				c1.32-0.665,4.626-3.307,11.236-7.941c14.549-9.917,23.143-17.848,27.771-23.802c5.287-7.929,9.256-15.869,12.563-25.787
				c1.984,6.61,5.292,13.224,10.58,18.519c7.935,9.26,21.816,14.541,40.332,15.87l2.645-1.329l1.323-1.978l-0.661-1.329
				c-1.322-2.642-1.985-5.947-1.985-9.917l1.323-23.144l-1.323-12.558c-3.307-7.937-8.594-15.865-15.206-23.809
				c11.899-3.964,21.818-9.252,28.431-15.863c8.598-7.937,17.853-25.123,29.095-52.229v-0.665l-1.323-2.642l-3.306-0.665
				c-2.646,0.665-9.918,0.665-21.818,0l-31.077,0.665c-8.594,2.642-17.191,8.588-26.446,17.848
				c-1.325-11.898-4.629-21.818-10.58-27.766l-33.061-36.365c-0.66-0.664-1.98-0.664-3.306-0.664c-1.981,0-2.644,1.323-2.644,2.641
				l-4.631,20.5c-4.627,13.889-6.611,25.125-6.611,34.385l-0.658,5.286c0,7.938,1.32,15.866,2.645,22.478l-33.722-1.316
				C222.698,445.539,210.795,449.512,195.589,456.123z M193.605,478.599l-11.24-9.252c22.479-10.583,39.01-17.194,49.589-18.513
				l39.01,1.982c0.662,0,1.985,0,3.306-1.324l0.662-1.98l-0.662-1.981c-3.306-3.965-4.627-11.907-4.627-24.468l0.658-5.287
				c0-7.936,1.986-18.519,6.612-31.74l3.968-15.866l27.771,31.078c6.611,7.271,9.256,17.847,9.256,31.735
				c0,1.98,0.662,3.306,2.645,3.306c1.322,0.665,3.307,0,3.968-0.665l8.595-9.919c7.272-6.61,13.887-10.576,19.836-11.894
				l29.095-0.664h17.851c-9.256,23.142-17.191,37.688-24.462,44.301c-7.937,7.271-17.854,12.563-31.077,16.528
				c-1.324,0-1.981,1.318-2.646,1.983v0.664l1.32,2.641l6.612,7.937c4.63,6.611,7.937,12.564,9.917,17.848l1.323,9.917v11.249
				l-1.323,11.895l1.323,7.941c-15.205-2.646-25.784-7.276-31.734-13.225c-4.63-4.636-7.274-11.247-9.259-17.86l-1.982-9.917
				c0-1.976-1.323-3.306-3.308-3.306c-1.981,0-3.305,0.665-3.305,3.306l-3.968,11.906c-3.308,9.26-7.273,16.529-11.899,23.143
				c-3.969,5.953-12.563,13.224-25.129,22.482l-8.594,5.281c-2.645-11.895-3.307-21.153-3.307-28.423c0-4.638,0-9.261,1.324-11.907
				c1.981-7.271,5.289-14.541,8.594-22.482l5.289-9.254l0.662-1.98l-0.662-1.988l-4.627-0.659
				c-14.547,7.937-27.771,10.577-38.351,9.26c-5.289-0.658-11.899-3.307-18.512-7.936C208.15,489.847,202.2,485.877,193.605,478.599
				z"/>
		</g>
	</g>
	<g>
		<g>
			<path d="M267.657,553.318l1.323,1.981c1.319,0.665,1.982,0,2.646-0.665l36.364-79.342v-1.318
				c-0.661-7.935-3.968-24.464-11.241-50.247l-11.239-37.693c-0.66-1.317-0.66-1.978-2.643-1.317l-1.324,1.98l0,0l10.58,37.03
				c7.272,25.783,11.239,42.313,11.898,50.247l-35.703,78.685L267.657,553.318z"/>
		</g>
	</g>
	<g>
		<g>
			<path d="M201.539,473.976c0,1.318,0.661,1.983,1.984,1.983l34.381-2.642l67.44,3.306l1.983-0.664
				c33.721-19.836,60.168-37.03,80.004-50.256c1.323-0.657,1.323-1.976,0-2.642l-1.982-0.662l-49.589,31.082l-30.416,19.171
				l-68.104-3.307l-34.38,2.642C201.539,471.987,201.539,472.652,201.539,473.976z"/>
		</g>
	</g>
	<g>
		<g>
			<path d="M307.99,472.652c-1.324-0.665-2.646-0.665-3.307,0c-0.661,1.322-0.661,2.642,0,3.307l16.53,19.17
				c12.562,13.889,21.816,26.448,27.109,36.365c0,1.33,1.319,1.33,2.644,1.33c1.323-1.33,1.323-1.988,0.662-3.307
				c-5.292-9.918-14.548-22.482-27.109-37.029L307.99,472.652z"/>
		</g>
	</g>
	<g>
		<g>
			<path fill="#D96038" d="M100.378-26.544l-10.58,13.223L73.931,2.544c-5.291,5.954-9.917,15.213-11.903,25.789L59.383,42.88
				c-8.594-9.252-18.512-17.194-31.074-21.817c-7.274-3.306-17.854-3.965-31.739-3.306l-17.192,3.306
				c2.647,1.981,5.954,9.918,9.259,21.817C-7.398,54.122-3.43,62.051,2.52,66.022C13.1,73.958,25.002,78.581,38.227,80.57
				c-9.259,0-19.836,3.306-31.077,8.594c-10.58,5.288-20.498,14.547-29.092,27.112l17.191,7.27
				c9.256,3.307,16.53,5.288,23.142,3.965c10.577-0.658,19.836-5.288,29.091-12.564l-4.629,7.941
				c-3.968,7.271-6.612,15.2-8.594,24.459c-1.986,9.26-1.324,19.836,2.644,31.077l5.951,14.548l16.529-17.854l19.174-21.159
				c5.292-7.929,7.274-20.495,6.612-36.365l1.985,11.241c1.982,7.936,5.95,13.889,10.58,17.854c7.932,6.612,17.85,11.9,32.397,16.53
				v-16.53l-0.662-21.159c-0.662-6.612-3.968-13.224-8.594-19.171l-7.273-7.942l13.224,0.666c10.58,0,19.173-1.983,27.109-5.289
				c7.932-3.964,17.188-11.907,27.768-24.465l13.223-17.854l-23.802-3.306l-27.106-5.289l-27.109,1.982l-11.903,3.965
				c7.274-9.918,10.579-20.495,9.917-31.729C114.922,5.191,109.634-8.691,100.378-26.544z"/>
		</g>
	</g>
	<g>
		<g>
			<path d="M97.072-27.867L85.169-13.321L71.945,0.568c-7.932,8.588-12.562,20.495-14.544,35.036
				c-9.918-7.93-18.515-13.882-27.771-17.847c-11.899-5.295-29.753-5.295-50.91,0l-2.647,1.982v1.324l0.662,1.981
				c2.644,1.983,5.291,7.937,7.936,17.195l5.288,15.865c2.644,5.288,6.612,9.917,10.58,13.224
				c5.95,3.971,13.223,7.936,22.479,10.583c-7.274,1.317-13.224,3.964-17.192,5.947c-11.238,5.947-21.155,15.206-30.411,28.43
				l-0.662,1.988l0.662,1.317l1.981,1.989l11.242,3.964c12.562,6.612,22.48,8.595,29.753,7.271
				c6.612-0.659,13.224-2.647,19.836-6.612c-2.647,6.612-5.292,13.883-7.274,22.483l-1.324,10.576
				c0,12.565,3.968,25.789,11.241,37.689l1.983,1.323l3.305-1.323l13.224-15.207c11.242-9.918,17.854-17.853,22.48-24.465
				c2.647-3.971,4.63-9.917,5.291-17.854l8.595,11.907c7.936,7.271,19.173,12.559,33.059,17.188l3.307-1.324l1.323-1.982
				l-0.662-6.612l0.662-21.159l-0.662-10.583c-0.661-7.929-4.63-15.199-10.579-22.477c12.562,0.666,23.803-1.324,33.721-5.947
				c12.562-5.953,26.448-20.5,42.315-42.977V49.49c-0.662-0.665-1.982-1.324-3.308-1.324l-25.785-3.965l-24.465-4.629
				c-11.239-0.666-21.818,0-32.397,3.306c3.968-7.935,5.95-16.529,5.95-25.124V16.43c0-11.9-5.95-26.447-15.206-44.3
				c-0.662-0.659-1.324-1.983-2.644-1.983C99.055-29.85,98.393-28.526,97.072-27.867z M89.137-8.032l10.58-11.9
				c7.273,15.865,11.9,28.43,11.9,37.03v0.659c0,10.576-2.644,19.835-9.256,29.095l-0.662,1.976l0.662,1.989
				c1.324,1.982,2.644,1.982,3.968,0.658l11.9-3.306l25.127-1.982l24.462,4.63l21.159,3.306
				c-13.885,19.835-26.447,31.736-36.365,36.366c-7.273,3.306-15.868,5.288-25.785,5.288h-11.904c-1.982-0.665-3.306,0-3.964,1.324
				l-0.662,1.317l1.321,2.647l7.273,7.271c3.968,5.295,6.612,11.907,7.274,17.195l0.662,10.583l-0.662,22.477
				c-11.242-3.971-20.498-8.594-25.786-14.547c-4.629-3.306-7.936-8.594-9.917-16.53l-1.986-10.576
				c-0.659-1.324-1.982-2.647-3.964-2.647c-1.986,0-2.647,1.323-2.647,3.306v5.953c0,13.224-2.645,23.142-5.95,28.43l-21.156,23.142
				l-10.579,11.9c-5.292-10.576-7.936-20.494-7.936-29.753l1.324-9.259c1.982-9.253,4.625-16.529,7.932-23.8l3.968-7.27l1.323-1.988
				l-1.323-2.642H45.5c-9.256,6.612-17.85,11.241-27.768,12.559c-6.612,0.666-15.209-1.317-25.786-7.27l-8.598-3.306
				C-8.056,103.711,0.539,96.44,9.133,92.469c9.917-5.288,19.835-8.594,29.095-8.594c2.644,0,3.306-1.324,3.306-3.306l0,0
				c0-1.989-0.662-3.306-2.647-3.306c-12.562-1.989-24.462-6.612-34.38-13.224C-0.785,59.41-5.412,50.816-8.718,38.251
				c-1.985-5.953-4.629-10.577-6.611-15.207c18.512-3.97,33.06-3.305,42.977,1.324c11.238,4.623,21.156,11.235,29.753,20.494
				c0.662,1.324,1.982,1.324,3.306,1.324l1.982-3.306l2.644-13.889c1.985-10.576,5.954-18.505,11.242-24.459L89.137-8.032z"/>
		</g>
	</g>
	<g>
		<g>
			<path d="M97.072,2.544l-1.985,1.989l-1.32-1.989L75.251,83.875l-12.562,33.718c-8.594,23.8-13.224,40.995-15.207,52.236
				l1.321,2.647l1.985-1.989c1.982-10.577,7.933-28.43,15.868-52.236l12.562-33.059L97.072,2.544z"/>
		</g>
	</g>
	<g>
		<g>
			<path d="M174.43,62.051c-0.659-1.317-1.982-1.317-2.645-1.317C146,68.005,113.603,75.94,76.575,82.552
				c-29.092,11.9-54.877,21.16-77.36,26.448l-1.32,1.981c0,1.324,1.32,1.988,1.982,1.324c22.48-5.288,48.269-13.223,77.36-25.783
				c37.686-7.276,69.424-14.554,95.21-21.824C174.43,64.04,174.43,63.381,174.43,62.051z"/>
		</g>
	</g>
	<g>
		<g>
			<path d="M120.214,144.041c-12.562-22.483-26.447-42.978-41.657-60.824C60.707,68.005,34.26,50.816,1.2,30.981h-2.644
				c-0.662,1.317-0.662,1.981,0.659,3.305C32.936,54.122,58.063,71.31,75.913,85.858c14.548,17.854,29.092,37.688,40.995,60.831
				c0.662,0.658,1.982,1.317,3.306,0C120.875,146.688,121.534,145.365,120.214,144.041z"/>
		</g>
	</g>
	<g>
		<g>
			<path fill="#858585" d="M126.826,211.483l-1.324-23.142l-42.977,27.771c-7.273,5.289-12.562,11.9-15.868,20.495
				c-1.324,4.63-2.644,7.935-2.644,11.241c-5.291-7.277-11.904-15.206-20.498-23.142c-4.629-5.288-13.886-11.242-27.109-17.195
				l-17.192-7.929c1.324,5.288,1.985,15.206,0.662,31.736c-0.662,15.865,0,26.447,3.306,33.059
				c2.644,6.612,9.256,13.223,17.853,17.854l13.224,5.953l-29.754,0.658c-9.917,1.982-23.803,9.917-40.333,23.143
				c1.982,0.658,9.255,4.621,21.16,11.898c10.576,7.277,19.173,10.584,26.447,11.241c12.562,1.983,24.462-1.323,37.686-7.935v9.252
				c0,7.276,1.323,15.213,3.306,23.808c2.644,7.935,9.256,17.192,19.836,26.446l15.868,12.56c0-4.623,2.647-11.235,8.597-21.153
				c5.289-9.259,7.933-17.853,7.933-23.799c0-7.277-1.32-15.213-5.288-22.484l-5.95-7.936l13.224,4.631l24.462,5.287
				c5.954,0,15.871-5.287,29.753-15.863l17.853-15.871l-17.853-13.225c-8.594-5.953-15.206-9.918-21.818-12.564l-23.804-3.307
				l-11.899,1.324c5.288-4.629,11.899-13.224,17.85-25.124C125.502,241.237,126.826,228.678,126.826,211.483z"/>
		</g>
	</g>
	<g>
		<g>
			<path d="M130.132,213.465l-1.324-25.124l-1.982-3.306l-3.306,0.665l-42.977,27.764c-9.918,6.612-15.209,15.871-18.516,26.448
				l-15.868-17.847c-5.288-5.954-14.544-11.248-27.109-17.195l-19.174-7.936l-3.306,0.659l-0.662,1.989v1.317
				c0.662,2.647,1.324,7.276,1.324,13.888l-0.662,29.088c0,9.259,0.662,16.53,3.306,21.824c3.306,6.613,9.256,13.224,18.515,18.513
				l-15.209,1.322c-9.918,2.648-23.804,9.918-40.992,23.801l-1.324,2.647v1.316l1.982,1.987l15.871,8.595
				c13.883,9.253,24.462,13.891,32.398,14.549c11.239,1.316,22.479-0.658,35.041-5.955c0,8.602,1.324,17.854,3.307,28.438
				c2.644,9.253,9.256,18.506,19.835,28.423l17.192,13.226h3.306l1.982-3.307c0-4.623,1.986-9.919,7.274-18.506
				c5.95-10.583,9.256-19.836,9.256-26.446v-0.665c0-7.937-1.982-15.865-5.95-23.143c11.242,3.972,20.498,6.611,29.091,6.611
				c6.612,0,16.529-5.289,29.753-15.207l20.498-17.854l0.662-2.641l-1.324-2.647l-13.224-8.601
				c-11.9-9.252-21.156-14.54-27.768-17.188c-7.935-2.647-16.53-3.964-27.771-3.306l11.903-19.178
				C128.146,242.561,130.132,229.996,130.132,213.465z M122.197,193.63l1.323,19.835c0,15.871-1.323,27.106-5.292,34.383
				c-5.95,11.242-11.238,19.171-16.53,23.142l-1.32,3.306v1.324c1.32,1.317,1.982,1.981,3.968,1.981l11.238-1.322
				c8.598-0.659,16.531,0.658,22.48,2.646c5.292,1.982,13.885,7.27,25.127,15.871l10.58,7.931
				c-20.497,18.517-35.044,27.771-42.318,27.771l-23.141-5.288L95.75,320.58c-1.982-0.666-3.306,0-3.968,1.322l-1.32,1.981
				l1.32,1.982l5.292,7.936c3.306,6.612,4.626,13.224,4.626,19.837v0.665c0,5.946-2.644,13.224-8.594,23.14
				c-3.306,5.947-5.95,10.578-7.273,16.529c-16.53-13.223-26.448-24.472-29.754-34.388c-1.981-9.917-3.306-19.171-3.306-27.767
				v-4.629l0,0l-1.982-2.642l-3.306-0.665c-11.903,6.612-24.465,9.918-35.703,7.936c-6.613-0.657-16.53-4.629-29.095-13.224
				l-11.9-7.27c14.548-10.583,25.786-17.194,34.382-19.177l27.769-0.659c2.644,0.659,3.967,0,4.63-1.989v-1.316
				c0-1.332-1.324-2.648-2.645-2.648l-11.903-5.953c-8.594-4.622-13.885-10.576-17.192-17.188
				c-1.981-3.965-2.644-9.918-2.644-18.519V204.87c19.174,7.936,31.077,15.206,37.688,21.818
				c8.595,7.935,15.206,15.871,19.836,23.142l3.968,1.324l2.644-2.641c0-2.646,1.321-6.612,2.645-10.583
				c2.644-7.935,7.935-14.547,13.885-18.512L122.197,193.63z"/>
		</g>
	</g>
	<g>
		<g>
			<path d="M112.94,209.501c-0.662,0-1.982,0-2.645,1.317l-16.529,32.4l-28.433,54.884c-27.768,9.918-53.553,13.885-78.681,12.56
				c-0.662,0-1.32,0-1.32,1.325l1.32,2.646c16.53,0.657,35.045-0.666,55.539-5.295l25.127-7.929l1.321-0.665l29.095-54.877
				l15.868-33.06C114.264,211.483,113.603,210.16,112.94,209.501z"/>
		</g>
	</g>
	<g>
		<g>
			<path d="M17.73,224.707c-1.324-1.324-1.986-1.324-2.645,0c-1.324,1.324-1.985,1.324-0.662,2.641l17.85,21.824
				c12.565,17.188,23.803,34.376,33.06,51.572l1.324,1.322l84.63,3.307c1.324,0.658,1.986,0,1.986-1.324l0,0l-1.324-2.64
				l-50.909-2.648l-33.06-0.657c-8.597-17.194-20.498-34.39-33.721-52.236L17.73,224.707z"/>
		</g>
	</g>
	<g>
		<g>
			<path d="M68.64,299.42c0-1.316-1.321-1.982-2.645-1.316c-1.32,0-1.982,1.316-1.32,2.642l5.95,25.123l8.594,48.272
				c0,0.657,1.324,1.976,2.645,1.976l1.323-2.642l-9.256-48.925L68.64,299.42z"/>
		</g>
	</g>
</g>
<path id="PATH77" fill="none" stroke="#000000" stroke-width="3" stroke-miterlimit="100" d="M370.59,585.26H3.92V2.74h366.67
	V585.26L370.59,585.26z"/>
</svg>
