<?xml version="1.0" encoding="utf-8"?>
<!-- Generator: Adobe Illustrator 13.0.0, SVG Export Plug-In . SVG Version: 6.00 Build 14948)  -->
<!DOCTYPE svg PUBLIC "-//W3C//DTD SVG 1.1//EN" "http://www.w3.org/Graphics/SVG/1.1/DTD/svg11.dtd">
<svg version="1.1" id="圖層_1" xmlns="http://www.w3.org/2000/svg" xmlns:xlink="http://www.w3.org/1999/xlink" x="0px" y="0px"
	 width="372px" height="587px" viewBox="0 0 372 587" enable-background="new 0 0 372 587" xml:space="preserve">
<path id="PATH77" fill="none" stroke="#000000" stroke-width="3" stroke-miterlimit="100" d="M370.59,585.26H3.92V2.74h366.67
	V585.26L370.59,585.26z"/>
<g>
	<g>
		<g>
			<path d="M47.47,325.576c0-1.983-1.977-3.297-4.616-3.297c-1.977,0-3.296,1.971-3.296,3.953v0.657
				c6.593,46.15,19.779,87.69,39.558,123.289c-15.826-13.85-30.988-31.646-46.151-52.744l-17.802-27.691l-2.633-1.977h-2.64
				c-2.64,1.977-2.64,3.297-1.977,5.93l24.396,36.262c19.115,26.371,39.557,46.15,59.336,60.662l5.273-0.663
				c1.32-1.977,1.32-3.297,0-5.273c-5.936-8.575-13.186-21.762-19.778-37.58C61.976,394.802,52.743,361.174,47.47,325.576z"/>
		</g>
	</g>
	<g>
		<g>
			<path d="M13.186,431.72c-1.977-0.657-3.297-0.657-5.273,1.313c-0.663,1.982-0.663,3.959,1.977,5.279
				c23.732,14.499,51.424,25.052,83.068,32.308h3.296l1.32-2.64c0.664-1.983,0-3.953-2.633-4.616
				C63.953,456.108,36.918,444.905,13.186,431.72z"/>
		</g>
	</g>
	<g>
		<g>
			<path d="M114.056,537.863c0-1.313-1.32-1.978-2.633-1.978c-35.604,8.57-67.249,16.482-96.26,25.053
				c-1.977,0-1.977,1.319-1.977,3.296c0.657,1.32,1.977,1.983,3.296,1.32l95.597-24.396
				C114.056,541.159,114.719,539.846,114.056,537.863z"/>
		</g>
	</g>
	<g>
		<g>
			<path d="M36.918,496.992c-0.657-1.983-1.977-1.983-3.954,0c-0.656,0.656-0.656,1.97,0,3.296
				c11.866,11.203,25.052,22.412,40.214,32.965l19.779,12.522c1.32,0,2.64,0,3.959-1.977c0.657-1.319,0-1.982-1.977-3.296
				L76.475,528.63C61.313,518.084,48.127,507.538,36.918,496.992z"/>
		</g>
	</g>
	<g>
		<g>
			<path d="M292.729,204.92c0.656-3.296,0-5.273-2.64-6.593c-9.89-4.61-20.436-10.546-32.965-19.122
				c-23.732-17.796-43.511-37.575-59.337-60.65c-0.656-0.657-1.319-1.32-2.64-1.32h-3.953c-2.64,1.977-3.296,4.616-1.319,7.256
				c16.482,23.732,36.924,44.824,61.313,62.633c12.529,9.226,24.396,15.819,34.948,19.779
				C288.769,208.874,290.745,207.56,292.729,204.92z"/>
		</g>
	</g>
	<g>
		<g>
			<path fill="#858585" d="M369.203,233.275l-5.936-17.146L319.1,252.391c-35.604,27.035-65.929,49.447-92.964,65.266L134.498,370.4
				l-18.465-1.313L96.254,370.4c-1.313,0.663-2.633,5.936-4.61,15.169l-3.296,14.499c0.657,1.982,25.708,15.825,75.819,40.221
				c53.4,25.708,83.068,42.19,89.661,48.127c15.826,13.186,18.459,29.012,7.25,47.47c-85.708-38.894-140.428-61.969-164.16-68.563
				l-5.273,6.594l67.243,29.668c46.813,21.092,74.505,34.935,82.411,42.19c8.576,6.593,15.169,15.163,19.122,25.709l4.617,13.849
				h104.166l-5.936-42.19c-6.593-30.995-15.163-53.407-26.372-67.256c-10.546-14.499-41.534-32.965-90.98-56.696l-71.859-30.981
				l30.981-17.809c20.442-13.843,31.651-25.046,32.308-32.302C296.682,295.244,340.855,260.303,369.203,233.275z"/>
		</g>
	</g>
	<g>
		<g>
			<path d="M363.931,212.833l-2.64,0.663l-44.831,36.918c-34.941,27.028-65.929,48.127-92.301,63.946l-90.324,52.743
				c-24.395-1.97-37.581-1.97-39.558,0.663c-2.633,1.32-5.93,11.866-9.226,31.645v0.657c0.657,2.64,5.273,6.593,14.499,11.216
				l60.656,30.981c54.063,27.028,85.051,42.854,91.644,48.79c8.569,7.25,13.187,15.162,13.187,23.731c0,4.617-1.32,9.89-5.273,17.14
				c-82.412-38.231-136.475-60.649-162.19-67.899c-1.32-0.663-2.633,0-3.953,1.313l-3.959,7.249l-1.313,2.641l2.633,1.982
				l67.249,29.668c45.494,20.436,72.522,34.278,81.091,40.871c7.913,5.937,13.85,14.506,17.803,24.396l4.616,13.849
				c0.656,1.971,1.977,2.634,3.297,2.634h104.166l3.297-0.663v-2.634v-0.663c-0.656-13.186-3.297-28.342-6.593-44.167
				c-6.593-30.325-15.163-52.744-26.372-66.586c-9.889-13.187-36.261-29.669-77.139-50.11
				c-25.052-12.522-52.08-24.396-80.435-35.598c34.947-19.779,54.727-35.604,58.68-47.478
				c59.993-44.167,104.167-78.452,131.202-104.823l0.656-2.633v-1.326l-6.593-16.482L363.931,212.833z M361.954,222.06l3.953,10.552
				c-29.012,26.372-71.865,60.656-129.882,102.853l-1.977,1.971c-0.657,6.593-9.232,14.512-25.715,26.372
				c-11.203,7.256-23.075,14.512-36.261,21.104c-0.657,0.657-1.313,1.971-1.313,3.297l0,0c0,1.97,0.657,2.633,1.977,3.296
				l71.203,30.981c49.446,23.732,79.114,41.541,90.324,54.727c9.226,12.522,17.802,31.639,23.731,57.354
				c3.96,15.169,6.593,30.988,7.913,47.471H267.67c-3.953-16.482-11.866-29.006-24.389-39.558
				c-7.913-6.594-32.308-18.459-72.522-36.925c-28.355-13.186-52.744-23.731-73.842-32.965l1.32-1.97
				c25.708,8.563,79.115,30.981,162.183,68.563c1.32,1.32,2.641,0,3.297-1.319c5.273-7.907,7.913-16.482,7.913-23.076
				c0-10.546-5.273-20.435-15.163-29.011c-7.912-6.593-38.9-23.075-92.964-49.447c-44.831-21.749-68.563-34.935-71.202-37.574
				c2.64-13.843,4.616-23.075,5.937-26.372c4.61-0.656,16.482-0.656,36.261,1.313l1.977-0.656l90.981-53.4
				C268.99,295.908,313.164,262.943,361.954,222.06z"/>
		</g>
	</g>
	<g>
		<g>
			<path d="M366.563,224.042c-0.656-0.657-1.313-0.657-2.633,0c-12.529,13.842-47.471,40.871-103.511,81.091l-78.458,46.813
				l-49.447,30.325c-9.89-0.656-16.482,1.313-20.436,4.61c-2.64,1.982-3.296,6.593-2.64,11.872l0.663,1.313l40.877,19.778
				l73.179,29.668c5.273,1.983,14.506,7.92,28.349,17.809c13.186,9.227,20.441,15.156,21.099,16.482l2.64,3.297
				c7.906,11.203,12.522,19.115,12.522,23.075l-3.297,19.778l-2.633,13.843c-1.32,7.25,0.656,21.756,6.593,42.197l2.634,1.313
				l1.319-1.977v-0.663c-4.616-17.139-7.249-29.668-7.249-37.574l3.296-16.482l3.297-20.436c0-5.279-4.616-13.849-13.187-25.059
				l-2.64-3.296l-23.075-17.796c-13.186-9.89-22.418-15.826-27.028-17.809L160.87,419.19l-8.576-3.297l-39.558-19.122v-1.313
				c0-2.64,1.32-4.616,1.983-5.936c3.296-2.64,8.57-3.953,17.139-2.64c2.64,0,20.436-10.547,52.087-31.639l79.115-46.813
				c56.039-40.221,90.317-67.906,103.503-81.092C367.884,226.019,367.884,225.356,366.563,224.042z"/>
		</g>
	</g>
	<g>
		<g>
			<path d="M259.101,312.39c-1.32-1.326-1.977-1.326-3.297-0.663c-8.569,4.616-19.778,13.187-34.284,24.396l-33.621,24.389
				c-7.25,3.96-22.419,13.849-45.494,28.354v1.313c-1.313,3.96,0,6.593,1.32,9.232c1.977,2.64,5.273,3.953,8.57,3.297
				c5.279-0.657,14.506,1.983,25.715,6.593l30.988,13.843l22.412,9.89c9.232,3.296,23.075,11.872,42.854,25.058l30.331,22.419
				c1.977,1.97,5.273,7.906,9.89,17.796c5.273,9.889,7.25,16.481,7.913,19.778c0,3.297-1.32,6.593-2.64,9.89
				c-2.64,5.936-3.953,11.209-4.616,14.506c-1.32,9.226,4.616,23.738,16.482,44.174c0,1.313,1.319,1.313,1.977,0
				c1.982,0,1.982-1.32,1.319-2.64c-11.866-19.122-16.482-32.965-15.819-40.215c0-3.953,1.313-8.576,3.953-13.843
				c2.64-5.279,3.297-9.232,3.297-11.872c-0.657-4.609-3.297-11.203-7.913-21.755c-5.272-9.89-8.569-15.819-11.209-18.459
				l-30.981-23.075c-19.779-13.187-34.284-21.762-42.854-25.059l-23.075-9.89c-29.668-14.499-49.447-21.749-58.022-21.092
				c-1.977,0-3.953-0.657-5.273-1.983l-1.32-3.296v-1.313c19.778-13.843,34.947-23.075,44.174-27.691
				c9.89-5.931,20.441-13.85,34.284-25.052l33.621-24.396l1.32-1.977V312.39z"/>
		</g>
	</g>
	<g>
		<g>
			<path fill="#FFFFFF" d="M195.147,326.89l-15.162-3.297l-15.162,18.466l-11.209,0.656l-17.802,10.546l-1.977,15.169l12.529-11.216
				l15.819-1.97l11.873,2.633l1.313-11.209L195.147,326.89z"/>
		</g>
	</g>
	<g>
		<g>
			<path d="M180.648,320.953c-1.32,0-1.983,0-3.296,0.663l-13.849,17.803l-9.889,0.656l-1.32,0.656l-17.796,10.553l-0.663,1.32
				l-2.633,15.162v0.663l1.313,2.634h3.296l11.873-11.21l14.499-1.977l11.873,2.634h1.977l1.32-2.634v-9.889l19.779-19.779
				l1.313-1.319v-1.313l-1.977-1.326L180.648,320.953z M190.538,328.209l-17.146,16.482l-1.32,1.32v8.569l-8.57-1.977h-1.32
				l-16.482,1.977l-1.313,0.663l-6.593,6.593l0.657-7.256l15.826-9.227l10.546-0.663l1.977-0.663l13.849-17.796L190.538,328.209z"/>
		</g>
	</g>
	<g>
		<g>
			<path fill="#7DB368" d="M339.535,318.983l-2.64-5.28c2.64-4.609,2.64-8.569-0.656-11.202l-3.953-2.64l-41.541-6.593
				l-19.778-5.279l-29.005,15.168c13.842,15.163,32.301,26.372,54.72,34.278l30.324,6.593c4.617-2.633,7.257-7.906,8.576-15.156
				C338.216,326.232,339.535,322.937,339.535,318.983z"/>
		</g>
	</g>
	<g>
		<g>
			<path d="M272.286,284.692h-2.633l-29.012,15.826l-1.977,2.64l0.656,2.64c14.506,15.156,32.965,26.372,56.04,34.278
				c11.209,3.953,21.756,5.937,30.988,7.25h2.64c4.61-3.297,7.906-9.227,9.89-16.482c2.633-3.297,3.953-6.593,3.953-9.89
				l-2.64-7.906l1.982-4.616l-1.319-5.273c-1.32-1.982-3.96-4.616-7.913-6.593h-0.656c-11.873-0.656-25.716-1.983-40.221-5.936
				L272.286,284.692z M270.967,291.285l22.418,6.593l38.238,5.279c1.319,0,1.977,1.313,3.296,2.64l0.663,2.634l-1.982,5.272
				l1.319,1.983l1.32,5.267c0,1.983-1.32,3.96-3.297,5.937l-0.656,1.982c-0.663,5.267-2.64,9.227-5.937,11.859l-30.325-7.906
				c-19.778-7.249-35.604-16.482-48.79-28.354L270.967,291.285z"/>
		</g>
	</g>
	<g>
		<g>
			<path d="M336.896,311.063l-23.731-2.633c-17.803-2.634-33.622-6.593-46.808-13.187c-1.983,0-2.64,0-3.296,1.32
				c-1.32,1.977-0.664,2.64,0.656,3.953c21.755,9.89,46.15,15.169,73.179,15.825c1.983,0,2.64-0.656,2.64-1.982
				C339.535,311.727,338.879,311.063,336.896,311.063z"/>
		</g>
	</g>
	<g>
		<g>
			<path d="M335.582,326.232l-27.035-3.953c-21.098-4.623-37.58-11.216-50.767-19.778c-1.313-0.663-1.977-0.663-3.296,0.656
				c-0.657,1.977-0.657,2.64,0.663,3.953c13.843,8.576,30.988,15.169,51.423,20.436l29.012,3.96c1.313,0,2.634,0,2.634-1.977
				C338.216,327.546,337.559,326.232,335.582,326.232z"/>
		</g>
	</g>
	<g>
		<g>
			<path fill="#FFE700" d="M79.772,168.002c-5.93,2.64-11.866,5.937-15.819,9.233l-9.89,2.633
				c-7.913,1.977-13.849,5.273-19.122,9.889l17.802,6.593c12.529,5.273,21.099,11.866,25.715,19.779
				c3.296,5.93,9.226,20.442,15.162,44.174c7.913,23.075,19.116,38.901,32.302,48.791c17.802,11.859,38.901,19.115,63.953,20.436
				c11.866,1.313,22.418,1.313,30.988,0c1.319-8.576,0.656-13.187-2.641-13.187l23.739-4.616
				c17.802-5.93,31.645-13.849,41.533-23.738l-21.099-7.907c-8.569-7.913-19.778-17.802-32.964-27.691
				c-26.372-20.442-50.767-36.261-73.842-46.15l-11.866-19.116c-9.889-12.529-20.435-20.442-29.668-23.738
				C104.167,160.753,92.958,162.066,79.772,168.002z"/>
		</g>
	</g>
	<g>
		<g>
			<path fill="#80B368" d="M118.016,261.617c3.297,7.256,7.907,13.849,14.5,19.779c21.762,19.779,56.04,30.331,102.853,31.651
				c21.099-5.279,36.918-13.843,48.127-25.058l-21.099-7.907c-8.569-7.913-19.778-17.802-32.964-27.691
				c-26.372-20.442-50.767-36.261-73.842-46.15l-11.866-19.116c-9.889-12.529-20.435-20.442-29.668-23.738
				c-9.889-2.633-21.099-1.32-34.284,4.616c-5.93,2.64-11.866,5.937-15.819,9.233l15.163-3.296
				c11.866-0.664,20.435,2.633,26.372,8.563c5.273,5.279,7.913,15.826,7.25,30.331c0,19.779,1.32,32.965,2.64,39.558
				L118.016,261.617z"/>
		</g>
	</g>
	<g>
		<g>
			<path d="M286.792,286.675l-1.977-1.983l-21.099-7.25c-7.913-8.569-19.778-18.459-35.604-30.325
				c-25.052-19.122-48.127-34.285-69.882-43.511c-13.842-23.738-27.691-38.901-43.511-43.517c-9.889-2.633-21.099-1.32-32.964,3.296
				c-7.256,3.296-13.849,6.593-19.779,11.209c-11.209,1.313-21.099,5.273-29.012,12.529l-1.32,2.633l0.664,0.663l2.633,2.633
				l16.482,5.93c12.529,5.279,20.442,11.872,24.395,18.465c1.977,3.297,5.273,11.866,8.57,24.389
				c5.273,16.482,9.232,28.355,13.186,36.924c7.256,14.506,16.482,25.708,27.035,32.964c17.795,12.523,38.894,19.116,63.946,21.099
				c11.873,1.977,23.075,1.977,32.965,0l2.64-3.296l0.657-5.279l-0.657-5.93c9.232-0.664,18.459-3.297,28.349-6.594
				c13.849-5.93,24.395-13.186,33.628-21.755l0.656-1.983V286.675z M81.755,170.642c11.866-5.279,22.412-6.593,30.981-3.959
				c9.233,3.296,18.465,10.553,28.354,23.075l11.866,17.802l1.32,1.977c22.412,9.89,46.807,24.395,73.179,44.831l32.308,28.355
				l1.313,0.656l15.825,5.273c-9.232,8.57-22.418,15.163-37.581,19.779l-21.099,4.616c-1.977,0-3.296,1.313-3.296,3.296
				c0,1.313,1.319,1.978,2.64,2.641l0.656,5.267l-0.656,1.982c-11.209,1.313-23.075,1.313-35.604-0.656
				c-20.436-2.64-38.238-9.233-54.057-19.779c-9.89-6.593-18.465-16.482-24.395-30.331c-3.96-7.256-8.57-19.779-12.529-35.598
				c-3.953-13.186-7.25-21.762-9.226-25.715c-6.593-10.546-19.779-18.465-38.901-25.715c4.616-2.64,8.569-4.61,14.506-5.936
				l6.593-1.97l1.32-0.663L81.755,170.642z"/>
		</g>
	</g>
	<g>
		<g>
			<path fill="#D96038" d="M100.871,184.485c0-2.64-1.32-4.616-3.954-6.593l-7.256-1.32c-2.633,0.663-4.61,2.633-5.93,4.616
				c-1.977,1.977-1.977,4.61-1.977,6.593c0.657,2.64,1.977,5.273,4.61,6.593l7.256,1.313l5.93-3.953
				C100.871,189.758,101.534,187.125,100.871,184.485z"/>
		</g>
	</g>
	<g>
		<g>
			<path d="M103.51,186.461v-2.633c-0.663-2.64-1.977-5.279-5.273-7.256c-2.64-1.977-5.28-2.633-9.233-2.633
				c-3.296,0.657-5.936,2.633-7.25,5.93c-1.983,2.633-3.296,5.273-1.983,9.226c0.663,3.296,1.983,5.279,5.279,7.256l9.226,1.977
				c3.296-1.313,5.937-2.64,7.256-5.273L103.51,186.461z M90.324,179.869l4.616,0.663l3.297,4.61c0,1.983,0,3.953-0.664,4.616
				l-4.616,3.296l-5.273-0.663c-1.32-1.313-2.633-2.633-2.633-4.61c-0.663-1.983,0-3.953,0.657-5.279
				C87.028,180.532,88.348,179.869,90.324,179.869z"/>
		</g>
	</g>
	<g>
		<g>
			<path d="M118.016,238.542c1.313-6.593,6.593-11.859,14.5-15.819c4.616-1.32,8.576-2.633,12.529-3.296
				c1.977,0,2.64-0.664,2.64-2.633c0-1.327-1.32-2.64-3.296-2.64c-5.28,0.657-9.89,1.977-15.169,4.61
				c-9.227,3.96-14.5,10.553-16.482,18.465c-1.977,11.866,0,22.418,6.593,32.965c7.913,12.529,19.779,22.418,36.924,29.011
				c17.139,6.593,36.261,7.25,57.36,2.634c20.436-5.273,35.598-13.186,46.15-23.739c0.656-1.313,0.656-1.97,0-3.296l-2.64-1.313
				c-9.89,1.977-19.779,1.977-29.668-0.657c-10.547-1.983-19.122-6.593-27.028-13.186c3.296,6.593,7.249,11.86,13.186,13.843
				c10.546,5.273,22.412,7.25,34.941,5.936c-11.21,9.227-25.052,15.819-41.534,18.453c-18.466,3.297-34.285,1.983-48.791-3.297
				c-15.826-6.592-27.028-15.156-34.284-26.371C118.016,258.32,116.033,249.094,118.016,238.542z"/>
			<path d="M179.985,231.949c-1.977,0.663-2.633,1.983-1.32,3.296c4.617,11.873,11.873,20.442,21.762,24.401
				c-6.594-6.593-13.187-15.825-17.146-26.372C182.625,231.949,181.305,231.292,179.985,231.949z"/>
		</g>
	</g>
	<g>
		<g>
			<path d="M230.752,274.803c0-1.313-1.319-1.97-3.296-1.313c-14.506,6.593-29.012,9.889-42.197,9.233l-15.163-2.64
				c-1.977-0.657-2.633,0-3.953,1.977c-0.664,1.32,0,2.633,1.32,3.297c3.296,1.32,8.569,2.633,17.796,3.296
				c13.849,0,29.011-3.296,44.837-9.89C231.409,278.099,231.409,276.129,230.752,274.803z"/>
		</g>
	</g>
	<g>
		<g>
			<path d="M208.334,265.577c-0.657-1.977-1.977-1.977-3.297-1.977l-25.052,3.296l-9.889-1.32c-1.977-1.32-3.296-0.664-3.296,1.32
				c-1.32,1.313,0,1.977,1.32,3.296l11.209,1.977l27.029-3.296C207.677,268.873,208.334,266.896,208.334,265.577z"/>
		</g>
	</g>
	<g>
		<g>
			<path d="M170.759,249.094c-1.32,0-1.983,0.663-2.64,2.633c-0.657,1.326,0.657,2.64,1.977,3.296l7.256,0.663l14.5-0.663
				c1.319,0,1.982-1.97,1.982-3.296c-0.663-1.97-1.982-2.633-3.296-1.97l-13.186,0.657L170.759,249.094z"/>
		</g>
	</g>
	<g>
		<g>
			<path fill="#D96038" d="M193.834,489.735c-1.982-7.912-7.256-12.522-16.482-14.505h-13.849l-7.25-9.89
				c-5.936-6.593-13.849-9.232-22.418-9.232c-9.226,1.326-15.819,5.936-19.779,15.169c-1.977,4.609-3.296,9.232-3.296,13.842
				l-11.209,3.297c-7.906,3.296-11.203,9.89-11.203,18.465c-0.663,8.563,3.953,15.156,13.186,19.779l13.186,3.296l60.65-10.552
				l10.553-7.913C193.171,504.898,195.147,497.648,193.834,489.735z"/>
		</g>
	</g>
	<g>
		<g>
			<path d="M183.945,473.917l-18.466-2.64c-7.906-13.187-18.458-19.122-32.301-18.466c-7.913,0.663-13.849,4.623-18.459,11.216
				c-3.959,5.267-6.593,11.203-7.256,18.452c-5.93,0.663-10.546,2.64-14.506,5.937c-5.273,4.616-7.906,10.546-7.906,18.465
				c0,7.906,3.296,14.5,10.546,19.779c5.273,3.953,11.866,5.93,18.459,6.593h0.663l60.65-10.553l1.32-0.663
				c3.959-1.97,8.57-5.267,11.866-8.563c7.913-7.92,10.553-15.826,8.576-25.059C195.147,481.166,191.194,476.55,183.945,473.917z
				 M164.167,478.526c2.633-1.313,6.593-1.313,12.522,0c7.256,1.32,11.866,5.279,13.849,11.872l0.656,3.297
				c0,5.93-2.64,11.203-7.912,16.482l-9.227,5.93l-59.336,10.553c-15.826-1.983-23.075-8.576-23.075-19.779
				c0-7.256,2.633-12.528,9.227-15.825c3.296-1.32,6.593-2.64,9.889-2.64l3.296-2.64c0-3.953,0.663-8.563,3.296-13.187
				c3.296-8.563,8.57-12.522,16.482-13.186c7.256,0,14.506,1.983,20.442,7.919c3.296,3.297,4.61,6.594,5.93,9.227
				C160.87,477.87,162.183,478.526,164.167,478.526z"/>
		</g>
	</g>
	<g>
		<g>
			<path fill="#FFE700" d="M114.719,523.363c11.203,3.953,25.052,3.953,42.191-0.663c7.913-2.633,15.163-5.272,21.099-8.569
				c-1.32-5.279-4.616-10.546-8.569-15.169c-7.913-9.89-17.802-13.843-29.012-11.859c-11.866,1.97-19.115,8.563-23.075,19.778
				C114.719,512.811,114.056,518.084,114.719,523.363z"/>
		</g>
	</g>
	<g>
		<g>
			<path fill="#D96038" d="M147.684,527.316c0-3.953-1.983-7.912-5.937-10.546c-3.953-3.296-7.913-4.623-13.842-4.623
				c-5.28,0.663-9.89,1.983-13.186,5.28c-3.959,2.64-5.936,6.593-5.936,11.202c0.657,4.623,2.64,7.92,5.936,10.553
				c3.953,3.297,8.57,4.616,14.5,4.616c5.279,0,9.889-1.982,13.186-4.616C145.701,535.223,147.684,531.27,147.684,527.316z"/>
		</g>
	</g>
	<g>
		<g>
			<path d="M111.423,540.503c4.61,4.609,10.546,6.593,17.796,6.593c5.936-0.657,11.209-2.64,15.169-6.593
				c4.61-3.297,6.593-7.913,6.593-13.187c0-5.279-2.64-9.232-6.593-13.186c-5.28-3.297-9.89-5.279-16.482-5.279
				c-7.256,0-13.186,2.64-17.146,7.919c-3.296,3.297-5.273,7.25-5.273,11.859C106.144,533.253,108.126,537.206,111.423,540.503z
				 M128.562,540.503c-4.616,0-9.233-1.32-12.529-4.617c-2.633-1.977-3.296-4.616-3.953-7.912c0-2.64,0.657-5.273,3.296-7.25
				c2.64-3.296,7.25-5.279,12.529-5.279c4.61,0,7.906,1.326,11.203,3.297c3.296,2.64,5.28,5.279,5.28,8.575
				c0,3.297-1.32,6.593-3.96,9.233C137.131,539.183,132.515,540.503,128.562,540.503z"/>
		</g>
	</g>
	<g>
		<g>
			<path fill="#D96038" d="M185.259,517.428c-1.313-3.953-3.954-7.25-7.907-9.233l-15.169-1.313
				c-4.61,1.971-8.569,4.61-11.866,8.563c-2.633,3.297-3.296,7.919-2.633,11.872c1.313,3.953,3.953,7.25,8.569,9.233l14.506,0.656
				c4.61-1.32,9.226-3.953,11.866-7.25C185.259,525.334,186.578,521.381,185.259,517.428z"/>
		</g>
	</g>
	<g>
		<g>
			<path d="M188.555,516.771c-1.313-5.279-4.609-9.232-9.889-11.216l-17.139-1.313c-6.593,1.313-11.209,5.273-15.162,10.546
				c-1.977,4.617-2.64,9.233-1.977,13.187c1.313,5.279,4.61,9.232,9.889,11.209l17.139,1.32c5.936-1.32,10.546-4.617,13.843-9.233
				C188.555,526.66,189.875,521.381,188.555,516.771z M175.369,510.834c3.296,1.313,5.279,3.953,6.593,7.25v2.64
				c0,3.297-0.657,5.937-3.296,7.906c-1.977,2.64-5.273,4.623-8.569,5.279h-12.523c-3.296-1.982-5.279-3.953-6.593-7.249
				c-0.663-2.64,0-5.937,1.313-8.576c1.983-3.297,5.279-5.937,11.209-7.906L175.369,510.834z"/>
		</g>
	</g>
	<g>
		<g>
			<path d="M129.219,482.479c-0.657-1.313-1.313-1.97-3.296-1.313c-0.657,0.657-1.313,1.313-0.657,2.64l9.232,20.436
				c0.657,0.657,1.313,1.313,3.296,0.657l0.657-2.64L129.219,482.479z"/>
		</g>
	</g>
	<g>
		<g>
			<path d="M151.637,479.184c-1.32-0.657-1.977,0-2.64,1.326l-1.313,6.593l-1.32,15.819c0,1.319,0.657,1.977,1.977,1.977
				l1.977-1.977l1.32-15.163l1.32-6.593C153.614,479.184,152.957,479.184,151.637,479.184z"/>
		</g>
	</g>
	<g>
		<g>
			<path d="M168.12,483.806h-2.64c-2.633,3.297-4.61,7.906-5.93,13.843l1.32,2.64c1.313,0,2.633,0,2.633-1.326l5.273-13.186
				C169.439,484.463,168.776,483.806,168.12,483.806z"/>
		</g>
	</g>
	<g>
		<g>
			<path d="M114.719,493.032l-3.296,0.663c-0.663,0.657-0.663,1.313,0,1.971l11.203,11.215c1.32,0.657,1.983,1.313,2.64,0
				c0.657,0,1.32-1.326,0.657-2.64L114.719,493.032z"/>
		</g>
	</g>
	<g>
		<g>
			<path fill="#D96038" d="M263.717,391.505c-3.297,3.297-5.273,7.906-6.593,11.859h-11.866
				c-7.913,1.327-13.849,5.937-16.482,14.513c-1.977,7.906,0,15.156,7.25,21.749l11.209,7.919l61.313,7.25l13.187-3.953
				c8.569-4.623,13.186-11.216,13.849-19.122c0.657-8.576-3.296-14.506-12.529-18.466l-13.186-4.609l-3.297-11.21
				c-3.953-7.912-10.546-12.522-19.778-15.162C278.879,380.289,270.967,383.586,263.717,391.505z"/>
		</g>
	</g>
	<g>
		<g>
			<path d="M267.014,384.912c-5.273,3.297-9.233,8.563-12.529,15.156c-15.163-1.971-24.389,3.296-28.349,16.482
				c-2.633,7.919-1.319,15.169,4.616,22.418c3.297,5.279,9.232,8.576,15.826,11.873h0.656l61.313,7.249h0.664
				c3.296,0,7.906-1.982,14.499-5.279c9.232-4.61,14.506-11.859,15.169-21.092v-1.32c0-7.256-3.297-12.522-9.232-17.146
				c-4.617-3.296-9.89-5.267-16.482-6.593c-3.297-15.156-11.866-24.389-25.715-27.686
				C280.199,377.656,272.949,378.976,267.014,384.912z M255.804,406.661c1.32,0.663,3.297,0,3.96-1.97
				c1.313-3.96,3.953-7.92,7.25-11.216c5.272-6.593,11.865-9.89,19.778-7.906c7.25,1.313,13.186,5.936,16.482,13.186l3.296,10.546
				c0,1.983,1.32,2.64,3.297,2.64l11.209,3.953c7.25,3.297,11.21,8.576,11.21,14.506v0.663
				c-0.663,10.546-9.233,17.139-23.739,20.436l-60.655-7.25c-10.547-5.936-16.482-12.528-16.482-20.441l0.663-5.273
				c1.977-7.249,6.593-10.546,13.843-11.872H255.804z"/>
		</g>
	</g>
	<g>
		<g>
			<path fill="#FFE700" d="M256.467,426.439c-3.296,4.623-5.936,9.89-6.593,14.513c9.227,7.249,23.075,11.203,40.215,11.859
				l23.075-1.97c0-5.937-1.32-11.216-3.953-17.146c-5.28-11.866-13.187-18.459-25.059-19.779
				C272.949,412.598,263.717,416.551,256.467,426.439z"/>
		</g>
	</g>
	<g>
		<g>
			<path fill="#D96038" d="M265.693,434.359l-14.506,0.656c-4.609,2.64-7.249,5.273-8.569,9.232c-1.32,4.61,0,8.563,2.64,12.523
				c2.634,3.959,7.25,6.593,11.866,7.912l15.162-0.656c3.96-1.983,7.256-4.623,7.913-9.232c0.656-3.953,0-8.576-2.64-11.873
				C274.263,438.313,270.31,436.329,265.693,434.359z"/>
		</g>
	</g>
	<g>
		<g>
			<path d="M266.356,431.063c-6.593-1.326-12.529-0.663-18.465,1.971c-3.953,2.64-7.25,6.593-7.907,10.552
				c-1.982,3.96-0.663,9.227,1.313,13.187c3.297,5.93,8.576,9.226,15.169,11.209c7.25,1.313,13.187,1.313,19.116-1.983
				c3.959-1.97,6.593-5.93,7.912-10.546v-3.953c0-3.953,0-6.593-1.977-8.576C278.223,436.992,273.606,433.033,266.356,431.063z
				 M251.188,438.969l13.186-1.313c5.28,1.313,9.233,3.953,11.873,8.563c1.313,1.982,1.313,4.623,0.656,7.919
				c0,1.971-1.977,3.953-4.616,5.93l-14.506,1.32c-4.609-1.983-8.569-3.953-10.546-7.913c-1.319-2.633-1.977-5.273-1.319-7.913
				C247.234,442.922,248.555,440.952,251.188,438.969z"/>
		</g>
	</g>
	<g>
		<g>
			<path fill="#D96038" d="M319.1,456.108c0.657-4.61-1.982-8.563-5.279-11.86c-3.953-2.64-7.906-4.622-13.843-4.622
				c-5.272,0-9.889,1.326-13.842,4.622c-3.297,2.634-5.937,6.594-5.937,10.547c0,4.609,1.977,7.906,5.272,11.202
				c3.96,3.297,7.913,4.623,13.85,4.623c5.272,0.657,9.89-1.326,13.843-3.96C316.46,464.027,319.1,460.067,319.1,456.108z"/>
		</g>
	</g>
	<g>
		<g>
			<path d="M299.978,436.329c-7.249,0-13.186,1.983-17.139,6.593c-3.297,3.297-5.937,6.593-5.937,11.873
				c0,4.609,1.977,9.232,6.593,13.186c3.954,3.953,9.233,5.937,15.826,5.937c5.93,0.656,11.203-1.327,15.819-4.623
				c4.616-3.953,7.256-8.563,7.256-13.186c0-4.61-1.983-8.563-5.279-12.523C313.164,439.626,307.228,436.329,299.978,436.329z
				 M286.792,447.545c3.297-3.297,7.25-4.623,13.186-4.623c5.937,0,9.89,1.983,13.187,5.279c1.977,2.641,2.64,4.61,2.64,7.907
				c0,3.296-1.983,5.936-5.279,7.919c-3.297,2.633-7.25,3.953-11.203,3.296c-3.96,0-8.576-1.326-11.209-3.296
				c-2.641-2.64-4.617-5.937-4.617-9.232C283.495,451.498,284.815,449.515,286.792,447.545z"/>
		</g>
	</g>
	<g>
		<g>
			<path d="M275.583,406.005c0-1.313-1.32-1.978-2.634-1.313c-0.663,0-1.982,0-1.982,1.97l3.296,21.762l2.64,1.977l1.977-2.633
				L275.583,406.005z"/>
		</g>
	</g>
	<g>
		<g>
			<path d="M298.001,409.301l-2.64,0.657l-3.296,5.936l-5.93,15.169c0,1.313,0,1.971,1.313,1.971l2.64-1.313l5.272-13.843
				l3.297-5.937C299.978,410.621,299.321,409.958,298.001,409.301z"/>
		</g>
	</g>
	<g>
		<g>
			<path d="M312.507,417.877h-2.64l-9.89,11.859c-0.656,1.326,0,1.983,0.657,2.64l2.64-0.656c3.953-5.28,6.593-8.576,8.569-10.547
				C313.164,419.847,313.164,419.19,312.507,417.877z"/>
		</g>
	</g>
	<g>
		<g>
			<path d="M257.78,411.94c-0.656-0.656-1.313-0.656-2.633,0c-1.32,1.313-1.32,1.977-0.663,2.64l9.232,13.187l2.64,0.656
				c1.313,0,1.313-0.656,1.313-1.983l-4.609-8.563L257.78,411.94z"/>
		</g>
	</g>
	<g>
		<g>
			<path fill="#D96038" d="M319.757,249.094l13.186-4.616c8.569-4.61,13.186-11.203,13.186-19.122
				c0.657-8.563-3.296-14.5-12.528-18.453l-13.187-3.959c0-3.296-1.313-7.256-3.953-11.866
				c-3.953-7.913-10.546-12.529-19.122-14.505c-8.569-1.977-16.482,1.32-23.075,9.226l-7.249,12.529l-11.21-0.657
				c-8.569,1.977-13.842,6.593-15.819,15.162c-2.64,7.913,0,15.819,7.25,22.412l11.866,7.256L319.757,249.094z"/>
		</g>
	</g>
	<g>
		<g>
			<path d="M349.425,224.042c0-7.25-3.297-13.186-9.232-17.139c-3.953-3.296-9.89-5.936-17.14-7.256
				c-2.64-14.506-11.209-23.075-25.052-26.372c-7.912-1.977-14.506,0-21.099,5.93c-4.616,3.959-9.232,8.576-11.209,15.168
				l-16.482,1.977c-5.93,3.297-10.546,7.913-12.522,15.163c-2.64,7.913-0.663,15.169,4.609,22.418
				c4.617,5.273,9.89,8.57,15.826,11.203l1.319,0.663l61.313,6.593h0.656l14.506-5.93c9.232-4.623,14.506-11.873,14.506-21.105
				V224.042z M342.832,224.042v1.313c0,10.552-7.913,17.146-23.075,20.442l-59.993-6.593c-11.872-5.93-17.146-13.186-17.146-20.442
				l0.663-5.267c1.313-7.256,5.93-10.552,13.186-12.529c3.297-0.657,6.594-0.657,9.89,0c2.634,1.313,3.953,0.657,3.953-1.32
				l6.593-11.866c5.937-7.25,12.529-9.889,19.779-7.913c7.249,1.32,13.186,5.93,17.139,13.186l3.297,9.89
				c0.663,1.977,1.982,3.296,3.296,3.296l11.873,3.296C339.535,212.833,342.832,217.449,342.832,224.042z"/>
		</g>
	</g>
	<g>
		<g>
			<path fill="#FFE700" d="M300.635,246.461l23.075-1.983c0-5.273-1.313-11.203-3.953-17.139
				c-4.616-11.209-13.187-17.802-24.396-19.122c-11.866-1.313-21.099,2.64-28.348,12.529c-3.297,5.273-5.937,9.889-6.594,15.162
				C270.31,243.165,283.495,246.461,300.635,246.461z"/>
		</g>
	</g>
	<g>
		<g>
			<path fill="#D96038" d="M291.408,249.094c1.32-3.959,0.657-8.569-2.64-12.523c-2.633-3.959-6.593-6.593-11.866-7.256
				l-14.506,0.663c-4.616,1.97-7.912,5.267-8.569,9.226c-0.656,3.96,0,7.913,2.64,12.523c3.297,3.959,7.25,6.593,12.523,7.256
				l14.505-0.663C287.449,256.35,290.089,253.054,291.408,249.094z"/>
		</g>
	</g>
	<g>
		<g>
			<path d="M292.729,236.571c-3.297-5.279-8.576-9.232-15.826-10.552c-6.593-1.977-12.529-1.32-17.802,1.977
				c-4.616,1.983-6.593,5.279-8.569,10.546c-1.32,4.623,0,9.89,3.296,14.512c3.297,4.61,7.913,7.25,13.843,9.226
				c6.593,1.977,13.186,1.32,19.122-1.977c3.953-3.296,6.593-6.593,7.913-10.546l0.656-3.959
				C295.361,242.501,294.042,239.205,292.729,236.571z M275.583,232.612c5.272,0.663,8.569,3.296,11.209,7.256
				c1.977,2.633,2.64,5.267,1.977,8.563c-1.319,2.64-2.633,4.623-5.273,5.936l-13.842,1.32c-3.96-0.663-7.913-3.296-9.89-5.93
				c-2.64-3.296-3.297-6.593-2.64-9.889c0-2.64,1.977-4.623,5.272-6.593L275.583,232.612z"/>
		</g>
	</g>
	<g>
		<g>
			<path fill="#D96038" d="M330.303,249.094c0-3.959-1.313-7.256-5.273-10.553c-3.296-2.633-8.569-4.61-13.842-5.267
				c-5.273,0-10.553,1.97-13.85,4.61c-3.953,2.64-5.272,7.25-5.93,11.209c0,3.959,1.977,7.913,5.273,10.552
				c3.953,3.297,8.569,5.267,13.843,5.267c5.936,0,9.889-1.313,13.849-4.61C328.326,257.664,330.303,253.71,330.303,249.094z"/>
		</g>
	</g>
	<g>
		<g>
			<path d="M311.188,229.979c-5.937,0-11.21,1.97-15.826,5.93c-4.616,3.296-6.593,7.913-7.249,13.186
				c0,4.616,1.977,9.889,6.593,13.186c4.616,3.297,9.226,5.93,15.819,5.93c5.936,0.663,11.872-1.97,15.825-5.267
				c5.273-3.96,7.25-7.919,7.25-13.186c0-4.623-1.313-9.232-4.61-12.529C324.373,232.612,318.437,229.979,311.188,229.979z
				 M311.188,236.571c5.272,0,9.226,1.97,12.522,5.93c2.64,1.32,3.296,3.959,3.296,6.593c0,3.959-1.313,6.593-4.609,9.226
				c-3.297,1.983-7.256,3.296-11.872,3.296c-3.954,0-7.907-1.97-11.203-3.953c-2.64-1.977-4.616-5.273-4.616-8.569
				c0.656-3.296,1.977-6.593,5.272-8.569C303.274,238.542,306.57,236.571,311.188,236.571z"/>
		</g>
	</g>
	<g>
		<g>
			<path d="M286.136,200.311c0-1.326-0.664-1.983-2.641-1.326c-0.656,0-1.319,0.663-1.319,1.983l3.296,21.755
				c0,1.32,0.664,1.977,1.978,1.977l1.982-1.977L286.136,200.311z"/>
		</g>
	</g>
	<g>
		<g>
			<path d="M309.211,202.944c-1.32-0.663-2.641,0-3.297,0.663l-3.297,6.593c-2.64,5.267-3.959,9.89-5.936,15.156
				c0,0.663,0,1.983,1.977,1.983l1.977-1.32l5.936-14.506l3.297-5.273L309.211,202.944z"/>
		</g>
	</g>
	<g>
		<g>
			<path d="M325.029,212.17h-2.633l-11.209,11.216c-0.663,0.657-0.663,1.97,0.656,2.633h2.64c4.616-5.93,7.913-9.89,10.546-11.209
				V212.17z"/>
		</g>
	</g>
	<g>
		<g>
			<path d="M278.879,220.746l-5.272-7.913l-4.616-5.93l-3.297-0.663c-1.32,1.32-1.32,2.633,0,3.296l9.232,12.523
				c0.657,1.326,1.32,1.326,2.634,1.326C278.879,222.723,278.879,222.06,278.879,220.746z"/>
		</g>
	</g>
	<g>
		<g>
			<path fill="#D96038" d="M367.884,140.311V5.156L216.246,4.493c-1.319,5.279-1.977,11.872-1.319,19.122
				c0.663,14.505,5.279,26.372,12.529,35.604c8.569,8.57,18.459,14.5,30.324,16.482l15.826,0.657l-3.297,11.209
				c0,7.913,5.273,13.849,14.506,17.802l-3.96,5.937c-1.977,4.61-1.313,10.546,1.983,17.139c5.273,9.89,21.092,15.163,46.808,15.163
				L367.884,140.311z"/>
		</g>
	</g>
	<g>
		<g>
			<path d="M371.18,5.156c0-1.977-1.319-3.296-3.296-3.296L216.246,1.196c-1.977,0-2.633,0.664-3.296,2.64
				c-1.32,5.936-1.977,13.186-1.32,21.099c1.32,14.505,5.937,26.372,13.85,36.261c11.865,13.186,25.708,19.779,43.511,18.459
				l-1.977,7.913l0.656,5.273c1.983,5.279,5.937,9.889,12.529,13.842c-2.64,2.64-3.297,6.593-3.297,10.553
				c0,4.616,0.657,8.569,3.297,12.522c5.272,10.553,21.755,17.146,48.127,17.146l39.558-3.296c1.977,0,3.296-1.32,3.296-3.296V5.156
				z M276.902,74.382c-0.656-0.663-1.977-1.32-3.296-1.32l-15.826-0.657c-10.546-1.983-19.778-7.25-27.028-15.826
				c-8.569-9.232-13.186-21.755-13.186-36.918l1.32-11.872l145.7,0.663v129.882l-44.174,1.977
				c-19.115-1.32-30.324-5.93-34.277-13.186c-3.297-5.273-3.96-9.889-2.641-13.849l3.297-4.61l1.32-3.296l-1.977-2.64
				c-6.594-3.296-10.553-7.25-11.873-11.203c-0.656-2.64-0.656-5.937,0.663-9.233l1.977-3.953V74.382z"/>
		</g>
	</g>
	<g>
		<g>
			<path d="M272.949,57.236l-2.64,0.663h-9.232c-3.297-1.977-3.953-5.273-1.313-10.552c1.313-2.633,3.953-5.267,7.25-6.593
				l9.889-1.313c7.913,1.977,12.529,6.593,13.187,14.5c0,7.256-1.977,12.529-7.25,17.146l-9.232,3.296
				c-0.657,0-1.32,1.32-1.32,1.977c0,1.983,1.32,2.64,1.977,1.983l10.553-3.959c6.593-5.273,9.227-11.866,8.569-21.099
				c-0.656-9.89-5.936-15.826-15.825-17.139l-13.187,1.313c-3.953,1.983-6.593,4.623-7.906,8.576
				c-1.982,3.296-2.64,6.593-1.982,9.889l5.279,5.273c1.977,1.977,3.953,2.633,7.25,1.977l6.593-3.296L272.949,57.236z"/>
		</g>
	</g>
	<g>
		<g>
			<path d="M313.82,82.294c-3.953-6.593-9.89-7.913-17.139-4.616c-4.616,1.977-7.25,5.273-6.593,9.889
				c1.319,5.273,4.616,7.913,9.889,7.256l2.64-1.983l-2.64-1.977c-3.296,0-5.272-0.663-5.936-3.297c0-3.296,1.319-5.273,4.616-6.593
				c4.616-1.977,8.569-1.32,11.866,3.296c1.982,2.633,2.64,4.617,2.64,7.913c0,2.64-0.657,5.273-3.297,7.25
				c-3.297,4.616-9.232,5.936-15.825,5.936l-8.57-1.32c-1.319-1.32-1.977-0.663-2.633,1.32c0,0.657,0,1.977,1.313,1.977
				l10.553,1.977c7.912,0.656,13.842-1.977,18.459-7.25c2.64-2.64,3.953-6.593,3.953-9.889
				C317.117,88.231,316.46,85.591,313.82,82.294z"/>
		</g>
	</g>
	<g>
		<g>
			<path d="M305.251,43.394c-12.522-0.656-24.396-5.936-33.621-15.162l-10.553-13.849c-0.657-1.313-1.313-1.313-2.634-1.313
				c-1.319,1.313-1.319,1.977-1.319,3.296c1.319,3.296,5.272,8.57,11.866,15.163c9.889,9.226,21.755,14.506,36.261,15.163
				c13.849,1.32,27.035-1.977,39.558-8.57l15.825-11.866c1.32-1.32,1.32-1.983,0-3.296c-1.319,0-1.977,0-2.64,0l-15.162,11.203
				C330.966,41.417,318.437,44.714,305.251,43.394z"/>
		</g>
	</g>
	<g>
		<g>
			<path d="M303.931,131.085l-10.546,5.267c-0.656,0.663-1.319,1.983,0,2.64l2.64,0.657l9.89-4.61
				c7.25-3.296,15.162-4.617,22.412-4.617c7.256,0,14.506,1.977,22.418,6.593l9.227,5.93c1.32,0.663,2.64,0.663,3.297,0
				c1.319-1.313,0.663-2.633-0.657-2.633l-9.889-6.593c-7.913-4.617-16.482-6.593-23.732-7.256
				C320.413,125.805,312.507,127.788,303.931,131.085z"/>
		</g>
	</g>
	<g>
		<g>
			<path d="M299.978,62.516l-7.912-2.64c-1.32-0.657-1.977-0.657-2.634,0.657c-0.663,1.326,0,1.983,0.657,2.64l9.889,3.296
				c6.593,1.32,12.529-0.656,16.482-3.953c4.616-3.296,7.25-6.593,8.569-11.209c0.663-3.296,0-5.273-1.319-7.913
				c0-1.313-0.657-1.977-1.977-1.313c-1.32,0.657-1.977,1.313-1.32,2.633c2.64,5.273,0,9.889-5.93,14.505
				C310.524,62.516,305.914,63.172,299.978,62.516z"/>
		</g>
	</g>
	<g>
		<g>
			<path d="M344.809,36.144c-0.657-1.32-1.977-1.32-2.634-1.32c-1.982,0-1.982,1.32-1.982,2.633l1.982,9.233
				c0.657,6.593-1.982,11.209-5.936,14.505c-3.297,2.633-7.913,3.296-13.843,1.977l-7.256-2.64l-2.634,0.663
				c-0.663,1.32-0.663,1.977,0.657,2.633l8.569,3.297c6.593,1.326,11.866,0.663,17.146-2.634c4.609-3.959,7.249-9.889,7.249-17.145
				L344.809,36.144z"/>
		</g>
	</g>
	<g>
		<g>
			<path d="M335.582,86.248c-3.296-3.296-8.576-3.953-13.849-1.977l-7.913,1.977c-0.656,0.657-1.313,1.32-0.656,2.64
				c0,1.313,1.319,1.977,2.64,0.657l6.593-1.977c3.953-0.663,7.906,0,10.546,1.977c3.297,2.64,3.297,5.279,1.977,9.232
				c-1.977,5.273-5.93,7.25-11.209,6.593c-1.313,0-1.977,0.657-1.977,1.977s0,1.977,1.319,1.977c7.25,1.32,12.529-1.977,15.826-8.57
				C340.855,94.824,339.535,89.544,335.582,86.248z"/>
		</g>
	</g>
	<g>
		<g>
			<path d="M334.919,100.753c-1.977,0.663-1.977,1.32-1.319,1.977l5.936,7.913l19.779,0.663l0.656-0.663
				c2.64-3.297,3.297-6.593,3.297-9.89c0-5.273-1.977-9.889-6.593-13.186c-3.953-3.296-7.907-4.616-12.523-3.296
				c-3.959,1.32-6.593,3.296-8.569,5.273c-1.319,1.32-0.663,1.983,0,2.64c0.657,1.977,1.313,1.977,2.634,0l5.272-3.296
				c3.96-1.32,7.913-1.32,10.553,1.977c3.953,2.633,5.273,5.93,5.273,9.889c0,3.296-0.657,5.273-2.64,6.593h-14.5
				c-3.296-2.633-5.279-4.616-5.279-5.93C336.239,100.753,335.582,100.09,334.919,100.753z"/>
		</g>
	</g>
	<g>
		<g>
			<path fill="#D96038" d="M164.167,18.342L160.87,4.493H3.296l1.977,153.62h17.802c13.843-1.32,24.395-4.616,30.988-9.89
				c7.25-4.616,10.546-11.209,10.546-17.139l-2.633-7.919c12.522,3.959,23.075,1.983,32.964-4.61
				c6.593-4.616,9.227-9.89,9.227-16.482l-2.633-9.232l5.93-5.273c3.296-4.616,5.273-9.889,5.273-15.162l16.482-2.64
				c13.186-3.953,21.762-10.546,27.691-20.436C162.183,39.44,165.479,28.895,164.167,18.342z"/>
		</g>
	</g>
	<g>
		<g>
			<path d="M164.167,3.18c0-1.32-1.32-1.983-3.297-1.983H3.296c-1.32,0-1.32,0.664-2.64,0.664L0,4.493l1.977,153.62
				c0,1.977,1.32,3.296,3.296,3.296c22.418,1.977,39.558-1.32,50.767-9.89c7.913-5.936,11.209-12.529,11.209-19.778v-4.617
				c11.209,1.977,21.099,0,29.668-6.593c7.25-4.616,10.546-11.209,10.546-18.459l-1.32-7.913c5.279-5.273,7.913-11.209,8.576-18.459
				c7.906,0,14.5-1.32,21.092-4.616c11.209-4.617,18.465-11.209,24.395-20.442c4.617-9.227,7.256-19.116,7.256-29.005l-1.983-13.186
				L164.167,3.18z M158.887,7.79l1.983,13.849c0,9.226-1.983,17.802-6.593,26.372c-5.279,8.569-13.849,14.505-25.058,18.458
				l-16.482,2.64c-1.313,0-1.977,0-2.633,0.657l-0.663,2.64c0,7.25-3.296,13.186-9.226,17.796c-1.977,1.326-1.977,2.64-1.32,3.959
				l1.977,7.913c0,5.273-2.633,9.89-7.913,13.186c-8.569,6.593-18.459,8.569-29.668,4.61c-1.977-0.657-2.633,0-3.953,1.326
				c-1.32,0.657-1.32,2.633-0.657,3.953c4.61,6.593,2.633,13.843-6.593,20.436c-9.232,7.25-23.738,10.546-43.517,9.233L7.25,7.79
				H158.887z"/>
		</g>
	</g>
	<g>
		<g>
			<path d="M93.621,51.307c-1.32,5.273,0,9.889,1.977,13.186c3.953,5.273,9.233,8.57,16.482,9.89l2.64-1.977
				c0-1.32,0-1.32-1.983-1.32c-6.593-1.977-11.203-4.617-13.843-8.57c-1.32-2.64-1.977-5.936-1.32-9.889
				c0.664-4.616,3.297-7.25,6.593-8.576c3.959-1.313,7.256-1.313,10.552,1.327c1.977,1.313,3.296,3.953,1.977,7.25
				c-0.663,1.977-1.977,3.296-3.959,3.296c-1.977,0-1.977,0.657-1.977,1.977l1.977,1.977c4.616-0.657,6.593-2.64,7.913-6.593
				c0.664-4.61,0-8.569-3.953-11.203c-3.959-2.64-9.232-3.96-13.849-1.983C97.574,42.081,94.94,46.034,93.621,51.307z"/>
		</g>
	</g>
	<g>
		<g>
			<path d="M102.847,94.161l0.663-1.977c-2.64-4.617-6.593-7.913-10.553-9.233c-5.93-2.64-11.866-1.977-17.796,1.32
				c-3.959,3.296-6.593,7.256-5.936,11.866c0,5.936,2.64,9.232,6.593,11.873l11.209-0.664c2.633-2.633,3.296-5.273,2.633-8.569
				c-0.657-1.32-1.313-1.32-2.633-1.32c-1.32,0.663-1.977,1.32-1.32,2.633c0.657,1.983,0.657,2.64-1.32,3.959h-6.593
				c-3.296-1.32-4.616-3.959-4.616-7.913s1.32-6.593,4.616-8.57c5.273-3.296,10.553-3.296,15.826,0l6.593,6.593H102.847z"/>
		</g>
	</g>
	<g>
		<g>
			<path d="M63.29,121.852c-6.593-5.279-11.866-7.25-17.139-6.593c-2.64,0.657-4.616,1.977-5.936,3.296
				c-1.977,3.296-1.977,5.936-1.977,8.569c0.663,3.296,2.64,6.593,5.936,7.913h2.633c0.663-1.32,0.663-2.64-0.657-3.296
				c-1.977-1.32-3.296-3.297-3.953-5.28c-0.663-1.313,0.657-2.633,1.313-5.267l3.296-1.983c4.616-0.657,8.576,1.32,13.849,5.936
				l2.633-0.657C64.609,123.166,63.953,121.852,63.29,121.852z"/>
		</g>
	</g>
	<g>
		<g>
			<path d="M79.772,55.266c7.913,1.313,13.849,0.657,17.145-2.64c1.32-1.32,1.32-1.32,0.657-2.64l-3.296-0.657
				c-2.633,2.64-7.25,3.296-13.842,1.977c-4.617-1.32-8.57-2.633-11.866-5.273c-2.64-2.64-3.959-4.617-3.959-7.913l3.296-3.296
				c3.959-3.296,10.553-3.959,18.459-2.633c7.913,1.313,13.186,4.61,17.146,10.546c0,1.313,1.32,1.977,2.633,0.656
				c1.32-0.656,1.32-1.313,0-2.64c-3.296-6.593-9.89-11.203-19.116-12.522c-8.569-1.977-15.826-0.663-21.755,3.296
				c-1.983,1.32-3.959,3.959-3.959,6.593c-0.657,3.296,0.663,6.593,3.959,10.553C69.226,51.97,74.499,54.603,79.772,55.266z"/>
		</g>
	</g>
	<g>
		<g>
			<path d="M45.494,32.848c-13.849,3.296-23.738,8.569-30.331,18.459c-1.32,1.32-1.32,1.32,0,2.633l3.296-0.657
				c5.936-8.569,15.826-13.843,28.348-16.482l17.802-0.657l2.64-1.32c0-1.977-0.663-1.977-1.977-1.977H45.494z"/>
		</g>
	</g>
	<g>
		<g>
			<path d="M49.447,72.405c3.953-2.64,9.233-3.296,17.139-1.32c8.576,1.32,14.506,5.93,16.482,13.186
				c0.663,1.32,1.32,1.32,1.983,1.32l1.977-2.64l-3.959-7.25c-3.296-4.616-8.57-7.913-15.819-8.576
				c-9.232-1.313-15.826-1.313-19.779,2.64c-2.64,1.983-4.616,4.616-4.616,7.913c0,3.959,1.977,7.913,5.936,11.209
				c3.953,3.296,7.906,5.273,12.523,5.273l10.552,1.32l1.313-1.32c0.663-1.32,0-1.977-1.977-2.633l-9.226-0.663l-10.553-4.617
				c-3.296-2.64-5.273-5.273-4.616-8.569C46.807,75.702,48.127,74.382,49.447,72.405z"/>
		</g>
	</g>
	<g>
		<g>
			<path d="M27.691,66.469l-12.529,1.32l-1.977,1.977c0,1.32,1.32,1.983,2.64,1.32h10.546c7.913,0,13.186,2.633,16.482,7.913h3.296
				c0.657,0,1.32-1.32,0-2.64C42.854,71.085,36.261,67.789,27.691,66.469z"/>
		</g>
	</g>
	<g>
		<g>
			<path d="M47.47,81.638c-1.977,0-2.64,0.657-2.64,1.313c-1.32,4.616-3.953,7.913-8.569,9.89
				c-5.273,3.296-12.529,3.296-20.436,0.657c-1.32-0.657-2.64,0-2.64,1.326c0,1.313,0,2.633,1.32,2.633l23.732-1.32
				c5.273-2.64,8.569-6.593,9.889-11.866C48.79,82.951,48.127,82.294,47.47,81.638z"/>
		</g>
	</g>
	<g>
		<g>
			<path fill="#D96038" d="M236.688,392.162c0-3.953-1.983-7.913-4.616-11.21c-2.64-2.633-7.256-4.616-11.209-4.616
				c-3.954,0-7.913,1.983-11.21,4.616c-3.296,2.634-4.616,7.257-4.616,11.21c0,4.609,1.32,7.906,4.616,11.202
				c3.297,3.297,7.256,4.623,11.21,4.623c3.953,0,8.569-1.326,11.209-4.623C234.705,400.068,236.688,396.771,236.688,392.162z"/>
		</g>
	</g>
	<g>
		<g>
			<path d="M234.049,378.976c-3.297-3.953-7.913-5.279-13.186-5.279c-4.617,0-9.89,1.326-13.187,5.279
				c-3.953,3.297-5.936,7.907-5.936,13.187c0,5.272,1.982,9.889,5.936,13.186c3.297,3.953,8.569,5.937,13.187,5.937
				c5.272,0,9.889-1.983,13.186-5.937c3.296-3.297,5.272-7.913,5.272-13.186C239.321,386.883,237.345,382.272,234.049,378.976z
				 M220.863,378.976c3.296,0,6.593,1.313,9.232,3.953c2.633,2.641,3.953,5.28,3.953,9.233c0,3.296-1.32,6.593-3.953,9.232
				c-2.64,3.297-5.937,3.953-9.232,3.953c-3.297,0-6.594-0.656-9.89-3.953c-2.64-2.64-3.953-5.937-3.953-9.232
				c0-3.953,1.313-6.593,3.953-9.233C214.27,380.289,217.566,378.976,220.863,378.976z"/>
		</g>
	</g>
	<g>
		<g>
			<path d="M205.037,386.226c-1.313,0-1.313,0.657-1.313,1.983c0,1.313,0,1.97,1.313,1.97c9.89,0,17.803,5.279,24.396,15.169
				l2.64,1.313l0.656-3.297l-7.912-8.563C218.887,388.865,212.293,386.883,205.037,386.226z"/>
		</g>
	</g>
	<g>
		<g>
			<path d="M230.752,378.319c0-1.326-1.319-1.326-2.64-1.326c-3.296,1.982-5.272,5.279-7.249,10.553l-0.657,7.256l2.634,1.97
				l1.319-1.97l0.657-5.937c1.319-3.953,2.64-7.249,5.279-8.576L230.752,378.319z"/>
		</g>
	</g>
	<g>
		<g>
			<path fill="#D96038" d="M224.159,181.845c2.64-3.953,3.297-7.906,2.64-11.866c-0.663-4.616-2.64-7.913-6.593-9.889
				c-3.297-2.633-7.256-3.296-11.872-3.296c-4.61,1.32-7.906,3.296-9.89,6.593c-2.634,3.296-3.297,7.256-3.297,11.866
				c1.32,4.617,3.297,7.913,6.594,10.546c3.959,1.983,7.912,3.296,12.528,2.64C218.223,187.125,221.52,185.798,224.159,181.845z"/>
		</g>
	</g>
	<g>
		<g>
			<path d="M221.52,157.457c-3.953-2.64-8.569-3.959-13.186-2.64c-5.273,0-9.227,3.296-12.523,7.25
				c-2.64,4.616-3.959,8.576-2.64,13.842c0.663,4.623,3.297,8.576,7.257,11.873c4.609,2.64,9.226,4.61,13.842,3.296
				c5.273-1.32,9.233-3.296,11.866-7.913c3.297-3.959,4.616-8.569,3.297-13.186C228.775,164.706,226.136,160.753,221.52,157.457z
				 M208.997,160.09l9.89,1.32c2.633,2.64,4.616,5.273,5.272,9.232v2.633c0,2.633-0.656,4.617-2.64,7.256
				c-1.313,2.633-4.61,4.61-7.906,5.267c-3.96,0.663-7.256,0-9.89-2.633c-3.296-1.977-5.279-4.616-5.279-8.569
				c-1.313-3.297,0-6.593,1.983-9.89C203.061,162.066,205.037,160.09,208.997,160.09z"/>
		</g>
	</g>
	<g>
		<g>
			<path fill="#D96038" d="M224.816,496.992c-3.297,3.296-4.61,6.593-4.61,11.202c0,3.953,1.313,8.576,4.61,11.21
				c3.296,2.633,6.593,4.616,11.209,4.616s7.913-1.983,11.209-4.616c3.297-2.634,5.273-7.257,5.273-11.21
				c0-4.609-1.977-7.906-5.273-11.202c-3.296-3.297-6.593-5.28-11.209-5.28S227.456,493.695,224.816,496.992z"/>
		</g>
	</g>
	<g>
		<g>
			<path d="M236.025,526.66c5.272,0,9.89-1.983,13.849-5.279c3.297-3.953,4.61-7.906,4.61-13.187c0-5.272-1.313-9.889-4.61-13.186
				c-3.959-3.953-8.576-5.937-13.849-5.937c-5.273,0-9.227,1.983-13.186,5.937c-3.297,3.297-5.273,7.913-5.273,13.186
				c0,5.28,1.977,9.233,5.273,13.187C226.799,524.677,230.752,526.66,236.025,526.66z M245.915,517.428
				c-2.634,2.64-5.931,3.953-9.89,3.953c-3.297,0-6.593-1.313-9.227-3.953c-2.64-2.641-3.959-5.937-3.959-9.233
				c0-3.953,1.319-7.249,3.959-9.889c2.634-2.64,5.93-3.953,9.227-3.953c3.959,0,7.256,1.313,9.89,3.953
				c1.977,2.64,3.959,5.936,3.959,9.889C249.874,511.491,247.892,514.787,245.915,517.428z"/>
		</g>
	</g>
	<g>
		<g>
			<path d="M253.827,503.585l-2.64-1.983c-6.593,0.657-13.186,3.297-19.115,8.576l-7.913,8.563c0,1.326,0,1.982,0.657,3.296
				l2.64-0.656c1.977-2.64,3.953-5.273,6.593-7.906c5.936-4.623,11.866-7.257,17.139-7.92L253.827,503.585z"/>
		</g>
	</g>
	<g>
		<g>
			<path d="M228.112,493.032c-0.656-0.663-1.313-0.663-1.977,0.663c-0.656,0.657,0,1.971,0.663,2.634
				c3.953,1.977,5.93,7.256,5.93,14.505c0,1.313,0.663,1.977,1.977,1.977l1.983-1.977
				C237.345,501.602,234.049,495.666,228.112,493.032z"/>
		</g>
	</g>
	<g>
		<g>
			<path fill="#D96038" d="M45.494,515.444c-1.32,4.623-1.32,8.576,0.657,11.872c1.977,3.953,5.273,6.593,9.233,7.906l12.522-0.656
				c3.959-2.64,6.593-5.273,7.913-9.89c1.32-3.953,1.32-7.906-1.32-11.866c-1.977-3.959-4.616-5.93-9.226-7.912L53.4,506.218
				C49.447,508.194,46.807,510.834,45.494,515.444z"/>
		</g>
	</g>
	<g>
		<g>
			<path d="M78.458,525.997c1.313-5.273,1.313-9.89-1.32-14.506c-1.977-4.61-5.937-7.906-10.553-9.232l-14.5,1.326
				c-4.616,1.97-7.256,5.93-9.232,10.546l-1.32,5.937c0,3.296,1.32,5.93,2.64,8.563c1.977,4.623,5.93,7.256,10.546,9.233
				l13.849-0.657C73.842,534.566,76.475,530.613,78.458,525.997z M71.865,514.131c1.977,3.297,2.633,6.593,1.313,9.89
				c-1.313,3.296-3.296,6.593-6.593,7.906l-9.89,1.326c-3.296-1.326-5.93-3.297-7.906-6.593c-1.32-3.297-1.983-6.593-0.663-10.553
				c0.663-3.297,3.296-5.93,6.593-7.913l9.89-0.656C67.906,508.194,70.545,510.834,71.865,514.131z"/>
		</g>
	</g>
	<g>
		<g>
			<path d="M74.499,508.852c-0.657-1.313-1.977-1.313-2.633-1.313c-6.593,3.296-10.552,9.232-13.849,16.482l-3.297,11.202
				c0,1.983,0.664,1.983,2.64,2.641l1.32-1.978l2.633-9.226c2.64-7.256,6.593-12.529,11.866-15.169L74.499,508.852z"/>
		</g>
	</g>
	<g>
		<g>
			<path d="M46.807,510.178c-1.313,0-1.977,0.656-1.977,1.97c0,1.327,0.663,1.983,1.977,1.983c4.616,0,8.576,3.297,11.873,9.89
				c0,1.313,1.313,1.313,2.633,1.313l0.663-2.634C58.017,514.131,53.4,510.178,46.807,510.178z"/>
		</g>
	</g>
	<g>
		<g>
			<path fill="#D96038" d="M81.092,477.87c1.977,3.953,5.273,5.936,9.889,7.249c3.959,0.657,7.913,0,11.866-1.977
				c3.296-2.633,5.936-5.93,6.593-10.553c1.32-3.953,0-7.906-1.977-11.859c-2.633-3.296-5.93-5.936-9.89-6.593
				c-3.953-1.326-7.913,0-11.866,1.971c-3.953,1.982-5.936,5.279-7.25,9.889C77.795,470.62,78.458,473.917,81.092,477.87z"/>
		</g>
	</g>
	<g>
		<g>
			<path d="M84.388,454.138c-3.953,1.971-6.593,5.93-8.57,11.859l-0.657,3.297c0,3.96,1.313,7.256,3.297,9.89
				c3.296,4.622,6.593,7.919,11.866,8.575c4.616,0.657,9.89,0,13.843-2.64c3.959-2.64,7.256-6.593,7.913-11.202
				c1.32-5.28,0.657-9.89-2.64-14.513c-1.977-3.953-5.93-6.593-11.203-7.906C93.621,450.179,88.348,450.842,84.388,454.138z
				 M87.028,458.091c3.296-1.982,6.593-1.982,9.889-1.982c3.954,1.326,6.593,3.296,7.913,6.593c2.633,2.64,3.296,6.593,2.633,9.889
				c-1.32,3.297-3.296,6.594-5.93,7.92c-3.296,2.633-6.593,3.296-9.89,1.97c-3.959-0.656-6.593-2.633-8.576-5.93
				c-1.977-2.633-2.633-5.93-1.977-9.89C81.755,462.701,83.731,460.067,87.028,458.091z"/>
		</g>
	</g>
	<g>
		<g>
			<path d="M94.277,451.498c-1.977,0-2.633,0-2.633,1.313c-1.32,7.256,0,14.512,3.953,21.105c1.977,3.953,4.617,6.593,7.25,9.889
				c0.663,0.657,1.32,0.657,1.983,0c1.313-1.326,1.313-1.982,0-3.296l-5.28-7.92c-3.953-6.593-5.273-13.186-3.953-18.452
				C95.597,452.812,94.94,451.498,94.277,451.498z"/>
		</g>
	</g>
	<g>
		<g>
			<path d="M89.661,469.294c-5.273,0-9.226,1.326-11.866,4.623v2.633l3.297-0.663c1.32-1.97,4.616-3.297,9.232-3.297l5.93,1.327
				c1.32,0,1.983,0,1.983-1.327l-1.32-3.296H89.661z"/>
		</g>
	</g>
	<g>
		<g>
			<path fill="#D96038" d="M226.136,529.293c-2.633,3.297-4.616,7.257-4.616,11.21c0,4.609,1.983,8.569,4.616,11.865
				c3.297,2.634,7.256,4.616,11.209,4.616c4.617,0,8.57-1.982,11.866-4.616c2.64-3.296,4.616-7.256,4.616-11.865
				c0-3.953-1.977-7.913-4.616-11.21c-3.296-2.633-7.249-4.616-11.866-4.616C233.392,524.677,229.433,526.66,226.136,529.293z"/>
		</g>
	</g>
	<g>
		<g>
			<path d="M250.531,527.316c-3.297-3.296-7.913-5.279-13.187-5.279c-4.616,0-9.232,1.983-13.186,5.279
				c-3.296,3.953-5.272,8.569-5.272,13.187c0,5.272,1.977,9.889,5.272,13.186c3.953,3.953,8.569,5.273,13.186,5.273
				c5.273,0,9.89-1.32,13.187-5.273c3.953-3.297,5.936-7.913,5.936-13.186C256.467,535.886,254.484,531.27,250.531,527.316z
				 M224.159,540.503c0-3.297,1.32-6.594,3.953-9.233c2.64-2.64,5.937-3.953,9.232-3.953c3.953,0,6.594,1.313,9.89,3.953
				c2.64,2.64,3.297,5.937,3.297,9.233c0,3.953-0.657,7.249-3.297,9.889c-2.64,1.977-5.937,3.297-9.89,3.297
				c-3.296,0-6.593-1.32-9.232-3.297C225.479,547.752,224.159,544.456,224.159,540.503z"/>
		</g>
	</g>
	<g>
		<g>
			<path fill="#D96038" d="M21.755,539.183c-4.616,1.977-6.593,5.273-8.569,9.89c-1.32,3.959-0.657,7.912,1.32,11.866
				c1.977,3.953,5.273,6.593,9.226,7.912l12.529-0.663c3.296-2.633,6.593-5.267,7.913-9.226c0.657-4.617,0.657-8.57-1.32-12.523
				c-1.977-3.959-5.273-6.593-9.89-7.919L21.755,539.183z"/>
		</g>
	</g>
	<g>
		<g>
			<path d="M34.285,535.886l-14.506,1.32c-3.953,1.977-7.25,5.937-9.233,10.546c-1.313,5.279-0.657,9.89,1.983,14.506
				c1.977,4.616,5.93,7.256,10.546,9.227l14.506-1.313c3.953-1.983,7.25-5.937,8.569-11.209c1.977-4.617,1.32-9.227-1.32-13.85
				C42.854,540.503,39.558,537.206,34.285,535.886z M22.418,541.816l10.546-0.657c3.297,1.32,5.937,3.297,7.913,6.593
				c1.32,2.64,1.32,5.937,0.657,9.89c-1.32,3.297-3.296,5.937-6.593,7.913l-10.546,0.663c-3.959-0.663-5.936-3.297-7.913-5.937
				c-1.32-3.297-1.32-6.593-0.657-10.546C17.139,545.775,19.779,543.799,22.418,541.816z"/>
		</g>
	</g>
	<g>
		<g>
			<path fill="#D96038" d="M330.303,446.219c-2.634,3.296-3.953,7.256-3.953,11.216c0,4.609,1.319,8.563,3.953,11.859
				c3.297,3.296,7.256,4.623,11.872,4.623c3.953,0,7.906-1.327,10.547-4.623c3.296-3.297,5.272-7.25,5.272-11.859
				c0-3.96-1.977-7.92-5.272-11.216c-2.641-2.634-6.594-4.61-10.547-4.61C337.559,441.608,333.6,443.585,330.303,446.219z"/>
		</g>
	</g>
	<g>
		<g>
			<path d="M328.989,444.248c-3.96,3.953-5.937,8.563-5.937,13.187c0,5.267,1.977,9.889,5.937,13.186
				c3.297,3.953,7.906,5.93,13.186,5.93c4.61,0,9.227-1.977,13.187-5.93c3.296-3.297,4.609-7.919,4.609-13.186
				c0-4.623-1.313-9.233-4.609-13.187c-3.96-3.296-8.576-4.622-13.187-4.622C336.896,439.626,332.286,440.952,328.989,444.248z
				 M332.942,467.323c-3.296-2.64-3.953-5.936-3.953-9.889c0-3.297,0.657-6.593,3.953-9.233c2.64-1.982,5.273-3.953,9.232-3.953
				c3.297,0,6.593,1.971,9.227,3.953c1.977,2.641,3.96,5.937,3.96,9.233c0,3.953-1.983,7.249-3.96,9.889
				c-2.634,2.634-5.93,3.954-9.227,3.954C338.216,471.277,334.919,469.957,332.942,467.323z"/>
		</g>
	</g>
	<g>
		<g>
			<path fill="#D96038" d="M249.211,168.002c1.977-3.296,3.297-7.25,2.64-11.209c-1.319-4.617-2.64-8.57-6.593-11.209
				c-3.96-1.977-7.913-3.296-11.866-1.977c-3.959,0.663-7.912,2.633-9.889,6.593c-2.64,3.297-3.96,7.256-2.64,11.209
				c0,4.61,2.64,8.569,5.936,10.546c3.953,2.64,7.25,3.953,11.866,2.64C243.281,173.939,246.578,171.956,249.211,168.002z"/>
		</g>
	</g>
	<g>
		<g>
			<path d="M233.392,140.311c-5.279,1.32-9.232,3.296-12.528,7.913c-3.297,3.953-3.954,8.57-3.297,13.843
				c0.656,4.616,3.297,9.232,7.913,11.873c4.616,3.296,8.569,4.61,13.842,3.296c4.617-0.663,8.57-3.296,11.866-7.256
				c2.64-3.296,3.297-6.593,3.297-11.209v-3.296c-0.657-5.273-3.953-8.57-7.25-11.866
				C242.618,140.974,238.002,140.311,233.392,140.311z M222.84,161.41c0-3.953,0.663-7.25,1.977-9.89
				c2.64-3.296,5.279-4.616,9.232-5.936c3.296-0.657,6.593,0,9.89,2.64c3.296,1.977,4.616,5.273,5.272,8.57
				c0.663,3.296,0,6.593-1.977,9.889c-2.64,3.296-5.272,4.616-9.232,5.93l-9.89-2.633
				C225.479,167.346,223.503,164.706,222.84,161.41z"/>
		</g>
	</g>
	<g>
		<g>
			<path d="M227.456,144.927l-3.297,0.657c-0.656,1.32-0.656,1.983,0.657,2.64c4.616,3.953,7.912,9.233,9.232,16.482l1.319,9.89
				c0,1.977,0.657,1.977,1.977,1.977l1.977-1.977l-1.319-11.209C236.688,155.474,232.729,149.537,227.456,144.927z"/>
		</g>
	</g>
	<g>
		<g>
			<path d="M239.321,155.474l-5.272,5.936c-0.657,0.657-0.657,1.977,0.656,1.977h2.64l3.953-4.616
				c3.297-3.296,5.937-3.953,9.233-3.953l2.64-1.32l-1.983-2.634C247.234,150.2,243.281,151.52,239.321,155.474z"/>
		</g>
	</g>
	<g>
		<g>
			<path d="M36.918,349.965c-1.313-0.657-1.977,0-2.633,1.319c0,0.663,0,1.977,0.657,2.634l13.186,4.622
				c1.32,1.313,2.64,0.657,3.296-0.663c0-1.319,0-2.633-1.977-2.633L36.918,349.965z"/>
		</g>
	</g>
	<g>
		<g>
			<path d="M65.272,373.696c-0.663-1.313-1.983-1.313-3.296,0.663l-6.593,11.21c-0.664,1.313-0.664,2.64,0.657,2.64h2.64
				l7.25-12.529L65.272,373.696z"/>
		</g>
	</g>
	<g>
		<g>
			<path d="M71.865,403.364c-1.32,0-1.983,1.327-1.983,1.983l-1.977,16.482c0,1.313,0.663,1.977,1.977,1.977l1.983-1.977
				l1.977-15.825L71.865,403.364z"/>
		</g>
	</g>
	<g>
		<g>
			<path d="M52.743,413.254c0-1.97-1.32-1.97-1.977-1.97c-1.32,0-2.64,0.656-2.64,1.97l1.32,14.513c0,0.656,0.657,1.97,1.977,1.97
				l1.977-2.633L52.743,413.254z"/>
		</g>
	</g>
	<g>
		<g>
			<path d="M44.831,417.877c0-1.983,0-2.64-1.977-1.983l-11.209,0.657c-1.32,0.663-1.977,1.326-1.977,2.64
				c0,0.656,1.32,1.982,1.977,1.982l11.866-1.326L44.831,417.877z"/>
		</g>
	</g>
	<g>
		<g>
			<path d="M44.831,439.626c0-1.971-1.32-1.971-1.977-1.971c-1.977,0-1.977,0.657-1.977,1.971l1.32,11.216l2.633,1.97l1.32-1.97
				L44.831,439.626z"/>
		</g>
	</g>
	<g>
		<g>
			<path d="M61.313,456.108c-0.657-1.313-1.32-1.971-2.633-1.313l-14.506,5.272c-1.32,0.663-1.32,1.32-1.32,2.634
				c0.657,1.326,1.977,1.326,2.64,1.326l14.5-5.937L61.313,456.108z"/>
		</g>
	</g>
</g>
</svg>
